<?xml version="1.0" encoding="UTF-8" standalone="no"?>
<!-- Created with Inkscape (http://www.inkscape.org/) -->

<svg
   xmlns:dc="http://purl.org/dc/elements/1.1/"
   xmlns:cc="http://creativecommons.org/ns#"
   xmlns:rdf="http://www.w3.org/1999/02/22-rdf-syntax-ns#"
   xmlns:svg="http://www.w3.org/2000/svg"
   xmlns="http://www.w3.org/2000/svg"
   xmlns:sodipodi="http://sodipodi.sourceforge.net/DTD/sodipodi-0.dtd"
   xmlns:inkscape="http://www.inkscape.org/namespaces/inkscape"
   id="svg1307"
   sodipodi:docname="earthworm.svg"
   inkscape:export-filename="/Users/ryan/projects/variant-tap-graphics/variants.png"
   viewBox="0 0 753.1 753.10001"
   sodipodi:version="0.32"
   inkscape:export-xdpi="65.266235"
   version="1.1"
   inkscape:output_extension="org.inkscape.output.svg.inkscape"
   inkscape:export-ydpi="65.266235"
   inkscape:version="0.92.2 5c3e80d, 2017-08-06"
   width="753.09998"
   height="753.09998">
  <defs
     id="defs14" />
  <sodipodi:namedview
     id="base"
     fit-margin-left="0"
     inkscape:showpageshadow="false"
     inkscape:zoom="0.58933235"
     borderopacity="0.09019608"
     inkscape:current-layer="g3574"
     inkscape:cx="135.92641"
     inkscape:cy="425.52388"
     fill="#729fcf"
     inkscape:grid-points="false"
     inkscape:grid-bbox="false"
     inkscape:window-maximized="1"
     showgrid="false"
     fit-margin-right="0"
     inkscape:guide-bbox="true"
     showguides="true"
     bordercolor="#666"
     inkscape:window-x="0"
     inkscape:window-y="1"
     fit-margin-bottom="0"
     inkscape:window-width="1440"
     inkscape:pageopacity="0.0"
     inkscape:pageshadow="2"
     pagecolor="#ffffff"
     inkscape:document-units="px"
     inkscape:window-height="800"
     showborder="true"
     fit-margin-top="0"
     inkscape:snap-nodes="false"
     inkscape:snap-others="false"
     inkscape:snap-bbox="false">
    <inkscape:grid
       id="GridFromPre046Settings"
       opacity=".2"
       visible="true"
       color="#0000ff"
       enabled="true"
       originy="0"
       originx="0"
       empspacing="2"
       spacingy="0.5"
       spacingx="0.5"
       snapvisiblegridlinesonly="true"
       empopacity="0.4"
       type="xygrid"
       empcolor="#0000ff" />
  </sodipodi:namedview>
  <g
     id="layer1"
     inkscape:label="Layer 1"
     inkscape:groupmode="layer"
     transform="translate(-1049.8,605.82999)">
    <g
       id="g3574"
       transform="matrix(15.319,0,0,15.319,-14743,-2890.7)">
      <g
         id="g21"
         transform="translate(-0.05777089,-12.523174)">
        <path
           inkscape:connector-curvature="0"
           style="fill:#e1abb3;stroke:#000000;stroke-width:1px"
           sodipodi:nodetypes="zaaaaaaaaaaaaaaaacsccssz"
           d="m 1045.3246,186.6715 c 0.8425,1.54368 2.8071,4.21624 5.0257,4.3976 2.3419,0.19143 3.9135,-2.61598 5.9883,-3.7188 1.6036,-0.85235 3.1683,-2.01382 4.9716,-2.22837 1.5708,-0.18689 3.2205,0.22601 4.6651,0.87077 1.493,0.66643 2.612,1.96819 3.8897,2.98836 1.6723,1.33521 2.8744,4.65303 4.9413,4.09866 2.5198,-0.67581 0.1062,-7.33195 2.715,-7.34038 2.0328,-0.007 2.0876,3.67408 2.1524,5.70581 0.067,2.09726 -0.1239,4.81461 -1.8417,6.01954 -1.3527,0.94875 -3.4167,0.3641 -4.9503,-0.25043 -2.2957,-0.91984 -3.4561,-3.64529 -5.6185,-4.84543 -1.7024,-0.94484 -3.654,-2.03959 -5.5771,-1.73569 -1.9725,0.31169 -3.1519,2.4786 -4.8926,3.45729 -2.0152,1.13306 -4.0575,2.589 -6.3631,2.75973 -1.9918,0.14749 -4.0203,-0.61911 -5.7881,-1.5484 -1.4947,-0.7857 -2.5401,-2.22701 -3.8531,-3.28876 -1.3129,-1.06159 -2.378,-3.2912 -4.0218,-3.079 -2.1741,-0.8485 -2.643,0.02 -4.3482,-3.0226 -1.2485,-2.228 -1.1135,-3.4466 -0.5832,-6.6813 1.1135,-2.2801 1.4317,-2.8633 3.9769,-4.083 2.3332,-1.0605 3.4467,-0.6893 5.992,0.9015 3.0407,1.9005 3.1815,3.3406 3.0225,5.6207 -0.1591,2.2802 -0.3452,3.45852 0.4972,5.0022 z"
           id="path3355" />
        <ellipse
           ry="1.6872804"
           rx="0.20622316"
           cy="1090.4611"
           cx="178.94547"
           transform="matrix(6.565,0.97035,-0.17709,1.1981,55.06,-1300.6)"
           style="fill:#ffffff"
           id="path4125" />
        <ellipse
           ry="1.6872804"
           rx="0.20622316"
           cy="1090.4611"
           cx="178.94547"
           transform="matrix(4.1687,0.54949,-0.11245,0.67845,413.28,-657.73)"
           style="fill:#000000"
           id="path4125-1" />
        <path
           inkscape:connector-curvature="0"
           style="fill:#000000"
           sodipodi:nodetypes="csccscccccc"
           d="m 1036.3,176.87 c 0,0 0.6231,-0.5833 0.9677,-0.7026 0.3447,-0.1193 0.5038,0.9412 0.5966,1.034 0.093,0.093 0.1988,0.1458 0.3049,0.093 0.106,-0.053 0.093,-0.3182 0.093,-0.4242 0,-0.1061 -0.2386,-0.7954 -0.4375,-1.1136 -0.1591,-0.2651 -0.1591,-0.3314 -0.4905,-0.2386 -0.3314,0.093 -1.0737,0.57 -1.1798,0.7689 -0.1061,0.1988 -0.2784,0.4507 -0.1458,0.5568 0.1325,0.106 0.2916,0.027 0.2916,0.027 z"
           id="path4147" />
        <path
           inkscape:connector-curvature="0"
           style="fill:#000000"
           d="m 1032.3,185.02 c 0,0 0.6495,-1.1268 1.0075,-0.9412 0.3579,0.1856 0.5037,0.7291 0.9544,0.6231 0.4508,-0.1061 0.5833,-0.5435 0.9147,-0.57 0.3314,-0.027 0.4773,0.1855 0.7822,0.4772 0.3049,0.2916 0.5567,0.7954 0.3314,0.9412 -0.2254,0.1458 -0.6363,-0.1856 -0.6761,-0.2651 -0.04,-0.08 -0.1326,-0.517 -0.3712,-0.3977 -0.2386,0.1193 -0.3447,0.4905 -0.6496,0.517 -0.3049,0.026 -0.8484,0.053 -1.0737,-0.2254 -0.2254,-0.2784 -0.411,-0.4374 -0.5833,-0.1591 -0.1724,0.2784 -0.4773,0.5568 -0.5568,0.464 -0.08,-0.093 -0.08,-0.464 -0.08,-0.464 z"
           id="path4149" />
      </g>
    </g>
  </g>
  <metadata
     id="metadata11">
    <rdf:RDF>
      <cc:Work>
        <dc:format>image/svg+xml</dc:format>
        <dc:type
           rdf:resource="http://purl.org/dc/dcmitype/StillImage" />
        <cc:license
           rdf:resource="http://creativecommons.org/publicdomain/zero/1.0/" />
        <dc:publisher>
          <cc:Agent
             rdf:about="http://openclipart.org/">
            <dc:title>Openclipart</dc:title>
          </cc:Agent>
        </dc:publisher>
        <dc:title>Funny Earthworm Cartoon</dc:title>
        <dc:date>2011-04-04T20:39:33</dc:date>
        <dc:description>Funny Earthworm - Drôle de ver de terre - Lustig Regenwurm - Lombrico divertente</dc:description>
        <dc:source>https://openclipart.org/detail/131059/funny-earthworm-cartoon-by-palomaironique</dc:source>
        <dc:creator>
          <cc:Agent>
            <dc:title>palomaironique</dc:title>
          </cc:Agent>
        </dc:creator>
        <dc:subject>
          <rdf:Bag>
            <rdf:li>Bild</rdf:li>
            <rdf:li>Cartoon</rdf:li>
            <rdf:li>Comic</rdf:li>
            <rdf:li>Earth</rdf:li>
            <rdf:li>Earthworm</rdf:li>
            <rdf:li>Erde</rdf:li>
            <rdf:li>Figur</rdf:li>
            <rdf:li>Grafik</rdf:li>
            <rdf:li>Ikone</rdf:li>
            <rdf:li>Inkscape</rdf:li>
            <rdf:li>Linie</rdf:li>
            <rdf:li>Lombrico</rdf:li>
            <rdf:li>Maskottchen</rdf:li>
            <rdf:li>Medien</rdf:li>
            <rdf:li>Regen</rdf:li>
            <rdf:li>Regenwurm</rdf:li>
            <rdf:li>Symbol</rdf:li>
            <rdf:li>Text</rdf:li>
            <rdf:li>Vektor</rdf:li>
            <rdf:li>Zeichen</rdf:li>
            <rdf:li>amuesant</rdf:li>
            <rdf:li>amusant</rdf:li>
            <rdf:li>amusing</rdf:li>
            <rdf:li>amüsant</rdf:li>
            <rdf:li>art</rdf:li>
            <rdf:li>bande</rdf:li>
            <rdf:li>buffo</rdf:li>
            <rdf:li>cartoon</rdf:li>
            <rdf:li>clip</rdf:li>
            <rdf:li>comics</rdf:li>
            <rdf:li>dessinée</rdf:li>
            <rdf:li>divertente</rdf:li>
            <rdf:li>divertimento</rdf:li>
            <rdf:li>divertissant</rdf:li>
            <rdf:li>domain</rdf:li>
            <rdf:li>domaine</rdf:li>
            <rdf:li>drollig</rdf:li>
            <rdf:li>drôle</rdf:li>
            <rdf:li>entertaining</rdf:li>
            <rdf:li>figure</rdf:li>
            <rdf:li>fumetti</rdf:li>
            <rdf:li>fumetto</rdf:li>
            <rdf:li>fun</rdf:li>
            <rdf:li>funny</rdf:li>
            <rdf:li>grafica</rdf:li>
            <rdf:li>graphic</rdf:li>
            <rdf:li>graphique</rdf:li>
            <rdf:li>icon</rdf:li>
            <rdf:li>icona</rdf:li>
            <rdf:li>icône</rdf:li>
            <rdf:li>immagine</rdf:li>
            <rdf:li>komisch</rdf:li>
            <rdf:li>laecherlich</rdf:li>
            <rdf:li>ligne</rdf:li>
            <rdf:li>line</rdf:li>
            <rdf:li>linea</rdf:li>
            <rdf:li>lineart</rdf:li>
            <rdf:li>logo</rdf:li>
            <rdf:li>lombric</rdf:li>
            <rdf:li>lustig</rdf:li>
            <rdf:li>lächerlich</rdf:li>
            <rdf:li>mascot</rdf:li>
            <rdf:li>mascotte</rdf:li>
            <rdf:li>outline</rdf:li>
            <rdf:li>pioggia</rdf:li>
            <rdf:li>piove</rdf:li>
            <rdf:li>pluie</rdf:li>
            <rdf:li>portafortuna</rdf:li>
            <rdf:li>public</rdf:li>
            <rdf:li>rain</rdf:li>
            <rdf:li>ridicolo</rdf:li>
            <rdf:li>ridicule</rdf:li>
            <rdf:li>ridiculous</rdf:li>
            <rdf:li>segno</rdf:li>
            <rdf:li>sign</rdf:li>
            <rdf:li>signe</rdf:li>
            <rdf:li>simbolo</rdf:li>
            <rdf:li>spassig</rdf:li>
            <rdf:li>spaßig</rdf:li>
            <rdf:li>symbol</rdf:li>
            <rdf:li>symbole</rdf:li>
            <rdf:li>talismano</rdf:li>
            <rdf:li>terra</rdf:li>
            <rdf:li>terre</rdf:li>
            <rdf:li>testo</rdf:li>
            <rdf:li>text</rdf:li>
            <rdf:li>texte</rdf:li>
            <rdf:li>vecteur</rdf:li>
            <rdf:li>vector</rdf:li>
            <rdf:li>ver</rdf:li>
            <rdf:li>ver de terre</rdf:li>
            <rdf:li>vettore</rdf:li>
            <rdf:li>vettoriale</rdf:li>
            <rdf:li>witzig</rdf:li>
            <rdf:li>worm</rdf:li>
          </rdf:Bag>
        </dc:subject>
      </cc:Work>
      <cc:License
         rdf:about="http://creativecommons.org/publicdomain/zero/1.0/">
        <cc:permits
           rdf:resource="http://creativecommons.org/ns#Reproduction" />
        <cc:permits
           rdf:resource="http://creativecommons.org/ns#Distribution" />
        <cc:permits
           rdf:resource="http://creativecommons.org/ns#DerivativeWorks" />
      </cc:License>
    </rdf:RDF>
  </metadata>
</svg>
