<?xml version="1.0" encoding="UTF-8" standalone="no"?>
<!-- Created with Inkscape (http://www.inkscape.org/) -->

<svg
   xmlns:dc="http://purl.org/dc/elements/1.1/"
   xmlns:cc="http://creativecommons.org/ns#"
   xmlns:rdf="http://www.w3.org/1999/02/22-rdf-syntax-ns#"
   xmlns:svg="http://www.w3.org/2000/svg"
   xmlns="http://www.w3.org/2000/svg"
   xmlns:sodipodi="http://sodipodi.sourceforge.net/DTD/sodipodi-0.dtd"
   xmlns:inkscape="http://www.inkscape.org/namespaces/inkscape"
   id="svg2"
   sodipodi:docname="openclipart_644_wavy_checkered_flag.svg"
   viewBox="0 0 583.58886 583.58887"
   version="1.1"
   inkscape:version="0.92.2 5c3e80d, 2017-08-06"
   width="583.58887"
   height="583.58887"
   inkscape:export-filename="/Users/ryan/projects/variant-tap/app/src/main/assets/variants/openclipart_644_wavy_checkered_flag.png"
   inkscape:export-xdpi="84.223679"
   inkscape:export-ydpi="84.223679">
  <defs
     id="defs56" />
  <sodipodi:namedview
     id="base"
     bordercolor="#666666"
     inkscape:pageshadow="2"
     inkscape:window-y="1"
     pagecolor="#ffffff"
     inkscape:window-height="800"
     inkscape:window-maximized="1"
     inkscape:zoom="1.0458601"
     inkscape:window-x="0"
     showgrid="false"
     borderopacity="1.0"
     inkscape:current-layer="g4788"
     inkscape:cx="368.06252"
     inkscape:cy="275.26538"
     showguides="true"
     inkscape:guide-bbox="true"
     inkscape:window-width="1440"
     inkscape:pageopacity="0.0"
     inkscape:document-units="px"
     fit-margin-top="0"
     fit-margin-left="0"
     fit-margin-right="0"
     fit-margin-bottom="0"
     inkscape:pagecheckerboard="false" />
  <g
     id="layer1"
     inkscape:label="Layer 1"
     inkscape:groupmode="layer"
     transform="translate(-52.531612,-150.80957)">
    <g
       id="g4788"
       transform="translate(14.784392,0)">
      <path
         id="path4736"
         d="m 389.67,311.12 c -7.2174,-4.8294 -14.212,-9.2335 -14.226,-9.6222 -0.0469,-1.3536 11.521,-14.049 15.565,-17.135 2.5163,-1.9196 6.3899,-3.3771 8.1723,-3.3771 4.0286,0 8.3541,4.6015 10.49,9.4304 2.0025,4.5269 1.0228,7.4016 -2.6793,18.108 -1.0713,3.0984 -2.5808,6.5936 -2.6953,8.0967 -0.11453,1.5031 1.0434,4.7262 0.76085,4.6912 -0.28255,-0.035 -8.1713,-5.363 -15.389,-10.192 z"
         sodipodi:nodetypes="csssssssc"
         style="color:#000000;fill:#434343;stroke:#434343;stroke-linecap:round;stroke-linejoin:round"
         transform="translate(52.53,151.15)"
         inkscape:connector-curvature="0" />
      <path
         id="path4738"
         d="m 466.02,257.01 -7.7331,-8.0632 5.9967,-12.51 c 9.3958,-18.751 17.784,-21.843 26.793,-14.262 3.7503,3.1556 5.3551,9.3772 3.9281,14.776 -0.59073,2.235 -4.0044,8.0199 -7.5859,13.35 -3.5815,5.3297 -7.4792,10.891 -7.8376,12.523 -0.35849,1.6322 -0.21916,5.4917 -0.67892,5.7759 -0.45976,0.28415 -5.6571,-4.8238 -10.726,-9.7034 l -2.1568,-1.8872 z"
         sodipodi:nodetypes="cccssssscc"
         style="color:#000000;fill:#434343;stroke:#434343;stroke-linecap:round;stroke-linejoin:round"
         transform="translate(52.53,151.15)"
         inkscape:connector-curvature="0" />
      <rect
         id="rect2818"
         style="color:#000000;fill:#000000;stroke:#ffc7c7;stroke-width:0.2;stroke-linecap:round;stroke-linejoin:round"
         transform="matrix(0.78076858,0.62482031,-0.62482031,0.78076858,0,0)"
         ry="5.3836999"
         height="10.767"
         width="601.71002"
         y="239.19"
         x="264.64999" />
      <path
         id="path4600"
         d="m 11.793,345.53 c 24.506,-28.2 51.593,-145.4 106.14,-147.42 18.815,-3.5938 205.68,172.75 283.41,219.35 -22.073,-12.227 -79.899,121.52 -111.23,150.95"
         sodipodi:nodetypes="cccc"
         style="fill:none;stroke:#000000;stroke-width:1px"
         transform="translate(52.53,15.031)"
         inkscape:connector-curvature="0" />
      <path
         id="path4602"
         d="m 401.04,417.3 c 1.392,0.77334 6.8881,3.0236 9.5701,10.575 2.8828,10.513 -11.823,26.289 -2.5653,32.045 37.332,23.211 45.649,-125.24 81.373,-103.78 0,0 -259.1,-199.97 -284.22,-199.31 -28.699,1.4582 -52.575,62.785 -52.575,62.785"
         sodipodi:nodetypes="cccccc"
         style="fill:none;stroke:#000000;stroke-width:1px"
         transform="translate(52.53,15.031)"
         inkscape:connector-curvature="0" />
      <path
         id="path4604"
         d="m 489.08,355.89 c 1.9487,1.1014 11.377,7.215 4.4774,22.251 -2.2888,4.9874 -20.597,24.421 -11.846,30.375 28.537,19.415 71.677,-101.73 71.677,-101.73 -75.351,-29.679 -148.59,-98.942 -261.32,-170.17 -3.4029,24.688 -23.178,39.927 -32.834,50.024"
         sodipodi:nodetypes="cccccc"
         style="fill:none;stroke:#000000;stroke-width:1px"
         transform="translate(52.53,15.031)"
         inkscape:connector-curvature="0" />
      <path
         id="path4659"
         d="M 480.71,271.54 457.97,249.8"
         sodipodi:nodetypes="cc"
         style="fill:none;stroke:#000000;stroke-width:1px"
         transform="translate(52.53,151.15)"
         inkscape:connector-curvature="0" />
      <path
         id="path4661"
         d="M 408.14,323.87 374.729,301.614"
         sodipodi:nodetypes="cc"
         style="fill:none;stroke:#000000;stroke-width:1px"
         transform="translate(52.53,151.15)"
         inkscape:connector-curvature="0" />
      <path
         id="path4663"
         d="M 53.544,239.99 C 87.73,188.51 96.496,118.54 156.814,86.05"
         sodipodi:nodetypes="cc"
         style="fill:none;stroke:#000000;stroke-width:1px"
         transform="translate(52.53,151.15)"
         inkscape:connector-curvature="0" />
      <path
         id="path4663-6"
         sodipodi:nodetypes="cc"
         style="fill:none;stroke:#000000;stroke-width:1px"
         d="M 151.01,428.91 C 185.2,377.43 194.92,307.46 255.23,274.97"
         inkscape:connector-curvature="0" />
      <path
         id="path4663-0"
         sodipodi:nodetypes="cc"
         style="fill:none;stroke:#000000;stroke-width:1px"
         d="M 196.91,467.16 C 240.66,410.89 248.94,354.07 301.6,313.93"
         inkscape:connector-curvature="0" />
      <path
         id="path4663-7"
         sodipodi:nodetypes="cc"
         style="fill:none;stroke:#000000;stroke-width:1px"
         d="m 247.58,507.32 c 42.8,-47.66 48.93,-119.55 102.55,-152.99"
         inkscape:connector-curvature="0" />
      <path
         id="path4663-2"
         sodipodi:nodetypes="cc"
         style="fill:none;stroke:#000000;stroke-width:1px"
         d="m 293.48,546.52 c 42.79,-48.62 51.56,-109.98 109,-150.12"
         inkscape:connector-curvature="0" />
      <path
         id="path4714"
         d="m 69.799,97.527 c 116.36,84.173 197.22,175.87 284.93,234.25"
         sodipodi:nodetypes="cc"
         style="fill:none;stroke:#000000;stroke-width:1px"
         transform="translate(52.53,151.15)"
         inkscape:connector-curvature="0" />
      <path
         id="path4716"
         d="m 38.005,158.96 c 115.7,73.84 177.14,156.09 285.18,225.89"
         sodipodi:nodetypes="cc"
         style="fill:none;stroke:#000000;stroke-width:1px"
         transform="translate(52.53,151.15)"
         inkscape:connector-curvature="0" />
      <path
         id="path4718"
         d="M 92.097,112.97 C 81.987,105.24 73.217,98.417 72.606,97.806 71.765,96.964 73.003,94.779 77.741,88.746 88.08,75.582 97.402,68.24 107.9,64.999 c 8.5214,-2.632 11.929,-2.421 18.242,1.1297 7.6678,4.3125 27.845,18.767 27.845,19.948 0,0.28644 -1.3984,1.3195 -3.1075,2.2957 -10.914,6.2339 -25.856,19.87 -34.915,31.864 -2.8798,3.8126 -5.2914,6.8995 -5.3592,6.8597 -0.0678,-0.0399 -8.3946,-6.3966 -18.504,-14.126 z"
         style="color:#000000;fill:#000000;stroke:#000000;stroke-linecap:round;stroke-linejoin:round"
         transform="translate(52.53,151.15)"
         inkscape:connector-curvature="0" />
      <path
         id="path4720"
         d="m 199.88,202.51 c -2.8924,-2.6975 -13.219,-11.784 -22.948,-20.192 -9.7288,-8.4082 -17.832,-15.651 -18.008,-16.095 -0.38565,-0.9763 4.5999,-7.5472 12.782,-16.826 6.815,-7.7283 16.636,-16.367 25.434,-21.711 l 5.6104,-2.568 22.007,18.426 c 12.104,10.134 22.387,18.733 22.246,19.11 -0.14071,0.37622 -4.3869,4.0249 -8.8305,8.1083 -10.315,9.4787 -17.735,17.838 -25.173,28.359 -3.2528,4.6015 -5.76,9.4362 -6.2958,9.4161 -0.53581,-0.02 -3.9332,-3.3297 -6.8255,-6.0272 z"
         sodipodi:nodetypes="cssscccssssc"
         style="color:#000000;fill:#800080;stroke:#000000;stroke-linecap:round;stroke-linejoin:round"
         transform="translate(52.53,151.15)"
         inkscape:connector-curvature="0" />
      <path
         id="path4722"
         d="m 299.22,288.91 c -2.3152,-1.8808 -13.03,-10.931 -23.811,-20.112 -10.781,-9.1808 -19.766,-16.821 -19.968,-16.978 -0.20163,-0.15704 2.8874,-5.1718 6.8645,-11.144 8.4897,-12.748 17.941,-23.183 27.921,-30.827 l 7.1695,-5.4914 4.6615,3.7165 c 29.238,23.311 47.033,36.969 46.433,37.454 -0.40135,0.32453 -4.9104,3.2398 -8.6522,6.237 -9.3435,7.4841 -20.88,19.698 -29.33,31.052 l -7.0798,9.5129 -4.2095,-3.4197 z"
         sodipodi:nodetypes="cssscccssccc"
         style="color:#000000;fill:#800080;stroke:#000000;stroke-linecap:round;stroke-linejoin:round"
         transform="translate(52.53,151.15)"
         inkscape:connector-curvature="0" />
      <path
         id="path4724"
         d="m 219.04,303.32 c -20.2,-17.492 -41.597,-36.908 -41.408,-37.578 0.37209,-1.3224 21.715,-41.059 25.54,-47.55 1.9541,-3.3164 3.6058,-7.083 4.0326,-6.9219 1.4749,0.55676 45.296,40.574 45.04,41.104 -5.1733,10.71 -27.568,55.504 -27.741,55.488 -0.13457,-0.0128 -2.5928,-2.0566 -5.4628,-4.5417 z"
         sodipodi:nodetypes="csssssc"
         style="color:#000000;fill:#000000;stroke:#000000;stroke-linecap:round;stroke-linejoin:round"
         transform="translate(52.53,151.15)"
         inkscape:connector-curvature="0" />
      <path
         id="path4726"
         d="m 311.19,375.47 c -6.3567,-4.3054 -17.352,-12.096 -24.433,-17.312 l -12.876,-9.4843 8.7169,-15.854 c 12.2,-22.189 20.618,-36.411 21.551,-36.411 0.43645,0 6.9511,4.7446 14.477,10.543 7.5259,5.7989 18.459,13.866 24.296,17.928 l 10.613,7.3843 -3.5492,5.7369 c -1.9521,3.1553 -8.8166,14.665 -15.255,25.577 -6.438,10.912 -11.768,19.813 -11.844,19.78 -0.0765,-0.0332 -5.34,-3.5829 -11.697,-7.8882 z"
         style="color:#000000;fill:#000000;stroke:#000000;stroke-linecap:round;stroke-linejoin:round"
         transform="translate(52.53,151.15)"
         inkscape:connector-curvature="0" />
      <path
         id="path4728"
         d="m 123.9,220.92 c -0.72194,-1.1681 -20.285,-16.796 -32.302,-25.805 -5.1274,-3.8437 -9.3225,-7.3949 -9.3225,-7.8915 0,-2.0559 17.349,-37.6 22.904,-46.927 l 6.0057,-10.082 18.771,15.326 c 26.996,22.042 26.3,19.914 24.752,22.347 -6.1841,9.7208 -10.956,17.864 -19.16,34.575 -5.2286,10.649 -9.8628,19.362 -10.298,19.362 -0.4353,0 -1.0432,-0.40726 -1.3508,-0.90503 z"
         sodipodi:nodetypes="csscccsssc"
         style="color:#000000;fill:#000000;stroke:#000000;stroke-linecap:round;stroke-linejoin:round"
         transform="translate(52.53,151.15)"
         inkscape:connector-curvature="0" />
      <path
         id="path4730"
         d="m 33.904,223.54 c -10.473,-8.46 -18.939,-15.73 -18.815,-16.16 0.12436,-0.4265 1.6797,-3.0518 3.4563,-5.834 1.7766,-2.7822 6.9894,-13.019 11.584,-22.747 4.5946,-9.7288 8.4409,-17.784 8.5474,-17.9 0.26824,-0.29272 10.966,6.857 27.046,18.076 l 13.57,9.4675 -5.2536,11.194 c -6.142,13.087 -14.189,28.44 -18.24,34.798 l -2.8545,4.4814 -19.041,-15.38 z"
         style="color:#000000;fill:#000000;stroke:#000000;stroke-linecap:round;stroke-linejoin:round"
         transform="translate(52.53,151.15)"
         inkscape:connector-curvature="0" />
      <path
         id="path4732"
         d="m 122.91,294.91 c -12.095,-9.7257 -21.862,-18.164 -21.705,-18.752 0.15782,-0.58794 2.3783,-4.6097 4.9344,-8.9373 2.5561,-4.3276 8.2615,-15.389 12.679,-24.582 l 8.0311,-16.713 11.894,10.043 c 16.966,14.325 34.789,30.003 35.152,30.922 0.63945,1.6181 -26.929,45.856 -28.503,45.739 -0.27018,-0.0201 -10.387,-7.994 -22.483,-17.72 z"
         style="color:#000000;fill:#800080;stroke:#000000;stroke-linecap:round;stroke-linejoin:round"
         transform="translate(52.53,151.15)"
         inkscape:connector-curvature="0" />
      <path
         id="path4734"
         d="m 220.76,373.21 c -12.276,-9.8017 -22.464,-17.934 -22.639,-18.071 -0.17552,-0.13742 2.2368,-3.6201 5.3608,-7.7393 6.7546,-8.9065 11.939,-17.066 17.692,-27.848 l 4.2309,-7.9283 13.319,11.275 c 10.337,8.7509 24.626,20.34 31.877,25.855 1.1924,0.90687 -16.945,29.637 -24.135,38.23 l -3.3861,4.0471 -22.32,-17.821 z"
         style="color:#000000;fill:#000000;stroke:#000000;stroke-linecap:round;stroke-linejoin:round"
         transform="translate(52.53,151.15)"
         inkscape:connector-curvature="0" />
      <path
         id="path4740"
         d="M 195.05,116.65 C 213.99,93.291 226.71,40.29 249.14,44.394"
         sodipodi:nodetypes="cc"
         style="fill:none;stroke:#000000;stroke-width:1px"
         transform="translate(52.53,151.15)"
         inkscape:connector-curvature="0" />
      <path
         id="path4742"
         d="m 244.36,157.35 c 22.263,-22.639 33.968,-81.211 52.588,-80.088"
         sodipodi:nodetypes="cc"
         style="fill:none;stroke:#000000;stroke-width:1px"
         transform="translate(52.53,151.15)"
         inkscape:connector-curvature="0" />
      <path
         id="path4744"
         d="m 287.62,194.83 c 19.384,-15.275 41.711,-94.064 58.689,-82.182"
         sodipodi:nodetypes="cc"
         style="fill:none;stroke:#000000;stroke-width:1px"
         transform="translate(52.53,151.15)"
         inkscape:connector-curvature="0" />
      <path
         id="path4746"
         d="m 337.43,234.8 c 23.227,-24.331 37.613,-93.73 58.056,-85.684"
         sodipodi:nodetypes="cc"
         style="fill:none;stroke:#000000;stroke-width:1px"
         transform="translate(52.53,151.15)"
         inkscape:connector-curvature="0" />
      <path
         id="path4748"
         d="m 388.59,272.99 c 14.246,-15.301 25.681,-92.47 49.099,-92.276"
         sodipodi:nodetypes="cc"
         style="fill:none;stroke:#000000;stroke-width:1px"
         transform="translate(52.53,151.15)"
         inkscape:connector-curvature="0" />
      <path
         id="path4750"
         d="m 175.67,41.491 c 100.85,107.6 192.77,142.09 272.76,230.06"
         sodipodi:nodetypes="cc"
         style="fill:none;stroke:#000000;stroke-width:1px"
         transform="translate(52.53,151.15)"
         inkscape:connector-curvature="0" />
      <path
         id="path4752"
         d="M 177.33,101.48 C 167.8325,93.7836 158.667,86.411 156.962,85.096 l -3.1,-2.3904 5.8,-11.768 c 6.3527,-12.889 15.126,-27.198 16.406,-26.758 0.44616,0.15367 9.1964,8.627 19.445,18.83 l 18.634,18.55 -5.8744,11.09 c -3.2309,6.0997 -7.6294,13.73 -9.7744,16.957 l -3.9,5.8662 -17.268,-13.993 z"
         style="color:#000000;fill:#000000;stroke:#000000;stroke-linecap:round;stroke-linejoin:round"
         transform="translate(52.53,151.15)"
         inkscape:connector-curvature="0" />
      <path
         id="path4754"
         d="m 267.65,176.72 c -10.716,-8.9548 -21.299,-18.068 -22.003,-18.739 -1.0612,-1.0107 0.54562,-0.75093 3.3922,-4.4801 3.7623,-4.9289 9.375,-14.313 13.466,-22.513 1.4429,-2.8924 2.5169,-7.1495 2.6894,-7.3414 0.29401,-0.32714 36.369,27.809 41.94,32.458 l 2.5562,2.1332 -5.7325,11.463 c -7.0575,12.893 -13.86,22.068 -16.112,23.475 -1.4545,0.90835 -3.5516,-2.5478 -20.196,-16.456 z"
         sodipodi:nodetypes="csssscccsc"
         style="color:#000000;fill:#000000;stroke:#000000;stroke-linecap:round;stroke-linejoin:round"
         transform="translate(52.53,151.15)"
         inkscape:connector-curvature="0" />
      <path
         id="path4756"
         d="m 377.72,264.26 c -5.5218,-3.9216 -16.603,-12.144 -24.625,-18.272 l -14.585,-11.142 2.3302,-2.4469 c 3.0905,-3.2453 7.9712,-11.45 14.978,-25.18 l 5.7461,-11.259 10.229,7.8644 c 5.6261,4.3254 15.452,12.174 21.834,17.442 l 11.605,9.5774 -3.647,10.55 c -5.021,14.525 -10.271,26.799 -12.207,28.541 -1.4753,1.3271 -2.5114,0.82291 -11.659,-5.6736 z"
         style="color:#000000;fill:#000000;stroke:#000000;stroke-linecap:round;stroke-linejoin:round"
         transform="translate(52.53,151.15)"
         inkscape:connector-curvature="0" />
      <path
         id="path4758"
         d="m 436.52,257.73 c -6.8355,-6.9896 -16.167,-16.098 -20.736,-20.24 l -8.3075,-7.532 3.773,-10.04 c 5.6648,-15.074 11.772,-27.129 16.148,-31.876 4.3659,-4.7364 8.9146,-7.1318 10.798,-5.6866 0.65688,0.5039 11.032,8.4062 23.057,17.561 l 23.048,17.435 -4.8079,0.0668 c -7.9565,1.8817 -16.78,15.665 -25.778,40.268 -2.5003,6.8365 -4.5955,12.502 -4.656,12.591 -0.0605,0.0886 -5.7026,-5.5577 -12.538,-12.547 z"
         sodipodi:nodetypes="ccccsscccsscc"
         style="color:#000000;fill:#000000;stroke:#000000;stroke-linecap:round;stroke-linejoin:round"
         transform="translate(52.53,151.15)"
         inkscape:connector-curvature="0" />
      <path
         id="path4760"
         d="m 336.65,174.89 c -12.862,-9.4608 -23.507,-17.483 -23.8,-17.615 -1.8065,-0.81584 11.988,-27.837 15.59,-33.206 4.8902,-7.2902 11.135,-11.982 13.978,-11.982 1.7902,0 9.2862,5.7209 25.378,17.596 12.561,9.2691 23.997,17.747 24.204,17.931 0.20674,0.18441 -1.4293,-0.1188 -2.4249,0.23429 -6.8571,2.432 -13.097,12.412 -22.511,32.129 -3.5972,7.5343 -6.65,12.19 -6.7841,12.163 -0.1341,-0.0273 -10.768,-7.7902 -23.63,-17.251 z"
         sodipodi:nodetypes="cssssssssc"
         style="color:#000000;fill:#800080;stroke:#000000;stroke-linecap:round;stroke-linejoin:round"
         inkscape:connector-curvature="0"
         transform="translate(52.53,151.15)" />
      <path
         id="path4762"
         d="M 257.67,116.32 C 242.67,103.8 226.38,89.23 222,85.304 l -5.1308,-4.5942 3.5751,-7.0992 c 8.3484,-16.578 15.889,-25.572 23.301,-27.793 4.5523,-1.3639 1.9583,-2.8023 30.979,17.178 18.361,12.641 19.836,12.563 17.723,13.923 -5.5939,3.6004 -10.777,10.232 -18.765,26.509 -4.568,9.3084 -8.2404,18.175 -8.7663,18.191 -0.52589,0.0154 -4.8736,-3.3207 -7.2401,-5.2948 z"
         sodipodi:nodetypes="ccccsssssc"
         style="color:#000000;fill:#000000;stroke:#000000;stroke-linecap:round;stroke-linejoin:round"
         transform="translate(52.53,151.15)"
         inkscape:connector-curvature="0" />
      <path
         id="path4764"
         d="m 270.59,39.202 c 75.525,43.724 161.12,124.3 258.16,186.45"
         sodipodi:nodetypes="cc"
         style="fill:none;stroke:#000000;stroke-width:1px"
         transform="translate(52.53,151.15)"
         inkscape:connector-curvature="0" />
      <path
         id="path4766"
         d="m 335.35,28.173 c -5.0901,35.404 -19.271,34.502 -31.101,54.764"
         sodipodi:nodetypes="cc"
         style="fill:none;stroke:#000000;stroke-width:1px"
         transform="translate(52.53,151.15)"
         inkscape:connector-curvature="0" />
      <path
         id="path4768"
         d="m 382,63.331 c -6.59,29.468 -19.56,37.879 -27.72,54.759"
         sodipodi:nodetypes="cc"
         style="fill:none;stroke:#000000;stroke-width:1px"
         transform="translate(52.53,151.15)"
         inkscape:connector-curvature="0" />
      <path
         id="path4770"
         d="m 423.92,91.727 c -7.602,39.181 -17.598,33.283 -22.311,60.849"
         sodipodi:nodetypes="cc"
         style="fill:none;stroke:#000000;stroke-width:1px"
         transform="translate(52.53,151.15)"
         inkscape:connector-curvature="0" />
      <path
         id="path4772"
         d="m 465.16,121.48 c -5.3804,32.563 -11.4,39.619 -20.283,64.906"
         sodipodi:nodetypes="cc"
         style="fill:none;stroke:#000000;stroke-width:1px"
         transform="translate(52.53,151.15)"
         inkscape:connector-curvature="0" />
      <path
         id="path4774"
         d="m 508.43,149.87 c -4.3229,19.532 -11.256,41.438 -27.044,62.877"
         sodipodi:nodetypes="cc"
         style="fill:none;stroke:#000000;stroke-width:1px"
         transform="translate(52.53,151.15)"
         inkscape:connector-curvature="0" />
      <path
         id="path4776"
         d="m 305.46,60.335 c -5.3919,-3.7028 -14.976,-9.9535 -21.297,-13.89 -6.3216,-3.9369 -11.627,-7.2715 -11.79,-7.4102 -0.16274,-0.13869 0.93099,-1.5388 2.4305,-3.1114 8.0543,-8.4468 14.718,-20.171 17.094,-30.073 0.46829,-1.952 0.9523,-3.5492 1.0756,-3.5492 0.33032,0 24.172,15.422 33.419,21.617 l 7.9805,5.3466 -0.60462,3.2516 c -2.5076,13.486 -8.2186,24.888 -16.24,32.423 l -2.2648,2.1276 -9.8035,-6.7324 z"
         style="color:#000000;fill:#000000;stroke:#000000;stroke-linecap:round;stroke-linejoin:round"
         transform="translate(52.53,151.15)"
         inkscape:connector-curvature="0" />
      <path
         id="path4778"
         d="m 385.15,119.38 -20.646,-15.961 3.5335,-5.431 c 7.1131,-10.933 9.809,-16.784 13.108,-28.448 l 1.7294,-6.1149 20.017,14.444 20.017,14.444 -1.2726,5.5313 c -2.6284,11.424 -5.3425,18.404 -11.538,29.672 l -4.302,7.8246 -20.646,-15.961 z"
         style="color:#000000;fill:#000000;stroke:#000000;stroke-linecap:round;stroke-linejoin:round"
         transform="translate(52.53,151.15)"
         inkscape:connector-curvature="0" />
      <path
         id="path4780"
         d="m 470.94,184.61 c -10.314,-7.4927 -18.757,-13.962 -18.762,-14.375 -0.005,-0.41367 0.85365,-2.8476 1.9076,-5.4088 4.5597,-11.081 8.7682,-25.55 10.932,-37.584 l 0.81475,-4.5315 6.8596,4.597 c 8.096,5.4257 27.042,17.302 31.919,20.007 l 3.4238,1.8998 -0.85111,2.7731 c -0.46812,1.5252 -1.9118,6.6038 -3.2081,11.286 -2.7699,10.004 -6.3883,19.377 -10.977,28.436 l -3.305,6.524 -18.753,-13.623 z"
         style="color:#000000;fill:#800080;stroke:#000000;stroke-linecap:round;stroke-linejoin:round"
         transform="translate(52.53,151.15)"
         inkscape:connector-curvature="0" />
      <path
         id="path4782"
         d="m 423.38,168.79 -21.021,-15.902 1.2026,-5.1491 c 0.66142,-2.832 1.6155,-6.1269 2.1202,-7.322 l 0.91763,-2.1728 7.069,5.5139 c 3.888,3.0326 13.306,10.22 20.929,15.972 7.623,5.7522 14.133,10.697 14.466,10.99 0.34487,0.30236 -0.49228,3.4581 -1.9441,7.3287 -1.4024,3.7387 -2.5877,6.7631 -2.634,6.7208 -0.0463,-0.0423 -9.5436,-7.2328 -21.105,-15.979 z"
         style="color:#000000;fill:#000000;stroke:#000000;stroke-linecap:round;stroke-linejoin:round"
         transform="translate(52.53,151.15)"
         inkscape:connector-curvature="0" />
      <path
         id="path4784"
         d="m 330.81,100.24 c -12.271,-8.9349 -22.893,-16.663 -23.604,-17.173 -1.2579,-0.90282 -1.2464,-0.99662 0.43222,-3.5332 1.9592,-2.9605 7.2014,-9.178 8.0037,-9.4928 0.60483,-0.2373 5.5681,3.3105 29.028,20.749 9.1105,6.7723 16.661,12.59 16.78,12.927 0.11831,0.33766 -0.97863,2.3772 -2.4377,4.5323 -1.459,2.1551 -3.1609,4.9071 -3.782,6.1157 -0.62108,1.2085 -1.3496,2.1798 -1.6189,2.1585 -0.26935,-0.0214 -10.53,-7.3492 -22.801,-16.284 z"
         style="color:#000000;fill:#000000;stroke:#000000;stroke-linecap:round;stroke-linejoin:round"
         transform="translate(52.53,151.15)"
         inkscape:connector-curvature="0" />
      <path
         id="path4786"
         d="m 483.42,272.06 c -5.1803,-3.1584 -3.9792,-7.706 5.8016,-21.966 7.1529,-10.429 9.1247,-17.631 6.5283,-23.845 -1.3297,-3.1825 -2.9236,-4.8655 -8.588,-9.0683 -2.51,-1.8623 -5.3537,-3.6719 -5.3537,-4.0212 0,-0.54042 7.0469,-10.964 8.4505,-12.609 0.25953,-0.30422 3.3954,2.6191 7.21,5.2894 3.8146,2.6703 12.352,8.4322 18.973,12.804 l 12.037,7.9491 -4.412,8.032 c -16.581,30.185 -30.904,43.376 -40.647,37.436 z"
         sodipodi:nodetypes="csssssscccc"
         style="color:#000000;fill:#000000;stroke:#000000;stroke-linecap:round;stroke-linejoin:round"
         transform="translate(52.53,151.15)"
         inkscape:connector-curvature="0" />
      <path
         style="fill:#ffffff;fill-opacity:1;stroke:none;stroke-width:0.95615083;stroke-opacity:1"
         d="m 282.9464,411.56149 c -12.44897,-9.95995 -22.59746,-18.45774 -22.5522,-18.88398 0.0453,-0.42625 2.74359,-4.36847 5.99627,-8.76049 4.7548,-6.4203 12.09084,-17.70722 20.52468,-31.5784 0.61352,-1.00905 4.15481,1.13728 15.11273,9.15959 7.8713,5.7626 18.92937,13.56724 24.5735,17.34365 l 10.26203,6.86619 -3.9289,6.44376 c -9.7622,16.01092 -25.09155,37.50517 -26.75514,37.5151 -0.32916,0.002 -10.78399,-8.14548 -23.23297,-18.10542 z"
         id="path56"
         inkscape:connector-curvature="0"
         transform="translate(37.74722,150.80957)" />
      <path
         style="fill:#ffffff;fill-opacity:1;stroke:none;stroke-width:1.35220146;stroke-opacity:1"
         d="m 267.06866,331.60097 c -10.0401,-8.20554 -19.87665,-16.56332 -21.85901,-18.57284 l -3.60428,-3.65369 13.30568,-27.38208 c 7.31812,-15.06014 13.65911,-27.38208 14.09108,-27.38208 0.43196,0 7.32341,5.63501 15.31433,12.52225 7.99091,6.88724 18.58922,15.84705 23.55179,19.91069 l 9.02286,7.38844 -3.31253,5.44309 c -1.82189,2.9937 -7.63331,13.35346 -12.91427,23.0217 -11.53658,21.12087 -13.08423,23.66942 -14.35795,23.6436 -0.54064,-0.011 -9.1976,-6.73355 -19.2377,-14.93908 z"
         id="path58"
         inkscape:connector-curvature="0"
         transform="translate(37.74722,150.80957)" />
      <path
         style="fill:#ffffff;fill-opacity:1;stroke:none;stroke-width:1.35220146;stroke-opacity:1"
         d="m 188.61108,335.75808 c -12.25479,-9.78316 -23.14028,-18.62467 -24.18997,-19.64779 -1.63652,-1.59507 -0.94295,-3.2677 4.86611,-11.73514 3.72606,-5.43121 9.9767,-15.35134 13.89031,-22.04474 3.9136,-6.6934 7.31793,-12.38889 7.56517,-12.65666 0.24725,-0.26776 11.09819,8.8596 24.11323,20.28302 l 23.66369,20.76987 -4.79787,8.78931 c -5.18331,9.49542 -14.67254,24.04111 -19.70093,30.19882 l -3.12831,3.83089 z"
         id="path60"
         inkscape:connector-curvature="0"
         transform="translate(37.74722,150.80957)" />
      <path
         style="fill:#ffffff;fill-opacity:1;stroke:none;stroke-width:1.35220146;stroke-opacity:1"
         d="m 181.01573,256.97663 c -4.38154,-3.90448 -14.34628,-12.52535 -22.14387,-19.15749 -7.79759,-6.63215 -14.69423,-12.50366 -15.32586,-13.04781 -1.23664,-1.06535 16.47962,-37.96206 23.78566,-49.53711 l 4.43932,-7.03328 20.26676,17.61781 c 11.14672,9.68979 21.95951,19.27501 24.02842,21.3005 l 3.76166,3.6827 -6.55832,11.4246 c -3.60708,6.28353 -10.10833,18.27013 -14.44722,26.63687 -4.33889,8.36675 -8.32792,15.21227 -8.8645,15.21227 -0.53659,0 -4.56051,-3.19458 -8.94205,-7.09906 z"
         id="path62"
         inkscape:connector-curvature="0"
         transform="translate(37.74722,150.80957)" />
      <path
         style="fill:#ffffff;fill-opacity:1;stroke:none;stroke-width:1.35220146;stroke-opacity:1"
         d="m 91.021974,257.75182 -21.219616,-17.03094 4.084247,-6.91536 c 2.246336,-3.80346 7.942008,-14.72495 12.657048,-24.27 4.71504,-9.54504 8.896056,-17.67788 9.291146,-18.07297 0.718752,-0.71875 23.744021,16.45923 36.929901,27.55153 l 7.0011,5.8895 -6.68078,14.271 c -7.39517,15.79702 -18.55511,35.74937 -19.94762,35.66345 -0.4927,-0.0304 -10.44464,-7.71919 -22.115426,-17.08621 z"
         id="path64"
         inkscape:connector-curvature="0"
         transform="translate(37.74722,150.80957)" />
      <path
         style="fill:#ffffff;fill-opacity:1;stroke:none;stroke-width:1.35220146;stroke-opacity:1"
         d="m 84.52146,179.32827 c -5.577831,-3.99628 -14.54521,-10.14196 -19.927507,-13.65708 -5.382298,-3.51511 -9.793855,-6.82747 -9.803461,-7.36078 -0.03711,-2.0602 17.677373,-38.07276 23.747452,-48.27726 l 6.391378,-10.744649 18.706628,14.203759 c 10.28865,7.81207 19.01523,14.70308 19.39241,15.31337 0.37717,0.61029 -1.48981,4.67425 -4.14885,9.03102 -3.91861,6.42055 -17.01197,32.61877 -22.948967,45.91811 -1.213997,2.71945 -1.696217,2.53236 -11.409083,-4.42649 z"
         id="path66"
         inkscape:connector-curvature="0"
         transform="translate(37.74722,150.80957)" />
      <path
         style="fill:#ffffff;fill-opacity:1;stroke:none;stroke-width:1.35220146;stroke-opacity:1"
         d="m 151.45543,148.28917 c -10.41195,-8.59022 -20.09563,-16.45215 -21.5193,-17.47095 -2.51377,-1.7989 -2.48119,-2.00717 1.12874,-7.21631 7.99169,-11.532 30.2013,-31.323717 38.89341,-34.659194 1.01171,-0.38823 11.52109,7.145032 23.77071,17.039164 l 21.95723,17.73506 -8.37789,5.41489 c -9.61861,6.21681 -23.30953,18.96198 -30.50619,28.39886 -2.71881,3.56515 -5.27463,6.45846 -5.67959,6.42957 -0.40496,-0.0289 -9.25517,-7.08087 -19.66712,-15.67109 z"
         id="path68"
         inkscape:connector-curvature="0"
         transform="translate(37.74722,150.80957)" />
      <path
         style="fill:#ffffff;fill-opacity:1;stroke:none;stroke-width:1.35220146;stroke-opacity:1"
         d="m 235.30166,137.4945 c -11.89403,-10.02107 -22.12596,-18.72059 -22.73764,-19.33227 -0.61168,-0.61168 1.20942,-4.72603 4.04687,-9.14301 2.83746,-4.41697 6.94425,-11.800844 9.1262,-16.408596 2.18195,-4.607753 4.66197,-8.377732 5.51115,-8.377732 0.84918,0 3.01914,1.582936 4.82213,3.517636 3.00921,3.229038 29.03343,25.420612 38.35942,32.710132 l 3.96455,3.09884 -3.71856,7.71878 c -4.77364,9.90886 -14.62006,24.64861 -16.38569,24.52882 -0.74962,-0.0509 -11.09441,-8.29153 -22.98843,-18.3126 z"
         id="path70"
         inkscape:connector-curvature="0"
         transform="translate(37.74722,150.80957)" />
      <path
         style="fill:#ffffff;fill-opacity:1;stroke:none;stroke-width:1.35220146;stroke-opacity:1"
         d="m 332.55878,218.36306 c -9.71864,-7.95319 -19.94861,-16.35477 -22.73327,-18.67019 l -5.063,-4.20986 6.00538,-8.63606 c 3.30295,-4.74983 7.9765,-12.59124 10.38566,-17.42536 2.40917,-4.83412 4.5749,-9.00532 4.81274,-9.26934 0.23785,-0.26401 11.12244,7.30697 24.18799,16.8244 20.3107,14.79506 23.63068,17.70791 22.89448,20.08694 -2.86997,9.27424 -18.8273,35.97552 -21.41625,35.83563 -0.7719,-0.0417 -9.35508,-6.58298 -19.07373,-14.53616 z"
         id="path72"
         inkscape:connector-curvature="0"
         transform="translate(37.74722,150.80957)" />
      <path
         style="fill:#ffffff;fill-opacity:1;stroke:none;stroke-width:1.35220146;stroke-opacity:1"
         d="m 423.58598,323.04243 c -3.07826,-2.33673 -2.98883,-6.58184 0.33805,-16.04743 5.12042,-14.56851 3.26138,-19.68069 -10.26298,-28.22209 l -8.42698,-5.32212 3.15925,-5.7017 c 1.73758,-3.13594 5.41944,-12.27528 8.18191,-20.30965 l 5.02267,-14.60795 4.20552,3.75596 c 2.31304,2.06578 11.61198,11.01675 20.66432,19.89105 l 16.4588,16.13509 -3.38592,9.59111 c -5.90042,16.71382 -14.86567,33.91587 -20.047,38.46514 -5.26767,4.62508 -11.6804,5.58152 -15.90764,2.37259 z"
         id="path74"
         inkscape:connector-curvature="0"
         transform="translate(37.74722,150.80957)" />
      <path
         style="fill:#ffffff;fill-opacity:1;stroke:none;stroke-width:1.35220146;stroke-opacity:1"
         d="m 399.58441,211.54103 c -11.52752,-9.2371 -21.15796,-17.30862 -21.40097,-17.9367 -0.84492,-2.18376 14.41824,-31.65608 19.35153,-37.36671 7.45341,-8.62786 9.16465,-8.16181 31.54096,8.58996 l 19.15051,14.33681 -5.72825,5.60816 c -6.10199,5.97407 -11.09271,15.14069 -17.80275,32.6989 l -4.15191,10.86432 z"
         id="path76"
         inkscape:connector-curvature="0"
         transform="translate(37.74722,150.80957)" />
      <path
         style="fill:#ffffff;fill-opacity:1;stroke:none;stroke-width:1.35220146;stroke-opacity:1"
         d="m 305.02944,140.99481 c -10.72928,-8.10809 -20.38752,-15.62171 -21.46274,-16.69694 -1.70515,-1.70515 -0.91314,-4.08752 6.19801,-18.64362 8.82181,-18.057714 15.96313,-27.318726 20.5073,-26.594296 1.51881,0.242128 12.43855,7.420772 24.26608,15.952541 l 21.50461,15.512305 -3.59336,2.18526 c -5.26558,3.20219 -10.08184,10.09875 -19.27244,27.59686 -4.50439,8.57596 -8.29101,15.55603 -8.41473,15.51126 -0.12372,-0.0448 -9.00345,-6.71528 -19.73273,-14.82337 z"
         id="path78"
         inkscape:connector-curvature="0"
         transform="translate(37.74722,150.80957)" />
      <path
         style="fill:#ffffff;fill-opacity:1;stroke:none;stroke-width:1.35220146;stroke-opacity:1"
         d="m 211.02638,61.218983 c -10.08084,-9.910702 -18.3288,-18.73878 -18.3288,-19.617952 0,-2.998415 14.18887,-15.027394 20.62501,-17.485376 6.04533,-2.308733 6.76067,-2.320966 12.28784,-0.210121 3.22786,1.232729 12.16106,5.961506 19.85156,10.508394 l 13.98274,8.26707 -4.8529,2.489687 c -6.14851,3.154375 -11.33512,9.453911 -19.09303,23.189959 l -6.14361,10.877796 z"
         id="path80"
         inkscape:connector-curvature="0"
         transform="translate(37.74722,150.80957)" />
      <path
         style="fill:#ffffff;fill-opacity:1;stroke:none;stroke-width:1.35220146;stroke-opacity:1"
         d="m 313.60133,77.194998 c -2.90979,-2.180645 -12.44029,-8.819166 -21.17889,-14.752269 -8.7386,-5.933104 -15.88837,-11.24851 -15.88837,-11.812012 0,-0.563502 2.00651,-2.969337 4.45892,-5.3463 l 4.45891,-4.321751 13.45776,8.268786 c 11.67818,7.175376 24.47106,15.755863 28.10592,18.851318 0.61939,0.527469 -0.95507,3.685586 -3.49878,7.018036 l -4.62494,6.059 z"
         id="path82"
         inkscape:connector-curvature="0"
         transform="translate(37.74722,150.80957)" />
      <path
         style="fill:#ffffff;fill-opacity:1;stroke:none;stroke-width:1.35220146;stroke-opacity:1"
         d="m 354.7279,84.986396 -22.54518,-16.673602 3.79107,-3.632071 c 5.13057,-4.915403 10.35494,-14.829602 12.83788,-24.362242 1.12866,-4.333235 2.21626,-8.042762 2.4169,-8.243393 0.46363,-0.463636 40.01261,27.00865 42.58562,29.581659 1.57124,1.571235 1.63564,2.993239 0.35567,7.852755 -2.03265,7.717069 -9.84782,23.863615 -13.79815,28.507698 l -3.09863,3.6428 z"
         id="path84"
         inkscape:connector-curvature="0"
         transform="translate(37.74722,150.80957)" />
      <path
         style="fill:#ffffff;fill-opacity:1;stroke:none;stroke-width:1.35220146;stroke-opacity:1"
         d="m 393.4995,135.30044 c -11.89937,-8.80486 -21.84816,-16.62545 -22.1084,-17.37911 -0.26025,-0.75365 1.14635,-3.81755 3.12578,-6.80867 l 3.59897,-5.43841 4.98742,3.77868 c 24.27035,18.38822 36.03319,28.04892 35.73825,29.35147 -0.19239,0.84967 -1.10512,4.01086 -2.0283,7.02486 l -1.6785,5.48001 z"
         id="path86"
         inkscape:connector-curvature="0"
         transform="translate(37.74722,150.80957)" />
      <path
         style="fill:#ffffff;fill-opacity:1;stroke:none;stroke-width:1.35220146;stroke-opacity:1"
         d="m 454.9973,161.67201 c -5.56278,-4.16842 -15.12186,-11.45531 -21.2424,-16.1931 l -11.12826,-8.61416 6.08934,-11.89627 c 3.34913,-6.54294 7.12827,-16.12832 8.39807,-21.30082 l 2.30874,-9.40456 19.25591,13.57767 c 21.37559,15.07229 20.6387,13.86638 17.29183,28.2978 -1.61656,6.97048 -9.62789,31.72348 -10.63505,32.85965 -0.12321,0.139 -4.7754,-3.15779 -10.33818,-7.32621 z"
         id="path88"
         inkscape:connector-curvature="0"
         transform="translate(37.74722,150.80957)" />
      <path
         style="fill:#ffffff;fill-opacity:1;stroke:none;stroke-width:1.35220146;stroke-opacity:1"
         d="m 478.43753,199.37932 c -8.31869,-6.43666 -15.5291,-12.11861 -16.02314,-12.62657 -0.91073,-0.93637 1.64726,-10.41114 3.30609,-12.2457 0.90106,-0.99652 35.58016,23.79588 36.37208,26.00272 0.59525,1.6588 -5.55843,10.81873 -7.17795,10.68458 -0.74371,-0.0616 -8.1584,-5.37837 -16.47708,-11.81503 z"
         id="path90"
         inkscape:connector-curvature="0"
         transform="translate(37.74722,150.80957)" />
      <path
         style="fill:#ffffff;fill-opacity:1;stroke:none;stroke-width:1.35220146;stroke-opacity:1"
         d="m 525.32903,212.51764 c -10.03453,-6.77273 -18.41066,-12.45913 -18.61362,-12.63644 -0.20296,-0.17731 2.06723,-5.42991 5.04487,-11.67244 2.97765,-6.24254 7.01468,-17.13073 8.97119,-24.19598 l 3.55728,-12.84591 20.73439,10.14151 c 11.40392,5.57783 20.76762,10.82246 20.80822,11.65474 0.10192,2.08893 -12.4401,32.39445 -17.83646,43.09862 l -4.42127,8.76996 z"
         id="path92"
         inkscape:connector-curvature="0"
         transform="translate(37.74722,150.80957)" />
      <path
         style="fill:#ffffff;fill-opacity:1;stroke:none;stroke-width:1.35220146;stroke-opacity:1"
         d="m 353.87721,319.64889 c -20.774,-14.94554 -32.72049,-24.4719 -32.72049,-26.09193 0,-4.2421 25.00991,-32.05053 38.38546,-42.68065 l 5.25652,-4.17758 12.9982,9.84569 c 7.14901,5.41514 17.3931,12.74985 22.76464,16.29937 l 9.76645,6.45367 -5.06985,3.67259 c -6.82626,4.94491 -14.20005,14.00095 -25.90362,31.8132 -5.37522,8.18081 -9.93805,15.04571 -10.13963,15.25532 -0.20158,0.20961 -7.10354,-4.46574 -15.33768,-10.38968 z"
         id="path94"
         inkscape:connector-curvature="0"
         transform="translate(37.74722,150.80957)" />
      <path
         style="fill:#ffffff;fill-opacity:1;stroke:none;stroke-width:1.35220146;stroke-opacity:1"
         d="m 247.17094,231.4633 c -10.99572,-9.75599 -20.85342,-18.5493 -21.906,-19.54068 -1.63965,-1.54433 -1.36786,-2.63516 1.89753,-7.61561 10.68783,-16.30131 33.85029,-40.05242 37.57224,-38.52708 0.91182,0.37368 11.56566,8.98247 23.67521,19.13064 l 22.01736,18.45121 -8.19196,6.158 c -9.20181,6.91713 -19.66705,18.70997 -27.72955,31.24727 -2.97484,4.62592 -5.84391,8.41609 -6.37571,8.4226 -0.5318,0.006 -9.9634,-7.97035 -20.95912,-17.72635 z"
         id="path96"
         inkscape:connector-curvature="0"
         transform="translate(37.74722,150.80957)" />
    </g>
  </g>
  <metadata
     id="metadata54">
    <rdf:RDF>
      <cc:Work>
        <dc:format>image/svg+xml</dc:format>
        <dc:type
           rdf:resource="http://purl.org/dc/dcmitype/StillImage" />
        <cc:license
           rdf:resource="http://creativecommons.org/publicdomain/zero/1.0/" />
        <dc:publisher>
          <cc:Agent
             rdf:about="http://openclipart.org/">
            <dc:title>Openclipart</dc:title>
          </cc:Agent>
        </dc:publisher>
        <dc:title>Wavy checkered flag</dc:title>
        <dc:date>2010-05-25T14:01:00</dc:date>
        <dc:description>A checkered flag, used to mark the end of a car race, wavy version. Drawn in Inkscape.</dc:description>
        <dc:source>https://openclipart.org/detail/62779/wavy-checkered-flag-by-j_alves</dc:source>
        <dc:creator>
          <cc:Agent>
            <dc:title>J_Alves</dc:title>
          </cc:Agent>
        </dc:creator>
        <dc:subject>
          <rdf:Bag>
            <rdf:li>automotive</rdf:li>
            <rdf:li>car</rdf:li>
            <rdf:li>checkered</rdf:li>
            <rdf:li>finish</rdf:li>
            <rdf:li>flag</rdf:li>
            <rdf:li>race</rdf:li>
            <rdf:li>racing</rdf:li>
            <rdf:li>sports</rdf:li>
            <rdf:li>sports2010</rdf:li>
            <rdf:li>victory</rdf:li>
          </rdf:Bag>
        </dc:subject>
      </cc:Work>
      <cc:License
         rdf:about="http://creativecommons.org/publicdomain/zero/1.0/">
        <cc:permits
           rdf:resource="http://creativecommons.org/ns#Reproduction" />
        <cc:permits
           rdf:resource="http://creativecommons.org/ns#Distribution" />
        <cc:permits
           rdf:resource="http://creativecommons.org/ns#DerivativeWorks" />
      </cc:License>
    </rdf:RDF>
  </metadata>
</svg>
