<?xml version="1.0" encoding="UTF-8" standalone="no"?>
<!-- Created with Inkscape (http://www.inkscape.org/) -->

<svg
   xmlns:dc="http://purl.org/dc/elements/1.1/"
   xmlns:cc="http://creativecommons.org/ns#"
   xmlns:rdf="http://www.w3.org/1999/02/22-rdf-syntax-ns#"
   xmlns:svg="http://www.w3.org/2000/svg"
   xmlns="http://www.w3.org/2000/svg"
   xmlns:xlink="http://www.w3.org/1999/xlink"
   xmlns:sodipodi="http://sodipodi.sourceforge.net/DTD/sodipodi-0.dtd"
   xmlns:inkscape="http://www.inkscape.org/namespaces/inkscape"
   id="svg2"
   sodipodi:docname="openclipart_708_real_soccer_ball_variant_tmp.svg"
   viewBox="0 0 1901.0371 1901.0372"
   version="1.1"
   inkscape:version="0.91 r13725"
   width="1901.0372"
   height="1901.0372">
  <sodipodi:namedview
     id="base"
     fit-margin-left="0"
     inkscape:zoom="0.20552832"
     borderopacity="1.0"
     inkscape:current-layer="g5818"
     inkscape:cx="-97.678656"
     inkscape:cy="988.85457"
     inkscape:window-maximized="1"
     showgrid="false"
     fit-margin-right="0"
     inkscape:snap-nodes="false"
     inkscape:guide-bbox="true"
     inkscape:snap-midpoints="false"
     showguides="true"
     bordercolor="#666666"
     inkscape:window-x="-8"
     inkscape:window-y="48"
     fit-margin-bottom="0"
     inkscape:window-width="1280"
     inkscape:pageopacity="0.0"
     inkscape:pageshadow="2"
     pagecolor="#ffffff"
     inkscape:document-units="px"
     inkscape:window-height="945"
     fit-margin-top="0" />
  <defs
     id="defs4">
    <linearGradient
       id="linearGradient4907"
       inkscape:collect="always">
      <stop
         id="stop4909"
         style="stop-color:#ffffff"
         offset="0" />
      <stop
         id="stop4911"
         style="stop-color:#ffffff;stop-opacity:0"
         offset="1" />
    </linearGradient>
    <filter
       id="filter4945"
       inkscape:collect="always"
       style="color-interpolation-filters:sRGB">
      <feGaussianBlur
         id="feGaussianBlur4947"
         stdDeviation="11.409528"
         inkscape:collect="always" />
    </filter>
    <filter
       id="filter4989"
       inkscape:collect="always"
       style="color-interpolation-filters:sRGB">
      <feGaussianBlur
         id="feGaussianBlur4991"
         stdDeviation="6.2959966"
         inkscape:collect="always" />
    </filter>
    <filter
       id="filter5076"
       inkscape:collect="always"
       style="color-interpolation-filters:sRGB">
      <feGaussianBlur
         id="feGaussianBlur5078"
         stdDeviation="4.913216"
         inkscape:collect="always" />
    </filter>
    <filter
       id="filter5088"
       inkscape:collect="always"
       style="color-interpolation-filters:sRGB">
      <feGaussianBlur
         id="feGaussianBlur5090"
         stdDeviation="7.3554805"
         inkscape:collect="always" />
    </filter>
    <filter
       id="filter5138"
       inkscape:collect="always"
       style="color-interpolation-filters:sRGB">
      <feGaussianBlur
         id="feGaussianBlur5140"
         stdDeviation="7.1681064"
         inkscape:collect="always" />
    </filter>
    <filter
       id="filter5156"
       inkscape:collect="always"
       style="color-interpolation-filters:sRGB">
      <feGaussianBlur
         id="feGaussianBlur5158"
         stdDeviation="3.5396582"
         inkscape:collect="always" />
    </filter>
    <filter
       id="filter5174"
       inkscape:collect="always"
       style="color-interpolation-filters:sRGB">
      <feGaussianBlur
         id="feGaussianBlur5176"
         stdDeviation="4.5857432"
         inkscape:collect="always" />
    </filter>
    <filter
       id="filter5202"
       inkscape:collect="always"
       style="color-interpolation-filters:sRGB">
      <feGaussianBlur
         id="feGaussianBlur5204"
         stdDeviation="5.9791028"
         inkscape:collect="always" />
    </filter>
    <filter
       id="filter5216"
       inkscape:collect="always"
       style="color-interpolation-filters:sRGB">
      <feGaussianBlur
         id="feGaussianBlur5218"
         stdDeviation="4.9140878"
         inkscape:collect="always" />
    </filter>
    <filter
       id="filter5228"
       inkscape:collect="always"
       style="color-interpolation-filters:sRGB">
      <feGaussianBlur
         id="feGaussianBlur5230"
         stdDeviation="4.6984115"
         inkscape:collect="always" />
    </filter>
    <filter
       id="filter5254"
       inkscape:collect="always"
       style="color-interpolation-filters:sRGB">
      <feGaussianBlur
         id="feGaussianBlur5256"
         stdDeviation="11.972713"
         inkscape:collect="always" />
    </filter>
    <filter
       id="filter5276"
       inkscape:collect="always"
       style="color-interpolation-filters:sRGB">
      <feGaussianBlur
         id="feGaussianBlur5278"
         stdDeviation="5.3928817"
         inkscape:collect="always" />
    </filter>
    <filter
       id="filter5342"
       height="1.1437"
       width="1.4347"
       y="-0.071851"
       x="-0.21735001"
       inkscape:collect="always"
       style="color-interpolation-filters:sRGB">
      <feGaussianBlur
         id="feGaussianBlur5344"
         stdDeviation="12.462976"
         inkscape:collect="always" />
    </filter>
    <filter
       id="filter5368"
       inkscape:collect="always"
       style="color-interpolation-filters:sRGB">
      <feGaussianBlur
         id="feGaussianBlur5370"
         stdDeviation="3.3891146"
         inkscape:collect="always" />
    </filter>
    <filter
       id="filter5374"
       inkscape:collect="always"
       style="color-interpolation-filters:sRGB">
      <feGaussianBlur
         id="feGaussianBlur5376"
         stdDeviation="1.3771893"
         inkscape:collect="always" />
    </filter>
    <filter
       id="filter5408"
       height="1.5407"
       width="1.0527"
       y="-0.27033001"
       x="-0.026338"
       inkscape:collect="always"
       style="color-interpolation-filters:sRGB">
      <feGaussianBlur
         id="feGaussianBlur5410"
         stdDeviation="2.8454732"
         inkscape:collect="always" />
    </filter>
    <filter
       id="filter5438"
       height="1.0623"
       width="1.2092"
       y="-0.031148"
       x="-0.10458"
       inkscape:collect="always"
       style="color-interpolation-filters:sRGB">
      <feGaussianBlur
         id="feGaussianBlur5440"
         stdDeviation="3.6406414"
         inkscape:collect="always" />
    </filter>
    <filter
       id="filter5540"
       height="32.707001"
       width="54.837002"
       y="-15.853"
       x="-26.919001"
       inkscape:collect="always"
       style="color-interpolation-filters:sRGB">
      <feGaussianBlur
         id="feGaussianBlur5542"
         stdDeviation="10.527732"
         inkscape:collect="always" />
    </filter>
    <filter
       id="filter5544"
       height="1.1234"
       width="1.5875"
       y="-0.061714001"
       x="-0.29376"
       inkscape:collect="always"
       style="color-interpolation-filters:sRGB">
      <feGaussianBlur
         id="feGaussianBlur5546"
         stdDeviation="10.527732"
         inkscape:collect="always" />
    </filter>
    <filter
       id="filter5598"
       height="1.1545"
       width="1.3587"
       y="-0.077261999"
       x="-0.17935"
       inkscape:collect="always"
       style="color-interpolation-filters:sRGB">
      <feGaussianBlur
         id="feGaussianBlur5600"
         stdDeviation="9.0900979"
         inkscape:collect="always" />
    </filter>
    <filter
       id="filter5670"
       inkscape:collect="always"
       style="color-interpolation-filters:sRGB">
      <feGaussianBlur
         id="feGaussianBlur5672"
         stdDeviation="4.2908243"
         inkscape:collect="always" />
    </filter>
    <filter
       id="filter5700"
       inkscape:collect="always"
       style="color-interpolation-filters:sRGB">
      <feGaussianBlur
         id="feGaussianBlur5702"
         stdDeviation="3.8704891"
         inkscape:collect="always" />
    </filter>
    <filter
       id="filter5730"
       inkscape:collect="always"
       style="color-interpolation-filters:sRGB">
      <feGaussianBlur
         id="feGaussianBlur5732"
         stdDeviation="2.7672593"
         inkscape:collect="always" />
    </filter>
    <filter
       id="filter5752"
       inkscape:collect="always"
       style="color-interpolation-filters:sRGB">
      <feGaussianBlur
         id="feGaussianBlur5754"
         stdDeviation="1.2167774"
         inkscape:collect="always" />
    </filter>
    <filter
       id="filter5814"
       inkscape:collect="always"
       style="color-interpolation-filters:sRGB">
      <feGaussianBlur
         id="feGaussianBlur5816"
         stdDeviation="6.1433135"
         inkscape:collect="always" />
    </filter>
    <radialGradient
       id="radialGradient5961"
       gradientUnits="userSpaceOnUse"
       cy="-153.33"
       cx="-3784.3999"
       gradientTransform="matrix(1.5808,0,0,1.5808,2173.3,9.5716)"
       r="832.59003"
       inkscape:collect="always">
      <stop
         id="stop5632"
         style="stop-color:#ffffff"
         offset="0" />
      <stop
         id="stop5634"
         style="stop-color:#cbcbc7"
         offset=".5" />
      <stop
         id="stop5636"
         style="stop-color:#b1b1ab"
         offset=".62443" />
      <stop
         id="stop5638"
         style="stop-color:#979890"
         offset="1" />
    </radialGradient>
    <radialGradient
       id="radialGradient5963"
       gradientUnits="userSpaceOnUse"
       cy="631.15997"
       cx="-2722.2"
       gradientTransform="matrix(1.3365,0.31524,-0.59302,2.5142,1289.6,-156.34)"
       r="93.850998"
       inkscape:collect="always">
      <stop
         id="stop5612"
         style="stop-color:#000000"
         offset="0" />
      <stop
         id="stop5614"
         style="stop-color:#000000;stop-opacity:0"
         offset="1" />
    </radialGradient>
    <linearGradient
       id="linearGradient5965"
       y2="804.65002"
       xlink:href="#linearGradient4907"
       gradientUnits="userSpaceOnUse"
       x2="-3063.7"
       y1="992.15002"
       x1="-3345.8"
       inkscape:collect="always" />
    <linearGradient
       id="linearGradient5967"
       y2="787.45001"
       gradientUnits="userSpaceOnUse"
       x2="-4527.6001"
       gradientTransform="translate(8,0)"
       y1="863.14001"
       x1="-4276.5"
       inkscape:collect="always">
      <stop
         id="stop5510"
         style="stop-color:#000000"
         offset="0" />
      <stop
         id="stop5512"
         style="stop-color:#000000;stop-opacity:0"
         offset="1" />
    </linearGradient>
    <linearGradient
       id="linearGradient5971"
       y2="-101.46"
       gradientUnits="userSpaceOnUse"
       x2="-2711.1001"
       y1="292.79001"
       x1="-3409.8999"
       inkscape:collect="always">
      <stop
         id="stop5126"
         style="stop-color:#84867c"
         offset="0" />
      <stop
         id="stop5128"
         style="stop-color:#84867c;stop-opacity:0"
         offset="1" />
    </linearGradient>
    <linearGradient
       id="linearGradient5973"
       y2="952.62"
       gradientUnits="userSpaceOnUse"
       x2="-3663.7"
       y1="806.65002"
       x1="-3790.2"
       inkscape:collect="always">
      <stop
         id="stop4961"
         style="stop-color:#ffffff"
         offset="0" />
      <stop
         id="stop4963"
         style="stop-color:#ffffff;stop-opacity:0"
         offset="1" />
    </linearGradient>
    <linearGradient
       id="linearGradient5975"
       y2="1269.1"
       gradientUnits="userSpaceOnUse"
       x2="-2907.2"
       y1="298.91"
       x1="-3220.2"
       inkscape:collect="always">
      <stop
         id="stop5070"
         style="stop-color:#ffffff"
         offset="0" />
      <stop
         id="stop5072"
         style="stop-color:#ffffff;stop-opacity:0"
         offset="1" />
    </linearGradient>
    <linearGradient
       id="linearGradient5977"
       y2="1465.2"
       gradientUnits="userSpaceOnUse"
       x2="-4221.3999"
       y1="157.85001"
       x1="-3973.7"
       inkscape:collect="always">
      <stop
         id="stop5082"
         style="stop-color:#ffffff"
         offset="0" />
      <stop
         id="stop5084"
         style="stop-color:#ffffff;stop-opacity:0"
         offset="1" />
    </linearGradient>
    <radialGradient
       id="radialGradient5979"
       gradientUnits="userSpaceOnUse"
       cy="525.45001"
       cx="-3530"
       gradientTransform="matrix(1.3587,2.7091e-8,-2.4489e-8,1.2282,1239,-100.31)"
       r="781.85999"
       inkscape:collect="always">
      <stop
         id="stop5099"
         style="stop-color:#ffffff;stop-opacity:0"
         offset="0" />
      <stop
         id="stop5105"
         style="stop-color:#ffffff;stop-opacity:0"
         offset=".84872" />
      <stop
         id="stop5101"
         style="stop-color:#ffffff"
         offset="1" />
    </radialGradient>
    <linearGradient
       id="linearGradient5981"
       y2="215.49001"
       gradientUnits="userSpaceOnUse"
       x2="-3133.3999"
       y1="414.98001"
       x1="-2736.8"
       inkscape:collect="always">
      <stop
         id="stop5162"
         style="stop-color:#ffffff"
         offset="0" />
      <stop
         id="stop5164"
         style="stop-color:#ffffff;stop-opacity:0"
         offset="1" />
    </linearGradient>
    <linearGradient
       id="linearGradient5983"
       y2="570.67999"
       gradientUnits="userSpaceOnUse"
       x2="-3031.2"
       y1="307.94"
       x1="-3211.2"
       inkscape:collect="always">
      <stop
         id="stop5180"
         style="stop-color:#ffffff"
         offset="0" />
      <stop
         id="stop5182"
         style="stop-color:#ffffff;stop-opacity:0"
         offset="1" />
    </linearGradient>
    <linearGradient
       id="linearGradient5985"
       y2="147.53"
       gradientUnits="userSpaceOnUse"
       x2="-3815.3999"
       y1="-158.67"
       x1="-3980.6001"
       inkscape:collect="always">
      <stop
         id="stop5234"
         style="stop-color:#ffffff"
         offset="0" />
      <stop
         id="stop5236"
         style="stop-color:#ffffff;stop-opacity:0"
         offset="1" />
    </linearGradient>
    <linearGradient
       id="linearGradient5987"
       y2="-34.814999"
       gradientUnits="userSpaceOnUse"
       x2="-3884.3"
       y1="326.42999"
       x1="-3629.7"
       inkscape:collect="always">
      <stop
         id="stop5260"
         style="stop-color:#333333"
         offset="0" />
      <stop
         id="stop5262"
         style="stop-color:#333333;stop-opacity:0"
         offset="1" />
    </linearGradient>
    <linearGradient
       id="linearGradient5989"
       y2="577.58002"
       gradientUnits="userSpaceOnUse"
       x2="-4145.7002"
       y1="278.26001"
       x1="-4238.6001"
       inkscape:collect="always">
      <stop
         id="stop5282"
         style="stop-color:#ffffff"
         offset="0" />
      <stop
         id="stop5284"
         style="stop-color:#ffffff;stop-opacity:0"
         offset="1" />
    </linearGradient>
    <linearGradient
       id="linearGradient5991"
       y2="298.91"
       gradientUnits="userSpaceOnUse"
       x2="-3984"
       gradientTransform="translate(10.321,-3.4404)"
       y1="894.09998"
       x1="-3750.1001"
       inkscape:collect="always">
      <stop
         id="stop5348"
         style="stop-color:#000000"
         offset="0" />
      <stop
         id="stop5350"
         style="stop-color:#000000;stop-opacity:0"
         offset="1" />
    </linearGradient>
    <radialGradient
       id="radialGradient5993"
       gradientUnits="userSpaceOnUse"
       cy="184.13"
       cx="-3717.7"
       gradientTransform="matrix(2.2801,-0.63185,0.17505,0.63168,4726.2,-2263.6)"
       r="209.63"
       inkscape:collect="always">
      <stop
         id="stop5362"
         style="stop-color:#ffffff"
         offset="0" />
      <stop
         id="stop5364"
         style="stop-color:#ffffff;stop-opacity:0"
         offset="1" />
    </radialGradient>
    <linearGradient
       id="linearGradient5995"
       y2="684.23999"
       gradientUnits="userSpaceOnUse"
       x2="-3502.3999"
       y1="1052.4"
       x1="-3512.7"
       inkscape:collect="always">
      <stop
         id="stop5388"
         style="stop-color:#ffffff"
         offset="0" />
      <stop
         id="stop5390"
         style="stop-color:#ffffff;stop-opacity:0"
         offset="1" />
    </linearGradient>
    <linearGradient
       id="linearGradient5997"
       y2="-258.44"
       gradientUnits="userSpaceOnUse"
       x2="-3509.2"
       y1="-265.32001"
       x1="-3922.1001"
       inkscape:collect="always">
      <stop
         id="stop5414"
         style="stop-color:#ffffff"
         offset="0" />
      <stop
         id="stop5416"
         style="stop-color:#ffffff;stop-opacity:0"
         offset="1" />
    </linearGradient>
    <linearGradient
       id="linearGradient5999"
       y2="154.41"
       gradientUnits="userSpaceOnUse"
       x2="-4114.7998"
       y1="61.516998"
       x1="-4262.7002"
       inkscape:collect="always">
      <stop
         id="stop5444"
         style="stop-color:#ffffff"
         offset="0" />
      <stop
         id="stop5446"
         style="stop-color:#ffffff;stop-opacity:0"
         offset="1" />
    </linearGradient>
    <linearGradient
       id="linearGradient6001"
       y2="-129.71001"
       gradientUnits="userSpaceOnUse"
       x2="-3170.2"
       y1="1192.3"
       x1="-1310.9"
       inkscape:collect="always">
      <stop
         id="stop5660"
         style="stop-color:#ffffff"
         offset="0" />
      <stop
         id="stop5662"
         style="stop-color:#ffffff;stop-opacity:0"
         offset="1" />
    </linearGradient>
    <linearGradient
       id="linearGradient6003"
       y2="-544"
       gradientUnits="userSpaceOnUse"
       x2="-2979.3999"
       y1="670.46997"
       x1="-2893.3999"
       inkscape:collect="always">
      <stop
         id="stop5706"
         style="stop-color:#000000"
         offset="0" />
      <stop
         id="stop5708"
         style="stop-color:#000000;stop-opacity:0"
         offset="1" />
    </linearGradient>
    <linearGradient
       id="linearGradient6005"
       y2="667.98999"
       gradientUnits="userSpaceOnUse"
       x2="-4478.7002"
       y1="556.08002"
       x1="-4405.7002"
       inkscape:collect="always">
      <stop
         id="stop5736"
         style="stop-color:#ffffff"
         offset="0" />
      <stop
         id="stop5738"
         style="stop-color:#ffffff;stop-opacity:0"
         offset="1" />
    </linearGradient>
    <linearGradient
       id="linearGradient6007"
       y2="191.17"
       gradientUnits="userSpaceOnUse"
       x2="-4381.3999"
       y1="1511.5"
       x1="-4449.2998"
       inkscape:collect="always">
      <stop
         id="stop5746"
         style="stop-color:#ffffff"
         offset="0" />
      <stop
         id="stop5748"
         style="stop-color:#ffffff;stop-opacity:0"
         offset="1" />
    </linearGradient>
    <radialGradient
       id="radialGradient6009"
       gradientUnits="userSpaceOnUse"
       cy="-149.42"
       cx="-4031.1001"
       gradientTransform="matrix(1.3659,-0.11354,0.058805,0.7074,1483.6,-501.41)"
       r="192.84"
       inkscape:collect="always">
      <stop
         id="stop5788"
         style="stop-color:#000000"
         offset="0" />
      <stop
         id="stop5790"
         style="stop-color:#000000;stop-opacity:0"
         offset="1" />
    </radialGradient>
  </defs>
  <g
     id="layer1"
     inkscape:label="Camada 1"
     inkscape:groupmode="layer"
     transform="translate(-1416.3116,450.649)">
    <g
       id="g5920"
       transform="translate(5917.0999,-39.889448)">
      <g
         id="g5818"
         transform="translate(22,0)">
        <circle
           id="path4839"
           style="fill:url(#radialGradient5961)"
           cx="-3516.1245"
           cy="281.70477"
           r="832.58527"
           transform="matrix(1.1033,0,0,1.1033,311.81,239.19)" />
        <path
           id="path5548"
           sodipodi:nodetypes="csc"
           style="opacity:0.44015;fill:none;stroke:url(#radialGradient5963);stroke-width:20;filter:url(#filter5598)"
           inkscape:connector-curvature="0"
           d="m -2792.4,828.98 c 10.619,7.0793 72.059,-213.08 75.415,-226.25 3.5029,-13.746 48.655,-60.819 48.655,-60.819" />
        <path
           id="path4923"
           sodipodi:nodetypes="ccsc"
           style="fill:none;stroke:#36372e;stroke-width:13;filter:url(#filter4945)"
           inkscape:connector-curvature="0"
           d="m -4001.2,1081 197.82,-275.23 c 0,0 457.67,-6.0303 463.67,-1.3584 6,4.6719 201.09,267.25 201.09,267.25" />
        <path
           id="path4979"
           style="fill:url(#linearGradient5965);filter:url(#filter4989)"
           inkscape:connector-curvature="0"
           d="m -3316.6,790.89 c 0,0 172.02,247.71 189.22,258.03 17.202,10.321 282.12,-130.74 292.44,-144.5 10.321,-13.762 24.083,-30.964 24.083,-30.964 0,0 0,55.047 -24.083,75.69 -24.083,20.643 -282.12,144.5 -282.12,144.5 l -227.07,-306.2 z" />
        <path
           id="path5450"
           sodipodi:nodetypes="ccc"
           style="opacity:0.67180996;fill:none;stroke:url(#linearGradient5967);stroke-width:19.60000038;filter:url(#filter5544)"
           inkscape:connector-curvature="0"
           d="m -4419.8,570.7 c 15.318,103.21 53.495,247.71 96.332,350.92 l -3.4404,86.011" />
        <path
           id="path5107"
           style="opacity:0.46560005;fill:url(#linearGradient5971);filter:url(#filter5138)"
           inkscape:connector-curvature="0"
           d="m -3272.2,-320.09 c 2.6525,22.03 43.095,66.721 48.844,78.219 7.2983,14.597 94.884,63.266 131.38,87.594 36.491,24.328 19.447,14.605 24.312,36.5 4.8655,21.895 31.654,75.403 46.25,121.62 14.597,46.222 21.884,145.96 26.75,172.72 4.8656,26.76 -14.6,63.244 -34.062,92.438 -19.462,29.193 -162.98,48.678 -184.88,43.812 -21.895,-4.8655 -347.91,-231.12 -347.91,-231.12 0,0 245.72,231.11 311.41,272.47 65.684,41.357 53.509,-12.17 90,-19.469 36.491,-7.2983 226.25,-72.961 274.91,-85.125 48.655,-12.164 36.495,-41.364 34.062,-99.75 -1.7505,-42.012 24.208,-84.019 33.469,-130.56 -110.89,-156.38 -269.46,-276.55 -454.53,-339.34 z" />
        <path
           id="path4837"
           style="fill:#001889;fill-opacity:1"
           inkscape:connector-curvature="0"
           d="m -3567.6,-368.59 c -100.55,0 -197.3,16.175 -287.84,46.031 -13.462,25.508 -27.813,55.158 -37.531,77.594 -2.0251,4.675 -4.2725,9.85 -5,11.5 -0.914,2.073 -3.3139,4.027 -7.7187,6.375 -3.5062,1.8689 -10.057,5.3643 -14.563,7.75 -4.5059,2.3857 -10.323,5.6858 -12.937,7.3438 -2.6142,1.6579 -5.1085,3.0312 -5.5313,3.0312 -0.4228,0 -4.0555,1.9508 -8.0625,4.3438 -4.007,2.3929 -11.781,6.9602 -17.281,10.156 -9.1661,5.3264 -18.726,11.2 -38.281,23.438 -9.8576,6.1689 -57.162,37.527 -65,43.094 -3.4585,2.4563 -11.108,8.0164 -17,12.344 -5.8915,4.3275 -12.744,9.2386 -15.219,10.938 -2.4751,1.6988 -6.7777,4.9013 -9.5626,7.125 -2.7849,2.2237 -8.5934,6.7625 -12.906,10.062 -4.3128,3.3 -13.06,10.201 -19.438,15.344 -6.3774,5.1428 -14.263,11.443 -17.531,14 -3.2681,2.5572 -6.7238,5.412 -7.6874,6.3438 -1.9385,1.8746 -4.7691,2.4686 -15.875,3.3125 -4.125,0.3135 -9.3001,0.74805 -11.5,0.96875 -2.2,0.2206 -7.15,0.6417 -11,0.9375 -3.8501,0.2958 -10.6,0.97605 -15,1.5312 -4.4,0.5552 -10.605,1.263 -13.781,1.5625 -3.1761,0.2995 -10.376,1.2319 -16,2.0625 -5.6239,0.8306 -12.469,1.7229 -15.219,2 -1.1832,0.11917 -4.2362,0.55612 -8.0313,1.125 -128.71,154.2 -207.82,351.23 -212.81,566.59 5.1365,4.3706 9.9238,8.4069 12.812,10.719 2.4053,1.925 8.7894,7.1 14.188,11.5 5.3981,4.4 10.778,8.675 11.969,9.5 1.1912,0.825 5.8599,4.425 10.375,8 4.5151,3.575 10.995,8.433 14.375,10.812 11.789,8.3004 11.202,7.2419 14.656,27.188 0.6191,3.575 1.7317,9.425 2.4688,13 0.7368,3.575 2.0819,10.325 3,15 5.1725,26.341 6.9956,34.712 12.656,58.5 10.876,45.705 25.724,96.802 41.156,141.5 2.1838,6.325 4.6521,13.525 5.4688,16 1.5673,4.75 5.3625,15.084 13.438,36.5 2.696,7.15 5.6193,15.025 6.5,17.5 0.8807,2.475 2.2676,5.4874 3.0625,6.7188 1.3074,2.0251 1.1034,3.3139 -2.1562,13.5 -5.7191,17.872 -6.3018,19.771 -9.0938,29.281 -1.4532,4.95 -3.0787,10.125 -3.5938,11.5 -0.5149,1.375 -1.7559,5.65 -2.7812,9.5 -1.0254,3.85 -3.1116,11.5 -4.625,17 -1.5134,5.5 -3.1091,11.35005 -3.5312,13.00005 -0.4222,1.65 -1.7553,6.6001 -2.9688,11 -1.2134,4.4 -2.4293,8.9001 -2.6875,10 -0.2449,1.0434 -0.5528,2.2465 -0.7187,2.8438 112.5,184.06 287.99,325.44 496.47,394.19 0.2796,-0.1865 0.4311,-0.2765 0.7187,-0.4687 7.8671,-5.2576 16.052,-10.688 18.188,-12.063 4.1306,-2.6593 11.22,-7.6216 19.656,-13.75 2.8372,-2.0609 8.9122,-6.4236 13.5,-9.6874 4.5878,-3.264 13.5,-9.789 19.812,-14.5 6.3121,-4.7111 12.837,-9.4058 14.5,-10.438 1.663,-1.0317 3.2562,-2.2115 3.5313,-2.5937 0.5572,-0.7747 11.769,-9.4198 16.656,-12.844 3.4421,-2.4117 2.5918,-2.4129 39.344,0.8124 55.726,4.8905 125.81,6.7982 186.72,5.0938 44.629,-1.2488 65.142,-2.3744 108.78,-6 l 23,-1.9062 3.5,2.375 c 4.2921,2.9267 10.321,7.3741 25.125,18.5 10.248,7.7019 32.087,23.56 43.312,31.437 11.248,7.8942 27.21,18.466 39.156,26.125 208.27,-68.604 383.62,-209.7 496.19,-393.41 -2.5329,-10.011 -6.9865,-27.215 -7.7188,-29.71905 -0.4825,-1.65 -1.5914,-5.475 -2.4687,-8.5 -0.8773,-3.025 -2.9641,-10.225 -4.6563,-16 -1.692,-5.775 -3.4641,-12.075 -3.9374,-14 -0.4734,-1.925 -1.8383,-6.65 -3.0313,-10.5 -1.193,-3.85 -2.7826,-9.025 -3.5,-11.5 -1.1675,-4.0275 -3.2201,-10.307 -6.9375,-21.094 -1.1505,-3.3387 -0.9614,-4.2667 2.7188,-13 2.1797,-5.1726 5.4774,-13.681 7.3124,-18.906 4.6549,-13.254 8.3255,-23.144 9.4688,-25.5 0.5336,-1.1 2.9633,-7.85 5.4062,-15 2.443,-7.15 5.159,-15.025 6.0313,-17.5 1.9623,-5.5675 10.083,-31.421 14.938,-47.5 1.9927,-6.6 4.8059,-15.825 6.25,-20.5 1.4442,-4.675 3.2038,-10.975 3.875,-14 0.6713,-3.025 3.0932,-12.237 5.4062,-20.469 2.3131,-8.2315 4.5784,-16.782 5.0313,-19 0.4528,-2.2186 2.4309,-10.556 4.375,-18.531 3.4893,-14.314 6.0388,-25.876 9.2187,-41.5 0.8956,-4.4 2.269,-10.925 3.0313,-14.5 1.8296,-8.5804 6.077,-32.215 6.9063,-38.375 0.7327,-5.4435 2.9198,-7.9714 12.5,-14.406 3.025,-2.0319 6.202,-4.3846 7.0624,-5.2188 0.8605,-0.8342 3.6975,-3.075 6.3126,-5 2.615,-1.925 6.8629,-5.2062 9.4374,-7.2812 2.5744,-2.075 5.1375,-4.1146 5.6876,-4.5312 4.1136,-3.1164 16.658,-13.122 19.594,-15.625 1.9806,-1.689 5.8066,-4.8625 8.4687,-7.0625 2.2021,-1.8199 5.2765,-4.4741 7.75,-6.625 -5.0761,-215.12 -84.115,-411.93 -212.66,-566 -0.7666,-0.1123 -1.5634,-0.22055 -2.1562,-0.3125 -1.6501,-0.2559 -5.25,-0.74725 -8,-1.0938 -2.75,-0.3465 -9.2236,-1.2434 -14.406,-2 -5.1826,-0.7566 -9.7707,-1.1638 -10.188,-0.90625 -0.4168,0.2576 -1.0552,0.0055 -1.4062,-0.5625 -0.351,-0.5679 -1.0438,-0.78935 -1.5626,-0.46875 -0.5187,0.3206 -4.2067,0.1317 -8.1874,-0.4375 -9.8861,-1.4136 -30.626,-3.4758 -46.75,-4.6562 -11.192,-0.8193 -9.5692,0.1538 -38.281,-22.938 -6.8388,-5.5 -16.797,-13.375 -22.156,-17.5 -5.3593,-4.125 -11.452,-8.85 -13.531,-10.5 -12.184,-9.6698 -53.517,-38.737 -77.812,-54.719 -24.828,-16.332 -70.154,-44.041 -88.719,-54.25 -2.75,-1.5123 -9.725,-5.3725 -15.5,-8.5625 -5.775,-3.19 -13.803,-7.5447 -17.844,-9.6875 -6.6482,-3.5258 -7.5297,-4.3718 -9.375,-8.8438 -2.3148,-5.6097 -3.6728,-8.6743 -10.25,-23.438 -6.171,-13.851 -20.132,-42.807 -30.344,-63.156 -90.934,-30.14 -188.17,-46.469 -289.22,-46.469 z m -329.84,138.44 24.687,0.625 c 21.436,0.5513 56.297,2.2852 82.688,4.0938 14.796,1.0139 53.375,4.9221 68.5,6.9375 1.925,0.2565 7.3249,0.9227 12,1.5 10.164,1.255 19.988,2.6112 29.5,4.0625 3.8499,0.5873 9.925,1.5126 13.5,2.0312 3.5749,0.5188 8.9749,1.3632 12,1.9062 3.025,0.543 8.4745,1.4394 12.094,1.9688 3.6191,0.5293 9.9191,1.6865 14,2.5625 4.0808,0.876 11.231,2.2177 15.906,3 4.675,0.7823 13.9,2.5835 20.5,4 6.5999,1.4165 14.238,3.0273 16.969,3.5625 2.7306,0.5352 5.237,1.2831 5.5625,1.6875 0.7428,0.9225 -0.7728,220.89 -1.7812,258.66 l -0.75,27.906 -6.5,4 c -3.575,2.1931 -13.25,8.1258 -21.5,13.188 -32.539,19.964 -92.504,58.973 -123.38,80.25 -27.077,18.662 -36.665,25.366 -59.625,41.719 -49.281,35.101 -103.09,75.468 -143.69,107.78 -8.8109,7.0125 -16.3,12.71 -16.656,12.656 -0.3558,-0.054 -6.5062,-1.8883 -13.656,-4.0625 -7.1501,-2.1742 -20.65,-6.1544 -30,-8.8438 -9.35,-2.6893 -23.75,-6.8986 -32,-9.3438 -26.547,-7.8679 -47.499,-13.872 -67,-19.219 -9.6969,-2.6583 -19.642,-5.4336 -37,-10.344 -21.908,-6.1971 -25.291,-7.1488 -43.5,-12.156 -10.175,-2.7981 -21.425,-5.9146 -25,-6.9375 -3.575,-1.023 -11,-3.0476 -16.5,-4.5 -18.5,-4.8852 -20.974,-5.563 -25.625,-7.0312 -2.5488,-0.8047 -5.3313,-1.4688 -6.1876,-1.4688 -0.8562,0 -1.8024,-0.4036 -2.0937,-0.875 -0.5443,-0.8807 1.0881,-15.216 3.9375,-34.625 0.8882,-6.05 1.9805,-13.7 2.4375,-17 1.4217,-10.267 4.1218,-26.16 6.375,-37.5 0.8196,-4.125 2.281,-11.775 3.2187,-17 0.9378,-5.225 2.3059,-11.822 3.0626,-14.656 0.7568,-2.8347 1.375,-6.1862 1.375,-7.4375 0,-1.2513 0.4205,-3.6548 0.9374,-5.3438 0.5169,-1.6891 1.4559,-5.7625 2.0938,-9.0625 1.7373,-8.9865 3.811,-18.284 5.5625,-25 2.3409,-8.9757 3.0758,-11.971 5.875,-24 1.4077,-6.05 3.0597,-12.35 3.6563,-14 0.5967,-1.65 1.4464,-4.575 1.9062,-6.5 2.4359,-10.197 3.2334,-13.172 5.4375,-20.5 1.3235,-4.4 3.1553,-10.7 4.0625,-14 0.9072,-3.3 2.2829,-7.4752 3.0625,-9.2812 0.7796,-1.8062 1.4063,-3.8192 1.4063,-4.4688 0,-1.1747 11.688,-36.887 16.437,-50.25 1.4045,-3.9517 3.5313,-7.8709 4.9063,-9 28.74,-23.6 70.881,-56.089 93.156,-71.812 9.014,-6.363 62.315,-42.084 70,-46.906 2.75,-1.7255 7.25,-4.552 10,-6.3125 3.9715,-2.5426 33.532,-20.226 43,-25.719 11.532,-6.6895 27.072,-15.278 43.812,-24.219 l 8.8126,-4.7188 z m 659.88,0.0625 10.75,5.6562 c 10.214,5.3817 20.091,10.86 35.75,19.844 3.8499,2.2089 8.8,4.9898 11,6.1562 16.301,8.6428 86.807,53.771 107.5,68.812 3.5749,2.5986 8.3,5.95 10.5,7.4375 13.86,9.3712 44.407,32.571 73.625,55.906 23.632,18.874 22.421,17.39 27.469,33.312 1.3077,4.125 2.7834,8.4 3.2813,9.5 1.6185,3.5763 10.135,30.937 10.125,32.531 0,0.8525 0.3886,1.9775 0.875,2.5 0.7287,0.7828 8.1041,26.1 12.219,41.969 0.5704,2.2 1.5008,5.35 2.0625,7 1.5257,4.4815 7.2515,28.147 8.7188,36.031 0.4131,2.2201 1.0626,4.5187 1.4374,5.125 0.6291,1.0178 2.8158,10.251 4.7188,19.844 0.4365,2.2 1.3108,6.475 1.9375,9.5 0.6266,3.025 1.4936,7.525 1.9375,10 0.4439,2.475 1.7261,9 2.8438,14.5 1.1176,5.5 2.8135,14.275 3.75,19.5 0.9364,5.225 2.3198,12.274 3.0937,15.688 0.7738,3.413 1.4063,7.5834 1.4063,9.25 0,1.6665 0.4459,4.936 0.9687,7.2812 0.5228,2.3454 1.6769,9.4562 2.5625,15.781 0.8856,6.325 1.9848,14.2 2.4688,17.5 0.9749,6.6494 2.6322,18.706 3.4687,25.219 0.5107,3.975 0.3742,4.268 -2.2187,4.875 -4.7592,1.1142 -12.472,3.1216 -20.469,5.3438 -4.2407,1.1784 -8.5157,2.3274 -9.5,2.5312 -2.2424,0.4647 -11.476,2.8943 -18.469,4.875 -19.237,5.4486 -27.317,7.7152 -34.812,9.6875 -4.6751,1.2302 -11.2,3.0388 -14.5,4.0312 -3.3001,0.9925 -13.65,3.8848 -23,6.4375 -9.35,2.5527 -20.6,5.7113 -25,7 -4.4001,1.2887 -23.525,6.6804 -42.5,12 -18.975,5.3197 -38.55,10.975 -43.5,12.562 -4.95,1.5872 -14.625,4.4268 -21.5,6.3125 -6.875,1.8857 -18.8,5.3002 -26.5,7.5938 -7.7001,2.2937 -14.665,4.3648 -15.5,4.5938 -0.8347,0.2289 -5.5597,-2.816 -10.5,-6.7812 -99.439,-79.811 -236.98,-176.49 -340.72,-239.5 l -22.688,-13.781 -0.062,-143.16 -0.031,-143.12 5.75,-1.0625 c 3.1624,-0.5828 8.9,-1.777 12.75,-2.6562 3.8499,-0.8792 12.85,-2.7074 20,-4.0312 7.15,-1.3238 16.6,-3.1014 21,-3.9688 4.4,-0.8673 10.7,-1.9968 14,-2.5 3.3,-0.5033 8.6999,-1.3846 12,-1.9688 13.082,-2.3163 27.844,-4.4443 51.5,-7.4375 6.875,-0.8699 15.425,-2.0488 19,-2.5938 7.6716,-1.1694 44.043,-4.7683 55.5,-5.5 4.4,-0.2811 10.025,-0.7296 12.5,-1 2.4749,-0.2704 8.55,-0.7212 13.5,-1 4.9499,-0.2788 11.925,-0.7376 15.5,-1 11.411,-0.8374 27.878,-1.4835 51.25,-2.0625 l 22.75,-0.5625 z m -1006.2,504.12 c 0.3936,0.003 5.6687,1.3938 11.719,3.0938 6.05,1.7 12.8,3.5613 15,4.125 2.1999,0.5637 5.9326,1.6922 8.2812,2.5 2.3486,0.8077 5.6803,1.6655 7.4062,1.9375 1.7261,0.2721 4.2935,0.96715 5.7188,1.5312 1.4253,0.5642 6.6438,2.0605 11.594,3.3125 4.9499,1.252 11.25,2.9568 14,3.8125 4.1535,1.2923 22.763,6.6327 37.5,10.75 1.925,0.5378 8.8999,2.5981 15.5,4.5625 6.5999,1.9643 12.88,3.728 13.937,3.9375 1.0571,0.2095 4.6572,1.2578 8,2.3438 3.343,1.0859 8.5375,2.6192 11.563,3.4062 7.2588,1.8888 41.11,11.984 52.5,15.656 4.9499,1.5959 15.975,4.936 24.5,7.4062 8.525,2.4703 23.15,6.8341 32.5,9.6875 9.3499,2.8533 19.25,5.8364 22,6.6562 2.75,0.8198 5.3454,1.8181 5.75,2.1875 0.4045,0.3694 3.6988,12.12 7.3124,26.125 3.6136,14.005 8.3714,31.769 10.594,39.469 2.2225,7.7 5.2841,18.5 6.8125,24 4.5777,16.473 14.925,52.113 19.156,66 2.1784,7.15 5.324,17.5 7,23 1.6758,5.5 5.7805,18.55 9.0937,29 3.3133,10.45 6.9301,21.925 8.0625,25.5 10.549,33.303 32.03,96.299 46.188,135.5 11.081,30.682 22.302,61.111 24.031,65.125 1.4555,3.3784 1.1991,3.8073 -27.906,43.875 -3.5957,4.95 -11.191,15.525 -16.875,23.5 -16.472,23.111 -25.403,35.584 -35.125,49.094 -4.9932,6.9388 -11.438,15.939 -14.312,20 -2.8749,4.0613 -9.7458,13.706 -15.25,21.406 -5.5041,7.7 -16.162,22.775 -23.688,33.5 -7.525,10.725 -15.626,22.2 -18.031,25.5 -8.7296,11.979 -28.752,40.257 -36.094,51 -8.8404,12.936 -9.2596,13.417 -11.219,12.75 -3.0829,-1.0496 -21.244,-8.2916 -24.313,-9.6874 -1.7536,-0.7977 -7.6874,-3.327 -13.187,-5.625 -5.5,-2.2981 -11.125,-4.7874 -12.5,-5.5313 -1.375,-0.7439 -6.7751,-3.1359 -12,-5.3125 -5.225,-2.1767 -12.2,-5.2718 -15.5,-6.9062 -3.3001,-1.6345 -8.9251,-4.2001 -12.5,-5.6876 -3.575,-1.4874 -8.9751,-3.9722 -12,-5.5312 -3.025,-1.5591 -9.1001,-4.4647 -13.5,-6.4375 -4.4,-1.9729 -9.125,-4.2581 -10.5,-5.0937 -1.375,-0.8359 -4.9751,-2.6714 -8,-4.0626 -3.025,-1.391 -7.75,-3.688 -10.5,-5.125 -2.75,-1.437 -10.85,-5.6364 -18,-9.3124 -16.839,-8.6575 -35.582,-18.777 -37.094,-20.031 -0.6533,-0.5423 -3.9977,-2.3338 -7.4375,-4 -3.4397,-1.6662 -8.6373,-4.5662 -11.562,-6.4375 -2.9252,-1.8712 -7.4942,-4.5574 -10.125,-5.9688 -8.3604,-4.4849 -15.59,-8.6908 -22.281,-12.969 -3.575,-2.2855 -8.75,-5.4346 -11.5,-7 -2.75,-1.5654 -8.15,-4.9166 -12,-7.4375 -7.877,-5.1578 -8.0955,-5.2925 -16.156,-10 -3.2096,-1.8744 -7.6438,-4.8108 -9.8437,-6.5312 -2.2,-1.7205 -5.2443,-3.9348 -6.7813,-4.9062 -1.5371,-0.9714 -3.1996,-2.76 -3.6875,-3.9688 -0.4878,-1.2087 -2.5328,-6.0125 -4.5312,-10.688 -1.9984,-4.675 -5.3491,-13.551 -7.4688,-19.719 -2.1196,-6.1679 -4.1572,-11.707 -4.5312,-12.312 -2.0788,-3.3634 -23.94,-68.361 -28.063,-83.438 -0.7456,-2.7274 -2.4751,-8.3524 -3.8437,-12.5 -1.3685,-4.1475 -3.3599,-10.906 -4.4375,-15.031 -1.0776,-4.125 -2.4551,-8.85 -3.0312,-10.5 -1.8302,-5.242 -11.125,-41.067 -11.125,-42.875 0,-0.9545 -1.0968,-5.6541 -2.4376,-10.438 -4.9825,-17.775 -6.5624,-24.071 -6.5624,-26.188 0,-1.1947 -0.6589,-4.9534 -1.4688,-8.3438 -2.1087,-8.8263 -6.0142,-27.708 -8,-38.656 -0.2494,-1.375 -0.9818,-5.425 -1.625,-9 -0.6431,-3.575 -1.7806,-9.3408 -2.5312,-12.812 -2.8394,-13.133 -3.1015,-12.296 19.906,-64.688 16.024,-36.488 44.528,-94.773 58.906,-120.41 3.8919,-6.9383 8.6603,-15.519 10.594,-19.094 15.456,-28.578 38.61,-67.469 57.719,-97 13.053,-20.172 15.632,-24 16.281,-24 z m 1352.1,0.5625 c 0.2211,-0.008 0.3879,0.0282 0.4687,0.0625 0.6468,0.2743 2.927,3.2822 5.0937,6.6875 11.191,17.589 25.885,40.883 29.125,46.188 13.67,22.383 30.162,50.726 38.688,66.5 5.499,10.175 10.315,18.95 10.719,19.5 2.5443,3.4698 31.866,61.324 41.562,82 13.193,28.133 24.305,53.339 35.188,79.906 l 4.4687,10.875 -1.6874,10.125 c -1.4493,8.8045 -9.8149,51.839 -12.563,64.594 -3.6437,16.915 -5.4177,24.542 -7.4062,32 -1.2464,4.675 -3.2604,12.775 -4.5,18 -3.4473,14.53 -11.778,44.719 -17.5,63.5 -5.9951,19.679 -15.631,49.939 -16.719,52.5 -0.5841,1.375 -2.9839,8.35 -5.3437,15.5 -2.3598,7.15 -5.894,17.275 -7.875,22.5 -1.981,5.225 -4.7551,12.76 -6.1563,16.75 -1.4011,3.9897 -4.9522,12.941 -7.875,19.906 -6.0813,14.492 -3.6901,12.198 -29.469,28.469 -23.139,14.605 -23.427,14.787 -25.094,15.531 -0.825,0.3683 -3.75,2.1214 -6.5,3.9062 -7.241,4.6994 -27.607,16.438 -28.531,16.438 -0.4329,0 -0.9416,0.3375 -1.125,0.75 -0.3719,0.8368 -7.4891,4.8732 -15.844,9 -3.0251,1.4942 -5.725,3.0094 -6,3.375 -0.5566,0.7397 -20.825,11.683 -40,21.594 -6.875,3.5536 -13.625,7.0909 -15,7.8438 -3.5296,1.9325 -53.702,25.871 -57.5,27.437 -1.1,0.4538 -7.2455,3.3377 -13.656,6.4063 -6.4108,3.0685 -11.963,5.5937 -12.344,5.5937 -0.7238,0 -3.1985,1.0697 -15.25,6.6563 -3.9905,1.8497 -9.8405,4.3081 -13,5.4687 -3.1596,1.1607 -8.1699,3.2023 -11.125,4.5313 -2.9552,1.329 -9.9302,4.2414 -15.5,6.4687 -5.5699,2.2274 -10.585,4.2617 -11.156,4.5 -0.5711,0.2384 -7.1074,-8.242 -14.531,-18.844 -18.72,-26.733 -49.264,-69.98 -68.375,-96.812 -8.8281,-12.395 -23.488,-33.017 -32.562,-45.812 -9.075,-12.796 -19.174,-26.96 -22.438,-31.469 -3.2631,-4.5091 -10.708,-14.938 -16.562,-23.188 -5.8545,-8.25 -17.731,-24.861 -26.375,-36.906 -8.6445,-12.045 -16.079,-22.62 -16.531,-23.5 -0.5448,-1.0611 1.0017,-6.4798 4.5937,-16.094 2.9798,-7.975 8.5107,-23.05 12.281,-33.5 3.7706,-10.45 9.851,-27.325 13.531,-37.5 9.1846,-25.393 36.217,-105.18 40.312,-119 0.5706,-1.925 3.1317,-10.025 5.6876,-18 2.5558,-7.975 5.4631,-17.2 6.4687,-20.5 1.0056,-3.3 2.7436,-8.925 3.8437,-12.5 10.118,-32.879 23.004,-76.806 28.188,-96 0.9654,-3.575 3.7918,-13.475 6.2812,-22 2.4893,-8.525 7.1067,-25.625 10.25,-38 3.1432,-12.375 6.0702,-23.17 6.5,-23.969 0.4298,-0.7987 3.4091,-2.2202 6.625,-3.1875 3.216,-0.9673 11.019,-3.4299 17.344,-5.4375 6.3249,-2.0077 12.85,-3.9746 14.5,-4.4062 4.5664,-1.1947 42.997,-12.673 51.5,-15.375 7.3978,-2.3509 44.984,-13.357 62.5,-18.312 4.9499,-1.4004 11.7,-3.3594 15,-4.3438 3.3,-0.9844 10.275,-3.0084 15.5,-4.5 5.2249,-1.4917 15.575,-4.469 23,-6.625 23.07,-6.6989 24.072,-6.994 33.406,-9.3438 5.0043,-1.2597 10.262,-2.7483 11.688,-3.3125 1.4253,-0.5641 3.9927,-1.2592 5.7187,-1.5312 1.7261,-0.2721 5.089,-1.1298 7.4376,-1.9375 2.3485,-0.8078 6.05,-1.9363 8.25,-2.5 2.2,-0.5637 8.8905,-2.3921 14.844,-4.0625 5.2091,-1.4615 9.983,-2.536 11.531,-2.5938 z m -443.66,527.69 7.1563,9.6875 c 3.929,5.3248 12.525,17.234 19.125,26.438 6.5999,9.2035 14.939,20.622 18.531,25.406 3.5919,4.7842 8.6759,11.869 11.281,15.719 2.6056,3.85 8.5843,12.175 13.281,18.5 4.6971,6.325 10.188,13.964 12.219,16.969 2.0305,3.0051 7.7376,10.912 12.688,17.594 4.9499,6.6815 16.65,22.874 26,35.969 9.3499,13.095 19.7,27.506 23,32.031 3.3,4.5253 8.6999,11.946 12,16.5 9.2759,12.8 33.954,47.658 39.094,55.219 l 4.5937,6.7813 -4,5.3124 c -3.5927,4.7587 -26.276,32.301 -31.812,38.625 -1.2036,1.375 -6.7951,7.9001 -12.438,14.5 -5.6424,6.6 -10.524,12.225 -10.844,12.5 -0.3199,0.2751 -3.5199,3.875 -7.0937,8 -3.5739,4.125 -6.751,7.725 -7.0626,8 -0.3116,0.2751 -4.7539,5.225 -9.875,11 -40.551,45.73 -108.64,112.57 -162.38,159.38 l -6.8437,5.9376 -11.156,0.7812 c -6.1426,0.4373 -18.556,1.2898 -27.562,1.875 -9.0065,0.5853 -16.735,1.2829 -17.188,1.5625 -0.4522,0.2795 -14.009,1.19 -30.125,2 -27.554,1.385 -114.92,2.5837 -135.81,1.875 -39.972,-1.356 -68.801,-2.7047 -76,-3.5625 -4.6751,-0.557 -14.8,-1.4338 -22.5,-1.9375 -39.859,-2.6075 -38.077,-2.3355 -42.969,-6.3437 -4.7796,-3.9166 -14.382,-12.457 -27.031,-24.031 -4.4001,-4.0261 -10.025,-8.9788 -12.5,-11.031 -10.745,-8.9096 -61.575,-58.626 -90,-88.031 -38.425,-39.75 -118,-131.48 -118,-136.03 0,-0.5187 2.4366,-4.3154 5.4062,-8.4376 2.9696,-4.1221 8.0129,-11.325 11.219,-16 3.2056,-4.6749 11.008,-15.7 17.312,-24.5 6.3046,-8.7999 13.146,-18.475 15.219,-21.5 2.0731,-3.0249 8.0595,-11.35 13.312,-18.5 5.2531,-7.15 13.009,-17.95 17.219,-24 4.2104,-6.05 12.204,-17.224 17.75,-24.812 5.5462,-7.5886 12.988,-17.983 16.563,-23.094 3.5749,-5.1112 10.55,-14.797 15.5,-21.531 4.95,-6.734 11.194,-15.465 13.875,-19.406 2.681,-3.9411 6.3063,-8.9562 8.0624,-11.156 1.7562,-2.2 6.5347,-8.725 10.594,-14.5 4.0591,-5.775 9.4461,-13.2 11.969,-16.5 2.5226,-3.3 8.2749,-11.175 12.781,-17.5 4.5063,-6.325 8.9627,-12.473 9.9375,-13.656 1.7452,-2.1188 2.0559,-2.1364 19.781,-1.2812 71.296,3.4396 114.27,4.2915 215.5,4.3125 62.722,0.0133 117.89,-0.4648 138,-1.1875 43.479,-1.5628 83.248,-3.1628 89.375,-3.5938 l 4.8437,-0.34375 z" />
        <path
           id="path4949"
           sodipodi:nodetypes="cscsc"
           style="fill:url(#linearGradient5973);filter:url(#filter5202)"
           inkscape:connector-curvature="0"
           d="m -3910.9,958.12 c 0,0 102.3,-148.31 110.9,-150.89 8.6011,-2.5803 293.95,6.7333 293.95,6.7333 0,0 -267.81,19.45 -284.83,22.491 -17.029,3.0409 -120.02,121.66 -120.02,121.66 z" />
        <path
           id="path5027"
           style="fill:#ffff00"
           inkscape:connector-curvature="0"
           d="m -3930.6,-186.25 c -0.3332,0.18272 -0.8384,0.48609 -1.25,0.71875 0.9108,-0.27569 1.1049,-0.50102 1.25,-0.71875 z" />
        <path
           id="path5017"
           style="fill:#ffff00"
           inkscape:connector-curvature="0"
           d="m -4242.9,293.81 c -0.3043,-0.0724 -0.5084,0.0361 0.4687,0.125 -0.1416,-0.0368 -0.3647,-0.10027 -0.4687,-0.125 z" />
        <path
           id="path5015"
           sodipodi:nodetypes="cccccc"
           style="opacity:0.67180996;fill:#ffff00;stroke-width:19.60000038;filter:url(#filter5540)"
           inkscape:connector-curvature="0"
           d="m -4356.5,878.16 c -0.032,-0.006 0.694,1.1592 0.9376,1.5938 -0.021,-0.0538 -0.075,-0.13905 -0.094,-0.1875 -0.1414,-0.26981 -0.4429,-0.77344 -0.5312,-0.96875 -0.1318,-0.18846 -0.2814,-0.43194 -0.3126,-0.4375 z" />
        <path
           id="path5013"
           sodipodi:nodetypes="ccccccc"
           style="fill:url(#linearGradient5975);filter:url(#filter5076)"
           inkscape:connector-curvature="0"
           d="m -2904.8,993.89 c -70.767,38.151 -145.33,70.216 -219.25,100.77 -70.14,87.931 -137.77,190.21 -221.77,264.99 38.728,36.201 91.204,69.855 140.06,28.837 165.02,-71.39 307.67,-193.66 403,-346.15 -2.5901,-10.216 -6.5143,-23.239 -10.741,-36.765 -12.462,-75.702 -44.658,-36.893 -91.298,-11.675 z" />
        <path
           id="path5011"
           sodipodi:nodetypes="cccccc"
           style="fill:url(#linearGradient5977);filter:url(#filter5088)"
           inkscape:connector-curvature="0"
           d="m -4324.4,1058.3 c 107.68,160.79 268.78,285.37 452,347.94 21.794,-17.99 80.878,-47.444 88.286,-67.135 -82.781,-72.995 -165.19,-160.86 -234.56,-246.63 -91.92,-40.401 -172.72,-80.199 -248.72,-125.1 -58.485,-70.297 -74.568,70.386 -57.006,90.924 z" />
        <path
           id="path5005"
           style="fill:#ffff00"
           inkscape:connector-curvature="0"
           d="m -3193.2,1183.5 c -0.1771,0.1667 -0.5313,0.5208 -0.5313,0.5312 1.0928,-0.9654 0.3949,-0.3897 0.5313,-0.5312 z" />
        <path
           id="path5092"
           style="fill:url(#radialGradient5979);filter:url(#filter5088)"
           inkscape:connector-curvature="0"
           d="m -4296.9,947.84 c -34.003,-0.41383 -41.631,93.911 -27.5,110.44 107.68,160.79 268.78,285.37 452,347.94 21.794,-17.99 80.873,-47.434 88.281,-67.125 -82.781,-72.996 -165.19,-160.85 -234.56,-246.62 -91.92,-40.401 -172.72,-80.195 -248.72,-125.09 -11.423,-13.73 -21.247,-19.431 -29.5,-19.531 z m 1456.2,13.375 c -16.153,-0.0137 -37.827,18.471 -64.062,32.656 -70.767,38.151 -145.33,70.232 -219.25,100.78 -70.14,87.931 -137.78,190.19 -221.78,264.97 38.728,36.201 91.207,69.862 140.06,28.844 165.02,-71.39 307.67,-193.67 403,-346.16 -2.5901,-10.216 -6.5235,-23.224 -10.75,-36.75 -5.452,-33.12 -14.655,-44.333 -27.219,-44.344 z" />
        <path
           id="path5142"
           style="fill:url(#linearGradient5981);filter:url(#filter5156)"
           inkscape:connector-curvature="0"
           d="m -3189.3,337.13 c 0,0 243.28,-68.117 257.87,-77.848 14.596,-9.731 17.029,-9.731 17.029,-21.895 0,-12.164 -2.4328,-65.684 -2.4328,-65.684 l 17.029,92.445 -289.5,90.012 z" />
        <path
           id="path5168"
           style="fill:url(#linearGradient5983);filter:url(#filter5174)"
           inkscape:connector-curvature="0"
           d="m -2897.4,288.48 c 0,0 -272.47,72.983 -279.77,75.415 -7.2982,2.4328 -143.53,418.43 -143.53,418.43 0,0 141.1,-384.38 153.26,-396.54 12.164,-12.164 270.04,-87.579 270.04,-97.31 z" />
        <path
           id="path5206"
           sodipodi:nodetypes="cccsscc"
           style="fill:#ffffff;filter:url(#filter5216)"
           inkscape:connector-curvature="0"
           d="m -3559.1,89.04 c -3.4405,-17.202 0,-275.23 0,-275.23 l 65.368,-17.202 c 0,0 -30.964,6.8809 -48.166,24.083 -17.202,17.2021 8.6011,225.35 12.042,242.55 3.4405,17.202 190.94,166.86 190.94,166.86 z" />
        <path
           id="path5220"
           sodipodi:nodetypes="cssccc"
           style="fill:url(#linearGradient5985);filter:url(#filter5228)"
           inkscape:connector-curvature="0"
           d="m -4099,269.9 c 0,0 -85.74,-60.372 -97.764,-76.431 -12.023,-16.059 135.22,-266.35 192.96,-310.31 57.741,-43.968 278.8,-80.485 278.8,-80.485 l -22.636,116.45 c -169.15,77.906 -252.24,200.22 -351.36,350.78 z" />
        <path
           id="path5240"
           sodipodi:nodetypes="csssc"
           style="fill:none;stroke:url(#linearGradient5987);stroke-width:20;filter:url(#filter5254)"
           inkscape:connector-curvature="0"
           d="m -3578.1,-186.19 c 0,0 -8.6011,252.87 -6.8809,268.35 0.8944,8.0501 -102.62,70.61 -195.4,135.42 -85.656,59.836 -160.89,122.61 -165.85,122.61 -10.321,0 -302.76,-80.85 -302.76,-80.85" />
        <path
           id="path5266"
           sodipodi:nodetypes="cccsc"
           style="fill:url(#linearGradient5989);filter:url(#filter5276)"
           inkscape:connector-curvature="0"
           d="m -3953.1,364.28 -292.44,-89.451 -151.38,275.23 c 0,0 141.06,-240.83 158.26,-244.27 17.202,-3.4404 285.56,58.487 285.56,58.487 z" />
        <path
           id="path5288"
           sodipodi:nodetypes="cc"
           style="opacity:0.85198999;fill:none;stroke:url(#linearGradient5991);stroke-width:20;filter:url(#filter5342)"
           inkscape:connector-curvature="0"
           d="m -3953.1,371.16 c 35.292,128.18 78.536,281.52 141.06,436.94" />
        <path
           id="path5354"
           sodipodi:nodetypes="ccccc"
           style="fill:url(#radialGradient5993);filter:url(#filter5368)"
           inkscape:connector-curvature="0"
           d="m -3925.5,369.44 c 86.361,-84.648 238.29,-197.78 357.66,-266.69 13.241,0.0306 53.475,27.581 53.475,27.581 -21.462,-9.2836 -27.426,-18.473 -51.916,-20.11 -126.9,82.6 -243.74,170.55 -359.22,259.22 z" />
        <path
           id="path5372"
           sodipodi:nodetypes="csscssc"
           style="fill:url(#linearGradient5995);filter:url(#filter5374)"
           inkscape:connector-curvature="0"
           d="m -3806.8,753.9 c 0,0 1.7202,22.363 22.363,30.964 20.643,8.6011 414.57,0 428.33,0 13.762,0 36.124,-51.607 36.124,-51.607 0,0 -21.503,61.928 -26.663,63.648 -5.1606,1.7202 -436.08,-2.5803 -444.68,-2.5803 -8.6011,0 -15.482,-40.425 -15.482,-40.425 z" />
        <path
           id="path5394"
           sodipodi:nodetypes="ccccc"
           style="fill:url(#linearGradient5997);filter:url(#filter5408)"
           inkscape:connector-curvature="0"
           d="m -3884.3,-238.11 c 68.141,-3.6544 145.45,3.1508 217.59,12.058 l 41.697,-16.513 c -79.809,-10.165 -140.65,-9.709 -209.06,-7.3339 z" />
        <path
           id="path5420"
           sodipodi:nodetypes="ccssc"
           style="fill:url(#linearGradient5999);filter:url(#filter5438)"
           inkscape:connector-curvature="0"
           d="m -4183.2,-40.098 c -35.913,77.688 -52.698,178.94 -69.226,280.52 0,0 -8.2149,-21.027 -13.344,-55.047 -8.3257,-55.219 39.095,-190.75 48.308,-198.1 z" />
        <path
           id="path5640"
           sodipodi:nodetypes="csccccc"
           style="fill:url(#linearGradient6001);filter:url(#filter5670)"
           inkscape:connector-curvature="0"
           d="m -2878.5,-28.179 c 71.877,77.922 230.01,521.72 185.19,552.56 -29.056,19.992 -24.228,-3.2025 -36.801,-39.025 4.6741,50.33 7.5162,67.958 17.792,77.46 l 87.227,-67.801 c -2.0571,-178.98 -75.126,-357.97 -160.52,-536.95 z" />
        <path
           id="path5674"
           sodipodi:nodetypes="cssccc"
           style="opacity:0.58687002;fill:url(#linearGradient6003);filter:url(#filter5700)"
           inkscape:connector-curvature="0"
           d="m -3232.3,-234.36 c 0,0 78.106,45.342 150.5,90.207 56.453,34.987 110.11,71.706 116.14,73.214 13.762,3.4404 98.052,25.803 98.052,25.803 l -92.892,-10.321 z" />
        <path
           id="path5712"
           sodipodi:nodetypes="csccc"
           style="fill:url(#linearGradient6005);filter:url(#filter5730)"
           inkscape:connector-curvature="0"
           d="m -4478.7,541.48 c 0,0 26.76,41.357 36.491,55.953 9.731,14.597 38.924,102.18 38.924,102.18 l -17.029,-114.34 z" />
        <path
           id="path5742"
           sodipodi:nodetypes="csscccc"
           style="fill:url(#linearGradient6007);filter:url(#filter5752)"
           inkscape:connector-curvature="0"
           d="m -4480.7,521.6 c 0,0 44.675,31.208 59.272,31.208 14.596,0 113.04,-247.31 134.93,-266.77 21.895,-19.462 -17.029,55.953 -17.029,55.953 l -114.34,231.11 -58.386,-38.924 z" />
        <path
           id="path5756"
           sodipodi:nodetypes="cc"
           style="opacity:0.28185;fill:none;stroke:url(#radialGradient6009);stroke-width:15;filter:url(#filter5814)"
           inkscape:connector-curvature="0"
           d="m -4223.3,-18.05 c 103.13,-89.293 262.66,-200.68 384.38,-245.71" />
      </g>
    </g>
  </g>
  <metadata
     id="metadata179">
    <rdf:RDF>
      <cc:Work>
        <dc:format>image/svg+xml</dc:format>
        <dc:type
           rdf:resource="http://purl.org/dc/dcmitype/StillImage" />
        <cc:license
           rdf:resource="http://creativecommons.org/publicdomain/zero/1.0/" />
        <dc:publisher>
          <cc:Agent
             rdf:about="http://openclipart.org/">
            <dc:title>Openclipart</dc:title>
          </cc:Agent>
        </dc:publisher>
        <dc:title>Real Soccer ball</dc:title>
        <dc:date>2011-06-27T17:37:08</dc:date>
        <dc:description>Um verto feito para um duvida postada na lista Inkscape Brasil.org</dc:description>
        <dc:source>https://openclipart.org/detail/147445/real-soccer-ball-by-maddrum</dc:source>
        <dc:creator>
          <cc:Agent>
            <dc:title>Maddrum</dc:title>
          </cc:Agent>
        </dc:creator>
        <dc:subject>
          <rdf:Bag>
            <rdf:li>Ball</rdf:li>
            <rdf:li>Bola</rdf:li>
            <rdf:li>Football</rdf:li>
            <rdf:li>Futebol</rdf:li>
            <rdf:li>Soccer</rdf:li>
            <rdf:li>worldcup</rdf:li>
          </rdf:Bag>
        </dc:subject>
      </cc:Work>
      <cc:License
         rdf:about="http://creativecommons.org/publicdomain/zero/1.0/">
        <cc:permits
           rdf:resource="http://creativecommons.org/ns#Reproduction" />
        <cc:permits
           rdf:resource="http://creativecommons.org/ns#Distribution" />
        <cc:permits
           rdf:resource="http://creativecommons.org/ns#DerivativeWorks" />
      </cc:License>
    </rdf:RDF>
  </metadata>
</svg>
