<?xml version="1.0" encoding="UTF-8" standalone="no"?>
<!-- Created with Inkscape (http://www.inkscape.org/) -->

<svg
   xmlns:dc="http://purl.org/dc/elements/1.1/"
   xmlns:cc="http://creativecommons.org/ns#"
   xmlns:rdf="http://www.w3.org/1999/02/22-rdf-syntax-ns#"
   xmlns:svg="http://www.w3.org/2000/svg"
   xmlns="http://www.w3.org/2000/svg"
   xmlns:sodipodi="http://sodipodi.sourceforge.net/DTD/sodipodi-0.dtd"
   xmlns:inkscape="http://www.inkscape.org/namespaces/inkscape"
   id="svg2"
   sodipodi:docname="openclipart_488_funky_old_tv_variant_tmp.svg"
   viewBox="0 0 698.4668 698.46683"
   version="1.1"
   inkscape:version="0.91 r13725"
   width="698.4668"
   height="698.4668">
  <defs
     id="defs48" />
  <title
     id="title5452">Funky Old TV</title>
  <sodipodi:namedview
     id="base"
     bordercolor="#666666"
     inkscape:pageshadow="2"
     inkscape:window-y="-8"
     fit-margin-left="0"
     pagecolor="#ffffff"
     fit-margin-top="0"
     inkscape:window-maximized="1"
     inkscape:zoom="0.70710678"
     inkscape:window-x="1272"
     inkscape:window-height="660"
     showgrid="false"
     borderopacity="1.0"
     inkscape:current-layer="g5331"
     inkscape:cx="176.0866"
     inkscape:cy="347.18141"
     fit-margin-right="0"
     fit-margin-bottom="0"
     inkscape:window-width="1280"
     inkscape:pageopacity="0.0"
     inkscape:document-units="px" />
  <g
     id="layer1"
     inkscape:label="Layer 1"
     inkscape:groupmode="layer"
     transform="translate(-113,-93.361994)">
    <g
       id="g5331"
       transform="translate(63.233389,172)">
      <path
         id="path3842"
         d="m 149.78,582.44 c 25.418,-8.3553 52.421,-9.1033 81.434,-0.21605 -25.277,9.0313 -52.562,8.4274 -81.434,0.21605 z"
         sodipodi:nodetypes="ccc"
         style="fill:#d4aa00"
         inkscape:connector-curvature="0" />
      <path
         id="path3842-7"
         d="m 203.28,569.47 c 25.418,-8.3553 52.421,-9.1033 81.434,-0.21605 -25.277,9.0313 -52.562,8.4274 -81.434,0.21605 z"
         sodipodi:nodetypes="ccc"
         style="fill:#d4aa00"
         inkscape:connector-curvature="0" />
      <path
         id="path3794"
         d="m 169,436.36 11,143 c 7.9617,5.7816 18.425,4.058 29,2 l 15,-151 z"
         sodipodi:nodetypes="ccccc"
         style="fill:#552200"
         inkscape:connector-curvature="0" />
      <path
         id="path3794-4"
         d="m 219.5,422.89 11,143 c 7.9617,5.7816 18.425,4.058 29,2 l 15,-151 z"
         sodipodi:nodetypes="ccccc"
         style="fill:#552200"
         inkscape:connector-curvature="0" />
      <path
         id="path3842-8"
         d="m 553.28,598.47 c 25.418,-8.3553 52.421,-9.1033 81.434,-0.21605 -25.277,9.0313 -52.562,8.4274 -81.434,0.21605 z"
         sodipodi:nodetypes="ccc"
         style="fill:#d4aa00"
         inkscape:connector-curvature="0" />
      <path
         id="path3842-6"
         d="m 502.28,613.47 c 25.418,-8.3553 52.421,-9.1033 81.434,-0.21605 -25.277,9.0313 -52.562,8.4274 -81.434,0.21605 z"
         sodipodi:nodetypes="ccc"
         style="fill:#d4aa00"
         inkscape:connector-curvature="0" />
      <g
         id="g3838"
         transform="translate(56,10)">
        <path
           id="path3794-3"
           sodipodi:nodetypes="ccccc"
           style="fill:#552200"
           inkscape:connector-curvature="0"
           d="m 465.5,457.89 11,143 c 7.9617,5.7816 18.425,4.058 29,2 l 15,-151 z" />
        <path
           id="path3794-0"
           sodipodi:nodetypes="ccccc"
           style="fill:#552200"
           inkscape:connector-curvature="0"
           d="m 514.5,443.89 11,143 c 7.9617,5.7816 18.425,4.058 29,2 l 15,-151 z" />
      </g>
      <path
         id="path5429"
         sodipodi:nodetypes="ccccccccccccccc"
         style="fill:#332a0f"
         inkscape:connector-curvature="0"
         d="m 316,-62.638 -28,14 7,10 10,0 83,170 125,-183 11,0 9,-7 -30,-20 -5,11 2,8 -112,177 -72,-161 6,-9 z" />
      <path
         id="path5431"
         sodipodi:nodetypes="ccc"
         style="fill:#fd6a00"
         inkscape:connector-curvature="0"
         d="m 309,121.36 c 20.455,-36.646 166.34,-32.433 158,-4 z" />
      <path
         id="path2985"
         d="m 124,121.36 490,-12 -17,370 -469,-33 z"
         sodipodi:nodetypes="ccccc"
         style="fill:#d45500"
         inkscape:connector-curvature="0" />
      <path
         id="path3770"
         d="m 612,108.36 62,32 -23,332 -55,7 z"
         sodipodi:nodetypes="ccccc"
         style="fill:#803300"
         inkscape:connector-curvature="0" />
      <g
         id="g5325"
         transform="matrix(1.2302208,0,0,1,-35.454007,0)">
        <path
           id="path3792"
           sodipodi:nodetypes="ccccc"
           inkscape:connector-curvature="0"
           style="fill:#3b2213"
           d="m 154,154.36 344,-1 -16,274 -325,-18 z" />
        <path
           id="path3768"
           sodipodi:nodetypes="ccccc"
           style="fill:#808080"
           inkscape:connector-curvature="0"
           d="m 168,162.36 3,236 300,14 7,-249 z" />
        <path
           id="path3772"
           sodipodi:nodetypes="cccc"
           style="opacity:0.83657998;fill:#999999"
           inkscape:connector-curvature="0"
           d="m 176,168.36 292,4 -5,201 C 420.159,129.17 413.217,221.62 176,168.36 Z" />
        <path
           id="path3772-4"
           sodipodi:nodetypes="cccc"
           style="opacity:0.36965003;fill:#666666"
           inkscape:connector-curvature="0"
           d="m 460,403.36 -280,-13 -6,-199 c 65.841,187.19 -42.217,165.74 286,212 z" />
      </g>
    </g>
  </g>
  <metadata
     id="metadata46">
    <rdf:RDF>
      <cc:Work>
        <dc:format>image/svg+xml</dc:format>
        <dc:type
           rdf:resource="http://purl.org/dc/dcmitype/StillImage" />
        <cc:license
           rdf:resource="http://creativecommons.org/publicdomain/zero/1.0/" />
        <dc:publisher>
          <cc:Agent
             rdf:about="http://openclipart.org/">
            <dc:title>Openclipart</dc:title>
          </cc:Agent>
        </dc:publisher>
        <dc:title>Funky Old TV</dc:title>
        <dc:date>2010-10-14T06:26:25</dc:date>
        <dc:description>A funky old TV set.</dc:description>
        <dc:source>https://openclipart.org/detail/90871/funky-old-tv-by-stevepetmonkey</dc:source>
        <dc:creator>
          <cc:Agent>
            <dc:title>stevepetmonkey</dc:title>
          </cc:Agent>
        </dc:creator>
        <dc:subject>
          <rdf:Bag>
            <rdf:li>60's</rdf:li>
            <rdf:li>Funky</rdf:li>
            <rdf:li>Furniture</rdf:li>
            <rdf:li>Old</rdf:li>
            <rdf:li>Retro</rdf:li>
            <rdf:li>TV</rdf:li>
            <rdf:li>Television</rdf:li>
          </rdf:Bag>
        </dc:subject>
      </cc:Work>
      <cc:License
         rdf:about="http://creativecommons.org/publicdomain/zero/1.0/">
        <cc:permits
           rdf:resource="http://creativecommons.org/ns#Reproduction" />
        <cc:permits
           rdf:resource="http://creativecommons.org/ns#Distribution" />
        <cc:permits
           rdf:resource="http://creativecommons.org/ns#DerivativeWorks" />
      </cc:License>
    </rdf:RDF>
  </metadata>
</svg>
