<?xml version="1.0" encoding="UTF-8" standalone="no"?>
<!-- Generator: Adobe Illustrator 15.0.0, SVG Export Plug-In . SVG Version: 6.00 Build 0)  -->

<svg
   xmlns:dc="http://purl.org/dc/elements/1.1/"
   xmlns:cc="http://creativecommons.org/ns#"
   xmlns:rdf="http://www.w3.org/1999/02/22-rdf-syntax-ns#"
   xmlns:svg="http://www.w3.org/2000/svg"
   xmlns="http://www.w3.org/2000/svg"
   xmlns:sodipodi="http://sodipodi.sourceforge.net/DTD/sodipodi-0.dtd"
   xmlns:inkscape="http://www.inkscape.org/namespaces/inkscape"
   enable-background="new 0 0 500 500"
   xml:space="preserve"
   version="1.1"
   y="0px"
   x="0px"
   viewBox="0 0 500 500"
   id="svg2"
   inkscape:version="0.91 r13725"
   sodipodi:docname="openclipart_106_baseball_variant_tmp.svg"><defs
     id="defs146" /><sodipodi:namedview
     pagecolor="#ffffff"
     bordercolor="#666666"
     borderopacity="1"
     objecttolerance="10"
     gridtolerance="10"
     guidetolerance="10"
     inkscape:pageopacity="0"
     inkscape:pageshadow="2"
     inkscape:window-width="1280"
     inkscape:window-height="660"
     id="namedview144"
     showgrid="false"
     inkscape:zoom="0.6675088"
     inkscape:cx="286.74458"
     inkscape:cy="339.22207"
     inkscape:window-x="1272"
     inkscape:window-y="-8"
     inkscape:window-maximized="1"
     inkscape:current-layer="Holes" /><g
     id="Art"><g
       id="Outline"><path
         d="m24.923 223.69s-9.23-96.924 98.462-166.92c2.308-7.692 35.385-33.077 57.692-23.077 14.615-5.385 72.308-17.237 114.62-10.926s89.231 30.157 107.69 45.542c10.77 1.539 44.614 26.154 46.153 39.231 13.85 18.46 43.08 46.92 42.32 128.46s-33.845 130.77-45.384 145.38-36.154 48.461-73.077 64.615c0 7.692-12.309 13.846-18.462 15.385s-21.537 10.769-30.769 0c-13.847 2.308-80.77 23.077-159.23-2.308s-114.62-85.38-133.08-161.53c-3.846-4.615-12.308-10.001-13.077-31.539s-2.312-40 6.15-42.31z"
         id="path6" /></g><g
       id="Color"><radialGradient
         id="SVGID_1_"
         gradientUnits="userSpaceOnUse"
         cy="246.27"
         cx="255"
         r="221.38"><stop
           style="stop-color:#FFFFFF"
           offset="0"
           id="stop10" /><stop
           style="stop-color:#D9D9D9"
           offset=".7299"
           id="stop12" /><stop
           style="stop-color:#CCCCCC"
           offset=".8736"
           id="stop14" /><stop
           style="stop-color:#969696"
           offset="1"
           id="stop16" /></radialGradient><path
         d="m34.655 224.65s-8.84-92.824 94.297-159.86c2.21-7.366 33.888-31.677 55.252-22.101 13.997-5.157 69.249-16.508 109.77-10.464 40.519 6.044 85.458 28.881 103.14 43.615 10.314 1.474 42.728 25.047 44.201 37.571 13.261 17.681 41.254 44.938 40.519 123.03-0.736 78.09-32.414 125.24-43.465 139.24s-34.625 46.411-69.986 61.882c0 7.367-11.787 13.26-17.681 14.734-5.893 1.474-20.626 10.312-29.467 0-13.262 2.21-77.354 22.101-152.5-2.21-75.13-24.32-109.75-81.78-127.44-154.71-3.684-4.42-11.788-9.578-12.524-30.205-0.732-20.62-2.205-38.3 5.899-40.51z"
         fill="url(#SVGID_1_)"
         id="path18" /></g><g
       id="Laces"><g
         id="Holes"><circle
           cy="102.15"
           cx="178"
           r="3.846"
           id="circle24" /><circle
           cy="205.69"
           cx="120.54"
           r="4.615"
           id="circle30" /><circle
           cy="258.27"
           cx="67.863"
           r="3.846"
           id="circle34" /><circle
           cy="171.54"
           cx="78.308"
           r="4.615"
           id="circle38" /><circle
           cy="102.54"
           cx="123.77"
           r="4.231"
           id="circle44" /><circle
           cy="212.15"
           cx="38"
           r="3.846"
           id="circle48" /><circle
           cy="119.46"
           cx="330.69"
           r="5"
           id="circle52" /><circle
           cy="180.81"
           cx="281.27"
           r="4.808"
           id="circle56" /><circle
           cy="273.54"
           cx="289.08"
           r="5"
           id="circle60" /><circle
           cy="336"
           cx="317.23"
           r="4.616"
           id="circle64" /><circle
           cy="396.38"
           cx="335.69"
           r="5"
           id="circle68" /><circle
           cy="141"
           cx="381.46"
           r="4.23"
           id="circle74" /><circle
           cy="199.08"
           cx="351.08"
           r="4.615"
           id="circle78" /><circle
           cy="259.85"
           cx="357.62"
           r="6.154"
           id="circle82" /><circle
           cy="316.96"
           cx="382.42"
           r="5.193"
           id="circle86" /><circle
           cy="388.88"
           cx="392.81"
           r="5.192"
           id="circle90" /></g><g
         id="Thread"
         stroke="#ED1C24"
         stroke-miterlimit="10"
         fill="none"><g
           id="Left_x5F_Side"><path
             stroke-width="8"
             d="m123.77 102.54c25.77 25.769 38.564 11.923 54.231-0.385"
             id="path96" /><path
             stroke-width="7"
             d="m134.52 61.918c26.086 4.989 34.118-5.844 44.811-16.787"
             id="path100" /><path
             stroke-width="8"
             d="m78.174 171.93c3.744 36.251 22.406 33.577 42.326 33.908"
             id="path106" /><path
             stroke-width="8"
             d="m37.36 213.42c-7.066 35.752 11.559 38.676 30.503 44.842"
             id="path110" /></g><g
           id="Right_x5F_Side"
           stroke-width="8"><path
             d="m332.5 120.06c13.868 33.701 31.006 25.846 50.202 20.516"
             id="path113" /><path
             d="m396.42 77.885c2.738 35.884 21.19 33.265 40.802 33.622"
             id="path117" /><path
             d="m281.16 182.51c26.567 33.543 46.47 24.416 69.667 17.736"
             id="path121" /><path
             d="m290.37 274.57c38.176 17.697 51.188 0.517 68.155-15.991"
             id="path125" /><path
             d="m319.34 338.04c37.198 14.746 47.229-3.2 60.983-20.768"
             id="path129" /><path
             d="m333.83 398.37c33.142 21.052 45.615 5.164 61.583-9.695"
             id="path133" /></g></g><g
         id="Seams"
         stroke="#BE1E2D"
         stroke-width="3"
         stroke-miterlimit="10"
         fill="none"><path
           d="m416.82 84.461c-217.73 131.24 0 217.38-66.124 367.82"
           id="path138" /><path
           d="m151.15 45.131c0 121.62-77.461 161.51-122.39 220.03"
           id="path140" /></g></g></g><metadata
     id="metadata142"><rdf:RDF><cc:Work><dc:format>image/svg+xml</dc:format><dc:type
           rdf:resource="http://purl.org/dc/dcmitype/StillImage" /><cc:license
           rdf:resource="http://creativecommons.org/licenses/publicdomain/" /><dc:publisher><cc:Agent
             rdf:about="http://openclipart.org/"><dc:title>Openclipart</dc:title></cc:Agent></dc:publisher><dc:title>Baseball</dc:title><dc:date>2010-08-02T00:01:04</dc:date><dc:description>A baseball, created for the Sports 2010 Clip Art Package Release.</dc:description><dc:source>https://openclipart.org/detail/75919/baseball-by-pianobrad</dc:source><dc:creator><cc:Agent><dc:title>pianoBrad</dc:title></cc:Agent></dc:creator><dc:subject><rdf:Bag><rdf:li>athletics</rdf:li><rdf:li>ball</rdf:li><rdf:li>baseball</rdf:li><rdf:li>game</rdf:li><rdf:li>national pastime</rdf:li><rdf:li>outdoors</rdf:li><rdf:li>sports</rdf:li><rdf:li>sports2010</rdf:li></rdf:Bag></dc:subject></cc:Work><cc:License
         rdf:about="http://creativecommons.org/licenses/publicdomain/"><cc:permits
           rdf:resource="http://creativecommons.org/ns#Reproduction" /><cc:permits
           rdf:resource="http://creativecommons.org/ns#Distribution" /><cc:permits
           rdf:resource="http://creativecommons.org/ns#DerivativeWorks" /></cc:License></rdf:RDF></metadata></svg>