<?xml version="1.0" encoding="UTF-8" standalone="no"?>
<!-- Generator: Adobe Illustrator 14.0.0, SVG Export Plug-In . SVG Version: 6.00 Build 43363)  -->

<svg
   xmlns:dc="http://purl.org/dc/elements/1.1/"
   xmlns:cc="http://creativecommons.org/ns#"
   xmlns:rdf="http://www.w3.org/1999/02/22-rdf-syntax-ns#"
   xmlns:svg="http://www.w3.org/2000/svg"
   xmlns="http://www.w3.org/2000/svg"
   xmlns:sodipodi="http://sodipodi.sourceforge.net/DTD/sodipodi-0.dtd"
   xmlns:inkscape="http://www.inkscape.org/namespaces/inkscape"
   enable-background="new 0 0 500 500"
   xml:space="preserve"
   version="1.1"
   y="0px"
   x="0px"
   viewBox="0 0 464.35005 464.35004"
   id="svg2"
   inkscape:version="0.91 r13725"
   sodipodi:docname="openclipart_78_summer_surfboard.svg"
   width="464.35004"
   height="464.35004"
   inkscape:export-filename="C:\Users\Ryan\VariantTapGraphicsGetter\variants\openclipart_78_summer_surfboard.png"
   inkscape:export-xdpi="99.235481"
   inkscape:export-ydpi="99.235481"><defs
     id="defs58" /><sodipodi:namedview
     pagecolor="#ffffff"
     bordercolor="#666666"
     borderopacity="1"
     objecttolerance="10"
     gridtolerance="10"
     guidetolerance="10"
     inkscape:pageopacity="0"
     inkscape:pageshadow="2"
     inkscape:window-width="1280"
     inkscape:window-height="945"
     id="namedview56"
     showgrid="false"
     fit-margin-top="0"
     fit-margin-left="0"
     fit-margin-right="0"
     fit-margin-bottom="0"
     inkscape:zoom="0.6675088"
     inkscape:cx="-343.08869"
     inkscape:cy="41.951072"
     inkscape:window-x="-8"
     inkscape:window-y="48"
     inkscape:window-maximized="1"
     inkscape:current-layer="Layer_5" /><g
     id="Color"
     transform="translate(-7.8253074,-14.812994)"><linearGradient
       id="SVGID_1_"
       y2="14.825"
       gradientUnits="userSpaceOnUse"
       x2="240"
       y1="479.16"
       x1="240"><stop
         style="stop-color:#FFFFFF"
         offset=".1227"
         id="stop6" /><stop
         style="stop-color:#FFFFFF"
         offset=".8098"
         id="stop8" /><stop
         style="stop-color:#38fc21;stop-opacity:1"
         offset=".8589"
         id="stop10" /></linearGradient><path
       d="m 240,14.825 c -159.65,138.6 -32.456,442.98 -25.438,458.77 7.018,15.79 25.44,-7.02 25.44,-7.02 0,0 18.42,22.808 25.438,7.018 7.018,-15.79 134.21,-320.18 -25.44,-458.78 z"
       id="path12"
       inkscape:connector-curvature="0"
       style="fill:url(#SVGID_1_)" /><g
       id="Layer_6"
       style="fill:#00ff00"><linearGradient
         id="SVGID_2_"
         y2="347.5"
         gradientUnits="userSpaceOnUse"
         x2="231.5"
         y1="474.78"
         x1="231.5"><stop
           style="stop-color:#FCEE21"
           offset="0"
           id="stop16" /><stop
           style="stop-color:#FCEE21"
           offset="1"
           id="stop18" /></linearGradient><path
         d="m 177,347.5 c 0,0 37,120.5 109,65 -5.5,16 -19.5,59.5 -27,59.5 -7.5,0 -19.5,-9.5 -19.5,-9.5 0,0 -14.5,17 -19.5,11 -5,-6 -29,-55.5 -43,-126"
         id="path20"
         inkscape:connector-curvature="0"
         style="fill:#00ff00" /></g><g
       id="Layer_4"><path
         d="m 169,303.67 c 0,0 56.667,179.33 128,67.333 8.667,-39.333 43.332,-174 -2.667,-270.67 -33.33,-9.33 -117.33,-1.997 -119.33,61.34 0,38 28.333,57.667 52,65.333 23.667,7.666 -47.333,-2 -63.667,-61.333 9,-35.67 21.67,-70.67 21.67,-70.67 0,0 36.668,-53.333 85.334,-43.667 16,23.667 42.67,76.167 46.17,126.67 3.5,50.503 2.5,113.5 -21.5,206 -6.5,25.5 -15.5,47 -15.5,47 0,0 -61.5,80 -106.5,-98 -1,-6 -4,-29.33 -4,-29.33"
         id="path23"
         inkscape:connector-curvature="0"
         style="fill:#273370" /></g><g
       id="Layer_5"><linearGradient
         id="SVGID_3_"
         y2="233.99001"
         gradientUnits="userSpaceOnUse"
         x2="318.73001"
         y1="233.99001"
         x1="228.52"><stop
           style="stop-color:#E56525"
           offset="0"
           id="stop27" /><stop
           style="stop-color:#E56525"
           offset=".9755"
           id="stop29" /></linearGradient><path
         d="m 259.5,193.5 c 0,0 -24.5,-4.5 -30,-29.5 -5.5,-25 13.5,-38.5 25,-42.5 11.5,-4 38.5,-5 58,25.5 3.5,21.5 14,97.5 -4,174 -16,25 -34,26.5 -38.5,27.5 14,-8.5 40.089,-25.62 44.5,-69 1.5,-14.75 3.488,-12.741 2.25,-21.75 C 308.5,197.75 299,170 284.5,153 c -17,-22.5 -36,-24.5 -45.5,-11 -9.5,13.5 -2,29.5 3.5,37 5.5,7.5 10.5,11.5 17,14.5 z"
         id="path31"
         inkscape:connector-curvature="0"
         style="fill:#ff0000" /></g><g
       id="Layer_3"><path
         d="m 166,282 c 0,0 53,196 137,65 12,-67 17,-93 14,-162 -10,-37 -56,-113.33 -119,-60 -21.667,19.333 -38,79 29,102 -25,-8 -88,-47.333 -35,-115 12,-15 60.333,-37.667 103,-17 15,43 45,118 0,289 -19,24 -65,101 -127,-78 0,-13 -2,-24 -2,-24"
         id="path34"
         inkscape:connector-curvature="0"
         style="fill:#75ccd2" /></g></g><g
     id="Outline"
     transform="translate(-7.8253074,-14.812994)"><path
       d="m 240,14.825 c -159.65,138.6 -32.456,442.98 -25.438,458.77 7.018,15.79 25.44,-7.02 25.44,-7.02 0,0 18.42,22.808 25.438,7.018 7.018,-15.79 134.21,-320.18 -25.44,-458.78 z m 24.38,450.08 c -6.727,15.137 -24.383,-6.727 -24.383,-6.727 0,0 -17.657,21.863 -24.384,6.727 -6.73,-15.13 -128.65,-306.9 24.38,-439.75 153.03,132.85 31.11,424.62 24.38,439.75 z"
       id="path37"
       inkscape:connector-curvature="0" /></g><metadata
     id="metadata54"><rdf:RDF><cc:Work><dc:format>image/svg+xml</dc:format><dc:type
           rdf:resource="http://purl.org/dc/dcmitype/StillImage" /><cc:license
           rdf:resource="http://creativecommons.org/publicdomain/zero/1.0/" /><dc:publisher><cc:Agent
             rdf:about="http://openclipart.org/"><dc:title>Openclipart</dc:title></cc:Agent></dc:publisher><dc:title>Summer Surfboard</dc:title><dc:date>2010-07-06T05:16:58</dc:date><dc:description>A surfboard, created for the &quot;summer2010&quot; clip art package.</dc:description><dc:source>https://openclipart.org/detail/70687/summer-surfboard-by-pianobrad</dc:source><dc:creator><cc:Agent><dc:title>pianoBrad</dc:title></cc:Agent></dc:creator><dc:subject><rdf:Bag><rdf:li>beach</rdf:li><rdf:li>sports</rdf:li><rdf:li>summer</rdf:li><rdf:li>summer2010</rdf:li><rdf:li>surf</rdf:li><rdf:li>surfboard</rdf:li><rdf:li>tide</rdf:li><rdf:li>water</rdf:li><rdf:li>wave</rdf:li></rdf:Bag></dc:subject></cc:Work><cc:License
         rdf:about="http://creativecommons.org/publicdomain/zero/1.0/"><cc:permits
           rdf:resource="http://creativecommons.org/ns#Reproduction" /><cc:permits
           rdf:resource="http://creativecommons.org/ns#Distribution" /><cc:permits
           rdf:resource="http://creativecommons.org/ns#DerivativeWorks" /></cc:License></rdf:RDF></metadata></svg>