<?xml version="1.0" encoding="UTF-8" standalone="no"?>
<!-- Created with Inkscape (http://www.inkscape.org/) -->

<svg
   xmlns:dc="http://purl.org/dc/elements/1.1/"
   xmlns:cc="http://creativecommons.org/ns#"
   xmlns:rdf="http://www.w3.org/1999/02/22-rdf-syntax-ns#"
   xmlns:svg="http://www.w3.org/2000/svg"
   xmlns="http://www.w3.org/2000/svg"
   xmlns:sodipodi="http://sodipodi.sourceforge.net/DTD/sodipodi-0.dtd"
   xmlns:inkscape="http://www.inkscape.org/namespaces/inkscape"
   id="svg1901"
   sodipodi:docname="openclipart_30_a_cartoon_moon_rocket_variant_tmp.svg"
   viewBox="0 0 0 746.2683"
   sodipodi:version="0.32"
   version="1.0"
   inkscape:output_extension="org.inkscape.output.svg.inkscape"
   inkscape:version="0.91 r13725"
   width="746.26831"
   height="746.26831">
  <defs
     id="defs33" />
  <sodipodi:namedview
     id="base"
     bordercolor="#666666"
     inkscape:pageshadow="2"
     inkscape:window-y="-8"
     pagecolor="#ffffff"
     gridtolerance="10000"
     inkscape:window-height="660"
     inkscape:zoom="0.5"
     inkscape:window-x="1272"
     showgrid="false"
     borderopacity="1.0"
     inkscape:current-layer="g3243"
     inkscape:cx="752.17711"
     inkscape:cy="396.50143"
     showguides="true"
     inkscape:guide-bbox="true"
     inkscape:window-width="1280"
     inkscape:pageopacity="0.0"
     inkscape:document-units="px"
     fit-margin-top="0"
     fit-margin-left="0"
     fit-margin-right="0"
     fit-margin-bottom="0"
     inkscape:window-maximized="1" />
  <g
     id="layer1"
     inkscape:label="Taso 1"
     inkscape:groupmode="layer"
     transform="translate(579.3544,268.73829)">
    <g
       id="g3243"
       transform="translate(159.72544,0)">
      <path
         id="path3217"
         sodipodi:nodetypes="cccccc"
         style="fill:#ececec;fill-rule:evenodd;stroke:#000000;stroke-width:10"
         d="m -367.54,-263.72 c -30.79,24.5 -267.46,229.89 -88.19,623.22 l 178.6,0 0.65,0 c 179.27,-393.33 -57.39,-598.69 -88.19,-623.19 l -2.87,-0.03 z"
         inkscape:connector-curvature="0" />
      <path
         id="path3219"
         style="fill:#cccccc"
         d="m -360.12,-9.075 c -37.29,0 -67.62,30.363 -67.62,67.656 0,37.294 30.33,67.629 67.62,67.629 37.3,0 67.66,-30.335 67.66,-67.629 0,-37.293 -30.36,-67.656 -67.66,-67.656 z m 0,8 c 32.97,0 59.66,26.691 59.66,59.656 0,32.965 -26.69,59.629 -59.66,59.629 -32.96,0 -59.62,-26.664 -59.62,-59.629 0,-32.965 26.66,-59.656 59.62,-59.656 z"
         inkscape:connector-curvature="0" />
      <path
         id="path2419"
         sodipodi:nodetypes="cccccccc"
         style="fill:#ff0000;fill-rule:evenodd;stroke:#000000;stroke-width:1px"
         d="m -486.89,-102.24 43.43,-79.8 60.61,-68.69 17.17,-13.14 64.65,67.68 50.51,81.83 4.04,17.169 -241.42,-1.011"
         inkscape:connector-curvature="0" />
      <path
         id="path2408"
         sodipodi:nodetypes="css"
         style="fill:#ff0000;fill-rule:evenodd;stroke:#000000;stroke-width:10"
         d="m -511.14,201.81 c 0,0 -107.07,-1.33 -42.42,270.72 0,0 6.06,-227.16 62.63,-199.15"
         inkscape:connector-curvature="0" />
      <path
         id="path2410"
         sodipodi:nodetypes="css"
         style="fill:#ff0000;fill-rule:evenodd;stroke:#000000;stroke-width:10"
         d="m -220.76,201.81 c 0,0 107.08,-1.33 42.43,270.72 0,0 -6.06,-227.16 -62.63,-199.15"
         inkscape:connector-curvature="0" />
      <path
         id="path2423"
         style="fill:#b3b3b3;fill-rule:evenodd;stroke:#000000;stroke-width:1px"
         d="m -481.84,303.84 26.26,55.56 179.81,-1.01 21.21,-54.55 -227.28,0 z"
         inkscape:connector-curvature="0" />
      <path
         id="path3209"
         sodipodi:nodetypes="cccccccc"
         style="fill:#d20000;fill-rule:evenodd"
         d="m -195.97,229.09 -20.2,50.51 -12.12,-10.11 -14.15,6.06 19.2,-75.76 34.34,17.18 c 0,0 59.6,41.41 13.13,247.48 27.28,-213.14 -21.21,-235.36 -20.2,-235.36 z"
         inkscape:connector-curvature="0" />
      <path
         id="path3213"
         sodipodi:nodetypes="cscccc"
         style="fill:#d20000;fill-rule:evenodd"
         d="m -556.59,469.5 c 0,0 -10.06,-220.36 58.58,-221.22 7.58,-0.09 7.08,24.24 7.08,24.24 l -27.28,6.07 -21.21,66.67 -17.17,124.24 z"
         inkscape:connector-curvature="0" />
      <path
         id="path3232"
         style="fill:#999999;fill-rule:evenodd"
         d="m -320.44,303.84 c 4.06,12.21 6.45,29.25 5.28,53.54 0.87,0.3 1.78,0.73 2.72,1.21 l 36.66,-0.21 17.09,-43.94 c -0.69,-3.76 -1.48,-7.11 -2.25,-10.6 l -59.5,0 z"
         inkscape:connector-curvature="0" />
      <path
         id="path3227"
         style="fill:#cccccc;fill-rule:evenodd"
         d="m -346.47,197.2 c -6.82,-0.51 -11.12,0.56 -11.12,0.56 l -5.06,77.78 c 0,0 24.33,-4.8 35.81,28.31 l 59.62,0 c -19.36,-90.3 -59.66,-105.2 -79.25,-106.65 z"
         inkscape:connector-curvature="0" />
      <path
         id="path3241"
         style="fill:#cccccc;fill-rule:evenodd"
         d="m -479,308.36 20,50 28,2 -8,-57 -40,5 z"
         inkscape:connector-curvature="0" />
      <path
         id="path2382"
         sodipodi:nodetypes="cccccc"
         style="fill:none;stroke:#000000;stroke-width:10"
         d="m -367.54,-263.72 c -30.79,24.5 -267.46,229.89 -88.19,623.22 l 178.6,0 0.65,0 c 179.27,-393.33 -57.39,-598.69 -88.19,-623.19 l -2.87,-0.03 z"
         inkscape:connector-curvature="0" />
      <path
         id="path2394"
         style="fill:none;stroke:#000000;stroke-width:10"
         d="m -486.89,-100.22 237.38,0"
         inkscape:connector-curvature="0" />
      <circle
         id="path2400"
         style="fill:#b3b3b3;stroke:#000000;stroke-width:8;stroke-linecap:round"
         transform="translate(-69.118,-17.919)"
         cx="-296.98486"
         cy="70.493912"
         r="63.63961" />
      <circle
         id="path2402"
         style="fill:#ff00ff;stroke:#000000;stroke-width:12.29300022;stroke-linecap:round"
         transform="matrix(0.65079,0,0,0.65079,-172.83,6.6981)"
         cx="-296.98486"
         cy="70.493912"
         r="63.63961" />
      <path
         id="path2417"
         style="fill:none;stroke:#000000;stroke-width:10"
         d="m -478.81,304.85 224.25,0"
         inkscape:connector-curvature="0" />
      <path
         id="rect2414"
         style="fill:#ff0000;stroke:#000000;stroke-width:10;stroke-linecap:round"
         d="m -375.19,199.79 18.18,0 0,272.74 -18.18,0 0,-272.74 z"
         inkscape:connector-curvature="0" />
      <path
         id="path2425"
         sodipodi:nodetypes="cccc"
         style="fill:#cccccc;fill-rule:evenodd"
         d="m -264.66,291.72 c 0,0 80.81,-185.87 16.16,-364.67 3.03,317.19 -83.84,364.67 -83.84,364.67 l 67.68,0 z"
         inkscape:connector-curvature="0" />
      <rect
         id="rect2429"
         style="fill:#ffffff"
         transform="matrix(0.70389,0.7103,-0.70389,0.7103,0,0)"
         height="83.713997"
         width="34.470001"
         y="254.63"
         x="-240.61" />
      <circle
         id="path2431"
         style="fill:none;stroke:#000000;stroke-width:12.29300022;stroke-linecap:round"
         transform="matrix(0.65079,0,0,0.65079,-172.83,6.6981)"
         cx="-296.98486"
         cy="70.493912"
         r="63.63961" />
      <path
         id="path2437"
         sodipodi:nodetypes="cccc"
         style="fill:#d20000;fill-rule:evenodd"
         d="m -273.75,-115.37 c 0,0 -31.32,-81.83 -90.92,-125.26 54.55,105.05 26.27,125.26 26.27,125.26 l 64.65,0 z"
         inkscape:connector-curvature="0" />
      <path
         id="path3211"
         sodipodi:nodetypes="css"
         style="fill:none;stroke:#000000;stroke-width:10"
         d="m -220.76,201.81 c 0,0 107.08,-1.33 42.43,270.72 0,0 -6.06,-227.16 -62.63,-199.15"
         inkscape:connector-curvature="0" />
      <path
         id="path3215"
         sodipodi:nodetypes="css"
         style="fill:none;stroke:#000000;stroke-width:10"
         d="m -511.14,201.81 c 0,0 -107.07,-1.33 -42.42,270.72 0,0 6.06,-227.16 62.63,-199.15"
         inkscape:connector-curvature="0" />
      <path
         id="path3237"
         style="fill:#ffffff;fill-rule:evenodd"
         d="m -472.75,-118.4 c 0,0 53.54,-104.05 97.98,-131.32 44.45,-27.28 -96.97,133.34 -97.98,131.32 z"
         inkscape:connector-curvature="0" />
      <path
         id="path3239"
         sodipodi:nodetypes="ccss"
         style="fill:#ffffff;fill-rule:evenodd"
         d="m -504.29,158.08 c -3.16,-1.76 -22.72,-145.96 25.72,-235.72 29.87,-24.04 70.5,-11.395 68.57,-1.426 -16.73,86.35 -75.47,247.59 -94.29,237.15 z"
         inkscape:connector-curvature="0" />
    </g>
  </g>
  <metadata
     id="metadata31">
    <rdf:RDF>
      <cc:Work>
        <dc:format>image/svg+xml</dc:format>
        <dc:type
           rdf:resource="http://purl.org/dc/dcmitype/StillImage" />
        <cc:license
           rdf:resource="http://creativecommons.org/publicdomain/zero/1.0/" />
        <dc:publisher>
          <cc:Agent
             rdf:about="http://openclipart.org/">
            <dc:title>Openclipart</dc:title>
          </cc:Agent>
        </dc:publisher>
        <dc:title>A cartoon moon rocket</dc:title>
        <dc:date>2010-01-05T16:53:00</dc:date>
        <dc:description>A classic red and white rocket to the moon.</dc:description>
        <dc:source>https://openclipart.org/detail/28806/a-cartoon-moon-rocket-by-purzen</dc:source>
        <dc:creator>
          <cc:Agent>
            <dc:title>purzen</dc:title>
          </cc:Agent>
        </dc:creator>
        <dc:subject>
          <rdf:Bag>
            <rdf:li>cartoon</rdf:li>
            <rdf:li>colour</rdf:li>
            <rdf:li>icon</rdf:li>
            <rdf:li>outline</rdf:li>
            <rdf:li>rocket</rdf:li>
            <rdf:li>ship</rdf:li>
            <rdf:li>space</rdf:li>
            <rdf:li>symbol</rdf:li>
            <rdf:li>transportation</rdf:li>
          </rdf:Bag>
        </dc:subject>
      </cc:Work>
      <cc:License
         rdf:about="http://creativecommons.org/publicdomain/zero/1.0/">
        <cc:permits
           rdf:resource="http://creativecommons.org/ns#Reproduction" />
        <cc:permits
           rdf:resource="http://creativecommons.org/ns#Distribution" />
        <cc:permits
           rdf:resource="http://creativecommons.org/ns#DerivativeWorks" />
      </cc:License>
    </rdf:RDF>
  </metadata>
</svg>
