<?xml version="1.0" encoding="UTF-8" standalone="no"?>
<!-- Created with Inkscape (http://www.inkscape.org/) -->

<svg
   xmlns:dc="http://purl.org/dc/elements/1.1/"
   xmlns:cc="http://creativecommons.org/ns#"
   xmlns:rdf="http://www.w3.org/1999/02/22-rdf-syntax-ns#"
   xmlns:svg="http://www.w3.org/2000/svg"
   xmlns="http://www.w3.org/2000/svg"
   xmlns:sodipodi="http://sodipodi.sourceforge.net/DTD/sodipodi-0.dtd"
   xmlns:inkscape="http://www.inkscape.org/namespaces/inkscape"
   id="svg2"
   sodipodi:docname="openclipart_338_fire_icon_variant_tmp.svg"
   viewBox="0 0 356.63 356.63"
   sodipodi:version="0.32"
   version="1.1"
   inkscape:version="0.91 r13725"
   width="356.63"
   height="356.63">
  <defs
     id="defs17" />
  <sodipodi:namedview
     id="base"
     bordercolor="#666666"
     inkscape:pageshadow="2"
     inkscape:guide-bbox="true"
     pagecolor="#ffffff"
     inkscape:window-maximized="0"
     inkscape:window-width="1073"
     inkscape:zoom="0.43415836"
     inkscape:window-x="0"
     showgrid="false"
     borderopacity="1.0"
     inkscape:current-layer="g3345"
     inkscape:cx="15.541051"
     inkscape:cy="-26.684485"
     inkscape:window-y="56"
     inkscape:window-height="860"
     inkscape:pageopacity="0.0"
     showguides="true" />
  <g
     id="g3345"
     transform="translate(52.945239,-9.765625e-6)">
    <path
       d="M 32.65996,265.11061 C 6.4497,160.47673 56.44217,176.15113 68.43514,38.4436 c 48.1198,88.48778 21.33453,153.97864 45.80147,159.59851 -1.25934,23.81661 14.85055,27.4285 19.05835,51.2485 -0.2,18.85 23.63,41.7 17.11,59.3 -34.64,-27.75 -94.229,-9.66 -117.74,-43.48 z"
       style="fill:#e73900;fill-rule:evenodd"
       sodipodi:nodetypes="ccccccc"
       inkscape:connector-curvature="0"
       id="path2043-9" />
    <path
       d="M 115.57902,280.08211 C 42.340942,174.27136 129.15783,151.3718 192.81372,31.533681 173.17901,185.4797 148.3986,248.0779 191.3974,246.41155 c 14.88,19.21 17.60339,-18.63763 15.60339,5.18237 -0.2,18.85 -45.46921,46.30661 -51.98921,63.90661 -34.64001,-27.75 -14.76491,-2.75008 -38.27591,-36.57008"
       style="fill:#e73900;fill-rule:evenodd"
       sodipodi:nodetypes="cccccc"
       inkscape:connector-curvature="0"
       id="path2043-3" />
    <path
       d="M 27.508,312.91 C -40.484,208.53 41.613,199.21 20.672,56.3 c 51.361,67.42 65.691,150.12 87.261,174.57 14.88,19.21 22.21,42.4 20.21,66.22 -0.2,18.85 23.63,41.7 17.11,59.3 -34.64,-27.75 -94.229,-9.66 -117.74,-43.48 z"
       style="fill:#e73900;fill-rule:evenodd"
       sodipodi:nodetypes="cccccc"
       inkscape:connector-curvature="0"
       id="path2043" />
    <path
       d="M 130.33,343.39 C 130.72,323.4 106.53,314.73 96.8,299.12 80.69,287.19 75.59,268.63 75.23,250.35 73.92,221.12 99.98,46.81 137.94,0 c -14.55,71.88 21.57,167.64 43.88,199.32 15.1,24.61 20.78,52.95 15.34,80.84 -2.67,22.24 -21.1,35.61 -31.07,55.56 -9.97,12.02 -23.54,13.16 -35.76,7.67 z"
       style="fill:#e73900;fill-rule:evenodd"
       sodipodi:nodetypes="cccccccc"
       inkscape:connector-curvature="0"
       id="path2041" />
    <path
       d="m 47.570771,288.04403 c -20.71648,-82.70219 18.79737,-70.31321 28.27656,-179.15668 38.033699,69.94038 16.86273,121.70409 36.201299,126.14601 -0.99538,18.82456 11.73781,21.67938 15.06364,40.50661 -0.15808,14.89896 18.67706,32.95951 13.52367,46.87048 -27.37931,-21.93349 -74.478219,-7.63522 -93.061209,-34.36642 z"
       style="fill:#e78c00;fill-opacity:1;fill-rule:evenodd"
       sodipodi:nodetypes="ccccccc"
       inkscape:connector-curvature="0"
       id="path2043-9-2" />
    <path
       d="m 144.11,353.17 c 5.79,-17.36 -5.66,-44.89 -9.27,-61 -9.78,-14.5 -8.84,-32.02 -4.13,-48.08 6.94,-25.87 8.09,-147.98 120.03,-205.32 -86.82,85.18 -29.17,154.41 -19.77,187.75 5.49,25.33 2.68,51.73 -9.7,74.52 -17.09,31.45 -62.73,48.79 -77.16,52.13 z"
       style="fill:#e73900;fill-rule:evenodd"
       sodipodi:nodetypes="cccccsc"
       inkscape:connector-curvature="0"
       id="path2063" />
    <path
       d="m 125.67,342.99 c 0.29,-16.32 -18,-23.4 -25.36,-36.14 C 88.12,297.11 84.26,281.96 83.99,267.04 83,243.17 107.31,116.99 126.82,62.65 c -13.31,123.18 20.92,136.86 37.79,162.72 11.43,20.1 15.72,43.23 11.6,66 -2.02,18.16 -10.73,34.71 -18.27,51 -7.54,9.81 -23.03,5.1 -32.27,0.62 z"
       style="fill:#e78c00;fill-rule:evenodd"
       sodipodi:nodetypes="cccccccc"
       inkscape:connector-curvature="0"
       id="path1305" />
    <path
       d="m 55.516,319.61 c -69.841,-71.71 6.257,-76.7 -13.113,-175.18 23.003,46.42 42.08,81.29 50.45,114.25 12.4,11.63 55.23,82.68 52.66,95.56 -26.99,-15.37 -69.89,-13.99 -89.997,-34.63 z"
       style="fill:#e78c00;fill-rule:evenodd"
       sodipodi:nodetypes="ccccs"
       inkscape:connector-curvature="0"
       id="path2061" />
    <path
       d="M 69.463,315.29 C 27.685,275.63 58.885,252.34 58.511,202.81 c 11.552,43.35 48.082,54.03 47.612,80.08 6.03,7.79 37.63,63.34 34.99,70.48 -14.05,-11.25 -55.82,-23.05 -71.65,-38.08 z"
       style="fill:#e7e100;fill-rule:evenodd"
       sodipodi:nodetypes="ccccs"
       inkscape:connector-curvature="0"
       id="path2051" />
    <path
       d="m 136.61,309.94 c -7.34,-10.88 -6.63,-24.02 -3.09,-36.07 5.2,-19.41 28.07,-127.32 60.74,-150.79 -23.59,44.36 7.43,112.59 14.48,137.6 4.12,19.01 5.27,41.49 -7.28,55.92 -18.95,21.78 -42.88,34.47 -56.29,37.51 -8.52,5.98 -5.85,-32.08 -8.56,-44.17 z"
       style="fill:#e78c00;fill-rule:evenodd"
       sodipodi:nodetypes="ccccscc"
       inkscape:connector-curvature="0"
       id="path2045" />
    <path
       d="m 114.45926,286.28198 c -55.655231,-80.40792 10.31884,-97.8098 58.69236,-188.877431 -14.92085,116.986981 -33.75203,164.556721 -1.0763,163.290431 11.30765,14.5981 13.37721,-14.16315 11.85737,3.9382 -0.15199,14.32453 -34.55306,35.18941 -39.50775,48.56404 -26.32371,-21.08784 -11.22018,-2.08985 -29.08671,-27.79041"
       style="fill:#e78c00;fill-opacity:1;fill-rule:evenodd"
       sodipodi:nodetypes="cccccc"
       inkscape:connector-curvature="0"
       id="path2043-3-0" />
    <path
       d="m 66.963424,308.23848 c -14.028412,-56.00275 12.728852,-47.61341 19.147801,-121.31803 25.754955,47.36095 11.418787,82.41334 24.514125,85.42124 -0.67403,12.74727 7.9484,14.68044 10.20052,27.42952 -0.10704,10.08901 12.64739,22.31892 9.15771,31.73889 -18.54022,-14.85252 -50.433787,-5.17028 -63.017478,-23.27162 z"
       style="fill:#e7e100;fill-opacity:1;fill-rule:evenodd"
       sodipodi:nodetypes="ccccccc"
       inkscape:connector-curvature="0"
       id="path2043-9-2-3" />
    <path
       d="m 124.81,344.19 c 0.59,-9.99 -10.43,-14.78 -14.62,-22.77 -7.22,-6.26 -9.2,-15.64 -9,-24.78 -0.01,-14.64 -0.51,-105.88 18.03,-128.56 -8.2,35.66 22.69,88.81 32.38,105.07 6.49,12.59 8.54,26.86 5.45,40.69 -1.69,11.07 -7.44,20.99 -12.46,30.77 -4.87,5.82 -14.23,2.55 -19.78,-0.42 z"
       style="fill:#e7e100;fill-rule:evenodd"
       sodipodi:nodetypes="cccccccc"
       inkscape:connector-curvature="0"
       id="path1310" />
    <path
       d="m 124.12601,317.35292 c -14.10524,-40.70472 9.50558,-37.74393 20.94864,-136.19867 15.62741,80.07483 -3.41818,116.4395 16.10983,112.62261 9.29778,8.89154 7.75563,-11.13932 8.57646,1.48985 1.37356,9.88568 -20.17648,27.8123 -22.21014,37.53911 -20.314,-11.81351 0.19655,-0.33721 -14.76624,-16.20179"
       style="fill:#e7e100;fill-opacity:1;fill-rule:evenodd"
       sodipodi:nodetypes="cccccc"
       inkscape:connector-curvature="0"
       id="path2043-3-0-4" />
    <path
       d="m 133.63,345.46 c 4.75,-6.95 -1.14,-15.18 -0.7,-22.75 -2.5,-7.65 0.12,-15.27 4.23,-21.78 6.32,-10.57 17.44,-89.1 40.63,-97.45 -21.35,22.18 15.72,81.49 15.68,97.42 -0.76,11.89 -15.23,27.96 -23.44,36.61 -6.01,7.26 -17.91,14.23 -25.77,19.12 -6.03,-3.66 -7.91,-6.62 -10.63,-11.17 z"
       style="fill:#e7e100;fill-rule:evenodd"
       sodipodi:nodetypes="cccccccc"
       inkscape:connector-curvature="0"
       id="path2047" />
    <path
       d="m 125.63,337.51 c -14.76,-23.24 -9.28,-49.17 -3.01,-77.45 2.86,19.19 14.77,42.48 21.5,50.12 4.65,5.99 6.94,13.23 6.31,20.67 -0.06,5.89 -3.05,13.02 -5.08,18.51 -10.82,-8.66 -12.38,-1.29 -19.72,-11.85 z"
       style="fill:#ffff9e;fill-rule:evenodd"
       sodipodi:nodetypes="cccccc"
       inkscape:connector-curvature="0"
       id="path2049" />
    <path
       d="m 142.22,325.99 c 11.43,-25.05 0.11,-44.76 26.31,-64.41 -7.82,18.21 10.07,46.97 8.12,56.95 -3.27,16.77 -25.88,29.25 -31.6,30.54 1.37,-13.79 -7.68,-11.17 -2.83,-23.08 z"
       style="fill:#ffff9e;fill-rule:evenodd"
       sodipodi:nodetypes="ccscc"
       inkscape:connector-curvature="0"
       id="path2065" />
    <path
       d="M 60.603,244.02 C 122.05,321.73 120.69,282.5 145.06,349.05 28.91,297.34 81.043,302 60.603,244.02 Z"
       style="fill:#ffff9e;fill-rule:evenodd"
       sodipodi:nodetypes="ccc"
       inkscape:connector-curvature="0"
       id="path2067" />
    <path
       d="m 150.15711,323.85161 c -27.15689,-17.3002 -9.35426,-31.00404 -6.29765,-64.8197 10.40559,37.41209 10.76269,54.25417 20.51863,49.69853 5.2956,2.98722 2.25214,-6.00644 4.10163,-0.31839 1.78247,4.36713 -5.99518,15.09149 -5.79163,19.7834 -10.68167,-3.04006 -3.67229,0.79803 -12.37592,-4.72167"
       style="fill:#ffff9e;fill-opacity:1;fill-rule:evenodd"
       sodipodi:nodetypes="cccccc"
       inkscape:connector-curvature="0"
       id="path2043-3-6" />
    <path
       d="m 131.38156,319.94573 c -7.87363,-46.20212 -7.93219,-5.95604 -35.04981,-59.90757 -2.695703,42.89954 17.79912,65.44931 9.91102,71.33086 10.32849,13.28757 21.99991,-9.52113 25.13879,-11.42329 z"
       style="fill:#ffff9e;fill-opacity:1;fill-rule:evenodd"
       sodipodi:nodetypes="cccc"
       inkscape:connector-curvature="0"
       id="path2043-9-2-3-2" />
  </g>
  <metadata
     id="metadata16">
    <rdf:RDF>
      <cc:Work>
        <dc:format>image/svg+xml</dc:format>
        <dc:type
           rdf:resource="http://purl.org/dc/dcmitype/StillImage" />
        <cc:license
           rdf:resource="http://creativecommons.org/publicdomain/zero/1.0/" />
        <dc:publisher>
          <cc:Agent
             rdf:about="http://openclipart.org/">
            <dc:title>Openclipart</dc:title>
          </cc:Agent>
        </dc:publisher>
        <dc:title />
      </cc:Work>
      <cc:License
         rdf:about="http://creativecommons.org/publicdomain/zero/1.0/">
        <cc:permits
           rdf:resource="http://creativecommons.org/ns#Reproduction" />
        <cc:permits
           rdf:resource="http://creativecommons.org/ns#Distribution" />
        <cc:permits
           rdf:resource="http://creativecommons.org/ns#DerivativeWorks" />
      </cc:License>
    </rdf:RDF>
  </metadata>
</svg>
