<?xml version="1.0" encoding="UTF-8" standalone="no"?>
<!-- Created with Inkscape (http://www.inkscape.org/) -->

<svg
   xmlns:dc="http://purl.org/dc/elements/1.1/"
   xmlns:cc="http://creativecommons.org/ns#"
   xmlns:rdf="http://www.w3.org/1999/02/22-rdf-syntax-ns#"
   xmlns:svg="http://www.w3.org/2000/svg"
   xmlns="http://www.w3.org/2000/svg"
   xmlns:xlink="http://www.w3.org/1999/xlink"
   xmlns:sodipodi="http://sodipodi.sourceforge.net/DTD/sodipodi-0.dtd"
   xmlns:inkscape="http://www.inkscape.org/namespaces/inkscape"
   id="svg3360"
   sodipodi:docname="openclipart_45_blue_flower_motif_variant_tmp.svg"
   viewBox="0 0 676.65003 676.65"
   version="1.1"
   inkscape:version="0.91 r13725"
   width="676.65002"
   height="676.65002">
  <defs
     id="defs3362">
    <linearGradient
       inkscape:collect="always"
       id="linearGradient4214">
      <stop
         offset="0"
         style="stop-color:#ffff00"
         id="stop4216" />
      <stop
         offset="1"
         style="stop-color:#26d800;stop-opacity:1"
         id="stop4218" />
    </linearGradient>
    <linearGradient
       id="linearGradient4341"
       y2="950.35999"
       xlink:href="#linearGradient4089"
       gradientUnits="userSpaceOnUse"
       x2="187.66"
       y1="950.35999"
       x1="271.01999"
       inkscape:collect="always" />
    <linearGradient
       id="linearGradient4089"
       inkscape:collect="always">
      <stop
         id="stop4091"
         style="stop-color:#2a7fff"
         offset="0" />
      <stop
         id="stop4093"
         style="stop-color:#2a7fff;stop-opacity:0"
         offset="1" />
    </linearGradient>
    <radialGradient
       id="radialGradient4343"
       xlink:href="#linearGradient4214"
       gradientUnits="userSpaceOnUse"
       cy="944.27002"
       cx="1.3028e-012"
       gradientTransform="matrix(-4.0651e-6,1.6071,-1.8185,-4.0495e-6,1717.2,944.27)"
       r="21.337999"
       inkscape:collect="always" />
    <radialGradient
       id="radialGradient4381"
       gradientUnits="userSpaceOnUse"
       cy="1249.6"
       cx="122.14"
       gradientTransform="matrix(-3.2607e-4,-1.0909,0.9767,-2.9196e-4,-1098.3,1376)"
       r="15.812"
       inkscape:collect="always">
      <stop
         id="stop4240"
         style="stop-color:#26d800;stop-opacity:1"
         offset="0" />
      <stop
         id="stop4242"
         style="stop-color:#ffff00"
         offset="1" />
    </radialGradient>
    <linearGradient
       id="linearGradient4383"
       y2="878.45001"
       xlink:href="#linearGradient4206"
       gradientUnits="userSpaceOnUse"
       x2="116.22"
       y1="837.14001"
       x1="116.4"
       inkscape:collect="always" />
    <linearGradient
       id="linearGradient4206"
       inkscape:collect="always">
      <stop
         id="stop4208"
         style="stop-color:#2a7fff"
         offset="0" />
      <stop
         id="stop4210"
         style="stop-color:#d5e5ff;stop-opacity:0"
         offset="1" />
    </linearGradient>
    <linearGradient
       inkscape:collect="always"
       xlink:href="#linearGradient4089"
       id="linearGradient3439"
       gradientUnits="userSpaceOnUse"
       x1="271.01999"
       y1="950.35999"
       x2="187.66"
       y2="950.35999" />
    <radialGradient
       inkscape:collect="always"
       xlink:href="#linearGradient4214"
       id="radialGradient3441"
       gradientUnits="userSpaceOnUse"
       gradientTransform="matrix(-4.0651e-6,1.6071,-1.8185,-4.0495e-6,1717.2,944.27)"
       cx="1.3028e-012"
       cy="944.27002"
       r="21.337999" />
    <linearGradient
       inkscape:collect="always"
       xlink:href="#linearGradient4089"
       id="linearGradient3443"
       gradientUnits="userSpaceOnUse"
       x1="271.01999"
       y1="950.35999"
       x2="187.66"
       y2="950.35999" />
    <linearGradient
       inkscape:collect="always"
       xlink:href="#linearGradient4089"
       id="linearGradient3445"
       gradientUnits="userSpaceOnUse"
       x1="271.01999"
       y1="950.35999"
       x2="187.66"
       y2="950.35999" />
    <linearGradient
       inkscape:collect="always"
       xlink:href="#linearGradient4089"
       id="linearGradient3447"
       gradientUnits="userSpaceOnUse"
       x1="271.01999"
       y1="950.35999"
       x2="187.66"
       y2="950.35999" />
    <linearGradient
       inkscape:collect="always"
       xlink:href="#linearGradient4089"
       id="linearGradient3449"
       gradientUnits="userSpaceOnUse"
       x1="271.01999"
       y1="950.35999"
       x2="187.66"
       y2="950.35999" />
    <linearGradient
       inkscape:collect="always"
       xlink:href="#linearGradient4089"
       id="linearGradient3451"
       gradientUnits="userSpaceOnUse"
       x1="271.01999"
       y1="950.35999"
       x2="187.66"
       y2="950.35999" />
    <linearGradient
       inkscape:collect="always"
       xlink:href="#linearGradient4089"
       id="linearGradient3453"
       gradientUnits="userSpaceOnUse"
       x1="271.01999"
       y1="950.35999"
       x2="187.66"
       y2="950.35999" />
    <linearGradient
       inkscape:collect="always"
       xlink:href="#linearGradient4089"
       id="linearGradient3455"
       gradientUnits="userSpaceOnUse"
       x1="271.01999"
       y1="950.35999"
       x2="187.66"
       y2="950.35999" />
    <linearGradient
       inkscape:collect="always"
       xlink:href="#linearGradient4089"
       id="linearGradient3457"
       gradientUnits="userSpaceOnUse"
       x1="271.01999"
       y1="950.35999"
       x2="187.66"
       y2="950.35999" />
    <linearGradient
       inkscape:collect="always"
       xlink:href="#linearGradient4089"
       id="linearGradient3459"
       gradientUnits="userSpaceOnUse"
       x1="271.01999"
       y1="950.35999"
       x2="187.66"
       y2="950.35999" />
    <linearGradient
       inkscape:collect="always"
       xlink:href="#linearGradient4089"
       id="linearGradient3461"
       gradientUnits="userSpaceOnUse"
       x1="271.01999"
       y1="950.35999"
       x2="187.66"
       y2="950.35999" />
    <linearGradient
       inkscape:collect="always"
       xlink:href="#linearGradient4089"
       id="linearGradient3463"
       gradientUnits="userSpaceOnUse"
       x1="271.01999"
       y1="950.35999"
       x2="187.66"
       y2="950.35999" />
    <linearGradient
       inkscape:collect="always"
       xlink:href="#linearGradient4089"
       id="linearGradient3465"
       gradientUnits="userSpaceOnUse"
       x1="271.01999"
       y1="950.35999"
       x2="187.66"
       y2="950.35999" />
    <linearGradient
       inkscape:collect="always"
       xlink:href="#linearGradient4089"
       id="linearGradient3467"
       gradientUnits="userSpaceOnUse"
       x1="271.01999"
       y1="950.35999"
       x2="187.66"
       y2="950.35999" />
    <linearGradient
       inkscape:collect="always"
       xlink:href="#linearGradient4089"
       id="linearGradient3469"
       gradientUnits="userSpaceOnUse"
       x1="271.01999"
       y1="950.35999"
       x2="187.66"
       y2="950.35999" />
    <linearGradient
       inkscape:collect="always"
       xlink:href="#linearGradient4089"
       id="linearGradient3471"
       gradientUnits="userSpaceOnUse"
       x1="271.01999"
       y1="950.35999"
       x2="187.66"
       y2="950.35999" />
    <linearGradient
       inkscape:collect="always"
       xlink:href="#linearGradient4089"
       id="linearGradient3473"
       gradientUnits="userSpaceOnUse"
       x1="271.01999"
       y1="950.35999"
       x2="187.66"
       y2="950.35999" />
    <linearGradient
       inkscape:collect="always"
       xlink:href="#linearGradient4206"
       id="linearGradient3475"
       gradientUnits="userSpaceOnUse"
       x1="116.4"
       y1="837.14001"
       x2="116.22"
       y2="878.45001" />
    <linearGradient
       inkscape:collect="always"
       xlink:href="#linearGradient4206"
       id="linearGradient3477"
       gradientUnits="userSpaceOnUse"
       x1="116.4"
       y1="837.14001"
       x2="116.22"
       y2="878.45001" />
    <linearGradient
       inkscape:collect="always"
       xlink:href="#linearGradient4206"
       id="linearGradient3479"
       gradientUnits="userSpaceOnUse"
       x1="116.4"
       y1="837.14001"
       x2="116.22"
       y2="878.45001" />
    <linearGradient
       inkscape:collect="always"
       xlink:href="#linearGradient4206"
       id="linearGradient3481"
       gradientUnits="userSpaceOnUse"
       x1="116.4"
       y1="837.14001"
       x2="116.22"
       y2="878.45001" />
    <linearGradient
       inkscape:collect="always"
       xlink:href="#linearGradient4206"
       id="linearGradient3483"
       gradientUnits="userSpaceOnUse"
       x1="116.4"
       y1="837.14001"
       x2="116.22"
       y2="878.45001" />
    <linearGradient
       inkscape:collect="always"
       xlink:href="#linearGradient4206"
       id="linearGradient3485"
       gradientUnits="userSpaceOnUse"
       x1="116.4"
       y1="837.14001"
       x2="116.22"
       y2="878.45001" />
  </defs>
  <sodipodi:namedview
     id="base"
     bordercolor="#666666"
     inkscape:pageshadow="2"
     inkscape:window-y="-8"
     pagecolor="#ffffff"
     inkscape:window-height="660"
     inkscape:window-maximized="1"
     inkscape:zoom="0.69589845"
     inkscape:window-x="1272"
     showgrid="false"
     borderopacity="1.0"
     inkscape:current-layer="g4246"
     inkscape:cx="634.96037"
     inkscape:cy="422.51625"
     inkscape:window-width="1280"
     inkscape:pageopacity="0.0"
     inkscape:document-units="px" />
  <g
     id="layer1"
     inkscape:label="Layer 1"
     inkscape:groupmode="layer"
     transform="translate(-105.68,-130.58001)">
    <g
       id="g4298"
       transform="matrix(1.9609,0,0,1.9609,280.93706,-2107.3)">
      <path
         id="path4272"
         style="fill:#005500;fill-opacity:0.99607999"
         d="m 141.75,1190.6 c -37.364,15.375 -64.875,67.627 -64.875,129.75 0,74.204 39.245,134.38 87.656,134.38 11.108,0 21.752,-3.1606 31.531,-8.9374 -7.301,3.021 -14.982,4.625 -22.906,4.625 -48.411,0 -87.656,-60.171 -87.656,-134.38 0,-57.227 23.364,-106.07 56.25,-125.44 z"
         inkscape:connector-curvature="0" />
      <path
         id="path4277"
         style="fill:#005500;fill-opacity:0.99607999"
         d="m 41.026,1232.3 c -25.766,31.122 -25.514,90.173 3.6625,145.02 34.85,65.511 97.757,100.2 140.5,77.465 9.8065,-5.2168 17.719,-13.006 23.64,-22.699 -5.0269,6.096 -11.055,11.12 -18.051,14.841 -42.74,22.737 -105.65,-11.954 -140.5,-77.465 -26.877,-50.523 -29.19,-104.62 -9.2517,-137.16 z"
         inkscape:connector-curvature="0" />
      <g
         id="g4137"
         transform="translate(35.206,-6.8587)">
        <ellipse
           id="use4055"
           style="opacity:0.98999999;fill:url(#linearGradient3439)"
           inkscape:tile-x0="-18.679063"
           inkscape:transform-center-y="-46.232794"
           transform="matrix(0,-0.68085,0.68085,0,-647.06,1363.3)"
           inkscape:tile-y0="865.51923"
           cx="230.65613"
           cy="950.36407"
           rx="47.756996"
           ry="27.43487" />
        <circle
           id="path4053"
           style="opacity:0.98999999;fill:url(#radialGradient3441);fill-opacity:1.0"
           transform="translate(0,308.27)"
           cx="0"
           cy="944.2674"
           r="21.338232" />
        <ellipse
           id="path4097"
           style="opacity:0.98999999;fill:url(#linearGradient3443)"
           inkscape:tile-x0="-18.679063"
           inkscape:transform-center-x="29.717863"
           inkscape:transform-center-y="-35.416369"
           transform="matrix(-0.43764,-0.52156,0.52156,-0.43764,-424.45,1753.3)"
           inkscape:tile-y0="865.51923"
           cx="230.65613"
           cy="950.36407"
           rx="47.756996"
           ry="27.43487" />
        <ellipse
           id="path4101"
           inkscape:tile-x0="-18.679063"
           style="opacity:0.98999999;fill:url(#linearGradient3445)"
           inkscape:transform-center-x="45.530406"
           inkscape:transform-center-y="-8.0282168"
           transform="matrix(-0.67051,-0.11823,0.11823,-0.67051,-3.2339,1909)"
           inkscape:tile-y0="865.51923"
           cx="230.65613"
           cy="950.36407"
           rx="47.756996"
           ry="27.43487" />
        <ellipse
           id="path4105"
           style="opacity:0.98999999;fill:url(#linearGradient3447)"
           inkscape:tile-x0="-18.679063"
           inkscape:transform-center-x="40.03875"
           inkscape:transform-center-y="23.116437"
           transform="matrix(-0.58963,0.34043,-0.34043,-0.58963,419.49,1757.5)"
           inkscape:tile-y0="865.51923"
           cx="230.65613"
           cy="950.36407"
           rx="47.756996"
           ry="27.43487" />
        <ellipse
           id="path4109"
           inkscape:tile-x0="-18.679063"
           style="opacity:0.98999999;fill:url(#linearGradient3449)"
           inkscape:transform-center-x="15.812501"
           inkscape:transform-center-y="43.444606"
           transform="matrix(-0.23286,0.63979,-0.63979,-0.23286,645.93,1369.7)"
           inkscape:tile-y0="865.51923"
           cx="230.65613"
           cy="950.36407"
           rx="47.756996"
           ry="27.43487" />
        <ellipse
           id="path4113"
           style="opacity:0.98999999;fill:url(#linearGradient3451)"
           inkscape:tile-x0="-18.679063"
           inkscape:transform-center-x="-15.812576"
           inkscape:transform-center-y="43.444578"
           transform="matrix(0.23286,0.63979,-0.63979,0.23286,570.14,927.1)"
           inkscape:tile-y0="865.51923"
           cx="230.65613"
           cy="950.36407"
           rx="47.756996"
           ry="27.43487" />
        <ellipse
           id="path4117"
           inkscape:tile-x0="-18.679063"
           style="opacity:0.98999999;fill:url(#linearGradient3453)"
           inkscape:transform-center-x="-40.038768"
           inkscape:transform-center-y="23.116346"
           transform="matrix(0.58963,0.34043,-0.34043,0.58963,227.56,636.76)"
           inkscape:tile-y0="865.51923"
           cx="230.65613"
           cy="950.36407"
           rx="47.756996"
           ry="27.43487" />
        <ellipse
           id="path4121"
           style="opacity:0.98999999;fill:url(#linearGradient3455)"
           inkscape:tile-x0="-18.679063"
           inkscape:transform-center-x="-45.530382"
           inkscape:transform-center-y="-8.0282688"
           transform="matrix(0.67051,-0.11823,0.11823,0.67051,-221.49,634.55)"
           inkscape:tile-y0="865.51923"
           cx="230.65613"
           cy="950.36407"
           rx="47.756996"
           ry="27.43487" />
        <ellipse
           id="path4125"
           inkscape:tile-x0="-18.679063"
           style="opacity:0.98999999;fill:url(#linearGradient3457)"
           inkscape:transform-center-x="-29.717826"
           inkscape:transform-center-y="-35.416373"
           transform="matrix(0.43764,-0.52156,0.52156,0.43764,-566.9,921.5)"
           inkscape:tile-y0="865.51923"
           cx="230.65613"
           cy="950.36407"
           rx="47.756996"
           ry="27.43487" />
      </g>
      <path
         id="path4279"
         style="fill:#005500;fill-opacity:0.99607999"
         d="m 161.29,1288.3 c -23.134,9.5196 -40.168,41.872 -40.168,80.336 0,45.944 24.299,83.2 54.273,83.2 6.8775,0 13.468,-1.9569 19.523,-5.5337 -4.5205,1.8705 -9.2764,2.8636 -14.183,2.8636 -29.974,0 -54.273,-37.255 -54.273,-83.2 0,-35.433 14.466,-65.675 34.828,-77.666 z"
         inkscape:connector-curvature="0" />
      <g
         id="g4149"
         transform="matrix(0.4511,0,0,0.4511,149.45,723.05)">
        <ellipse
           id="path4151"
           style="opacity:0.98999999;fill:url(#linearGradient3459)"
           inkscape:tile-x0="-18.679063"
           inkscape:transform-center-y="-46.232794"
           transform="matrix(0,-0.68085,0.68085,0,-647.06,1363.3)"
           inkscape:tile-y0="865.51923"
           cx="230.65613"
           cy="950.36407"
           rx="47.756996"
           ry="27.43487" />
        <circle
           id="path4153"
           style="opacity:0.98999999;fill:url(#radialGradient4343);fill-opacity:1.0"
           transform="translate(0,308.27)"
           cx="0"
           cy="944.2674"
           r="21.338232" />
        <ellipse
           id="path4155"
           inkscape:tile-x0="-18.679063"
           style="opacity:0.98999999;fill:url(#linearGradient3461)"
           inkscape:transform-center-x="29.717863"
           inkscape:transform-center-y="-35.416369"
           transform="matrix(-0.43764,-0.52156,0.52156,-0.43764,-424.45,1753.3)"
           inkscape:tile-y0="865.51923"
           cx="230.65613"
           cy="950.36407"
           rx="47.756996"
           ry="27.43487" />
        <ellipse
           id="path4157"
           style="opacity:0.98999999;fill:url(#linearGradient3463)"
           inkscape:tile-x0="-18.679063"
           inkscape:transform-center-x="45.530406"
           inkscape:transform-center-y="-8.0282168"
           transform="matrix(-0.67051,-0.11823,0.11823,-0.67051,-3.2339,1909)"
           inkscape:tile-y0="865.51923"
           cx="230.65613"
           cy="950.36407"
           rx="47.756996"
           ry="27.43487" />
        <ellipse
           id="path4159"
           inkscape:tile-x0="-18.679063"
           style="opacity:0.98999999;fill:url(#linearGradient3465)"
           inkscape:transform-center-x="40.03875"
           inkscape:transform-center-y="23.116437"
           transform="matrix(-0.58963,0.34043,-0.34043,-0.58963,419.49,1757.5)"
           inkscape:tile-y0="865.51923"
           cx="230.65613"
           cy="950.36407"
           rx="47.756996"
           ry="27.43487" />
        <ellipse
           id="path4161"
           style="opacity:0.98999999;fill:url(#linearGradient3467)"
           inkscape:tile-x0="-18.679063"
           inkscape:transform-center-x="15.812501"
           inkscape:transform-center-y="43.444606"
           transform="matrix(-0.23286,0.63979,-0.63979,-0.23286,645.93,1369.7)"
           inkscape:tile-y0="865.51923"
           cx="230.65613"
           cy="950.36407"
           rx="47.756996"
           ry="27.43487" />
        <ellipse
           id="path4163"
           inkscape:tile-x0="-18.679063"
           style="opacity:0.98999999;fill:url(#linearGradient3469)"
           inkscape:transform-center-x="-15.812576"
           inkscape:transform-center-y="43.444578"
           transform="matrix(0.23286,0.63979,-0.63979,0.23286,570.14,927.1)"
           inkscape:tile-y0="865.51923"
           cx="230.65613"
           cy="950.36407"
           rx="47.756996"
           ry="27.43487" />
        <ellipse
           id="path4165"
           style="opacity:0.98999999;fill:url(#linearGradient3471)"
           inkscape:tile-x0="-18.679063"
           inkscape:transform-center-x="-40.038768"
           inkscape:transform-center-y="23.116346"
           transform="matrix(0.58963,0.34043,-0.34043,0.58963,227.56,636.76)"
           inkscape:tile-y0="865.51923"
           cx="230.65613"
           cy="950.36407"
           rx="47.756996"
           ry="27.43487" />
        <ellipse
           id="path4167"
           inkscape:tile-x0="-18.679063"
           style="opacity:0.98999999;fill:url(#linearGradient3473)"
           inkscape:transform-center-x="-45.530382"
           inkscape:transform-center-y="-8.0282688"
           transform="matrix(0.67051,-0.11823,0.11823,0.67051,-221.49,634.55)"
           inkscape:tile-y0="865.51923"
           cx="230.65613"
           cy="950.36407"
           rx="47.756996"
           ry="27.43487" />
        <ellipse
           id="path4169"
           style="opacity:0.98999999;fill:url(#linearGradient4341)"
           inkscape:tile-x0="-18.679063"
           inkscape:transform-center-x="-29.717826"
           inkscape:transform-center-y="-35.416373"
           transform="matrix(0.43764,-0.52156,0.52156,0.43764,-566.9,921.5)"
           inkscape:tile-y0="865.51923"
           cx="230.65613"
           cy="950.36407"
           rx="47.756996"
           ry="27.43487" />
      </g>
      <g
         id="g4246"
         transform="matrix(0.71204,0.70214,-0.70214,0.71204,918.47,226.73)">
        <path
           id="path4191"
           style="opacity:0.98999999;fill:url(#radialGradient4381)"
           d="m 106.76,1225.2 c -0.0424,0.4717 -0.0625,0.9547 -0.0625,1.4375 0,8.7299 7.0826,15.812 15.812,15.812 8.7299,0 15.812,-7.0826 15.812,-15.812 0,-0.4829 -0.0514,-0.9657 -0.0937,-1.4375 l -31.469,0 z"
           inkscape:connector-curvature="0" />
        <ellipse
           id="path4196"
           style="opacity:0.98999999;fill:url(#linearGradient3475)"
           inkscape:transform-center-y="-27.662083"
           transform="translate(5.748,349.94)"
           cx="116.21667"
           cy="856.35944"
           rx="6.6460848"
           ry="22.09374" />
        <ellipse
           id="path4214"
           style="opacity:0.98999999;fill:url(#linearGradient3477)"
           inkscape:transform-center-x="7.1594659"
           inkscape:transform-center-y="-26.719518"
           transform="matrix(0.96593,-0.25882,0.25882,0.96593,-219.09,410.14)"
           cx="116.21667"
           cy="856.35944"
           rx="6.6460848"
           ry="22.09374" />
        <ellipse
           id="path4218"
           style="opacity:0.98999999;fill:url(#linearGradient3479)"
           inkscape:transform-center-x="13.831029"
           inkscape:transform-center-y="-23.956063"
           transform="matrix(0.86603,-0.5,0.5,0.86603,-420.69,526.49)"
           cx="116.21667"
           cy="856.35944"
           rx="6.6460848"
           ry="22.09374" />
        <ellipse
           id="path4222"
           style="opacity:0.98999999;fill:url(#linearGradient3481)"
           inkscape:transform-center-x="19.560037"
           inkscape:transform-center-y="-19.560051"
           transform="matrix(0.70711,-0.70711,0.70711,0.70711,-585.31,691.04)"
           cx="116.21667"
           cy="856.35944"
           rx="6.6460848"
           ry="22.09374" />
        <ellipse
           id="path4226"
           style="opacity:0.98999999;fill:url(#linearGradient3483)"
           inkscape:transform-center-x="-7.1594727"
           inkscape:transform-center-y="-26.719513"
           transform="matrix(0.96593,0.25882,-0.25882,0.96593,238.51,349.98)"
           cx="116.21667"
           cy="856.35944"
           rx="6.6460848"
           ry="22.09374" />
        <ellipse
           id="path4230"
           style="opacity:0.98999999;fill:url(#linearGradient3485)"
           inkscape:transform-center-x="-13.831038"
           inkscape:transform-center-y="-23.956053"
           transform="matrix(0.86603,0.5,-0.5,0.86603,463.33,410.27)"
           cx="116.21667"
           cy="856.35944"
           rx="6.6460848"
           ry="22.09374" />
        <ellipse
           id="path4234"
           style="opacity:0.98999999;fill:url(#linearGradient4383)"
           inkscape:transform-center-x="-19.560039"
           inkscape:transform-center-y="-19.560042"
           transform="matrix(0.70711,0.70711,-0.70711,0.70711,664.88,526.69)"
           cx="116.21667"
           cy="856.35944"
           rx="6.6460848"
           ry="22.09374" />
      </g>
      <path
         id="path4281"
         style="fill:#005500;fill-opacity:0.99607999"
         d="m 160.94,1386.3 c -7.9074,6.6558 -12.938,16.636 -12.938,27.781 0,11.143 5.0321,21.125 12.938,27.781 7.9159,-6.6558 12.938,-16.63 12.938,-27.781 0,-11.153 -5.0198,-21.125 -12.938,-27.781 z"
         inkscape:connector-curvature="0" />
      <path
         id="path4286"
         style="fill:#005500;fill-opacity:0.99607999"
         d="m 168.35,1353.2 c -8.4363,-3.4937 -18.31,-3.3784 -27.05,1.1551 -8.7388,4.533 -14.52,12.54 -16.524,21.447 8.4398,3.5003 18.304,3.3813 27.05,-1.1553 8.7466,-4.5369 14.525,-12.53 16.524,-21.447 z"
         inkscape:connector-curvature="0" />
      <path
         id="path4288"
         style="fill:#005500;fill-opacity:0.99607999"
         d="m 93.321,1320.1 c 0.77188,7.0746 4.5486,13.78 10.921,18.055 6.3712,4.2751 14.009,5.2276 20.848,3.2611 -0.76859,-7.0795 -4.5446,-13.777 -10.921,-18.055 -6.3769,-4.2789 -14.005,-5.2346 -20.848,-3.2611 z"
         inkscape:connector-curvature="0" />
      <path
         id="path4290"
         style="fill:#005500;fill-opacity:0.99607999"
         d="m 139.33,1464.1 c -8.7022,-5.5766 -19.726,-7.419 -30.369,-4.1125 -10.641,3.3061 -18.681,11.073 -22.692,20.598 8.7047,5.5848 19.719,7.4211 30.369,4.1125 10.651,-3.3091 18.685,-11.062 22.692,-20.598 z"
         inkscape:connector-curvature="0" />
      <path
         id="path4292"
         style="fill:#005500;fill-opacity:0.99607999"
         d="m 46.619,1284.2 c 0.77188,7.0746 4.5486,13.78 10.921,18.055 6.3712,4.2751 14.009,5.2276 20.848,3.2611 -0.76859,-7.0795 -4.5446,-13.777 -10.921,-18.055 -6.3769,-4.2789 -14.005,-5.2346 -20.848,-3.2611 z"
         inkscape:connector-curvature="0" />
      <path
         id="path4294"
         style="fill:#005500;fill-opacity:0.99607999"
         d="m 87.144,1351 c -9.0487,1.2239 -17.524,6.2898 -22.798,14.604 -5.2728,8.3134 -6.2421,18.142 -3.4936,26.848 9.0551,-1.2199 17.521,-6.2846 22.798,-14.604 5.2776,-8.3207 6.2512,-18.136 3.4937,-26.848 z"
         inkscape:connector-curvature="0" />
      <path
         id="path4296"
         style="fill:#005500;fill-opacity:0.99607999"
         d="m 0,1350.3 c 3.2796,6.3159 9.2267,11.2 16.714,12.88 7.4864,1.6799 14.952,-0.1961 20.615,-4.5039 -3.2783,-6.3216 -9.222,-11.199 -16.714,-12.88 -7.493,-1.7 -14.95,0.2 -20.615,4.5 z"
         inkscape:connector-curvature="0" />
    </g>
  </g>
  <metadata
     id="metadata63">
    <rdf:RDF>
      <cc:Work>
        <dc:format>image/svg+xml</dc:format>
        <dc:type
           rdf:resource="http://purl.org/dc/dcmitype/StillImage" />
        <cc:license
           rdf:resource="http://creativecommons.org/publicdomain/zero/1.0/" />
        <dc:publisher>
          <cc:Agent
             rdf:about="http://openclipart.org/">
            <dc:title>Openclipart</dc:title>
          </cc:Agent>
        </dc:publisher>
        <dc:title>Blue Flower Motif</dc:title>
        <dc:date>2010-04-20T22:32:47</dc:date>
        <dc:description />
        <dc:source>https://openclipart.org/detail/49339/blue-flower-motif-by-sheikh_tuhin</dc:source>
        <dc:creator>
          <cc:Agent>
            <dc:title>sheikh_tuhin</dc:title>
          </cc:Agent>
        </dc:creator>
        <dc:subject>
          <rdf:Bag>
            <rdf:li>flower</rdf:li>
            <rdf:li>leaves</rdf:li>
            <rdf:li>nature</rdf:li>
          </rdf:Bag>
        </dc:subject>
      </cc:Work>
      <cc:License
         rdf:about="http://creativecommons.org/publicdomain/zero/1.0/">
        <cc:permits
           rdf:resource="http://creativecommons.org/ns#Reproduction" />
        <cc:permits
           rdf:resource="http://creativecommons.org/ns#Distribution" />
        <cc:permits
           rdf:resource="http://creativecommons.org/ns#DerivativeWorks" />
      </cc:License>
    </rdf:RDF>
  </metadata>
</svg>
