<?xml version="1.0" encoding="UTF-8" standalone="no"?>
<!-- Created with Inkscape (http://www.inkscape.org/) -->

<svg
   xmlns:dc="http://purl.org/dc/elements/1.1/"
   xmlns:cc="http://creativecommons.org/ns#"
   xmlns:rdf="http://www.w3.org/1999/02/22-rdf-syntax-ns#"
   xmlns:svg="http://www.w3.org/2000/svg"
   xmlns="http://www.w3.org/2000/svg"
   xmlns:xlink="http://www.w3.org/1999/xlink"
   xmlns:sodipodi="http://sodipodi.sourceforge.net/DTD/sodipodi-0.dtd"
   xmlns:inkscape="http://www.inkscape.org/namespaces/inkscape"
   id="svg2"
   sodipodi:docname="openclipart_142_photorealistic_green_apple.svg"
   sodipodi:modified="true"
   viewBox="0 0 400 400"
   sodipodi:version="0.32"
   version="1.0"
   inkscape:output_extension="org.inkscape.output.svg.inkscape"
   inkscape:version="0.91 r13725"
   width="400"
   height="400">
  <defs
     id="defs4">
    <pattern
       id="pattern30614"
       xlink:href="#pattern30609"
       patternTransform="matrix(.58999 0 0 .41356 1.7244 5.4391)"
       inkscape:collect="always" />
    <pattern
       id="pattern30609"
       xlink:href="#pattern26663"
       patternTransform="matrix(.58999 0 0 .41356 162.62 -160.56)"
       inkscape:collect="always" />
    <linearGradient
       id="linearGradient15314">
      <stop
         id="stop15316"
         style="stop-color:#1d3300"
         offset="0" />
      <stop
         id="stop15318"
         style="stop-color:#68a02c;stop-opacity:.23684"
         offset=".49645" />
      <stop
         id="stop15320"
         style="stop-color:#61a334;stop-opacity:0"
         offset="1" />
    </linearGradient>
    <filter
       id="filter7541"
       height="1.2376"
       width="1.1844"
       y="-0.11882"
       x="-0.092224002"
       inkscape:collect="always">
      <feGaussianBlur
         id="feGaussianBlur7543"
         stdDeviation="10.987584"
         inkscape:collect="always" />
    </filter>
    <filter
       id="filter13287"
       inkscape:collect="always">
      <feGaussianBlur
         id="feGaussianBlur13289"
         stdDeviation="5.8071908"
         inkscape:collect="always" />
    </filter>
    <clipPath
       id="clipPath14282"
       clipPathUnits="userSpaceOnUse">
      <path
         id="path14284"
         sodipodi:nodetypes="csssssc"
         style="color:#000000;fill:#6ea827"
         d="m 100.84,272.89 c -21.478,104.6 -64.957,118.7 -105.82,117 -7.886,-0.33 -7.533,1.23 -16.451,0.1 -7.776,-0.99 -21.326,-6.02 -29.172,-5.44 -46.975,3.48 -91.997,-58.48 -91.997,-117.48 0,-66.55 44.038,-110.23 113.14,-111.82 95.302,-2.18 130.3,51.1 130.3,117.64 z"
         inkscape:connector-curvature="0" />
    </clipPath>
    <clipPath
       id="clipPath14286"
       clipPathUnits="userSpaceOnUse">
      <path
         id="path14288"
         sodipodi:nodetypes="csssssc"
         style="color:#000000;fill:#6ea827"
         d="m 95.242,274.25 c -20.494,98.94 -61.977,112.27 -100.97,110.66 -7.518,-0.31 -7.181,1.16 -15.69,0.09 -7.418,-0.93 -20.347,-5.69 -27.832,-5.14 -44.818,3.29 -87.77,-55.32 -87.77,-111.12 0,-62.95 42.013,-104.26 107.94,-105.77 90.928,-2.07 124.32,48.33 124.32,111.28 z"
         inkscape:connector-curvature="0" />
    </clipPath>
    <clipPath
       id="clipPath14290"
       clipPathUnits="userSpaceOnUse">
      <path
         id="path14292"
         sodipodi:nodetypes="csssssc"
         style="color:#000000;fill:#6ea827"
         d="m 97.162,268.96 c -21.018,104.6 -63.56,118.69 -103.54,116.99 -7.718,-0.33 -7.373,1.23 -16.099,0.1 -7.608,-0.98 -20.867,-6.02 -28.544,-5.44 -45.962,3.49 -90.009,-58.48 -90.009,-117.48 0,-66.54 43.084,-110.22 110.69,-111.82 93.256,-2.18 127.5,51.1 127.5,117.65 z"
         inkscape:connector-curvature="0" />
    </clipPath>
    <clipPath
       id="clipPath14294"
       clipPathUnits="userSpaceOnUse">
      <path
         id="path14296"
         sodipodi:nodetypes="csssssc"
         style="color:#000000;fill:#6ea827"
         d="m 100.84,272.89 c -21.478,104.6 -64.957,118.7 -105.82,117 -7.886,-0.33 -7.533,1.23 -16.451,0.1 -7.776,-0.99 -21.326,-6.02 -29.172,-5.44 -46.975,3.48 -91.997,-58.48 -91.997,-117.48 0,-66.55 44.038,-110.23 113.14,-111.82 95.302,-2.18 130.3,51.1 130.3,117.64 z"
         inkscape:connector-curvature="0" />
    </clipPath>
    <linearGradient
       id="linearGradient14306"
       y2="272.92001"
       gradientUnits="userSpaceOnUse"
       x2="-28.858999"
       y1="174.78"
       x1="-24.924"
       inkscape:collect="always">
      <stop
         id="stop8742"
         style="stop-color:#7aa827"
         offset="0" />
      <stop
         id="stop8744"
         style="stop-color:#a3a827;stop-opacity:0"
         offset="1" />
    </linearGradient>
    <radialGradient
       id="radialGradient15285"
       gradientUnits="userSpaceOnUse"
       cy="283.91"
       cx="-44.641998"
       gradientTransform="matrix(0.18752,0.97812,-0.90903,0.17428,237.7,251.61)"
       r="121.72"
       inkscape:collect="always">
      <stop
         id="stop13293"
         style="stop-color:#b3ff4b"
         offset="0" />
      <stop
         id="stop15283"
         style="stop-color:#68a02c"
         offset=".73759" />
      <stop
         id="stop13295"
         style="stop-color:#3c6320"
         offset="1" />
    </radialGradient>
    <radialGradient
       id="radialGradient15312"
       xlink:href="#linearGradient15314"
       gradientUnits="userSpaceOnUse"
       cy="44.942001"
       cx="-81.082001"
       gradientTransform="matrix(-0.017898,-1.1769,2.3722,-0.03448,134.99,46.135)"
       r="44.556"
       inkscape:collect="always" />
    <filter
       id="filter18604"
       height="1.2674"
       width="1.0506999"
       y="-0.1337"
       x="-0.02534"
       inkscape:collect="always">
      <feGaussianBlur
         id="feGaussianBlur18606"
         stdDeviation="0.99192556"
         inkscape:collect="always" />
    </filter>
    <radialGradient
       id="radialGradient21659"
       gradientUnits="userSpaceOnUse"
       cy="148.67999"
       cx="204"
       gradientTransform="matrix(-1.3366,-0.10351,0.027053,-0.2176,472.64,188.56)"
       r="41.193001"
       inkscape:collect="always">
      <stop
         id="stop21655"
         style="stop-color:#ffffff"
         offset="0" />
      <stop
         id="stop21657"
         style="stop-color:#ffffff;stop-opacity:0"
         offset="1" />
    </radialGradient>
    <pattern
       id="pattern26663"
       width="55.732779"
       patternUnits="userSpaceOnUse"
       patternTransform="translate(163.81 -152.85)"
       height="46.659165">
      <path
         id="path26661"
         sodipodi:rx="2.8861411"
         sodipodi:ry="7.8338113"
         style="color:#000000;fill-rule:evenodd;fill:#d7eb90"
         sodipodi:type="arc"
         d="m-278.72-209.71a2.8861 7.8338 0 1 1 -5.77 0 2.8861 7.8338 0 1 1 5.77 0z"
         transform="matrix(.74092 0 0 .45974 262.24 100.97)"
         sodipodi:cy="-209.70604"
         sodipodi:cx="-281.60489" />
      <path
         id="path26657"
         sodipodi:rx="2.8861411"
         sodipodi:ry="7.8338113"
         style="color:#000000;fill-rule:evenodd;fill:#d7eb90"
         sodipodi:type="arc"
         d="m-278.72-209.71a2.8861 7.8338 0 1 1 -5.77 0 2.8861 7.8338 0 1 1 5.77 0z"
         transform="matrix(.74092 0 0 .45974 253.16 126.8)"
         sodipodi:cy="-209.70604"
         sodipodi:cx="-281.60489" />
      <path
         id="path26655"
         sodipodi:rx="2.8861411"
         sodipodi:ry="7.8338113"
         style="color:#000000;fill-rule:evenodd;fill:#d7eb90"
         sodipodi:type="arc"
         d="m-278.72-209.71a2.8861 7.8338 0 1 1 -5.77 0 2.8861 7.8338 0 1 1 5.77 0z"
         transform="matrix(.74092 0 0 .45974 241.64 111.22)"
         sodipodi:cy="-209.70604"
         sodipodi:cx="-281.60489" />
      <path
         id="path26649"
         sodipodi:rx="2.8861411"
         sodipodi:ry="7.8338113"
         style="color:#000000;fill-rule:evenodd;fill:#d7eb90"
         sodipodi:type="arc"
         d="m-278.72-209.71a2.8861 7.8338 0 1 1 -5.77 0 2.8861 7.8338 0 1 1 5.77 0z"
         transform="matrix(.74092 0 0 .45974 219.23 100.01)"
         sodipodi:cy="-209.70604"
         sodipodi:cx="-281.60489" />
      <path
         id="path26647"
         sodipodi:rx="2.8861411"
         sodipodi:ry="7.8338113"
         style="color:#000000;fill-rule:evenodd;fill:#d7eb90"
         sodipodi:type="arc"
         d="m-278.72-209.71a2.8861 7.8338 0 1 1 -5.77 0 2.8861 7.8338 0 1 1 5.77 0z"
         transform="matrix(.74092 0 0 .45974 236.44 139.47)"
         sodipodi:cy="-209.70604"
         sodipodi:cx="-281.60489" />
      <path
         id="path26645"
         sodipodi:rx="2.8861411"
         sodipodi:ry="7.8338113"
         style="color:#000000;fill-rule:evenodd;fill:#d7eb90"
         sodipodi:type="arc"
         d="m-278.72-209.71a2.8861 7.8338 0 1 1 -5.77 0 2.8861 7.8338 0 1 1 5.77 0z"
         transform="matrix(.74092 0 0 .45974 210.79 125.5)"
         sodipodi:cy="-209.70604"
         sodipodi:cx="-281.60489" />
      <path
         id="path26643"
         sodipodi:rx="2.8861411"
         sodipodi:ry="7.8338113"
         style="color:#000000;fill-rule:evenodd;fill:#d7eb90"
         sodipodi:type="arc"
         d="m-278.72-209.71a2.8861 7.8338 0 1 1 -5.77 0 2.8861 7.8338 0 1 1 5.77 0z"
         transform="matrix(.74092 0 0 .45974 210.79 125.5)"
         sodipodi:cy="-209.70604"
         sodipodi:cx="-281.60489" />
    </pattern>
    <clipPath
       id="clipPath29604"
       clipPathUnits="userSpaceOnUse">
      <path
         id="path29606"
         sodipodi:nodetypes="ccscssc"
         style="fill:#372a07;fill-rule:evenodd"
         d="m 214.7,131.12 6.08,0.24 c -2.53,1.72 4.83,-35.347 16.01,-42.737 4.84,-3.194 -1.2,-12.315 -3.82,-10.933 0,0 -6.47,4.671 -7.23,8.094 -0.76,3.423 -6.72,17.606 -8.13,27.846 -1.41,10.24 -2.56,14.89 -2.91,17.49 z"
         inkscape:connector-curvature="0" />
    </clipPath>
    <clipPath
       id="clipPath30603"
       clipPathUnits="userSpaceOnUse">
      <path
         id="path30605"
         sodipodi:nodetypes="cscc"
         style="fill:url(#radialGradient30607);fill-rule:evenodd"
         d="m 172.55,119.65 c 0,0 20.11,15.24 54.07,11.77 34.15,-3.52 40.79,-10.06 40.79,-10.06 28.52,-31.581 -136.2,-25.141 -94.86,-1.71 z"
         inkscape:connector-curvature="0" />
    </clipPath>
    <radialGradient
       id="radialGradient30607"
       xlink:href="#linearGradient15314"
       gradientUnits="userSpaceOnUse"
       cy="44.942001"
       cx="-81.082001"
       gradientTransform="matrix(-0.014603,-0.9602,1.9354,-0.028131,127.6,52.018)"
       r="44.556"
       inkscape:collect="always" />
    <pattern
       id="pattern30611"
       width="39.501228"
       patternUnits="userSpaceOnUse"
       patternTransform="translate(160.89 -166)"
       height="24.735281">
      <rect
         id="rect26672"
         style="fill:url(#pattern30614)"
         height="19.296"
         width="32.882"
         y="5.4391"
         x="1.7244" />
      <rect
         id="rect25640"
         style="fill:none"
         height="24.735"
         width="39.501"
         y="0"
         x="0" />
    </pattern>
    <filter
       id="filter35726"
       height="1.8775001"
       width="1.1251"
       y="-0.43877"
       x="-0.062532"
       inkscape:collect="always">
      <feGaussianBlur
         id="feGaussianBlur35728"
         stdDeviation="5.1544931"
         inkscape:collect="always" />
    </filter>
    <linearGradient
       id="linearGradient37702"
       y2="311.95001"
       gradientUnits="userSpaceOnUse"
       x2="-66.758003"
       y1="343.28"
       x1="-134.75999"
       inkscape:collect="always">
      <stop
         id="stop37698"
         style="stop-color:#f8f8f8"
         offset="0" />
      <stop
         id="stop37700"
         style="stop-color:#f8f8f8;stop-opacity:0"
         offset="1" />
    </linearGradient>
    <filter
       id="filter38751"
       height="2.1931"
       width="1.1482"
       y="-0.59654999"
       x="-0.074089997"
       inkscape:collect="always">
      <feGaussianBlur
         id="feGaussianBlur38753"
         stdDeviation="9.8808712"
         inkscape:collect="always" />
    </filter>
    <filter
       id="filter3417"
       inkscape:collect="always">
      <feGaussianBlur
         id="feGaussianBlur3419"
         stdDeviation="0.95731779"
         inkscape:collect="always" />
    </filter>
  </defs>
  <sodipodi:namedview
     id="base"
     bordercolor="#666666"
     inkscape:pageshadow="2"
     inkscape:window-y="56"
     pagecolor="#ffffff"
     inkscape:window-height="929"
     width="350px"
     inkscape:zoom="0.91"
     inkscape:window-x="640"
     height="400px"
     borderopacity="1.0"
     inkscape:current-layer="g3421"
     inkscape:cx="156.98062"
     inkscape:cy="161.49334"
     inkscape:window-width="624"
     showborder="false"
     inkscape:pageopacity="0.0"
     inkscape:document-units="px"
     showgrid="false"
     inkscape:window-maximized="0"
     showguides="true"
     inkscape:guide-bbox="true">
    <sodipodi:guide
       position="0.91624873,526.84302"
       orientation="1,0"
       id="guide3399" />
    <sodipodi:guide
       position="-79.713639,0"
       orientation="0,1"
       id="guide3401" />
    <sodipodi:guide
       position="399.48445,227.22968"
       orientation="1,0"
       id="guide3403" />
    <sodipodi:guide
       position="252.88465,399.48445"
       orientation="0,1"
       id="guide3405" />
  </sodipodi:namedview>
  <g
     id="layer1"
     inkscape:label="Ebene 1"
     inkscape:groupmode="layer"
     transform="translate(-72.384,-62.723)">
    <g
       id="g3421">
      <g
         id="g3407"
         transform="matrix(1.1574316,0,0,1.1543522,-15.15166,-26.547875)">
        <ellipse
           ry="16.563332"
           rx="133.36339"
           cy="322.43326"
           cx="278.43533"
           transform="matrix(1.0479,0,0,4.0755,-28.316,-978.34)"
           style="color:#000000;opacity:0.67691997;fill:#4d4d4d;fill-rule:evenodd;filter:url(#filter38751)"
           id="path32567" />
        <ellipse
           ry="11.747722"
           rx="82.429848"
           cy="314.99686"
           cx="221.83614"
           transform="matrix(1.2257,0,0,1.5525,-21.402,-116.74)"
           style="color:#000000;fill:#000000;fill-opacity:0.95339002;fill-rule:evenodd;filter:url(#filter35726)"
           id="path34711" />
        <path
           inkscape:connector-curvature="0"
           transform="matrix(1.2257,0,0,1.2257,269.61,-94.797)"
           sodipodi:nodetypes="csssssc"
           clip-path="url(#clipPath14294)"
           d="m 100.84,272.89 c -21.478,104.6 -64.957,118.7 -105.82,117 -7.886,-0.33 -7.533,1.23 -16.451,0.1 -7.776,-0.99 -21.326,-6.02 -29.172,-5.44 -46.975,3.48 -91.997,-58.48 -91.997,-117.48 0,-66.55 44.038,-110.23 113.14,-111.82 95.302,-2.18 130.3,51.1 130.3,117.64 z"
           style="color:#000000;fill:url(#radialGradient15285);stroke:url(#linearGradient37702);stroke-width:1.81678045;stroke-opacity:0.30085"
           id="path2416" />
        <path
           inkscape:connector-curvature="0"
           transform="matrix(1.2257,0,0,1.2257,269.61,-94.797)"
           sodipodi:nodetypes="csssssc"
           clip-path="url(#clipPath14294)"
           d="m 100.84,272.89 c -21.478,104.6 -64.957,118.7 -105.82,117 -7.886,-0.33 -7.533,1.23 -16.451,0.1 -7.776,-0.99 -21.326,-6.02 -29.172,-5.44 -46.975,3.48 -91.997,-58.48 -91.997,-117.48 0,-66.55 44.038,-110.23 113.14,-111.82 95.302,-2.18 130.3,51.1 130.3,117.64 z"
           style="color:#000000;opacity:0.09230801;fill:url(#pattern30611);stroke:url(#pattern26663);stroke-width:0.86513358px;filter:url(#filter3417)"
           id="path30619" />
        <path
           inkscape:connector-curvature="0"
           clip-path="url(#clipPath14290)"
           transform="matrix(1.2527,0,0,1.2257,271.5,-89.974)"
           style="color:#000000;opacity:0.47692003;fill:#241f1c;filter:url(#filter7541)"
           d="m 92.378,214.65 c 3.1,12.07 4.531,25.05 4.531,38.56 -21.481,104.61 -64.948,118.71 -105.81,117 -7.887,-0.33 -7.553,1.23 -16.471,0.1 -7.776,-0.99 -21.311,-6.02 -29.157,-5.44 -29.224,2.17 -57.691,-21.01 -75.031,-53.03 13.12,45.79 49.338,84.68 86.813,81.9 7.845,-0.58 21.412,4.46 29.187,5.44 8.9184,1.13 8.5532,-0.45 16.438,-0.12 40.864,1.7 84.363,-12.37 105.84,-116.97 0,-25.13 -5,-48.37 -16.342,-67.44 z"
           id="path6441" />
        <path
           inkscape:connector-curvature="0"
           clip-path="url(#clipPath14286)"
           transform="matrix(1.2847,0,0,1.2958,270.86,-115.69)"
           style="color:#000000;fill:url(#linearGradient14306);filter:url(#filter13287)"
           d="m -86.577,173.47 c -6.701,-0.91 -11.022,5.78 -15.743,10.5 -5.63,5.62 -12.1,9.77 -15.74,17.05 -3.48,6.96 -6.97,8.7 -10.49,15.74 -2.56,5.11 -1.32,13.59 -1.32,19.68 l 0,19.67 c 0,8.2 -0.67,12.45 3.94,17.06 6.87,6.87 5.25,-8.81 5.25,-14.43 0,-8.5 0.48,-12.29 5.24,-17.06 5.79,-5.78 14.35,-8.86 11.81,1.32 -1.89,7.57 -1.57,12.59 1.31,18.36 3.072,6.14 6.141,8.29 11.807,2.62 5.334,-5.33 -1.396,-10.57 6.559,-2.62 5.256,5.26 8.414,11.02 15.742,9.18 6.967,-1.74 5.096,-9.18 17.053,-9.18 8.965,0 8.049,3.94 15.741,3.94 11.333,0 10.82,0.65 14.43,7.87 3.952,7.9 7.301,8.61 11.806,13.11 5.6634,5.67 8.7081,2.76 11.806,10.5 1.8368,4.59 8.281,-6.07 10.494,-10.5 3.541,-7.08 11.39,-11.49 17.053,-15.74 3.635,-2.72 7.665,2.83 14.429,-3.93 6.523,-6.52 13.336,-1.1 17.054,2.62 1.96,1.96 16.559,0 19.676,0 5.103,0 6.559,-9.14 6.559,-14.43 0,-5.68 -2.994,-12.55 -5.247,-17.05 -2.815,-5.63 -3.962,-13.17 -6.559,-18.37 -2.846,-5.69 -5.591,-11.18 -7.871,-15.74 -3.377,-6.75 -8.218,-9.53 -11.806,-13.12 -3.752,-3.75 -5.893,-8.51 -9.182,-11.8 -5.401,-5.4 -7.408,-6.56 -15.741,-6.56 -6.267,0 -14.084,-0.24 -18.365,-1.31 -7.1684,-1.79 -9.5347,-2.15 -15.742,-5.25 -5.7279,-2.86 -5.6727,-5.25 -14.429,-5.25 l -19.677,0 -19.676,0 c -7.808,0 -10.69,5.45 -14.43,9.19 -3.346,3.34 -11.33,3.93 -15.741,3.93 z"
           id="path7549" />
        <path
           inkscape:connector-curvature="0"
           d="m 190.08,129.03 c 0,0 24.66,18.68 66.29,14.42 41.85,-4.31 49.98,-12.32 49.98,-12.32 34.96,-38.713 -166.93,-30.82 -116.27,-2.1 z"
           style="fill:url(#radialGradient15312);fill-rule:evenodd"
           sodipodi:nodetypes="cscc"
           id="path15302" />
        <path
           inkscape:connector-curvature="0"
           transform="matrix(1.439,0.16791,-0.13347,1.8103,-51.018,-113.18)"
           style="color:#000000;opacity:0.18461998;fill:#ffffff;fill-rule:evenodd;filter:url(#filter18604)"
           sodipodi:nodetypes="cccc"
           d="m 207.5,98.429 c 0,0 -30.55,10.951 -18.44,9.801 22.79,-7.79 52.04,-6.13 74.93,1.73 C 246.94,95.473 230.38,97.192 207.5,98.429 Z"
           id="path18608" />
        <path
           inkscape:connector-curvature="0"
           transform="matrix(1.7247,0,0,2.1853,-131.68,-142.84)"
           style="opacity:0.46538002;fill:url(#radialGradient21659);fill-rule:evenodd;filter:url(#filter18604)"
           d="m 186.03,121.66 c -6.7,-1.05 -15.38,6.99 -7.41,12.06 10.91,5.91 23.64,7.13 35.91,6.7 14.63,0.43 30.16,-1.11 42.63,-9.08 2.81,-6.06 -4.02,-2.73 -7.6,-1.53 -12.97,3.44 -26.76,3.78 -40.18,3.54 -7.02,-0.74 -15.23,-1.99 -21.1,-5.19 1.28,-2.36 0.96,-6.48 -2.25,-6.5 z"
           id="path16291" />
      </g>
    </g>
  </g>
  <metadata
     id="metadata93">
    <rdf:RDF>
      <cc:Work>
        <dc:format>image/svg+xml</dc:format>
        <dc:type
           rdf:resource="http://purl.org/dc/dcmitype/StillImage" />
        <cc:license
           rdf:resource="http://creativecommons.org/publicdomain/zero/1.0/" />
        <dc:publisher>
          <cc:Agent
             rdf:about="http://openclipart.org/">
            <dc:title>Openclipart</dc:title>
          </cc:Agent>
        </dc:publisher>
        <dc:title>Photorealistic Green Apple</dc:title>
        <dc:date>2007-07-31T12:47:15</dc:date>
        <dc:description>An green apple with much blur inside.
\nThe SVG don`t show it correct in Browser.</dc:description>
        <dc:source>https://openclipart.org/detail/4641/photorealistic-green-apple-by-chrisdesign</dc:source>
        <dc:creator>
          <cc:Agent>
            <dc:title>Chrisdesign</dc:title>
          </cc:Agent>
        </dc:creator>
        <dc:subject>
          <rdf:Bag>
            <rdf:li>apple</rdf:li>
            <rdf:li>food</rdf:li>
            <rdf:li>fruit</rdf:li>
            <rdf:li>green</rdf:li>
            <rdf:li>icon</rdf:li>
            <rdf:li>icons</rdf:li>
            <rdf:li>nature</rdf:li>
            <rdf:li>photorealistic</rdf:li>
          </rdf:Bag>
        </dc:subject>
      </cc:Work>
      <cc:License
         rdf:about="http://creativecommons.org/publicdomain/zero/1.0/">
        <cc:permits
           rdf:resource="http://creativecommons.org/ns#Reproduction" />
        <cc:permits
           rdf:resource="http://creativecommons.org/ns#Distribution" />
        <cc:permits
           rdf:resource="http://creativecommons.org/ns#DerivativeWorks" />
      </cc:License>
    </rdf:RDF>
  </metadata>
</svg>
