<?xml version="1.0" encoding="UTF-8" standalone="no"?>
<!-- Created with Inkscape (http://www.inkscape.org/) -->

<svg
   xmlns:dc="http://purl.org/dc/elements/1.1/"
   xmlns:cc="http://creativecommons.org/ns#"
   xmlns:rdf="http://www.w3.org/1999/02/22-rdf-syntax-ns#"
   xmlns:svg="http://www.w3.org/2000/svg"
   xmlns="http://www.w3.org/2000/svg"
   xmlns:xlink="http://www.w3.org/1999/xlink"
   xmlns:sodipodi="http://sodipodi.sourceforge.net/DTD/sodipodi-0.dtd"
   xmlns:inkscape="http://www.inkscape.org/namespaces/inkscape"
   id="svg2"
   sodipodi:docname="openclipart_264_treasure_chest.svg"
   inkscape:export-filename="/home/sarah/Desktop/updatedchest.png"
   viewBox="0 0 397.52 397.51999"
   sodipodi:version="0.32"
   inkscape:export-xdpi="90"
   version="1.1"
   inkscape:output_extension="org.inkscape.output.svg.inkscape"
   inkscape:export-ydpi="90"
   inkscape:version="0.91 r13725"
   width="397.51999"
   height="397.51999">
  <defs
     id="defs4">
    <linearGradient
       id="linearGradient3403">
      <stop
         id="stop3405"
         style="stop-color:#f0e70d"
         offset="0" />
      <stop
         id="stop3407"
         style="stop-color:#c6b026"
         offset="1" />
    </linearGradient>
    <linearGradient
       id="linearGradient3220">
      <stop
         id="stop3222"
         style="stop-color:#492200"
         offset="0" />
      <stop
         id="stop3240"
         style="stop-color:#1a0400"
         offset="1" />
    </linearGradient>
    <linearGradient
       id="linearGradient3200">
      <stop
         id="stop3202"
         style="stop-color:#ecf549"
         offset="0" />
      <stop
         id="stop3204"
         style="stop-color:#ba9312"
         offset="1" />
    </linearGradient>
    <linearGradient
       id="linearGradient3226"
       y2="379.79999"
       xlink:href="#linearGradient3220"
       gradientUnits="userSpaceOnUse"
       x2="372.94"
       y1="359.79999"
       x1="423.23999"
       inkscape:collect="always"
       gradientTransform="translate(0,-4.7194918)" />
    <linearGradient
       id="linearGradient3230"
       y2="522.03003"
       xlink:href="#linearGradient3220"
       gradientUnits="userSpaceOnUse"
       x2="247.49001"
       y1="549.31"
       x1="421.73999"
       inkscape:collect="always"
       gradientTransform="translate(0,-4.7194918)" />
    <linearGradient
       id="linearGradient3232"
       y2="512.44"
       xlink:href="#linearGradient3220"
       gradientUnits="userSpaceOnUse"
       x2="541.94"
       y1="545.77002"
       x1="383.35999"
       inkscape:collect="always"
       gradientTransform="translate(0,-4.7194918)" />
    <linearGradient
       id="linearGradient3234"
       y2="572.03003"
       xlink:href="#linearGradient3220"
       gradientUnits="userSpaceOnUse"
       x2="542.95001"
       gradientTransform="translate(0.5,-4.9694918)"
       y1="572.03003"
       x1="345.98001"
       inkscape:collect="always" />
    <linearGradient
       id="linearGradient3236"
       y2="588.70001"
       xlink:href="#linearGradient3220"
       gradientUnits="userSpaceOnUse"
       x2="357.07999"
       y1="588.70001"
       x1="253.05"
       inkscape:collect="always"
       gradientTransform="translate(0,-4.7194918)" />
    <radialGradient
       id="radialGradient3262"
       xlink:href="#linearGradient3220"
       gradientUnits="userSpaceOnUse"
       cy="385.04001"
       cx="571.78003"
       gradientTransform="matrix(-1.9319,-1.057,0.60433,-1.1045,1245,1468.6805)"
       r="116.17"
       inkscape:collect="always" />
    <radialGradient
       id="radialGradient3651"
       xlink:href="#linearGradient3220"
       gradientUnits="userSpaceOnUse"
       cy="355.72"
       cx="273.09"
       gradientTransform="matrix(-0.093154,-0.55328,0.922,-0.15523,-9.4403,534.83051)"
       r="108.33"
       inkscape:collect="always" />
    <radialGradient
       id="radialGradient3655"
       xlink:href="#linearGradient3220"
       gradientUnits="userSpaceOnUse"
       cy="365.67999"
       cx="279.42999"
       gradientTransform="matrix(0.95882,-0.17844,0.056766,0.30502,-9.371,290.52051)"
       r="103.03"
       inkscape:collect="always" />
    <radialGradient
       id="radialGradient3657"
       xlink:href="#linearGradient3220"
       gradientUnits="userSpaceOnUse"
       cy="381.67001"
       cx="259.85999"
       gradientTransform="matrix(1,-0.22823,0.074919,0.32825,-28.594,310.98051)"
       r="99.140999"
       inkscape:collect="always" />
    <radialGradient
       id="radialGradient3659"
       xlink:href="#linearGradient3220"
       gradientUnits="userSpaceOnUse"
       cy="419.54999"
       cx="247.49001"
       gradientTransform="matrix(0.96521,-0.22963,0.076836,0.32296,-23.626,327.63051)"
       r="101.62"
       inkscape:collect="always" />
    <radialGradient
       id="radialGradient3661"
       xlink:href="#linearGradient3220"
       gradientUnits="userSpaceOnUse"
       cy="428.34"
       cx="275.42001"
       gradientTransform="matrix(0.94674,-0.23301,0.075109,0.30517,-17.504,357.08051)"
       r="106.21"
       inkscape:collect="always" />
    <radialGradient
       id="radialGradient3663"
       xlink:href="#linearGradient3220"
       gradientUnits="userSpaceOnUse"
       cy="442.35001"
       cx="319.20001"
       gradientTransform="matrix(1,-0.22711,0.066877,0.29447,-29.876,376.46051)"
       r="105.86"
       inkscape:collect="always" />
    <radialGradient
       id="radialGradient3665"
       xlink:href="#linearGradient3220"
       gradientUnits="userSpaceOnUse"
       cy="460.87"
       cx="322.44"
       gradientTransform="matrix(0.98682,-0.24389,0.071497,0.28929,-28.7,401.47051)"
       r="107.27"
       inkscape:collect="always" />
    <linearGradient
       id="linearGradient3601"
       y2="372.10999"
       xlink:href="#linearGradient3220"
       gradientUnits="userSpaceOnUse"
       x2="432.5"
       y1="372.10999"
       x1="389.5"
       inkscape:collect="always"
       gradientTransform="translate(0,-4.7194918)" />
    <linearGradient
       id="linearGradient3611"
       y2="324.10999"
       xlink:href="#linearGradient3220"
       gradientUnits="userSpaceOnUse"
       x2="75"
       y1="309.10999"
       x1="306.5"
       inkscape:collect="always"
       gradientTransform="translate(0,-4.7194918)" />
    <linearGradient
       id="linearGradient3621"
       y2="412.35999"
       xlink:href="#linearGradient3220"
       gradientUnits="userSpaceOnUse"
       x2="253"
       y1="412.35999"
       x1="191"
       inkscape:collect="always"
       gradientTransform="translate(0,-4.7194918)" />
    <radialGradient
       id="radialGradient3662"
       xlink:href="#linearGradient3220"
       gradientUnits="userSpaceOnUse"
       cy="492.60999"
       cx="400.5"
       gradientTransform="matrix(1.2371,-1.1385,1.0949,1.1897,-632.81,357.78051)"
       r="153"
       inkscape:collect="always" />
    <linearGradient
       id="linearGradient3693"
       y2="459.26999"
       xlink:href="#linearGradient3200"
       gradientUnits="userSpaceOnUse"
       x2="167.88"
       gradientTransform="translate(98.288,68.819508)"
       y1="142.13"
       x1="32.528999"
       inkscape:collect="always" />
    <linearGradient
       id="linearGradient3753"
       y2="366.39999"
       xlink:href="#linearGradient3220"
       gradientUnits="userSpaceOnUse"
       x2="61.819"
       gradientTransform="translate(9.8995,-2.8284)"
       y1="315.62"
       x1="138.34"
       inkscape:collect="always" />
    <linearGradient
       id="linearGradient3755"
       y2="345.69"
       xlink:href="#linearGradient3220"
       gradientUnits="userSpaceOnUse"
       x2="71.797997"
       gradientTransform="translate(9.8995,-2.8284)"
       y1="324.39001"
       x1="133.98"
       inkscape:collect="always" />
    <linearGradient
       id="linearGradient3757"
       y2="344.98999"
       xlink:href="#linearGradient3220"
       gradientUnits="userSpaceOnUse"
       x2="65.064003"
       gradientTransform="translate(9.8995,-2.8284)"
       y1="330.82999"
       x1="138.53999"
       inkscape:collect="always" />
    <linearGradient
       id="linearGradient3815"
       y2="530.85999"
       xlink:href="#linearGradient3220"
       gradientUnits="userSpaceOnUse"
       x2="-29.5"
       gradientTransform="translate(269,72.280508)"
       y1="599.10999"
       x1="105.5"
       inkscape:collect="always" />
    <linearGradient
       id="linearGradient3817"
       y2="503.35999"
       xlink:href="#linearGradient3220"
       gradientUnits="userSpaceOnUse"
       x2="-56"
       gradientTransform="translate(269,72.280508)"
       y1="577.85999"
       x1="94"
       inkscape:collect="always" />
    <linearGradient
       id="linearGradient3819"
       y2="500.35999"
       xlink:href="#linearGradient3220"
       gradientUnits="userSpaceOnUse"
       x2="-26.5"
       gradientTransform="translate(269,72.280508)"
       y1="551.60999"
       x1="75.5"
       inkscape:collect="always" />
    <linearGradient
       id="linearGradient3821"
       y2="490.35999"
       xlink:href="#linearGradient3220"
       gradientUnits="userSpaceOnUse"
       x2="-27.5"
       gradientTransform="translate(269,72.280508)"
       y1="521.85999"
       x1="56"
       inkscape:collect="always" />
    <linearGradient
       id="linearGradient3823"
       y2="470.85999"
       xlink:href="#linearGradient3220"
       gradientUnits="userSpaceOnUse"
       x2="-28.5"
       gradientTransform="translate(269,72.280508)"
       y1="510.85999"
       x1="68"
       inkscape:collect="always" />
    <linearGradient
       id="linearGradient3825"
       y2="449.60999"
       xlink:href="#linearGradient3220"
       gradientUnits="userSpaceOnUse"
       x2="-31.5"
       gradientTransform="translate(269,72.280508)"
       y1="499.10999"
       x1="86.5"
       inkscape:collect="always" />
    <linearGradient
       id="linearGradient3827"
       y2="427.85999"
       xlink:href="#linearGradient3220"
       gradientUnits="userSpaceOnUse"
       x2="-32"
       gradientTransform="translate(269,72.280508)"
       y1="474.85999"
       x1="88.5"
       inkscape:collect="always" />
    <radialGradient
       id="radialGradient3837"
       xlink:href="#linearGradient3200"
       gradientUnits="userSpaceOnUse"
       cy="590.60999"
       cx="306.56"
       gradientTransform="matrix(0.82147,-0.57025,0.89071,1.2831,-471.33,2.9011082)"
       r="58.942001"
       inkscape:collect="always" />
    <radialGradient
       id="radialGradient3861"
       xlink:href="#linearGradient3200"
       gradientUnits="userSpaceOnUse"
       cy="604.84003"
       cx="1149.9"
       gradientTransform="matrix(-0.6028,-0.31301,0.3504,-0.67479,905.43,1354.8805)"
       r="99.996002"
       inkscape:collect="always" />
    <linearGradient
       id="linearGradient3947"
       y2="832.97998"
       xlink:href="#linearGradient3220"
       gradientUnits="userSpaceOnUse"
       x2="694"
       gradientTransform="translate(-118,-51)"
       y1="832.97998"
       x1="490.92001"
       inkscape:collect="always" />
    <linearGradient
       id="linearGradient3949"
       y2="773.62"
       xlink:href="#linearGradient3220"
       gradientUnits="userSpaceOnUse"
       x2="694.14001"
       gradientTransform="translate(-118,-51)"
       y1="773.62"
       x1="491.14001"
       inkscape:collect="always" />
    <linearGradient
       id="linearGradient3951"
       y2="736.21997"
       xlink:href="#linearGradient3220"
       gradientUnits="userSpaceOnUse"
       x2="711.35999"
       gradientTransform="translate(-118,-51)"
       y1="811.08002"
       x1="546.22998"
       inkscape:collect="always" />
    <linearGradient
       id="linearGradient3953"
       y2="753.14001"
       xlink:href="#linearGradient3220"
       gradientUnits="userSpaceOnUse"
       x2="710.31"
       gradientTransform="translate(-118,-51)"
       y1="821.15997"
       x1="571.04999"
       inkscape:collect="always" />
    <linearGradient
       id="linearGradient3955"
       y2="769.37"
       xlink:href="#linearGradient3220"
       gradientUnits="userSpaceOnUse"
       x2="713.45001"
       gradientTransform="translate(-118,-51)"
       y1="830.22998"
       x1="587.57001"
       inkscape:collect="always" />
    <linearGradient
       id="linearGradient3957"
       y2="786.70001"
       xlink:href="#linearGradient3220"
       gradientUnits="userSpaceOnUse"
       x2="705.71002"
       gradientTransform="translate(-118,-51)"
       y1="862.16998"
       x1="552.52002"
       inkscape:collect="always" />
    <linearGradient
       id="linearGradient3959"
       y2="798.27002"
       xlink:href="#linearGradient3220"
       gradientUnits="userSpaceOnUse"
       x2="709.52002"
       gradientTransform="translate(-118,-51)"
       y1="887.17999"
       x1="545.75"
       inkscape:collect="always" />
    <linearGradient
       id="linearGradient3961"
       y2="812.28003"
       xlink:href="#linearGradient3220"
       gradientUnits="userSpaceOnUse"
       x2="713.13"
       gradientTransform="translate(-118,-51)"
       y1="918.77002"
       x1="517.38"
       inkscape:collect="always" />
    <linearGradient
       id="linearGradient4107"
       y2="535.01001"
       xlink:href="#linearGradient3200"
       gradientUnits="userSpaceOnUse"
       x2="458.79001"
       gradientTransform="matrix(0.99914,0.041554,-0.041554,0.99914,22.409,-25.485)"
       y1="514.51001"
       x1="450.54999"
       inkscape:collect="always" />
    <linearGradient
       id="linearGradient4110"
       y2="385.56"
       xlink:href="#linearGradient3220"
       gradientUnits="userSpaceOnUse"
       x2="87.473999"
       gradientTransform="translate(101.82,69.526508)"
       y1="309.89999"
       x1="56.776001"
       inkscape:collect="always" />
    <linearGradient
       id="linearGradient4113"
       y2="424.10001"
       xlink:href="#linearGradient3220"
       gradientUnits="userSpaceOnUse"
       x2="117.88"
       gradientTransform="translate(101.82,69.526508)"
       y1="317.32001"
       x1="84.352997"
       inkscape:collect="always" />
    <linearGradient
       id="linearGradient4116"
       y2="436.47"
       xlink:href="#linearGradient3220"
       gradientUnits="userSpaceOnUse"
       x2="150.41"
       gradientTransform="translate(101.82,69.526508)"
       y1="263.94"
       x1="96.374001"
       inkscape:collect="always" />
  </defs>
  <sodipodi:namedview
     id="base"
     bordercolor="#666666"
     inkscape:pageshadow="2"
     guidetolerance="10"
     pagecolor="#ffffff"
     gridtolerance="10000"
     inkscape:window-height="660"
     inkscape:window-maximized="1"
     inkscape:zoom="0.50000001"
     objecttolerance="10"
     showgrid="false"
     borderopacity="1.0"
     inkscape:current-layer="layer1"
     inkscape:cx="416.54883"
     inkscape:cy="256.33199"
     inkscape:window-y="-8"
     inkscape:window-x="1272"
     inkscape:window-width="1280"
     inkscape:pageopacity="0.0"
     inkscape:document-units="px" />
  <g
     id="layer1"
     inkscape:label="Layer 1"
     inkscape:groupmode="layer"
     transform="translate(-156.48,-287.09001)">
    <path
       id="path2406"
       sodipodi:nodetypes="ccccc"
       style="fill:url(#radialGradient3262);fill-rule:evenodd;stroke:#130b00;stroke-width:2"
       d="m 192.23,331.45051 55.053,160.11 177.28,-47.477 c -18.73,-62.8 -23.01,-91.57 -37.37,-144.45 l -194.96,31.82 z"
       inkscape:connector-curvature="0" />
    <path
       id="path2408"
       sodipodi:nodetypes="cscc"
       style="fill:url(#linearGradient3226);fill-rule:evenodd;stroke:#130b00;stroke-width:2"
       d="m 386.38,301.14051 c 0,0 -33.335,26.769 -29.294,67.175 4.0406,40.406 65.155,73.236 65.155,73.236 l -35.86,-140.41 z"
       inkscape:connector-curvature="0" />
    <path
       id="path2798"
       style="fill:url(#radialGradient3651);fill-rule:evenodd;stroke:#130b00;stroke-width:1px"
       d="m 190.92,331.34051 194.45,-32.527 -16.971,20.506 -198.7,38.891 21.213,-26.87 z"
       inkscape:connector-curvature="0" />
    <path
       id="path2802"
       sodipodi:nodetypes="ccccc"
       style="fill:url(#radialGradient3655);fill-rule:evenodd;stroke:#130b00;stroke-width:1px"
       d="m 366.99,320.74051 -9.1495,23.67 -195.91,41.262 7.7782,-27.792 197.28,-37.141 z"
       inkscape:connector-curvature="0" />
    <path
       id="path2804"
       sodipodi:nodetypes="ccccc"
       style="fill:url(#radialGradient3657);fill-rule:evenodd;stroke:#130b00;stroke-width:1px"
       d="m 358.5,344.07051 -195.87,42.426 -1.4142,23.335 193.79,-40.176 3.4926,-25.585 z"
       inkscape:connector-curvature="0" />
    <path
       id="path2806"
       sodipodi:nodetypes="ccccc"
       style="fill:url(#radialGradient3659);fill-rule:evenodd;stroke:#130b00;stroke-width:1px"
       d="m 355.67,368.82051 8.4853,22.627 -194.45,43.841 -7.7782,-24.749 193.75,-41.719 z"
       inkscape:connector-curvature="0" />
    <path
       id="path2808"
       sodipodi:nodetypes="ccccc"
       style="fill:url(#radialGradient3661);fill-rule:evenodd;stroke:#130b00;stroke-width:1px"
       d="m 364.87,390.74051 16.263,18.385 -196.58,47.376 -14.849,-20.506 195.16,-45.255 z"
       inkscape:connector-curvature="0" />
    <path
       id="path2810"
       style="fill:url(#radialGradient3663);fill-rule:evenodd;stroke:#130b00;stroke-width:1px"
       d="m 379.01,410.54051 16.971,14.142 -192.33,48.79 -18.385,-17.678 193.75,-45.255 z"
       inkscape:connector-curvature="0" />
    <path
       id="path2812"
       style="fill:url(#radialGradient3665);fill-rule:evenodd;stroke:#130b00;stroke-width:1px"
       d="m 393.86,424.68051 25.456,15.556 -182.43,47.376 -31.113,-14.142 188.09,-48.79 z"
       inkscape:connector-curvature="0" />
    <path
       id="path2815"
       sodipodi:nodetypes="ccccc"
       style="fill:url(#linearGradient3601);fill-rule:evenodd;stroke:#130b00;stroke-width:1px"
       d="m 428.5,438.14051 -4,4 -37.5,-143.5 4.5,-6 37,145.5 z"
       inkscape:connector-curvature="0" />
    <path
       id="path3603"
       sodipodi:nodetypes="ccccc"
       style="fill:url(#linearGradient3611);fill-rule:evenodd;stroke:#130b00;stroke-width:1px"
       d="m 390.5,292.14051 -4,7 -196,31.5 1,-5.5 199,-33 z"
       inkscape:connector-curvature="0" />
    <path
       id="path3695"
       sodipodi:nodetypes="ccccc"
       style="fill:url(#linearGradient4116);fill-rule:evenodd;stroke:#130b00;stroke-width:1px"
       d="m 173.24,344.78051 48.437,140.71 24.395,6.364 -55.154,-165.46 -17.678,18.385 z"
       inkscape:connector-curvature="0" />
    <path
       id="path3697"
       sodipodi:nodetypes="ccccc"
       style="fill:url(#linearGradient4113);fill-rule:evenodd;stroke:#130b00;stroke-width:1px"
       d="m 173.24,345.49051 -7.0711,16.263 36.062,112.43 18.531,10.064 -47.523,-138.76 z"
       inkscape:connector-curvature="0" />
    <path
       id="path3699"
       sodipodi:nodetypes="ccccc"
       style="fill:url(#linearGradient4110);fill-rule:evenodd;stroke:#130b00;stroke-width:1px"
       d="m 166.17,361.75051 -7.0711,36.77 15.556,45.255 27.091,30.229 -35.576,-112.25 z"
       inkscape:connector-curvature="0" />
    <path
       id="path3685"
       sodipodi:nodetypes="csssscccssssssc"
       style="fill:url(#linearGradient3693);stroke:#5a5a00;stroke-linecap:round"
       d="m 166.99,435.28051 c -7.1056,-14.154 -9.9727,-25.795 -10.014,-40.659 -0.0508,-18.348 4.3643,-33.631 15.74,-50.638 4.8281,-7.218 17.92,-19.86 18.763,-19.003 0.57958,0.58957 55.222,165.92 55.222,167.05 0,0.95712 -8.0061,-1.6746 -14.584,-3.5294 -28.365,-7.5497 -48.943,-27.195 -65.128,-53.22 z m 60.281,39.618 c 0,-0.62367 -43.176,-125.73 -43.738,-126.74 -0.67891,-1.2131 -6.3333,10.474 -9.2682,19.157 -4.2563,12.592 -5.8998,18.356 -5.2883,30.132 0.68174,13.128 1.4863,16.441 5.9737,27.224 3.8223,9.1842 8.9482,15.019 18.352,24.424 8.6202,8.6212 15.1,13.994 25.423,21.08 6.7634,4.6425 8.5462,5.6273 8.5462,4.7208 z"
       inkscape:connector-curvature="0" />
    <g
       id="g3741"
       style="stroke:#130b00"
       transform="matrix(0.78987,0.063835,-0.063835,0.78987,324.75,95.330508)">
      <path
         id="path3743"
         sodipodi:nodetypes="ccccc"
         style="fill:url(#linearGradient3753);fill-rule:evenodd;stroke:#130b00;stroke-width:1px"
         d="m 85.56,267.47 48.083,145.66 23.114,11.217 -57.762,-170.32 -13.435,13.435 z"
         inkscape:connector-curvature="0" />
      <path
         id="path3745"
         sodipodi:nodetypes="ccccc"
         style="fill:url(#linearGradient3755);fill-rule:evenodd;stroke:#130b00;stroke-width:1px"
         d="m 84.146,267.47 -9.8995,21.92 36.301,111.46 23.096,12.99 -49.497,-146.37 z"
         inkscape:connector-curvature="0" />
      <path
         id="path3747"
         sodipodi:nodetypes="ccccc"
         style="fill:url(#linearGradient3757);fill-rule:evenodd;stroke:#130b00;stroke-width:1px"
         d="m 73.539,292.22 -6.364,33.941 15.556,45.255 27.686,29.464 -36.879,-108.66 z"
         inkscape:connector-curvature="0" />
    </g>
    <path
       id="path3613"
       sodipodi:nodetypes="ccccc"
       style="fill:url(#linearGradient3621);fill-rule:evenodd;stroke:#130b00;stroke-width:1px"
       d="m 191.5,325.14051 5,-1 56,165.5 -5.721,1.7652 -55.28,-166.27 z"
       inkscape:connector-curvature="0" />
    <path
       id="path2402"
       sodipodi:nodetypes="ccccc"
       style="fill:url(#linearGradient3232);fill-rule:evenodd;stroke:#130b00;stroke-width:2"
       d="m 423.25,442.56051 12.122,111.12 97.985,19.193 14.647,-113.64 -124.75,-16.668 z"
       inkscape:connector-curvature="0" />
    <path
       id="path2404"
       sodipodi:nodetypes="ccccc"
       style="fill:url(#linearGradient3230);fill-rule:evenodd;stroke:#130b00;stroke-width:2"
       d="m 247.93,490.75051 18.75,115.46 169.71,-53.54 -11.12,-109.6 -177.34,47.68 z"
       inkscape:connector-curvature="0" />
    <path
       id="path2400"
       sodipodi:nodetypes="ccccc"
       style="fill:url(#linearGradient3234);fill-rule:evenodd;stroke:#130b00;stroke-width:12"
       d="m 358.09,542.82051 12.37,126.4 170.93,-101.1 5.56,-103.56 -188.86,78.26 z"
       inkscape:connector-curvature="0" />
    <path
       id="path2398"
       sodipodi:nodetypes="ccccc"
       style="fill:url(#linearGradient3236);fill-rule:evenodd"
       d="m 253.95,501.64051 10.744,112.6 91.893,53.579 -11.112,-125.26 -91.526,-40.924 z"
       inkscape:connector-curvature="0" />
    <path
       id="path3679"
       sodipodi:nodetypes="cc"
       style="fill:none;stroke:#130b00;stroke-width:1px"
       d="m 352,532.14051 -0.5625,6.7812"
       inkscape:connector-curvature="0" />
    <path
       id="path3681"
       sodipodi:nodetypes="cc"
       style="fill:none;stroke:#130b00;stroke-width:1px"
       d="m 536,457.64051 15.5,-2"
       inkscape:connector-curvature="0" />
    <path
       id="path3795"
       style="fill:url(#linearGradient3827);fill-rule:evenodd;stroke:#130b00;stroke-width:1px"
       d="m 248,493.14051 3,23.5 102.5,47.5 -2,-26.5 -103.5,-44.5 z"
       inkscape:connector-curvature="0" />
    <path
       id="path3797"
       sodipodi:nodetypes="ccccc"
       style="fill:url(#linearGradient3825);fill-rule:evenodd;stroke:#130b00;stroke-width:1px"
       d="m 251.25,516.89051 0.75,18.75 103,45 -2,-17.5 -101.75,-46.25 z"
       inkscape:connector-curvature="0" />
    <path
       id="path3799"
       style="fill:url(#linearGradient3823);fill-rule:evenodd;stroke:#130b00;stroke-width:1px"
       d="m 252.5,536.64051 1.5,17.5 103.5,45.5 -2,-18 -103,-45 z"
       inkscape:connector-curvature="0" />
    <path
       id="path3801"
       style="fill:url(#linearGradient3821);fill-rule:evenodd;stroke:#130b00;stroke-width:1px"
       d="m 254,555.14051 1.5,17 104.5,48 -1.5,-20.5 -104.5,-44.5 z"
       inkscape:connector-curvature="0" />
    <path
       id="path3803"
       style="fill:url(#linearGradient3819);fill-rule:evenodd;stroke:#130b00;stroke-width:1px"
       d="m 255.5,573.14051 1.5,15 104,51.5 -1.5,-20.5 -104,-46 z"
       inkscape:connector-curvature="0" />
    <path
       id="path3805"
       sodipodi:nodetypes="ccccc"
       style="fill:url(#linearGradient3817);fill-rule:evenodd;stroke:#130b00;stroke-width:1px"
       d="m 256.75,588.39051 2.25,15.25 103.5,57.5 -1.5,-21.5 -104.25,-51.25 z"
       inkscape:connector-curvature="0" />
    <path
       id="path3807"
       style="fill:url(#linearGradient3815);fill-rule:evenodd;stroke:#130b00;stroke-width:1px"
       d="m 259,603.64051 1,13 105.5,61.5 -3,-16 -103.5,-58.5 z"
       inkscape:connector-curvature="0" />
    <path
       id="path3871"
       sodipodi:nodetypes="cc"
       style="fill:none;stroke:#130b00;stroke-width:1px"
       d="m 352.11,532.65051 -0.5625,6.7812"
       inkscape:connector-curvature="0" />
    <g
       id="g3937"
       transform="matrix(0.99539,0,0,0.99539,-19.815,-210.40949)">
      <path
         id="path3839"
         style="fill:url(#linearGradient3947);fill-rule:evenodd;stroke:#130b00;stroke-width:1px"
         d="m 373.42,753.68 202.07,-83.658 -5.8778,116.63 -181.95,107.28 -14.25,-140.25 z"
         inkscape:connector-curvature="0" />
      <path
         id="path3863"
         sodipodi:nodetypes="ccccc"
         style="fill:url(#linearGradient3949);fill-rule:evenodd;stroke:#130b00;stroke-width:1px"
         d="m 373.64,754.28 1.8536,21.182 199.23,-89.828 0.91422,-15.854 -202,84.5 z"
         inkscape:connector-curvature="0" />
      <path
         id="path3865"
         sodipodi:nodetypes="ccccc"
         style="fill:url(#linearGradient3951);fill-rule:evenodd;stroke:#130b00;stroke-width:1px"
         d="m 375.99,775.47 1.5607,16.768 195.32,-89.389 2.4142,-17.121 -199.29,89.743 z"
         inkscape:connector-curvature="0" />
      <path
         id="path3867"
         sodipodi:nodetypes="ccccc"
         style="fill:url(#linearGradient3953);fill-rule:evenodd;stroke:#130b00;stroke-width:1px"
         d="m 377.7,793.23 1.6464,19.328 193.38,-93.364 0.5,-16.561 -195.53,90.596 z"
         inkscape:connector-curvature="0" />
      <path
         id="path3907"
         sodipodi:nodetypes="ccccc"
         style="fill:url(#linearGradient3955);fill-rule:evenodd;stroke:#130b00;stroke-width:1px"
         d="m 380.16,812.92 1.4142,16.617 190.92,-92.985 0.35355,-17.678 -192.69,94.045 z"
         inkscape:connector-curvature="0" />
      <path
         id="path3909"
         style="fill:url(#linearGradient3957);fill-rule:evenodd;stroke:#130b00;stroke-width:1px"
         d="m 382.28,829.18 1.0607,19.799 188.44,-98.995 0.35355,-13.789 -189.86,92.985 z"
         inkscape:connector-curvature="0" />
      <path
         id="path3911"
         style="fill:url(#linearGradient3959);fill-rule:evenodd;stroke:#130b00;stroke-width:1px"
         d="m 384.05,849.69 1.0607,18.738 184.91,-100.41 1.4142,-17.324 -187.38,98.995 z"
         inkscape:connector-curvature="0" />
      <path
         id="path3913"
         style="fill:url(#linearGradient3961);fill-rule:evenodd;stroke:#130b00;stroke-width:1px"
         d="m 385.81,869.13 1.7678,24.395 182.43,-107.13 0,-18.738 -184.2,101.47 z"
         inkscape:connector-curvature="0" />
    </g>
    <path
       id="path3785"
       sodipodi:nodetypes="csssscccsssssscc"
       style="fill:url(#radialGradient3837);stroke:#5a5a00;stroke-linecap:round"
       d="m 311.06,648.25051 c -34.03,-20.2 -51.17,-30.76 -51.69,-31.85 -0.9,-1.87 -12.03,-122.62 -11.37,-123.28 0.35994,-0.35993 102.37,43.382 104.68,45.109 1.9638,1.47 13.001,139.14 12.453,140.43 -0.1254,0.2945 -26.072,-13.79 -54.074,-30.411 l 0,2e-5 z m 38.537,8.8136 c 0,-1.0474 -2.0892,-26.265 -4.6426,-56.038 -3.1025,-36.176 -3.9204,-54.575 -4.4801,-54.96 -1.327,-0.9125 -79.585,-34.093 -79.821,-33.857 -0.4277,0.42769 8.4086,99.743 8.8931,99.955 0.27536,0.12016 18.161,10.678 39.745,23.461 21.584,12.783 39.483,23.265 39.775,23.293 0.29168,0.0276 0.53033,-0.80685 0.53033,-1.8543 l 0,10e-6 z"
       inkscape:connector-curvature="0" />
    <path
       id="path3843"
       sodipodi:nodetypes="cssssccsssccc"
       style="fill:url(#radialGradient3861);stroke:#5a5a00;stroke-linecap:round"
       d="m 365.76,679.28051 c -0.50739,-6.5435 -13.997,-139.6 -13.403,-140.19 1.0546,-1.0546 200.68,-82.929 201.11,-82.491 0.4566,0.45641 -5.7274,115.12 -6.2287,115.56 -0.5832,0.51367 -173.53,102.41 -176.49,104.29 -2.8772,1.8287 -1.8916,1.1112 -4.9971,2.8338 z m 171.21,-112.23 c 0.6234,-0.57197 5.6557,-91.829 5.099,-92.464 -0.3529,-0.40257 -174.96,71.336 -177.07,72.749 -0.2322,0.15573 1.8361,24.91 4.5962,55.009 2.7603,30.099 5.0185,55.971 5.0185,57.492 4.0625,-1.825 63.223,-35.027 84.146,-46.497 26.039,-15.481 52.244,-30.687 78.211,-46.288 z"
       inkscape:connector-curvature="0" />
    <path
       id="path3643"
       sodipodi:nodetypes="ccccccccc"
       style="fill:url(#radialGradient3662);fill-rule:evenodd;stroke:#130b00;stroke-width:1px"
       d="m 247.9,492.59051 6.4103,-2.9318 99.193,43.1 184,-74.741 -112.5,-13.75 5.125,-5.75 122.75,17.25 -199.99,83.11 -104.99,-46.287 z"
       inkscape:connector-curvature="0" />
    <g
       id="g4101"
       transform="matrix(1.2471,0,0,1.2471,-109.03,-134.09949)">
      <path
         id="path4075"
         sodipodi:nodetypes="cccscc"
         style="fill:url(#linearGradient4107);fill-rule:evenodd;stroke:#5a5a00;stroke-width:1px"
         d="m 444.53,519.86 22.504,-9.326 0.13384,18.052 c 0,0 -1.0958,9.3317 -7.2406,12.438 -6.1448,3.1061 -11.555,-7.2039 -11.555,-7.2039 l -3.8426,-13.96 z"
         inkscape:connector-curvature="0" />
      <g
         id="g4097"
         transform="matrix(0.99267,0.12085,-0.12085,0.99267,67.668,-57.38)">
        <ellipse
           id="path4093"
           style="fill:#000000"
           transform="matrix(1.065,-0.21346,0.21346,1.065,-143.54,62.305)"
           cx="457.5423"
           cy="534.98102"
           rx="2.519068"
           ry="3.4913397" />
        <rect
           id="rect4095"
           style="fill:#000000"
           inkscape:transform-center-x="0.8035369"
           inkscape:transform-center-y="0.79720471"
           transform="matrix(0.94909065,-0.31500308,0.31500308,0.94909065,0,0)"
           height="6.9826999"
           width="2.2981"
           y="651.69"
           x="265.01001" />
      </g>
    </g>
  </g>
  <metadata
     id="metadata364">
    <rdf:RDF>
      <cc:Work>
        <dc:format>image/svg+xml</dc:format>
        <dc:type
           rdf:resource="http://purl.org/dc/dcmitype/StillImage" />
        <cc:license
           rdf:resource="http://creativecommons.org/publicdomain/zero/1.0/" />
        <dc:publisher>
          <cc:Agent
             rdf:about="http://openclipart.org/">
            <dc:title>Openclipart</dc:title>
          </cc:Agent>
        </dc:publisher>
        <dc:title>Treasure Chest</dc:title>
        <dc:date>2011-02-24T01:14:51</dc:date>
        <dc:description>A wooden chest full of gold pieces, suitable for a pirate.  Arr.</dc:description>
        <dc:source>https://openclipart.org/detail/122029/treasure-chest-by-dear_theophilus</dc:source>
        <dc:creator>
          <cc:Agent>
            <dc:title>dear_theophilus</dc:title>
          </cc:Agent>
        </dc:creator>
        <dc:subject>
          <rdf:Bag>
            <rdf:li>booty</rdf:li>
            <rdf:li>chest</rdf:li>
            <rdf:li>gold</rdf:li>
            <rdf:li>photorealistic</rdf:li>
            <rdf:li>pirate</rdf:li>
            <rdf:li>treasure</rdf:li>
          </rdf:Bag>
        </dc:subject>
      </cc:Work>
      <cc:License
         rdf:about="http://creativecommons.org/publicdomain/zero/1.0/">
        <cc:permits
           rdf:resource="http://creativecommons.org/ns#Reproduction" />
        <cc:permits
           rdf:resource="http://creativecommons.org/ns#Distribution" />
        <cc:permits
           rdf:resource="http://creativecommons.org/ns#DerivativeWorks" />
      </cc:License>
    </rdf:RDF>
  </metadata>
</svg>
