<?xml version="1.0" encoding="UTF-8" standalone="no"?>
<!-- Created with Inkscape (http://www.inkscape.org/) -->

<svg
   xmlns:dc="http://purl.org/dc/elements/1.1/"
   xmlns:cc="http://creativecommons.org/ns#"
   xmlns:rdf="http://www.w3.org/1999/02/22-rdf-syntax-ns#"
   xmlns:svg="http://www.w3.org/2000/svg"
   xmlns="http://www.w3.org/2000/svg"
   xmlns:sodipodi="http://sodipodi.sourceforge.net/DTD/sodipodi-0.dtd"
   xmlns:inkscape="http://www.inkscape.org/namespaces/inkscape"
   id="svg2"
   sodipodi:docname="openclipart_636_taco_variant_tmp.svg"
   viewBox="0 0 438.69196 438.69196"
   version="1.1"
   inkscape:version="0.91 r13725"
   width="438.69196"
   height="438.69196">
  <defs
     id="defs6">
    <linearGradient
       id="linearGradient4279"
       y2="545.53998"
       gradientUnits="userSpaceOnUse"
       x2="9.3491001"
       y1="43.296001"
       x1="106.51"
       inkscape:collect="always">
      <stop
         id="stop3029"
         style="stop-color:#e3b200"
         offset="0" />
      <stop
         id="stop3031"
         style="stop-color:#aa8800"
         offset="1" />
    </linearGradient>
    <linearGradient
       id="linearGradient4285"
       y2="479.07999"
       gradientUnits="userSpaceOnUse"
       x2="-168.67"
       y1="-40.048"
       x1="435.34"
       inkscape:collect="always">
      <stop
         id="stop3908"
         style="stop-color:#aa8800"
         offset="0" />
      <stop
         id="stop3910"
         style="stop-color:#eeb534;stop-opacity:0"
         offset="1" />
    </linearGradient>
    <linearGradient
       id="linearGradient4287"
       y2="285.07999"
       gradientUnits="userSpaceOnUse"
       x2="103.97"
       y1="30.417999"
       x1="272.67001"
       inkscape:collect="always">
      <stop
         id="stop3021"
         style="stop-color:#eeb534"
         offset="0" />
      <stop
         id="stop3023"
         style="stop-color:#eeb534;stop-opacity:0"
         offset="1" />
    </linearGradient>
  </defs>
  <sodipodi:namedview
     id="namedview4"
     bordercolor="#666666"
     inkscape:pageshadow="2"
     guidetolerance="10"
     pagecolor="#ffffff"
     gridtolerance="10"
     inkscape:window-maximized="1"
     inkscape:zoom="0.3998395"
     objecttolerance="10"
     borderopacity="1"
     inkscape:current-layer="g3402"
     inkscape:cx="277.4486"
     inkscape:cy="380.55385"
     inkscape:window-y="-8"
     inkscape:window-x="1272"
     inkscape:window-width="1280"
     showgrid="false"
     inkscape:pageopacity="0"
     inkscape:window-height="660"
     fit-margin-top="0"
     fit-margin-left="0"
     fit-margin-right="0"
     fit-margin-bottom="0" />
  <g
     id="g4224"
     transform="matrix(1.2075,0,0,1.2075,-9.3165177,46.006447)">
    <g
       id="g3402"
       transform="translate(0,-23.408064)">
      <path
         inkscape:connector-curvature="0"
         style="fill:#f1ca00"
         sodipodi:nodetypes="ssssccsssssssssssss"
         d="M 58.343,324.32 C 43.853,320.9061 30.747,304.025 21.145,276.408 16.0408,261.727 11.033,241.827 9.05,228.343 6.7607,212.778 7.5095,184.316 10.5874,169.908 c 6.4277,-30.089 20.492,-58.002 40.813,-81 36.872,-38.766 95.04,-59.688 130.33,-69.916 16.472,-7.0578 34.62,-6.6356 54.173,-6.6508 16.561,-0.01285 29.316,1.9412 43.704,6.6958 11.691,3.863 29.673,12.121 34.634,15.905 1.7778,1.356 3.5143,2.4654 3.859,2.4654 1.411,0 10.52,7.5829 18.35,15.275 13.472,13.235 22.988,29.272 28.87,48.653 2.1129,6.9618 2.6188,10.731 2.6939,20.071 0.0851,10.586 -0.1282,11.971 -2.6847,17.43 -3.7275,7.9594 -8.3152,13.347 -16.446,19.314 -7.4864,5.4938 -58.209,35.434 -125.78,74.241 -59.241,34.025 -86.535,50.491 -114.5,69.073 -28.961,19.245 -31.047,20.459 -38.46,22.389 -6.5991,1.7184 -6.4978,1.7144 -11.805,0.46395 z"
         id="path2998" />
      <path
         inkscape:radius="-4.9911098"
         inkscape:original="M 235.90625 12.34375 C 216.3541 12.358917 198.19037 11.942155 181.71875 19 C 146.42729 29.228018 88.27844 50.140329 51.40625 88.90625 C 31.0849 111.90472 17.02147 139.81738 10.59375 169.90625 C 7.51587 184.31414 6.77318 212.77924 9.0625 228.34375 C 11.04588 241.82819 16.05201 261.72493 21.15625 276.40625 C 30.75786 304.02339 43.85343 320.89862 58.34375 324.3125 C 63.65137 325.56296 63.55717 325.59339 70.15625 323.875 C 77.56952 321.9446 79.632835 320.71328 108.59375 301.46875 C 136.55865 282.88607 163.8525 266.43172 223.09375 232.40625 C 290.66166 193.59833 341.38861 163.65005 348.875 158.15625 C 357.00563 152.18969 361.61627 146.80316 365.34375 138.84375 C 367.90021 133.38484 368.11635 131.99245 368.03125 121.40625 C 367.95614 112.06583 367.42539 108.30557 365.3125 101.34375 C 359.43039 81.962565 349.90933 65.922623 336.4375 52.6875 C 328.60763 44.995203 319.50475 37.40625 318.09375 37.40625 C 317.74906 37.40625 316.02776 36.293461 314.25 34.9375 C 309.28882 31.153422 291.28426 22.894265 279.59375 19.03125 C 265.20529 14.276725 252.46743 12.3309 235.90625 12.34375 z "
         d="m 235.91016,17.333984 c -19.62548,0.01522 -37.04129,-0.252758 -52.22657,6.253907 a 4.991609,4.991609 0 0 1 -0.57617,0.205078 C 148.17495,33.916947 90.77434,54.806627 55.085938,92.283203 35.368508,114.62278 21.716757,141.72903 15.474609,170.94922 12.643037,184.20412 11.860787,213.07322 14,227.61719 c 1.910286,12.98749 6.893768,32.83411 11.871094,47.15039 9.346451,26.88322 22.046979,41.96159 33.617187,44.6875 5.338043,1.25763 2.813773,1.30753 9.410157,-0.41016 3.565475,-0.92844 5.069039,-1.38307 9.880859,-4.1914 4.811819,-2.80834 12.576915,-7.92184 27.052733,-17.54102 28.08056,-18.65953 55.50565,-35.19254 114.77539,-69.23438 33.7709,-19.39646 63.3335,-36.57841 85.3711,-49.58789 22.03759,-13.00947 37.0476,-22.2324 39.94336,-24.35742 7.70106,-5.65133 11.47848,-10.09517 14.90234,-17.40625 1.23202,-2.63078 1.6492,-3.67121 1.92187,-5.43945 0.27267,-1.76824 0.33719,-4.58247 0.29493,-9.83984 -0.0737,-9.16214 -0.46861,-11.94814 -2.50391,-18.6543 -5.66968,-18.681248 -14.72528,-33.898723 -27.59766,-46.544923 -3.8105,-3.743551 -7.97339,-7.500529 -11.27539,-10.251953 -1.651,-1.375712 -3.10026,-2.505867 -4.0957,-3.210938 -0.39211,-0.277733 -0.62419,-0.41736 -0.81445,-0.533203 0.20786,0.06917 0.47898,0.144531 1.33984,0.144531 -1.38585,0 -1.68348,-0.263447 -2.0293,-0.40039 -0.34582,-0.136943 -0.57442,-0.253594 -0.79687,-0.371094 -0.44491,-0.234999 -0.83486,-0.474587 -1.25977,-0.748047 -0.84981,-0.54692 -1.80214,-1.220922 -2.78515,-1.970703 -1.55792,-1.188279 -7.41952,-4.400297 -13.85938,-7.355469 -6.43985,-2.955172 -13.77206,-5.942722 -19.33594,-7.78125 -13.94041,-4.606473 -25.94894,-6.448092 -42.11718,-6.435547 z"
         sodipodi:type="inkscape:offset"
         style="fill:url(#linearGradient4279)"
         id="path3002" />
      <path
         inkscape:connector-curvature="0"
         style="fill:#f1ca00"
         sodipodi:nodetypes="caaaaaaaasssc"
         d="m 33.03,297.95 c 0,0 14.649,17.408 25.01,19.383 6.6087,1.2599 15.23,-0.33424 19.383,-5.6273 24.337,-31.018 -1.2618,-79.247 5.002,-118.17 6.0584,-37.649 10.138,-78.297 31.263,-110.04 20.884,-31.386 52.273,-59.794 88.411,-70.529 29.223,-8.6809 63.002,-3.2243 91.036,8.7535 24.297,10.381 45.709,29.563 60.024,51.772 8.0037,12.417 11.973,27.754 12.505,42.517 0.35308,9.8048 2.0541,23.541 -6.2525,28.762 -93.11,58.522 -180.57,106.93 -268.23,164.44 -10.151,6.6593 -27.236,16.634 -39.703,10.629 -8.1984,-3.9486 -18.445,-21.884 -18.445,-21.884 z"
         id="path3004" />
      <path
         inkscape:connector-curvature="0"
         style="fill:url(#linearGradient4285)"
         d="m 308.28,48.294 c -0.23009,-0.01262 -0.46583,0.0101 -0.71875,0.0625 -4.6845,0.0746 -5.8083,5.3571 -4.5938,8.9062 -0.6657,2.3469 -5.4994,3.9722 -2.0312,6.3125 0.80271,-0.25701 -0.0528,-4.8721 2.875,-4.0938 2.0804,0.34504 5.1413,4.9939 5.3438,0.59375 -0.21161,-2.9114 -6.0151,-0.23256 -5.7188,-4.125 -0.56778,-3.2214 3.8609,-7.1968 6.1562,-3.5938 1.2035,3.3204 2.9303,1.189 1.8125,-0.96875 -0.45916,-1.4338 -1.5144,-3.0054 -3.125,-3.0938 z m -97.625,2.9062 c -0.20243,0.01407 -0.40043,0.03594 -0.59375,0.0625 -4.361,0.35997 -5.4317,5.3274 -4.125,8.7188 -0.97798,2.1456 -5.6854,4.9061 -1.6562,6.5625 -1.2051,-2.9672 2.1222,-5.7482 4.375,-3.25 1.4283,2.7966 4.1819,1.4637 3.2812,-1.1562 -1.7336,-1.2032 -6.0545,-0.22552 -5.625,-3.7812 -0.26429,-3.7431 5.0179,-6.6736 6.7812,-2.375 2.5219,3.2643 1.4815,-4.1846 -0.6875,-4.4375 -0.514,-0.34042 -1.1427,-0.38597 -1.75,-0.34375 z m -67.188,10.625 c -0.20243,0.01407 -0.43168,0.03594 -0.625,0.0625 -4.361,0.35997 -5.4317,5.3274 -4.125,8.7188 -0.97798,2.1456 -5.6854,4.9061 -1.6562,6.5625 -1.2051,-2.9672 2.1222,-5.7482 4.375,-3.25 1.4283,2.7966 4.1819,1.4637 3.2812,-1.1562 -1.7336,-1.2032 -6.0545,-0.22552 -5.625,-3.7812 -0.26429,-3.7431 5.0179,-6.6736 6.7812,-2.375 2.5219,3.2643 1.4815,-4.1846 -0.6875,-4.4375 -0.514,-0.34042 -1.1114,-0.38597 -1.7188,-0.34375 z m 189.22,21.219 c -0.20243,0.01407 -0.40043,0.03594 -0.59375,0.0625 -4.361,0.35997 -5.4317,5.3274 -4.125,8.7188 -0.97798,2.1456 -5.6854,4.9061 -1.6562,6.5625 -1.2051,-2.9672 2.1222,-5.7482 4.375,-3.25 1.4283,2.7966 4.1819,1.4637 3.2812,-1.1562 -1.7336,-1.2032 -6.0545,-0.22552 -5.625,-3.7812 -0.26429,-3.7431 5.0179,-6.6736 6.7812,-2.375 2.5219,3.2643 1.4815,-4.1846 -0.6875,-4.4375 -0.514,-0.34042 -1.1427,-0.38597 -1.75,-0.34375 z m -91.094,4.4062 c -0.20243,0.01407 -0.40043,0.06719 -0.59375,0.09375 -4.361,0.35997 -5.4317,5.3274 -4.125,8.7188 -0.97798,2.1456 -5.6854,4.9061 -1.6562,6.5625 -1.2051,-2.9672 2.1222,-5.7482 4.375,-3.25 1.4283,2.7965 4.1819,1.4637 3.2812,-1.1562 -1.7336,-1.2032 -6.0545,-0.22552 -5.625,-3.7812 -0.26429,-3.7431 5.0179,-6.6736 6.7812,-2.375 2.5219,3.2643 1.4815,-4.1846 -0.6875,-4.4375 -0.514,-0.34042 -1.1427,-0.41722 -1.75,-0.375 z m 26.125,9.875 c -1.4552,0.02341 -3.0171,0.61099 -4.125,1.4062 -1.5308,1.0988 -2.2151,3.2539 -2.4375,5.125 -0.12484,1.0502 0.88165,2.0604 0.65625,3.0938 -0.40562,1.8596 -3.5083,2.6952 -3.375,4.5938 0.10333,1.4713 1.6621,3.5422 3.0938,3.1875 1.3906,-0.34456 -0.0744,-3.5084 1.2188,-4.125 1.8851,-0.89877 3.9181,3.3184 5.7812,2.375 1.3436,-0.68027 1.7916,-3.0405 1.0938,-4.375 -0.86562,-1.6552 -4.565,-0.26223 -5.25,-2 -0.63914,-1.6214 0.63031,-4.2629 2.3125,-4.7188 1.8807,-0.50963 3.227,4.3376 4.8438,3.25 2.0208,-1.3594 0.5348,-5.7275 -1.4375,-7.1562 -0.66267,-0.48006 -1.5019,-0.67029 -2.375,-0.65625 z m -67.156,15.562 c -5.8256,-0.005 -6.7534,8.4292 -3.125,11.219 0.49619,3.195 6.9095,2.681 3.875,-0.5625 -3.6843,0.0679 -7.1315,-3.5223 -3.9062,-6.6875 2.1963,-2.785 5.7882,0.14236 6.8438,1.6562 1.0766,-2.334 -1.0633,-5.8277 -3.6875,-5.625 z m -42.969,1.0938 c -0.20243,0.0141 -0.40043,0.0359 -0.59375,0.0625 -4.361,0.35997 -5.4317,5.3274 -4.125,8.7188 -0.97798,2.1456 -5.6854,4.9061 -1.6562,6.5625 -1.2051,-2.9672 2.1222,-5.7482 4.375,-3.25 1.4283,2.7966 4.1819,1.4637 3.2812,-1.1562 -1.7336,-1.2032 -6.0545,-0.22552 -5.625,-3.7812 -0.26429,-3.7431 5.0179,-6.6736 6.7812,-2.375 2.5219,3.2643 1.4815,-4.1846 -0.6875,-4.4375 -0.514,-0.34042 -1.1427,-0.38597 -1.75,-0.34375 z m 160.72,2.5938 c -1.4552,0.0234 -3.0171,0.64224 -4.125,1.4375 -1.5308,1.0988 -2.2151,3.2226 -2.4375,5.0938 -0.12484,1.0502 0.88165,2.0917 0.65625,3.125 -0.40562,1.8596 -3.5083,2.6952 -3.375,4.5938 0.10333,1.4714 1.6621,3.511 3.0938,3.1562 1.3906,-0.34456 -0.0744,-3.5084 1.2188,-4.125 1.8851,-0.89877 3.9181,3.3496 5.7812,2.4062 1.3436,-0.68027 1.7916,-3.0718 1.0938,-4.4062 -0.86562,-1.6552 -4.565,-0.26223 -5.25,-2 -0.63914,-1.6214 0.63032,-4.2317 2.3125,-4.6875 1.8807,-0.50963 3.227,4.3376 4.8438,3.25 2.0208,-1.3594 0.5348,-5.7275 -1.4375,-7.1562 -0.66267,-0.48006 -1.5019,-0.70155 -2.375,-0.6875 z m -124.06,6.7812 c -2.13,0.616 -1.954,6.0357 0.125,4.375 0.20853,-1.3398 -0.058,-3.4542 -0.125,-4.375 z m 68.25,10.438 c -1.4552,0.0234 -3.0171,0.61099 -4.125,1.4062 -1.5308,1.0988 -2.1838,3.2539 -2.4062,5.125 -0.12484,1.0502 0.8504,2.0604 0.625,3.0938 -0.40562,1.8596 -3.5083,2.6952 -3.375,4.5938 0.10333,1.4714 1.6621,3.5422 3.0938,3.1875 1.3906,-0.34456 -0.0744,-3.5084 1.2188,-4.125 1.8851,-0.89877 3.9181,3.3184 5.7812,2.375 1.3436,-0.68027 1.7916,-3.0405 1.0938,-4.375 -0.86562,-1.6552 -4.565,-0.26223 -5.25,-2 -0.63914,-1.6214 0.63031,-4.2629 2.3125,-4.7188 1.8807,-0.50962 3.2582,4.3376 4.875,3.25 2.0208,-1.3594 0.50355,-5.7275 -1.4688,-7.1562 -0.66267,-0.48006 -1.5019,-0.6703 -2.375,-0.65625 z m -147.34,5.8438 c -0.20243,0.0141 -0.40043,0.0359 -0.59375,0.0625 -4.361,0.35997 -5.4317,5.3274 -4.125,8.7188 -0.97798,2.1456 -5.6854,4.9061 -1.6562,6.5625 -1.2051,-2.9672 2.1222,-5.7482 4.375,-3.25 1.4283,2.7966 4.1819,1.4637 3.2812,-1.1562 -1.7336,-1.2032 -6.0545,-0.22552 -5.625,-3.7812 -0.26429,-3.7431 5.0179,-6.6736 6.7812,-2.375 2.5219,3.2643 1.4815,-4.1846 -0.6875,-4.4375 -0.514,-0.34042 -1.1427,-0.38597 -1.75,-0.34375 z m 226.38,0 c -0.20243,0.0141 -0.40043,0.0359 -0.59375,0.0625 -4.361,0.35997 -5.4317,5.3274 -4.125,8.7188 -0.97798,2.1456 -5.6854,4.9061 -1.6562,6.5625 -1.2051,-2.9672 2.1222,-5.7482 4.375,-3.25 1.4283,2.7966 4.1819,1.4637 3.2812,-1.1562 -1.7336,-1.2032 -6.0545,-0.22552 -5.625,-3.7812 -0.26429,-3.7431 5.0179,-6.6736 6.7812,-2.375 2.5219,3.2643 1.4815,-4.1846 -0.6875,-4.4375 -0.514,-0.34042 -1.1427,-0.38597 -1.75,-0.34375 z m -138.91,10.375 c -0.2095,-0.006 -0.41909,0.009 -0.625,0.0312 -4.5061,0.088 -5.9989,5.1874 -4.5312,8.75 -0.51595,2.4601 -5.5145,3.9122 -2.2188,6.4062 1.3675,0.41385 -0.28793,-4.224 2.3438,-4.0312 2.4833,-0.39803 5.8756,5.4167 5.9688,0.375 -0.74505,-2.4277 -6.8883,-0.37702 -5.6562,-4.8125 0.008,-3.6412 5.0759,-5.9598 6.7188,-1.9375 2.3958,3.3055 1.5724,-3.714 -0.28125,-4.1562 -0.46879,-0.43848 -1.0902,-0.60779 -1.7188,-0.625 z m 90.25,5.5312 c -0.20243,0.0141 -0.40043,0.0359 -0.59375,0.0625 -4.361,0.35997 -5.4317,5.3274 -4.125,8.7188 -0.97798,2.1456 -5.6854,4.9061 -1.6562,6.5625 -1.2051,-2.9672 2.1222,-5.7482 4.375,-3.25 1.4283,2.7966 4.1819,1.4637 3.2812,-1.1562 -1.7336,-1.2032 -6.0545,-0.22552 -5.625,-3.7812 -0.26429,-3.7431 5.0179,-6.6736 6.7812,-2.375 2.5219,3.2643 1.4815,-4.1846 -0.6875,-4.4375 -0.514,-0.34042 -1.1427,-0.38597 -1.75,-0.34375 z m -188.16,23.688 c -4.2813,2.1251 1.1684,4.3352 1.6875,6.8438 -1.5663,3.5392 0.15915,8.5044 4.5938,8.5625 0.97716,0.11825 1.9777,-0.13487 2.5938,-0.9375 1.584,-0.78806 2.2382,-6.9921 -0.0312,-3.8438 -1.4027,3.536 -6.0385,2.2744 -6.5625,-1.125 -1.4772,-3.6232 2.6186,-4.7652 5.25,-4.75 1.3102,-2.6024 -1.5843,-4.4757 -3.125,-1.4375 -2.3411,2.49 -5.5604,-0.3275 -4.4062,-3.3125 z m 105.56,2.4062 c -1.4552,0.0234 -3.0483,0.61099 -4.1562,1.4062 -1.5308,1.0988 -2.1838,3.2539 -2.4062,5.125 -0.12484,1.0502 0.88165,2.0604 0.65625,3.0938 -0.40562,1.8596 -3.5396,2.6952 -3.4062,4.5938 0.10333,1.4713 1.6621,3.511 3.0938,3.1562 1.3906,-0.34456 -0.0744,-3.5084 1.2188,-4.125 1.8851,-0.89877 3.9493,3.3496 5.8125,2.4062 1.3436,-0.68027 1.7604,-3.0405 1.0625,-4.375 -0.86561,-1.6552 -4.5338,-0.26223 -5.2188,-2 -0.63914,-1.6214 0.59907,-4.2629 2.2812,-4.7188 1.8807,-0.50963 3.2582,4.3376 4.875,3.25 2.0208,-1.3594 0.50355,-5.7275 -1.4688,-7.1562 -0.66267,-0.48006 -1.4707,-0.6703 -2.3438,-0.65625 z m -64.25,1.9375 c -0.87309,-0.014 -1.7123,0.20744 -2.375,0.6875 -1.9723,1.4288 -3.4583,5.7969 -1.4375,7.1562 1.6168,1.0876 2.963,-3.7596 4.8438,-3.25 1.6822,0.45582 2.9516,3.0661 2.3125,4.6875 -0.685,1.7378 -4.3844,0.34478 -5.25,2 -0.69788,1.3345 -0.2498,3.726 1.0938,4.4062 1.8632,0.94336 3.8962,-3.305 5.7812,-2.4062 1.2932,0.61655 -0.1718,3.7804 1.2188,4.125 1.4317,0.35475 2.9904,-1.6849 3.0938,-3.1562 0.13334,-1.8986 -2.9694,-2.7342 -3.375,-4.5938 -0.2254,-1.0333 0.78109,-2.0748 0.65625,-3.125 -0.22242,-1.8711 -0.90671,-3.995 -2.4375,-5.0938 -1.1079,-0.79526 -2.6698,-1.4141 -4.125,-1.4375 z m 124.62,3.3438 c -1.4552,0.0234 -3.0171,0.61099 -4.125,1.4062 -1.5308,1.0988 -2.2151,3.2539 -2.4375,5.125 -0.12484,1.0502 0.88165,2.0604 0.65625,3.0938 -0.40562,1.8596 -3.5083,2.6952 -3.375,4.5938 0.10333,1.4713 1.6621,3.511 3.0938,3.1562 1.3906,-0.34456 -0.0744,-3.5084 1.2188,-4.125 1.8851,-0.89877 3.9181,3.3496 5.7812,2.4062 1.3436,-0.68027 1.7916,-3.0405 1.0938,-4.375 -0.86562,-1.6552 -4.565,-0.26223 -5.25,-2 -0.63914,-1.6214 0.63031,-4.2629 2.3125,-4.7188 1.8807,-0.50962 3.227,4.3376 4.8438,3.25 2.0208,-1.3594 0.5348,-5.7275 -1.4375,-7.1562 -0.66267,-0.48006 -1.5019,-0.6703 -2.375,-0.65625 z m -60,28.75 c -0.20243,0.0141 -0.40043,0.0359 -0.59375,0.0625 -4.361,0.35997 -5.4317,5.3274 -4.125,8.7188 -0.97798,2.1456 -5.6854,4.9061 -1.6562,6.5625 -1.2051,-2.9672 2.1222,-5.7482 4.375,-3.25 1.4283,2.7966 4.1819,1.4637 3.2812,-1.1562 -1.7336,-1.2032 -6.0545,-0.22552 -5.625,-3.7812 -0.26429,-3.7431 5.0179,-6.6736 6.7812,-2.375 2.5219,3.2643 1.4815,-4.1846 -0.6875,-4.4375 -0.514,-0.34042 -1.1427,-0.38597 -1.75,-0.34375 z m -109.66,2.6562 c -0.20243,0.0141 -0.40043,0.0359 -0.59375,0.0625 -4.361,0.35997 -5.4317,5.3274 -4.125,8.7188 -0.97798,2.1456 -5.6854,4.9061 -1.6562,6.5625 -1.2051,-2.9672 2.1222,-5.7482 4.375,-3.25 1.4283,2.7966 4.1819,1.4637 3.2813,-1.1562 -1.7336,-1.2032 -6.0545,-0.22552 -5.625,-3.7812 -0.26429,-3.7431 5.0179,-6.6736 6.7813,-2.375 2.5219,3.2643 1.4815,-4.1846 -0.6875,-4.4375 -0.514,-0.34042 -1.1427,-0.38597 -1.75,-0.34375 z m 56.469,20.125 c -1.4552,0.0234 -3.0171,0.61099 -4.125,1.4062 -1.5308,1.0988 -2.2151,3.2539 -2.4375,5.125 -0.12484,1.0502 0.88165,2.0604 0.65625,3.0938 -0.40562,1.8595 -3.5083,2.6952 -3.375,4.5938 0.10333,1.4713 1.6621,3.5422 3.0938,3.1875 1.3906,-0.34456 -0.0744,-3.5084 1.2188,-4.125 1.8851,-0.89877 3.9181,3.3184 5.7812,2.375 1.3435,-0.68027 1.7916,-3.0405 1.0938,-4.375 -0.86561,-1.6552 -4.565,-0.26224 -5.25,-2 -0.63913,-1.6214 0.63032,-4.2317 2.3125,-4.6875 1.8807,-0.50963 3.227,4.3064 4.8438,3.2188 2.0208,-1.3594 0.5348,-5.7275 -1.4375,-7.1562 -0.66267,-0.48006 -1.5019,-0.6703 -2.375,-0.65625 z m -49.375,23.219 c -0.20243,0.0141 -0.40043,0.0359 -0.59375,0.0625 -4.361,0.35997 -5.4317,5.3274 -4.125,8.7188 -0.97798,2.1456 -5.6854,4.9061 -1.6562,6.5625 -1.2051,-2.9672 2.1222,-5.7482 4.375,-3.25 1.4283,2.7966 4.1819,1.4637 3.2812,-1.1562 -1.7336,-1.2032 -6.0545,-0.22552 -5.625,-3.7812 -0.26429,-3.7431 5.0179,-6.6736 6.7812,-2.375 2.5219,3.2643 1.4815,-4.1846 -0.6875,-4.4375 -0.514,-0.34042 -1.1427,-0.38597 -1.75,-0.34375 z"
         id="path3039" />
      <path
         inkscape:connector-curvature="0"
         style="fill:url(#linearGradient4287)"
         sodipodi:nodetypes="ssssccssssss"
         d="m 235.47,11.719 c -9.7077,0.18398 -19.274,1.5372 -28.406,4.25 -36.14,10.735 -67.52,39.145 -88.4,70.531 -21.128,31.75 -25.227,72.38 -31.285,110.03 -6.2638,38.925 19.337,87.169 -5,118.19 -4.9268,4.8674 -10.445,6.6787 -16.618,10.302 8.426,-1.42 24.998,-9.28 30.368,-12.8 87.665,-57.51 175.14,-105.95 268.26,-164.47 8.3066,-5.2209 6.6031,-18.945 6.25,-28.75 -0.53163,-14.763 -4.4963,-30.115 -12.5,-42.531 -14.315,-22.208 -35.734,-41.369 -60.031,-51.75 -19.273,-8.2347 -41.268,-13.405 -62.625,-13 z"
         id="path3006" />
    </g>
  </g>
  <metadata
     id="metadata74">
    <rdf:RDF>
      <cc:Work>
        <dc:format>image/svg+xml</dc:format>
        <dc:type
           rdf:resource="http://purl.org/dc/dcmitype/StillImage" />
        <cc:license
           rdf:resource="http://creativecommons.org/publicdomain/zero/1.0/" />
        <dc:publisher>
          <cc:Agent
             rdf:about="http://openclipart.org/">
            <dc:title>Openclipart</dc:title>
          </cc:Agent>
        </dc:publisher>
        <dc:title>Taco</dc:title>
        <dc:date>2011-07-22T20:29:10</dc:date>
        <dc:description />
        <dc:source>https://openclipart.org/detail/151201/taco-by-gnokii</dc:source>
        <dc:creator>
          <cc:Agent>
            <dc:title>gnokii</dc:title>
          </cc:Agent>
        </dc:creator>
        <dc:subject>
          <rdf:Bag>
            <rdf:li>fast food</rdf:li>
            <rdf:li>food</rdf:li>
            <rdf:li>mexican food</rdf:li>
            <rdf:li>taco</rdf:li>
          </rdf:Bag>
        </dc:subject>
      </cc:Work>
      <cc:License
         rdf:about="http://creativecommons.org/publicdomain/zero/1.0/">
        <cc:permits
           rdf:resource="http://creativecommons.org/ns#Reproduction" />
        <cc:permits
           rdf:resource="http://creativecommons.org/ns#Distribution" />
        <cc:permits
           rdf:resource="http://creativecommons.org/ns#DerivativeWorks" />
      </cc:License>
    </rdf:RDF>
  </metadata>
</svg>
