<?xml version="1.0" encoding="UTF-8" standalone="no"?>
<!-- Created with Inkscape (http://www.inkscape.org/) -->

<svg
   xmlns:dc="http://purl.org/dc/elements/1.1/"
   xmlns:cc="http://creativecommons.org/ns#"
   xmlns:rdf="http://www.w3.org/1999/02/22-rdf-syntax-ns#"
   xmlns:svg="http://www.w3.org/2000/svg"
   xmlns="http://www.w3.org/2000/svg"
   xmlns:xlink="http://www.w3.org/1999/xlink"
   xmlns:sodipodi="http://sodipodi.sourceforge.net/DTD/sodipodi-0.dtd"
   xmlns:inkscape="http://www.inkscape.org/namespaces/inkscape"
   id="svg8754"
   sodipodi:docname="openclipart_479_whirlpool_variant_tmp.svg"
   viewBox="0 0 323.94 323.94"
   sodipodi:version="0.32"
   version="1.0"
   inkscape:output_extension="org.inkscape.output.svg.inkscape"
   inkscape:version="0.91 r13725">
  <sodipodi:namedview
     id="base"
     bordercolor="#666666"
     inkscape:pageshadow="2"
     guidetolerance="10.0"
     pagecolor="#ffffff"
     gridtolerance="10.0"
     inkscape:zoom="0.45267767"
     objecttolerance="10.0"
     borderlayer="true"
     borderopacity="1.0"
     inkscape:current-layer="svg8754"
     inkscape:cx="10.895658"
     inkscape:cy="92.608868"
     inkscape:window-y="56"
     inkscape:window-x="640"
     inkscape:window-height="929"
     showgrid="false"
     inkscape:pageopacity="0.0"
     inkscape:window-width="624"
     inkscape:window-maximized="0" />
  <defs
     id="defs8756">
    <filter
       id="filter3666">
      <feBlend
         id="feBlend3668"
         in2="BackgroundImage"
         mode="multiply"
         inkscape:collect="always" />
    </filter>
    <radialGradient
       id="radialGradient2439"
       fx="2569.7"
       fy="310.06"
       gradientUnits="userSpaceOnUse"
       cy="267.44"
       cx="2564.4"
       gradientTransform="matrix(-.80125 -5.1266e-8 -1.499e-8 -1.0983 2184.9 565.59)"
       r="131.46"
       inkscape:collect="always">
      <stop
         id="stop3821"
         style="stop-color:rgb(13, 153, 255)"
         offset="0" />
      <stop
         id="stop3823"
         style="stop-color:rgb(0, 121, 193)"
         offset=".26614" />
      <stop
         id="stop3825"
         style="stop-color:rgb(255, 255, 255);stop-opacity:0"
         offset="1" />
    </radialGradient>
    <linearGradient
       id="linearGradient2441"
       y2="79.75"
       gradientUnits="userSpaceOnUse"
       x2="271.14"
       gradientTransform="matrix(.99976 -.13062 .13062 .99976 -24.722 27.509)"
       y1="33.837"
       x1="224.98"
       inkscape:collect="always">
      <stop
         id="stop3217"
         style="stop-color:rgb(255, 255, 255)"
         offset="0" />
      <stop
         id="stop3219"
         style="stop-color:rgb(255, 255, 255);stop-opacity:0"
         offset="1" />
    </linearGradient>
    <radialGradient
       inkscape:collect="always"
       xlink:href="#radialGradient2439"
       id="radialGradient3456"
       gradientUnits="userSpaceOnUse"
       gradientTransform="matrix(-0.80125,-5.1266e-8,-1.499e-8,-1.0983,2184.9,565.59)"
       cx="2564.4"
       cy="267.44"
       fx="2569.7"
       fy="310.06"
       r="131.46" />
    <linearGradient
       inkscape:collect="always"
       xlink:href="#linearGradient2441"
       id="linearGradient3458"
       gradientUnits="userSpaceOnUse"
       gradientTransform="matrix(0.99976,-0.13062,0.13062,0.99976,-24.722,27.509)"
       x1="224.98"
       y1="33.837"
       x2="271.14"
       y2="79.75" />
  </defs>
  <g
     id="g3390"
     transform="matrix(0.59445679,0.68398347,-0.68398347,0.59445679,176.47596,-45.096741)">
    <g
       transform="matrix(-0.36142,0.2223,0.2223,0.36142,407.30429,91.087)"
       id="g3949">
      <use
         x="0"
         y="0"
         width="405.05228"
         height="313.37378"
         transform="matrix(1.1492,0,0,1.1492,-86.539,21.668)"
         xlink:href="#swirl"
         id="use3951" />
    </g>
    <rect
       transform="scale(-1,1)"
       x="-387.29529"
       y="-22.233"
       width="450.64001"
       height="368.39999"
       style="fill:#ffffff"
       id="rect3612" />
    <g
       transform="matrix(-1,0,0,1,741.97629,320.59)"
       id="layer1">
      <g
         transform="matrix(0,-1.5963,1.5963,0,-27.975,31.335)"
         id="swirl">
        <path
           inkscape:connector-curvature="0"
           d="M 151.07,398.57 C 166.21,285.24 51.806,318.1 0.5,399.78 27.197,205.14 227.59,329.13 151.07,398.57 Z"
           style="fill:url(#radialGradient3456)"
           id="path2596" />
        <use
           x="0"
           y="0"
           width="396.78284"
           height="368.40176"
           transform="matrix(0.70711,0.70711,-0.70711,0.70711,304.16,27.406)"
           xlink:href="#path2596"
           id="use2602" />
        <use
           x="0"
           y="0"
           width="396.78284"
           height="368.40176"
           transform="matrix(0,1,-1,0,499.86,261.86)"
           xlink:href="#path2596"
           id="use2604" />
        <use
           x="0"
           y="0"
           width="396.78284"
           height="368.40176"
           transform="matrix(-0.70711,0.70711,-0.70711,-0.70711,472.46,566.03)"
           xlink:href="#path2596"
           id="use2606" />
        <use
           x="0"
           y="0"
           width="396.78284"
           height="368.40176"
           transform="matrix(-1,0,0,-1,238,761.72)"
           xlink:href="#path2596"
           id="use2608" />
        <use
           x="0"
           y="0"
           width="396.78284"
           height="368.40176"
           transform="matrix(-0.70711,-0.70711,0.70711,-0.70711,-66.164,734.32)"
           xlink:href="#path2596"
           id="use2610" />
        <use
           x="0"
           y="0"
           width="396.78284"
           height="368.40176"
           transform="matrix(0,-1,1,0,-261.86,499.86)"
           xlink:href="#path2596"
           id="use2612" />
        <use
           x="0"
           y="0"
           width="396.78284"
           height="368.40176"
           transform="matrix(0.70711,-0.70711,0.70711,0.70711,-234.46,195.7)"
           xlink:href="#path2596"
           id="use2614" />
      </g>
    </g>
    <g
       transform="matrix(-0.19145,-0.7145,-0.7145,0.19145,158.24629,607.13)"
       style="filter:url(#filter3666)"
       id="layer2">
      <use
         x="0"
         y="0"
         width="405.05228"
         height="313.37378"
         transform="matrix(1.1492,0,0,1.1492,-86.539,21.668)"
         xlink:href="#swirl"
         id="use3663" />
    </g>
    <g
       transform="matrix(-0.42221,0.25969,0.25969,0.42221,448.56629,79.164)"
       style="filter:url(#filter3666)"
       id="g3410">
      <use
         x="0"
         y="0"
         width="405.05228"
         height="313.37378"
         transform="matrix(1.1492,0,0,1.1492,-86.539,21.668)"
         xlink:href="#swirl"
         id="use3412" />
    </g>
    <g
       transform="matrix(-0.24377,0.37848,0.37848,0.24377,364.15429,-18.396)"
       style="filter:url(#filter3666)"
       id="g2567">
      <use
         x="0"
         y="0"
         width="405.05228"
         height="313.37378"
         transform="matrix(1.1492,0,0,1.1492,-86.539,21.668)"
         xlink:href="#swirl"
         id="use2569" />
    </g>
    <g
       transform="matrix(-1.0935,0,0,1.0935,397.08029,-37.491)"
       id="g2629">
      <path
         inkscape:connector-curvature="0"
         d="M 256.77,78.226 C 236.44,42.2 152.95,0.54 118.03,19.179 L 71.233,53.951 c 89.917,-46.327 166.49,-2.196 185.54,24.275 z"
         style="opacity:0.98999999;fill:url(#linearGradient3458)"
         id="path2579" />
      <use
         x="0"
         y="0"
         width="396.78284"
         height="368.40176"
         transform="matrix(0.96593,0.25882,-0.25882,0.96593,54.535,-49.431)"
         xlink:href="#path2579"
         id="use2583" />
      <use
         x="0"
         y="0"
         width="396.78284"
         height="368.40176"
         transform="matrix(0.86602,0.5,-0.5,0.86602,120,-83.063)"
         xlink:href="#path2579"
         id="use2587" />
      <use
         x="0"
         y="0"
         width="396.78284"
         height="368.40176"
         transform="matrix(0.70711,0.70711,-0.70711,0.70711,191.95,-98.604)"
         xlink:href="#path2579"
         id="use2589" />
      <use
         x="0"
         y="0"
         width="396.78284"
         height="368.40176"
         transform="matrix(0.5,0.86602,-0.86602,0.5,265.46,-94.995)"
         xlink:href="#path2579"
         id="use2591" />
      <use
         x="0"
         y="0"
         width="396.78284"
         height="368.40176"
         transform="matrix(0.25882,0.96593,-0.96593,0.25882,335.54,-72.481)"
         xlink:href="#path2579"
         id="use2593" />
      <use
         x="0"
         y="0"
         width="396.78284"
         height="368.40176"
         transform="matrix(3.6762e-8,1,-1,3.6762e-8,397.4,-32.598)"
         xlink:href="#path2579"
         id="use2595" />
      <use
         x="0"
         y="0"
         width="396.78284"
         height="368.40176"
         transform="matrix(-0.25882,0.96593,-0.96593,-0.25882,446.83,21.937)"
         xlink:href="#path2579"
         id="use2597" />
      <use
         x="0"
         y="0"
         width="396.78284"
         height="368.40176"
         transform="matrix(-0.5,0.86602,-0.86602,-0.5,480.46,87.407)"
         xlink:href="#path2579"
         id="use2599" />
      <use
         x="0"
         y="0"
         width="396.78284"
         height="368.40176"
         transform="matrix(-0.70711,0.70711,-0.70711,-0.70711,496,159.35)"
         xlink:href="#path2579"
         id="use2601" />
      <use
         x="0"
         y="0"
         width="396.78284"
         height="368.40176"
         transform="matrix(-0.86602,0.5,-0.5,-0.86602,492.4,232.87)"
         xlink:href="#path2579"
         id="use2603" />
      <use
         x="0"
         y="0"
         width="396.78284"
         height="368.40176"
         transform="matrix(-0.96593,0.25882,-0.25882,-0.96593,469.88,302.94)"
         xlink:href="#path2579"
         id="use2605" />
      <use
         x="0"
         y="0"
         width="396.78284"
         height="368.40176"
         transform="matrix(-1,3.6762e-8,-3.6762e-8,-1,430,364.8)"
         xlink:href="#path2579"
         id="use2607" />
      <use
         x="0"
         y="0"
         width="396.78284"
         height="368.40176"
         transform="matrix(-0.96593,-0.25882,0.25882,-0.96593,375.46,414.23)"
         xlink:href="#path2579"
         id="use2609" />
      <use
         x="0"
         y="0"
         width="396.78284"
         height="368.40176"
         transform="matrix(-0.86602,-0.5,0.5,-0.86602,310,447.87)"
         xlink:href="#path2579"
         id="use2611" />
      <use
         x="0"
         y="0"
         width="396.78284"
         height="368.40176"
         transform="matrix(-0.70711,-0.70711,0.70711,-0.70711,238.05,463.41)"
         xlink:href="#path2579"
         id="use2613" />
      <use
         x="0"
         y="0"
         width="396.78284"
         height="368.40176"
         transform="matrix(-0.5,-0.86602,0.86602,-0.5,164.54,459.8)"
         xlink:href="#path2579"
         id="use2615" />
      <use
         x="0"
         y="0"
         width="396.78284"
         height="368.40176"
         transform="matrix(-0.25882,-0.96593,0.96593,-0.25882,94.46,437.28)"
         xlink:href="#path2579"
         id="use2617" />
      <use
         x="0"
         y="0"
         width="396.78284"
         height="368.40176"
         transform="matrix(-3.6762e-8,-1,1,-3.6762e-8,32.598,397.4)"
         xlink:href="#path2579"
         id="use2619" />
      <use
         x="0"
         y="0"
         width="396.78284"
         height="368.40176"
         transform="matrix(0.25882,-0.96593,0.96593,0.25882,-16.833,342.87)"
         xlink:href="#path2579"
         id="use2621" />
      <use
         x="0"
         y="0"
         width="396.78284"
         height="368.40176"
         transform="matrix(0.5,-0.86602,0.86602,0.5,-50.465,277.4)"
         xlink:href="#path2579"
         id="use2623" />
      <use
         x="0"
         y="0"
         width="396.78284"
         height="368.40176"
         transform="matrix(0.70711,-0.70711,0.70711,0.70711,-66.006,205.45)"
         xlink:href="#path2579"
         id="use2625" />
      <use
         x="0"
         y="0"
         width="396.78284"
         height="368.40176"
         transform="matrix(0.86602,-0.5,0.5,0.86602,-62.396,131.94)"
         xlink:href="#path2579"
         id="use2627" />
      <use
         x="0"
         y="0"
         width="396.78284"
         height="368.40176"
         transform="matrix(0.96593,-0.25882,0.25882,0.96593,-39.883,61.861)"
         xlink:href="#path2579"
         id="use2585" />
    </g>
  </g>
  <metadata
     id="metadata58">
    <rdf:RDF>
      <cc:Work>
        <dc:format>image/svg+xml</dc:format>
        <dc:type
           rdf:resource="http://purl.org/dc/dcmitype/StillImage" />
        <cc:license
           rdf:resource="http://creativecommons.org/licenses/publicdomain/" />
        <dc:publisher>
          <cc:Agent
             rdf:about="http://openclipart.org/">
            <dc:title>Openclipart</dc:title>
          </cc:Agent>
        </dc:publisher>
        <dc:title>whirlpool</dc:title>
        <dc:date>2008-04-04T02:29:19</dc:date>
        <dc:description>blue warping whirlpool (requires SVG filters)</dc:description>
        <dc:source>https://openclipart.org/detail/16148/whirlpool-by-andy</dc:source>
        <dc:creator>
          <cc:Agent>
            <dc:title>Andy</dc:title>
          </cc:Agent>
        </dc:creator>
        <dc:subject>
          <rdf:Bag>
            <rdf:li>blue</rdf:li>
            <rdf:li>colour</rdf:li>
            <rdf:li>deep</rdf:li>
            <rdf:li>focus</rdf:li>
            <rdf:li>iris</rdf:li>
            <rdf:li>l whirl</rdf:li>
            <rdf:li>momentum</rdf:li>
            <rdf:li>nature</rdf:li>
            <rdf:li>paint</rdf:li>
            <rdf:li>pool</rdf:li>
            <rdf:li>portal</rdf:li>
            <rdf:li>swir</rdf:li>
            <rdf:li>swirlpool</rdf:li>
            <rdf:li>torrent</rdf:li>
            <rdf:li>water</rdf:li>
            <rdf:li>whirlpool</rdf:li>
          </rdf:Bag>
        </dc:subject>
      </cc:Work>
      <cc:License
         rdf:about="http://creativecommons.org/licenses/publicdomain/">
        <cc:permits
           rdf:resource="http://creativecommons.org/ns#Reproduction" />
        <cc:permits
           rdf:resource="http://creativecommons.org/ns#Distribution" />
        <cc:permits
           rdf:resource="http://creativecommons.org/ns#DerivativeWorks" />
      </cc:License>
    </rdf:RDF>
  </metadata>
</svg>
