<?xml version="1.0" encoding="UTF-8" standalone="no"?>
<!-- Created with Inkscape (http://www.inkscape.org/) -->

<svg
   xmlns:dc="http://purl.org/dc/elements/1.1/"
   xmlns:cc="http://creativecommons.org/ns#"
   xmlns:rdf="http://www.w3.org/1999/02/22-rdf-syntax-ns#"
   xmlns:svg="http://www.w3.org/2000/svg"
   xmlns="http://www.w3.org/2000/svg"
   xmlns:xlink="http://www.w3.org/1999/xlink"
   xmlns:sodipodi="http://sodipodi.sourceforge.net/DTD/sodipodi-0.dtd"
   xmlns:inkscape="http://www.inkscape.org/namespaces/inkscape"
   id="svg5520"
   sodipodi:docname="openclipart_261_red_present.svg"
   viewBox="0 0 692.10998 692.11"
   sodipodi:version="0.32"
   version="1.0"
   inkscape:output_extension="org.inkscape.output.svg.inkscape"
   inkscape:version="0.91 r13725"
   width="692.10999"
   height="692.10999">
  <defs
     id="defs5522">
    <filter
       id="filter5389"
       inkscape:collect="always">
      <feGaussianBlur
         id="feGaussianBlur5391"
         stdDeviation="0.080260832"
         inkscape:collect="always" />
    </filter>
    <filter
       id="filter5115"
       inkscape:collect="always">
      <feGaussianBlur
         id="feGaussianBlur5117"
         stdDeviation="0.06950493"
         inkscape:collect="always" />
    </filter>
    <linearGradient
       id="linearGradient5119"
       inkscape:collect="always">
      <stop
         id="stop5121"
         style="stop-color:rgb(0, 0, 0)"
         offset="0" />
      <stop
         id="stop5123"
         style="stop-color:rgb(0, 0, 0);stop-opacity:0"
         offset="1" />
    </linearGradient>
    <filter
       id="filter5073"
       inkscape:collect="always">
      <feGaussianBlur
         id="feGaussianBlur5075"
         stdDeviation="0.052773018"
         inkscape:collect="always" />
    </filter>
    <filter
       id="filter4943"
       inkscape:collect="always">
      <feGaussianBlur
         id="feGaussianBlur4945"
         stdDeviation="0.10492554"
         inkscape:collect="always" />
    </filter>
    <filter
       id="filter4875"
       inkscape:collect="always">
      <feGaussianBlur
         id="feGaussianBlur4877"
         stdDeviation="0.083783289"
         inkscape:collect="always" />
    </filter>
    <filter
       id="filter5203"
       inkscape:collect="always">
      <feGaussianBlur
         id="feGaussianBlur5205"
         stdDeviation="0.14911291"
         inkscape:collect="always" />
    </filter>
    <filter
       id="filter4358"
       height="1.2009"
       width="1.0477"
       y="-0.10043"
       x="-0.023870001"
       inkscape:collect="always">
      <feGaussianBlur
         id="feGaussianBlur4360"
         stdDeviation="0.139889"
         inkscape:collect="always" />
    </filter>
    <filter
       id="filter4332"
       inkscape:collect="always">
      <feGaussianBlur
         id="feGaussianBlur4334"
         stdDeviation="0.079515375"
         inkscape:collect="always" />
    </filter>
    <filter
       id="filter4009"
       inkscape:collect="always">
      <feGaussianBlur
         id="feGaussianBlur4011"
         stdDeviation="0.15094464"
         inkscape:collect="always" />
    </filter>
    <linearGradient
       id="linearGradient3969"
       inkscape:collect="always">
      <stop
         id="stop3971"
         style="stop-color:rgb(77, 77, 77)"
         offset="0" />
      <stop
         id="stop3973"
         style="stop-color:rgb(77, 77, 77);stop-opacity:0"
         offset="1" />
    </linearGradient>
    <filter
       id="filter3954"
       inkscape:collect="always">
      <feGaussianBlur
         id="feGaussianBlur3956"
         stdDeviation="0.14602923"
         inkscape:collect="always" />
    </filter>
    <filter
       id="filter3936"
       inkscape:collect="always">
      <feGaussianBlur
         id="feGaussianBlur3938"
         stdDeviation="0.19096396"
         inkscape:collect="always" />
    </filter>
    <filter
       id="filter3840"
       inkscape:collect="always">
      <feGaussianBlur
         id="feGaussianBlur3842"
         stdDeviation="0.29143607"
         inkscape:collect="always" />
    </filter>
    <filter
       id="filter4286"
       inkscape:collect="always">
      <feGaussianBlur
         id="feGaussianBlur4288"
         stdDeviation="0.18001918"
         inkscape:collect="always" />
    </filter>
    <linearGradient
       id="linearGradient4224"
       inkscape:collect="always">
      <stop
         id="stop4226"
         style="stop-color:rgb(255, 255, 255)"
         offset="0" />
      <stop
         id="stop4228"
         style="stop-color:rgb(77, 77, 77);stop-opacity:0"
         offset="1" />
    </linearGradient>
    <filter
       id="filter3888"
       height="1.0487"
       width="2.4535999"
       y="-0.024362"
       x="-0.72679001"
       inkscape:collect="always">
      <feGaussianBlur
         id="feGaussianBlur3890"
         stdDeviation="0.15719063"
         inkscape:collect="always" />
    </filter>
    <linearGradient
       id="linearGradient3892"
       inkscape:collect="always">
      <stop
         id="stop3894"
         style="stop-color:rgb(255, 255, 255)"
         offset="0" />
      <stop
         id="stop3896"
         style="stop-color:rgb(255, 255, 255);stop-opacity:0"
         offset="1" />
    </linearGradient>
    <filter
       id="filter4049"
       inkscape:collect="always">
      <feGaussianBlur
         id="feGaussianBlur4051"
         stdDeviation="0.28665188"
         inkscape:collect="always" />
    </filter>
    <filter
       id="filter4715"
       height="1.2661"
       width="1.1195"
       y="-0.13304999"
       x="-0.059726"
       inkscape:collect="always">
      <feGaussianBlur
         id="feGaussianBlur4717"
         stdDeviation="2.3861645"
         inkscape:collect="always" />
    </filter>
    <radialGradient
       id="radialGradient2650"
       gradientUnits="userSpaceOnUse"
       cy="238.35001"
       cx="985.76001"
       gradientTransform="matrix(1.1641,-1.9754,2.046,1.2058,-614.23,1863.9)"
       r="11.035"
       inkscape:collect="always">
      <stop
         id="stop4027"
         style="stop-color:rgb(255, 255, 255)"
         offset="0" />
      <stop
         id="stop4029"
         style="stop-color:rgb(255, 255, 255);stop-opacity:0"
         offset="1" />
    </radialGradient>
    <linearGradient
       id="linearGradient2652"
       y2="218.97"
       xlink:href="#linearGradient3892"
       gradientUnits="userSpaceOnUse"
       x2="1002.9"
       y1="233.49001"
       x1="1002.9"
       inkscape:collect="always" />
    <linearGradient
       id="linearGradient2654"
       y2="214.7"
       xlink:href="#linearGradient4224"
       gradientUnits="userSpaceOnUse"
       x2="992.39001"
       gradientTransform="translate(16.514,-35.636)"
       y1="219.12"
       x1="991.58002"
       inkscape:collect="always" />
    <linearGradient
       id="linearGradient2656"
       y2="223.38"
       xlink:href="#linearGradient3892"
       gradientUnits="userSpaceOnUse"
       x2="1003.1"
       gradientTransform="translate(16.514,-35.636)"
       y1="215.92999"
       x1="1002.8"
       inkscape:collect="always" />
    <linearGradient
       id="linearGradient2660"
       y2="214.7"
       xlink:href="#linearGradient4224"
       gradientUnits="userSpaceOnUse"
       x2="992.39001"
       gradientTransform="translate(30.258,-36.49)"
       y1="219.12"
       x1="991.58002"
       inkscape:collect="always" />
    <linearGradient
       id="linearGradient2666"
       y2="220.49001"
       xlink:href="#linearGradient3969"
       gradientUnits="userSpaceOnUse"
       x2="991.09998"
       gradientTransform="translate(16.514,-35.636)"
       y1="208.36"
       x1="991.09998"
       inkscape:collect="always" />
    <linearGradient
       id="linearGradient2670"
       y2="220.49001"
       xlink:href="#linearGradient3969"
       gradientUnits="userSpaceOnUse"
       x2="991.09998"
       gradientTransform="translate(22.384,-0.58596)"
       y1="208.36"
       x1="991.09998"
       inkscape:collect="always" />
    <linearGradient
       id="linearGradient2672"
       y2="213.36"
       gradientUnits="userSpaceOnUse"
       x2="1003"
       gradientTransform="translate(17.482,-35.69)"
       y1="206.81"
       x1="999.14001"
       inkscape:collect="always">
      <stop
         id="stop4364"
         style="stop-color:rgb(179, 179, 179)"
         offset="0" />
      <stop
         id="stop4366"
         style="stop-color:rgb(255, 255, 255)"
         offset="1" />
    </linearGradient>
    <linearGradient
       id="linearGradient2674"
       y2="164.62"
       gradientUnits="userSpaceOnUse"
       x2="1006.1"
       y1="170.13"
       x1="1006.7"
       inkscape:collect="always">
      <stop
         id="stop5135"
         style="stop-color:rgb(127, 127, 127);stop-opacity:0"
         offset="0" />
      <stop
         id="stop5137"
         style="stop-color:rgb(0, 0, 0)"
         offset="1" />
    </linearGradient>
    <linearGradient
       id="linearGradient2680"
       y2="165.69"
       gradientUnits="userSpaceOnUse"
       x2="1013"
       y1="170.63"
       x1="1015.5"
       inkscape:collect="always">
      <stop
         id="stop4893"
         style="stop-color:rgb(51, 51, 51)"
         offset="0" />
      <stop
         id="stop4895"
         style="stop-color:rgb(255, 255, 255);stop-opacity:0"
         offset="1" />
    </linearGradient>
    <linearGradient
       id="linearGradient2686"
       y2="169.45"
       gradientUnits="userSpaceOnUse"
       x2="1015.7"
       y1="174.22"
       x1="1019.5"
       inkscape:collect="always">
      <stop
         id="stop4951"
         style="stop-color:rgb(0, 0, 0)"
         offset="0" />
      <stop
         id="stop4953"
         style="stop-color:rgb(0, 0, 0);stop-opacity:0"
         offset="1" />
    </linearGradient>
    <linearGradient
       id="linearGradient2688"
       y2="174.3"
       gradientUnits="userSpaceOnUse"
       x2="1017.1"
       y1="166.91"
       x1="1027.7"
       inkscape:collect="always">
      <stop
         id="stop4817"
         style="stop-color:rgb(51, 51, 51)"
         offset="0" />
      <stop
         id="stop4819"
         style="stop-color:rgb(204, 204, 204)"
         offset="1" />
    </linearGradient>
    <linearGradient
       id="linearGradient2690"
       y2="174.39999"
       gradientUnits="userSpaceOnUse"
       x2="1025.1"
       y1="164.83"
       x1="1036.5"
       inkscape:collect="always">
      <stop
         id="stop4809"
         style="stop-color:rgb(204, 204, 204)"
         offset="0" />
      <stop
         id="stop4811"
         style="stop-color:rgb(255, 255, 255)"
         offset="1" />
    </linearGradient>
    <linearGradient
       id="linearGradient2692"
       y2="162.03999"
       xlink:href="#linearGradient5119"
       gradientUnits="userSpaceOnUse"
       x2="1008.6"
       y1="162.97"
       x1="1004.5"
       inkscape:collect="always" />
    <linearGradient
       id="linearGradient2694"
       y2="163.86"
       xlink:href="#linearGradient5119"
       gradientUnits="userSpaceOnUse"
       x2="1008.2"
       gradientTransform="translate(22.425,0.7176)"
       y1="161.72"
       x1="1006.5"
       inkscape:collect="always" />
    <linearGradient
       id="linearGradient2696"
       y2="171.89999"
       gradientUnits="userSpaceOnUse"
       x2="1032.4"
       y1="164.11"
       x1="1031.8"
       inkscape:collect="always">
      <stop
         id="stop5295"
         style="stop-color:rgb(255, 255, 255)"
         offset="0" />
      <stop
         id="stop5297"
         style="stop-color:rgb(255, 255, 255);stop-opacity:0"
         offset="1" />
    </linearGradient>
    <linearGradient
       id="linearGradient2706"
       y2="173.07001"
       gradientUnits="userSpaceOnUse"
       x2="1027"
       gradientTransform="matrix(-15.815,0,0,15.815,16437.975,-2436.6)"
       y1="173.07001"
       x1="1020.7"
       inkscape:collect="always">
      <stop
         id="stop5399"
         style="stop-color:rgb(204, 204, 204)"
         offset="0" />
      <stop
         id="stop5401"
         style="stop-color:rgb(25, 25, 25)"
         offset="1" />
    </linearGradient>
    <radialGradient
       id="radialGradient2709"
       gradientUnits="userSpaceOnUse"
       cy="205.92999"
       cx="999.92999"
       gradientTransform="matrix(-55.986,25.92,51.367,110.96,45769.975,-48503)"
       r="2.8655"
       inkscape:collect="always">
      <stop
         id="stop4803"
         style="stop-color:rgb(255, 255, 255)"
         offset="0" />
      <stop
         id="stop4805"
         style="stop-color:rgb(0, 0, 0)"
         offset="1" />
    </radialGradient>
    <linearGradient
       id="linearGradient2714"
       y2="174.09"
       gradientUnits="userSpaceOnUse"
       x2="1006.7"
       gradientTransform="matrix(-15.815,0,0,15.815,16437.975,-2436.6)"
       y1="172.48"
       x1="1012.3"
       inkscape:collect="always">
      <stop
         id="stop2957"
         style="stop-color:rgb(179, 179, 179)"
         offset="0" />
      <stop
         id="stop2959"
         style="stop-color:rgb(255, 255, 255)"
         offset="1" />
    </linearGradient>
    <radialGradient
       id="radialGradient2717"
       gradientUnits="userSpaceOnUse"
       cy="209.14"
       cx="990.44"
       gradientTransform="matrix(28.792,-35.184,-33.772,-27.637,-21080.025,40907)"
       r="5.8379998"
       inkscape:collect="always">
      <stop
         id="stop4206"
         style="stop-color:rgb(255, 255, 255)"
         offset="0" />
      <stop
         id="stop4208"
         style="stop-color:rgb(179, 179, 179)"
         offset="1" />
    </radialGradient>
    <linearGradient
       id="linearGradient2726"
       y2="232.99001"
       gradientUnits="userSpaceOnUse"
       x2="991.81"
       gradientTransform="matrix(-15.815,0,0,15.815,16176.975,-3000.2)"
       y1="237.27"
       x1="990.98999"
       inkscape:collect="always">
      <stop
         id="stop4017"
         style="stop-color:rgb(0, 0, 0)"
         offset="0" />
      <stop
         id="stop4019"
         style="stop-color:rgb(0, 0, 0);stop-opacity:0"
         offset="1" />
    </linearGradient>
    <radialGradient
       id="radialGradient2730"
       gradientUnits="userSpaceOnUse"
       cy="164.89"
       cx="1006.3"
       gradientTransform="matrix(-15.657,27.812,42.83,24.111,9211.2752,-31809)"
       r="5.4728999"
       inkscape:collect="always">
      <stop
         id="stop4825"
         style="stop-color:rgb(51, 51, 51)"
         offset="0" />
      <stop
         id="stop4827"
         style="stop-color:rgb(239, 239, 239)"
         offset="1" />
    </radialGradient>
    <linearGradient
       id="linearGradient2733"
       y2="235.48"
       gradientUnits="userSpaceOnUse"
       x2="1020"
       gradientTransform="matrix(-15.815,0,0,15.815,16176.975,-3000.2)"
       y1="210.21001"
       x1="1007.9"
       inkscape:collect="always">
      <stop
         id="stop4306"
         style="stop-color:rgb(230, 230, 230)"
         offset="0" />
      <stop
         id="stop4308"
         style="stop-color:rgb(102, 102, 102)"
         offset="1" />
    </linearGradient>
    <linearGradient
       id="linearGradient2738"
       y2="216.38"
       gradientUnits="userSpaceOnUse"
       x2="996.02002"
       gradientTransform="matrix(-15.815,0,0,15.815,16176.975,-3000.2)"
       y1="235.88"
       x1="994.01001"
       inkscape:collect="always">
      <stop
         id="stop3960"
         style="stop-color:rgb(255, 255, 255)"
         offset="0" />
      <stop
         id="stop3962"
         style="stop-color:rgb(230, 230, 230)"
         offset="1" />
    </linearGradient>
  </defs>
  <sodipodi:namedview
     id="base"
     bordercolor="#666666"
     inkscape:pageshadow="2"
     inkscape:window-y="48"
     pagecolor="#ffffff"
     inkscape:window-height="945"
     inkscape:zoom="0.7"
     inkscape:window-x="-8"
     showgrid="false"
     borderopacity="1.0"
     inkscape:current-layer="layer1"
     inkscape:cx="376.13894"
     inkscape:cy="318.40285"
     inkscape:window-width="1280"
     inkscape:pageopacity="0.0"
     inkscape:document-units="px"
     inkscape:window-maximized="1" />
  <g
     id="layer1"
     inkscape:label="Camada 1"
     inkscape:groupmode="layer"
     transform="translate(-20.219,-117.72999)">
    <g
       id="g3467"
       transform="translate(12.786616,0)">
      <path
         inkscape:connector-curvature="0"
         d="m 1281.8,669.91 53.2,20.64 42.7,-29.39 -53.2,-13.65 -42.7,22.4 z"
         transform="matrix(-6.968,0,0,7.1641,9618.6752,-4137.4)"
         style="opacity:0.75581001;fill:#000000;fill-rule:evenodd;filter:url(#filter4715)"
         sodipodi:nodetypes="ccccc"
         id="path4665" />
      <path
         inkscape:connector-curvature="0"
         d="m 668.12325,368.18 0,277.03 -354.81,128.85 -273.950004,-183.15 0,-263.18 281.650004,149.29 347.11,-108.84 z"
         style="fill:#aa0000;fill-rule:evenodd"
         sodipodi:nodetypes="ccccccc"
         id="path3105" />
      <path
         inkscape:connector-curvature="0"
         d="m 997.28,194.51 22.12,8.26 0,-17.07 -22.12,-6.72 0,15.53 z"
         transform="matrix(-15.815,0,0,15.815,16437.975,-2436.6)"
         style="opacity:0.52535999;fill:url(#radialGradient2650);fill-rule:evenodd;filter:url(#filter4049)"
         sodipodi:nodetypes="ccccc"
         id="path3107" />
      <rect
         x="1002.7"
         y="222.42"
         width="0.43928999"
         height="15.805"
         transform="matrix(-18.002,0,0,18.002,18369.975,-3520.4)"
         style="opacity:0.52174;fill:url(#linearGradient2652);filter:url(#filter3888)"
         id="rect3109" />
      <path
         inkscape:connector-curvature="0"
         d="m 387.47525,219.77 -355.650004,56.07 0.87,95.52 279.890004,141.64 360.74,-110.9 -0.584,-97.65 -285.27,-84.68 z"
         style="fill:#aa0000"
         sodipodi:nodetypes="ccccccc"
         id="path3111" />
      <path
         inkscape:connector-curvature="0"
         d="m 996.92,175.07 0.09,4.36 22.19,6.9 0.1,-5.08 -22.38,-6.18 z"
         transform="matrix(-15.815,0,0,15.815,16437.975,-2436.6)"
         style="opacity:0.5;fill:url(#linearGradient2654);fill-rule:evenodd;filter:url(#filter4286)"
         sodipodi:nodetypes="ccccc"
         id="path3113" />
      <path
         inkscape:connector-curvature="0"
         d="m 997.08,173.49 22.42,5.94 17.5,-7.69 0,0.46 -17.3,7.67 -0.1,6.23 -0.5,0 0,-6.23 -21.99,-5.85 -0.03,-0.53 z"
         transform="matrix(-15.815,0,0,15.815,16437.975,-2436.6)"
         style="fill:url(#linearGradient2656);fill-rule:evenodd;filter:url(#filter3840)"
         sodipodi:nodetypes="cccccccccc"
         id="path3115" />
      <path
         inkscape:connector-curvature="0"
         d="m 1023.9,170.19 -18.3,5.78 -0.2,21.61 4.6,1.87 0.2,-22.15 18.7,-7.08 -5,-0.03 z"
         transform="matrix(-15.815,0,0,15.815,16437.975,-2436.6)"
         style="fill:#000000;fill-rule:evenodd;filter:url(#filter3936)"
         sodipodi:nodetypes="ccccccc"
         id="path3117" />
      <path
         inkscape:connector-curvature="0"
         d="m 239.84525,243.06 296.48,97.89 4.41,351.7 -73.66,26.47 -3.71,-357.02 -297.45,-107.8 73.93,-11.24 z"
         style="fill:url(#linearGradient2738);fill-rule:evenodd"
         sodipodi:nodetypes="ccccccc"
         id="path3119" />
      <path
         inkscape:connector-curvature="0"
         d="m 1014.7,176.33 0.4,4.61 17.8,4.54 0.1,-5.09 -18.3,-4.06 z"
         transform="matrix(15.815,3.8478,0,15.815,-16019.025,-6396.6)"
         style="opacity:0.5;fill:url(#linearGradient2660);fill-rule:evenodd;filter:url(#filter4286)"
         sodipodi:nodetypes="ccccc"
         id="path3121" />
      <path
         inkscape:connector-curvature="0"
         d="m 1005.3,170.83 21.8,5.57 0,21.42 4.2,-2.82 -0.2,-20.54 -21.6,-4.75 -4.2,1.12 z"
         transform="matrix(-15.815,0,0,15.815,16437.975,-2436.6)"
         style="fill:#000000;fill-rule:evenodd;filter:url(#filter3954)"
         sodipodi:nodetypes="ccccccc"
         id="path3123" />
      <path
         inkscape:connector-curvature="0"
         d="m 538.81525,264.43 -347.16,86.04 1.31,343.43 -65.88,-44.22 1.13,-329.87 342.1,-76.34 68.5,20.96 z"
         style="fill:url(#linearGradient2733);fill-rule:evenodd"
         sodipodi:nodetypes="ccccccc"
         id="path3125" />
      <path
         inkscape:connector-curvature="0"
         d="m 462.96525,172.71 c 0,0 -3.45,28.5 -23.26,54.73 -9.4,12.45 -45.83,33.52 -45.83,33.52 l -19.85,23.94 c 0,0 20.53,6.85 30.79,5.48 10.26,-1.37 61.17,-16.14 80.32,-27.09 19.16,-10.94 53.36,-49.52 55.42,-58.42 2.05,-8.89 11.5,-32.01 3.29,-47.07 -8.21,-15.05 -24.1,-22.03 -28.89,-22.72 -4.79,-0.68 -49.94,22.58 -49.94,22.58 l -2.05,15.05 z"
         style="fill:url(#radialGradient2730);fill-rule:evenodd"
         sodipodi:nodetypes="csccssssscc"
         id="path3127" />
      <path
         inkscape:connector-curvature="0"
         d="m 1005.6,175.93 4.2,1.02 -0.3,11.59 -4,-3.55 0.1,-9.06 z"
         transform="matrix(-15.815,0,0,15.815,16437.975,-2436.6)"
         style="opacity:0.59058;fill:url(#linearGradient2666);fill-rule:evenodd;filter:url(#filter4009)"
         sodipodi:nodetypes="ccccc"
         id="path3129" />
      <path
         inkscape:connector-curvature="0"
         d="m 538.35525,651.7 1.18,39.97 -71.34,25.75 -0.59,-44.11 70.75,-21.61 z"
         style="fill:url(#linearGradient2726);fill-rule:evenodd"
         sodipodi:nodetypes="ccccc"
         id="path3131" />
      <path
         inkscape:connector-curvature="0"
         d="m 1011.5,210.58 4.1,1.82 -0.2,11.19 -4,-3.55 0.1,-9.46 z"
         transform="matrix(13.1,0,0,13.1,-13122.025,-2431.5)"
         style="opacity:0.67391004;fill:url(#linearGradient2670);fill-rule:evenodd;filter:url(#filter4009)"
         sodipodi:nodetypes="ccccc"
         id="path3133" />
      <g
         transform="matrix(-15.741,1.5274,1.5274,15.741,16094.975,-3975.6)"
         id="g3135">
        <path
           inkscape:connector-curvature="0"
           d="m 1015,173.21 c 0,0 1.9,-0.14 2.2,0.99 0.3,1.13 -0.6,2.48 1.8,4.67 0.7,-0.36 0.7,-1.06 0.7,-1.06 l 1.9,0.77 c 0,0 -1.5,-2.19 -1.5,-3.11 0,-0.91 0.2,-2.05 -0.4,-2.4 -0.7,-0.35 -3.8,-0.35 -3.8,-0.35 l -0.9,0.49 z"
           style="opacity:0.95290001;fill:#000000;fill-rule:evenodd;filter:url(#filter4332)"
           sodipodi:nodetypes="cscccsscc"
           id="path3137" />
        <path
           inkscape:connector-curvature="0"
           d="m 1015.1,173.08 c 0,0 1.9,-0.14 2.2,0.99 0.3,1.13 -0.6,2.47 1.8,4.66 0.7,-0.35 0.7,-1.06 0.7,-1.06 l 1.9,0.78 c 0,0 -1.5,-2.19 -1.5,-3.11 0,-0.92 0.2,-2.05 -0.4,-2.4 -0.7,-0.36 -3.8,-0.36 -3.8,-0.36 l -0.9,0.5 z"
           style="fill:url(#linearGradient2672);fill-rule:evenodd"
           sodipodi:nodetypes="cscccsscc"
           id="path3139" />
      </g>
      <path
         inkscape:connector-curvature="0"
         d="m 1010.4,171.77 c 0,0 -1.8,0.92 -2.7,1.2 -0.8,0.28 -5.5,-0.07 -5.5,-0.07 l 2.4,0.78 -0.6,1.41 c 0,0 3.5,0.04 4.8,-0.14 1.9,-0.26 2.5,-1.77 5.1,-1.84 1.6,-0.04 2.4,0.14 2.4,0.14 0,0 -2.1,-1.69 -5.9,-1.48 z"
         transform="matrix(-15.815,0,0,15.815,16437.975,-2436.6)"
         style="fill:#000000;fill-rule:evenodd;filter:url(#filter4358)"
         sodipodi:nodetypes="cscccsscc"
         id="path3141" />
      <path
         inkscape:connector-curvature="0"
         d="m 1008.6,163.52 c 0,0 -1.1,-0.63 -1.5,-0.63 -0.5,0 -2,0.58 -2.1,1.36 -0.2,0.79 -0.4,2.42 0.3,3.36 0.8,0.95 1.9,1.94 1.9,1.94 0,0 -1.7,-3.16 -1,-4.61 0.8,-1.59 2.4,-1.42 2.4,-1.42 z"
         transform="matrix(-15.815,0,0,15.815,16437.975,-2436.6)"
         style="fill:url(#linearGradient2674);fill-rule:evenodd;filter:url(#filter5203)"
         sodipodi:nodetypes="cssscsc"
         id="path3143" />
      <path
         inkscape:connector-curvature="0"
         d="m 474.72525,117.91 c 29.76,2.09 61.2,23.06 71.66,41.02 13.95,23.95 -8.02,67.13 -40.3,92.09 -44.25,34.2 -110.44,35.47 -110.44,35.47 0,-1.03 -43.23,11.95 -25.7,-38.6 25.18,-72.57 42.19,-108.02 76.11,-125.04 8.69,-4.36 18.75,-5.64 28.67,-4.94 z m 41.62,28.34 c -30.19,-9.41 -49.04,31.59 -62.38,48.27 -16.42,20.52 -57.82,81.05 -57.82,81.05 l -8.4,10.87 c 0,0 4.57,0.08 50.41,-10.87 45.83,-10.95 78.79,-42 80.16,-44.74 27.31,-32.41 35.35,-72.42 -1.97,-84.58 z"
         style="fill:url(#radialGradient2717);fill-rule:evenodd"
         sodipodi:nodetypes="csssssccsccscc"
         id="path3145" />
      <path
         inkscape:connector-curvature="0"
         d="m 453.26525,276.38 c 0,0 29.07,14.53 42.48,19 13.41,4.47 87.19,-1.12 87.19,-1.12 l -38.01,12.3 10.07,22.35 c 0,0 -55.74,0.55 -76.02,-2.23 -29.92,-4.1 -39.12,-27.95 -80.48,-29.07 -24.81,-0.67 -38.01,2.24 -38.01,2.24 0,0 33.54,-26.83 92.78,-23.47 z"
         style="fill:url(#linearGradient2714);fill-rule:evenodd"
         sodipodi:nodetypes="cscccsscc"
         id="path3147" />
      <path
         inkscape:connector-curvature="0"
         d="m 1019.9,171.39 c 0,0 -3.1,-1.43 -3.8,-1.43 -0.7,0 -1.9,1.37 -1.5,2.21 0.3,0.85 2.8,1.44 3.6,1.44 0.7,-0.18 1.3,-0.4 2,-0.72 0,-0.45 -0.3,-1.5 -0.3,-1.5 z"
         transform="matrix(-15.815,0,0,15.815,16437.975,-2436.6)"
         style="fill:#000000;fill-rule:evenodd;filter:url(#filter4875)"
         sodipodi:nodetypes="cssccc"
         id="path3149" />
      <path
         inkscape:connector-curvature="0"
         d="m 1011.9,167.01 2.8,4.38 1.4,-1.04 c 0,0 -1.4,-3.13 -2.2,-4.52 -0.8,-1.39 -1.3,-2.02 -1.3,-2.02 0,0 1.2,2.92 0.9,3.48 -0.3,0.56 -1.5,-0.28 -1.6,-0.28 z"
         transform="matrix(-15.815,0,0,15.815,16437.975,-2436.6)"
         style="fill:url(#linearGradient2680);fill-rule:evenodd;filter:url(#filter4943)"
         id="path3151" />
      <path
         inkscape:connector-curvature="0"
         d="m 308.94525,272.81 c 4.89,-4.12 49.56,-24.03 60.91,-24.03 11.35,0 29.91,21.66 24.76,35.07 -5.16,13.41 -45.39,22.7 -57.77,22.7 -11.03,-2.83 -21.05,-6.33 -31.98,-11.35 0,-7.22 -2.15,-15.29 4.08,-22.39 z"
         style="fill:url(#radialGradient2709);fill-rule:evenodd"
         sodipodi:nodetypes="cssccc"
         id="path3153" />
      <path
         inkscape:connector-curvature="0"
         d="m 327.51525,306.11 c 0,0 -35.54,13.03 -57.43,16.45 -21.89,3.42 -66.4,10.92 -77.35,6.81 -10.94,-4.1 -70.46,-16.42 -78.67,-29.41 -8.21,-13 43.78,-15.06 43.78,-15.06 0,0 29.42,18.48 49.95,19.84 20.52,1.37 80.72,-12.99 80.72,-12.99 l 38.31,10.26 0.69,4.1 z"
         style="fill:url(#linearGradient2706);fill-rule:evenodd"
         sodipodi:nodetypes="cssscsccc"
         id="path3155" />
      <path
         inkscape:connector-curvature="0"
         d="m 1015.6,169.98 c 0,0 0.4,-0.17 0.7,-0.07 0.4,0.13 0.7,0.18 1.6,0.57 1,0.43 1.7,0.76 1.8,0.81 0.5,0.48 0.1,0.98 0.2,1.54 -0.4,0.17 -1.4,0.51 -1.6,0.54 -0.7,-0.65 0.1,-1.76 1.1,-1.84 -0.2,-0.22 -1.2,-0.73 -1.5,-0.85 -0.8,-0.33 -1.7,-0.65 -1.7,-0.65 0,0 -0.9,-0.11 -1.3,0.61 0.1,-0.36 0.7,-0.7 0.7,-0.66 z"
         transform="matrix(-15.815,0,0,15.815,16437.975,-2436.6)"
         style="fill:url(#linearGradient2686);fill-rule:evenodd;filter:url(#filter5073)"
         sodipodi:nodetypes="csscccccccc"
         id="path3157" />
      <g
         transform="matrix(-15.815,0,0,15.815,16437.975,-2436.6)"
         id="g3159">
        <path
           inkscape:connector-curvature="0"
           d="m 1019,173.12 2.1,-0.52 c 0,0 3.5,-2.94 3.9,-3.12 2,-1.64 4.5,-2.25 6.5,-1.51 0,0 -0.2,-2.64 -0.9,-2.98 -0.7,-0.35 -2.6,-0.61 -2.6,-0.61 0,0 -2.6,1.73 -2.9,2.03 -0.3,0.3 -4.7,4.63 -4.7,4.63 l -1.3,1.62 -0.3,0.56 0.2,-0.1 z"
           style="fill:url(#linearGradient2688);fill-rule:evenodd"
           sodipodi:nodetypes="ccccscscccc"
           id="path3161" />
        <path
           inkscape:connector-curvature="0"
           d="m 1029.8,163.55 c -3.4,0.22 -10,8.06 -10.4,8.49 -0.4,0.43 -1,1.37 -1,1.32 0,0 4.3,1.88 7.9,1.66 3.6,-0.22 8.2,-2.41 8.6,-5.54 0.6,-3.6 -1.8,-6.14 -5.1,-5.93 z m -2.3,1.49 c 1.1,-0.2 3.5,-0.22 3.1,3.42 -0.3,2.25 -1.9,5.82 -5.2,6 -3.3,0.17 -6.6,-1.27 -6.6,-1.31 0,0 5.3,-5.61 5.6,-5.79 0.2,-0.17 1.8,-2 3.1,-2.32 z"
           style="fill:url(#linearGradient2690);fill-rule:evenodd"
           sodipodi:nodetypes="cscssccssssc"
           id="path3163" />
      </g>
      <path
         inkscape:connector-curvature="0"
         d="m 1004.7,164.66 c -0.1,-0.82 1.5,-2.01 2.9,-2.53 1.3,-0.53 3,-0.36 3,-0.36 0,0 -1.5,0.67 -2.1,1.12 -1.2,-0.12 -2.4,0.41 -2.4,0.41 0,0 -0.7,0.28 -1.4,1.36 z"
         transform="matrix(-15.815,0,0,15.815,16437.975,-2436.6)"
         style="opacity:0.55796999;fill:url(#linearGradient2692);fill-rule:evenodd;filter:url(#filter5115)"
         sodipodi:nodetypes="cscccc"
         id="path3165" />
      <path
         inkscape:transform-center-x="0.00024645367"
         inkscape:connector-curvature="0"
         transform="matrix(-15.416,3.5311,3.5311,15.416,15444.975,-6002.9)"
         inkscape:transform-center-y="-0.94061226"
         sodipodi:nodetypes="cscccc"
         d="m 1026.8,165.52 c 0.8,-1.14 1.3,-1.64 2.9,-2.13 1.4,-0.42 3.8,0.67 3.8,0.67 0,0 -1.3,1.37 -1.9,1.83 -0.7,-0.94 -2.5,-1.22 -2.5,-1.22 0,0 -1.1,-0.15 -2.3,0.85 z"
         style="opacity:0.55796999;fill:url(#linearGradient2694);fill-rule:evenodd;filter:url(#filter5115)"
         id="path3167" />
      <path
         inkscape:connector-curvature="0"
         d="m 1030.8,165.7 c 0,0 0.7,1.76 0.3,3.24 -0.4,1.48 -1,2.36 -1,2.36 0,0 2,0.38 3,-0.05 1,-0.44 1.5,-1.27 1.5,-1.27 0,0 0.5,-2.47 -0.1,-3.62 -0.6,-1.15 -1.4,-1.43 -1.4,-1.43 0,0 -1.4,0 -2.3,0.77 z"
         transform="matrix(-15.815,0,0,15.815,16437.975,-2436.6)"
         style="fill:url(#linearGradient2696);fill-rule:evenodd;filter:url(#filter5389)"
         id="path3169" />
    </g>
  </g>
  <metadata
     id="metadata140">
    <rdf:RDF>
      <cc:Work>
        <dc:format>image/svg+xml</dc:format>
        <dc:type
           rdf:resource="http://purl.org/dc/dcmitype/StillImage" />
        <cc:license
           rdf:resource="http://creativecommons.org/publicdomain/zero/1.0/" />
        <dc:publisher>
          <cc:Agent
             rdf:about="http://openclipart.org/">
            <dc:title>Openclipart</dc:title>
          </cc:Agent>
        </dc:publisher>
        <dc:title>red present</dc:title>
        <dc:date>2009-09-24T23:40:28</dc:date>
        <dc:description>Red present.</dc:description>
        <dc:source>https://openclipart.org/detail/27530/red-present-by-secretlondon</dc:source>
        <dc:creator>
          <cc:Agent>
            <dc:title>secretlondon</dc:title>
          </cc:Agent>
        </dc:creator>
        <dc:subject>
          <rdf:Bag>
            <rdf:li>birthday</rdf:li>
            <rdf:li>box</rdf:li>
            <rdf:li>christmas</rdf:li>
            <rdf:li>gift</rdf:li>
            <rdf:li>present</rdf:li>
            <rdf:li>red</rdf:li>
            <rdf:li>remix</rdf:li>
            <rdf:li>ribbon</rdf:li>
            <rdf:li>xmas</rdf:li>
          </rdf:Bag>
        </dc:subject>
      </cc:Work>
      <cc:License
         rdf:about="http://creativecommons.org/publicdomain/zero/1.0/">
        <cc:permits
           rdf:resource="http://creativecommons.org/ns#Reproduction" />
        <cc:permits
           rdf:resource="http://creativecommons.org/ns#Distribution" />
        <cc:permits
           rdf:resource="http://creativecommons.org/ns#DerivativeWorks" />
      </cc:License>
    </rdf:RDF>
  </metadata>
</svg>
