<?xml version="1.0" encoding="UTF-8" standalone="no"?>
<!-- made by Andy, It's public domain,  yeah why not-->

<svg
   xmlns:dc="http://purl.org/dc/elements/1.1/"
   xmlns:cc="http://creativecommons.org/ns#"
   xmlns:rdf="http://www.w3.org/1999/02/22-rdf-syntax-ns#"
   xmlns:svg="http://www.w3.org/2000/svg"
   xmlns="http://www.w3.org/2000/svg"
   xmlns:xlink="http://www.w3.org/1999/xlink"
   xmlns:sodipodi="http://sodipodi.sourceforge.net/DTD/sodipodi-0.dtd"
   xmlns:inkscape="http://www.inkscape.org/namespaces/inkscape"
   id="svg4895"
   viewBox="0 0 125.65022 125.65022"
   version="1.0"
   inkscape:version="0.91 r13725"
   sodipodi:docname="openclipart_26_tools_hammer_spanner.svg"
   width="125.65022"
   height="125.65022">
  <sodipodi:namedview
     pagecolor="#ffffff"
     bordercolor="#666666"
     borderopacity="1"
     objecttolerance="10"
     gridtolerance="10"
     guidetolerance="10"
     inkscape:pageopacity="0"
     inkscape:pageshadow="2"
     inkscape:window-width="1280"
     inkscape:window-height="945"
     id="namedview76"
     showgrid="false"
     fit-margin-top="0"
     fit-margin-left="0"
     fit-margin-right="0"
     fit-margin-bottom="0"
     inkscape:zoom="3.6875001"
     inkscape:cx="23.583743"
     inkscape:cy="55.263363"
     inkscape:window-x="-8"
     inkscape:window-y="48"
     inkscape:window-maximized="1"
     inkscape:current-layer="g3376" />
  <defs
     id="defs3">
    <linearGradient
       id="WhiteTransparent">
      <stop
         style="stop-color:white"
         offset="0"
         id="stop6" />
      <stop
         style="stop-color:white;stop-opacity:0"
         offset="1"
         id="stop8" />
    </linearGradient>
    <linearGradient
       id="BlackTransparent">
      <stop
         style="stop-color:black"
         offset="0"
         id="stop11" />
      <stop
         style="stop-color:black;stop-opacity:0"
         offset="1"
         id="stop13" />
    </linearGradient>
    <linearGradient
       id="lg1999"
       y2="118.3"
       xlink:href="#WhiteTransparent"
       gradientUnits="userSpaceOnUse"
       x2="638.29999"
       gradientTransform="matrix(0.1,0.1,-0.22,0.2,75.6,-33.53)"
       y1="69.989998"
       x1="637.03003" />
    <linearGradient
       id="lg02"
       y2="254.83"
       xlink:href="#WhiteTransparent"
       gradientUnits="userSpaceOnUse"
       x2="615.59003"
       gradientTransform="matrix(0.0807,0.0775,-0.35,0.36,76.597626,-46.703559)"
       y1="254.36"
       x1="512.70001" />
    <linearGradient
       id="lg05"
       y2="286.56"
       xlink:href="#BlackTransparent"
       gradientUnits="userSpaceOnUse"
       x2="419.88"
       gradientTransform="matrix(0.0998,0.0998,-0.28,0.28,79.111186,-48.054238)"
       y1="286.56"
       x1="543.09998" />
    <linearGradient
       id="lg09"
       y2="-1.72"
       xlink:href="#WhiteTransparent"
       gradientUnits="userSpaceOnUse"
       x2="258.95999"
       gradientTransform="matrix(0.33,0.33,-0.0944,0.0944,9.03,-48.1)"
       y1="62.740002"
       x1="258.95999" />
    <linearGradient
       id="lg12"
       y2="368.26999"
       xlink:href="#WhiteTransparent"
       gradientUnits="userSpaceOnUse"
       x2="146.14999"
       gradientTransform="matrix(0.3,0.3,-0.09,0.09,78.84,-44.8)"
       y1="288.57001"
       x1="146.14999" />
    <linearGradient
       id="lg16"
       y2="124"
       xlink:href="#WhiteTransparent"
       gradientUnits="userSpaceOnUse"
       x2="626.09998"
       gradientTransform="matrix(0.0775,0.0775,-0.36,0.36,78.84,-44.8)"
       y1="124"
       x1="577.03003" />
    <linearGradient
       id="lg19"
       y2="6037.5259"
       xlink:href="#BlackTransparent"
       x2="2375.4978"
       y1="6145.3076"
       x1="2482.957"
       gradientUnits="userSpaceOnUse" />
    <linearGradient
       id="lg51"
       y2="-186.25999"
       xlink:href="#WhiteTransparent"
       gradientUnits="userSpaceOnUse"
       x2="607.65997"
       gradientTransform="matrix(0.2,0,0,0.2,-80.94,88.3)"
       y1="-252.60001"
       x1="646.23999" />
    <linearGradient
       id="lg55"
       y2="-241.2"
       xlink:href="#WhiteTransparent"
       gradientUnits="userSpaceOnUse"
       x2="655.41998"
       gradientTransform="matrix(0.26,0,0,0.26,-106.57,101.57)"
       y1="-137.5"
       x1="550.96002" />
    <linearGradient
       id="lgdg"
       y2="86.68"
       xlink:href="#BlackTransparent"
       gradientUnits="userSpaceOnUse"
       x2="84.300003"
       gradientTransform="translate(-0.30267,-3.2014)"
       y1="66.199997"
       x1="73.879997" />
    <clipPath
       id="clipoutline1"
       clipPathUnits="userSpaceOnUse">
      <path
         id="outline1"
         d="m 22.42,17.2 12.96,12.95 -2.5,8.78 -8.78,2.5 -12.96,-12.96 -5.86,5.86 14.89,21.46 17.56,-3.34 61.63,65.62 c 9.44,9.51 22.17,-4.75 13.34,-12.87 L 46.85,42.92 50.86,25.16 28.72,10.89 22.42,17.2 Z m 81.06,91.97 c 1.68,-1.68 4.4,-1.68 6.08,0 1.68,1.68 1.68,4.4 0,6.08 -1.68,1.67 -4.4,1.67 -6.08,0 -1.68,-1.68 -1.68,-4.4 0,-6.08 z"
         inkscape:connector-curvature="0" />
    </clipPath>
    <clipPath
       id="clipoutline2"
       clipPathUnits="userSpaceOnUse">
      <path
         id="outline2"
         d="m 55.8,12 0.76,0.16 c 8.84,-2.94 28.68,8.64 24.26,18.96 -1.12,1.62 -0.93,4.5 0.42,6.31 L 56.43,62.25 c -1.39,-1.39 -4.48,-1.36 -5.9,0 L 9.5,101.63 c -3.74,3.59 -0.8,6.64 0.78,8.25 l 7.36,7.36 c 1.61,1.6 5.86,3.76 8.88,0.56 L 65.24,76.99 c 1.35,-1.42 1.36,-4.47 0,-5.87 0,0 0.01,-0.02 0,-0.02 L 90.15,46.2 c 2.63,2.37 5.114,2.575 7.47,1.93 4.55,-1.245 7.09,3.207 9.81,6.46 l -1.23,1.21 c -1.82,1.84 -1.65,4.94 0.39,6.98 2.04,2.04 5.15,2.21 6.97,0.39 l 8.14,-8.13 c 1.82,-1.84 1.65,-4.94 -0.4,-6.97 -1.84,-1.85 -4.51,-2.09 -6.37,-0.77 -5.58,-6.26 -2.65,-7.2 -10.01,-15.35 L 91.13,17.86 C 81.2,8.12 68.3,8.13 55.8,12 Z"
         inkscape:connector-curvature="0" />
    </clipPath>
    <!-- -->
  </defs>
  <style
     type="text/css"
     id="style29">/* Specular Highlighting */
		.low-specularity	{opacity:0.25;}
		.specularity		{opacity:0.5;}
		.high-specularity	{opacity:0.75;}
		.full-specularity	{opacity:1;}
	/* Shading */
		.low-shade	{opacity:0.25;}
		.shade		{opacity:0.5;}
		.high-shade	{opacity:0.75;}
		.full-shade	{opacity:1;}
	/* Tango palette fill/stroke */
		.black		{fill:#000;}
		.aluminium1	{fill:#eeeeec;}
		.aluminium2	{fill:#d3d7cf;}
		.aluminium6	{fill:#2e3436;}
		.chocolate3	{fill:#8f5902;}
		.chocolate2	{fill:#c17d11;}
		.aluminium4	{fill:#888a85;}
	/* Shadows: Back-Shadows &amp; Base Shadows */
		.base-shadow	{opacity:0.4;}
		.outline-big	{stroke:black;stroke-width:8;opacity:0.25;stroke-linejoin:round;}
		.outline-small	{stroke:black;stroke-width:4;opacity:0.5;stroke-linejoin:round;}
		.stroke-highlight	{fill:none;stroke:white;stroke-opacity:0.2;stroke-width:4;stroke-linejoin:round;}</style>
  <g
     id="configuration"
     transform="translate(-1.2801191,0.42686006)">
    <g
       id="hammer">
      <g
         id="g3376"
         transform="translate(0,-2.1339368)">
        <use
           height="100%"
           width="100%"
           y="0"
           x="0"
           style="opacity:0.5;stroke:#000000;stroke-width:4;stroke-linejoin:round"
           id="use50"
           class="outline-small stroke-aluminium5"
           xlink:href="#outline2" />
        <use
           height="100%"
           width="100%"
           y="0"
           x="0"
           style="opacity:0.25;stroke:#000000;stroke-width:8;stroke-linejoin:round"
           id="use48"
           class="outline-big"
           xlink:href="#outline2" />
        <path
           inkscape:connector-curvature="0"
           id="path64"
           d="m 56.43,62.25 c -1.39,-1.39 -4.48,-1.36 -5.9,0 L 9.5,101.63 c -3.74,3.59 -0.82,6.64 0.78,8.25 l 7.36,7.36 c 1.61,1.6 5.86,3.76 8.88,0.56 L 65.24,76.99 c 1.35,-1.42 1.36,-4.47 0,-5.87 0,0 0.01,-0.02 0,-0.02 l -8.81,-8.85 z"
           style="fill:#009e06;fill-opacity:1" />
        <path
           inkscape:connector-curvature="0"
           id="path66"
           d="m 10.541186,106.61576 7.36,7.37 c 1.61,1.6 5.73,3.89 8.75,0.71 l 38.87,-40.969998 c 1.35,-1.43 1.39,-4.5 0,-5.88 l -8.83,-8.84 -46.15,47.609998 z"
           class="low-shade"
           style="opacity:0.25;fill:url(#lg05)" />
        <path
           inkscape:connector-curvature="0"
           id="path68"
           d="m 50.657626,64.886441 -38.88,38.039989 c -1.62,1.56 -1.07,3.75 0.1,4.89 l 4.13,3.97 42.37,-43.599989 -3.92,-3.68 c -0.84,-0.8 -2.8,-0.57 -3.8,0.38 z"
           class="specularity"
           style="opacity:0.5;fill:url(#lg02)" />
        <use
           height="100%"
           width="100%"
           y="0"
           x="0"
           style="fill:none;stroke:#ffffff;stroke-width:4;stroke-linejoin:round;stroke-opacity:0.2"
           id="use70"
           clip-path="url(#clipoutline2)"
           class="stroke-highlight"
           xlink:href="#outline2" />
        <path
           style="fill:#d3d7cf"
           inkscape:connector-curvature="0"
           id="path52"
           d="M 82.92,35.75 53.47,65.2 62.3,74.03 91.75,44.59 82.92,35.75 Z"
           class="aluminium2" />
        <path
           inkscape:connector-curvature="0"
           id="path54"
           d="M 88.93,41.76 59.48,71.2 62.3,74.03 91.75,44.59 88.93,41.76 Z"
           class="specularity"
           style="opacity:0.5;fill:url(#lg19)" />
        <path
           inkscape:connector-curvature="0"
           id="path56"
           d="M 86.46,37.04 57.13,66.37 60.92,70.16 89.5,40.08 86.46,37.04 Z"
           style="fill:url(#lg16)" />
        <path
           style="fill:#2e3436"
           inkscape:connector-curvature="0"
           id="path58"
           d="m 55.8,12 0.76,0.16 c 8.84,-2.94 28.68,8.64 24.26,18.96 -1.12,1.62 -0.93,4.5 0.42,6.31 l 8.91,8.77 c 2.63,2.37 5.11,2.57 7.47,1.93 4.55,-1.23 7.08,3.2 9.81,6.46 l -1.23,1.21 c -1.82,1.84 -1.65,4.94 0.39,6.98 2.04,2.04 5.15,2.21 6.97,0.39 l 8.14,-8.13 c 1.82,-1.84 1.65,-4.94 -0.4,-6.97 -1.84,-1.85 -4.51,-2.09 -6.37,-0.77 -5.58,-6.26 -2.65,-7.2 -10.01,-15.35 L 91.13,17.86 C 81.2,8.12 68.3,8.13 55.8,12 Z"
           class="aluminium6" />
        <path
           inkscape:connector-curvature="0"
           id="path60"
           d="m 114.93,47.3 c -5.58,-6.26 -2.65,-7.2 -10.01,-15.35 L 91.13,17.86 C 85.44,12.28 78.77,9.9 71.77,9.6 l 41.13,41.53 2.98,-2.73 -0.95,-1.1 z"
           class="specularity"
           style="opacity:0.5;fill:url(#lg12)" />
        <path
           inkscape:connector-curvature="0"
           id="path62"
           d="m 81.45,28 c 0.05,1 -0.179,2 -0.65,3.12 -1.1,1.62 -0.91,4.5 0.44,6.31 l 8.91,8.77 c 2.63,2.37 5.11,2.57 7.47,1.93 1.08,-0.33 2.06,-0.27 2.98,0 C 103.4,48.9 81.44,27.58 81.45,27.9 l 0,0.1 z"
           class="low-specularity"
           style="opacity:0.25;fill:url(#lg09)" />
        <path
           inkscape:connector-curvature="0"
           id="path72"
           d="m 120.45,49.26 c 1.51,1.44 1.8,3.44 -0.28,5.36 l -3.87,3.63 c -2.08,1.95 -7.52,-3.25 -5.45,-5.19 l 3.88,-3.63 c 2.07,-1.95 4.21,-1.61 5.72,-0.17 z"
           style="fill:url(#lg1999)" />
      </g>
    </g>
    <path
       style="opacity:0.25;fill:url(#lgdg)"
       class="low-shade"
       d="m 70.739,65.52 4.631,4.28 c 0.38,4.32 -0.73,5.62 -7.83,11.64 l -8.6,-9.22 11.79,-6.7 0.009,0 z"
       id="path45"
       inkscape:connector-curvature="0" />
    <g
       id="spanner">
      <use
         xlink:href="#outline1"
         class="outline-big"
         id="use33"
         style="opacity:0.25;stroke:#000000;stroke-width:8;stroke-linejoin:round"
         x="0"
         y="0"
         width="100%"
         height="100%" />
      <use
         xlink:href="#outline1"
         class="outline-small"
         id="use35"
         style="opacity:0.5;stroke:#000000;stroke-width:4;stroke-linejoin:round"
         x="0"
         y="0"
         width="100%"
         height="100%" />
      <use
         xlink:href="#outline1"
         class="aluminium4"
         id="use37"
         style="fill:#888a85"
         x="0"
         y="0"
         width="100%"
         height="100%" />
      <use
         xlink:href="#outline1"
         class="stroke-highlight"
         clip-path="url(#clipoutline1)"
         id="use39"
         style="fill:none;stroke:#ffffff;stroke-width:4;stroke-linejoin:round;stroke-opacity:0.2"
         x="0"
         y="0"
         width="100%"
         height="100%" />
      <path
         style="opacity:0.5;fill:url(#lg51)"
         class="specularity"
         d="M 24.2,15.42 47.67,39.07 50.89,25.2 28.79,10.8 24.2,15.42 Z"
         id="path43"
         inkscape:connector-curvature="0" />
      <path
         style="opacity:0.75;fill:url(#lg55)"
         class="high-specularity"
         d="M 24.33,15.4 37.78,28.78 34.45,40.47 23.5,43.74 9.932,30 5.2,34.54 19.4,54.48 38.3,50.34 100.8,116.7 c 7.5,8.3 20.2,-2.67 11.14,-11.6 L 45.04,42 48.9,24.83 28.94,10.8 24.33,15.4 Z m 79.97,93.3 c 1.67,-1.67 4.63,-2 6.3,-0.3 1.7,1.67 3.06,4.63 0.65,7.84 -2,2 -5.2,1.92 -7.2,-0.24 -1.68,-1.68 -1.45,-5.6 0.25,-7.3 z"
         id="path41"
         inkscape:connector-curvature="0" />
    </g>
  </g>
  <metadata
     id="metadata74">
    <rdf:RDF>
      <cc:Work>
        <dc:format>image/svg+xml</dc:format>
        <dc:type
           rdf:resource="http://purl.org/dc/dcmitype/StillImage" />
        <cc:license
           rdf:resource="http://creativecommons.org/publicdomain/zero/1.0/" />
        <dc:publisher>
          <cc:Agent
             rdf:about="http://openclipart.org/">
            <dc:title>Openclipart</dc:title>
          </cc:Agent>
        </dc:publisher>
        <dc:title>Tools, Hammer, Spanner</dc:title>
        <dc:date>2006-08-29T17:16:52</dc:date>
        <dc:description>A very glossy yet socialist looking hammer and spanner ;-)
\n
\n[b]
\nContains internal stylesheet with configurable specularity, shade outlines and internal stroke-highlights.[/b]</dc:description>
        <dc:source>https://openclipart.org/detail/67/tools-hammer-spanner-by-andy</dc:source>
        <dc:creator>
          <cc:Agent>
            <dc:title>Andy</dc:title>
          </cc:Agent>
        </dc:creator>
        <dc:subject>
          <rdf:Bag>
            <rdf:li>build</rdf:li>
            <rdf:li>colour</rdf:li>
            <rdf:li>config</rdf:li>
            <rdf:li>contour</rdf:li>
            <rdf:li>develop</rdf:li>
            <rdf:li>glossy</rdf:li>
            <rdf:li>hammer</rdf:li>
            <rdf:li>hardware</rdf:li>
            <rdf:li>icon</rdf:li>
            <rdf:li>logo</rdf:li>
            <rdf:li>setting</rdf:li>
            <rdf:li>shiny</rdf:li>
            <rdf:li>spanner</rdf:li>
            <rdf:li>tool</rdf:li>
            <rdf:li>work</rdf:li>
          </rdf:Bag>
        </dc:subject>
      </cc:Work>
      <cc:License
         rdf:about="http://creativecommons.org/publicdomain/zero/1.0/">
        <cc:permits
           rdf:resource="http://creativecommons.org/ns#Reproduction" />
        <cc:permits
           rdf:resource="http://creativecommons.org/ns#Distribution" />
        <cc:permits
           rdf:resource="http://creativecommons.org/ns#DerivativeWorks" />
      </cc:License>
    </rdf:RDF>
  </metadata>
</svg>
