<?xml version="1.0" encoding="UTF-8" standalone="no"?>
<!-- Created with Inkscape (http://www.inkscape.org/) -->

<svg
   xmlns:dc="http://purl.org/dc/elements/1.1/"
   xmlns:cc="http://creativecommons.org/ns#"
   xmlns:rdf="http://www.w3.org/1999/02/22-rdf-syntax-ns#"
   xmlns:svg="http://www.w3.org/2000/svg"
   xmlns="http://www.w3.org/2000/svg"
   xmlns:xlink="http://www.w3.org/1999/xlink"
   xmlns:sodipodi="http://sodipodi.sourceforge.net/DTD/sodipodi-0.dtd"
   xmlns:inkscape="http://www.inkscape.org/namespaces/inkscape"
   id="svg5896"
   sodipodi:docname="openclipart_119_balloons.svg"
   inkscape:export-filename="/home/carlos/Documents/balloons.png"
   viewBox="0 0 361.31524 361.31523"
   sodipodi:version="0.32"
   inkscape:export-xdpi="300"
   version="1.0"
   inkscape:output_extension="org.inkscape.output.svg.inkscape"
   inkscape:export-ydpi="300"
   inkscape:version="0.91 r13725"
   width="361.31525"
   height="361.31525">
  <defs
     id="defs5898">
    <linearGradient
       id="linearGradient4165">
      <stop
         id="stop4167"
         style="stop-color:#d3ffa0;stop-opacity:1"
         offset="0" />
      <stop
         id="stop4169"
         style="stop-color:#70c02a;stop-opacity:0.98039216"
         offset="1" />
    </linearGradient>
    <linearGradient
       id="linearGradient4159">
      <stop
         offset="0"
         style="stop-color:#ffd5a0"
         id="stop4161" />
      <stop
         offset="1"
         style="stop-color:#70c02a;stop-opacity:0.98039216"
         id="stop4163" />
    </linearGradient>
    <linearGradient
       id="linearGradient14806">
      <stop
         id="stop14808"
         style="stop-color:#a0dfff"
         offset="0" />
      <stop
         id="stop14810"
         style="stop-color:#00a6d4;stop-opacity:.98039"
         offset="1" />
    </linearGradient>
    <linearGradient
       id="linearGradient14841">
      <stop
         id="stop14843"
         style="stop-color:#ffd5a0"
         offset="0" />
      <stop
         id="stop14845"
         style="stop-color:#ff9d22;stop-opacity:.98039"
         offset="1" />
    </linearGradient>
    <linearGradient
       id="linearGradient6752">
      <stop
         id="stop6754"
         style="stop-color:#ffa0a0"
         offset="0" />
      <stop
         id="stop6756"
         style="stop-color:#d40000;stop-opacity:.97938"
         offset="1" />
    </linearGradient>
    <radialGradient
       id="radialGradient6980"
       xlink:href="#linearGradient6752"
       gradientUnits="userSpaceOnUse"
       cy="897.65997"
       cx="125.7"
       gradientTransform="matrix(1.4554,-0.19272,0.35618,2.6899,-376.97,-1493.1)"
       r="21.995001"
       inkscape:collect="always" />
    <radialGradient
       id="radialGradient6982"
       xlink:href="#linearGradient6752"
       gradientUnits="userSpaceOnUse"
       cy="540.67999"
       cx="236.82001"
       gradientTransform="matrix(0.26118,0.34563,-0.35605,0.26906,309.64,-22.842)"
       r="352.85999"
       inkscape:collect="always" />
    <radialGradient
       id="radialGradient6984"
       xlink:href="#linearGradient4165"
       gradientUnits="userSpaceOnUse"
       cy="897.65997"
       cx="125.7"
       gradientTransform="matrix(1.4554,-0.19272,0.35618,2.6899,-376.97,-1493.1)"
       r="21.995001"
       inkscape:collect="always" />
    <radialGradient
       id="radialGradient6986"
       xlink:href="#linearGradient4165"
       gradientUnits="userSpaceOnUse"
       cy="540.67999"
       cx="236.82001"
       gradientTransform="matrix(0.26118,0.34563,-0.35605,0.26906,594.53,-88.437)"
       r="352.85999"
       inkscape:collect="always" />
    <radialGradient
       id="radialGradient6988"
       xlink:href="#linearGradient14806"
       gradientUnits="userSpaceOnUse"
       cy="897.65997"
       cx="125.7"
       gradientTransform="matrix(1.4554,-0.19272,0.35618,2.6899,-376.97,-1493.1)"
       r="21.995001"
       inkscape:collect="always" />
    <radialGradient
       id="radialGradient6990"
       xlink:href="#linearGradient14806"
       gradientUnits="userSpaceOnUse"
       cy="540.67999"
       cx="236.82001"
       gradientTransform="matrix(0.26118,0.34563,-0.35605,0.26906,436.92,5.4421)"
       r="352.85999"
       inkscape:collect="always" />
  </defs>
  <sodipodi:namedview
     id="base"
     bordercolor="#666666"
     inkscape:pageshadow="2"
     guidetolerance="10"
     pagecolor="#ffffff"
     gridtolerance="10000"
     inkscape:window-height="945"
     width="11cm"
     inkscape:zoom="0.7"
     objecttolerance="10"
     height="15.5cm"
     borderopacity="1.0"
     inkscape:current-layer="g6968"
     inkscape:cx="211.14675"
     inkscape:cy="282.33935"
     inkscape:window-y="48"
     inkscape:window-x="-8"
     inkscape:window-width="1280"
     inkscape:pageopacity="0.0"
     inkscape:document-units="px"
     showgrid="false"
     inkscape:window-maximized="1"
     fit-margin-top="0"
     fit-margin-left="0"
     fit-margin-right="0"
     fit-margin-bottom="0" />
  <g
     id="layer1"
     inkscape:label="Layer 1"
     inkscape:groupmode="layer"
     transform="translate(-41.416332,-30.414638)">
    <g
       id="g6968"
       transform="matrix(0.63864,0,0,0.63864,-20.883,8.3177)">
      <g
         id="g3365"
         transform="translate(6.1436535,0)">
        <path
           sodipodi:sides="3"
           sodipodi:r2="18.553974"
           inkscape:rounded="0.08"
           sodipodi:cx="130.30968"
           sodipodi:cy="895.78851"
           inkscape:randomized="0"
           sodipodi:arg1="-1.6902254"
           sodipodi:arg2="-0.64302775"
           transform="translate(105.37,-459.84)"
           inkscape:flatsided="true"
           sodipodi:r1="25.43499"
           d="m 127.27922,870.5347 c 3.49927,-0.41991 27.80211,32.01585 26.41613,35.25626 -1.38598,3.24042 -41.62759,8.06942 -43.74088,5.24892 -2.1133,-2.82051 13.82548,-40.08527 17.32475,-40.50518 z"
           sodipodi:type="star"
           style="fill:url(#radialGradient6980)"
           id="path14767" />
        <path
           inkscape:connector-curvature="0"
           d="m 366.13,242.56 c 0,74.13 -66.2,184.8 -134.29,184.8 -70.11,0 -134.29,-110.67 -134.29,-184.8 0.004,-74.12 60.16,-142.36 134.29,-142.36 74.13,0 134.29,68.24 134.29,142.36 z"
           style="fill:url(#radialGradient6982)"
           sodipodi:nodetypes="czzsz"
           id="path14753" />
        <path
           inkscape:connector-curvature="0"
           d="m 221.54,427.87 c 8.45,-1.75 14.4,-3.53 25.5,-0.95 56.91527,107.42001 103.22887,59.03802 108.52345,129.03596 0.8825,11.66727 -1.41,30.09 0.98,42.23"
           style="fill:none;stroke:#816647;stroke-width:3;stroke-linecap:round;stroke-linejoin:round"
           sodipodi:nodetypes="ccsc"
           id="path14790" />
        <path
           sodipodi:sides="3"
           sodipodi:r2="18.553974"
           inkscape:rounded="0.08"
           sodipodi:cx="130.30968"
           sodipodi:cy="895.78851"
           inkscape:randomized="0"
           sodipodi:arg1="-1.6902254"
           sodipodi:arg2="-0.64302775"
           transform="translate(390.26,-525.44)"
           inkscape:flatsided="true"
           sodipodi:r1="25.43499"
           d="m 127.27922,870.5347 c 3.49927,-0.41991 27.80211,32.01585 26.41613,35.25626 -1.38598,3.24042 -41.62759,8.06942 -43.74088,5.24892 -2.1133,-2.82051 13.82548,-40.08527 17.32475,-40.50518 z"
           sodipodi:type="star"
           style="fill:url(#radialGradient6984);fill-opacity:1"
           id="path14822" />
        <path
           inkscape:connector-curvature="0"
           d="m 651.02,176.97 c 0,74.12 -66.2,184.79 -134.29,184.79 -70.11,0 -134.28,-110.67 -134.28,-184.79 0,-74.13 60.16,-142.37 134.28,-142.37 74.13,10e-4 134.29,68.24 134.29,142.37 z"
           style="fill:url(#radialGradient6986);fill-opacity:1"
           sodipodi:nodetypes="czzsz"
           id="path14824" />
        <path
           inkscape:connector-curvature="0"
           d="m 506.43,362.27 c 8.46,-1.74 14.4,-3.53 25.5,-0.95 -109.69834,154.42475 -144.01152,100.39053 -168.10655,194.87596 -0.81461,3.19439 1.51,16.73 4.65,41.6"
           style="fill:none;stroke:#816647;stroke-width:3;stroke-linecap:round;stroke-linejoin:round"
           sodipodi:nodetypes="ccsc"
           id="path14826" />
        <path
           d="m 127.27922,870.5347 c 3.49927,-0.41991 27.80211,32.01585 26.41613,35.25626 -1.38598,3.24042 -41.62759,8.06942 -43.74088,5.24892 -2.1133,-2.82051 13.82548,-40.08527 17.32475,-40.50518 z"
           inkscape:flatsided="true"
           inkscape:rounded="0.08"
           sodipodi:cx="130.30968"
           sodipodi:cy="895.78851"
           inkscape:randomized="0"
           transform="translate(232.65,-431.56)"
           sodipodi:arg2="-0.64302775"
           sodipodi:arg1="-1.6902254"
           sodipodi:r2="18.553974"
           sodipodi:r1="25.43499"
           sodipodi:sides="3"
           sodipodi:type="star"
           style="fill:url(#radialGradient6988)"
           id="path14796" />
        <path
           inkscape:connector-curvature="0"
           d="m 493.4,270.85 c 0,74.12 -66.19,184.79 -134.28,184.79 -70.11,0 -134.29,-110.67 -134.29,-184.79 0,-74.13 60.16,-142.37 134.29,-142.37 74.12,0 134.28,68.24 134.28,142.37 z"
           style="fill:url(#radialGradient6990)"
           sodipodi:nodetypes="czzsz"
           id="path14798" />
        <path
           inkscape:connector-curvature="0"
           d="m 348.82,456.15 c 8.45,-1.75 14.4,-3.53 25.5,-0.95 -6.30452,88.63349 -8.7643,49.13245 -14.16655,99.14596 -0.49,4.7 2.43,28.23 1.81,44.49"
           style="fill:none;stroke:#816647;stroke-width:3;stroke-linecap:round;stroke-linejoin:round"
           sodipodi:nodetypes="cccc"
           id="path14800" />
        <path
           inkscape:connector-curvature="0"
           d="m 358.60465,554.77149 c -1.08,0.13 -1.45,0.42 -4.65,0.84 -0.83,-0.01 -1.52,0.64 -1.54,1.47 -0.01,0.83 0.64,1.52 1.47,1.53 -0.45,0.34 -1.03,0.95 -0.97,1.82 0.04,0.5 0.4,0.99 0.72,1.24 -0.01,0.08 -0.05,0.14 -0.06,0.22 -0.09,0.6 -0.21,1.4 -0.34,2.5 -0.11,0.83 0.48,1.59 1.31,1.69 0.83,0.1 1.58,-0.48 1.69,-1.31 0.08,-0.65 0.13,-0.97 0.18,-1.41 0.62,0.29 1.35,0.5 2.25,0.47 1.63,-0.05 3.59,-0.75 6.1,-2.5 0.44,-0.3 0.69,-0.81 0.65,-1.34 -0.04,-0.55 -0.43,-1.08 -0.78,-1.32 -0.07,-0.04 -0.12,-0.02 -0.18,-0.06 0.45,-0.35 0.97,-0.97 0.9,-1.81 -0.05,-0.69 -0.56,-1.26 -1.25,-1.37 -3.58,-0.6 -4.42,-0.8 -5.5,-0.66 z"
           style="fill:#816647;fill-rule:evenodd"
           id="path6930" />
      </g>
    </g>
  </g>
  <metadata
     id="metadata32">
    <rdf:RDF>
      <cc:Work>
        <dc:format>image/svg+xml</dc:format>
        <dc:type
           rdf:resource="http://purl.org/dc/dcmitype/StillImage" />
        <cc:license
           rdf:resource="http://creativecommons.org/publicdomain/zero/1.0/" />
        <dc:publisher>
          <cc:Agent
             rdf:about="http://openclipart.org/">
            <dc:title>Openclipart</dc:title>
          </cc:Agent>
        </dc:publisher>
        <dc:title></dc:title>
        <dc:date>2007-11-06T04:27:00</dc:date>
        <dc:description>Three balloons (red,blue and orange) attached together.</dc:description>
        <dc:source>https://openclipart.org/detail/7978/balloons-by-carlitos</dc:source>
        <dc:creator>
          <cc:Agent>
            <dc:title>carlitos</dc:title>
          </cc:Agent>
        </dc:creator>
        <dc:subject>
          <rdf:Bag>
            <rdf:li>balloon</rdf:li>
            <rdf:li>birthday</rdf:li>
            <rdf:li>helium</rdf:li>
            <rdf:li>kids</rdf:li>
            <rdf:li>party</rdf:li>
          </rdf:Bag>
        </dc:subject>
      </cc:Work>
      <cc:License
         rdf:about="http://creativecommons.org/publicdomain/zero/1.0/">
        <cc:permits
           rdf:resource="http://creativecommons.org/ns#Reproduction" />
        <cc:permits
           rdf:resource="http://creativecommons.org/ns#Distribution" />
        <cc:permits
           rdf:resource="http://creativecommons.org/ns#DerivativeWorks" />
      </cc:License>
    </rdf:RDF>
  </metadata>
</svg>
