<?xml version="1.0" encoding="UTF-8" standalone="no"?>
<!-- Generator: Adobe Illustrator 12.0.1, SVG Export Plug-In . SVG Version: 6.00 Build 51448)  -->

<svg
   xmlns:dc="http://purl.org/dc/elements/1.1/"
   xmlns:cc="http://creativecommons.org/ns#"
   xmlns:rdf="http://www.w3.org/1999/02/22-rdf-syntax-ns#"
   xmlns:svg="http://www.w3.org/2000/svg"
   xmlns="http://www.w3.org/2000/svg"
   xmlns:sodipodi="http://sodipodi.sourceforge.net/DTD/sodipodi-0.dtd"
   xmlns:inkscape="http://www.inkscape.org/namespaces/inkscape"
   id="Layer_1"
   xml:space="preserve"
   overflow="visible"
   viewBox="0 0 540.869 540.86904"
   version="1.1"
   enable-background="new 0 0 540.869 384.938"
   inkscape:version="0.91 r13725"
   sodipodi:docname="openclipart_131_cow.svg"
   width="540.86902"
   height="540.86902"
   style="overflow:visible"><defs
     id="defs391" /><sodipodi:namedview
     pagecolor="#ffffff"
     bordercolor="#666666"
     borderopacity="1"
     objecttolerance="10"
     gridtolerance="10"
     guidetolerance="10"
     inkscape:pageopacity="0"
     inkscape:pageshadow="2"
     inkscape:window-width="1280"
     inkscape:window-height="660"
     id="namedview389"
     showgrid="false"
     inkscape:zoom="0.8670342"
     inkscape:cx="203.09307"
     inkscape:cy="200.17258"
     inkscape:window-x="1272"
     inkscape:window-y="-8"
     inkscape:window-maximized="1"
     inkscape:current-layer="g3" /><g
     id="g3"
     style="clip-rule:evenodd;fill-rule:evenodd"
     transform="translate(0,77.969417)"><path
       d="m 51.392,66.646 c 2.9,0.18 2.41,4.753 -1,4 -0.127,-1.794 1.224,-2.109 1,-4 z"
       id="path5"
       style="fill:#804400"
       inkscape:connector-curvature="0" /><path
       d="m 9.392,86.646 c -0.437,1.23 -1.28,2.054 -3,2 -0.468,-2.134 1.428,-1.905 3,-2 z"
       id="path7"
       style="fill:#804400"
       inkscape:connector-curvature="0" /><path
       d="m 488.39,218.65 c 3.2,0.234 2.292,6.486 -1,6 1.49,-3.05 -0.33,-3.89 1,-6 z"
       id="path9"
       style="fill:#804400"
       inkscape:connector-curvature="0" /><path
       d="m 466.39,250.65 2,0 0,2 -2,0 0,-2 z"
       id="path11"
       style="fill:#804400"
       inkscape:connector-curvature="0" /><path
       d="m 538.39,264.65 c 1.23,0.437 2.054,1.279 2,3 -1.23,-0.44 -2.05,-1.28 -2,-3 z"
       id="path13"
       style="fill:#804400"
       inkscape:connector-curvature="0" /><path
       d="m 396.39,269.65 c 0.732,-1.78 1.818,-0.145 3,0 -0.73,1.78 -1.82,0.14 -3,0 z"
       id="path15"
       style="fill:#804400"
       inkscape:connector-curvature="0" /><path
       d="m 517.39,269.65 c 0.65,-2.819 1.161,2.304 1,3 -0.46,2.01 -1.88,0.8 -1,-3 z"
       id="path17"
       style="fill:#804400"
       inkscape:connector-curvature="0" /><path
       d="m 184.39,343.65 c 2.964,1.453 -1.317,3.9 0,7 -3.63,-0.67 -1.62,-5.82 0,-7 z"
       id="path19"
       style="fill:#804400"
       inkscape:connector-curvature="0" /><path
       d="m 179.39,347.65 2,0 0,2 -2,0 0,-2 z"
       id="path21"
       style="fill:#804400"
       inkscape:connector-curvature="0" /><path
       d="m 190.39,351.65 2,0 0,2 -2,0 0,-2 z"
       id="path23"
       style="fill:#804400"
       inkscape:connector-curvature="0" /><path
       d="m 87.392,12.646 c 2.565,3.435 5.977,6.023 9,9 l -0.5,1.5 0.5,1.5 c -1.616,5.208 6.166,3.662 5,11 l -0.5,1 0.5,1 c -0.557,1.89 -2.36,6.027 1,5 -1,-5 0.5,-5.5 0.5,-5.5 l -0.5,-1.5 c 1.163,0.163 1.779,-0.221 2,-1 l 1,0.5 1,0.5 c 3.288,0.664 2.392,3.957 6,2 -2.274,0.726 0.921,6.921 -3,6 -0.1,3.1 0.453,5.547 2,7 3.493,-1.217 0.987,-3.763 4,-4 1.342,0.658 1.862,2.138 2,4 l 2,0 0.5,1.5 1.5,-0.5 c -0.282,1.615 0.945,1.722 1,3 l 3,0 0.5,1.5 1.5,-0.5 c 1.228,1.772 0.729,5.271 3,6 -0.519,3.295 -1.495,4.997 0,7 l 1,0.5 1,-0.5 0,2 -0.5,1.5 1.5,-0.5 c -0.908,3.278 -7.426,8.698 -2,12 2.034,-4.008 3.646,-5.208 6,-7 -2.195,-2.295 1.526,-4.295 -2,-6 4.239,-1.095 2.674,-7.992 6,-10 -1.361,-4.69 -3.491,-8.257 -2,-13 1.017,0.65 1.034,2.299 3,2 l 0,-2 1,0.5 1,-0.5 c 7.506,4.161 16.576,6.758 24,11 l -0.5,1 0.5,1 c -3.082,5.585 -5.991,11.342 -14,12 -3.674,1.993 -4.075,7.258 -7,10 -2.238,2.831 -4.123,-0.191 -6,3 0.487,6.513 3.973,10.027 7,14 4.975,15.882 -3.16,24.667 -7,37 -2.6,1.275 -3.016,2.194 -6,1 -8.019,5.981 -5.799,22.201 -14,28 -6.021,-4.082 -12.807,-12.387 -9,-23 -5.245,-2.422 -5.657,-9.676 -11,-12 -0.665,-9.001 -3.345,-15.989 -8,-21 1.689,-3.978 0.785,-10.548 1,-16 -5.502,-6.081 -12.394,0.699 -17,6 -2.483,-2.169 -5.444,-1.601 -8,1 -1.534,-5.942 1.101,-14.731 -3,-20 l 1,0 0,-1 c 0.973,-0.027 0.776,-1.224 1,-2 l 1.5,0.5 -0.5,-1.5 c 2.689,0.689 1.933,-2.067 3,-3 l 1.5,-0.5 -0.5,-1.5 c 5.009,-0.324 6.202,-4.465 10,-6 -10,6 -11.5,6.5 -11.5,6.5 l 0.5,1.5 c -1.313,0.353 -1.573,1.761 -3,2 l -1.5,-0.5 0.5,1.5 c -1.163,-0.163 -1.779,0.221 -2,1 l -1,0 0,1 c -3.21,-3.092 -1.39,-5.587 -3,-8 -1.815,-2.721 -5.686,-2.75 -7,-6 l 2,0 0,-2 c -1.169,-2.615 3.085,-4.301 -1,-4 l -1.5,-0.5 -1.5,0.5 c 0.409,-2.409 -1.826,-2.174 -1,-5 l 1,0 0,-1 c 1.086,0.247 0.678,1.988 2,2 -0.725,-3.059 1.725,-2.941 1,-6 l -3,0 0.5,-1.5 -1.5,0.5 0,-3 1.5,0.5 0.5,-1.5 c 3.572,-0.428 5.488,-2.512 7,-5 l 1.833,0.5 1.167,-1.5 c 2.007,0.34 3.129,-0.205 3,-2 l -2,0 c -1,2 -2.833,1.5 -2.833,1.5 l -1.167,1.5 c -2.882,0.451 -3.128,3.539 -7,3 l 0.5,-1.5 -1.5,-0.5 c 2.687,-9.98 9.727,-15.606 14,-24 l 1.5,0.5 0.5,-1.5 c 2.919,-0.514 8.608,2.074 14,0 0.86,-0.807 0.594,-2.739 2,-3 l 0.5,1.5 1.502,-0.504 z m -22,15 3,0 0,4 c 6.304,1.304 6.406,-3.594 9,-6 -4.247,1.707 -9.375,-2.255 -12,2 z m 31,14 c 0.299,-1.966 -1.35,-1.983 -2,-3 0.776,-0.224 1.973,-0.027 2,-1 -2.305,-0.944 -3.225,-0.065 -7,-1 0.42,3.58 3.188,4.812 7,5 z m -22,3 c 0.804,0.529 1.624,1.043 3,1 1.426,-2.97 -3.384,-6.219 -3,-2 l -1.5,-0.5 0.5,1.5 c -3.081,-0.748 -1.219,3.448 -5,2 l -1.5,-0.5 0.5,1.5 c -2.072,0.595 -6.569,-1.236 -7,1 2.833,1.042 4.167,1.042 7,0 l 1.5,0.5 -0.5,-1.5 c 3.19,0.857 3.093,-1.574 5,-2 l 1,0 0,-1 z m -11,14 2,0 c 0.61,-0.057 1.184,-0.149 1,-1 -1.322,-0.012 -0.914,-1.753 -2,-2 0.043,1.376 -0.471,2.196 -1,3 z m 13,1 c 1.542,-3.019 -5.174,-2.631 -5,-1 2.318,-0.319 3.839,0.161 5,1 z m 48.998,53.004 c -1.086,-0.247 -0.678,-1.988 -2,-2 -0.323,7.728 -7.355,22.127 -4,28 -0.541,-0.946 0.523,-1.952 1,-2 l 0,1 1,0 c 1.869,-1.958 3.663,-0.309 6,0 2.414,-6.666 1.743,-9.823 -1,-15 0.893,-2.198 4.042,-7.876 0,-9 l 0.5,-1.5 -1.5,0.5 z"
       id="path25"
       style="fill:#804400"
       inkscape:connector-curvature="0" /><path
       d="m 256.89,67.646 -0.5,-1 24,0 -0.5,1.5 1.5,0.5 0,2 c 4.133,-2.615 9.741,2.463 11,-2 l 1.667,0 1.333,1 c 2.433,0.841 9.484,3.335 10,0 l 1.5,-0.5 -0.5,-1.5 c 3.675,0.325 8.854,-0.853 11,1 l -0.5,1 0.5,1 0,2 c 2.279,0.279 3.759,-0.241 4,-2 l 1.5,-0.5 -0.5,-1.5 c 20.848,0.761 39.019,-0.047 58,1 l -0.5,1.5 1.5,0.5 c -7.2,4.133 -9.854,12.813 -11,23 -6.953,1.742 -11.165,10.335 -19,8 -5.993,6.053 -0.55,13.243 3,18 1.363,8.392 -6.469,19.154 -1,24 3.606,3.195 7.698,8.048 12,11 1.512,7.314 -5.981,13.012 -8,20 -5.124,2.543 -10.081,5.252 -12,11 -9.073,-0.192 -18.946,2.719 -27,1 -0.959,-0.205 -2.783,-2.042 -4,-2 -9.563,0.325 -16.64,9.791 -28,7 -5.904,5.769 -22.373,6.286 -33,4 -3.008,1.008 -1.772,-2.228 -2,-4 -7.464,-3.869 -12.08,-10.587 -16,-18 1.206,-7.065 -1.075,-16.768 -4,-25 -0.102,-2.565 -3.727,-1.607 -5,-3 0.435,-8.101 -6.12,-9.214 -7,-16 -0.989,-3.989 2.989,-3.011 2,-7 -2.323,-5.794 -6.574,-12.314 -5,-19 9.309,-7.374 22.704,-5.947 36,-7 1.632,-3.701 1.048,-9.618 5,-11 -3.954,-3.974 -2.585,-11.742 -1,-18 l 0.5,-1.004 z m 57.5,13 c -2.259,-0.56 1.213,-1.56 -1,-3 -3.863,3.051 -3.134,-1.166 -7,1 4.149,3.504 -2.541,2.855 0,6 -0.162,-1.163 0.221,-1.779 1,-2 7,-1 7.5,0.5 7.5,0.5 l 1.5,-0.5 c 2.09,0.577 2.648,1.686 4,2 -4,-2 -4.5,-3.5 -4.5,-3.5 l -1.5,0.5 c 0,0 -2.7,0.362 0,-1 z"
       id="path27"
       style="fill:#804400"
       inkscape:connector-curvature="0" /><path
       d="m 74.892,7.146 -1.5,-0.5 0,-2 1.5,0.5 0.5,-1.5 c 5.322,-1.615 4.508,4.867 -1,5 l 0.5,-1.5 z"
       id="path29"
       style="fill:#804400"
       inkscape:connector-curvature="0" /><path
       d="m 40.892,23.146 1.5,0.5 c -2.812,5.855 -7.768,9.566 -9,17 l -1.167,-1.5 -1.833,0.5 c -0.466,-5.799 0.156,-10.511 3,-13 -4.514,1.153 -3.762,7.572 -9,8 -1.355,-3.868 -3.521,-1.76 -6,-4 0.495,0.447 1.201,-1.627 1,-2 -0.083,-0.153 -2.663,-0.554 -3,-1 0.3,0.397 -0.13,-4.165 -3,-4 l 0.5,-1.833 -1.5,-1.167 c 0.498,-5.835 10.86,-1.807 16,-3 l 1.5,0.5 -0.5,-1.5 c 4.73,0.937 7.905,3.428 12,5 l -0.5,1.5 z"
       id="path31"
       style="fill:#804400"
       inkscape:connector-curvature="0" /><path
       d="m 31.558,41.146 1.833,-0.5 0,1 -1.833,-0.5 -1.167,-1.5 1.167,1.5 z"
       id="path33"
       inkscape:connector-curvature="0" /><path
       d="m 1.892,91.146 0.5,-1.5 c 3.553,-1.957 4.024,0.916 4,5 4.331,-0.998 5.549,1.117 8,2 l 0.5,1.5 1.5,-0.5 c 0.888,1.778 2.792,2.542 2,6 l -1.5,-0.5 -0.5,1.5 c -6.196,-1.994 -16.607,-2.582 -16,-14 l 1.5,0.496 z"
       id="path35"
       style="fill:#804400"
       inkscape:connector-curvature="0" /><path
       d="m 16.892,95.146 -1.5,-0.5 c -0.319,-2.319 0.161,-3.839 1,-5 5.062,2.898 5.306,-4.266 10,-1 1.943,4.322 -4.578,7.812 -10,8 l 0.5,-1.5 z"
       id="path37"
       style="fill:#804400"
       inkscape:connector-curvature="0" /><path
       d="m 141.22,226.15 1.167,-1.5 c 2.706,2.294 5.467,4.533 7,8 l -1.5,1.167 0.5,1.833 c -7.145,0.812 -6.638,-6.029 -9,-10 l 1.83,0.5 z"
       id="path39"
       style="fill:#804400"
       inkscape:connector-curvature="0" /><path
       d="m 150.22,236.15 1.167,-1.5 c 3.562,-0.229 5.229,1.438 5,5 0.934,-0.733 1.515,-1.818 2,-3 l 1.5,0.5 0.5,-1.5 c 1.604,2.729 4.38,4.287 4,9 l -1.5,-0.5 -0.5,1.5 c -0.851,-0.184 -0.943,0.39 -1,1 l -1.5,-0.5 0.5,1.5 c -5.722,-2.278 -9.698,-6.302 -12,-12 l 1.83,0.5 z"
       id="path41"
       style="fill:#804400"
       inkscape:connector-curvature="0" /><path
       d="m 176.89,296.15 0.5,-1.5 c 5.904,-1.237 3.337,5.996 7,7 l -0.5,1.5 1.5,0.5 c -2.027,1.64 -3.257,4.076 -3,8 l -1.833,-0.5 -1.167,1.5 c -1.814,-5.187 -1.875,-12.125 -4,-17 l 1.5,0.5 z"
       id="path43"
       style="fill:#804400"
       inkscape:connector-curvature="0" /><path
       d="m 171.56,354.15 1.833,-0.5 c 3.074,2.26 5.612,5.055 10,6 l 0.5,1.5 1.5,-0.5 c 1.643,3.206 3.344,2.551 7,2 l 0.5,1.5 1.5,-0.5 c 2.321,2.306 -1.851,3.225 -1,7 -10.178,0.271 -30.718,2.894 -35,-6 2.188,-5.812 6.051,-9.949 12,-12 l 1.17,1.5 z"
       id="path45"
       inkscape:connector-curvature="0" /><path
       d="m 195.89,354.15 -1.5,-0.5 c 0.416,-5.997 5.327,-5.441 9,-6 -0.704,-3.847 0.834,-9.243 -3,-7 -2.709,-0.903 2.286,-2.237 2,-4 l 1.833,0.5 1.167,-1.5 c 6.249,-2.211 8.624,6.204 17,5 -0.599,-2.599 0.401,-3.599 3,-3 l 0,-3 1.5,0.5 0.5,-1.5 c 2.662,5.729 1.908,10.092 4,15 -3.875,6.792 -18.87,2.463 -22,10 -4.708,-0.958 -9.365,-1.969 -14,-3 l 0.5,-1.5 z"
       id="path47"
       inkscape:connector-curvature="0" /><path
       d="m 199.89,298.81 -1.5,-1.167 c 0.553,-1.78 0.514,-4.153 2,-5 l 1.5,0.5 1.5,-0.5 c -0.169,4.217 1.536,-0.018 3,0 0.247,5.773 4.45,12.856 2,18 0.163,-1.162 -0.221,-1.779 -1,-2 l -0.25,-1.75 -1.75,-0.25 c -1.622,-2.378 -3.973,-4.027 -6,-6 l 0.5,-1.83 z"
       id="path49"
       style="fill:#804400"
       inkscape:connector-curvature="0" /><path
       d="m 204.89,269.15 -1.5,0.5 c -0.592,-9.438 0.711,-19.328 2,-29 8.025,0.194 12.202,-0.226 22,-1 l -0.5,1.5 1.5,0.5 c -0.661,2.672 -0.419,6.248 -2,8 l -0.5,-1.5 -1.5,0.5 0,-3 c -1.409,1.605 -3.666,1.353 -6,4 l -1.5,-0.5 0.5,1.5 c -1.135,0.19 -0.555,1.003 0,1 0.247,1.086 1.988,0.679 2,2 -1.964,3.1 -4.998,-3.438 -6,-1 -1.718,2.204 2.908,7.82 -1,10 1.627,4.039 3.635,7.698 4,13 -4.628,-1.626 -1.401,8.227 1,10 -4.416,-3.289 -0.471,12.46 1,4 -0.308,3.358 1.335,8.668 -3,8 -6.109,-6.225 -4.712,-19.954 -10,-27 l -0.5,-1.5 z"
       id="path51"
       style="fill:#804400"
       inkscape:connector-curvature="0" /><path
       d="m 369.89,247.15 0.5,1.5 c -2.411,4.256 -5.239,8.095 -13,7 0.188,-2.812 3.263,-2.737 4,-5 l -7,0 c -0.81,0.19 -0.997,1.003 -2,1 l -0.5,-1.5 -1.5,0.5 1.5,-1.167 -0.5,-1.833 c 0.027,-0.973 1.224,-0.776 2,-1 2.669,-2.58 -2.302,-1.052 -1,-5 4.293,-0.626 6.442,0.891 8,3 2.602,-3.154 -3.04,-5.556 1,-8 -3.422,1.632 -3.005,-0.119 -5,-2 l 0.5,-1.5 -0.5,-1.5 c 3.531,-2.013 1.603,-3.27 4,-6 10.91,1.647 15.309,-11.166 26,-13 l -0.5,1.5 0.5,1.5 c -3.877,5.79 -11.16,8.174 -11,18 -2.665,1.002 -3.297,4.036 -5,6 5.363,0.431 -3.113,4.51 1,7 l -1.5,0.5 z"
       id="path53"
       style="fill:#804400"
       inkscape:connector-curvature="0" /><path
       d="m 347.39,249.15 1,1.5 c -0.848,2.748 -3.622,6.878 -7,4 l 0.5,-1 -0.5,-1 c -1.119,-5.452 5.207,-3.459 6,-7 0.973,0.027 0.776,1.224 1,2 l -1,1.5 z"
       id="path55"
       style="fill:#804400;stroke:none"
       inkscape:connector-curvature="0" /><path
       d="m 444.22,282.15 1.167,-1.5 c 1.656,1.011 1.086,4.247 2,6 l -1.786,-0.357 -1.214,1.357 c -4.658,-0.88 0.675,3.296 -2,3 0.184,-0.851 -0.39,-0.943 -1,-1 l -1.5,-0.5 -1.5,0.5 c -1.158,-1.479 -1.158,-2.521 0,-4 l -12,0 c 0.351,6.018 0.126,11.459 -3,14 -3.056,0.723 -3.645,-1.022 -6,-1 l 0.5,-1.5 -1.5,-0.5 c 1.621,-4.422 0.114,-8.74 1,-12 l -0.5,-1 -0.5,-1 c 2.518,-3.229 5.577,0.085 8,-2 -1.172,-0.161 -0.844,-1.823 -1,-3 2.729,0.729 2.013,-1.987 4,-2 l 0,1 1,0 c 0.807,0.693 2.739,1.556 3,0 -0.81,-0.19 -0.997,-1.003 -2,-1 l 0.5,-1.5 -1.5,-0.5 c 0.19,-0.81 1.003,-0.997 1,-2 l 1.5,0.5 -0.5,-1.5 c 4.178,-0.512 6.775,0.558 9,2 l -0.5,1 0.5,1 c -0.812,3.458 1.867,4.222 0,6 2.688,-1.782 1.933,4.404 3,1 l 1.83,0.5 z"
       id="path57"
       style="fill:#804400"
       inkscape:connector-curvature="0" /><path
       d="m 424.89,363.15 1.5,-0.5 c 0.282,1.615 -0.945,1.722 -1,3 3.407,2.593 6.281,5.719 12,6 0.429,1.904 2.154,2.513 2,5 2.677,-4.63 1.241,2.242 5,2 5.501,-1.532 3.861,-8.858 1,-12 2.772,-2.407 6.672,-1.456 12,-3 l 1.167,1.5 1.833,-0.5 0,7 c -2.829,3.504 -7.707,4.959 -8,11 -12.693,-0.38 -25.932,4.548 -42,1 1.162,-10.838 8.905,-15.095 14,-22 l 0.5,1.5 z"
       id="path59"
       inkscape:connector-curvature="0" /><path
       d="m 481.39,270.65 -2,1 c -1.172,-0.161 -0.844,-1.823 -1,-3 l 1.5,0.5 0.5,-1.5 1,0 c 1.357,-0.31 0.83,-2.504 1,-4 9.204,-3.129 10.711,-13.956 17,-20 l 1.167,1.5 1.833,-0.5 c -0.445,3.563 -3.087,11.449 2,12 -1.723,-8.075 4.179,-13.796 1,-20 0.184,0.851 -0.39,0.943 -1,1 l -1.167,-1.5 -1.833,0.5 c 1.288,-5.046 0.901,-11.765 3,-16 l 1.167,1.5 1.833,-0.5 c 0.609,2.391 -1.255,7.256 1,8 -0.207,-2.874 0.254,-5.08 2,-6 l 1.167,1.5 1.833,-0.5 c -0.979,4.646 1.296,6.037 2,9 l -1,-0.5 -1,0.5 c -3.86,2.363 -1.085,8.742 -1,13 -2.604,6.281 -3.848,9.937 -4,17 0.903,2.729 2.237,-3.042 4,0 -1.879,1.454 -0.121,6.546 -2,8 3.444,10.194 5.25,23.029 8,35 2.109,9.183 5.405,18.31 10,25 2.643,-7.99 -1.969,-17.354 -3,-25 l 1.833,0.5 1.167,-1.5 c 2.97,2.03 3.225,6.775 7,8 l 1.167,1.5 1.833,-0.5 c -4.504,15.829 -5.707,34.96 -16,45 l -1.5,-0.5 0.5,1.5 c -3.509,-1.491 -5.675,-4.325 -5,-10 2.823,-1.58 4.247,1.15 7,-1 -2.474,-5.962 -6.814,-10.668 -9,-18 -1.836,-6.159 -1,-13.338 -3,-19 -1.034,-2.928 -4.615,-5.883 -6,-9 -1.853,-4.169 -0.719,-7.025 -5,-10 l 0,3 -1.5,-0.5 -0.5,1.5 c -2.064,-2.936 -2.789,-7.211 -4,-11 l 1.5,0.5 -0.5,-1.5 c 1.162,0.162 1.779,-0.221 2,-1 l 1.5,0.5 1.5,-0.5 c 2.059,0.274 0.941,3.726 3,4 -1.139,-10.104 1.188,-26.023 -7,-31 -1.688,4.979 -6.31,7.024 -7,13 l -1.5,-0.5 -0.5,1.5 c -2.08,-2.17 -3.232,0.122 -5,1 l -1,-2 z"
       id="path61"
       style="fill:#804400"
       inkscape:connector-curvature="0" /><path
       d="m 471.89,235.15 -1.5,0.5 c -2.055,0.872 -1.996,-5.088 -3,-2 -1.789,-3.219 5.052,-2.841 4,-10 l 1.5,0.5 -0.5,-1.5 c 1.241,-3.092 2.466,-6.2 5,-8 -0.013,-2.806 -2.729,2.381 -2,-2 1.982,-3.685 5.181,-6.152 7,-10 -1.047,-4.286 -6.111,-4.556 -10,-6 -1.265,-12.63 -4.053,-17.12 0,-29 -6.377,-0.368 -12.911,-3.68 -20,-6 -6.445,-8.999 -1.487,-17.174 2,-26 -2.36,-2.407 -5.83,-5.246 -3,-10 -0.91,-1.757 -3.504,-1.829 -5,-3 l 0,-12 c -8.665,3.399 -17.214,2.092 -27,3 -1.789,-1.877 -3.571,-3.762 -5,-6 0.901,-5.432 3.364,-9.302 3,-16 -4.216,-6.118 -5.807,-14.859 -10,-21 l -4,0 0,-1 -1,0 c 6.128,-1.431 14.596,-2.797 20,-2 l 0.5,1.5 1.5,-0.5 c 3.464,4.874 12.143,0.135 16,-1 l 0.5,0.5 0.5,0.5 c 5.619,-1.769 6.546,1.863 10,0 l 0.5,0.5 0.5,0.5 c 2.348,0.319 3.754,1.58 7,1 l 1.5,-0.5 -0.5,-1.5 2,0 0,-2 1.357,-1.214 -0.357,-1.786 c 16.395,1.761 34.81,-2.729 47,5 6.143,3.895 8.094,11.056 14,15 l -1.5,1.167 0.5,1.833 -1,0 c 0.745,3.078 -2.745,1.922 -2,5 2.729,-0.729 2.013,1.987 4,2 l 1.167,1.5 1.833,-0.5 c 0.051,32.347 -0.824,45.009 -1,75 l -1,-0.5 -1,0.5 c -3.18,-1.154 -0.617,-8.049 -6,-7 l -1.167,-1.5 -1.833,0.5 c -0.609,-2.391 1.255,-7.255 -1,-8 -0.281,20.385 -7.217,34.117 -7,55 l -1.833,-0.5 -1.167,1.5 c -3.766,-6.303 1.368,-18.743 -2,-27 -2.538,1.795 0.994,9.661 -3,10 -1.987,-0.013 -1.271,-2.729 -4,-2 -0.908,2.759 -0.311,7.022 -2,9 -0.86,-0.807 -0.594,-2.739 -2,-3 -1.854,0.879 -6.833,3.744 -4,6 0.247,-1.258 1.988,-1.009 2,0 -0.691,2.857 -5.204,4.896 -1,7 -2.251,2.115 -2.858,6.47 -5,6 1.357,0.31 0.83,2.504 1,4 l -1,0 0,1 c -0.81,-0.19 -0.997,-1.003 -2,-1 0.479,3.146 -1.424,3.909 -2,6 l 0.5,0.5 0.5,0.5 c -2.575,3.425 -4.749,7.251 -8,10 l -0.5,-1.5 z m 31.5,-135.5 c -0.961,-0.404 0.425,-3.681 -1,-5 -1.145,-1.06 -11.369,-2.108 -16,-4 -0.876,-0.358 0.171,-1.996 -2,-2 -1.016,-0.002 -1.035,2.792 -3,2 -1.597,-7.564 -13.561,0.024 -22,0 -0.967,-0.003 -3.263,-1.911 -4,-2 -6.887,-0.828 -12.835,1.285 -19,0 0.086,1.419 0.165,2.832 -1,3 -0.67,-2.454 -5.819,-3.063 -7,-2 -0.895,4.562 3.288,4.045 6,5 1.086,-0.247 0.679,-1.988 2,-2 7.909,3.927 15.111,2.375 22,7 0.912,-4.421 6.695,-3.972 10,-6 0.715,0.123 1.604,2.534 3,3 -0.715,-0.239 0.613,-2.04 1,-2 0.946,0.098 1.266,1.697 3,2 5.853,1.021 15.603,-0.255 19,1 -2.857,-0.521 1.614,-1.479 2,-2 0.658,2.675 3.672,2.995 5,5 l -0.5,1.5 0.5,1.5 c 0.189,0.81 1.003,0.997 1,2 l 0.5,1 0.5,1 c -7.931,1.736 -11.881,7.453 -20,9 -1.059,3.726 2.105,3.228 3,5 l -1,0 0,1 c -1.553,4.219 5.553,-0.219 4,4 l -1.5,-0.5 0.5,1.5 c -1.497,1.753 -4.174,-0.883 -5,3 0.934,0.733 1.515,1.818 2,3 -3.114,-1.105 -3.574,-0.645 -2,2 -4.558,-2.055 -6.029,4.481 -11,5 0.551,-2.051 -1.909,-2.386 -2,-1 4.473,2.857 -1.012,4.141 -1,8 2.984,-0.016 3.4,-2.6 6,-3 l 0.5,1.5 0.5,-1.5 c 4.3,-0.7 2.365,-7.635 9,-6 -0.086,-1.419 -0.165,-2.832 1,-3 1.615,-0.282 1.722,0.945 3,1 -0.503,-5.271 5.506,-5.57 3,-10 l -0.5,-1 -0.5,-1 c 6.521,-1.146 4.036,-11.297 11,-12 -2.3,-0.789 1.721,-3.498 2,-5 l 1.5,-0.5 -0.5,-1.5 c 1.23,-0.437 2.054,-1.28 2,-3 -0.805,-0.529 -1.623,-1.043 -3,-1 l 0.5,-1.5 -1.5,-0.504 z m -26,24.004 1,0 0,-2 -2,0 0,2 -1.5,-0.5 0.5,1.5 -1,0 c 0.547,1.453 -1.169,5.168 1,5 -0.172,-4.214 2.239,-0.686 3,0 -0.083,-1.583 0.48,-3.814 -1,-4 l 0.5,-1 -0.5,-1 z"
       id="path63"
       style="fill:#804400"
       inkscape:connector-curvature="0" /><path
       d="m 470.39,222.65 0,1 c 0.367,1.701 -0.78,1.887 -2,2 0.798,-1.868 1.671,-3.662 2,-6 1.172,0.161 0.844,1.823 1,3 l -1,0 z"
       id="path65"
       style="fill:#804400"
       inkscape:connector-curvature="0" /><path
       d="m 526.56,305.15 -1.167,1.5 c -2.386,-4.797 -8.65,-10.434 -5,-18 5.999,2.334 6.629,10.037 8,17 l -1.83,-0.5 z"
       id="path67"
       style="fill:#804400"
       inkscape:connector-curvature="0" /><path
       d="m 520.89,366.15 1.5,-0.5 c -2.884,2.782 -3.565,7.769 -5,12 -10.911,2.272 -22.251,0.169 -32,0 -2.391,-11.653 10.992,-15.482 15,-24 l 0.5,1.5 1.5,0.5 0,3 c 2.884,4.116 6.908,7.092 12,9 1.727,-0.606 -0.077,-4.743 2,-5 3.781,-1.447 1.919,2.748 5,2 l -0.5,1.5 z"
       id="path69"
       inkscape:connector-curvature="0" /><path
       d="m 441.56,298.15 -1.167,1.5 c -0.81,-0.19 -0.997,-1.003 -2,-1 l 0,-5 1.5,0.5 0.5,-1.5 c 1.644,2.417 5.113,2.291 3,6 l -1.83,-0.5 z"
       id="path71"
       style="fill:#804400"
       inkscape:connector-curvature="0" /><path
       d="m 224.89,300.15 1.5,-0.5 c -1.092,2.908 -0.936,7.064 -3,9 l -0.5,-1.5 -1.5,-0.5 c 0.745,-3.078 -2.745,-1.922 -2,-5 2.58,-0.086 1.052,-4.281 5,-3 l 0.5,1.5 z"
       id="path73"
       style="fill:#804400"
       inkscape:connector-curvature="0" /><path
       d="m 429.39,268.65 c -1.357,-0.31 -0.83,-2.504 -1,-4 5.107,1.281 1.058,-2.914 3,-3 3.314,0.686 4.533,3.467 5,7 -2.465,-0.132 -4.818,-0.151 -6,1 l 0,-1 -1,0 z"
       id="path75"
       style="fill:#804400"
       inkscape:connector-curvature="0" /><path
       d="m 138.39,62.646 c -3.37,-4.056 2.04,-8.179 0,0 z"
       id="path77"
       style="fill:#804400"
       inkscape:connector-curvature="0" /><path
       d="m 134.39,47.646 c 2.578,0.241 -1.373,1.721 0,4 -2.49,-0.15 -0.29,-3.386 0,-4 z"
       id="path79"
       style="fill:#804400"
       inkscape:connector-curvature="0" /><path
       d="m 122.39,123.65 c 0.292,-3.723 2.487,2.943 0,2 -1.66,2.35 0.09,-0.37 0,-2 z"
       id="path81"
       style="fill:#804400"
       inkscape:connector-curvature="0" /><path
       d="m 461.39,245.65 c -0.388,3.612 -1.327,6.673 -3,9 l -0.5,-1.5 -1.5,0.5 c -2.279,1.373 -3.759,-2.578 -4,0 -3.104,-4.807 5.857,-6.115 7,-10 l 0.5,1.5 1.5,0.5 z"
       id="path83"
       style="fill:#804400"
       inkscape:connector-curvature="0" /><path
       d="m 420.39,256.65 c -2.07,-0.83 0.53,0.02 0,0 z"
       id="path85"
       inkscape:connector-curvature="0" /><path
       d="m 467.39,259.65 c 0.558,-2.068 3.869,1.349 3,4 -2.76,0.42 -0.94,-3.73 -3,-4 z"
       id="path87"
       style="fill:#804400"
       inkscape:connector-curvature="0" /><path
       d="m 425.39,273.65 c 4.29,-0.74 -7.72,1.31 0,0 z"
       id="path89"
       inkscape:connector-curvature="0" /><g
       id="g91"
       style="fill:none;stroke:#000000;stroke-linecap:round"><path
         d="m 521.39,239.15 c 2.551,-3.437 1.975,-8.194 2,-12.5"
         id="path93"
         style="stroke:#804400;stroke-width:2.13940001"
         inkscape:connector-curvature="0" /><path
         d="m 321.89,237.65 c 3.664,-0.699 7.083,-1.935 11,-1"
         id="path95"
         style="stroke:#804400;stroke-width:2.44020009"
         inkscape:connector-curvature="0" /><path
         d="m 308.89,239.65 4.5,0"
         id="path97"
         style="stroke:#804400;stroke-width:2.12129998"
         inkscape:connector-curvature="0" /><path
         d="m 294.89,241.65 c 2.12,-0.104 4.479,-1.191 6.5,0"
         id="path99"
         style="stroke:#804400;stroke-width:1.56889999"
         inkscape:connector-curvature="0" /><path
         d="m 305.89,258.65 c 2.306,-0.096 4.671,0.062 7,0"
         id="path101"
         style="stroke:#804400;stroke-width:2.13809991"
         inkscape:connector-curvature="0" /><path
         d="m 192.89,285.15 c 3.034,-6.445 -0.027,-13.227 0,-20"
         id="path103"
         style="stroke:#804400;stroke-width:2.60459995"
         inkscape:connector-curvature="0" /><path
         d="m 189.39,271.15 c 0.315,-1.773 -0.529,-3.368 -1,-5"
         id="path105"
         style="stroke:#804400;stroke-width:1.93060005"
         inkscape:connector-curvature="0" /><path
         d="m 468.89,279.15 c 1.125,0.466 2.143,1.187 3,1.5"
         id="path107"
         style="stroke:#804400;stroke-width:2"
         inkscape:connector-curvature="0" /><path
         d="m 466.89,282.15 c 0.242,-1.376 0.784,-2.106 2,-3"
         id="path109"
         style="stroke:#804400;stroke-width:2.48329997"
         inkscape:connector-curvature="0" /><path
         d="m 468.89,279.15 0,-3"
         id="path111"
         style="stroke:#804400;stroke-width:3.08220005"
         inkscape:connector-curvature="0" /><path
         d="m 455.39,285.15 0,-2"
         id="path113"
         style="stroke:#804400;stroke-width:2.08170009"
         inkscape:connector-curvature="0" /><path
         d="m 459.89,316.15 c 0.524,-4.763 2.396,-9.151 4.667,-13.333"
         id="path115"
         style="stroke:#804400;stroke-width:1.81560004"
         inkscape:connector-curvature="0" /><path
         d="m 193.39,323.15 c 1.067,-2.495 1.489,-5.399 0.5,-8"
         id="path117"
         style="stroke:#804400;stroke-width:2.04629993"
         inkscape:connector-curvature="0" /><path
         d="m 194.39,336.15 0,-4"
         id="path119"
         style="stroke:#804400;stroke-width:2.13439989"
         inkscape:connector-curvature="0" /><path
         d="m 104.89,30.646 c 4.488,-0.12 7.048,2.651 11,4"
         id="path121"
         style="stroke:#804400;stroke-width:1.36010003"
         inkscape:connector-curvature="0" /><path
         d="m 115.89,34.646 c 9.385,4.678 19.629,6.74 27.5,13.5"
         id="path123"
         style="stroke:#804400;stroke-width:1.25590003"
         inkscape:connector-curvature="0" /><path
         d="m 167.89,59.646 c 29.618,4.422 59.529,3.017 89,8"
         id="path125"
         style="stroke:#804400;stroke-width:1.75960004"
         inkscape:connector-curvature="0" /><path
         d="m 279.89,68.146 c 4.506,-0.485 10.062,-1.446 14.167,0.5"
         id="path127"
         style="stroke:#804400;stroke-width:2.2026999"
         inkscape:connector-curvature="0" /><path
         d="m 294.06,68.646 c 4.25,-0.032 8.669,-0.44 12.833,0.5"
         id="path129"
         style="stroke:#804400;stroke-width:2.27640009"
         inkscape:connector-curvature="0" /><path
         d="m 316.89,69.646 c 1.996,0.13 4.112,-0.372 6,0.5"
         id="path131"
         style="stroke:#804400;stroke-width:2.12129998"
         inkscape:connector-curvature="0" /><path
         d="m 379.89,71.146 c 1.218,-0.613 2.36,-0.936 4,-1"
         id="path133"
         style="stroke:#804400;stroke-width:1.55840003"
         inkscape:connector-curvature="0" /><path
         d="m 67.392,80.646 c -0.947,-0.962 -1.395,-2.15 -2,-3"
         id="path135"
         style="stroke:#804400;stroke-width:1.20000005"
         inkscape:connector-curvature="0" /><path
         d="m 57.392,64.646 c -0.497,-0.363 -1.03,-0.72 -1.564,-1.076 -0.577,-1.719 -0.91,-3.589 -0.936,-5.424"
         id="path137"
         style="stroke:#804400;stroke-width:2.55839992"
         inkscape:connector-curvature="0" /><path
         d="m 53.392,53.646 c -1.117,-1.939 -0.844,-4.737 0.5,-6.5"
         id="path139"
         style="stroke:#804400;stroke-width:1.26489997"
         inkscape:connector-curvature="0" /><path
         d="m 53.892,45.146 c -0.943,-1.65 -0.186,-3.709 1,-5"
         id="path141"
         style="stroke:#804400;stroke-width:1.87080002"
         inkscape:connector-curvature="0" /><path
         d="M 63.392,10.812 C 62.333,10.38 61.668,9.389 61.603,8.678 61.699,8.501 61.796,8.323 61.892,8.145"
         id="path143"
         style="stroke:#804400;stroke-width:2.60770011"
         inkscape:connector-curvature="0" /><path
         d="m 63.392,10.812 c 3.624,-2.123 7.922,-1.673 11.5,-3.667"
         id="path145"
         style="stroke:#804400;stroke-width:2.69260001"
         inkscape:connector-curvature="0" /><path
         d="m 47.558,10.146 c 0.313,1.656 0.376,3.39 0.459,4.907 -2.575,2.532 -4.385,5.683 -7.125,8.093"
         id="path147"
         style="stroke:#804400;stroke-width:2.64580011"
         inkscape:connector-curvature="0" /><path
         d="m 32.225,39.146 c -0.222,0.667 -0.445,1.333 -0.667,2"
         id="path149"
         style="stroke:#804400;stroke-width:3.16230011"
         inkscape:connector-curvature="0" /><path
         d="m 14.892,98.146 c 0.496,-1.24 1.298,-2.143 2,-3"
         id="path151"
         style="fill:#804400;stroke:#804400;stroke-width:2"
         inkscape:connector-curvature="0" /><path
         d="m 16.892,103.15 c 0.253,0.702 0.376,1.256 0.494,1.803 0.828,0.82 2.202,1.087 3.256,1.447"
         id="path153"
         style="stroke:#804400;stroke-width:2.66930008"
         inkscape:connector-curvature="0" /><path
         d="m 20.642,106.4 c 2.716,-2.645 7.373,1.661 9.25,-1.25"
         id="path155"
         style="stroke:#804400;stroke-width:1.87080002"
         inkscape:connector-curvature="0" /><path
         d="m 20.642,106.4 c 0.482,0.887 1.012,1.747 1.473,2.452 7.841,1.622 14.997,-2.14 22.277,-4.202"
         id="path157"
         style="stroke:#804400;stroke-width:1.51320004"
         inkscape:connector-curvature="0" /><path
         d="m 44.392,104.65 c -0.783,-1.696 -3.077,-2.247 -2.5,-4.5"
         id="path159"
         style="stroke:#804400;stroke-width:1.87080002"
         inkscape:connector-curvature="0" /><path
         d="m 44.392,104.65 c 9.753,5.84 23.125,4.73 34,4"
         id="path161"
         style="stroke:#804400;stroke-width:2.40039992"
         inkscape:connector-curvature="0" /><path
         d="m 78.392,108.65 c 1.587,-3.743 5.104,-6.457 7.5,-9.5"
         id="path163"
         style="stroke:#804400;stroke-width:2.23609996"
         inkscape:connector-curvature="0" /><path
         d="m 78.392,108.65 c 17.17,10.28 18.518,34.566 28.712,50.135 1.711,6.918 4.958,13.351 6.288,20.615"
         id="path165"
         style="stroke:#804400;stroke-width:2.63089991"
         inkscape:connector-curvature="0" /><path
         d="m 113.39,179.4 c 0.962,-0.722 2.15,-1.179 3,-1.75"
         id="path167"
         style="stroke:#804400;stroke-width:1.58109999"
         inkscape:connector-curvature="0" /><path
         d="m 116.39,177.65 c -0.007,-0.587 -0.378,-1.418 -0.5,-2.5"
         id="path169"
         style="stroke:#804400;stroke-width:1.73210001"
         inkscape:connector-curvature="0" /><path
         d="m 116.39,177.65 c 6.34,12.689 11.207,26.572 19.833,37.167"
         id="path171"
         style="stroke:#804400;stroke-width:1.67410004"
         inkscape:connector-curvature="0" /><path
         d="m 136.22,214.81 c 1.54,-0.96 2.409,0.03 3.667,0.333"
         id="path173"
         style="stroke:#804400;stroke-width:1.19519997"
         inkscape:connector-curvature="0" /><path
         d="m 136.22,214.81 c 1.549,3.871 3.635,7.304 5,11.333"
         id="path175"
         style="stroke:#804400;stroke-width:2.09010005"
         inkscape:connector-curvature="0" /><path
         d="m 154.89,228.15 c 1.875,2.823 3.564,5.847 5,9"
         id="path177"
         style="stroke:#804400;stroke-width:2"
         inkscape:connector-curvature="0" /><path
         d="m 164.89,254.15 c 5.888,13.307 8.47,27.929 12,42"
         id="path179"
         style="stroke:#804400;stroke-width:2.05999994"
         inkscape:connector-curvature="0" /><path
         d="m 186.89,300.15 c -0.624,1.349 -1.42,2.625 -3,3"
         id="path181"
         style="stroke:#804400;stroke-width:1.5"
         inkscape:connector-curvature="0" /><path
         d="m 183.89,361.15 c 0.346,-3.563 1.293,-6.624 2.5,-10"
         id="path183"
         style="stroke:#804400;stroke-width:2.02609992"
         inkscape:connector-curvature="0" /><path
         d="m 192.89,364.15 c 2.612,-2.888 0.261,-7.203 3,-10"
         id="path185"
         style="stroke:#804400;stroke-width:1.972"
         inkscape:connector-curvature="0" /><path
         d="m 203.53,333.6 c -1.564,-11.11 -6.179,-24.354 -3.636,-34.787"
         id="path187"
         style="stroke:#804400;stroke-width:2.91549993"
         inkscape:connector-curvature="0" /><path
         d="m 201.89,293.15 c 0.537,-8.222 2.896,-15.785 3,-24"
         id="path189"
         style="stroke:#804400;stroke-width:2.5381"
         inkscape:connector-curvature="0" /><path
         d="m 226.89,241.15 c 20.693,-6.815 38.076,6.126 50.937,12.516 21.393,10.627 38.346,13.485 65.705,10.246 7.688,-0.91 16.085,-2.442 24.961,-5.195 2.772,1.319 5.058,3.571 7.798,5.033"
         id="path191"
         style="stroke:#804400;stroke-width:2.6552"
         inkscape:connector-curvature="0" /><path
         d="m 376.29,263.75 c 1.253,-1.324 2.383,-1.92 3.6,-2.6"
         id="path193"
         style="stroke:#804400;stroke-width:2.19090009"
         inkscape:connector-curvature="0" /><path
         d="m 379.89,261.15 c -2.867,-4.308 -11.645,-5.454 -8.153,-12.829 -0.367,-0.437 -1.108,-0.744 -1.847,-1.171"
         id="path195"
         style="stroke:#804400;stroke-width:2.25830007"
         inkscape:connector-curvature="0" /><path
         d="m 351.89,250.15 c -0.525,2.282 -0.256,5.117 -3,6"
         id="path197"
         style="stroke:#804400;stroke-width:2.10159993"
         inkscape:connector-curvature="0" /><path
         d="m 333.89,254.15 c 2.816,0.626 5.36,0.417 8,-0.5"
         id="path199"
         style="stroke:#804400;stroke-width:2.48749995"
         inkscape:connector-curvature="0" /><path
         d="m 347.39,249.15 c 1.784,-0.053 3.098,0.057 4.5,0.333"
         id="path201"
         style="stroke:#804400;stroke-width:3.08220005"
         inkscape:connector-curvature="0" /><path
         d="m 331.89,240.15 c 8.973,0.549 16.845,-4.57 25,-7"
         id="path203"
         style="stroke:#804400;stroke-width:2.8657999"
         inkscape:connector-curvature="0" /><path
         d="m 385.89,214.15 c 13.821,-5.044 25.493,-2.649 31.214,0.776 10.83,6.484 9.115,16.987 14.255,32.118 3.367,9.914 6.882,16.975 9.031,26.355"
         id="path205"
         style="stroke:#804400;stroke-width:2.55310011"
         inkscape:connector-curvature="0" /><path
         d="m 440.39,273.4 c 1.774,2.407 3.085,5.719 3.833,8.75"
         id="path207"
         style="stroke:#804400;stroke-width:2.81369996"
         inkscape:connector-curvature="0" /><path
         d="m 458.56,365.15 c -2.757,-33.184 20.784,-61.227 22.833,-94.5"
         id="path209"
         style="stroke:#804400;stroke-width:2.68980002"
         inkscape:connector-curvature="0" /><path
         d="m 471.89,241.15 c -0.672,-1.886 -0.755,-4.12 0,-6"
         id="path211"
         style="stroke:#804400;stroke-width:2.13439989"
         inkscape:connector-curvature="0" /><path
         d="m 470.39,222.65 c 0.649,0.292 1.618,0.838 2.5,1.5"
         id="path213"
         style="stroke:#804400;stroke-width:1.29100001"
         inkscape:connector-curvature="0" /><path
         d="m 395.89,70.146 c 2.472,-0.267 5.196,0.578 7.5,-0.5"
         id="path215"
         style="stroke:#804400;stroke-width:1.23829997"
         inkscape:connector-curvature="0" /><path
         d="m 422.89,69.146 c 0.188,-0.328 0.375,-0.656 0.562,-0.984 5.374,-1.141 10.936,-1.847 16.438,-2.516"
         id="path217"
         style="stroke:#804400;stroke-width:2.34179997"
         inkscape:connector-curvature="0" /><path
         d="m 439.89,65.646 c 4.438,-0.654 9.732,-1.25 14,0.5"
         id="path219"
         style="stroke:#804400;stroke-width:3.13050008"
         inkscape:connector-curvature="0" /><path
         d="m 453.89,66.146 3,0"
         id="path221"
         style="stroke:#804400;stroke-width:5.04979992"
         inkscape:connector-curvature="0" /><path
         d="m 456.89,66.146 c 1.984,-1.34 4.616,-1.136 6.857,-0.714"
         id="path223"
         style="stroke:#804400;stroke-width:3.14639997"
         inkscape:connector-curvature="0" /><path
         d="m 539.39,260.65 c -3.496,-31.031 -19.466,-58.462 -14,-91.5"
         id="path225"
         style="stroke:#804400;stroke-width:1.80649996"
         inkscape:connector-curvature="0" /><path
         d="m 513.89,237.15 c -0.117,-1.826 0.312,-3.086 0.5,-4"
         id="path227"
         style="stroke:#804400;stroke-width:1.36930001"
         inkscape:connector-curvature="0" /><path
         d="m 526.56,305.15 c 0.222,0.667 0.444,1.333 0.666,2"
         id="path229"
         style="stroke:#804400;stroke-width:3.16230011"
         inkscape:connector-curvature="0" /><path
         d="m 537.06,276.31 c -2.996,-5.708 -3.615,-12.027 -5.167,-18.167"
         id="path231"
         style="stroke:#804400;stroke-width:3.41569996"
         inkscape:connector-curvature="0" /><path
         d="m 537.06,276.31 c 1.864,-0.441 2.474,-2.465 2.333,-4.167"
         id="path233"
         style="stroke:#804400;stroke-width:2.91549993"
         inkscape:connector-curvature="0" /><path
         d="m 537.06,276.31 c 1.138,12.978 3.642,25.839 -0.5,38.833"
         id="path235"
         style="stroke:#804400;stroke-width:3.27419996"
         inkscape:connector-curvature="0" /><path
         d="m 500.89,355.15 c 3.29,-19.399 5.539,-40.52 -2,-59"
         id="path237"
         style="stroke:#804400;stroke-width:2.35310006"
         inkscape:connector-curvature="0" /><path
         d="m 495.89,287.15 c -3.586,-5.078 -4.164,-11.896 -8,-17"
         id="path239"
         style="stroke:#804400;stroke-width:1.82280004"
         inkscape:connector-curvature="0" /><path
         d="m 424.89,363.15 c 12.879,-18.797 19.738,-40.619 22.363,-63.454"
         id="path241"
         style="stroke:#804400;stroke-width:2.18860006"
         inkscape:connector-curvature="0" /><path
         d="m 447.26,299.69 c -1.966,0.884 -4.54,0.34 -5.696,-1.546"
         id="path243"
         style="stroke:#804400;stroke-width:3"
         inkscape:connector-curvature="0" /><path
         d="m 439.89,294.15 c -0.66,-1.667 -0.134,-3.333 0,-5"
         id="path245"
         style="stroke:#804400;stroke-width:2.39050007"
         inkscape:connector-curvature="0" /><path
         d="m 171.56,354.15 c 9.835,-12.073 9.392,-28.075 9,-43"
         id="path247"
         style="stroke:#804400;stroke-width:2.95040011"
         inkscape:connector-curvature="0" /><path
         d="M 1.892,91.146 C 0.93,89.318 1.255,87.303 1.436,85.354 11.626,71.84 32.543,60.924 31.558,41.146"
         id="path249"
         style="stroke:#804400;stroke-width:2.46709991"
         inkscape:connector-curvature="0" /><path
         d="M 31.558,41.146 C 22.294,40.917 9.609,33.346 11.492,22.746"
         id="path251"
         style="stroke:#804400;stroke-width:2.87899995"
         inkscape:connector-curvature="0" /><path
         d="m 11.492,22.746 c -0.191,-0.24 -0.382,-0.48 -0.573,-0.72 -1.033,-1.902 -0.499,-4.333 1.2,-5.639 5.665,-1.96 13.396,-2.031 17.772,1.759"
         id="path253"
         style="stroke:#804400;stroke-width:1.40120006"
         inkscape:connector-curvature="0" /><path
         d="m 47.558,10.146 c -4.8,0.209 -8.737,-1.915 -13.333,-2"
         id="path255"
         style="stroke:#804400;stroke-width:2.6637001"
         inkscape:connector-curvature="0" /><path
         d="m 47.558,10.146 c 1.271,-2.519 2.969,-5.156 5.333,-7"
         id="path257"
         style="stroke:#804400;stroke-width:2.04940009"
         inkscape:connector-curvature="0" /><path
         d="M 52.892,3.146 C 52.704,2.82 52.517,2.495 52.329,2.168 47.594,-0.074 41.946,1.598 37.892,4.146"
         id="path259"
         style="stroke:#804400;stroke-width:2.23609996"
         inkscape:connector-curvature="0" /><path
         d="m 52.892,3.146 c 6.777,-1.976 14.154,-0.233 21,0"
         id="path261"
         style="stroke:#804400;stroke-width:1.64690006"
         inkscape:connector-curvature="0" /><path
         d="m 73.892,3.146 c 0.333,-0.233 0.667,-0.467 1,-0.7 4.229,-1.769 6.867,1.829 10.683,2.017 0.637,1.829 2.429,3.29 1.76,5.494 -0.609,0.547 -0.839,1.611 -1.443,3.189"
         id="path263"
         style="stroke:#804400;stroke-width:1.56519997"
         inkscape:connector-curvature="0" /><path
         d="m 11.492,22.746 c 0.867,-0.381 1.611,-0.634 2.4,-0.934"
         id="path265"
         style="stroke:#804400;stroke-width:3.39120007"
         inkscape:connector-curvature="0" /><path
         d="m 150.22,236.15 c -0.533,-1.039 -1.491,-1.695 -2.333,-2.333"
         id="path267"
         style="stroke:#804400;stroke-width:3.05509996"
         inkscape:connector-curvature="0" /><path
         d="m 113.39,179.4 c 2.716,5.724 3.061,11.937 5.738,17.394 4.846,17.396 23.695,56.419 45.762,57.356"
         id="path269"
         style="stroke:#804400;stroke-width:1.79059994"
         inkscape:connector-curvature="0" /><path
         d="m 164.89,254.15 c 1.138,-1.583 -0.201,-3.049 -0.75,-4.5"
         id="path271"
         style="stroke:#804400;stroke-width:2.03539991"
         inkscape:connector-curvature="0" /><path
         d="m 164.14,249.65 c -2.214,-0.022 -3.136,-1.955 -4.25,-3.5"
         id="path273"
         style="stroke:#804400;stroke-width:1.33229995"
         inkscape:connector-curvature="0" /><path
         d="m 164.14,249.65 c 0.682,-1.926 -1.069,-3.586 -1.25,-5.5"
         id="path275"
         style="stroke:#804400;stroke-width:2.05480003"
         inkscape:connector-curvature="0" /><path
         d="m 439.89,65.646 c 0.357,0.649 0.78,1.618 1,2.5"
         id="path277"
         style="stroke:#804400;stroke-width:1.87080002"
         inkscape:connector-curvature="0" /><path
         d="m 456.89,66.146 c 0.616,2.003 2.728,2.551 4,4"
         id="path279"
         style="stroke:#804400;stroke-width:2.54949999"
         inkscape:connector-curvature="0" /><path
         d="m 453.89,66.146 c -1.059,1 -1.544,2 -2,3"
         id="path281"
         style="stroke:#804400;stroke-width:1.89740002"
         inkscape:connector-curvature="0" /><path
         d="m 525.56,95.146 c 0.383,-3.451 1.063,-8.529 -2.667,-10.333"
         id="path283"
         style="stroke:#804400;stroke-width:2.72849989"
         inkscape:connector-curvature="0" /><path
         d="m 500.89,102.15 c 1.333,-0.667 2.667,-1.333 4,-2"
         id="path285"
         style="stroke:#804400;stroke-width:2.79879999"
         inkscape:connector-curvature="0" /><path
         d="m 502.89,106.65 c 1,-0.029 2,0.228 3,0.5"
         id="path287"
         style="stroke:#804400;stroke-width:2.14479995"
         inkscape:connector-curvature="0" /><path
         d="m 485.39,121.65 c 0.649,0.351 1.618,0.382 2.5,0.5"
         id="path289"
         style="stroke:#804400;stroke-width:1.22469997"
         inkscape:connector-curvature="0" /><path
         d="m 474.89,123.15 c 1.405,0.908 2.204,1.241 3,1.5"
         id="path291"
         style="stroke:#804400;stroke-width:1.5"
         inkscape:connector-curvature="0" /><path
         d="m 491.89,125.65 c -0.475,0.17 -0.821,0.803 -1.253,1.274 -0.831,0.207 -1.802,-0.28 -2.747,-0.774"
         id="path293"
         style="stroke:#804400;stroke-width:1.49070001"
         inkscape:connector-curvature="0" /><path
         d="m 475.89,146.15 0,-2"
         id="path295"
         style="stroke:#804400;stroke-width:1.22469997"
         inkscape:connector-curvature="0" /><path
         d="m 511.56,225.15 c 7.24,-20.537 4.605,-42.599 5.666,-64"
         id="path297"
         style="stroke:#804400;stroke-width:3.03730011"
         inkscape:connector-curvature="0" /><path
         d="m 471.89,241.15 c 0.851,-0.321 1.382,-0.609 2,-1"
         id="path299"
         style="stroke:#804400;stroke-width:1.91489995"
         inkscape:connector-curvature="0" /><path
         d="m 471.89,241.15 c -0.914,9.88 2.605,19.631 8,28"
         id="path301"
         style="stroke:#804400;stroke-width:2.40470004"
         inkscape:connector-curvature="0" /><path
         d="m 500.56,245.15 c 1.41,-2.821 1.903,-5.963 2.666,-9"
         id="path303"
         style="stroke:#804400;stroke-width:3.34389997"
         inkscape:connector-curvature="0" /><path
         d="m 505.56,222.15 c 0.439,-4.605 0.575,-9.397 0,-14"
         id="path305"
         style="stroke:#804400;stroke-width:3.08899999"
         inkscape:connector-curvature="0" /><path
         d="m 379.89,261.15 c 2.1,1.131 3.628,2.274 5,4"
         id="path307"
         style="stroke:#804400;stroke-width:1.95790005"
         inkscape:connector-curvature="0" /><path
         d="m 376.29,263.75 c 7.269,10.373 20.229,13.695 31.225,18.15"
         id="path309"
         style="stroke:#804400;stroke-width:3.15919995"
         inkscape:connector-curvature="0" /><path
         d="m 407.52,281.9 c 0.312,-0.752 1.108,-2.082 1.832,-3.769 -0.895,-1.419 -1.272,-2.646 -1.457,-3.981"
         id="path311"
         style="stroke:#804400;stroke-width:2.49000001"
         inkscape:connector-curvature="0" /><path
         d="m 407.52,281.9 c 0.077,0.155 0.155,0.31 0.232,0.464"
         id="path313"
         style="stroke:#804400;stroke-width:4.47209978"
         inkscape:connector-curvature="0" /><path
         d="m 407.75,282.36 c 3.113,0.305 6.186,0.237 9.143,1.286"
         id="path315"
         style="stroke:#804400;stroke-width:3.69679999"
         inkscape:connector-curvature="0" /><path
         d="m 427.39,276.65 c 0.412,-1.33 1.117,-1.838 2.5,-2.5"
         id="path317"
         style="stroke:#804400;stroke-width:1.67330003"
         inkscape:connector-curvature="0" /><path
         d="m 430.89,272.15 c -0.98,-1.412 -0.777,-2.582 -0.5,-3.5"
         id="path319"
         style="stroke:#804400;stroke-width:1.26489997"
         inkscape:connector-curvature="0" /><path
         d="m 479.89,226.15 c 0.649,0.12 1.094,0.302 1.529,0.486 0.592,0.03 1.449,-0.306 2.218,-0.754 0.215,-2.021 0.704,-4.348 -0.247,-6.232"
         id="path321"
         style="stroke:#804400;stroke-width:1.36010003"
         inkscape:connector-curvature="0" /><path
         d="m 203.53,333.6 c 0.136,0.831 0.377,2.279 0.697,3.546"
         id="path323"
         style="stroke:#804400;stroke-width:3.39120007"
         inkscape:connector-curvature="0" /><path
         d="m 226.89,335.15 c 0.953,-9.861 -3.122,-18.938 -4,-28"
         id="path325"
         style="stroke:#804400;stroke-width:2.26719999"
         inkscape:connector-curvature="0" /><path
         d="m 224.89,300.15 c 3.524,-16.766 0.571,-35.06 1,-52"
         id="path327"
         style="stroke:#804400;stroke-width:2.08809996"
         inkscape:connector-curvature="0" /><path
         d="m 218.89,251.15 -2,-2"
         id="path329"
         style="stroke:#804400;stroke-width:1.63300002"
         inkscape:connector-curvature="0" /><path
         d="m 498.89,285.15 c -0.238,-2.683 0.282,-5.476 -1,-8"
         id="path331"
         style="stroke:#804400;stroke-width:2.91549993"
         inkscape:connector-curvature="0" /><path
         d="m 440.39,273.4 c -0.394,0.137 -0.942,0.195 -1.5,0.25"
         id="path333"
         style="stroke:#804400;stroke-width:2.12129998"
         inkscape:connector-curvature="0" /><path
         d="m 407.75,282.36 c -0.97,4.955 -0.349,10.519 0.649,15.575 1.436,2.114 4.016,2.495 6.285,1.695 0.743,-0.509 1.493,-1.434 3.208,-2.484"
         id="path335"
         style="stroke:#804400;stroke-width:2.51970005"
         inkscape:connector-curvature="0" /><path
         d="m 447.26,299.69 c 1.341,-4.476 0.091,-9.25 -1.649,-13.403"
         id="path337"
         style="stroke:#804400;stroke-width:2.70799994"
         inkscape:connector-curvature="0" /><path
         d="m 520.89,366.15 c 1.362,-1.902 1.554,-5.127 0,-7"
         id="path339"
         style="stroke:#804400;stroke-width:1.24319994"
         inkscape:connector-curvature="0" /><path
         d="m 203.53,333.6 c 0.42,-0.206 0.84,-0.411 1.26,-0.617 2.432,-8.148 1.757,-17.412 2.354,-26.087"
         id="path341"
         style="stroke:#804400;stroke-width:1.58720005"
         inkscape:connector-curvature="0" /><path
         d="m 119.89,52.146 c 1.334,-1.75 2.187,-3.828 2.5,-6"
         id="path343"
         style="fill:#804400;stroke:#804400;stroke-width:2.08890009"
         inkscape:connector-curvature="0" /><path
         d="m 125.89,56.146 c 1.233,-1.226 1.704,-2.776 1.5,-4.5"
         id="path345"
         style="fill:#804400;stroke:#804400;stroke-width:2.15059996"
         inkscape:connector-curvature="0" /><path
         d="m 131.39,69.146 c -0.097,-1.8 1.535,-3.166 1.5,-5"
         id="path347"
         style="stroke:#804400;stroke-width:1.81659997"
         inkscape:connector-curvature="0" /><path
         d="m 131.89,72.146 c 0.667,-0.547 1.333,-0.781 2,-1"
         id="path349"
         style="fill:#804400;stroke:#804400;stroke-width:1.29100001"
         inkscape:connector-curvature="0" /><path
         d="m 115.89,34.646 c 0.036,2.194 -0.805,4.269 -0.5,6.5"
         id="path351"
         style="fill:#804400;stroke:#804400;stroke-width:1.87080002"
         inkscape:connector-curvature="0" /><path
         d="m 104.89,30.646 c 0.288,1.784 0.439,3.098 0.5,4.5"
         id="path353"
         style="stroke:#804400;stroke-width:2.44950008"
         inkscape:connector-curvature="0" /><path
         d="m 69.892,78.146 c -0.643,-1 -1.22,-2 -2,-3"
         id="path355"
         style="stroke:#804400;stroke-width:1.29100001"
         inkscape:connector-curvature="0" /><path
         d="m 63.392,10.812 c -0.535,3.981 4.25,2.9 5.5,5.333"
         id="path357"
         style="stroke:#804400;stroke-width:2.57200003"
         inkscape:connector-curvature="0" /><path
         d="m 73.892,3.146 c 0.333,0.667 0.667,1.333 1,2"
         id="path359"
         style="stroke:#804400;stroke-width:2.23609996"
         inkscape:connector-curvature="0" /><path
         d="m 100.89,36.646 c 0.667,0.06 1.333,0.276 2,0.5"
         id="path361"
         style="fill:#804400;stroke:#804400;stroke-width:2.12129998"
         inkscape:connector-curvature="0" /><path
         d="m 104.89,30.646 c -3.196,-2.374 -4.21,-8.128 -9,-7.5"
         id="path363"
         style="stroke:#804400;stroke-width:3.19009995"
         inkscape:connector-curvature="0" /><path
         d="m 62.558,37.146 c 0.222,0.667 0.445,1.333 0.667,2"
         id="path365"
         style="fill:#804400;stroke:#804400;stroke-width:3.16230011"
         inkscape:connector-curvature="0" /><path
         d="m 74.392,45.646 c -0.292,-0.649 -0.838,-1.618 -1.5,-2.5"
         id="path367"
         style="stroke:#804400;stroke-width:1.29100001"
         inkscape:connector-curvature="0" /><path
         d="m 68.892,49.146 c -0.643,-1 -1.22,-2 -2,-3"
         id="path369"
         style="stroke:#804400;stroke-width:1.29100001"
         inkscape:connector-curvature="0" /><path
         d="m 71.892,72.146 c 0.667,0.333 1.333,0.667 2,1"
         id="path371"
         style="stroke:#804400;stroke-width:2.23609996"
         inkscape:connector-curvature="0" /><path
         d="m 315.89,81.146 c -0.333,0.667 -0.667,1.333 -1,2"
         id="path373"
         style="stroke:#804400;stroke-width:2.23609996"
         inkscape:connector-curvature="0" /><path
         d="m 120.39,137.65 c 0.543,-1.124 0.447,-2.887 0.5,-4.5"
         id="path375"
         style="fill:#804400;stroke:#804400;stroke-width:1.22469997"
         inkscape:connector-curvature="0" /><path
         d="m 125.89,115.15 c -0.058,-1 0.457,-2 1,-3"
         id="path377"
         style="fill:#804400;stroke:#804400;stroke-width:1.22469997"
         inkscape:connector-curvature="0" /><path
         d="m 141.89,214.15 c 1.733,3.836 5.794,4.562 8.143,7.714"
         id="path379"
         style="stroke:#804400;stroke-width:1.81050003"
         inkscape:connector-curvature="0" /><path
         d="m 457.39,255.15 c 0.06,-0.667 0.276,-1.333 0.5,-2"
         id="path381"
         style="stroke:#804400;stroke-width:2.16020012"
         inkscape:connector-curvature="0" /><path
         d="m 459.89,245.15 c 1.584,-2.611 2.911,-5.209 4,-8"
         id="path383"
         style="stroke:#804400;stroke-width:2.22110009"
         inkscape:connector-curvature="0" /><path
         d="m 396.89,273.15 c -0.729,-1.92 -3.425,-1.734 -4,-4"
         id="path385"
         style="stroke:#804400;stroke-width:2.04489994"
         inkscape:connector-curvature="0" /></g></g><metadata
     id="metadata387"><rdf:RDF><cc:Work><dc:format>image/svg+xml</dc:format><dc:type
           rdf:resource="http://purl.org/dc/dcmitype/StillImage" /><cc:license
           rdf:resource="http://creativecommons.org/publicdomain/zero/1.0/" /><dc:publisher><cc:Agent
             rdf:about="http://openclipart.org/"><dc:title>Openclipart</dc:title></cc:Agent></dc:publisher><dc:title>cow</dc:title><dc:date>2006-10-06T10:41:49</dc:date><dc:description>black and white drawing of a cow</dc:description><dc:source>https://openclipart.org/detail/388/cow-by-johnny_automatic</dc:source><dc:creator><cc:Agent><dc:title>johnny_automatic</dc:title></cc:Agent></dc:creator><dc:subject><rdf:Bag><rdf:li>animal</rdf:li><rdf:li>black &amp; white</rdf:li><rdf:li>bovine</rdf:li><rdf:li>cow</rdf:li><rdf:li>mammal</rdf:li><rdf:li>vintage</rdf:li></rdf:Bag></dc:subject></cc:Work><cc:License
         rdf:about="http://creativecommons.org/publicdomain/zero/1.0/"><cc:permits
           rdf:resource="http://creativecommons.org/ns#Reproduction" /><cc:permits
           rdf:resource="http://creativecommons.org/ns#Distribution" /><cc:permits
           rdf:resource="http://creativecommons.org/ns#DerivativeWorks" /></cc:License></rdf:RDF></metadata></svg>