<?xml version="1.0" encoding="UTF-8" standalone="no"?>
<!-- Creator: CorelDRAW -->

<svg
   xmlns:dc="http://purl.org/dc/elements/1.1/"
   xmlns:cc="http://creativecommons.org/ns#"
   xmlns:rdf="http://www.w3.org/1999/02/22-rdf-syntax-ns#"
   xmlns:svg="http://www.w3.org/2000/svg"
   xmlns="http://www.w3.org/2000/svg"
   xmlns:sodipodi="http://sodipodi.sourceforge.net/DTD/sodipodi-0.dtd"
   xmlns:inkscape="http://www.inkscape.org/namespaces/inkscape"
   style="fill-rule:evenodd;image-rendering:optimizeQuality;shape-rendering:geometricPrecision;text-rendering:geometricPrecision"
   xml:space="preserve"
   viewBox="0 0 11084 11084"
   id="svg2"
   version="1.1"
   inkscape:version="0.92.2 5c3e80d, 2017-08-06"
   sodipodi:docname="openclipart_417_loose_leaf_paper.svg"
   width="11084"
   height="11084"
   inkscape:export-filename="/Users/ryan/projects/variant-tap/app/src/main/assets/variants/openclipart_417_loose_leaf_paper.png"
   inkscape:export-xdpi="4.4345002"
   inkscape:export-ydpi="4.4345002"><sodipodi:namedview
     pagecolor="#ffffff"
     bordercolor="#666666"
     borderopacity="1"
     objecttolerance="10"
     gridtolerance="10"
     guidetolerance="10"
     inkscape:pageopacity="0"
     inkscape:pageshadow="2"
     inkscape:window-width="1440"
     inkscape:window-height="800"
     id="namedview111"
     showgrid="false"
     fit-margin-top="0"
     fit-margin-left="0"
     fit-margin-right="0"
     fit-margin-bottom="0"
     inkscape:zoom="0.040598657"
     inkscape:cx="-1950.7698"
     inkscape:cy="6487.1324"
     inkscape:window-x="0"
     inkscape:window-y="1"
     inkscape:window-maximized="1"
     inkscape:current-layer="g9" /><defs
     id="defs4"><style
       type="text/css"
       id="style6">
    .fil0 {fill:#0093DD}
    .fil3 {fill:#0A0B0C}
    .fil2 {fill:#1F1A17}
    .fil1 {fill:#DA251D}
  </style></defs><g
     id="Layer_x0020_1"
     transform="translate(792,-271)"><g
       id="g9"><path
         style="fill:#ffffff"
         d="m 608,271 c -42,0 -80,19 -107,49 -26,29 -43,68 -43,112 v 10762 c 0,44 17,83 43,112 27,30 65,49 107,49 h 8283.9999 c 42,0 80,-19 107,-49 26,-29 43,-68 43,-112 V 432 c 0,-44 -17,-83 -43,-112 -27,-30 -65,-49 -107,-49 z"
         id="path74"
         inkscape:connector-curvature="0" /><g
         id="g11"><path
           class="fil0"
           d="m 500,1271 8500,0 0,84 -8500,0 0,-84 z"
           id="path13"
           inkscape:connector-curvature="0"
           style="fill:#0093dd" /></g><g
         id="g31"
         transform="translate(0,-1504)"><path
           class="fil0"
           d="m 500,3635 8500,0 0,83 -8500,0 0,-83 z"
           id="path33"
           inkscape:connector-curvature="0"
           style="fill:#0093dd" /></g><g
         id="g39"
         transform="translate(0,-1590)"><path
           class="fil0"
           d="m 500,4580 8500,0 0,84 -8500,0 0,-84 z"
           id="path41"
           inkscape:connector-curvature="0"
           style="fill:#0093dd" /></g><g
         id="g43"
         transform="translate(0,-1203.5)"><path
           class="fil0"
           d="m 500,5053 8500,0 0,84 -8500,0 0,-84 z"
           id="path45"
           inkscape:connector-curvature="0"
           style="fill:#0093dd" /></g><g
         id="g47"
         transform="translate(0,-816.5)"><path
           class="fil0"
           d="m 500,5526 8500,0 0,83 -8500,0 0,-83 z"
           id="path49"
           inkscape:connector-curvature="0"
           style="fill:#0093dd" /></g><g
         id="g51"
         transform="translate(0,-430)"><path
           class="fil0"
           d="m 500,5999 8500,0 0,83 -8500,0 0,-83 z"
           id="path53"
           inkscape:connector-curvature="0"
           style="fill:#0093dd" /></g><g
         id="g55"
         transform="translate(0,-43)"><path
           class="fil0"
           d="m 500,6471 8500,0 0,84 -8500,0 0,-84 z"
           id="path57"
           inkscape:connector-curvature="0"
           style="fill:#0093dd" /></g><g
         id="g59"
         transform="translate(0,344.00004)"><path
           class="fil0"
           d="m 500,6944 8500,0 0,83 -8500,0 0,-83 z"
           id="path61"
           inkscape:connector-curvature="0"
           style="fill:#0093dd" /></g><g
         id="g71"
         transform="translate(0,-215)"><path
           class="fil0"
           d="m 500,8362 8500,0 0,84 -8500,0 0,-84 z"
           id="path73"
           inkscape:connector-curvature="0"
           style="fill:#0093dd" /></g><g
         id="g75"
         transform="translate(0,172)"><path
           class="fil0"
           d="m 500,8835 8500,0 0,83 -8500,0 0,-83 z"
           id="path77"
           inkscape:connector-curvature="0"
           style="fill:#0093dd" /></g><g
         id="g83"
         transform="translate(0,85.5)"><path
           class="fil0"
           d="m 500,9781 8500,0 0,83 -8500,0 0,-83 z"
           id="path85"
           inkscape:connector-curvature="0"
           style="fill:#0093dd" /></g><g
         id="g91"><path
           class="fil0"
           d="m 500,10726 8500,0 0,83 -8500,0 0,-83 z"
           id="path93"
           inkscape:connector-curvature="0"
           style="fill:#0093dd" /></g><g
         id="g95"><path
           class="fil1"
           d="m 1542,313 0,11000 -84,0 0,-11000 84,0 z"
           id="path97"
           inkscape:connector-curvature="0"
           style="fill:#da251d" /></g><g
         id="g99"><path
           class="fil2"
           d="m 608,271 8284,0 0,84 -8284,0 0,-84 z m 8284,0 0,84 0,-84 z m 0,0 c 42,0 80,19 107,49 l -62,56 c -11,-13 -28,-21 -45,-21 l 0,-84 z m 107,49 c 26,29 43,68 43,112 l -84,0 c 0,-22 -8,-42 -21,-56 l 62,-56 z m 43,112 -84,0 84,0 z m 0,0 0,10762 -84,0 0,-10762 84,0 z m 0,10762 -84,0 84,0 z m 0,0 c 0,44 -17,83 -43,112 l -62,-56 c 13,-14 21,-34 21,-56 l 84,0 z m -43,112 c -27,30 -65,49 -107,49 l 0,-84 c 17,0 33,-8 45,-21 l 62,56 z m -107,49 0,-84 0,84 z m 0,0 -8284,0 0,-84 8284,0 0,84 z m -8284,0 0,-84 0,84 z m 0,0 c -42,0 -80,-19 -107,-49 l 62,-56 c 11,13 28,21 45,21 l 0,84 z m -107,-49 c -26,-29 -43,-68 -43,-112 l 84,0 c 0,22 8,42 21,56 l -62,56 z m -43,-112 84,0 -84,0 z m 0,0 0,-10762 84,0 0,10762 -84,0 z m 0,-10762 84,0 -84,0 z m 0,0 c 0,-44 17,-83 43,-112 l 62,56 c -13,14 -21,34 -21,56 l -84,0 z m 43,-112 c 27,-30 65,-49 107,-49 l 0,84 c -17,0 -33,8 -45,21 l -62,-56 z m 107,-49 0,84 0,-84 z"
           id="path101"
           inkscape:connector-curvature="0"
           style="fill:#1f1a17" /></g><circle
         cy="5813"
         cx="1000"
         r="125"
         class="fil3"
         id="circle103"
         style="fill:#0a0b0c" /><circle
         cy="1086"
         cx="1000"
         r="125"
         class="fil3"
         id="circle105"
         style="fill:#0a0b0c" /><circle
         cy="10540"
         cx="1000"
         r="125"
         class="fil3"
         id="circle107"
         style="fill:#0a0b0c" /></g></g><metadata
     id="metadata109"><rdf:RDF><cc:Work><dc:format>image/svg+xml</dc:format><dc:type
           rdf:resource="http://purl.org/dc/dcmitype/StillImage" /><cc:license
           rdf:resource="http://creativecommons.org/publicdomain/zero/1.0/" /><dc:publisher><cc:Agent
             rdf:about="http://openclipart.org/"><dc:title>Openclipart</dc:title></cc:Agent></dc:publisher><dc:title>Loose Leaf Paper</dc:title><dc:date>2008-03-25T18:33:19</dc:date><dc:description>Simple piece of loose leaf paper</dc:description><dc:source>https://openclipart.org/detail/16004/loose-leaf-paper-by-nexxuz</dc:source><dc:creator><cc:Agent><dc:title>nexxuz</dc:title></cc:Agent></dc:creator><dc:subject><rdf:Bag><rdf:li>how i did it</rdf:li><rdf:li>office</rdf:li><rdf:li>paper</rdf:li><rdf:li>school</rdf:li><rdf:li>supplies</rdf:li></rdf:Bag></dc:subject></cc:Work><cc:License
         rdf:about="http://creativecommons.org/publicdomain/zero/1.0/"><cc:permits
           rdf:resource="http://creativecommons.org/ns#Reproduction" /><cc:permits
           rdf:resource="http://creativecommons.org/ns#Distribution" /><cc:permits
           rdf:resource="http://creativecommons.org/ns#DerivativeWorks" /></cc:License></rdf:RDF></metadata></svg>