<?xml version="1.0" encoding="UTF-8" standalone="no"?>
<!-- Created with Inkscape (http://www.inkscape.org/) -->

<svg
   xmlns:dc="http://purl.org/dc/elements/1.1/"
   xmlns:cc="http://creativecommons.org/ns#"
   xmlns:rdf="http://www.w3.org/1999/02/22-rdf-syntax-ns#"
   xmlns:svg="http://www.w3.org/2000/svg"
   xmlns="http://www.w3.org/2000/svg"
   xmlns:xlink="http://www.w3.org/1999/xlink"
   xmlns:sodipodi="http://sodipodi.sourceforge.net/DTD/sodipodi-0.dtd"
   xmlns:inkscape="http://www.inkscape.org/namespaces/inkscape"
   id="svg2"
   sodipodi:docname="openclipart_289_tree_variant_tmp.svg"
   viewBox="0 0 305.9 305.9"
   sodipodi:version="0.32"
   version="1.0"
   inkscape:output_extension="org.inkscape.output.svg.inkscape"
   inkscape:version="0.91 r13725"
   width="305.89999"
   height="305.89999">
  <defs
     id="defs4">
    <linearGradient
       inkscape:collect="always"
       id="linearGradient4199">
      <stop
         offset="0"
         style="stop-color:#00b688;stop-opacity:1"
         id="stop4201" />
      <stop
         offset="1"
         style="stop-color:#005503;stop-opacity:1"
         id="stop4203" />
    </linearGradient>
    <linearGradient
       inkscape:collect="always"
       id="linearGradient4193">
      <stop
         offset="0"
         style="stop-color:#804e00;stop-opacity:1"
         id="stop4195" />
      <stop
         offset="1"
         style="stop-color:#ccd400;stop-opacity:1"
         id="stop4197" />
    </linearGradient>
    <linearGradient
       id="linearGradient3541"
       inkscape:collect="always">
      <stop
         id="stop3543"
         style="stop-color:#338000"
         offset="0" />
      <stop
         id="stop3545"
         style="stop-color:#55d400"
         offset="1" />
    </linearGradient>
    <linearGradient
       id="linearGradient3395"
       inkscape:collect="always">
      <stop
         id="stop3397"
         style="stop-color:#44b600"
         offset="0" />
      <stop
         id="stop3399"
         style="stop-color:#225500"
         offset="1" />
    </linearGradient>
    <linearGradient
       id="linearGradient3777"
       y2="1236.3"
       gradientUnits="userSpaceOnUse"
       x2="545.92999"
       gradientTransform="translate(-128.73,-171.82)"
       y1="1193.7"
       x1="590.07001"
       inkscape:collect="always">
      <stop
         id="stop3551"
         style="stop-color:#55d400"
         offset="0" />
      <stop
         id="stop3553"
         style="stop-color:#00aa00"
         offset="1" />
    </linearGradient>
    <linearGradient
       id="linearGradient3779"
       y2="1156.7"
       xlink:href="#linearGradient3395"
       gradientUnits="userSpaceOnUse"
       x2="417.45001"
       gradientTransform="matrix(0.38373,-0.92344,0.92344,0.38373,-884.76,1072.1)"
       y1="1060.2"
       x1="440.85001"
       inkscape:collect="always" />
    <linearGradient
       id="linearGradient3781"
       y2="1203.2"
       gradientUnits="userSpaceOnUse"
       x2="427.17999"
       y1="1237.3"
       x1="482.35999"
       inkscape:collect="always">
      <stop
         id="stop3429"
         style="stop-color:#207b04"
         offset="0" />
      <stop
         id="stop3431"
         style="stop-color:#00d400"
         offset="1" />
    </linearGradient>
    <linearGradient
       id="linearGradient3783"
       y2="1089.7"
       xlink:href="#linearGradient4193"
       gradientUnits="userSpaceOnUse"
       x2="183.38"
       gradientTransform="translate(78.291,24.17)"
       y1="1131.7"
       x1="209.13"
       inkscape:collect="always" />
    <linearGradient
       id="linearGradient3785"
       y2="1156.7"
       xlink:href="#linearGradient4199"
       gradientUnits="userSpaceOnUse"
       x2="417.45001"
       gradientTransform="matrix(0.99454,0.10431,-0.10431,0.99454,115.26,-44.721)"
       y1="1060.2"
       x1="440.85001"
       inkscape:collect="always" />
    <linearGradient
       id="linearGradient3787"
       y2="1238.4"
       gradientUnits="userSpaceOnUse"
       x2="316.22"
       gradientTransform="matrix(0.71078,0.70341,-0.70341,0.71078,882.84,50.248)"
       y1="1035"
       x1="385.14999"
       inkscape:collect="always">
      <stop
         id="stop3405"
         style="stop-color:#44b600"
         offset="0" />
      <stop
         id="stop3407"
         style="stop-color:#99ff55"
         offset="1" />
    </linearGradient>
    <linearGradient
       id="linearGradient3789"
       y2="1124.3"
       gradientUnits="userSpaceOnUse"
       x2="343.64001"
       gradientTransform="translate(-11.56,-7.8816)"
       y1="1162.7"
       x1="362.54999"
       inkscape:collect="always">
      <stop
         id="stop3527"
         style="stop-color:#207b04"
         offset="0" />
      <stop
         id="stop3529"
         style="stop-color:#55d400"
         offset="1" />
    </linearGradient>
    <linearGradient
       id="linearGradient3791"
       y2="1089.7"
       xlink:href="#linearGradient3541"
       gradientUnits="userSpaceOnUse"
       x2="183.38"
       gradientTransform="matrix(0.52864,0.33755,-0.27808,0.64169,672.02,369.95)"
       y1="1131.7"
       x1="209.13"
       inkscape:collect="always" />
  </defs>
  <sodipodi:namedview
     id="base"
     bordercolor="#666666"
     inkscape:pageshadow="2"
     inkscape:window-y="-8"
     pagecolor="#ffffff"
     inkscape:window-height="660"
     inkscape:zoom="1.5837011"
     inkscape:window-x="1272"
     showgrid="false"
     borderopacity="1.0"
     inkscape:current-layer="g3870"
     inkscape:cx="235.69848"
     inkscape:cy="158.45528"
     showguides="true"
     inkscape:guide-bbox="true"
     inkscape:window-width="1280"
     inkscape:pageopacity="0.0"
     inkscape:document-units="px"
     inkscape:window-maximized="1" />
  <g
     id="layer1"
     inkscape:label="Capa 1"
     inkscape:groupmode="layer"
     transform="translate(-82.552,-136.22001)">
    <g
       id="g3870"
       inkscape:export-ydpi="90"
       inkscape:export-xdpi="90"
       inkscape:export-filename="/home/multimedia14/Desktop/tree.png"
       transform="matrix(-0.94988,0,0,0.96977,591.48,-837.94972)">
      <path
         id="path3872"
         sodipodi:nodetypes="cccccccccccccccccccc"
         style="fill:url(#linearGradient3777);fill-rule:evenodd;stroke-opacity:0"
         d="m 429.39,1072.5 c 1.58,3.1 2.36,8.2 6.3,5.9 l -0.63,-9.2 6.3,2.2 0.32,-10.3 c 7.44,-7 0.78,-7.5 -0.95,-9.2 l -2.52,-3.3 -3.15,2.2 c 0.89,-5.6 1.88,-11.4 -3.78,-7.1 2.87,-10.7 -1.06,-4.7 -3.78,-1.6 2.13,-6.7 3.6,-10.9 -2.53,-7.6 -1.83,-7.2 -2.75,-1.8 -3.78,2.2 -7.35,-10.9 -4.71,0.6 -4.1,7.6 -4.53,-3.7 -7.86,-5.1 -4.09,7 -10.35,-6 -4.54,2.8 -3.15,7.6 -1.08,5.3 -16.81,6.4 0,16.8 -1.01,15.6 3.03,9.4 6.93,3.8 -2.44,13.3 0.5,9.3 4.73,1.1 3.11,4 5.35,5.7 3.46,-3.2 4.5,7 4.91,2.3 4.42,-4.9 z"
         inkscape:connector-curvature="0" />
      <path
         id="path3874"
         sodipodi:nodetypes="ccccccccccccccscsccccssccccccccccc"
         style="fill:url(#linearGradient3779);fill-rule:evenodd;stroke-opacity:0"
         d="m 333.97,1116.7 c 11.79,-19.1 -5.06,-8 -5.06,-8 4.78,-2.9 8.93,-5.8 1.9,-9.3 12.57,-2.9 7.46,-11.1 3.84,-15 l -7.12,3.1 c 7.33,-16.5 -0.66,-13.6 -9.16,-7.9 7.05,-5.9 7.38,-9 -1.7,-8 3.13,-2.4 9.53,-4.5 -1.69,-8.1 7.59,-6.1 5.66,-9.3 -3.11,-10.5 4.77,-5.8 6.04,-9.8 -3.09,-7.1 l -6.73,0.1 c -2.36,-5.4 -4.75,-10.7 -10,0.8 -1.93,-10.2 -2.51,-6.9 -6.49,-1.1 -11.27,-11.4 -10.12,-1.8 -12.05,2.5 -3.9,1.1 3.74,12.1 2.13,11.7 -11.4,-2.5 -11.1,10.4 -6.48,11.7 -1.52,-0.6 -13.07,4.6 -5.01,11.4 11.61,9.9 -1.51,13.1 -0.41,12.4 l -6.12,5.2 -0.6,7.6 10.18,0.6 c -9.63,3.3 -6.31,10.3 3.08,7.1 5.34,-1.8 -9.96,0.5 -2.02,5.1 12.89,7.6 1.37,11 5.54,5.8 2.6,5 5.9,4.5 9.53,1.4 -0.61,7.9 -0.18,13.1 6.01,3.5 0.93,4.7 0.57,12 7.67,4.7 1.94,10.1 5.96,4 9.92,-1.6 -3.67,12.2 0.48,10.8 6.69,6 4.54,6 7.93,7.9 7.35,-4.3 l 7.56,0.6 c 3.66,1.7 8.6,6.8 6.77,-6 11.17,-0.9 10.79,-5.6 6.48,-11.6 2.31,-11.9 -3.3,-6.1 -7.81,-2.8 z"
         inkscape:connector-curvature="0" />
      <path
         id="path3876"
         sodipodi:nodetypes="cccccccccccccccccccc"
         style="fill:#4bbe01;fill-rule:evenodd;stroke-opacity:0"
         d="m 303.71,1194.2 c 2.63,3.1 3.93,8 10.5,5.8 l -1.05,-8.9 10.51,2.1 0.53,-10 c 12.4,-6.8 1.31,-7.3 -1.58,-8.9 l -4.2,-3.2 -5.26,2.1 c 1.49,-5.4 3.14,-11 -6.3,-6.8 4.79,-10.4 -1.76,-4.6 -6.31,-1.6 3.56,-6.4 6.02,-10.5 -4.2,-7.3 -3.06,-7 -4.6,-1.8 -6.31,2.1 -12.25,-10.6 -7.84,0.6 -6.83,7.3 -7.56,-3.5 -13.11,-4.9 -6.83,6.8 -17.25,-5.8 -7.56,2.8 -5.25,7.4 -1.8,5.1 -28.02,6.2 0,16.3 -1.68,15 5.05,9.1 11.56,3.7 -4.07,12.9 0.84,8.9 7.88,1 5.18,3.8 8.92,5.5 5.78,-3.1 7.5,6.8 8.18,2.3 7.36,-4.8 z"
         inkscape:connector-curvature="0" />
      <path
         id="path3878"
         sodipodi:nodetypes="ccccccccccccccscsccccssccccccccccc"
         style="fill:#44b600;fill-rule:evenodd;stroke-opacity:0"
         d="m 229.09,1148.5 c 2.56,22.3 8.94,3.2 8.94,3.2 -1.98,5.2 -3.44,10 4.2,8.4 -8.02,10.1 1.04,13.3 6.3,14.2 l 3.68,-6.9 c 4.48,17.5 8.94,10.3 12.09,0.6 -1.87,9 -0.23,11.6 6.3,5.2 -0.98,3.8 -4.69,9.4 6.31,5.3 -2.19,9.5 1.32,10.8 8.93,6.3 -0.14,7.5 1.39,11.5 6.83,3.7 l 5.26,-4.3 c 5.2,2.8 10.35,5.5 7.35,-6.8 7.85,6.9 6.26,3.9 5.78,-3.1 15.88,1.9 9.07,-4.9 7.88,-9.5 2.42,-3.2 -10.42,-7.2 -8.93,-7.9 10.56,-5 2.32,-15 -2.1,-13.1 1.56,-0.5 7.41,-11.7 -3.15,-12.1 -15.22,-0.5 -6.92,-11.2 -7.36,-10 l 1.58,-7.9 -4.21,-6.3 -8.4,5.8 c 5.5,-8.6 -1.43,-12 -6.83,-3.7 -3.08,4.8 7.53,-6.5 -1.58,-5.2 -14.78,2.1 -7.88,-7.8 -7.88,-1.1 -5.16,-2.3 -7.44,0.1 -8.41,4.8 -4.41,-6.6 -7.97,-10.4 -6.83,1 -3.68,-3.2 -7.92,-9.1 -8.93,1.1 -7.82,-6.8 -7.19,0.5 -6.83,7.3 -4.64,-11.8 -7.08,-8.2 -8.94,-0.5 -7.31,-1.9 -11.14,-1.3 -3.15,7.9 l -6.3,4.2 c -3.95,0.9 -10.95,0 -1.58,8.9 -8.22,7.6 -5,11.1 2.1,13.1 5.53,10.8 6.38,2.8 7.88,-2.6 z"
         inkscape:connector-curvature="0" />
      <path
         id="path3880"
         sodipodi:nodetypes="cccccccccccccccccccc"
         style="fill:#207b04;fill-rule:evenodd;stroke-opacity:0"
         d="m 420.88,1107.5 c 2.64,3.1 3.94,8 10.51,5.8 l -1.05,-8.9 10.51,2.1 0.52,-10 c 12.4,-6.8 1.31,-7.3 -1.58,-8.9 l -4.2,-3.2 -5.25,2.1 c 1.48,-5.4 3.13,-11 -6.31,-6.8 4.79,-10.4 -1.76,-4.6 -6.3,-1.6 3.55,-6.4 6.01,-10.5 -4.21,-7.3 -3.06,-7 -4.59,-1.8 -6.3,2.1 -12.25,-10.6 -7.85,0.6 -6.83,7.3 -7.57,-3.5 -13.12,-4.8 -6.83,6.8 -17.26,-5.8 -7.56,2.8 -5.26,7.4 -1.79,5.1 -28.01,6.2 0,16.3 -1.68,15 5.06,9.1 11.56,3.7 -4.06,12.9 0.84,8.9 7.88,1 5.19,3.8 8.92,5.5 5.78,-3.1 7.51,6.8 8.18,2.3 7.36,-4.8 z"
         inkscape:connector-curvature="0" />
      <path
         id="path3882"
         sodipodi:nodetypes="cccccccccccccccccccc"
         style="fill:url(#linearGradient3781);fill-rule:evenodd;stroke-opacity:0"
         d="m 449.78,1209.5 c 2.64,3 3.94,7.9 10.51,5.7 l -1.05,-8.9 10.51,2.1 0.52,-10 c 12.4,-6.7 1.31,-7.2 -1.58,-8.9 l -4.2,-3.2 -5.25,2.2 c 1.48,-5.5 3.13,-11 -6.31,-6.9 4.79,-10.4 -1.76,-4.5 -6.3,-1.6 3.55,-6.4 6.01,-10.5 -4.21,-7.3 -3.06,-7 -4.59,-1.8 -6.3,2.1 -12.25,-10.5 -7.85,0.6 -6.83,7.3 -7.57,-3.5 -13.12,-4.8 -6.83,6.9 -17.26,-5.8 -7.56,2.7 -5.26,7.3 -1.79,5.2 -28.01,6.2 0,16.3 -1.68,15.1 5.06,9.1 11.56,3.7 -4.06,12.9 0.84,9 7.88,1.1 5.18,3.8 8.92,5.4 5.78,-3.2 7.51,6.8 8.18,2.3 7.36,-4.7 z"
         inkscape:connector-curvature="0" />
      <path
         id="path3884"
         sodipodi:nodetypes="cccccccccccccccccccc"
         style="fill:#207b04;fill-rule:evenodd;stroke-opacity:0"
         d="m 349.42,1168 c 2.64,3 3.94,7.9 10.51,5.7 l -1.05,-8.9 10.51,2.1 0.52,-10 c 12.4,-6.7 1.31,-7.2 -1.58,-8.9 l -4.2,-3.2 -5.25,2.1 c 1.48,-5.4 3.13,-10.9 -6.31,-6.8 4.79,-10.4 -1.76,-4.5 -6.3,-1.6 3.55,-6.4 6.01,-10.5 -4.21,-7.3 -3.06,-7 -4.59,-1.8 -6.3,2.1 -12.25,-10.5 -7.85,0.6 -6.83,7.3 -7.57,-3.5 -13.12,-4.8 -6.83,6.9 -17.26,-5.8 -7.56,2.7 -5.26,7.3 -1.79,5.2 -28.01,6.2 0,16.3 -1.68,15.1 5.06,9.1 11.56,3.7 -4.06,12.9 0.84,9 7.88,1 5.18,3.9 8.92,5.5 5.78,-3.1 7.51,6.8 8.18,2.3 7.36,-4.7 z"
         inkscape:connector-curvature="0" />
      <path
         id="path3886"
         sodipodi:nodetypes="cccccccccccccccccccc"
         style="fill:#71c837;fill-rule:evenodd;stroke-opacity:0"
         d="m 281.11,1190 c 2.64,3.1 3.94,8 10.51,5.8 l -1.05,-8.9 10.51,2.1 0.52,-10 c 12.41,-6.8 1.31,-7.3 -1.57,-8.9 l -4.21,-3.2 -5.25,2.1 c 1.49,-5.4 3.13,-11 -6.31,-6.8 4.8,-10.4 -1.76,-4.6 -6.3,-1.6 3.55,-6.4 6.02,-10.5 -4.2,-7.4 -3.06,-6.9 -4.6,-1.7 -6.31,2.1 -12.25,-10.5 -7.85,0.7 -6.83,7.4 -7.56,-3.5 -13.11,-4.9 -6.83,6.8 -17.26,-5.8 -7.56,2.8 -5.26,7.4 -1.79,5.1 -28.01,6.2 0,16.3 -1.67,15 5.06,9.1 11.56,3.7 -4.06,12.9 0.84,8.9 7.89,1 5.18,3.8 8.91,5.5 5.78,-3.1 7.5,6.8 8.17,2.3 7.35,-4.8 z"
         inkscape:connector-curvature="0" />
      <path
         id="path3888"
         sodipodi:nodetypes="ccccccccccccccscsccccssccccccccccc"
         style="fill:#44b600;fill-rule:evenodd;stroke-opacity:0"
         d="m 425.08,1166.4 c 2.56,22.3 8.93,3.1 8.93,3.1 -1.97,5.3 -3.43,10.1 4.21,8.4 -8.02,10.2 1.04,13.4 6.3,14.2 l 3.68,-6.8 c 4.48,17.5 8.94,10.3 12.09,0.5 -1.87,9 -0.23,11.7 6.3,5.3 -0.98,3.8 -4.69,9.4 6.31,5.2 -2.19,9.5 1.32,10.9 8.93,6.3 -0.14,7.6 1.39,11.5 6.83,3.7 l 5.26,-4.2 c 5.2,2.8 10.35,5.5 7.35,-6.8 7.85,6.8 6.26,3.9 5.78,-3.2 15.88,2 9.07,-4.8 7.88,-9.4 2.42,-3.3 -10.42,-7.2 -8.93,-7.9 10.56,-5 2.32,-15 -2.1,-13.1 1.56,-0.5 7.41,-11.8 -3.15,-12.1 -15.22,-0.6 -6.92,-11.2 -7.36,-10 l 1.58,-7.9 -4.21,-6.3 -8.4,5.8 c 5.5,-8.6 -1.43,-12 -6.84,-3.7 -3.07,4.7 7.54,-6.5 -1.57,-5.3 -14.78,2.1 -7.88,-7.7 -7.88,-1 -5.16,-2.4 -7.44,0.1 -8.41,4.7 -4.41,-6.5 -7.97,-10.4 -6.83,1.1 -3.68,-3.2 -7.92,-9.1 -8.93,1 -7.82,-6.8 -7.19,0.5 -6.83,7.4 -4.64,-11.8 -7.08,-8.2 -8.94,-0.5 -7.31,-2 -11.14,-1.4 -3.15,7.8 l -6.3,4.2 c -3.95,1 -10.95,0.1 -1.58,9 -8.22,7.6 -5,11.1 2.1,13.1 5.53,10.7 6.38,2.8 7.88,-2.6 z"
         inkscape:connector-curvature="0" />
      <path
         id="path3890"
         sodipodi:nodetypes="ccccccccccccccscsccccssccccccccccc"
         style="fill:#207b04;fill-rule:evenodd;stroke-opacity:0"
         d="m 301.08,1101.2 c 2.56,22.3 8.93,3.2 8.93,3.2 -1.98,5.2 -3.44,10 4.2,8.4 -8.02,10.1 1.05,13.4 6.31,14.2 l 3.68,-6.9 c 4.48,17.6 8.94,10.3 12.08,0.6 -1.86,9 -0.23,11.6 6.31,5.2 -0.99,3.8 -4.7,9.5 6.3,5.3 -2.19,9.5 1.33,10.8 8.94,6.3 -0.14,7.5 1.38,11.5 6.83,3.7 l 5.25,-4.2 c 5.21,2.7 10.36,5.4 7.36,-6.9 7.85,6.9 6.25,3.9 5.78,-3.1 15.88,1.9 9.07,-4.9 7.88,-9.5 2.42,-3.2 -10.42,-7.2 -8.93,-7.9 10.55,-5 2.32,-14.9 -2.11,-13.1 1.57,-0.5 7.41,-11.7 -3.15,-12.1 -15.22,-0.5 -6.91,-11.2 -7.35,-10 l 1.57,-7.9 -4.2,-6.3 -8.41,5.8 c 5.51,-8.5 -1.42,-12 -6.83,-3.7 -3.07,4.8 7.54,-6.5 -1.58,-5.2 -14.77,2.1 -7.88,-7.8 -7.88,-1.1 -5.16,-2.3 -7.43,0.1 -8.4,4.8 -4.41,-6.6 -7.97,-10.4 -6.84,1 -3.68,-3.2 -7.92,-9.1 -8.93,1.1 -7.82,-6.8 -7.19,0.5 -6.83,7.3 -4.64,-11.8 -7.07,-8.2 -8.93,-0.5 -7.31,-1.9 -11.15,-1.3 -3.15,7.9 l -6.31,4.2 c -3.94,0.9 -10.95,0 -1.58,8.9 -8.22,7.6 -5,11.1 2.11,13.2 5.53,10.7 6.38,2.7 7.88,-2.7 z"
         inkscape:connector-curvature="0" />
      <path
         id="path3892"
         sodipodi:nodetypes="ccccccccccccccscsccccssccccccccccc"
         style="fill:#207b04;fill-rule:evenodd;stroke-opacity:0"
         d="m 362.91,1187.7 c 11.96,19 9.41,-1 9.41,-1 0.48,5.6 1.26,10.6 7.43,5.8 -2.85,12.5 6.74,11.5 11.83,10 l 0.36,-7.7 c 11.62,13.8 12.51,5.3 11.12,-4.8 2.23,8.9 4.83,10.6 7.96,2 0.76,3.9 -0.15,10.5 7.96,2 2.13,9.5 5.88,9.2 10.78,1.8 3.13,6.9 6.23,9.8 7.75,0.4 l 2.91,-6.1 c 5.9,0.3 11.7,0.4 3.68,-9.3 10.03,2.7 7.32,0.8 3.84,-5.4 15.15,-5.1 6.08,-8.3 3.01,-11.9 0.78,-4 -12.5,-2 -11.47,-3.2 7.34,-9.2 -4.39,-14.6 -7.58,-11 1.2,-1.1 1.6,-13.7 -8.08,-9.5 -13.95,6.1 -11.08,-7.1 -10.95,-5.8 l -2,-7.8 -6.52,-3.9 -5.07,8.9 c 1.25,-10.1 -6.47,-10.2 -7.75,-0.4 -0.73,5.6 3.96,-9.1 -3.7,-4 -12.42,8.2 -10.48,-3.6 -7.56,2.4 -5.67,0.2 -6.65,3.4 -5.53,7.9 -6.81,-4 -11.67,-5.9 -5.7,4 -4.69,-1.3 -11.09,-4.8 -7.59,4.8 -9.99,-2.8 -6.26,3.5 -2.97,9.6 -9.3,-8.7 -9.92,-4.4 -8.28,3.4 -7.42,1.4 -10.62,3.6 0.57,8.4 l -3.86,6.5 c -3.15,2.6 -9.86,4.8 2.45,8.8 -4.11,10.4 0.29,12.1 7.58,10.9 9.63,7.3 6.95,-0.3 5.97,-5.8 z"
         inkscape:connector-curvature="0" />
      <path
         id="path3894"
         sodipodi:nodetypes="cccccccccccccccccccc"
         style="fill:#4bbe01;fill-rule:evenodd;stroke-opacity:0"
         d="m 288.47,1141.2 c 2.64,3 3.94,7.9 10.51,5.7 l -1.05,-8.9 10.5,2.1 0.53,-10 c 12.4,-6.7 1.31,-7.2 -1.58,-8.9 l -4.2,-3.2 -5.25,2.1 c 1.48,-5.4 3.13,-10.9 -6.31,-6.8 4.79,-10.4 -1.76,-4.5 -6.31,-1.6 3.56,-6.4 6.02,-10.5 -4.2,-7.3 -3.06,-7 -4.59,-1.8 -6.3,2.1 -12.25,-10.5 -7.85,0.6 -6.83,7.3 -7.57,-3.5 -13.12,-4.8 -6.84,6.9 -17.25,-5.8 -7.55,2.7 -5.25,7.3 -1.79,5.2 -28.01,6.2 0,16.3 -1.68,15.1 5.06,9.1 11.56,3.7 -4.06,12.9 0.84,9 7.88,1 5.18,3.9 8.92,5.5 5.78,-3.1 7.5,6.8 8.18,2.3 7.36,-4.7 z"
         inkscape:connector-curvature="0" />
      <path
         id="path3896"
         sodipodi:nodetypes="cccccccccccccccccccc"
         style="fill:#4bbe01;fill-rule:evenodd;stroke-opacity:0"
         d="m 362.55,1114.4 c 2.64,3 3.94,7.9 10.51,5.7 l -1.05,-8.9 10.51,2.1 0.53,-10 c 12.4,-6.7 1.31,-7.2 -1.58,-8.9 l -4.2,-3.2 -5.26,2.1 c 1.49,-5.4 3.14,-10.9 -6.3,-6.8 4.79,-10.4 -1.76,-4.5 -6.31,-1.6 3.56,-6.4 6.02,-10.5 -4.2,-7.3 -3.06,-7 -4.6,-1.8 -6.31,2.1 -12.25,-10.5 -7.85,0.6 -6.83,7.3 -7.56,-3.5 -13.11,-4.8 -6.83,6.9 -17.25,-5.8 -7.56,2.7 -5.25,7.3 -1.8,5.2 -28.02,6.2 0,16.3 -1.68,15.1 5.05,9.1 11.56,3.7 -4.07,12.9 0.83,9 7.88,1 5.18,3.9 8.92,5.5 5.78,-3.1 7.5,6.8 8.18,2.3 7.35,-4.7 z"
         inkscape:connector-curvature="0" />
      <path
         id="path3898"
         sodipodi:nodetypes="cccccccccccccccccccc"
         style="fill:#4bbe01;fill-rule:evenodd;stroke-opacity:0"
         d="m 419.3,1190.6 c 2.64,3 3.94,7.9 10.51,5.7 l -1.05,-8.9 10.51,2.1 0.52,-10 c 12.41,-6.7 1.32,-7.2 -1.57,-8.9 l -4.2,-3.2 -5.26,2.1 c 1.49,-5.4 3.13,-10.9 -6.3,-6.8 4.79,-10.4 -1.76,-4.5 -6.31,-1.6 3.55,-6.4 6.02,-10.5 -4.2,-7.3 -3.06,-7 -4.6,-1.8 -6.31,2.1 -12.25,-10.5 -7.85,0.6 -6.83,7.3 -7.56,-3.5 -13.11,-4.8 -6.83,6.9 -17.26,-5.9 -7.56,2.7 -5.25,7.3 -1.8,5.1 -28.02,6.2 0,16.3 -1.68,15.1 5.05,9.1 11.55,3.7 -4.06,12.9 0.84,9 7.89,1 5.18,3.9 8.92,5.5 5.78,-3.1 7.5,6.8 8.17,2.3 7.35,-4.7 z"
         inkscape:connector-curvature="0" />
      <path
         id="path3900"
         sodipodi:nodetypes="ccccccccccccccscsccccssccccccccccc"
         style="fill:#44b600;fill-rule:evenodd;stroke-opacity:0"
         d="m 258.34,1146.7 c 11.96,19 9.42,-1 9.42,-1 0.48,5.6 1.26,10.6 7.43,5.8 -2.85,12.6 6.73,11.6 11.83,10 l 0.35,-7.7 c 11.63,13.8 12.51,5.4 11.13,-4.8 2.22,9 4.83,10.6 7.95,2 0.77,3.9 -0.14,10.6 7.96,2 2.14,9.5 5.88,9.2 10.79,1.8 3.13,6.9 6.23,9.8 7.75,0.4 l 2.91,-6.1 c 5.9,0.3 11.7,0.4 3.67,-9.3 10.04,2.7 7.32,0.8 3.85,-5.4 15.15,-5.1 6.08,-8.2 3,-11.9 0.79,-4 -12.49,-2 -11.46,-3.2 7.33,-9.1 -4.4,-14.5 -7.59,-11 1.21,-1.1 1.61,-13.7 -8.07,-9.5 -13.96,6.1 -11.09,-7.1 -10.96,-5.8 l -1.99,-7.8 -6.52,-3.9 -5.07,8.9 c 1.25,-10.1 -6.47,-10.2 -7.75,-0.4 -0.73,5.6 3.96,-9.1 -3.7,-4 -12.42,8.3 -10.48,-3.6 -7.56,2.5 -5.67,0.1 -6.66,3.3 -5.53,7.9 -6.81,-4.1 -11.68,-6 -5.7,3.9 -4.7,-1.3 -11.09,-4.8 -7.6,4.8 -9.98,-2.7 -6.26,3.6 -2.97,9.6 -9.29,-8.7 -9.92,-4.3 -8.28,3.4 -7.42,1.4 -10.61,3.6 0.58,8.4 l -3.86,6.6 c -3.16,2.5 -9.87,4.7 2.44,8.7 -4.11,10.4 0.3,12.1 7.59,10.9 9.63,7.3 6.94,-0.3 5.96,-5.8 z"
         inkscape:connector-curvature="0" />
      <path
         id="path3902"
         sodipodi:nodetypes="ccccccccccccccccccccccccccccccscc"
         style="fill:#a05a2c;fill-rule:evenodd;stroke-opacity:0"
         d="m 342.06,1284.6 8.41,-38.9 -2.63,-39.9 c -8.75,-12 -21.31,-22.1 -46.76,-25.8 -8.06,-1.4 -14.25,2.9 -21.02,5.3 l 8.41,-8.4 -17.87,-11.6 -1.57,-11.5 c 10.11,19.5 27.19,16.4 42.56,18.9 l -22.07,-31.5 4.73,-4.8 c 3.37,13 9.67,18.6 15.76,24.7 9.26,-5.6 18.01,-11.7 23.12,-21.5 l 3.15,7.9 -20.49,18.4 c 8.12,11.3 17.3,-1.4 24.17,8.4 8.02,-10.6 9.99,-24.1 12.61,-37.3 l 7.88,5.2 -14.18,34.7 10.51,14.2 c 16.97,-22.1 30.78,-52.6 51.49,-64.7 l 7.88,9 c -22.69,13.6 -20.92,24.9 -29.95,37.3 l 12.61,26.8 c 14.93,-9.1 36.16,-16 44.66,-29.4 l 3.16,-20 5.25,-8.4 -2.1,24.7 c 11.03,5.7 22.07,-2.5 33.1,-7.4 l 1.58,5.3 c -21.79,0.2 -91.84,58.5 -87.23,50.9 5.3,-8.7 12.18,75.7 14.72,74.7 -42.1,-3.6 -49.12,8.6 -69.89,-5.3 z"
         inkscape:connector-curvature="0" />
      <path
         id="path3904"
         sodipodi:nodetypes="ccccccccccccccscsccccssccccccccccc"
         style="fill:#44b600;fill-rule:evenodd;stroke-opacity:0"
         d="m 441.72,1152 c 11.96,19 9.42,-1 9.42,-1 0.48,5.5 1.26,10.5 7.43,5.7 -2.85,12.6 6.73,11.6 11.83,10.1 l 0.35,-7.8 c 11.63,13.9 12.51,5.4 11.12,-4.7 2.23,8.9 4.83,10.6 7.96,2 0.77,3.8 -0.14,10.5 7.96,2 2.14,9.5 5.88,9.2 10.78,1.8 3.14,6.8 6.24,9.8 7.75,0.3 l 2.92,-6 c 5.9,0.2 11.69,0.4 3.67,-9.4 10.04,2.8 7.32,0.8 3.85,-5.3 15.15,-5.1 6.08,-8.3 3,-11.9 0.79,-4 -12.5,-2 -11.46,-3.3 7.33,-9.1 -4.4,-14.5 -7.59,-10.9 1.21,-1.1 1.61,-13.8 -8.07,-9.5 -13.96,6.1 -11.09,-7.1 -10.96,-5.8 l -1.99,-7.8 -6.52,-3.9 -5.07,8.9 c 1.25,-10.2 -6.48,-10.2 -7.75,-0.4 -0.73,5.6 3.96,-9.2 -3.7,-4.1 -12.42,8.3 -10.48,-3.6 -7.56,2.5 -5.67,0.1 -6.66,3.3 -5.53,7.9 -6.81,-4 -11.68,-5.9 -5.7,3.9 -4.7,-1.2 -11.09,-4.8 -7.6,4.8 -9.98,-2.7 -6.26,3.6 -2.97,9.6 -9.29,-8.6 -9.92,-4.3 -8.28,3.4 -7.42,1.5 -10.62,3.7 0.58,8.5 l -3.87,6.5 c -3.15,2.6 -9.86,4.8 2.45,8.7 -4.11,10.5 0.3,12.2 7.59,11 9.63,7.3 6.94,-0.3 5.96,-5.8 z"
         inkscape:connector-curvature="0" />
      <path
         id="path3906"
         sodipodi:nodetypes="ccccccccccccccscsccccssccccccccccc"
         style="fill:url(#linearGradient3783);fill-rule:evenodd;stroke-opacity:0"
         d="m 248.89,1132.6 c 11.96,18.9 9.41,-1.1 9.41,-1.1 0.48,5.6 1.26,10.6 7.43,5.8 -2.85,12.6 6.73,11.6 11.83,10 l 0.36,-7.7 c 11.62,13.8 12.51,5.4 11.12,-4.8 2.22,9 4.83,10.6 7.96,2 0.76,3.9 -0.15,10.6 7.96,2 2.13,9.5 5.87,9.2 10.78,1.8 3.13,6.9 6.23,9.8 7.75,0.4 l 2.91,-6.1 c 5.9,0.3 11.7,0.5 3.67,-9.3 10.04,2.8 7.33,0.8 3.85,-5.3 15.15,-5.2 6.08,-8.3 3.01,-12 0.78,-3.9 -12.5,-1.9 -11.47,-3.2 7.34,-9.1 -4.4,-14.5 -7.58,-10.9 1.2,-1.1 1.6,-13.8 -8.08,-9.6 -13.95,6.1 -11.08,-7.1 -10.95,-5.8 l -2,-7.8 -6.52,-3.8 -5.07,8.8 c 1.25,-10.1 -6.47,-10.2 -7.75,-0.3 -0.73,5.5 3.96,-9.2 -3.7,-4.1 -12.42,8.3 -10.48,-3.6 -7.56,2.5 -5.67,0.1 -6.66,3.3 -5.53,7.9 -6.81,-4 -11.67,-5.9 -5.7,3.9 -4.69,-1.3 -11.09,-4.8 -7.59,4.8 -9.99,-2.7 -6.26,3.6 -2.97,9.6 -9.3,-8.6 -9.92,-4.3 -8.28,3.4 -7.43,1.4 -10.62,3.6 0.57,8.5 l -3.86,6.5 c -3.15,2.5 -9.86,4.7 2.45,8.7 -4.11,10.4 0.29,12.2 7.58,10.9 9.63,7.3 6.95,-0.2 5.97,-5.7 z"
         inkscape:connector-curvature="0" />
      <path
         id="path3908"
         sodipodi:nodetypes="ccccccccccccccscsccccssccccccccccc"
         style="fill:url(#linearGradient3785);fill-rule:evenodd;stroke-opacity:0"
         d="m 420.25,1136.1 c 21.66,5.8 6.23,-7.2 6.23,-7.2 4.12,3.8 8.08,6.9 9.37,-0.8 6.43,11.2 12.8,4 15.51,-0.6 l -4.99,-5.9 c 17.93,2.3 12.85,-4.5 4.96,-11.1 7.69,5.1 10.72,4.6 7.21,-3.9 3.18,2.3 7.03,7.9 7.21,-3.9 8.01,5.6 10.55,2.8 9.16,-6 6.94,2.9 11.21,3 5.95,-4.9 l -1.97,-6.5 c 4.51,-3.8 8.89,-7.6 -3.63,-9.3 9.26,-4.8 5.93,-4.4 -0.79,-6.6 7.68,-14 -1.14,-10.2 -5.87,-10.8 -2.11,-3.4 -10.52,7 -10.63,5.4 -0.77,-11.7 -13.06,-7.7 -12.98,-2.9 0.14,-1.6 -8.14,-11.2 -12.4,-1.6 -6.13,14 -12.96,2.3 -11.99,3.2 l -6.74,-4.4 -7.42,1.6 2.27,9.9 c -5.93,-8.2 -11.66,-3.1 -5.94,5 3.24,4.6 -3.29,-9.4 -5.47,-0.5 -3.54,14.5 -10.15,4.5 -3.89,7 -4.09,3.9 -2.65,6.9 1.29,9.5 -7.73,1.7 -12.6,3.6 -1.55,6.8 -4.32,2.2 -11.41,4 -2.33,8.7 -9.19,4.7 -2.18,6.8 4.31,9 -12.68,0 -10.21,3.6 -3.79,8.1 -4.49,6.1 -5.34,9.9 6.16,5.9 l 1.58,7.4 c -0.6,4 -4.03,10.2 7.72,4.8 4.04,10.4 8.45,8.7 12.98,2.9 12.02,-1.2 4.92,-4.9 0.47,-8.3 z"
         inkscape:connector-curvature="0" />
      <path
         id="path3910"
         sodipodi:nodetypes="ccccccccccccccscsccccssccccccccccc"
         style="fill:url(#linearGradient3787);fill-rule:evenodd;stroke-opacity:0"
         d="m 342.38,1083.7 c 1.74,22.4 8.81,3.5 8.81,3.5 -2.17,5.2 -3.8,10 3.89,8.6 -8.38,9.8 0.56,13.4 5.78,14.4 l 3.93,-6.7 c 3.84,17.7 8.56,10.6 12.06,1 -2.2,8.9 -0.66,11.6 6.11,5.5 -1.13,3.7 -5.04,9.2 6.1,5.4 -2.54,9.4 0.93,10.9 8.7,6.7 -0.42,7.5 0.96,11.5 6.69,3.9 l 5.41,-4 c 5.1,3 10.15,5.8 7.6,-6.6 7.59,7.1 6.11,4.1 5.89,-2.9 15.8,2.5 9.24,-4.5 8.22,-9.2 2.54,-3.1 -10.15,-7.5 -8.63,-8.2 10.73,-4.6 2.87,-14.9 -1.62,-13.2 1.58,-0.4 7.83,-11.4 -2.71,-12.2 -15.19,-1.1 -6.5,-11.4 -6.98,-10.2 l 1.86,-7.8 -3.97,-6.5 -8.61,5.5 c 5.82,-8.4 -0.98,-12.1 -6.69,-4 -3.25,4.6 7.77,-6.2 -1.39,-5.3 -14.84,1.6 -7.59,-8 -7.83,-1.3 -5.07,-2.5 -7.44,-0.2 -8.58,4.4 -4.16,-6.7 -7.58,-10.7 -6.86,0.8 -3.57,-3.3 -7.58,-9.4 -8.97,0.7 -7.56,-7 -7.2,0.3 -7.09,7.1 -4.21,-11.9 -6.77,-8.4 -8.91,-0.8 -7.24,-2.2 -11.09,-1.7 -3.44,7.7 l -6.46,4 c -3.97,0.8 -10.94,-0.4 -1.9,8.9 -8.5,7.3 -5.4,10.9 1.62,13.2 5.13,10.9 6.27,3 7.97,-2.4 z"
         inkscape:connector-curvature="0" />
      <g
         id="g3912"
         transform="translate(16.814,297.93)">
        <path
           id="path3914"
           sodipodi:nodetypes="ccccccccscccccc"
           style="fill:#c87137;fill-rule:evenodd;stroke-opacity:0"
           d="m 328.92,991.37 c 3.8,-3.68 9.36,-58.28 7.36,-58.28 -2.99,-13.66 -4.07,-27.33 -13.66,-40.99 -11.64,-3.43 -22.78,-9.38 -35.73,-6.3 l -19.97,-9.99 15.24,2.11 -16.29,-31.53 21.02,31.53 c 0,0 2.63,-18.39 2.1,-16.29 -0.52,2.1 1.58,15.76 1.58,15.76 23.18,3.85 29.98,7.71 43.09,11.56 l 8.4,43.09 -5.78,39.93 c 7.28,8.18 6.58,15.22 4.19,22.02 l -11.55,-2.62 z"
           inkscape:connector-curvature="0" />
        <path
           id="path3916"
           sodipodi:nodetypes="cscccccccccc"
           style="fill:#d38d5f;fill-rule:evenodd;stroke-opacity:0"
           d="m 347.32,991.94 c 0,0 -6.74,-80.16 -4.21,-83.55 3.99,-5.33 -23.17,-44.78 -23.64,-44.66 -6,-3.42 -8.33,-12.06 -16.82,-10.51 l -26.79,3.15 15.76,-6.3 c -0.93,-8.03 -11.4,-11.29 -17.34,-16.82 l 18.39,7.88 c 5.46,-6.87 -0.93,-15.44 -4.73,-23.64 11.75,8.93 13.56,17.86 17.34,26.8 22.17,10.4 34.6,30.56 45.72,52.02 -7.63,36.99 -2.53,63.81 -3.68,95.63 z"
           inkscape:connector-curvature="0" />
        <path
           id="path3918"
           sodipodi:nodetypes="cccscccscccccccccccccscscccccscccccccc"
           style="fill:#c87137;fill-rule:evenodd;stroke-opacity:0"
           d="m 347.85,991.89 c 0.52,-2.63 0.52,-32.01 0.52,-32.01 L 351,947.27 c 0,0 -5.26,-4.2 -3.68,-6.3 1.57,-2.1 3.15,-19.44 3.15,-19.44 -2.51,-8.55 -1.17,-15.8 4.73,-21.55 -3.63,-3.51 -1.85,-8.84 -1.58,-13.66 -2.92,3.91 -2.66,-22.71 -1.57,-26.27 0.61,-2.01 -11.04,-33.63 -11.04,-33.63 l -30.47,-35.73 c 6.25,3.93 11.41,13.34 18.91,11.04 l 3.15,-29.95 1.06,31 c 8.77,-3.1 13.46,-11.1 15.23,-22.6 0.82,10.26 -1.41,19.85 -13.13,27.33 4.06,17.48 19.79,24.77 22.59,40.98 1.65,-11.52 13.44,-11.33 15.24,-25.22 l -3.15,-31 -5.26,-32.05 8.41,23.12 c 8.93,1.56 12.88,-5.58 16.29,-13.67 2.36,3.04 -5.14,21.02 -13.14,15.77 -3.2,-2.1 1.05,29.42 1.05,29.42 0,0 13.14,-0.52 15.24,-2.1 2.1,-1.58 14.71,-28.9 14.71,-28.9 l -5.25,19.97 c 16.25,3.05 20.19,-10.32 28.9,-17.34 -8.42,29 -36.62,31.63 -56.22,45.71 l -5.26,13.66 c 0,0 -7.88,2.63 -7.88,5.26 0,2.63 2.63,16.29 2.63,16.29 l 2.1,17.86 -3.15,13.66 3.15,21.55 -5.26,25.74 c -0.97,9.67 -2.35,19.14 2.11,31.53 l -1.05,17.32 -14.71,-3.18 z"
           inkscape:connector-curvature="0" />
        <path
           id="path3920"
           sodipodi:nodetypes="cccccscccccccscccccsccccc"
           style="fill:#d38d5f;fill-rule:evenodd;stroke-opacity:0"
           d="m 401.44,995.61 c -3.5,-1.29 -20.06,-41.56 -17.34,-45.18 l 2.1,-27.33 -3.68,-16.81 8.41,-12.61 c 0,0 14.19,-16.29 16.29,-16.82 2.1,-0.52 13.66,-4.2 13.66,-4.2 24.5,13.55 38.19,29.01 38.88,46.77 l -4.73,-26.8 c -9.27,-4.25 -17.88,-10.47 -25.74,-18.92 l 2.1,-4.2 c 11.33,12.64 27.26,6.92 44.13,-2.63 -17.78,5.01 -35.79,10.71 -46.76,-4.73 1.93,-3.21 -19.36,4.77 -24.17,6.83 -1.9,0.82 -21.09,9.68 -21.54,11.04 l -10.51,4.73 c 7.25,-8.24 8.6,-16.47 8.93,-24.7 l 14.19,-16.81 c 4.4,-5.9 18.33,-10.21 32.05,-10.51 0,0 -18.03,1.9 -16.81,-1.05 3.15,-7.69 27.84,-4.52 27.84,-4.21 -8.23,-7.16 -18.32,-3.22 -27.84,-2.62 -21.66,11.13 -26.16,22.82 -37.84,35.2 l -8.4,131.89 36.78,3.67 z"
           inkscape:connector-curvature="0" />
        <path
           id="path3922"
           sodipodi:nodetypes="csscccccsccccccc"
           style="fill:#502d16;fill-rule:evenodd;stroke-opacity:0"
           d="m 344.16,980.9 c 3.16,-1.57 5.26,-6.83 4.73,-9.46 -0.52,-2.62 -3.67,-3.15 -2.62,-5.25 1.05,-2.1 2.62,-16.29 2.62,-16.29 l -0.52,-12.08 c -1.92,-8.11 -3.58,-16.27 0,-25.75 l 1.05,-13.14 3.15,-15.76 c 0,0 2.1,15.24 2.1,17.34 0,2.1 -3.67,13.66 -3.67,13.66 l 1.05,16.29 -1.58,13.14 1.58,10.5 -3.16,10.51 2.64,29.37 -7.37,-13.08 z"
           inkscape:connector-curvature="0" />
        <path
           id="path3924"
           style="fill:#784421;fill-rule:evenodd;stroke-opacity:0"
           d="m 360.98,979.85 0,-47.29 4.2,-22.59 c 0,0 -4.73,-11.56 -4.2,-14.19 0.52,-2.63 4.73,-25.22 4.73,-25.22 l -4.73,-6.83 1.05,-19.44 7.88,-5.78 6.31,-11.04 14.18,-11.03 c 0,0 -22.07,27.32 -23.64,35.73 -1.58,8.41 4.2,15.24 4.2,15.24 l -3.15,15.76 2.1,16.29 -3.68,22.59 3.16,6.31 -5.26,13.66 6.31,23.64 -8.94,24.17 -0.52,-9.98 z"
           inkscape:connector-curvature="0" />
        <path
           id="path3926"
           sodipodi:nodetypes="cccccccccc"
           style="fill:#502d16;fill-rule:evenodd;stroke-opacity:0"
           d="m 380.42,885.27 c 5.16,3.07 5.71,7.67 6.83,12.09 l 6.83,-9.46 5.78,-1.58 -2.63,-11.03 -3.15,1.05 c 2.01,4.63 3.4,8.65 2.63,10.51 l -8.41,-3.68 2.63,5.25 c 0,1.76 -3.5,0.7 -10.51,-3.15 z"
           inkscape:connector-curvature="0" />
        <path
           id="path3928"
           style="fill:#502d16;fill-rule:evenodd;stroke-opacity:0"
           d="m 374.64,785.96 -2.63,12.09 5.26,19.44 8.93,0.53 c 0,0 2.63,-1.06 5.78,-4.21 3.15,-3.15 5.25,-7.88 5.25,-7.88 l -13.13,7.36 c 0,0 -3.68,3.15 -4.73,0.52 -1.05,-2.63 -4.73,-19.44 -4.73,-19.44 l 1.58,-11.56 -1.58,3.15 z"
           inkscape:connector-curvature="0" />
        <path
           id="path3930"
           sodipodi:nodetypes="ccccccccsccccccccccc"
           style="fill:#784421;fill-rule:evenodd;stroke-opacity:0"
           d="m 340.48,994.52 c 1.05,-2.63 1.06,-27.8 1.06,-27.8 l -4.21,-2.63 3.68,-8.41 1.05,-9.98 3.68,-11.56 -3.15,-20.49 -0.53,-12.62 c 0,0 -5.25,-15.23 -9.46,-15.23 -4.2,0 -16.81,-8.41 -16.81,-8.41 l -14.71,2.1 -12.09,0.53 15.77,2.62 8.93,-1.05 14.19,7.89 9.98,12.61 2.1,28.37 -2.63,24.17 2.11,31 1.04,8.89 z"
           inkscape:connector-curvature="0" />
        <path
           id="path3932"
           sodipodi:nodetypes="ccccccccc"
           style="fill:#784421;fill-rule:evenodd;stroke-opacity:0"
           d="m 295.82,845.86 c 4.73,0 27.33,17.87 27.33,17.87 4.82,3.85 4.78,17.41 14.71,11.03 l 5.78,17.87 7.88,11.56 -6.83,-27.85 c -6.99,-5.45 -14.12,-10.75 -18.39,-18.92 l -18.92,-9.45 -11.56,-2.11 z"
           inkscape:connector-curvature="0" />
        <path
           id="path3934"
           sodipodi:nodetypes="ccsscccsccc"
           style="fill:#784421;fill-rule:evenodd;stroke-opacity:0"
           d="m 369.39,990.36 3.15,-20.49 c 0,0 -5.78,-15.24 -5.26,-17.34 0.53,-2.1 3.68,-22.07 3.16,-24.17 -0.53,-2.1 0.52,-21.55 0.52,-21.55 l 2.1,-20.49 c 7.13,-8.38 13.18,-9.24 18.92,-7.88 -7.03,-1.95 -17.28,11.26 -15.24,15.24 1.54,2.99 -1.32,42.51 2.1,43.61 -12.3,4.51 2.11,38.15 3.68,57.8 l -13.13,-4.73 z"
           inkscape:connector-curvature="0" />
        <path
           id="path3936"
           style="fill:#502d16;fill-rule:evenodd;stroke-opacity:0"
           d="m 380.95,991.41 c 0,0 -5.26,-14.19 -5.26,-18.39 0,-4.2 3.15,-4.73 -0.52,-9.46 -3.68,-4.73 -3.68,-20.49 -3.68,-20.49 0,0 6.83,15.76 6.83,17.87 0,2.1 3.15,15.23 3.15,15.23 l 5.26,7.36 1.05,10.51 -6.83,-2.63 z"
           inkscape:connector-curvature="0" />
        <path
           id="path3938"
           style="fill:#784421;fill-rule:evenodd;stroke-opacity:0"
           d="m 383.57,904.71 24.17,-8.93 14.72,-14.71 -38.89,23.64 z"
           inkscape:connector-curvature="0" />
        <path
           id="path3940"
           style="fill:#502d16;fill-rule:evenodd;stroke-opacity:0"
           d="m 329.98,864.25 1.05,9.99 7.35,-2.1 -4.2,-4.21 -4.2,-3.68 z"
           inkscape:connector-curvature="0" />
      </g>
      <path
         id="path3942"
         sodipodi:nodetypes="cccccccccccccccccccc"
         style="fill:url(#linearGradient3789);fill-rule:evenodd;stroke-opacity:0"
         d="m 347.92,1142.5 c 2.01,2.2 3,5.7 8.01,4.1 l -0.8,-6.3 8,1.5 0.4,-7.1 c 9.45,-4.8 1,-5.2 -1.2,-6.4 l -3.2,-2.2 -4,1.5 c 1.13,-3.8 2.38,-7.8 -4.81,-4.9 3.65,-7.3 -1.34,-3.2 -4.8,-1.1 2.71,-4.6 4.58,-7.5 -3.2,-5.2 -2.33,-4.9 -3.5,-1.2 -4.81,1.5 -9.33,-7.5 -5.98,0.4 -5.2,5.2 -5.76,-2.5 -9.99,-3.4 -5.2,4.9 -13.15,-4.2 -5.76,1.9 -4.01,5.2 -1.36,3.6 -21.34,4.4 0,11.6 -1.27,10.7 3.86,6.4 8.81,2.6 -3.1,9.2 0.64,6.4 6,0.7 3.95,2.8 6.8,3.9 4.41,-2.2 5.71,4.9 6.23,1.6 5.6,-3.4 z"
         inkscape:connector-curvature="0" />
      <path
         id="path3944"
         sodipodi:nodetypes="ccccccccccccccscsccccssccccccccccc"
         style="fill:url(#linearGradient3791);fill-rule:evenodd;stroke-opacity:0"
         d="m 453.98,1138.8 c 1.05,16.2 5.27,2.5 5.27,2.5 -1.3,3.7 -2.27,7.2 2.32,6.2 -5.01,7.1 0.34,9.7 3.46,10.4 l 2.34,-4.8 c 2.3,12.8 5.12,7.7 7.21,0.7 -1.31,6.5 -0.39,8.4 3.65,4 -0.68,2.7 -3.01,6.7 3.65,3.9 -1.52,6.8 0.55,7.9 5.19,4.8 -0.25,5.5 0.58,8.4 4,2.9 l 3.23,-2.9 c 3.05,2.1 6.06,4.2 4.53,-4.8 4.54,5.2 3.65,3 3.52,-2.1 9.44,1.8 5.52,-3.3 4.91,-6.7 1.52,-2.2 -6.06,-5.4 -5.16,-5.9 6.41,-3.4 1.71,-10.8 -0.97,-9.6 0.94,-0.3 4.68,-8.3 -1.62,-8.8 -9.07,-0.8 -3.88,-8.3 -4.17,-7.5 l 1.11,-5.6 -2.37,-4.7 -5.15,4 c 3.48,-6.1 -0.59,-8.8 -4,-2.9 -1.93,3.4 4.65,-4.5 -0.82,-3.8 -8.87,1.1 -4.54,-5.9 -4.68,-1 -3.03,-1.8 -4.45,-0.1 -5.13,3.2 -2.48,-4.9 -4.53,-7.7 -4.1,0.6 -2.13,-2.4 -4.53,-6.8 -5.35,0.5 -4.52,-5.1 -4.3,0.2 -4.24,5.2 -2.51,-8.7 -4.04,-6.1 -5.32,-0.6 -4.32,-1.6 -6.62,-1.3 -2.05,5.6 l -3.86,2.9 c -2.37,0.5 -6.53,-0.3 -1.13,6.4 -5.07,5.3 -3.22,7.9 0.97,9.6 3.07,7.9 3.75,2.1 4.76,-1.7 z"
         inkscape:connector-curvature="0" />
    </g>
  </g>
  <metadata
     id="metadata69">
    <rdf:RDF>
      <cc:Work>
        <dc:format>image/svg+xml</dc:format>
        <dc:type
           rdf:resource="http://purl.org/dc/dcmitype/StillImage" />
        <cc:license
           rdf:resource="http://creativecommons.org/publicdomain/zero/1.0/" />
        <dc:publisher>
          <cc:Agent
             rdf:about="http://openclipart.org/">
            <dc:title>Openclipart</dc:title>
          </cc:Agent>
        </dc:publisher>
        <dc:title>tree</dc:title>
        <dc:date>2009-02-27T09:19:07</dc:date>
        <dc:description />
        <dc:source>https://openclipart.org/detail/21735/tree-by-gurica</dc:source>
        <dc:creator>
          <cc:Agent>
            <dc:title>gurica</dc:title>
          </cc:Agent>
        </dc:creator>
        <dc:subject>
          <rdf:Bag>
            <rdf:li>baum</rdf:li>
            <rdf:li>color</rdf:li>
            <rdf:li>copac</rdf:li>
            <rdf:li>inkscape</rdf:li>
            <rdf:li>nature</rdf:li>
            <rdf:li>plant</rdf:li>
            <rdf:li>tree</rdf:li>
          </rdf:Bag>
        </dc:subject>
      </cc:Work>
      <cc:License
         rdf:about="http://creativecommons.org/publicdomain/zero/1.0/">
        <cc:permits
           rdf:resource="http://creativecommons.org/ns#Reproduction" />
        <cc:permits
           rdf:resource="http://creativecommons.org/ns#Distribution" />
        <cc:permits
           rdf:resource="http://creativecommons.org/ns#DerivativeWorks" />
      </cc:License>
    </rdf:RDF>
  </metadata>
</svg>
