<?xml version="1.0" encoding="UTF-8" standalone="no"?>
<!-- Created with Inkscape (http://www.inkscape.org/) -->

<svg
   xmlns:dc="http://purl.org/dc/elements/1.1/"
   xmlns:cc="http://creativecommons.org/ns#"
   xmlns:rdf="http://www.w3.org/1999/02/22-rdf-syntax-ns#"
   xmlns:svg="http://www.w3.org/2000/svg"
   xmlns="http://www.w3.org/2000/svg"
   xmlns:sodipodi="http://sodipodi.sourceforge.net/DTD/sodipodi-0.dtd"
   xmlns:inkscape="http://www.inkscape.org/namespaces/inkscape"
   id="svg3122"
   sodipodi:docname="openclipart_416_colibri_birds_variant_tmp.svg"
   viewBox="0 0 807.92323 807.92325"
   sodipodi:version="0.32"
   version="1.1"
   inkscape:output_extension="org.inkscape.output.svg.inkscape"
   inkscape:version="0.91 r13725"
   width="807.92322"
   height="807.92322">
  <defs
     id="defs3124">
    <linearGradient
       id="linearGradient2698"
       y2="48.363998"
       gradientUnits="userSpaceOnUse"
       y1="20.136"
       gradientTransform="translate(226.11,-0.98293)"
       x2="344.17999"
       x1="339.67999"
       inkscape:collect="always">
      <stop
         id="stop3208"
         style="stop-color:#ff0000"
         offset="0" />
      <stop
         id="stop3210"
         style="stop-color:#ff0000;stop-opacity:0"
         offset="1" />
    </linearGradient>
    <linearGradient
       id="linearGradient2694"
       y2="216.92999"
       gradientUnits="userSpaceOnUse"
       y1="108.55"
       gradientTransform="translate(157.36,-66.328)"
       x2="418.85999"
       x1="361.39999"
       inkscape:collect="always">
      <stop
         id="stop3715"
         style="stop-color:#66ff00"
         offset="0" />
      <stop
         id="stop3717"
         style="stop-color:#ccff00"
         offset="1" />
    </linearGradient>
    <linearGradient
       id="linearGradient2692"
       y2="101.95"
       gradientUnits="userSpaceOnUse"
       y1="78.908997"
       gradientTransform="matrix(0.86458,-0.18845,0.13165,0.604,253.17,62.688)"
       x2="381.70001"
       x1="374.59"
       inkscape:collect="always">
      <stop
         id="stop3178"
         style="stop-color:#008000"
         offset="0" />
      <stop
         id="stop3180"
         style="stop-color:#ccff00"
         offset="1" />
    </linearGradient>
    <linearGradient
       id="linearGradient2690"
       y2="110.86"
       gradientUnits="userSpaceOnUse"
       y1="113.95"
       gradientTransform="translate(1.1571,-33.555)"
       x2="302.76999"
       x1="341.34"
       inkscape:collect="always">
      <stop
         id="stop8332"
         style="stop-color:#280b0b"
         offset="0" />
      <stop
         id="stop8334"
         style="stop-color:#280b0b;stop-opacity:0"
         offset="1" />
    </linearGradient>
    <filter
       id="filter10484"
       height="1.1503"
       width="1.4597"
       y="-0.075167999"
       x="-0.22984"
       inkscape:collect="always"
       style="color-interpolation-filters:sRGB">
      <feGaussianBlur
         id="feGaussianBlur10486"
         stdDeviation="0.28757581"
         inkscape:collect="always" />
    </filter>
    <filter
       id="filter7913"
       height="2.3397999"
       width="1.686"
       y="-0.66987997"
       x="-0.34301001"
       inkscape:collect="always"
       style="color-interpolation-filters:sRGB">
      <feGaussianBlur
         id="feGaussianBlur7915"
         stdDeviation="1.3556533"
         inkscape:collect="always" />
    </filter>
    <filter
       id="filter7909"
       height="1.8611"
       width="1.5176001"
       y="-0.43055001"
       x="-0.25882"
       inkscape:collect="always"
       style="color-interpolation-filters:sRGB">
      <feGaussianBlur
         id="feGaussianBlur7911"
         stdDeviation="1.3556533"
         inkscape:collect="always" />
    </filter>
    <filter
       id="filter7901"
       height="1.8611"
       width="1.4372"
       y="-0.43055001"
       x="-0.21857999"
       inkscape:collect="always"
       style="color-interpolation-filters:sRGB">
      <feGaussianBlur
         id="feGaussianBlur7903"
         stdDeviation="1.3556533"
         inkscape:collect="always" />
    </filter>
    <filter
       id="filter7897"
       height="2.3397999"
       width="1.5176001"
       y="-0.66987997"
       x="-0.25882"
       inkscape:collect="always"
       style="color-interpolation-filters:sRGB">
      <feGaussianBlur
         id="feGaussianBlur7899"
         stdDeviation="1.3556533"
         inkscape:collect="always" />
    </filter>
    <filter
       id="filter7893"
       height="2.9633999"
       width="1.4056"
       y="-0.98171002"
       x="-0.20281"
       inkscape:collect="always"
       style="color-interpolation-filters:sRGB">
      <feGaussianBlur
         id="feGaussianBlur7895"
         stdDeviation="1.3556533"
         inkscape:collect="always" />
    </filter>
    <filter
       id="filter7889"
       height="4.6735001"
       width="1.3401999"
       y="-1.8367"
       x="-0.1701"
       inkscape:collect="always"
       style="color-interpolation-filters:sRGB">
      <feGaussianBlur
         id="feGaussianBlur7891"
         stdDeviation="1.3556533"
         inkscape:collect="always" />
    </filter>
    <filter
       id="filter7885"
       height="3.5590999"
       width="1.474"
       y="-1.2795"
       x="-0.237"
       inkscape:collect="always"
       style="color-interpolation-filters:sRGB">
      <feGaussianBlur
         id="feGaussianBlur7887"
         stdDeviation="1.3556533"
         inkscape:collect="always" />
    </filter>
    <filter
       id="filter7877"
       height="1.4979"
       width="1.4212"
       y="-0.24894001"
       x="-0.21059"
       inkscape:collect="always"
       style="color-interpolation-filters:sRGB">
      <feGaussianBlur
         id="feGaussianBlur7879"
         stdDeviation="1.3556533"
         inkscape:collect="always" />
    </filter>
    <filter
       id="filter3865"
       height="1.1025"
       width="1.3581001"
       y="-0.051274002"
       x="-0.17906"
       inkscape:collect="always"
       style="color-interpolation-filters:sRGB">
      <feGaussianBlur
         id="feGaussianBlur3867"
         stdDeviation="2.3372986"
         inkscape:collect="always" />
    </filter>
    <filter
       id="filter3699"
       height="1.474"
       width="1.3138"
       y="-0.23698001"
       x="-0.15692"
       inkscape:collect="always"
       style="color-interpolation-filters:sRGB">
      <feGaussianBlur
         id="feGaussianBlur3701"
         stdDeviation="1.8397422"
         inkscape:collect="always" />
    </filter>
    <filter
       id="filter3479"
       height="1.5349"
       width="1.4756"
       y="-0.26743999"
       x="-0.2378"
       inkscape:collect="always"
       style="color-interpolation-filters:sRGB">
      <feGaussianBlur
         id="feGaussianBlur3481"
         stdDeviation="3.1768057"
         inkscape:collect="always" />
    </filter>
  </defs>
  <sodipodi:namedview
     id="base"
     bordercolor="#666666"
     inkscape:pageshadow="2"
     inkscape:window-y="-8"
     pagecolor="#ffffff"
     inkscape:window-height="660"
     inkscape:window-maximized="1"
     inkscape:zoom="0.35"
     inkscape:window-x="1272"
     showgrid="false"
     borderopacity="1.0"
     inkscape:current-layer="g8571"
     inkscape:cx="799.72373"
     inkscape:cy="425.10982"
     inkscape:window-width="1280"
     inkscape:pageopacity="0.0"
     inkscape:document-units="px"
     fit-margin-top="0"
     fit-margin-left="0"
     fit-margin-right="0"
     fit-margin-bottom="0" />
  <g
     id="layer1"
     inkscape:label="Capa 1"
     inkscape:groupmode="layer"
     transform="translate(-40.563843,-94.004048)">
    <g
       id="g2843"
       transform="matrix(4.651,0,0,4.8714,736.92,-41.094)">
      <g
         id="g2800"
         transform="translate(16.414406,0)">
        <g
           id="g8571"
           transform="matrix(0.9102,0,0,0.92529,-590.65,37.558)">
          <path
             id="path8344"
             inkscape:connector-curvature="0"
             sodipodi:nodetypes="ccccc"
             style="fill:#d0cfc9;fill-rule:evenodd;stroke-opacity:0"
             d="m 500.63,35.665 -16.2,-6.943 c 17.36,13.758 27.28,31.232 69.81,32.399 l 0.39,-5.786 -54,-19.67 z" />
          <g
             id="g8338"
             transform="translate(201.33,-35.473)">
            <path
               id="path8326"
               inkscape:connector-curvature="0"
               sodipodi:nodetypes="cccc"
               style="fill:#ff0000;fill-rule:evenodd;stroke-opacity:0"
               d="m 336.33,88.108 -5.4,-8.871 -33.95,-8.871 c 12.45,7.912 24,18.527 39.35,17.742 z" />
            <path
               id="path8328"
               inkscape:connector-curvature="0"
               sodipodi:nodetypes="cccc"
               style="fill:url(#linearGradient2690);fill-rule:evenodd;stroke-opacity:0"
               d="m 336.33,88.494 -5.4,-8.871 -33.95,-8.871 c 12.45,7.912 24,18.527 39.35,17.742 z" />
          </g>
          <g
             id="g7995"
             transform="translate(159.68,-52.057)">
            <path
               id="path7990"
               inkscape:connector-curvature="0"
               sodipodi:nodetypes="cccc"
               style="fill:#005500;fill-rule:evenodd;stroke-opacity:0"
               d="m 369.11,160.23 c -3.21,18.64 -2.09,37.29 -2.31,55.93 2.47,-18.54 3.5,-37.97 6.94,-53.61 l -4.63,-2.32 z" />
            <path
               id="path3709"
               style="fill:#008000;fill-rule:evenodd;stroke-opacity:0"
               inkscape:connector-curvature="0"
               d="m 396.06,104.25 c -3.03,-0.01 -7.34,2.03 -12.87,7.28 -12.75,20.07 -15.65,52.66 -16,81.09 l 0.31,0 c 4.52,-28.69 18.05,-70.77 28.69,-70.93 6.93,-7.47 6.53,-17.42 -0.13,-17.44 z" />
          </g>
          <path
             id="path2384"
             inkscape:connector-curvature="0"
             sodipodi:nodetypes="cccccccc"
             style="fill:#ff0000;fill-rule:evenodd;stroke-opacity:0"
             d="m 578.12,68.632 c 9.22,-9.315 10.09,-27.208 30.96,-24.546 10.59,5.22 20.21,15.779 30.13,24.682 -9.7,-10.305 -19.47,-20.597 -30.95,-30.545 -12.09,-15.397 -25.58,-21.678 -43.09,-1.637 -7.37,7.113 -15.05,19.661 -22.77,32.864 -5.97,17.17 -9.93,34.05 -13.37,50.86 8.34,-29.671 36.07,-28.293 49.09,-51.678 z" />
          <path
             id="path3214"
             d="m 370.34,-16.219 c -2.81,0.079 -5.89,0.715 -9.37,2.094 l 0,20.844 c 1.48,1.0961 3.03,2.5715 4.62,4.562 0.8,-12.579 8.57,-19.509 26.44,-18.281 -6.65,-4.204 -12.75,-9.469 -21.69,-9.219 z"
             style="fill:#ffcc00;fill-rule:evenodd;stroke-opacity:0;filter:url(#filter3479)"
             inkscape:connector-curvature="0"
             transform="matrix(1.0435,0,0,1.7852,186.42,67.907)" />
          <path
             id="path3184"
             inkscape:connector-curvature="0"
             sodipodi:nodetypes="cccc"
             style="fill:#008000;fill-rule:evenodd;stroke-opacity:0"
             d="m 580.73,65.03 c -1.98,-6.086 -3.72,-25.044 11.54,-25.091 10.66,0.217 14.54,3.135 20.68,5.162 -17.29,-5.311 -20.85,4.58 -32.22,19.929 z" />
          <path
             id="path3204"
             inkscape:connector-curvature="0"
             sodipodi:nodetypes="cccccccc"
             style="fill:#ffcc00;fill-rule:evenodd;stroke-opacity:0"
             d="m 555,52.779 c 6.9,-2.172 13.58,-6.006 22.23,4.772 0.79,-12.579 8.58,-19.501 26.45,-18.272 -9.25,-5.85 -17.45,-13.762 -33.68,-6 l -3.37,4.706 C 554.3,29.513 537.31,15.143 527.18,10.278 c 4.84,6.076 17.24,18.364 17.73,24.773 12.57,2.071 9.97,10.466 10.09,17.728 z" />
          <path
             id="path3487"
             inkscape:connector-curvature="0"
             sodipodi:nodetypes="cccc"
             style="fill:url(#linearGradient2692);fill-rule:evenodd;stroke-opacity:0"
             d="m 583.57,61.305 c -2.52,-3.301 -6.52,-14.425 6.66,-17.329 9.25,-1.878 12.99,-0.847 18.57,-0.779 -15.65,0.05 -17.43,6.696 -25.23,18.108 z" />
          <path
             id="path2386"
             style="fill:#ffcc00;fill-rule:evenodd;stroke-opacity:0;filter:url(#filter3699)"
             d="m 353.47,80.499 c -1.61,-4.277 -3.02,-17.599 9.34,-17.632 8.64,0.152 11.78,2.203 16.75,3.627 -14,-3.732 -16.89,3.218 -26.09,14.005 z"
             sodipodi:nodetypes="cccc"
             inkscape:connector-curvature="0"
             transform="matrix(0.69799,-0.36333,0.30583,0.68085,311.3,138.91)" />
          <ellipse
             id="path3703"
             style="fill:#000000;fill-rule:evenodd;stroke:#fbff2f;stroke-width:0.22892px"
             transform="translate(232.57,-65.557)"
             cx="361.9744"
             cy="102.08928"
             rx="2.6998622"
             ry="2.6034386" />
          <ellipse
             id="path3705"
             style="fill:#ffd5d5;fill-rule:evenodd;stroke-opacity:0"
             transform="matrix(0.8125,0,0,0.8,281.77,-28.92)"
             cx="385.3089"
             cy="81.45462"
             rx="1.5427785"
             ry="1.4463547" />
          <path
             id="path3711"
             inkscape:connector-curvature="0"
             sodipodi:nodetypes="cccc"
             style="fill:url(#linearGradient2694);fill-rule:evenodd;stroke-opacity:0;filter:url(#filter3865)"
             d="m 525.72,163.07 c -2.9,-12.44 17.37,-93.018 25.96,-90.956 6.82,-9.267 5.38,-26.108 -6.39,-12.074 -12.14,23.644 -16.8,71.28 -19.57,103.03 z" />
          <g
             id="g8270"
             transform="translate(221.77,-5.3884)">
            <path
               id="path3887"
               inkscape:connector-curvature="0"
               sodipodi:nodetypes="csccccccc"
               style="fill:#e3e2db;fill-rule:evenodd;stroke-opacity:0"
               d="m 340.89,60.724 c 6.44,-3.493 -6.91,-1.195 -6.72,-2.7 1.42,-11.393 -5.4,-20.465 -10.72,-18.514 -2.13,-5.583 -0.23,-9.521 -12.16,-16.585 0.84,-3.81 -5.34,-6.126 -8.52,-10.028 L 287.36,-5.23 c -0.87,11.444 -0.61,22.105 6.08,24.299 -0.37,11.153 3.37,19.564 13.79,23.527 8.16,17.385 14.73,33.141 33.66,18.128 z" />
            <path
               id="path3889"
               style="fill:none;stroke:#000000;stroke-width:0.22892px;filter:url(#filter7913)"
               inkscape:connector-curvature="0"
               d="m 325.14,61.495 8.49,-3.857" />
            <path
               id="path3891"
               style="fill:none;stroke:#000000;stroke-width:0.22892px;filter:url(#filter7909)"
               inkscape:connector-curvature="0"
               d="M 321.28,56.867 332.85,50.31" />
            <path
               id="path3901"
               style="fill:none;stroke:#000000;stroke-width:0.22892px;filter:url(#filter7901)"
               inkscape:connector-curvature="0"
               d="m 315.5,50.31 13.88,-6.557" />
            <path
               id="path3903"
               style="fill:none;stroke:#000000;stroke-width:0.22892px;filter:url(#filter7897)"
               inkscape:connector-curvature="0"
               d="m 311.26,44.139 11.57,-3.857" />
            <path
               id="path3905"
               style="fill:none;stroke:#000000;stroke-width:0.22892px;filter:url(#filter7893)"
               inkscape:connector-curvature="0"
               d="m 306.63,37.196 15.04,-2.314" />
            <path
               id="path3907"
               style="fill:none;stroke:#000000;stroke-width:0.22892px;filter:url(#filter7889)"
               inkscape:connector-curvature="0"
               d="m 300.38,29.411 18.13,-0.772" />
            <path
               id="path3909"
               inkscape:connector-curvature="0"
               style="fill:none;stroke:#000000;stroke-width:0.26844001px;filter:url(#filter7885)"
               transform="matrix(0.72727,0,0,1,82.363,0)"
               d="m 302,22.154 12.73,1.543" />
            <path
               id="path3913"
               style="fill:none;stroke:#000000;stroke-width:0.22892px;filter:url(#filter7877)"
               inkscape:connector-curvature="0"
               d="m 289.37,4.3554 14.45,12.07" />
            <path
               id="path7931"
               inkscape:connector-curvature="0"
               style="fill:#24221c;fill-rule:evenodd;stroke:#000000;stroke-width:0.34654999px;filter:url(#filter7913)"
               transform="matrix(0.54545,0,0,0.8,149.23,11.836)"
               d="m 328.3,59.181 8.48,-3.857" />
            <path
               id="path7933"
               inkscape:connector-curvature="0"
               style="fill:#24221c;fill-rule:evenodd;stroke:#000000;stroke-width:0.25077px;filter:url(#filter7909)"
               transform="matrix(0.83333,0,0,1,53.933,0)"
               d="m 323.6,54.938 11.57,-6.557" />
            <path
               id="path7937"
               inkscape:connector-curvature="0"
               style="fill:#24221c;fill-rule:evenodd;stroke:#000000;stroke-width:0.25957px;filter:url(#filter7901)"
               transform="matrix(0.77778,0,0,1,70.898,0)"
               d="m 319.04,50.31 13.89,-6.557" />
            <path
               id="path7939"
               style="fill:#24221c;fill-rule:evenodd;stroke:#000000;stroke-width:0.22892px;filter:url(#filter7897)"
               inkscape:connector-curvature="0"
               d="M 314.03,43.367 325.6,39.51" />
            <path
               id="path7941"
               style="fill:#24221c;fill-rule:evenodd;stroke:#000000;stroke-width:0.22892px;filter:url(#filter7893)"
               inkscape:connector-curvature="0"
               d="m 307.47,37.196 15.04,-2.314" />
            <path
               id="path7943"
               inkscape:connector-curvature="0"
               style="fill:#24221c;fill-rule:evenodd;stroke:#000000;stroke-width:0.28187999px;filter:url(#filter7889)"
               transform="matrix(0.65957,0,0,1,102.21,0)"
               d="M 304.77,29.868 322.9,29.097" />
            <path
               id="path7945"
               style="fill:#24221c;fill-rule:evenodd;stroke:#000000;stroke-width:0.22892px;filter:url(#filter7885)"
               inkscape:connector-curvature="0"
               d="m 298.14,21.768 12.73,1.543" />
            <path
               id="path7949"
               inkscape:connector-curvature="0"
               style="fill:#24221c;fill-rule:evenodd;stroke:#000000;stroke-width:0.31525001px;filter:url(#filter7877)"
               transform="matrix(0.81117,0.056858,-0.045344,0.64691,56.83,-12.279)"
               d="m 290.22,4.3554 14.45,12.07" />
          </g>
          <path
             id="path8075"
             inkscape:connector-curvature="0"
             sodipodi:nodetypes="cccc"
             style="fill:#24221c;fill-rule:evenodd;stroke-opacity:0"
             d="m 608.21,43.993 c 10.85,6.155 20.61,16.113 30.82,24.545 -9.02,-8.021 -16.65,-17.199 -27.28,-24.273 -4.15,-1.874 -2.62,-0.334 -3.54,-0.272 z" />
          <path
             id="path8077"
             style="fill:#24221c;fill-rule:evenodd;stroke:#000000;stroke-width:0.22892px"
             inkscape:connector-curvature="0"
             d="M 608.07,44.265 Z" />
          <path
             id="path3194"
             inkscape:connector-curvature="0"
             sodipodi:nodetypes="cccccccc"
             style="fill:url(#linearGradient2698);fill-rule:evenodd;stroke-opacity:0"
             d="m 554.75,52.972 c 6.9,-2.172 13.58,-6.006 22.23,4.772 0.79,-12.579 8.58,-19.501 26.45,-18.272 -9.25,-5.85 -17.45,-13.763 -33.68,-6 l -3.37,3.935 C 557,29.813 540.1,16.322 529.05,11.436 c 6.27,4.292 19.27,13.362 17.15,23.037 14.52,1.292 11.57,9.983 8.55,18.499 z" />
        </g>
        <path
           id="path9095"
           style="fill:#ff005a;fill-rule:evenodd;stroke:#ff1100;stroke-width:0.21009px;filter:url(#filter10484)"
           d="m 126.71,74.633 c -1.11,2.077 -3.01,3.362 -1.37,8.181"
           sodipodi:nodetypes="cc"
           inkscape:connector-curvature="0"
           transform="matrix(-1,0,0,1,51.619,-3.4713)" />
      </g>
    </g>
  </g>
  <metadata
     id="metadata136">
    <rdf:RDF>
      <cc:Work>
        <dc:format>image/svg+xml</dc:format>
        <dc:type
           rdf:resource="http://purl.org/dc/dcmitype/StillImage" />
        <cc:license
           rdf:resource="http://creativecommons.org/publicdomain/zero/1.0/" />
        <dc:publisher>
          <cc:Agent
             rdf:about="http://openclipart.org/">
            <dc:title>Openclipart</dc:title>
          </cc:Agent>
        </dc:publisher>
        <dc:title />
      </cc:Work>
      <cc:License
         rdf:about="http://creativecommons.org/publicdomain/zero/1.0/">
        <cc:permits
           rdf:resource="http://creativecommons.org/ns#Reproduction" />
        <cc:permits
           rdf:resource="http://creativecommons.org/ns#Distribution" />
        <cc:permits
           rdf:resource="http://creativecommons.org/ns#DerivativeWorks" />
      </cc:License>
    </rdf:RDF>
  </metadata>
</svg>
