<?xml version="1.0" encoding="UTF-8" standalone="no"?>
<!-- Created with Inkscape (http://www.inkscape.org/) -->

<svg
   xmlns:dc="http://purl.org/dc/elements/1.1/"
   xmlns:cc="http://creativecommons.org/ns#"
   xmlns:rdf="http://www.w3.org/1999/02/22-rdf-syntax-ns#"
   xmlns:svg="http://www.w3.org/2000/svg"
   xmlns="http://www.w3.org/2000/svg"
   xmlns:sodipodi="http://sodipodi.sourceforge.net/DTD/sodipodi-0.dtd"
   xmlns:inkscape="http://www.inkscape.org/namespaces/inkscape"
   id="svg10018"
   viewBox="0 0 1000 1000"
   version="1.1"
   inkscape:version="0.91 r13725"
   sodipodi:docname="openclipart_15_football_variant_tmp.svg">
  <sodipodi:namedview
     pagecolor="#ffffff"
     bordercolor="#666666"
     borderopacity="1"
     objecttolerance="10"
     gridtolerance="10"
     guidetolerance="10"
     inkscape:pageopacity="0"
     inkscape:pageshadow="2"
     inkscape:window-width="1280"
     inkscape:window-height="945"
     id="namedview32"
     showgrid="false"
     inkscape:zoom="0.6675088"
     inkscape:cx="592.97362"
     inkscape:cy="498.02451"
     inkscape:window-x="-8"
     inkscape:window-y="48"
     inkscape:window-maximized="1"
     inkscape:current-layer="svg10018" />
  <title
     id="title10187">American Football</title>
  <defs
     id="defs10020">
    <linearGradient
       id="linearGradient10949"
       y2="278.81"
       gradientUnits="userSpaceOnUse"
       x2="509.9"
       gradientTransform="matrix(0.93679,-0.85929,0.85927,0.93681,-400.21,462.79)"
       y1="544.75"
       x1="509.97">
      <stop
         id="stop10876"
         style="stop-color:#3c1a0f"
         offset="0" />
      <stop
         id="stop10878"
         style="stop-color:#d7bbb3"
         offset="1" />
    </linearGradient>
    <linearGradient
       id="linearGradient10954"
       y2="353.8"
       gradientUnits="userSpaceOnUse"
       x2="498.75"
       gradientTransform="matrix(0.93679,-0.85929,0.85927,0.93681,-400.21,462.79)"
       y1="750.29"
       x1="498.75">
      <stop
         id="stop10854"
         style="stop-color:#391b0f"
         offset="0" />
      <stop
         id="stop10856"
         style="stop-color:#5b2318"
         offset=".10989" />
      <stop
         id="stop10858"
         style="stop-color:#5b2318"
         offset=".27473" />
      <stop
         id="stop10860"
         style="stop-color:#905036"
         offset="1" />
    </linearGradient>
  </defs>
  <path
     id="path10183"
     style="fill:url(#linearGradient10954);stroke:#391b0f;stroke-width:2"
     d="M 260.23,242.48 C 470.17,49.91 703.98,47.53 770.09,50.38 c 54.62,2.3575 100.81,8.0024 121.59,12.397 34.724,7.3432 25.195,7.327 46.702,33.008 21.507,25.681 34.249,26.987 35.022,68.388 0.63801,34.21 5.9807,206.33 -60.35,357.28 -66.33,150.96 -113.03,188.58 -173.28,243.85 -60.25,55.26 -197.57,142.87 -350.57,174.11 -79.27,16.19 -298.03,7.65 -312.03,-10.34 -5.637,-8.26 -14.161,-17.48 -20.932,-22.5 -15.188,-16.56 -25.367,-51.22 -26.948,-79.87 -1.581,-28.65 -13.148,-189.89 60.548,-346.12 73.692,-156.24 170.39,-238.1 170.39,-238.1 z"
     inkscape:connector-curvature="0" />
  <path
     id="path10191"
     style="opacity:0.45588002;fill:url(#linearGradient10949)"
     d="M 289.82,288.47 C 153.45,415.36 99.96,522.71 62.98,644.95 25.416,769.13 32.805,835.61 32.374,851.83 c -0.3,11.28 3.809,20.47 11.456,33.72 -5.995,-11.04 -8.774,-17.68 -8.312,-28.41 0.689,-15.95 -7.828,-85.53 31.194,-208.12 39.018,-122.59 94.538,-230.37 235.77,-359.92 141.23,-129.54 236.2,-175.73 383.62,-209.3 139.8,-31.838 222.75,-10.397 235.54,-5.55 -1.2528,-1.159 -2.2862,-1.9645 -2.9632,-2.3491 -5.5124,-3.1314 -87.158,-27.851 -236.28,3.8598 -149.13,31.709 -244.79,77.149 -386.02,206.7 -2.2067,2.0242 -4.3929,4.0008 -6.5575,6.015 z M 57.61,909.33 c 4.2556,4.7263 14.202,13.914 30.748,18.478 40.748,11.23 150.59,-10.01 255.02,-44.39 104.43,-34.38 242.91,-113.66 328.94,-192.57 86.029,-78.912 131.33,-125.93 204.77,-257.42 73.437,-131.5 82.936,-214.76 89.192,-261.43 4.8006,-35.815 -2.7091,-50.402 -7.8855,-57.023 4.8549,6.4989 10.548,20.133 3.9079,57.329 -8.1726,45.78 -15.73,125.31 -90.209,255.68 -74.47,130.35 -119.86,177.27 -205.89,256.19 -86.03,78.91 -223.74,159.03 -327.17,194.5 -103.44,35.47 -214.01,55.9 -253.97,45.52 -14.959,-3.88 -23.449,-10.75 -27.446,-14.87 z M 958.4,114.98 c -0.3498,-0.44736 -0.66239,-0.87296 -0.98631,-1.2515 0.31958,0.38304 0.6541,0.80699 0.98631,1.2515 z m -4.3892,-5.1379 c 0.45698,0.53357 1.002,1.2099 1.3109,1.5467 0.27987,0.30513 0.64798,0.70457 0.96669,1.0539 -0.38192,-0.41639 -1.6279,-1.8647 -2.2776,-2.6007 z"
     inkscape:connector-curvature="0" />
  <path
     id="path10232"
     style="opacity:0.34314001;fill:none;stroke:#000000;stroke-width:4;stroke-dasharray:32.00000151, 4.00000018"
     d="m 146.14,542.95 c -7.1797,-0.30989 -10.212,-1.4684 -5.6228,-12.574 4.5896,-11.106 28.106,-103.6 170.41,-234.13 142.304,-130.53 251.72,-165.88 266.66,-166.78 14.939,-0.89662 9.5004,6.0619 8.032,16.275 -1.4684,10.2131 6.2132,46.51 -7.2938,61.855 -13.507,15.345 -21.576,23.731 -21.576,23.731 0,0 5.2574,-14.673 -5.0473,-25.908 -10.3047,-11.235 -97.697,25.584 -208.43,127.16 -110.74,101.58 -134.58,142.17 -131.06,155.68 3.2648,12.506 32.733,3.468 32.733,3.468 0,0 -5.3459,16.725 -18.587,25.915 -23.592,16.375 -80.216,25.311 -80.216,25.311 z"
     inkscape:connector-curvature="0" />
  <path
     id="path10234"
     style="opacity:0.34314001;fill:none;stroke:#000000;stroke-width:4;stroke-dasharray:32.00000151, 4.00000018"
     d="m 104.07,479.32 c -0.30988,7.1798 -2.6101,18.66 6.1444,12.095 9.6136,-7.2092 36.686,-88.328 178.99,-218.86 142.31,-130.53 230.03,-164.15 243.44,-170.79 10.84,-5.373 -3.35,-7.358 -15.13,-5.426 -49.72,8.156 -178.29,80.416 -249.81,153.84 -120.85,119.45 -150.31,188.03 -163.63,229.14 z"
     inkscape:connector-curvature="0" />
  <path
     id="path10214"
     style="fill:#eeeeee;stroke:#b8b8b8"
     d="m 142.45,452.05 c -4.6501,-5.1162 -5.487,-8.0928 0.88539,-18.556 6.3723,-10.464 14.698,-20.834 21.395,-27.856 6.6976,-7.022 14.232,-11.067 18.93,-17.206 4.6977,-6.1385 11.721,-19.997 18.466,-27.996 6.7441,-7.9986 19.906,-17.159 23.069,-21.903 3.1629,-4.7434 7.0704,-14.835 19.396,-26.972 12.325,-12.137 20.371,-16.648 24.464,-20.368 4.0929,-3.7202 7.3024,-9.4403 19.163,-22.089 11.86,-12.649 19.86,-16.183 26.511,-22.228 6.6509,-6.0453 4.4191,-10.557 20.139,-22.043 15.7199,-11.486 25.626,-13.95 31.766,-19.53 6.1394,-5.5802 11.488,-15.114 23.581,-22.368 12.092,-7.254 21.394,-7.2996 29.486,-12.787 8.0926,-5.4871 13.395,-14.044 21.999,-19.996 8.6042,-5.9521 33.254,-19.948 39.579,-19.157 6.3248,0.79124 10.696,1.4893 15.346,6.6055 4.6501,5.1162 -4.7909,8.0918 -13.349,13.067 -8.5576,4.9754 -18.232,12.834 -22.325,16.554 -4.0929,3.7202 -16.372,14.881 -22.418,18.508 -6.0461,3.627 -18.557,9.3927 -29.114,15.252 -10.557,5.8589 -15.395,14.927 -25.581,23.251 -10.186,8.3238 -26.138,14.415 -30.277,19.112 -4.1395,4.6968 -16.558,18.787 -22.186,23.903 -5.6277,5.1152 -18.278,13.811 -23.394,18.461 -5.1161,4.6503 -16.651,20.741 -22.744,25.344 -6.0927,4.6036 -16.232,11.951 -23.953,19.903 -7.7208,7.952 -12.186,19.485 -20.419,27.902 -8.2324,8.417 -18.371,15.764 -25.116,23.763 -6.7442,7.9986 -8.0936,15.765 -15.908,25.67 -7.814,9.9053 -15.953,16.369 -23.209,24.833 -7.2558,8.4636 -12.512,16.044 -16.279,23.206 -3.7677,7.1618 -6.3723,10.464 -9.1158,6.4171 -2.7435,-4.0464 -8.7886,-10.697 -8.7886,-10.697 z"
     inkscape:connector-curvature="0" />
  <path
     id="path10216"
     style="fill:#ffffff;stroke:#b8b8b8"
     d="m 134.21,442.8 c -2.2082,-2.9498 -5.2046,-5.6742 1.4143,-14.731 6.6188,-9.0565 9.5016,-9.7106 11.214,-7.3011 1.7125,2.4095 10.568,13.691 17.732,22.045 7.1649,8.3539 18.632,19.229 21.854,22.742 3.2219,3.5126 3.2908,7.9272 3.3598,12.342 0.0691,4.4146 0.72304,7.2974 -5.2008,6.2632 -5.92384,-1.0342 -11.803,-3.1045 -18.291,-9.0936 -6.4885,-5.9891 -20.682,-19.836 -23.634,-23.597 -2.9517,-3.7604 -8.4488,-8.6688 -8.4488,-8.6688 z"
     inkscape:connector-curvature="0" />
  <path
     id="path10218"
     style="fill:#ffffff;stroke:#b8b8b8"
     d="m 172.5,391.25 c -1.938,-3.1977 -2.5026,-8.1526 1.077,-12.929 3.5796,-4.7761 5.8082,-8.3129 8.1282,-7.9533 2.32,0.35964 3.7846,2.4989 6.2406,5.719 2.456,3.2201 6.332,9.6154 15.254,19.343 8.9221,9.7272 15.5,13.644 19.218,17.697 3.7175,4.053 9.5743,6.6414 8.6296,10.493 -0.94474,3.8518 -1.3938,8.244 -4.2989,9.4161 -2.9051,1.1721 -12.477,0.49945 -19.98,-6.0525 -7.5022,-6.5519 -19.555,-15.895 -24.759,-21.57 -5.2046,-5.6742 -9.5091,-14.164 -9.5091,-14.164 z"
     inkscape:connector-curvature="0" />
  <path
     id="path10220"
     style="fill:#ffffff;stroke:#b8b8b8"
     d="m 297.59,249.45 c -1.2951,-2.3861 -0.64923,-6.5525 2.7474,-9.6681 3.39663,-3.1156 6.5489,-11.368 10.715,-10.722 4.1663,0.64585 6.1508,8.6541 12.867,15.002 6.7163,6.3483 23.224,23.372 30.021,27.86 6.7966,4.4876 8.0516,7.804 8.8213,11.566 0.76969,3.7615 -0.32123,7.4427 -3.1925,9.1829 -2.8712,1.7402 -5.7023,2.5501 -15.695,-3.4736 -9.9925,-6.0237 -28.887,-21.752 -34.228,-27.575 -5.341,-5.8229 -12.057,-12.171 -12.057,-12.171 z"
     inkscape:connector-curvature="0" />
  <path
     id="path10222"
     style="fill:#ffffff;stroke:#b8b8b8"
     d="m 358.89,189.65 c 3.8818,-3.5607 7.8474,1.7368 11.893,5.1737 4.0459,3.4368 26.34,26.769 31.236,32.106 4.8959,5.3377 12.258,7.5196 11.572,12.616 -0.68599,5.0968 2.0246,7.0779 -2.3023,10.153 -4.3269,3.0755 -11.81,3.6846 -17.596,-2.6236 -5.786,-6.3082 -25.855,-27.214 -29.901,-30.651 -4.0459,-3.4369 -11.328,-7.4794 -13.553,-9.9056 -2.2254,-2.4262 -5.9065,-3.5172 -1.0542,-7.9681 l 9.7046,-8.9018 z"
     inkscape:connector-curvature="0" />
  <path
     id="path10224"
     style="fill:#ffffff;stroke:#b8b8b8"
     d="m 415.35,155.73 c 4.7318,-1.6599 8.858,-0.0836 14.684,5.2941 5.8262,5.3778 28.201,26.849 31.316,30.246 3.1156,3.3967 7.4057,11.97 6.7599,16.137 -0.64584,4.1664 -6.0235,9.9927 -11.08,8.3764 -5.0565,-1.6163 -11.974,-3.313 -15.779,-12.332 -3.8049,-9.0188 -23.144,-25.233 -26.705,-29.115 -3.5606,-3.882 -7.9277,0.12382 -11.488,-3.7581 -3.5606,-3.8819 -4.3705,-6.7131 0.40153,-9.3033 4.77203,-2.5902 11.89,-5.5452 11.89,-5.5452 z"
     inkscape:connector-curvature="0" />
  <path
     id="path10226"
     style="fill:#ffffff;stroke:#b8b8b8"
     d="m 266.22,274.66 c 4.3269,-3.0755 4.5311,2.9918 8.577,6.4286 4.0459,3.4368 25.61,22.077 32.246,30.286 6.636,8.209 10.682,11.646 8.0148,19.453 -2.6671,7.8074 -3.5974,7.7673 -12.74,3.6444 -9.1425,-4.1229 -17.479,-16.133 -25.53,-23.938 -8.0516,-7.804 -15.698,-14.193 -20.149,-19.045 -4.4508,-4.8524 -2.4697,-7.5631 0.44168,-10.234 2.9114,-2.6706 9.1391,-6.596 9.1391,-6.596 z"
     inkscape:connector-curvature="0" />
  <path
     id="path10228"
     style="fill:#ffffff;stroke:#b8b8b8"
     d="m 466.02,126.23 c 7.1179,-2.955 11.81,-3.6846 16.301,0.23753 4.4909,3.9221 31.922,27.01 35.402,32.752 3.4803,5.7426 7.3254,13.831 5.7493,17.957 -1.5762,4.1263 0.004,10.719 -11.364,4.1698 -11.368,-6.5491 -18.205,-10.106 -23.06,-16.374 -4.8557,-6.268 -9.4304,-19.048 -16.672,-24.021 -7.2417,-4.9729 -9.1826,-3.1925 -11.893,-5.1737 -2.7106,-1.9811 1.2917,-8.3328 1.2917,-8.3328 z"
     inkscape:connector-curvature="0" />
  <path
     id="path10230"
     style="fill:#ffffff;stroke:#b8b8b8"
     d="m 218.46,322.93 c 3.3966,-3.1156 2.9114,-2.6705 8.2523,3.1524 5.341,5.8229 7.0811,8.6942 14.647,16.943 7.5663,8.2491 10.397,7.4393 15.738,13.262 5.3409,5.8229 9.9122,7.8844 12.502,12.656 2.5901,4.7721 3.0352,5.2574 0.93368,10.759 -2.1015,5.5017 -12.375,5.9903 -23.137,-3.7948 -10.762,-9.7852 -31.761,-30.731 -35.282,-35.543 -3.5205,-4.8123 -1.9042,-9.8689 0.48185,-11.164 2.38605,-1.2951 5.8629,-6.2714 5.8629,-6.2714 z"
     inkscape:connector-curvature="0" />
  <metadata
     id="metadata30">
    <rdf:RDF>
      <cc:Work>
        <dc:format>image/svg+xml</dc:format>
        <dc:type
           rdf:resource="http://purl.org/dc/dcmitype/StillImage" />
        <cc:license
           rdf:resource="http://creativecommons.org/licenses/publicdomain/" />
        <dc:publisher>
          <cc:Agent
             rdf:about="http://openclipart.org/">
            <dc:title>Openclipart</dc:title>
          </cc:Agent>
        </dc:publisher>
        <dc:title>Football</dc:title>
        <dc:date>2011-01-01T00:34:24</dc:date>
        <dc:description>A basic american football used to play in the NFL and American NFL Superbowl.</dc:description>
        <dc:source>https://openclipart.org/detail/102853/football-by-simanek</dc:source>
        <dc:creator>
          <cc:Agent>
            <dc:title>Simanek</dc:title>
          </cc:Agent>
        </dc:creator>
        <dc:subject>
          <rdf:Bag>
            <rdf:li>american football</rdf:li>
            <rdf:li>ball</rdf:li>
            <rdf:li>football</rdf:li>
            <rdf:li>sports</rdf:li>
            <rdf:li>sports 2010</rdf:li>
            <rdf:li>worldnews</rdf:li>
            <rdf:li>worldnews2014</rdf:li>
            <rdf:li>worldnews2014-02-02</rdf:li>
          </rdf:Bag>
        </dc:subject>
      </cc:Work>
      <cc:License
         rdf:about="http://creativecommons.org/licenses/publicdomain/">
        <cc:permits
           rdf:resource="http://creativecommons.org/ns#Reproduction" />
        <cc:permits
           rdf:resource="http://creativecommons.org/ns#Distribution" />
        <cc:permits
           rdf:resource="http://creativecommons.org/ns#DerivativeWorks" />
      </cc:License>
    </rdf:RDF>
  </metadata>
</svg>
