<?xml version="1.0" encoding="UTF-8" standalone="no"?>
<!-- Created with Inkscape (http://www.inkscape.org/) -->

<svg
   xmlns:dc="http://purl.org/dc/elements/1.1/"
   xmlns:cc="http://creativecommons.org/ns#"
   xmlns:rdf="http://www.w3.org/1999/02/22-rdf-syntax-ns#"
   xmlns:svg="http://www.w3.org/2000/svg"
   xmlns="http://www.w3.org/2000/svg"
   xmlns:sodipodi="http://sodipodi.sourceforge.net/DTD/sodipodi-0.dtd"
   xmlns:inkscape="http://www.inkscape.org/namespaces/inkscape"
   id="svg2"
   viewBox="0 0 288.30905 288.30906"
   version="1.0"
   inkscape:version="0.91 r13725"
   sodipodi:docname="openclipart_734_ladybug_variant_tmp.svg"
   width="288.30905"
   height="288.30905">
  <sodipodi:namedview
     pagecolor="#ffffff"
     bordercolor="#666666"
     borderopacity="1"
     objecttolerance="10"
     gridtolerance="10"
     guidetolerance="10"
     inkscape:pageopacity="0"
     inkscape:pageshadow="2"
     inkscape:window-width="1280"
     inkscape:window-height="945"
     id="namedview29"
     showgrid="false"
     inkscape:zoom="1.4783726"
     inkscape:cx="2.7247071"
     inkscape:cy="132.39362"
     inkscape:window-x="-8"
     inkscape:window-y="48"
     inkscape:window-maximized="1"
     inkscape:current-layer="layer1"
     fit-margin-top="0"
     fit-margin-left="0"
     fit-margin-right="0"
     fit-margin-bottom="0" />
  <defs
     id="defs4">
    <radialGradient
       id="radialGradient3225"
       gradientUnits="userSpaceOnUse"
       cy="565.32001"
       cx="411.32999"
       gradientTransform="matrix(0,-1.2392,1.1275,1.6466e-6,-212.98,1086.1)"
       r="104.49">
      <stop
         id="stop3221"
         style="stop-color:#ff0000"
         offset="0" />
      <stop
         id="stop3223"
         style="stop-color:#7f0000"
         offset="1" />
    </radialGradient>
    <radialGradient
       id="radialGradient3287"
       gradientUnits="userSpaceOnUse"
       cy="491.28"
       cx="314.89999"
       gradientTransform="matrix(0.5904,1.0226,-1.374,0.7933,843.26,-174.76)"
       r="83.844002">
      <stop
         id="stop3273"
         style="stop-color:#ffffff"
         offset="0" />
      <stop
         id="stop3289"
         style="stop-color:#ffffff"
         offset=".30189" />
      <stop
         id="stop3275"
         style="stop-color:#4d4d4d"
         offset="1" />
    </radialGradient>
    <linearGradient
       id="linearGradient3346"
       y2="521.44"
       gradientUnits="userSpaceOnUse"
       x2="311"
       gradientTransform="translate(2,-16)"
       y1="313.35999"
       x1="311">
      <stop
         id="stop3201"
         style="stop-color:#ffffff"
         offset="0" />
      <stop
         id="stop3203"
         style="stop-color:#ffffff;stop-opacity:0"
         offset="1" />
    </linearGradient>
  </defs>
  <g
     id="layer1"
     transform="translate(-170.69009,-328.4734)">
    <path
       id="path2383"
       style="fill:url(#radialGradient3225);stroke:#000000;stroke-width:3.13190007;stroke-linecap:round;stroke-linejoin:round"
       d="m 528.8,576.44 a 102.93,113.94 0 1 1 -205.86,0 102.93,113.94 0 1 1 205.86,0 z"
       transform="matrix(1.1063,-0.63872,0.63846,1.1058,-524.33,107.2)"
       inkscape:connector-curvature="0" />
    <path
       id="path2390"
       style="fill:#000000;stroke:#000000;stroke-width:4;stroke-linecap:round;stroke-linejoin:round"
       d="m 327.7,494.93 c -43.26,24.98 -72.09,61.94 -78.42,95.47 41.98,28.21 95.06,33.24 138.32,8.27 43.25,-24.98 65.47,-73.47 62.03,-123.94 -32.21,-11.28 -78.67,-4.77 -121.93,20.2 z"
       inkscape:connector-curvature="0" />
    <path
       id="path2397"
       style="fill:none;stroke:#000000;stroke-width:4;stroke-linecap:round"
       d="m 242.41,347.19 85.93,148.84"
       inkscape:connector-curvature="0" />
    <path
       id="path3175"
       style="fill:#000000"
       d="m 334.77374,351.05781 a 19.517463,16.369473 15.000908 0 1 -8.47333,31.62343 19.517463,16.369473 15.000908 1 1 8.47333,-31.62343 z"
       inkscape:connector-curvature="0" />
    <path
       id="path3177"
       style="fill:#000000"
       d="m 382.80363,416.03934 a 19.517468,19.517468 0 0 1 -33.80524,19.51748 19.517468,19.517468 0 0 1 33.80524,-19.51748 z"
       inkscape:connector-curvature="0" />
    <path
       id="path3181"
       style="fill:#000000"
       d="m 209.10622,420.73735 a 16.369472,19.51746 15.000908 0 0 31.62343,8.47332 16.369472,19.51746 15.000908 1 0 -31.62343,-8.47332 z"
       inkscape:connector-curvature="0" />
    <path
       id="path3183"
       style="fill:#000000"
       d="m 244.87837,495.79199 a 19.517468,19.517468 0 1 0 33.80524,-19.51748 19.517468,19.517468 0 0 0 -33.80524,19.51748 z"
       inkscape:connector-curvature="0" />
    <path
       id="path3194"
       style="fill:url(#radialGradient3287);stroke:#000000;stroke-width:4;stroke-linecap:round;stroke-linejoin:round"
       d="m 311.81,569.53 c -13.84,7.99 -18.59,25.73 -10.6,39.57 0.73,1.27 1.57,2.45 2.45,3.56 15,2.71 30.26,2.85 45.14,0.18 7.3,-9.05 8.72,-22.02 2.56,-32.69 -8,-13.85 -25.71,-18.61 -39.55,-10.62 z m 91.58,-52.88 c -13.84,8 -18.59,25.73 -10.6,39.58 5.83,10.09 16.84,15.35 27.74,14.36 10.23,-12.52 17.91,-26.98 22.85,-42.56 -0.14,-0.25 -0.27,-0.52 -0.41,-0.77 -8,-13.85 -25.73,-18.6 -39.58,-10.61 z"
       inkscape:connector-curvature="0" />
  </g>
  <metadata
     id="metadata27">
    <rdf:RDF>
      <cc:Work>
        <dc:format>image/svg+xml</dc:format>
        <dc:type
           rdf:resource="http://purl.org/dc/dcmitype/StillImage" />
        <cc:license
           rdf:resource="http://creativecommons.org/publicdomain/zero/1.0/" />
        <dc:publisher>
          <cc:Agent
             rdf:about="http://openclipart.org/">
            <dc:title>Openclipart</dc:title>
          </cc:Agent>
        </dc:publisher>
        <dc:title>Ladybug</dc:title>
        <dc:date>2008-07-09T17:33:21</dc:date>
        <dc:description />
        <dc:source>https://openclipart.org/detail/17678/ladybug-by-lemmling-17678</dc:source>
        <dc:creator>
          <cc:Agent>
            <dc:title>lemmling</dc:title>
          </cc:Agent>
        </dc:creator>
        <dc:subject>
          <rdf:Bag>
            <rdf:li>animal</rdf:li>
            <rdf:li>beetle</rdf:li>
            <rdf:li>bug</rdf:li>
            <rdf:li>colour</rdf:li>
            <rdf:li>how i did it</rdf:li>
            <rdf:li>insect</rdf:li>
            <rdf:li>ladybug</rdf:li>
          </rdf:Bag>
        </dc:subject>
      </cc:Work>
      <cc:License
         rdf:about="http://creativecommons.org/publicdomain/zero/1.0/">
        <cc:permits
           rdf:resource="http://creativecommons.org/ns#Reproduction" />
        <cc:permits
           rdf:resource="http://creativecommons.org/ns#Distribution" />
        <cc:permits
           rdf:resource="http://creativecommons.org/ns#DerivativeWorks" />
      </cc:License>
    </rdf:RDF>
  </metadata>
</svg>
