<?xml version="1.0" encoding="UTF-8" standalone="no"?>
<!-- Created with Inkscape (http://www.inkscape.org/) -->

<svg
   xmlns:dc="http://purl.org/dc/elements/1.1/"
   xmlns:cc="http://creativecommons.org/ns#"
   xmlns:rdf="http://www.w3.org/1999/02/22-rdf-syntax-ns#"
   xmlns:svg="http://www.w3.org/2000/svg"
   xmlns="http://www.w3.org/2000/svg"
   xmlns:xlink="http://www.w3.org/1999/xlink"
   xmlns:sodipodi="http://sodipodi.sourceforge.net/DTD/sodipodi-0.dtd"
   xmlns:inkscape="http://www.inkscape.org/namespaces/inkscape"
   id="svg2"
   sodipodi:docname="openclipart_248_compass_rose.svg"
   viewBox="0 0 140 140"
   sodipodi:version="0.32"
   version="1.0"
   inkscape:output_extension="org.inkscape.output.svg.inkscape"
   inkscape:version="0.91 r13725"
   width="140"
   height="140">
  <defs
     id="defs62" />
  <sodipodi:namedview
     id="base"
     bordercolor="#666666"
     inkscape:pageshadow="2"
     inkscape:window-y="48"
     pagecolor="#ffffff"
     inkscape:window-height="945"
     inkscape:zoom="3.8118206"
     inkscape:window-x="-8"
     borderopacity="1.0"
     inkscape:current-layer="layer1"
     inkscape:cx="117.93938"
     inkscape:cy="75.249894"
     inkscape:window-width="1280"
     inkscape:pageopacity="0.0"
     inkscape:document-units="px"
     showgrid="false"
     inkscape:window-maximized="1"
     fit-margin-top="0"
     fit-margin-left="0"
     fit-margin-right="0"
     fit-margin-bottom="0" />
  <g
     id="layer1"
     inkscape:label="Trace"
     inkscape:groupmode="layer"
     transform="translate(-155.32001,-581.04)">
    <g
       id="layer4"
       inkscape:label="Arrows"
       inkscape:groupmode="layer" />
    <g
       id="layer5"
       inkscape:label="Scale"
       inkscape:groupmode="layer" />
    <g
       id="layer3"
       inkscape:label="Arms"
       inkscape:groupmode="layer" />
    <g
       id="layer6"
       inkscape:label="Seal"
       inkscape:groupmode="layer" />
    <g
       id="layer7"
       style="display:none"
       inkscape:label="Letters"
       inkscape:groupmode="layer">
      <text
         id="text12798"
         style="font-weight:bold;font-size:28px;line-height:100%;font-family:'URW Chancery L';text-align:center;text-anchor:middle;display:inline;fill:#000000"
         xml:space="preserve"
         y="632.25415"
         x="192.52922"
         sodipodi:linespacing="100%"><tspan
           id="tspan12800"
           sodipodi:role="line"
           x="192.52922"
           y="632.25415">N</tspan></text>
      <text
         id="text12805"
         style="font-weight:bold;font-size:28px;line-height:100%;font-family:'URW Chancery L';text-align:center;text-anchor:middle;display:inline;fill:#000000"
         sodipodi:linespacing="100%"
         y="742.25415"
         x="192.52922"
         xml:space="preserve"><tspan
           id="tspan12807"
           y="742.25415"
           x="192.52922"
           sodipodi:role="line">S</tspan></text>
      <text
         id="text12809"
         style="font-weight:bold;font-size:28px;line-height:100%;font-family:'URW Chancery L';text-align:center;text-anchor:middle;display:inline;fill:#000000"
         xml:space="preserve"
         y="687.5965"
         x="137.24911"
         sodipodi:linespacing="100%"><tspan
           id="tspan12811"
           sodipodi:role="line"
           x="137.24911"
           y="687.5965">W</tspan></text>
      <text
         id="text12813"
         style="font-weight:bold;font-size:28px;line-height:100%;font-family:'URW Chancery L';text-align:center;text-anchor:middle;display:inline;fill:#000000"
         sodipodi:linespacing="100%"
         y="687.5965"
         x="247.24911"
         xml:space="preserve"><tspan
           id="tspan12815"
           y="687.5965"
           x="247.24911"
           sodipodi:role="line">E</tspan></text>
    </g>
    <path
       id="text4872"
       style="fill:#000000"
       d="m 209.33812,715.01474 c 0.7866,0.0621 1.19025,0.0931 1.5939,0.0931 1.242,0 2.0286,-0.17595 2.78415,-0.6417 1.41795,-0.83835 2.86695,-2.92905 3.79845,-5.3613 0.4554,-1.242 0.63135,-1.8837 1.8837,-6.8931 0.7245,3.09465 0.7452,3.15675 1.06605,4.4919 0.83835,3.59145 1.54215,5.70285 2.5254,7.6797 1.76985,3.59145 4.31595,5.3613 7.73145,5.3613 1.48005,0 2.5254,-0.25875 3.8295,-1.0143 l -0.69346,-2.57715 c -0.40364,0.9522 -0.61064,1.35585 -0.98324,1.79055 -0.52785,0.6417 -1.25236,1.0143 -1.97686,1.0143 -1.8216,0 -3.50865,-1.41795 -4.97835,-4.23315 0.48645,-2.484 0.7452,-3.6225 1.4697,-6.6654 1.25235,-5.04045 1.8837,-7.1208 2.8152,-9.03555 0.61065,-1.2213 1.3041,-1.68705 2.63925,-1.68705 0.19665,0 0.3726,0 0.77625,0.0621 l 1.0764,-1.9458 c -0.3519,-0.0207 -0.66239,-0.0518 -0.90045,-0.0518 -1.21095,0 -2.51505,0.83835 -4.02615,2.6082 -1.3869,1.62495 -1.91475,3.09465 -3.3327,9.3564 -0.2898,1.3662 -0.61064,2.72205 -0.9315,4.1193 -0.0207,0.1449 -0.1656,0.75555 -0.43469,1.64565 -1.3869,-2.7738 -1.7595,-3.9123 -4.83345,-15.3801 l -0.98325,0.8901 c -0.7038,-0.0517 -1.07641,-0.0828 -1.5939,-0.0828 -1.7388,0 -2.78415,0.32085 -3.8295,1.12815 -1.85265,1.449 -3.1257,3.5397 -3.1257,5.1336 0,0.7245 0.19665,1.48005 0.7245,2.5461 l 1.99755,-1.35585 c -0.7245,-1.54215 -0.9315,-2.20455 -0.9315,-2.92905 0,-0.8694 0.4968,-1.656 1.3041,-2.0907 0.69345,-0.3726 1.39725,-0.48645 2.70135,-0.48645 0.6003,0 1.12815,0 2.22525,0.0517 -1.35585,5.82705 -2.4633,9.4806 -3.41551,11.18835 -0.61064,1.0764 -1.25235,1.3869 -2.78415,1.3869 -0.54855,0 -0.98325,-0.0207 -1.8009,-0.11385 l -1.3869,1.99755"
       inkscape:connector-curvature="0" />
    <g
       id="g4881"
       style="display:none"
       inkscape:label="Letter-Path-PT"
       inkscape:groupmode="layer">
      <path
         id="text4883"
         style="display:inline;fill:#000000"
         d="m 183.86,632.25 c 0.76,0.06 1.15,0.09 1.54,0.09 1.2,0 1.96,-0.17 2.69,-0.62 1.37,-0.81 2.77,-2.83 3.67,-5.18 0.44,-1.2 0.61,-1.82 1.82,-6.66 0.7,2.99 0.72,3.05 1.03,4.34 0.81,3.47 1.49,5.51 2.44,7.42 1.71,3.47 4.17,5.18 7.47,5.18 1.43,0 2.44,-0.25 3.7,-0.98 l -0.67,-2.49 c -0.39,0.92 -0.59,1.31 -0.95,1.73 -0.51,0.62 -1.21,0.98 -1.91,0.98 -1.76,0 -3.39,-1.37 -4.81,-4.09 0.47,-2.4 0.72,-3.5 1.42,-6.44 1.21,-4.87 1.82,-6.88 2.72,-8.73 0.59,-1.18 1.26,-1.63 2.55,-1.63 0.19,0 0.36,0 0.75,0.06 l 1.04,-1.88 c -0.34,-0.02 -0.64,-0.05 -0.87,-0.05 -1.17,0 -2.43,0.81 -3.89,2.52 -1.34,1.57 -1.85,2.99 -3.22,9.04 -0.28,1.32 -0.59,2.63 -0.9,3.98 -0.02,0.14 -0.16,0.73 -0.42,1.59 -1.34,-2.68 -1.7,-3.78 -4.67,-14.86 l -0.95,0.86 c -0.68,-0.05 -1.04,-0.08 -1.54,-0.08 -1.68,0 -2.69,0.31 -3.7,1.09 -1.79,1.4 -3.02,3.42 -3.02,4.96 0,0.7 0.19,1.43 0.7,2.46 l 1.93,-1.31 c -0.7,-1.49 -0.9,-2.13 -0.9,-2.83 0,-0.84 0.48,-1.6 1.26,-2.02 0.67,-0.36 1.35,-0.47 2.61,-0.47 0.58,0 1.09,0 2.15,0.05 -1.31,5.63 -2.38,9.16 -3.3,10.81 -0.59,1.04 -1.21,1.34 -2.69,1.34 -0.53,0 -0.95,-0.02 -1.74,-0.11 l -1.34,1.93"
         inkscape:connector-curvature="0" />
      <path
         id="text4887"
         style="display:inline;fill:#000000"
         d="m 187.31,739.4 -1.23,2.91 c 0.98,1.32 2.29,1.93 4.11,1.93 4.29,0 8.49,-3.5 8.49,-7.05 0,-1.15 -0.45,-1.74 -2.52,-3.36 -2.05,-1.6 -2.38,-2.08 -2.38,-3.28 0,-1.82 1.37,-3.39 3.02,-3.39 1.18,0 1.6,0.51 1.9,2.3 l 1.85,-1.32 c -0.17,-1.54 -1.01,-2.29 -2.49,-2.29 -2.88,0 -6.16,3.19 -6.16,5.96 0,1.26 0.59,2.18 2.21,3.44 1.91,1.52 2.41,2.27 2.41,3.56 0,2.18 -2.1,4.12 -4.54,4.12 -1.2,0 -2.43,-0.54 -3.19,-1.38 -0.59,-0.64 -0.81,-1.23 -1.03,-2.46 l -0.45,0.31"
         inkscape:connector-curvature="0" />
      <path
         id="text4891"
         style="display:inline;fill:#000000"
         d="m 142.49,671.05 c -2.32,0 -5.29,1.17 -7.22,2.83 -2.24,1.96 -3.5,5.06 -3.5,8.59 0,3.59 1.65,5.49 4.76,5.49 2.54,0 5.34,-1.2 7.44,-3.22 2.02,-1.96 3.14,-4.87 3.14,-8.23 0,-3.53 -1.62,-5.46 -4.62,-5.46 m -1.62,1.09 c 2.49,0 3.94,1.96 3.94,5.21 0,2.13 -0.58,4.53 -1.48,6.13 -1.2,2.13 -3.11,3.36 -5.18,3.36 -2.58,0 -4.09,-2.02 -4.09,-5.46 0,-5.18 3,-9.24 6.81,-9.24"
         inkscape:connector-curvature="0" />
      <path
         id="text4895"
         style="display:inline;fill:#000000"
         d="m 254.02,671.52 c -0.56,-0.05 -0.84,-0.08 -1.23,-0.08 -0.53,0 -1.01,0.06 -1.48,0.17 -0.76,0.19 -2.1,1.15 -3.22,2.27 -1.37,1.4 -1.85,2.68 -2.94,7.89 -0.76,3.59 -1.49,4.62 -3.25,4.62 -0.22,0 -0.56,0 -0.87,-0.03 -0.39,0.4 -0.56,0.59 -0.98,1.12 1.35,-0.05 2.05,-0.08 2.75,-0.08 0.72,0 2.15,0.06 4.28,0.14 4.59,0.22 4.79,0.22 5.52,0.22 1.45,0 2.07,-0.3 2.57,-1.34 0.34,-0.64 1.21,-2.58 1.63,-3.64 l -0.31,-0.53 c -1.82,3.83 -2.13,4 -6.95,3.97 l -5.29,0 0.76,-0.72 c 1.48,-1.38 1.68,-1.74 2.38,-4.65 0.81,-3.47 1.2,-5.01 1.57,-6.11 0.42,-1.17 1.14,-1.7 2.32,-1.7 0.36,0 0.62,0 1.65,0.05 l 1.09,-1.57"
         inkscape:connector-curvature="0" />
    </g>
    <g
       id="g4870"
       inkscape:label="Letter-Path"
       inkscape:groupmode="layer" />
    <g
       id="g3494"
       transform="matrix(1.035,0,0,1.035,20.373773,-47.039213)">
      <g
         transform="translate(1.8550409,-5.5651079)"
         id="g6894">
        <g
           id="g6782">
          <path
             inkscape:connector-curvature="0"
             d="m 153.97,679.31 22.55,5.38 0,-10.76 -22.55,5.38 z"
             style="fill:#fb0000;fill-rule:evenodd;stroke:#000000;stroke-width:0.9661836"
             sodipodi:nodetypes="cccc"
             id="path5809" />
        </g>
        <use
           x="0"
           y="0"
           width="744.09448"
           height="1052.3622"
           transform="matrix(0,1,-1,0,876.36,483.79)"
           xlink:href="#g6782"
           id="use6786" />
        <use
           x="0"
           y="0"
           width="744.09448"
           height="1052.3622"
           transform="matrix(-1,0,0,-1,392.57,1360.2)"
           xlink:href="#g6782"
           id="use6788" />
        <use
           x="0"
           y="0"
           width="744.09448"
           height="1052.3622"
           transform="matrix(0,-1,1,0,-483.79,876.36)"
           xlink:href="#g6782"
           id="use6794" />
      </g>
      <circle
         r="23.558968"
         cy="674.51135"
         cx="198.14076"
         style="color:#000000;fill:#ffffff;fill-rule:evenodd"
         id="path10831" />
      <g
         transform="translate(1.8550409,-5.5651079)"
         id="g8877">
        <path
           inkscape:connector-curvature="0"
           d="m 174.35,689.16 43.87,-18.17"
           style="fill:none;stroke:#5ab206;stroke-width:0.9661836px"
           id="path7898" />
        <use
           x="0"
           y="0"
           width="744.09448"
           height="1052.3622"
           transform="matrix(0.70711,-0.70711,0.70711,0.70711,-423.4,337.98)"
           xlink:href="#path7898"
           id="use8871" />
        <use
           x="0"
           y="0"
           width="744.09448"
           height="1052.3622"
           transform="matrix(0.70711,-0.70711,0.70711,0.70711,-423.4,337.98)"
           xlink:href="#use8871"
           id="use8873" />
        <use
           x="0"
           y="0"
           width="744.09448"
           height="1052.3622"
           transform="matrix(0.70711,-0.70711,0.70711,0.70711,-423.4,337.98)"
           xlink:href="#use8873"
           id="use8875" />
      </g>
      <g
         transform="matrix(0.83147,-0.55557,0.55557,0.83147,-342.89495,218.0949)"
         id="g8883">
        <path
           inkscape:connector-curvature="0"
           d="m 174.35,689.16 43.87,-18.17"
           style="fill:none;stroke:#fce94f;stroke-width:0.9661836px"
           id="path8885" />
        <use
           x="0"
           y="0"
           width="744.09448"
           height="1052.3622"
           transform="matrix(0.70711,-0.70711,0.70711,0.70711,-423.4,337.98)"
           xlink:href="#path8885"
           id="use8887" />
        <use
           x="0"
           y="0"
           width="744.09448"
           height="1052.3622"
           transform="matrix(0.70711,-0.70711,0.70711,0.70711,-423.4,337.98)"
           xlink:href="#use8887"
           id="use8889" />
        <use
           x="0"
           y="0"
           width="744.09448"
           height="1052.3622"
           transform="matrix(0.70711,-0.70711,0.70711,0.70711,-423.4,337.98)"
           xlink:href="#use8889"
           id="use8891" />
      </g>
      <use
         x="0"
         y="0"
         width="744.09448"
         height="1052.3622"
         transform="matrix(0.92388,-0.38268,0.38268,0.92388,-243.03912,127.16628)"
         xlink:href="#g8883"
         id="use11802" />
      <circle
         r="23.558968"
         cy="674.51135"
         cx="198.14076"
         style="color:#000000;fill:none;stroke:#000000;stroke-width:0.9661836;stroke-linecap:round"
         id="path6921" />
      <circle
         r="14.654791"
         cy="674.51135"
         cx="198.14076"
         style="color:#000000;fill:none;stroke:#000000;stroke-width:0.9661836;stroke-linecap:round"
         id="path7896" />
      <g
         transform="translate(1.8550409,-5.5651079)"
         id="g6844">
        <g
           transform="translate(7.2015e-6,-9.744e-6)"
           id="g6799">
          <path
             inkscape:connector-curvature="0"
             d="m 180.28,662.99 16.79,11.55 -5.25,5.24 -11.54,-16.79 z"
             style="fill:#fb0000;fill-rule:evenodd;stroke:#000000;stroke-width:0.9661836px"
             sodipodi:nodetypes="cccc"
             id="path6803" />
          <path
             inkscape:connector-curvature="0"
             d="m 180.54,663.26 17.58,17.57"
             style="fill:none;stroke:#000000;stroke-width:0.9661836px"
             id="path6807" />
          <path
             inkscape:connector-curvature="0"
             d="m 171.48,654.19 8.16,12.25 3.53,-0.56 0.56,-3.52 -12.25,-8.17 z"
             style="fill:#0000a9;fill-rule:evenodd;stroke:#000000;stroke-width:0.9661836px"
             sodipodi:nodetypes="ccccc"
             id="path6797" />
          <path
             inkscape:connector-curvature="0"
             d="m 193.29,675.27 c 5.2,-2.96 5.2,11.05 0,8.08 -5.19,-2.96 -37.47,-4.08 -37.47,-4.04 0,0.04 32.28,-1.07 37.47,-4.04 z"
             style="fill:#0000a9;fill-rule:evenodd;stroke:#000000;stroke-width:0.9661836px"
             sodipodi:nodetypes="cccc"
             id="path6811" />
        </g>
        <use
           x="0"
           y="0"
           width="744.09448"
           height="1052.3622"
           transform="matrix(0,1,-1,0,876.36,483.79)"
           xlink:href="#g6799"
           id="use6837" />
        <use
           x="0"
           y="0"
           width="744.09448"
           height="1052.3622"
           transform="matrix(-1,0,0,-1,392.57,1360.2)"
           xlink:href="#g6799"
           id="use6839" />
        <use
           x="0"
           y="0"
           width="744.09448"
           height="1052.3622"
           transform="matrix(0,-1,1,0,-483.79,876.36)"
           xlink:href="#g6799"
           id="use6841" />
      </g>
      <path
         d="m 201.76839,680.79455 -1.6126,-1.03391 -0.50657,1.84738 -1.21417,-1.48163 -1.05265,1.60043 -0.6969,-1.78431 -1.49568,1.19681 -0.11141,-1.91234 -1.79232,0.67605 0.48499,-1.85317 -1.9135,0.0891 1.03391,-1.6126 -1.84738,-0.50656 1.48163,-1.21418 -1.60043,-1.05264 1.78431,-0.6969 -1.19681,-1.49569 1.91234,-0.1114 -0.67605,-1.79232 1.85317,0.48499 -0.0891,-1.91351 1.6126,1.03392 0.50656,-1.84739 1.21418,1.48163 1.05264,-1.60043 0.6969,1.78432 1.49569,-1.19682 0.1114,1.91234 1.79232,-0.67604 -0.48499,1.85316 1.91351,-0.0891 -1.03392,1.61259 1.84739,0.50657 -1.48163,1.21417 1.60043,1.05265 -1.78432,0.6969 1.19682,1.49568 -1.91234,0.11141 0.67604,1.79232 -1.85316,-0.48499 z"
         inkscape:flatsided="false"
         inkscape:rounded="0"
         sodipodi:cx="198.14078"
         sodipodi:cy="674.51135"
         inkscape:randomized="0"
         sodipodi:arg2="1.2042772"
         sodipodi:arg1="1.0471976"
         sodipodi:r2="5.622745"
         sodipodi:r1="7.2552156"
         sodipodi:sides="20"
         sodipodi:type="star"
         style="color:#000000;fill:#edd400;fill-rule:evenodd;stroke:#2e3436;stroke-width:0.4830918;stroke-linecap:round"
         id="path11807" />
      <path
         sodipodi:sides="20"
         sodipodi:r2="2.731642"
         inkscape:rounded="0"
         sodipodi:cx="198.14372"
         sodipodi:cy="674.50946"
         inkscape:randomized="0"
         sodipodi:arg1="1.0471976"
         sodipodi:arg2="1.2042772"
         inkscape:flatsided="false"
         sodipodi:r1="3.524729"
         d="m 199.90609,677.56197 -0.78343,-0.5023 -0.24611,0.8975 -0.58986,-0.71981 -0.5114,0.77752 -0.33857,-0.86686 -0.72663,0.58144 -0.0541,-0.92905 -0.87074,0.32843 0.23562,-0.9003 -0.92962,0.0433 0.5023,-0.78343 -0.8975,-0.2461 0.7198,-0.58987 -0.77752,-0.51139 0.86686,-0.33857 -0.58144,-0.72664 0.92905,-0.0541 -0.32843,-0.87074 0.9003,0.23562 -0.0433,-0.92962 0.78343,0.50229 0.2461,-0.89749 0.58987,0.7198 0.5114,-0.77752 0.33856,0.86686 0.72664,-0.58144 0.0541,0.92905 0.87075,-0.32843 -0.23562,0.9003 0.92962,-0.0433 -0.5023,0.78343 0.8975,0.2461 -0.71981,0.58987 0.77752,0.5114 -0.86685,0.33856 0.58143,0.72664 -0.92905,0.0541 0.32844,0.87074 -0.90031,-0.23561 z"
         sodipodi:type="star"
         style="color:#000000;fill:#edd400;fill-rule:evenodd;stroke:#2e3436;stroke-width:0.48309749;stroke-linecap:round"
         id="path12778" />
      <rect
         x="197.02502"
         y="673.3949"
         width="2.2260001"
         height="2.2260001"
         style="color:#000000;fill:#edd400;fill-rule:evenodd;stroke:#2e3436;stroke-width:0.4830918;stroke-linecap:round"
         id="rect12780" />
    </g>
    <path
       inkscape:connector-curvature="0"
       d="m 219.78059,599.46774 -1.27305,3.01185 c 1.0143,1.3662 2.37015,1.99755 4.25385,1.99755 4.44015,0 8.78715,-3.6225 8.78715,-7.29675 0,-1.19025 -0.46575,-1.8009 -2.6082,-3.4776 -2.12175,-1.656 -2.4633,-2.1528 -2.4633,-3.3948 0,-1.8837 1.41795,-3.50865 3.1257,-3.50865 1.2213,0 1.656,0.52785 1.9665,2.3805 l 1.91475,-1.3662 c -0.17595,-1.5939 -1.04535,-2.37015 -2.57715,-2.37015 -2.9808,0 -6.3756,3.30165 -6.3756,6.1686 0,1.3041 0.61065,2.2563 2.28735,3.5604 1.97685,1.5732 2.49435,2.34945 2.49435,3.6846 0,2.2563 -2.1735,4.2642 -4.6989,4.2642 -1.242,0 -2.51505,-0.5589 -3.30165,-1.4283 -0.61065,-0.6624 -0.83835,-1.27305 -1.06605,-2.5461 l -0.46575,0.32085"
       style="fill:#000000"
       id="path3642" />
    <path
       id="text4884"
       style="fill:#000000"
       d="m 168.79893,648.10469 1.64565,-6.5826 0.90044,0 c 1.2213,-0.0517 2.12175,-0.0828 2.28735,-0.0828 1.13851,0 1.33515,0.207 2.12176,2.1114 l 1.91475,-1.9044 c -0.0931,-0.6417 -0.32085,-0.96255 -0.81765,-1.1385 l -6.19966,0.1242 0.17595,-0.61065 -2.02859,0.61065 c -2.78415,0.0207 -4.554,0.5796 -6.19966,1.8837 -1.449,1.1592 -2.0907,2.3184 -2.0907,3.81915 0,0.75555 0.11385,1.33515 0.5175,2.34945 l 2.0907,-1.3869 c -0.25875,-0.9315 -0.37259,-1.68705 -0.37259,-2.41155 0,-2.2563 1.61459,-3.1878 5.55795,-3.30165 l -1.62496,6.5205 c -0.48644,0.4968 -0.63135,0.6624 -1.12815,1.242 l 0.81766,0 c -0.1242,0.4347 -0.207,0.81765 -0.32086,1.1592 -1.10745,4.4712 -1.41795,4.95765 -3.79845,5.53725 l -1.0971,0.96255 c 0.8073,0.0207 1.41795,0.0207 1.6146,0.0207 l 2.6082,0.031 c 0.8694,0 1.656,0.0311 2.3184,0.0621 3.50865,0.11384 3.5397,0.11384 4.7817,0.11384 1.5111,0 1.91476,-0.17594 3.21885,-1.3662 1.33515,-1.1799 1.83195,-1.8837 1.83195,-2.5461 0,-0.1449 -0.031,-0.3726 -0.1242,-0.6624 l -2.1942,0.8073 c 0.0828,0.61065 0.11385,0.83835 0.11385,1.0971 0,1.10745 -0.38295,1.25235 -3.15675,1.25235 l -7.5348,0 c 2.80485,-2.57715 2.8359,-2.63925 3.88125,-6.61365 1.48006,-0.0828 1.64565,-0.0828 2.34945,-0.1449 0.63135,-0.0207 1.06606,-0.0517 1.24201,-0.0517 0.11385,-0.0311 0.4347,-0.0311 0.7866,-0.0621 0.5175,-0.3726 0.5796,-0.4347 1.0971,-0.83835 l -5.18535,0"
       inkscape:connector-curvature="0" />
    <path
       inkscape:connector-curvature="0"
       d="m 274.69627,659.28219 c 4.2642,-6.13755 5.4234,-7.8246 8.694,-12.78225 -0.0517,3.4776 -0.3726,10.7226 -0.63135,13.36185 l 1.85265,-0.61065 c 0.98325,-1.50075 1.33515,-1.99755 3.1878,-4.2849 5.47515,-6.7275 7.3899,-10.02915 7.3899,-12.86505 0,-0.7866 -0.11385,-1.25235 -0.4347,-1.8837 -0.40365,-0.23805 -0.4968,-0.25875 -1.1592,-0.46575 -0.81765,0.3726 -1.1592,0.5796 -1.85265,1.19025 0.77625,0.8073 1.06605,1.56285 1.06605,2.7531 0,1.27305 -0.48645,2.86695 -1.3869,4.6368 -1.12815,2.1735 -2.72205,4.347 -6.2307,8.43525 0.0828,-1.33515 0.1449,-2.2356 0.1449,-2.55645 l 0.17595,-4.08825 c 0.0517,-1.3869 0.1449,-3.09465 0.25875,-5.0922 0.0517,-0.75555 0.11385,-1.5111 0.1449,-2.26665 l -1.68705,0.67275 c -1.3248,2.2563 -6.3756,9.729 -8.5491,12.6891 0.32085,-2.34945 1.449,-8.72505 2.1528,-12.20265 0.6003,-0.19665 0.9522,-0.40365 1.50075,-0.92115 -5.62005,0.0517 -5.97195,0.0517 -7.00695,0.40365 -2.49435,0.8073 -4.1193,2.80485 -4.1193,5.10255 0,0.9522 0.2277,1.7595 0.7245,2.6082 l 2.1735,-1.3662 c -0.6624,-1.0143 -0.9522,-1.85265 -0.9522,-2.8359 0,-1.19025 0.5796,-2.0907 1.64565,-2.4633 0.69345,-0.2691 1.39725,-0.32085 3.57075,-0.3519 -0.32085,2.4633 -0.9936,6.5826 -2.55645,15.76305 l 1.8837,-0.5796"
       style="fill:#000000"
       id="path3640" />
  </g>
  <metadata
     id="metadata60">
    <rdf:RDF>
      <cc:Work>
        <dc:format>image/svg+xml</dc:format>
        <dc:type
           rdf:resource="http://purl.org/dc/dcmitype/StillImage" />
        <cc:license
           rdf:resource="http://creativecommons.org/publicdomain/zero/1.0/" />
        <dc:publisher>
          <cc:Agent
             rdf:about="http://openclipart.org/">
            <dc:title>Openclipart</dc:title>
          </cc:Agent>
        </dc:publisher>
        <dc:title>Compass rose</dc:title>
        <dc:date>2007-10-29T14:40:47</dc:date>
        <dc:description>A traditional compass rose.</dc:description>
        <dc:source>https://openclipart.org/detail/7449/compass-rose-by-freedo</dc:source>
        <dc:creator>
          <cc:Agent>
            <dc:title>freedo</dc:title>
          </cc:Agent>
        </dc:creator>
        <dc:subject>
          <rdf:Bag>
            <rdf:li>compass</rdf:li>
            <rdf:li>direction</rdf:li>
            <rdf:li>east</rdf:li>
            <rdf:li>map</rdf:li>
            <rdf:li>north</rdf:li>
            <rdf:li>orientation</rdf:li>
            <rdf:li>rose</rdf:li>
            <rdf:li>south</rdf:li>
            <rdf:li>west</rdf:li>
          </rdf:Bag>
        </dc:subject>
      </cc:Work>
      <cc:License
         rdf:about="http://creativecommons.org/publicdomain/zero/1.0/">
        <cc:permits
           rdf:resource="http://creativecommons.org/ns#Reproduction" />
        <cc:permits
           rdf:resource="http://creativecommons.org/ns#Distribution" />
        <cc:permits
           rdf:resource="http://creativecommons.org/ns#DerivativeWorks" />
      </cc:License>
    </rdf:RDF>
  </metadata>
</svg>
