<?xml version="1.0" encoding="UTF-8" standalone="no"?>
<!-- Created with Inkscape (http://www.inkscape.org/) -->

<svg
   xmlns:dc="http://purl.org/dc/elements/1.1/"
   xmlns:cc="http://creativecommons.org/ns#"
   xmlns:rdf="http://www.w3.org/1999/02/22-rdf-syntax-ns#"
   xmlns:svg="http://www.w3.org/2000/svg"
   xmlns="http://www.w3.org/2000/svg"
   xmlns:sodipodi="http://sodipodi.sourceforge.net/DTD/sodipodi-0.dtd"
   xmlns:inkscape="http://www.inkscape.org/namespaces/inkscape"
   id="svg2"
   sodipodi:docname="openclipart_75_flower_variant_tmp.svg"
   viewBox="0 0 887.58003 887.58"
   sodipodi:version="0.32"
   version="1.1"
   inkscape:version="0.91 r13725"
   width="887.58002"
   height="887.58002">
  <defs
     id="defs9" />
  <sodipodi:namedview
     id="base"
     bordercolor="#666666"
     inkscape:pageshadow="2"
     inkscape:window-y="-8"
     pagecolor="#ffffff"
     inkscape:window-height="660"
     inkscape:window-maximized="1"
     inkscape:zoom="0.37724655"
     inkscape:window-x="1272"
     showgrid="false"
     borderopacity="1.0"
     inkscape:current-layer="g5840"
     inkscape:cx="1262.8493"
     inkscape:cy="363.18551"
     inkscape:window-width="1280"
     inkscape:pageopacity="0.0" />
  <g
     id="g5840"
     inkscape:export-ydpi="36.000000"
     inkscape:export-xdpi="36.000000"
     inkscape:export-filename="/home/peterm/afbeeldingen/svg/flower.png"
     transform="matrix(1.3402,0,0,1.3402,-587.17467,-42.36864)">
    <path
       id="path2195"
       style="fill:#35e23e;stroke:#12892d;stroke-width:17.00499916;stroke-linecap:round;stroke-linejoin:round"
       inkscape:connector-curvature="0"
       d="m 796.81,295.5 c -0.87,0.09 -1.79,0.4 -2.75,0.94 -6.26,3.51 -1.11,104.87 -27.09,196.44 -8.98,-24.81 -42.99,-57.7 -89.78,-83.91 -63.25,-35.43 -125.81,-45.24 -139.66,-21.91 -13.85,23.33 26.23,71.01 89.47,106.44 53.3,29.86 106.01,41.44 129.59,30.41 -6.78,17.66 -14.85,34.54 -24.9,49.53 -65.84,98.16 -173.26,73.18 -176.16,78.68 -30.64157,59.18396 150.71483,53.93001 218.1839,-90.10684 2.99297,-6.38957 34.21296,39.12409 64.16762,64.13307 42.33067,35.34165 137.34778,63.21536 150.94229,37.87655 C 1003.2081,637.21181 946.5931,576.33126 885.35443,547.96302 847.15524,530.2676 783.3675,517.025 785.78,508.97 c 62.89023,7.56764 96.50534,-6.9019 135.06,-34.25 59.02,-42.09 94.56,-94.49 79.36,-116.97 -15.18,-22.48 -75.4,-6.56 -134.42,35.53 -29.57,21.09 -53.26,44.76 -67.62,65.97 17.14,-84.22 15.73,-165.5 -1.35,-163.75 z"
       sodipodi:nodetypes="cccssccccsssscccccc" />
    <path
       id="path1549"
       style="fill:#fa9806;stroke:#f58006;stroke-width:4.02479982;stroke-linejoin:round"
       sodipodi:type="star"
       d="m 521.87211,275.23304 c -43.01606,-29.58772 2.17555,-28.10945 -47.10459,-10.86759 -26.51418,9.27664 3.60143,50.21506 11.5895,23.28462 14.8469,-50.05381 27.40597,-6.61722 -4.22043,-48.15739 -17.01594,-22.34985 -46.64446,18.94247 -18.56363,18.21761 52.19194,-1.34723 14.76226,24.01979 44.49622,-18.89531 15.99775,-23.08961 -32.42929,-38.50798 -23.06246,-12.02552 17.40949,49.22117 -18.28239,21.46227 31.7206,36.47944 26.9031,8.07969 26.60206,-42.7417 4.31025,-25.64979 -41.43228,31.7676 -26.0614,-10.75537 -24.8918,41.44086 0.62927,28.08312 48.87026,12.09215 25.72634,-3.82693 z"
       sodipodi:r1="32.004192"
       sodipodi:r2="22.067102"
       transform="matrix(4.225,0,0,4.225,-1287.4,-859.24)"
       sodipodi:arg2="2.801306"
       sodipodi:arg1="0.60613533"
       inkscape:randomized="0"
       sodipodi:cy="257.0004"
       sodipodi:cx="495.56927"
       inkscape:rounded="1.08"
       inkscape:flatsided="false"
       sodipodi:sides="5" />
    <circle
       id="path1551"
       style="fill:#fadc06;stroke:#f58006;stroke-width:4.02479982;stroke-linejoin:round"
       transform="matrix(4.225,0,0,4.225,-1440.2,-885.76)"
       cx="530.98846"
       cy="261.93216"
       r="8.8174267" />
  </g>
  <metadata
     id="metadata8">
    <rdf:RDF>
      <cc:Work>
        <dc:format>image/svg+xml</dc:format>
        <dc:type
           rdf:resource="http://purl.org/dc/dcmitype/StillImage" />
        <cc:license
           rdf:resource="http://creativecommons.org/publicdomain/zero/1.0/" />
        <dc:publisher>
          <cc:Agent
             rdf:about="http://openclipart.org/">
            <dc:title>Openclipart</dc:title>
          </cc:Agent>
        </dc:publisher>
        <dc:title />
      </cc:Work>
      <cc:License
         rdf:about="http://creativecommons.org/publicdomain/zero/1.0/">
        <cc:permits
           rdf:resource="http://creativecommons.org/ns#Reproduction" />
        <cc:permits
           rdf:resource="http://creativecommons.org/ns#Distribution" />
        <cc:permits
           rdf:resource="http://creativecommons.org/ns#DerivativeWorks" />
      </cc:License>
    </rdf:RDF>
  </metadata>
</svg>
