<?xml version="1.0" encoding="UTF-8" standalone="no"?>
<svg
   xmlns:dc="http://purl.org/dc/elements/1.1/"
   xmlns:cc="http://creativecommons.org/ns#"
   xmlns:rdf="http://www.w3.org/1999/02/22-rdf-syntax-ns#"
   xmlns:svg="http://www.w3.org/2000/svg"
   xmlns="http://www.w3.org/2000/svg"
   xmlns:xlink="http://www.w3.org/1999/xlink"
   xmlns:sodipodi="http://sodipodi.sourceforge.net/DTD/sodipodi-0.dtd"
   xmlns:inkscape="http://www.inkscape.org/namespaces/inkscape"
   id="svg2"
   sodipodi:docname="openclipart_238_trash_can.svg"
   inkscape:export-filename="C:\joanna\Gfx\drawings_vector\admin\thumbs\Andy_-_Trash_Can.png"
   viewBox="0 0 107.3 107.3"
   sodipodi:version="0.32"
   inkscape:export-xdpi="140.625"
   version="1.0"
   inkscape:output_extension="org.inkscape.output.svg.inkscape"
   inkscape:export-ydpi="140.625"
   inkscape:version="0.91 r13725"
   width="107.3"
   height="107.3">
  <sodipodi:namedview
     id="base"
     bordercolor="#666666"
     inkscape:pageshadow="2"
     guidetolerance="10.0"
     pagecolor="#ffffff"
     gridtolerance="10.0"
     inkscape:zoom="3.375"
     objecttolerance="10.0"
     borderopacity="1.0"
     inkscape:current-layer="g57"
     inkscape:cx="47.179952"
     inkscape:cy="47.371479"
     inkscape:window-y="0"
     inkscape:window-x="1753"
     inkscape:window-height="644"
     showgrid="false"
     inkscape:pageopacity="0.0"
     inkscape:window-width="624"
     inkscape:window-maximized="0"
     fit-margin-top="0"
     fit-margin-left="0"
     fit-margin-right="0"
     fit-margin-bottom="0" />
  <defs
     id="defs4">
    <linearGradient
       id="linearGradient2299"
       y2="86"
       xlink:href="#BlackTransparent"
       gradientUnits="userSpaceOnUse"
       x2="76"
       gradientTransform="matrix(0.9,0,0,0.9,3.5,9)"
       y1="105.3"
       x1="76" />
    <linearGradient
       id="BlackTransparent">
      <stop
         id="stop8"
         style="stop-color:black"
         offset="0" />
      <stop
         id="stop10"
         style="stop-color:black;stop-opacity:0"
         offset="1" />
    </linearGradient>
    <linearGradient
       id="WhiteTransparent">
      <stop
         id="stop13"
         style="stop-color:white"
         offset="0" />
      <stop
         id="stop15"
         style="stop-color:white;stop-opacity:0"
         offset="1" />
    </linearGradient>
    <linearGradient
       id="linearGradient6182"
       y2="30"
       xlink:href="#WhiteTransparent"
       gradientUnits="userSpaceOnUse"
       x2="0"
       y1="21" />
    <linearGradient
       id="linearGradient6185"
       y2="59"
       xlink:href="#WhiteTransparent"
       gradientUnits="userSpaceOnUse"
       x2="0"
       y1="71" />
    <linearGradient
       id="linearGradient6188"
       y2="16"
       xlink:href="#WhiteTransparent"
       gradientUnits="userSpaceOnUse"
       x2="0"
       y1="52" />
    <linearGradient
       id="linearGradient6192"
       y2="48"
       xlink:href="#BlackTransparent"
       gradientUnits="userSpaceOnUse"
       x2="0"
       y1="35" />
    <linearGradient
       id="linearGradient6197"
       y2="102"
       xlink:href="#BlackTransparent"
       gradientUnits="userSpaceOnUse"
       x2="13"
       y1="56"
       x1="13" />
    <linearGradient
       id="linearGradient6213"
       xlink:href="#WhiteTransparent"
       gradientUnits="userSpaceOnUse"
       x2="46"
       x1="22" />
    <linearGradient
       id="linearGradient6216"
       xlink:href="#WhiteTransparent"
       gradientUnits="userSpaceOnUse"
       x2="60"
       x1="96" />
    <clipPath
       id="clipoutline1"
       clipPathUnits="userSpaceOnUse">
      <path
         id="outline1"
         d="M 60.3,27.4 C 40.4,27.4 24.4,35 24.4,44 l 0,56.8 c 0,9.2 16,16.5 35.9,16.5 C 80,117.3 96,110 96,100.8 L 96,44 C 96,35 80,27.4 60.3,27.4 Z"
         inkscape:connector-curvature="0" />
    </clipPath>
    <clipPath
       id="clipoutline2"
       clipPathUnits="userSpaceOnUse">
      <path
         id="outline2"
         d="M 59.6,18 C 36.3,18 17.6,27.8 17,39.7 l 0,9.8 C 17,62 36.5,72 60.7,72 85,72 104.4,62 104.4,49.5 l 0,-9.7 C 104.4,27.6 84.6,18 60.7,18 l -1.1,0 z"
         inkscape:connector-curvature="0" />
    </clipPath>
    <filter
       id="ShadowBlur"
       y="0"
       x="0"
       filterUnits="userSpaceOnUse">
      <feGaussianBlur
         id="feGaussianBlur31"
         stdDeviation="3"
         result="blur"
         in="SourceAlpha" />
    </filter>
  </defs>
  <style
     id="style33"
     type="text/css">.specularity {opacity:0.5;}
	.high-specularity {opacity:0.75;}
	.low-specularity {opacity:0.25;}
	.full-specularity {opacity:1;}
	.shade{opacity:0.5;}
	.black {fill:#000000;}
	.white {fill:#ffffff;}
	.outline-big {stroke-width:16;stroke:none;opacity:0.;fill:none;}
	.outline-small {stroke-width:8px;stroke:black;opacity:1;fill:none;}
	.stroke-highlight {fill:none;stroke:white;opacity:0.3;stroke-width:9px;stroke-linejoin:round;}
				.base-shadow 	{fill:black;opacity:0.4;}
	.stroke-aluminium5	{stroke:#555753;}
	.aluminium1	{fill:#eeeeec;}
	.aluminium2	{fill:#d3d7cf;}
	.aluminium3	{fill:#babdb6;}
	.aluminium4	{fill:#888a85;}
	.aluminium5	{fill:#555753;}
	.aluminium6	{fill:#2e3436;}</style>
  <g
     id="g35"
     transform="translate(-7.0499985,-14.000006)">
    <g
       id="g37">
      <g
         id="g41">
        <use
           id="use43"
           xlink:href="#outline1"
           class="outline-big"
           x="0"
           y="0"
           width="100%"
           height="100%" />
        <use
           id="use45"
           xlink:href="#outline1"
           class="outline-small stroke-aluminium5"
           style="opacity:1;fill:none;stroke:#555753;stroke-width:8px"
           x="0"
           y="0"
           width="100%"
           height="100%" />
      </g>
      <path
         id="path47"
         style="fill:#888a85"
         d="M 60.4,30 C 40.6,30 24.7,37.6 24.7,46.7 l 0,54 c 0,9.1 15.9,16.3 35.7,16.3 C 80,117 96,109.8 96,100.7 l 0,-54 C 96,37.6 80,30 60.4,30 Z"
         inkscape:connector-curvature="0" />
      <path
         id="path49"
         style="opacity:0.5;fill:url(#linearGradient6216)"
         d="M 60.4,27.6 C 40.5,27.6 40.5,117 60.4,117 80,117 96,109.9 96,100.7 L 96,44 C 96,35 80,27.6 60.4,27.6 Z"
         class="specularity"
         inkscape:connector-curvature="0" />
      <path
         id="path51"
         style="opacity:0.75;fill:url(#linearGradient6213)"
         class="high-specularity"
         d="m 42.4,58 -17.7,-8.3 0,51.3 c 0,5 7.3,11.7 17.8,13.7 L 42.4,58 Z"
         inkscape:connector-curvature="0" />
      <path
         id="path53"
         style="opacity:0.5;fill:url(#linearGradient6197)"
         d="m 24.6,57.7 0,17.7 C 45.5,90.5 75.5,91 96,75.4 L 96,57.7 C 76,74 45,72.5 24.6,57.7 Z"
         class="shade"
         inkscape:connector-curvature="0" />
      <use
         id="use55"
         xlink:href="#outline1"
         class="stroke-highlight"
         clip-path="url(#clipoutline1)"
         style="opacity:0.3;fill:none;stroke:#ffffff;stroke-width:9px;stroke-linejoin:round"
         x="0"
         y="0"
         width="100%"
         height="100%" />
    </g>
    <g
       id="g57">
      <g
         id="g59">
        <use
           id="use61"
           xlink:href="#outline2"
           class="outline-big"
           x="0"
           y="0"
           width="100%"
           height="100%" />
        <use
           id="use63"
           xlink:href="#outline2"
           class="outline-small stroke-aluminium5"
           style="opacity:1;fill:none;stroke:#555753;stroke-width:8px"
           x="0"
           y="0"
           width="100%"
           height="100%" />
      </g>
      <path
         id="path65"
         d="m 60.7,18 c 24.3,0 43.7,10 43.7,22 l 0,3.5 C 104.4,56 85,66 60.7,66 36.5,66 17,56 17,43.5 L 17,40 C 17,28 36.5,18 60.7,18 Z"
         class="aluminium2"
         inkscape:connector-curvature="0"
         style="fill:#d3d7cf" />
      <path
         id="path67"
         d="m 60.7,59 c 24.3,0 43.7,-6.4 43.7,-19.6 l 0,10.1 C 104.4,62 85,72 60.7,72 36.5,72 17,62 17,49.5 L 17,39.4 C 17,47.3 36.5,59 60.7,59 Z"
         class="aluminium4"
         inkscape:connector-curvature="0"
         style="fill:#888a85" />
      <path
         id="path69"
         style="opacity:0.5;fill:url(#linearGradient6188)"
         d="m 16.473,36.525 c 0,11.4 27.282,17.545 44.227,17.545 17.652,0 43.7,-3.745 43.7,-17.545 l 0,3.359 c 0,16.05 -29.4,19.25 -43.7,19.25 -13.8,0 -44.319,-8.339 -44.319,-20.339"
         inkscape:connector-curvature="0" />
      <path
         id="path71"
         style="opacity:0.5;fill:url(#linearGradient6185)"
         d="M 61,59 C 33.7,59 4.5,46.6 26.5,62.7 c 8.2,6 20.2,9 34.5,9 14.4,0 26,-3 34.7,-9 C 117,47.5 88,59 61,59 Z"
         class="specularity"
         inkscape:connector-curvature="0" />
      <use
         id="use73"
         xlink:href="#outline2"
         class="stroke-highlight"
         clip-path="url(#clipoutline2)"
         style="opacity:0.3;fill:none;stroke:#ffffff;stroke-width:9px;stroke-linejoin:round"
         x="0"
         y="0"
         width="100%"
         height="100%" />
    </g>
    <g
       id="g83">
      <path
         id="path85"
         style="opacity:0.5;fill:#000000"
         d="M 32,83.6 32,99 c 0,6.9 8,7 8,0 l 0,-15.4 c 0,-5.3 -8,-5.7 -8,0 z m 48,0 0,15.4 c 1.9,5.9 7.5,4.7 8,0 l 0,-15.4 c 0,-5 -7.8,-4.9 -8,0 z m -32.6,4.1 0,18.3 c 0,6.3 8.5,5.7 8.6,0 l 0,-18.3 c 0,-5.4 -8.5,-5.7 -8.6,0 z m 16.6,0 0,18.3 c 0,6.5 8.9,5.8 9,0 l 0,-18.3 c -1.4,-6.1 -8.2,-5.5 -9,0 z"
         inkscape:connector-curvature="0" />
      <path
         id="path87"
         style="opacity:0.5;fill:url(#linearGradient2299)"
         d="m 88,91 c 0,4.2 -8,4 -8,0 l 0,7.4 c 0,5.6 8,6.3 8,0 L 88,91 Z m -56,0 0,7.4 c 0,8 8,7.6 8,0 L 40,91 c 0,4.9 -8,4.6 -8,0 z m 24,6.8 c 0,5.1 -8.6,4.2 -8.6,0 l 0,7.9 c 0,6.9 8.5,5.9 8.6,0 l 0,-7.9 z m 17,0 c 0,5.8 -9,4.9 -9,0 l 0,7.9 c 0,7.1 9,6.3 9,0 l 0,-7.9 z"
         inkscape:connector-curvature="0" />
    </g>
  </g>
  <metadata
     id="metadata53">
    <rdf:RDF>
      <cc:Work>
        <dc:format>image/svg+xml</dc:format>
        <dc:type
           rdf:resource="http://purl.org/dc/dcmitype/StillImage" />
        <cc:license
           rdf:resource="http://creativecommons.org/publicdomain/zero/1.0/" />
        <dc:publisher>
          <cc:Agent
             rdf:about="http://openclipart.org/">
            <dc:title>Openclipart</dc:title>
          </cc:Agent>
        </dc:publisher>
        <dc:title>Trash Can</dc:title>
        <dc:date>2006-08-29T17:30:49</dc:date>
        <dc:description>Trans can. Not as clean as it could be ( pun intended ) but clean enough to publish and make useful.
\n
\n[b]This illustration uses clean SVG with a separated  area to theme elements in the design. Open it up in a plain text editor before loading into your favorite SVG editor for a world of fun[/b]</dc:description>
        <dc:source>https://openclipart.org/detail/68/trash-can-by-andy</dc:source>
        <dc:creator>
          <cc:Agent>
            <dc:title>Andy</dc:title>
          </cc:Agent>
        </dc:creator>
        <dc:subject>
          <rdf:Bag>
            <rdf:li>bin</rdf:li>
            <rdf:li>can</rdf:li>
            <rdf:li>colour</rdf:li>
            <rdf:li>contour</rdf:li>
            <rdf:li>desktop</rdf:li>
            <rdf:li>garbage</rdf:li>
            <rdf:li>grey</rdf:li>
            <rdf:li>icon</rdf:li>
            <rdf:li>logo</rdf:li>
            <rdf:li>metal</rdf:li>
            <rdf:li>metallic</rdf:li>
            <rdf:li>recycle</rdf:li>
            <rdf:li>shiny</rdf:li>
            <rdf:li>trash</rdf:li>
            <rdf:li>waste</rdf:li>
          </rdf:Bag>
        </dc:subject>
      </cc:Work>
      <cc:License
         rdf:about="http://creativecommons.org/publicdomain/zero/1.0/">
        <cc:permits
           rdf:resource="http://creativecommons.org/ns#Reproduction" />
        <cc:permits
           rdf:resource="http://creativecommons.org/ns#Distribution" />
        <cc:permits
           rdf:resource="http://creativecommons.org/ns#DerivativeWorks" />
      </cc:License>
    </rdf:RDF>
  </metadata>
</svg>
