<?xml version="1.0" encoding="UTF-8" standalone="no"?>
<!-- Created with Inkscape (http://www.inkscape.org/) -->

<svg
   xmlns:dc="http://purl.org/dc/elements/1.1/"
   xmlns:cc="http://creativecommons.org/ns#"
   xmlns:rdf="http://www.w3.org/1999/02/22-rdf-syntax-ns#"
   xmlns:svg="http://www.w3.org/2000/svg"
   xmlns="http://www.w3.org/2000/svg"
   xmlns:sodipodi="http://sodipodi.sourceforge.net/DTD/sodipodi-0.dtd"
   xmlns:inkscape="http://www.inkscape.org/namespaces/inkscape"
   id="svg2"
   sodipodi:docname="openclipart_134_mouse_pointer.svg"
   viewBox="0 0 22.027999 22.027999"
   version="1.1"
   inkscape:version="0.91 r13725"
   width="22.028"
   height="22.028"
   inkscape:export-filename="C:\Users\Ryan\VariantTapGraphicsGetter\variants\openclipart_134_mouse_pointer.png"
   inkscape:export-xdpi="2091.8831"
   inkscape:export-ydpi="2091.8831">
  <defs
     id="defs4">
    <style
       id="style4444"
       type="text/css">.fil3 {fill:#286786}
    .fil1 {fill:#2FAED6}
    .fil4 {fill:#38C5FB}
    .fil0 {fill:#6296AB}
    .fil2 {fill:#6FB2D1}</style>
  </defs>
  <sodipodi:namedview
     id="base"
     bordercolor="#666666"
     inkscape:pageshadow="2"
     inkscape:window-y="-8"
     pagecolor="#ffffff"
     inkscape:window-height="660"
     inkscape:window-maximized="1"
     inkscape:zoom="13.448793"
     inkscape:window-x="1272"
     showgrid="false"
     borderopacity="1.0"
     inkscape:current-layer="layer1"
     inkscape:cx="-9.70298"
     inkscape:cy="14.51028"
     inkscape:window-width="1280"
     inkscape:pageopacity="0.0"
     inkscape:document-units="px" />
  <g
     id="layer1"
     inkscape:label="Ebene 1"
     inkscape:groupmode="layer"
     transform="translate(4673.5,-1624.282)">
    <g
       id="g5252"
       transform="matrix(0.01714213,0,0,0.01714213,-4591.1916,1617.8332)">
      <path
         id="path5216"
         d="m 423.72,124.66 0,235 12.188,0 0,55.875 55.875,0 0,111.72 -55.875,0 0,55.719 0.1875,0.1875 -233.22,0 0,-55.906 233.03,0 0,-111.72 -291.38,0.25 -0.1875,113.75 0,125.72 55.875,0 0,111.72 55.906,0 0,111.75 55.844,0 0,125.72 460.94,0 0,-125.72 69.844,0 0,-167.59 55.875,0 0,-405.06 -55.875,0 0,-69.875 -69.844,0 0,181.59 -55.875,0 0,-237.47 -111.72,0 0,181.59 -55.875,0 0,-237.44 -125.72,0 0,0.1875 z m -167.59,0 0,234.81 111.72,0.1875 0,-235 -111.72,0 z"
         sodipodi:nodetypes="ccccccccccccccccccccccccccccccccccccccccccccc"
         style="fill:#ffffff"
         transform="translate(-4673.5,600.91)"
         inkscape:connector-curvature="0" />
      <path
         id="path5226"
         style="fill:#000000"
         d="m -4249.8,669.51 0,55.875 125.72,0 0,-55.875 -125.72,0 z m 125.72,55.875 0,237.44 55.875,0 0,-181.59 111.72,0 0,-55.844 -167.59,0 z m 167.59,55.844 0,237.47 55.875,0 0,-181.59 69.844,0 0,-55.875 -125.72,0 z m 125.72,55.875 0,69.875 55.875,0 0,-69.875 -55.875,0 z m 55.875,69.875 0,405.06 55.875,0 0,-405.06 -55.875,0 z m 0,405.06 -55.875,0 0,167.59 55.875,0 0,-167.59 z m -55.875,167.59 -69.844,0 0,125.72 -460.94,0 0,-125.72 -55.844,0 0,181.59 586.62,0 0,-181.59 z m -586.62,0 0,-111.75 -55.906,0 0,111.75 55.906,0 z m -55.906,-111.75 0,-111.72 -55.875,0 0,111.72 55.875,0 z m -55.875,-111.72 0,-125.72 0.1875,-113.75 291.38,-0.25 0,-55.875 -12.188,0 0,-235 -55.875,0 0,235 -111.72,-0.1875 0,-234.81 -55.906,0 0,234.69 -55.875,-0.0937 0,54.438 -69.688,2 -0.1562,113.84 0,125.72 69.844,0 z m 111.78,-530.59 111.72,0 0,-55.906 -111.72,0 0,55.906 z m 179.78,290.87 0,111.72 55.875,0 0,-111.72 -55.875,0 z m 0,111.72 -233.03,0 0,55.906 233.22,0 -0.1875,-0.1875 0,-55.719 z"
         inkscape:connector-curvature="0" />
    </g>
  </g>
  <metadata
     id="metadata10">
    <rdf:RDF>
      <cc:Work>
        <dc:format>image/svg+xml</dc:format>
        <dc:type
           rdf:resource="http://purl.org/dc/dcmitype/StillImage" />
        <cc:license
           rdf:resource="http://creativecommons.org/publicdomain/zero/1.0/" />
        <dc:publisher>
          <cc:Agent
             rdf:about="http://openclipart.org/">
            <dc:title>Openclipart</dc:title>
          </cc:Agent>
        </dc:publisher>
        <dc:title>mouse pointer fist</dc:title>
        <dc:date>2012-02-09T08:07:27</dc:date>
        <dc:description />
        <dc:source>https://openclipart.org/detail/168029/mouse-pointer-fist-by-worker</dc:source>
        <dc:creator>
          <cc:Agent>
            <dc:title>worker</dc:title>
          </cc:Agent>
        </dc:creator>
        <dc:subject>
          <rdf:Bag>
            <rdf:li>arrow</rdf:li>
            <rdf:li>communism</rdf:li>
            <rdf:li>cursor</rdf:li>
            <rdf:li>fist</rdf:li>
            <rdf:li>hand</rdf:li>
            <rdf:li>mouse</rdf:li>
            <rdf:li>pixel</rdf:li>
            <rdf:li>pointer</rdf:li>
            <rdf:li>revolution</rdf:li>
            <rdf:li>socialism</rdf:li>
            <rdf:li>web</rdf:li>
          </rdf:Bag>
        </dc:subject>
      </cc:Work>
      <cc:License
         rdf:about="http://creativecommons.org/publicdomain/zero/1.0/">
        <cc:permits
           rdf:resource="http://creativecommons.org/ns#Reproduction" />
        <cc:permits
           rdf:resource="http://creativecommons.org/ns#Distribution" />
        <cc:permits
           rdf:resource="http://creativecommons.org/ns#DerivativeWorks" />
      </cc:License>
    </rdf:RDF>
  </metadata>
</svg>
