<?xml version="1.0" encoding="UTF-8" standalone="no"?>
<!-- Created with Inkscape (http://www.inkscape.org/) -->

<svg
   xmlns:dc="http://purl.org/dc/elements/1.1/"
   xmlns:cc="http://creativecommons.org/ns#"
   xmlns:rdf="http://www.w3.org/1999/02/22-rdf-syntax-ns#"
   xmlns:svg="http://www.w3.org/2000/svg"
   xmlns="http://www.w3.org/2000/svg"
   xmlns:xlink="http://www.w3.org/1999/xlink"
   xmlns:sodipodi="http://sodipodi.sourceforge.net/DTD/sodipodi-0.dtd"
   xmlns:inkscape="http://www.inkscape.org/namespaces/inkscape"
   id="svg2"
   sodipodi:docname="openclipart_497_50_abstract_shapes_with_patterns_variant_tmp.svg"
   inkscape:export-filename="C:\Users\USER\Desktop\New.png"
   viewBox="0 0 122.25771 122.25771"
   inkscape:export-xdpi="128.57143"
   version="1.1"
   inkscape:export-ydpi="128.57143"
   inkscape:version="0.91 r13725"
   width="122.25771"
   height="122.25771">
  <title
     id="title25833">Abstract Shapes With Patterns</title>
  <sodipodi:namedview
     id="base"
     bordercolor="#666666"
     inkscape:pageshadow="2"
     inkscape:window-y="-8"
     pagecolor="#ffffff"
     inkscape:showpageshadow="false"
     inkscape:window-maximized="1"
     inkscape:zoom="2.6615256"
     inkscape:window-x="1272"
     inkscape:window-height="660"
     showgrid="true"
     borderopacity="1.0"
     inkscape:current-layer="layer1"
     inkscape:cx="12.507027"
     inkscape:cy="44.227632"
     showguides="true"
     inkscape:guide-bbox="true"
     inkscape:window-width="1280"
     inkscape:pageopacity="0.0"
     inkscape:document-units="px"
     inkscape:snap-nodes="true"
     fit-margin-top="0"
     fit-margin-left="0"
     fit-margin-right="0"
     fit-margin-bottom="0" />
  <defs
     id="defs4">
    <linearGradient
       id="linearGradient7066">
      <stop
         id="stop7068"
         style="stop-color:#483737"
         offset="0" />
      <stop
         id="stop7070"
         style="stop-color:#ffd5f6"
         offset=".5" />
      <stop
         id="stop7072"
         style="stop-color:#483737"
         offset="1" />
    </linearGradient>
    <linearGradient
       id="linearGradient6853">
      <stop
         id="stop6855"
         style="stop-color:#fffffa"
         offset="0" />
      <stop
         id="stop6861"
         style="stop-color:#ff6299"
         offset=".5" />
      <stop
         id="stop6857"
         style="stop-color:#483737"
         offset="1" />
    </linearGradient>
    <linearGradient
       id="linearGradient10299">
      <stop
         id="stop10301"
         style="stop-color:#ffffff"
         offset="0" />
      <stop
         id="stop10303"
         style="stop-color:#000000"
         offset="1" />
    </linearGradient>
    <linearGradient
       id="linearGradient10253">
      <stop
         id="stop10255"
         style="stop-color:#550044"
         offset="0" />
      <stop
         id="stop10257"
         style="stop-color:#ff00cc"
         offset="0.5" />
      <stop
         id="stop10259"
         style="stop-color:#550044"
         offset="1" />
    </linearGradient>
    <linearGradient
       id="linearGradient10192">
      <stop
         id="stop10194"
         style="stop-color:#550044"
         offset="0" />
      <stop
         id="stop10200"
         style="stop-color:#ff00cc"
         offset=".5" />
      <stop
         id="stop10196"
         style="stop-color:#550044"
         offset="1" />
    </linearGradient>
    <linearGradient
       id="linearGradient9670">
      <stop
         id="stop9672"
         style="stop-color:#803b10"
         offset="0" />
      <stop
         id="stop9674"
         style="stop-color:#000000"
         offset="1" />
    </linearGradient>
    <linearGradient
       id="linearGradient9458">
      <stop
         id="stop9460"
         style="stop-color:#488b20;stop-opacity:.21429"
         offset="0" />
      <stop
         id="stop9462"
         style="stop-color:#488b28;stop-opacity:0"
         offset="1" />
    </linearGradient>
    <linearGradient
       id="linearGradient9450">
      <stop
         id="stop9452"
         style="stop-color:#488b28;stop-opacity:.4375"
         offset="0" />
      <stop
         id="stop9454"
         style="stop-color:#488b28;stop-opacity:0"
         offset="1" />
    </linearGradient>
    <linearGradient
       id="linearGradient7684">
      <stop
         id="stop7686"
         style="stop-color:#280b22"
         offset="0" />
      <stop
         id="stop7689"
         style="stop-color:#ffcc00"
         offset="1" />
    </linearGradient>
    <linearGradient
       id="linearGradient6336">
      <stop
         id="stop6338"
         style="stop-color:#005544"
         offset="0" />
      <stop
         id="stop6340"
         style="stop-color:#99ff55"
         offset=".50810" />
      <stop
         id="stop6342"
         style="stop-color:#008000"
         offset="1" />
    </linearGradient>
    <linearGradient
       id="linearGradient5796">
      <stop
         id="stop5798"
         style="stop-color:#ffd5e5"
         offset="0" />
      <stop
         id="stop5804"
         style="stop-color:#d400aa"
         offset=".5" />
      <stop
         id="stop5800"
         style="stop-color:#800033"
         offset="1" />
    </linearGradient>
    <linearGradient
       id="linearGradient11311">
      <stop
         id="stop11313"
         style="stop-color:#ffffff"
         offset="0" />
      <stop
         id="stop11315"
         style="stop-color:#c6afe9;stop-opacity:0"
         offset="1" />
    </linearGradient>
    <linearGradient
       id="linearGradient9476">
      <stop
         id="stop9478"
         style="stop-color:#cccccc"
         offset="0" />
      <stop
         id="stop9480"
         style="stop-color:#cccccc"
         offset="1" />
    </linearGradient>
    <linearGradient
       id="linearGradient9468">
      <stop
         id="stop9470"
         style="stop-color:#37abc8"
         offset="0" />
      <stop
         id="stop9472"
         style="stop-color:#0f4774"
         offset="1" />
    </linearGradient>
    <linearGradient
       id="linearGradient8904">
      <stop
         id="stop8906"
         style="stop-color:#33da19"
         offset="0" />
      <stop
         id="stop8908"
         style="stop-color:#33dadb;stop-opacity:0"
         offset="1" />
    </linearGradient>
    <linearGradient
       id="linearGradient8893">
      <stop
         id="stop8895"
         style="stop-color:#330974"
         offset="0" />
      <stop
         id="stop8897"
         style="stop-color:#ffffff;stop-opacity:0"
         offset="1" />
    </linearGradient>
    <linearGradient
       id="linearGradient8870">
      <stop
         id="stop8872"
         style="stop-color:#37abc8"
         offset="0" />
      <stop
         id="stop8874"
         style="stop-color:#002255"
         offset="1" />
    </linearGradient>
    <linearGradient
       id="linearGradient6241">
      <stop
         id="stop6243"
         style="stop-color:#fff6d5"
         offset="0" />
      <stop
         id="stop6245"
         style="stop-color:#502d16"
         offset="1" />
    </linearGradient>
    <linearGradient
       id="linearGradient5628">
      <stop
         id="stop5630"
         style="stop-color:#1a1a1a"
         offset="0" />
      <stop
         id="stop5632"
         style="stop-color:#c8b7be"
         offset=".80277" />
      <stop
         id="stop5634"
         style="stop-color:#1a1a1a"
         offset="1" />
    </linearGradient>
    <linearGradient
       id="linearGradient8587">
      <stop
         id="stop8589"
         style="stop-color:#480f00"
         offset="0" />
      <stop
         id="stop8591"
         style="stop-color:#ffa600"
         offset=".2" />
      <stop
         id="stop8593"
         style="stop-color:#480f00"
         offset="1" />
    </linearGradient>
    <linearGradient
       id="linearGradient8477">
      <stop
         id="stop8479"
         style="stop-color:#480f00"
         offset="0" />
      <stop
         id="stop8485"
         style="stop-color:#ffa600"
         offset=".5" />
      <stop
         id="stop8481"
         style="stop-color:#480f00"
         offset="1" />
    </linearGradient>
    <linearGradient
       id="linearGradient6520">
      <stop
         id="stop6522"
         style="stop-color:#e8107a"
         offset="0" />
      <stop
         id="stop6524"
         style="stop-color:#ffffff"
         offset="1" />
    </linearGradient>
    <linearGradient
       id="linearGradient6512">
      <stop
         id="stop6514"
         style="stop-color:#d40055"
         offset="0" />
      <stop
         id="stop6516"
         style="stop-color:#ffaaff"
         offset="1" />
    </linearGradient>
    <linearGradient
       id="linearGradient5012">
      <stop
         id="stop5014"
         style="stop-color:#8080ff"
         offset="0" />
      <stop
         id="stop5016"
         style="stop-color:#220055"
         offset="1" />
    </linearGradient>
    <linearGradient
       id="linearGradient4908">
      <stop
         id="stop4910"
         style="stop-color:#2a7fff"
         offset="0" />
      <stop
         id="stop4912"
         style="stop-color:#4400aa"
         offset="1" />
    </linearGradient>
    <linearGradient
       id="linearGradient6354">
      <stop
         id="stop6356"
         style="stop-color:#ff80b2"
         offset="0" />
      <stop
         id="stop6358"
         style="stop-color:#d40055"
         offset="1" />
    </linearGradient>
    <linearGradient
       id="linearGradient6054">
      <stop
         id="stop6056"
         style="stop-color:#ff4500"
         offset="0" />
      <stop
         id="stop6058"
         style="stop-color:#ffff00"
         offset="1" />
    </linearGradient>
    <linearGradient
       id="linearGradient8054">
      <stop
         id="stop8056"
         style="stop-color:#c83737"
         offset="0" />
      <stop
         id="stop8058"
         style="stop-color:#d40000"
         offset="1" />
    </linearGradient>
    <linearGradient
       id="linearGradient7211">
      <stop
         id="stop7213"
         style="stop-color:#28170b"
         offset="0" />
      <stop
         id="stop7215"
         style="stop-color:#c87137"
         offset="1" />
    </linearGradient>
    <linearGradient
       id="linearGradient6601">
      <stop
         id="stop6603"
         style="stop-color:#fff6d5"
         offset="0" />
      <stop
         id="stop6605"
         style="stop-color:#552200"
         offset="1" />
    </linearGradient>
    <clipPath
       id="clipPath5936"
       clipPathUnits="userSpaceOnUse">
      <path
         id="path5938"
         sodipodi:nodetypes="scccs"
         inkscape:connector-curvature="0"
         style="fill:url(#linearGradient5940)"
         d="m 799.8,-303.07 c -24.881,0 -46.975,13.182 -60.874,33.562 -9.893,118.74 60.874,327.78 60.874,327.78 0,0 70.76,-209.02 60.874,-327.77 -13.895,-20.387 -35.987,-33.575 -60.874,-33.575 z" />
    </clipPath>
    <linearGradient
       id="linearGradient5940"
       y2="-119.21"
       gradientUnits="userSpaceOnUse"
       x2="836.53998"
       gradientTransform="matrix(0.43188,0,0,0.63389,437.57,133.39)"
       y1="-687.75"
       x1="836.53998"
       inkscape:collect="always">
      <stop
         id="stop5912"
         style="stop-color:#008000"
         offset="0" />
      <stop
         id="stop5918"
         style="stop-color:#d4ff2a"
         offset="0.3" />
      <stop
         id="stop5914"
         style="stop-color:#338000"
         offset="1" />
    </linearGradient>
    <clipPath
       id="clipPath5445"
       clipPathUnits="userSpaceOnUse">
      <path
         id="path5447"
         d="m 1693.1,266.55 c -124.7,0 -225.78,101.11 -225.78,225.81 0,124.7 101.08,225.78 225.78,225.78 124.7,0 225.81,-101.08 225.81,-225.78 0,-124.7 -101.11,-225.81 -225.81,-225.81 z m -20.509,41.048 c 90.694,0 164.19,73.53 164.19,164.22 0,90.694 -73.5,164.22 -164.19,164.22 -90.694,0 -164.22,-73.53 -164.22,-164.22 0,-90.694 73.53,-164.22 164.22,-164.22 z"
         style="fill:url(#linearGradient5449)"
         inkscape:connector-curvature="0" />
    </clipPath>
    <linearGradient
       id="linearGradient5449"
       y2="623.07001"
       gradientUnits="userSpaceOnUse"
       x2="1480.1"
       gradientTransform="matrix(0.98393,0,0,0.98393,23.581,-337.77)"
       y1="942.69"
       x1="1868.6"
       inkscape:collect="always">
      <stop
         id="stop5154"
         style="stop-color:#0000ff"
         offset="0" />
      <stop
         id="stop5156"
         style="stop-color:#140027"
         offset="1" />
    </linearGradient>
    <clipPath
       id="clipPath6211"
       clipPathUnits="userSpaceOnUse">
      <path
         id="path6213"
         sodipodi:nodetypes="cscscacscsc"
         style="fill:url(#linearGradient6215)"
         inkscape:connector-curvature="0"
         d="m 843.83,444.59 c 0,0 -29.334,47.62 -51.598,63.394 -21.572,15.282 -74.701,26.918 -74.701,26.918 0,0 37.44,43.587 45.86,70.209 7.9461,25.125 2.6507,88.401 2.6507,88.401 0,0 49.959,-30.16 77.789,-30.16 27.83,0 77.789,30.16 77.789,30.16 0,0 -5.2954,-63.276 2.6507,-88.401 8.4196,-26.622 45.86,-70.209 45.86,-70.209 0,0 -53.13,-11.636 -74.701,-26.918 -22.264,-15.773 -51.598,-63.394 -51.598,-63.394 z" />
    </clipPath>
    <linearGradient
       id="linearGradient6215"
       y2="808.76001"
       xlink:href="#linearGradient6054"
       gradientUnits="userSpaceOnUse"
       x2="663.34003"
       gradientTransform="matrix(0.54889,0,0,0.54889,400.9,290.44)"
       y1="443.66"
       x1="1010.8"
       inkscape:collect="always" />
    <clipPath
       id="clipPath6753"
       clipPathUnits="userSpaceOnUse">
      <path
         id="path6755"
         style="fill:url(#radialGradient6757)"
         inkscape:connector-curvature="0"
         d="m 1930.2,526.61 c -9.5644,-0.0912 -20.058,10.963 -29.505,45.706 -21.91,80.571 60.66,247.62 60.66,247.62 0,0 82.569,-167.05 60.66,-247.62 -26.289,-96.677 -60.66,-9.9515 -60.66,-9.9515 0,0 -14.104,-35.592 -31.154,-35.755 z" />
    </clipPath>
    <radialGradient
       id="radialGradient6757"
       xlink:href="#linearGradient6354"
       gradientUnits="userSpaceOnUse"
       cy="482.92999"
       cx="733.84998"
       gradientTransform="matrix(0.40875,0,0,0.93146,1661.4,219.99)"
       r="157.45"
       inkscape:collect="always" />
    <clipPath
       id="clipPath8958"
       clipPathUnits="userSpaceOnUse">
      <path
         id="path8960"
         style="fill:url(#linearGradient8962)"
         inkscape:connector-curvature="0"
         d="m 756,903.05 c -0.30151,1.2862 -0.69845,2.7328 -1.1562,4.2813 -0.003,0.01 0.003,0.0212 0,0.0312 -0.22868,0.7718 -0.48552,1.5796 -0.75,2.4062 -0.003,0.01 0.003,0.0215 0,0.0313 -1.6051,5.0132 -3.8587,10.962 -6.5312,17.125 -0.89203,2.0568 -1.8328,4.1435 -2.8125,6.2187 -0.97967,2.0753 -1.9796,4.1488 -3.0312,6.1876 -1.0516,2.0387 -2.1421,4.0526 -3.25,6 -0.55399,0.9738 -1.1224,1.9344 -1.6875,2.875 -1.2474,2.0762 -2.5581,4.068 -3.9375,6 -1.3794,1.9318 -2.8174,3.7892 -4.3125,5.5937 -0.74751,0.9024 -1.5079,1.7825 -2.2812,2.6563 -0.005,0.006 0.005,0.0253 0,0.0312 -0.36698,0.4145 -0.75254,0.8104 -1.125,1.2188 -1.1925,1.3074 -2.4123,2.5936 -3.6562,3.8437 -13.923,13.989 -30.846,24.628 -45.75,37.156 -1.7534,1.4742 -3.4669,2.9646 -5.1562,4.5 -0.85059,0.7726 -1.7,1.5523 -2.5312,2.3437 -0.82014,0.7812 -1.6382,1.6047 -2.4375,2.4063 -3.2124,3.222 -6.2682,6.6133 -9.0625,10.25 -0.46036,0.5991 -0.90113,1.1945 -1.3438,1.8124 -0.044,0.062 -0.0811,0.1259 -0.125,0.1876 -0.48356,0.6793 -0.94371,1.3886 -1.4062,2.0937 -0.46254,0.7051 -0.93327,1.4221 -1.375,2.1563 -0.44173,0.7341 -0.86012,1.4834 -1.2812,2.25 -0.33614,0.6132 -0.67692,1.2389 -1,1.875 -0.16197,0.318 -0.31002,0.6447 -0.46875,0.9687 -0.25535,0.5228 -0.50305,1.0546 -0.75,1.5937 -0.16145,0.3515 -0.34211,0.7038 -0.5,1.0626 -0.0766,0.1746 -0.14296,0.3548 -0.21875,0.5312 -0.28914,0.6731 -0.56674,1.3627 -0.84375,2.0625 -0.1469,0.3711 -0.29399,0.7461 -0.4375,1.125 -0.13517,0.3557 -0.27406,0.6997 -0.40625,1.0625 -0.16279,0.4484 -0.31048,0.9154 -0.46875,1.375 -0.1527,0.4418 -0.32021,0.86 -0.46875,1.3125 -0.0443,0.1354 -0.0811,0.2699 -0.125,0.4063 -0.27598,0.8536 -0.55101,1.7318 -0.8125,2.625 -0.0123,0.042 -0.019,0.083 -0.0312,0.125 -0.14013,0.4808 -0.27027,0.9759 -0.40625,1.4687 -0.14263,0.5187 -0.29943,1.0302 -0.4375,1.5625 -0.013,0.05 -0.0183,0.1063 -0.0312,0.1562 -0.23338,0.9047 -0.46714,1.836 -0.6875,2.7813 -0.0343,0.1467 -0.0598,0.2898 -0.0937,0.4375 -0.20738,0.9035 -0.39798,1.808 -0.59375,2.75 -0.2269,1.0919 -0.4448,2.2291 -0.65625,3.375 -0.17068,0.922 -0.33925,1.8539 -0.5,2.8125 -0.0644,0.3851 -0.1247,0.7651 -0.1875,1.1563 -0.14477,0.8991 -0.3011,1.818 -0.4375,2.75 -0.0539,0.3698 -0.10361,0.7499 -0.15625,1.125 -0.11937,0.8478 -0.23105,1.7184 -0.34375,2.5937 -0.0439,0.3415 -0.0822,0.6855 -0.125,1.0313 -0.14956,1.2068 -0.30014,2.4277 -0.4375,3.6874 -1.0589,9.7117 -1.7592,21.028 -2.125,34.375 -0.19319,7.0497 -0.30075,14.721 -0.3125,22.969 -10e-4,1.031 -10e-4,2.0429 0,3.0938 0.005,4.1854 0.0454,8.4899 0.0937,13 39.189,27.107 111.07,27.851 118.97,27.844 7.9052,0.01 79.799,-0.7432 118.97,-27.875 0.0336,-3.1582 0.0814,-6.409 0.0937,-9.4063 4e-5,-0.01 -4e-5,-0.021 0,-0.031 0.0185,-4.4875 -0.001,-8.7331 -0.0312,-12.875 -0.004,-0.5769 0.005,-1.1796 0,-1.75 -0.009,-1.0566 -0.0185,-2.0592 -0.0312,-3.0938 -0.0443,-3.5661 -0.10363,-6.9369 -0.1875,-10.25 -2.7e-4,-0.011 2.7e-4,-0.02 0,-0.031 -0.0529,-2.1066 -0.11835,-4.148 -0.1875,-6.1562 -0.0129,-0.3737 -0.0178,-0.7235 -0.0312,-1.0938 -0.0598,-1.6425 -0.11654,-3.2343 -0.1875,-4.8125 -0.008,-0.1816 -0.023,-0.3504 -0.0312,-0.5313 -0.15678,-3.4116 -0.35193,-6.658 -0.5625,-9.7812 -0.005,-0.071 0.005,-0.1479 0,-0.2188 -0.0108,-0.1593 -0.0203,-0.3101 -0.0312,-0.4687 -0.0994,-1.4415 -0.20129,-2.8364 -0.3125,-4.2187 -0.024,-0.2976 -0.038,-0.5802 -0.0625,-0.875 -0.10254,-1.236 -0.23148,-2.4042 -0.34375,-3.5938 -0.13712,-1.4533 -0.28575,-2.8633 -0.4375,-4.25 -0.15175,-1.3867 -0.3022,-2.7399 -0.46875,-4.0625 -0.49081,-3.8976 -1.0342,-7.5221 -1.6562,-10.906 -0.0116,-0.063 -0.0196,-0.1245 -0.0312,-0.1874 -0.16235,-0.8777 -0.3286,-1.7168 -0.5,-2.5626 -0.11487,-0.5664 -0.22478,-1.1037 -0.34375,-1.6562 -0.16872,-0.7849 -0.35424,-1.586 -0.53125,-2.3438 -0.2329,-0.9969 -0.47137,-1.9543 -0.71875,-2.9062 -0.1401,-0.5386 -0.29272,-1.0378 -0.4375,-1.5625 -0.66767,-2.4237 -1.3875,-4.7233 -2.1562,-6.875 -0.30691,-0.859 -0.6142,-1.68 -0.9375,-2.5 -0.29378,-0.7451 -0.59881,-1.4726 -0.90625,-2.1875 -0.0754,-0.1749 -0.14252,-0.3581 -0.21875,-0.5312 -0.15861,-0.3612 -0.3378,-0.7087 -0.5,-1.0626 -0.24789,-0.5396 -0.49369,-1.0704 -0.75,-1.5937 -0.15913,-0.3256 -0.30635,-0.6493 -0.46875,-0.9687 -0.32384,-0.636 -0.66309,-1.2618 -1,-1.875 -0.42113,-0.7666 -0.83952,-1.5159 -1.2812,-2.25 -0.36628,-0.6088 -0.74442,-1.1927 -1.125,-1.7813 -0.11958,-0.1852 -0.22275,-0.3792 -0.34375,-0.5625 -0.0412,-0.062 -0.0836,-0.1254 -0.125,-0.1875 -0.38366,-0.5769 -0.78958,-1.1593 -1.1875,-1.7187 -0.48356,-0.6794 -0.96397,-1.3431 -1.4688,-2 -2.7989,-3.6427 -5.8444,-7.023 -9.0625,-10.25 -0.80453,-0.8068 -1.6119,-1.6201 -2.4375,-2.4063 -0.82015,-0.7809 -1.661,-1.5811 -2.5,-2.3437 -0.006,-0.01 -0.0255,0.01 -0.0312,0 -1.6894,-1.5354 -3.4029,-3.0258 -5.1562,-4.5 -1.7472,-1.4691 -3.518,-2.9185 -5.3125,-4.3438 -0.006,-0.01 -0.0248,0.01 -0.0312,0 -14.408,-11.442 -30.058,-21.755 -42.812,-35.313 -1.5944,-1.6944 -3.1612,-3.4455 -4.6562,-5.25 -1.495,-1.8047 -2.9331,-3.6618 -4.3125,-5.5937 -1.3794,-1.932 -2.6901,-3.9238 -3.9375,-6 -8.4758,-14.108 -15.803,-32.338 -18.688,-43.094 -0.19232,-0.7172 -0.37953,-1.4153 -0.53125,-2.0625 z" />
    </clipPath>
    <linearGradient
       id="linearGradient8962"
       y2="1139.4"
       xlink:href="#linearGradient8587"
       gradientUnits="userSpaceOnUse"
       x2="900.40002"
       gradientTransform="translate(-25.47,347.64)"
       y1="1139.4"
       x1="634.83002"
       inkscape:collect="always" />
    <clipPath
       id="clipPath7429"
       clipPathUnits="userSpaceOnUse">
      <path
         id="path7431"
         sodipodi:nodetypes="asasssssaa"
         style="fill:url(#linearGradient7433)"
         inkscape:connector-curvature="0"
         d="m 1545.5,1236.5 c -23.089,36.949 -86.348,33.069 -130.32,28.809 -40.41,-3.9147 -80.449,-11.005 -119.8,-20.701 -58.664,-14.457 -109.43,-52.258 -172.5,-55.663 -58.684,-3.1677 -117.74,9.8471 -121.01,-14.371 -5.3216,-39.385 77.105,-55.276 122.63,-64.424 54.121,-10.876 112.71,9.2528 170.19,16.643 37.118,4.7728 77.424,4.1654 112.01,-9.0799 32.189,-12.329 66.656,-49.992 97.247,-34.492 48.287,24.467 69.793,108.1 41.56,153.28 z" />
    </clipPath>
    <linearGradient
       id="linearGradient7433"
       y2="1173.7"
       gradientUnits="userSpaceOnUse"
       x2="1558.1"
       y1="1173.7"
       x1="1001.7"
       inkscape:collect="always">
      <stop
         id="stop6957"
         style="stop-color:#59aeb9"
         offset="0" />
      <stop
         id="stop6960"
         style="stop-color:#5db0bb"
         offset="1" />
    </linearGradient>
    <clipPath
       id="clipPath8271"
       clipPathUnits="userSpaceOnUse">
      <path
         id="path8273"
         style="fill:#8a6f91"
         inkscape:connector-curvature="0"
         d="m -59.884,1575 -233.25,127.07 89.214,205.49 288.4,-0.09 89.004,-205.52 -233.37,-126.96 z" />
    </clipPath>
    <filter
       id="filter8889"
       inkscape:collect="always"
       style="color-interpolation-filters:sRGB">
      <feGaussianBlur
         id="feGaussianBlur8891"
         stdDeviation="0.73239284"
         inkscape:collect="always" />
    </filter>
    <filter
       id="filter11842"
       height="1.4075"
       width="1.4075"
       y="-0.20377"
       x="-0.20377"
       inkscape:collect="always"
       style="color-interpolation-filters:sRGB">
      <feGaussianBlur
         id="feGaussianBlur11844"
         stdDeviation="22.468471"
         inkscape:collect="always" />
    </filter>
    <clipPath
       id="clipPath8201"
       clipPathUnits="userSpaceOnUse">
      <path
         id="path8203"
         d="m 401.08,1092.9 c -22.651,0 -41,17.998 -41,40.188 0,10.827 4.3912,20.65 11.5,27.875 l 1.875,0 c -2.445,-5.8397 -3.8438,-12.332 -3.8438,-19.188 0,-25.441 18.678,-46.094 41.719,-46.094 l 0.625,0 0.4375,0 c 1.4807,0 2.9345,0.083 4.375,0.25 -4.8327,-1.9609 -10.133,-3.0312 -15.688,-3.0312 z m 13.344,4.5625 c -22.839,0.2533 -41.25,20.324 -41.25,45.031 0,6.5998 1.3506,12.83 3.7188,18.469 l 11.938,0 0,-14.062 c 0,-5.9635 4.7865,-10.781 10.75,-10.781 l 3.0312,0 c 5.9635,0 10.75,4.8178 10.75,10.781 l 0,14.062 17.25,0 c 7.1057,-7.2244 11.5,-17.05 11.5,-27.875 0,-14.876 -8.26,-27.864 -20.531,-34.812 -2.3271,-0.4754 -4.7119,-0.7738 -7.1562,-0.8125 z"
         style="opacity:0.15865;fill:#de8787"
         inkscape:connector-curvature="0" />
    </clipPath>
    <clipPath
       id="clipPath9746"
       clipPathUnits="userSpaceOnUse">
      <path
         id="path9748"
         d="m 179.67,816.16 c -9.8925,0 -19.027,3.8108 -26.438,9.625 11.608,6.0818 26.071,7.9863 39.188,5.2188 -13.618,3.8835 -29.081,2.6427 -41.031,-3.7188 -7.8798,6.8069 -13.518,15.911 -15.594,24.938 16.864,10.211 39.147,14.358 59.312,11.406 -20.101,4.2957 -42.863,1.4139 -59.875,-8.375 -0.2063,1.4724 -0.3125,2.9322 -0.3125,4.375 0,7.3759 3.4107,10.02 7.5312,12.375 21.727,12.42 52.71,12.42 74.438,0 4.1205,-2.3555 7.5312,-4.9991 7.5312,-12.375 0,-5.3725 -1.4907,-11.021 -4.125,-16.406 -15.81,7.9715 -36.847,9.7046 -55.188,5.2188 18.168,3.2743 38.429,0.5767 54.031,-7.4688 -7.5372,-13.524 -22.386,-24.812 -39.469,-24.812 z"
         style="fill:url(#radialGradient9750)"
         inkscape:connector-curvature="0" />
    </clipPath>
    <radialGradient
       id="radialGradient9750"
       xlink:href="#linearGradient9670"
       gradientUnits="userSpaceOnUse"
       cy="812.34998"
       cx="182.86"
       gradientTransform="matrix(-1.251,1.251,-1.1951,-1.1951,1379.8,1563.4)"
       r="44.75"
       inkscape:collect="always" />
    <linearGradient
       id="linearGradient25079"
       y2="1639.9"
       xlink:href="#linearGradient9476"
       gradientUnits="userSpaceOnUse"
       x2="1061.5"
       gradientTransform="matrix(0.75458,0.43565,-0.43565,0.75458,1219.2,152.28)"
       y1="1639.9"
       x1="927.78003"
       inkscape:collect="always" />
    <radialGradient
       id="radialGradient25081"
       xlink:href="#linearGradient9468"
       gradientUnits="userSpaceOnUse"
       cy="1639.9"
       cx="994.63"
       gradientTransform="matrix(0.91905,0.53061,-0.45958,0.79601,1094.8,-10.124)"
       r="48.18"
       inkscape:collect="always" />
    <linearGradient
       id="linearGradient25083"
       y2="1584.7"
       xlink:href="#linearGradient8870"
       gradientUnits="userSpaceOnUse"
       x2="956.10999"
       gradientTransform="matrix(-0.95981,0,0,1,1964.2,0)"
       y1="1401.1"
       x1="956.10999"
       inkscape:collect="always" />
    <linearGradient
       id="linearGradient25085"
       y2="1571.3"
       xlink:href="#linearGradient8870"
       gradientUnits="userSpaceOnUse"
       x2="985.98999"
       gradientTransform="translate(0.20999,0)"
       y1="1632.6"
       x1="985.98999"
       inkscape:collect="always" />
    <linearGradient
       id="linearGradient25087"
       y2="1456.9"
       xlink:href="#linearGradient8893"
       gradientUnits="userSpaceOnUse"
       x2="1063.6"
       y1="1456.9"
       x1="939.96997"
       inkscape:collect="always" />
    <linearGradient
       id="linearGradient25089"
       y2="1415.5"
       xlink:href="#linearGradient8904"
       gradientUnits="userSpaceOnUse"
       x2="981.29999"
       y1="1415.5"
       x1="1019.6"
       inkscape:collect="always" />
    <linearGradient
       id="linearGradient25093"
       y2="1584.7"
       xlink:href="#linearGradient8870"
       gradientUnits="userSpaceOnUse"
       x2="956.10999"
       gradientTransform="matrix(-0.95981,0,0,1,1838.1,251.37)"
       y1="1401.1"
       x1="956.10999"
       inkscape:collect="always" />
    <linearGradient
       id="linearGradient25095"
       y2="1720.7"
       xlink:href="#linearGradient11311"
       gradientUnits="userSpaceOnUse"
       x2="829.20001"
       y1="1797.4"
       x1="936.54999"
       inkscape:collect="always" />
    <radialGradient
       id="radialGradient25169"
       xlink:href="#linearGradient9468"
       gradientUnits="userSpaceOnUse"
       cy="1639.9"
       cx="994.63"
       gradientTransform="matrix(0.75458,0.43565,-0.37733,0.65356,1123.5,317.94)"
       r="48.18"
       inkscape:collect="always" />
    <linearGradient
       id="linearGradient25171"
       y2="1758.4"
       gradientUnits="userSpaceOnUse"
       x2="1257"
       gradientTransform="translate(0,347.64)"
       y1="1842.3"
       x1="1257"
       inkscape:collect="always">
      <stop
         id="stop11777"
         style="stop-color:#ffffff"
         offset="0" />
      <stop
         id="stop11779"
         style="stop-color:#ffffff;stop-opacity:0"
         offset="1" />
    </linearGradient>
    <linearGradient
       inkscape:collect="always"
       xlink:href="#linearGradient9476"
       id="linearGradient6424"
       gradientUnits="userSpaceOnUse"
       gradientTransform="matrix(0.75458,0.43565,-0.43565,0.75458,1219.2,152.28)"
       x1="927.78003"
       y1="1639.9"
       x2="1061.5"
       y2="1639.9" />
    <linearGradient
       inkscape:collect="always"
       xlink:href="#linearGradient8870"
       id="linearGradient6426"
       gradientUnits="userSpaceOnUse"
       gradientTransform="matrix(-0.95981,0,0,1,1964.2,0)"
       x1="956.10999"
       y1="1401.1"
       x2="956.10999"
       y2="1584.7" />
    <linearGradient
       inkscape:collect="always"
       xlink:href="#linearGradient8870"
       id="linearGradient6428"
       gradientUnits="userSpaceOnUse"
       gradientTransform="translate(0.20999,0)"
       x1="985.98999"
       y1="1632.6"
       x2="985.98999"
       y2="1571.3" />
    <linearGradient
       inkscape:collect="always"
       xlink:href="#linearGradient8893"
       id="linearGradient6430"
       gradientUnits="userSpaceOnUse"
       x1="939.96997"
       y1="1456.9"
       x2="1063.6"
       y2="1456.9" />
    <linearGradient
       inkscape:collect="always"
       xlink:href="#linearGradient8904"
       id="linearGradient6432"
       gradientUnits="userSpaceOnUse"
       x1="1019.6"
       y1="1415.5"
       x2="981.29999"
       y2="1415.5" />
    <linearGradient
       inkscape:collect="always"
       xlink:href="#linearGradient8870"
       id="linearGradient6434"
       gradientUnits="userSpaceOnUse"
       gradientTransform="matrix(-0.95981,0,0,1,1964.2,0)"
       x1="956.10999"
       y1="1401.1"
       x2="956.10999"
       y2="1584.7" />
    <linearGradient
       inkscape:collect="always"
       xlink:href="#linearGradient8870"
       id="linearGradient6436"
       gradientUnits="userSpaceOnUse"
       gradientTransform="matrix(-0.95981,0,0,1,1838.1,251.37)"
       x1="956.10999"
       y1="1401.1"
       x2="956.10999"
       y2="1584.7" />
    <linearGradient
       inkscape:collect="always"
       xlink:href="#linearGradient11311"
       id="linearGradient6438"
       gradientUnits="userSpaceOnUse"
       x1="936.54999"
       y1="1797.4"
       x2="829.20001"
       y2="1720.7" />
    <linearGradient
       inkscape:collect="always"
       xlink:href="#linearGradient8870"
       id="linearGradient6440"
       gradientUnits="userSpaceOnUse"
       gradientTransform="matrix(-0.95981,0,0,1,1964.2,0)"
       x1="956.10999"
       y1="1401.1"
       x2="956.10999"
       y2="1584.7" />
    <linearGradient
       inkscape:collect="always"
       xlink:href="#linearGradient8870"
       id="linearGradient6442"
       gradientUnits="userSpaceOnUse"
       gradientTransform="translate(0.20999,0)"
       x1="985.98999"
       y1="1632.6"
       x2="985.98999"
       y2="1571.3" />
    <linearGradient
       inkscape:collect="always"
       xlink:href="#linearGradient8893"
       id="linearGradient6444"
       gradientUnits="userSpaceOnUse"
       x1="939.96997"
       y1="1456.9"
       x2="1063.6"
       y2="1456.9" />
    <linearGradient
       inkscape:collect="always"
       xlink:href="#linearGradient8904"
       id="linearGradient6446"
       gradientUnits="userSpaceOnUse"
       x1="1019.6"
       y1="1415.5"
       x2="981.29999"
       y2="1415.5" />
    <linearGradient
       inkscape:collect="always"
       xlink:href="#linearGradient8870"
       id="linearGradient6448"
       gradientUnits="userSpaceOnUse"
       gradientTransform="matrix(-0.95981,0,0,1,1964.2,0)"
       x1="956.10999"
       y1="1401.1"
       x2="956.10999"
       y2="1584.7" />
    <linearGradient
       inkscape:collect="always"
       xlink:href="#linearGradient8870"
       id="linearGradient6450"
       gradientUnits="userSpaceOnUse"
       gradientTransform="matrix(-0.95981,0,0,1,1838.1,251.37)"
       x1="956.10999"
       y1="1401.1"
       x2="956.10999"
       y2="1584.7" />
    <linearGradient
       inkscape:collect="always"
       xlink:href="#linearGradient11311"
       id="linearGradient6452"
       gradientUnits="userSpaceOnUse"
       x1="936.54999"
       y1="1797.4"
       x2="829.20001"
       y2="1720.7" />
    <linearGradient
       inkscape:collect="always"
       xlink:href="#linearGradient8870"
       id="linearGradient6454"
       gradientUnits="userSpaceOnUse"
       gradientTransform="matrix(-0.95981,0,0,1,1964.2,0)"
       x1="956.10999"
       y1="1401.1"
       x2="956.10999"
       y2="1584.7" />
    <linearGradient
       inkscape:collect="always"
       xlink:href="#linearGradient8870"
       id="linearGradient6456"
       gradientUnits="userSpaceOnUse"
       gradientTransform="translate(0.20999,0)"
       x1="985.98999"
       y1="1632.6"
       x2="985.98999"
       y2="1571.3" />
    <linearGradient
       inkscape:collect="always"
       xlink:href="#linearGradient8893"
       id="linearGradient6458"
       gradientUnits="userSpaceOnUse"
       x1="939.96997"
       y1="1456.9"
       x2="1063.6"
       y2="1456.9" />
    <linearGradient
       inkscape:collect="always"
       xlink:href="#linearGradient8904"
       id="linearGradient6460"
       gradientUnits="userSpaceOnUse"
       x1="1019.6"
       y1="1415.5"
       x2="981.29999"
       y2="1415.5" />
    <linearGradient
       inkscape:collect="always"
       xlink:href="#linearGradient8870"
       id="linearGradient6462"
       gradientUnits="userSpaceOnUse"
       gradientTransform="matrix(-0.95981,0,0,1,1964.2,0)"
       x1="956.10999"
       y1="1401.1"
       x2="956.10999"
       y2="1584.7" />
    <linearGradient
       inkscape:collect="always"
       xlink:href="#linearGradient8870"
       id="linearGradient6464"
       gradientUnits="userSpaceOnUse"
       gradientTransform="matrix(-0.95981,0,0,1,1838.1,251.37)"
       x1="956.10999"
       y1="1401.1"
       x2="956.10999"
       y2="1584.7" />
    <linearGradient
       inkscape:collect="always"
       xlink:href="#linearGradient11311"
       id="linearGradient6466"
       gradientUnits="userSpaceOnUse"
       x1="936.54999"
       y1="1797.4"
       x2="829.20001"
       y2="1720.7" />
    <linearGradient
       inkscape:collect="always"
       xlink:href="#linearGradient8870"
       id="linearGradient6468"
       gradientUnits="userSpaceOnUse"
       gradientTransform="matrix(-0.95981,0,0,1,1964.2,0)"
       x1="956.10999"
       y1="1401.1"
       x2="956.10999"
       y2="1584.7" />
    <linearGradient
       inkscape:collect="always"
       xlink:href="#linearGradient8870"
       id="linearGradient6470"
       gradientUnits="userSpaceOnUse"
       gradientTransform="translate(0.20999,0)"
       x1="985.98999"
       y1="1632.6"
       x2="985.98999"
       y2="1571.3" />
    <linearGradient
       inkscape:collect="always"
       xlink:href="#linearGradient8893"
       id="linearGradient6472"
       gradientUnits="userSpaceOnUse"
       x1="939.96997"
       y1="1456.9"
       x2="1063.6"
       y2="1456.9" />
    <linearGradient
       inkscape:collect="always"
       xlink:href="#linearGradient8904"
       id="linearGradient6474"
       gradientUnits="userSpaceOnUse"
       x1="1019.6"
       y1="1415.5"
       x2="981.29999"
       y2="1415.5" />
    <linearGradient
       inkscape:collect="always"
       xlink:href="#linearGradient8870"
       id="linearGradient6476"
       gradientUnits="userSpaceOnUse"
       gradientTransform="matrix(-0.95981,0,0,1,1964.2,0)"
       x1="956.10999"
       y1="1401.1"
       x2="956.10999"
       y2="1584.7" />
    <linearGradient
       inkscape:collect="always"
       xlink:href="#linearGradient8870"
       id="linearGradient6478"
       gradientUnits="userSpaceOnUse"
       gradientTransform="matrix(-0.95981,0,0,1,1838.1,251.37)"
       x1="956.10999"
       y1="1401.1"
       x2="956.10999"
       y2="1584.7" />
    <linearGradient
       inkscape:collect="always"
       xlink:href="#linearGradient11311"
       id="linearGradient6480"
       gradientUnits="userSpaceOnUse"
       x1="936.54999"
       y1="1797.4"
       x2="829.20001"
       y2="1720.7" />
    <linearGradient
       inkscape:collect="always"
       xlink:href="#linearGradient8870"
       id="linearGradient6482"
       gradientUnits="userSpaceOnUse"
       gradientTransform="matrix(-0.95981,0,0,1,1964.2,0)"
       x1="956.10999"
       y1="1401.1"
       x2="956.10999"
       y2="1584.7" />
    <linearGradient
       inkscape:collect="always"
       xlink:href="#linearGradient8870"
       id="linearGradient6484"
       gradientUnits="userSpaceOnUse"
       gradientTransform="translate(0.20999,0)"
       x1="985.98999"
       y1="1632.6"
       x2="985.98999"
       y2="1571.3" />
    <linearGradient
       inkscape:collect="always"
       xlink:href="#linearGradient8893"
       id="linearGradient6486"
       gradientUnits="userSpaceOnUse"
       x1="939.96997"
       y1="1456.9"
       x2="1063.6"
       y2="1456.9" />
    <linearGradient
       inkscape:collect="always"
       xlink:href="#linearGradient8904"
       id="linearGradient6488"
       gradientUnits="userSpaceOnUse"
       x1="1019.6"
       y1="1415.5"
       x2="981.29999"
       y2="1415.5" />
    <linearGradient
       inkscape:collect="always"
       xlink:href="#linearGradient8870"
       id="linearGradient6490"
       gradientUnits="userSpaceOnUse"
       gradientTransform="matrix(-0.95981,0,0,1,1964.2,0)"
       x1="956.10999"
       y1="1401.1"
       x2="956.10999"
       y2="1584.7" />
    <linearGradient
       inkscape:collect="always"
       xlink:href="#linearGradient8870"
       id="linearGradient6492"
       gradientUnits="userSpaceOnUse"
       gradientTransform="matrix(-0.95981,0,0,1,1838.1,251.37)"
       x1="956.10999"
       y1="1401.1"
       x2="956.10999"
       y2="1584.7" />
    <linearGradient
       inkscape:collect="always"
       xlink:href="#linearGradient11311"
       id="linearGradient6494"
       gradientUnits="userSpaceOnUse"
       x1="936.54999"
       y1="1797.4"
       x2="829.20001"
       y2="1720.7" />
    <linearGradient
       inkscape:collect="always"
       xlink:href="#linearGradient8870"
       id="linearGradient6496"
       gradientUnits="userSpaceOnUse"
       gradientTransform="matrix(-0.95981,0,0,1,1964.2,0)"
       x1="956.10999"
       y1="1401.1"
       x2="956.10999"
       y2="1584.7" />
  </defs>
  <g
     id="layer1"
     inkscape:label="Layer 1"
     transform="translate(-431.29067,-680.85171)"
     inkscape:groupmode="layer">
    <flowRoot
       id="flowRoot12477"
       xml:space="preserve"
       style="font-size:11px;line-height:125%;font-family:'7th Service';letter-spacing:0px;word-spacing:0px;fill:#000000"
       transform="translate(0,352.36)"><flowRegion
         id="flowRegion12479"><rect
           id="rect12481"
           y="9292"
           width="13.517"
           x="10287"
           height="19.309999" /></flowRegion><flowPara
         id="flowPara12483">LOVE ILo</flowPara></flowRoot>    <g
       id="g23926"
       transform="translate(-13.378,-15.655)">
      <g
         id="g22027"
         transform="translate(158.76,77.346)" />
    </g>
    <g
       id="g11874"
       transform="matrix(0.18116385,0.104595,-0.104595,0.18116385,461.43766,287.08311)">
      <g
         id="g11860"
         transform="matrix(3.7659e-8,3.0022,-3.0022,3.7659e-8,6688.6,-1959.3)">
        <path
           id="path11862"
           sodipodi:nodetypes="cacacacacacac"
           style="fill:#ffffff;stroke:url(#linearGradient6424);stroke-width:0.40727001"
           inkscape:connector-curvature="0"
           d="m 1305.3,1794.1 c 0,0 -20.783,-1.1514 -29.495,-6.1469 -8.87,-5.0849 -20.569,-22.753 -20.569,-22.753 0,0 -11.564,17.521 -20.338,22.587 -8.7741,5.0657 -29.73,6.3199 -29.73,6.3199 0,0 9.4508,18.966 9.4204,29.19 -0.03,10.043 -9.4243,28.617 -9.4243,28.617 0,0 20.783,1.1513 29.495,6.1468 8.8701,5.0849 20.569,22.753 20.569,22.753 0,0 11.547,-17.545 20.324,-22.612 8.7767,-5.0673 29.745,-6.2947 29.745,-6.2947 0,0 -9.4508,-18.966 -9.4202,-29.19 0.03,-10.043 9.4242,-28.617 9.4242,-28.617 z" />
        <path
           id="path11864"
           d="m 1299.6,1797.5 c 0,0 -18.382,-1.0183 -26.088,-5.4368 -7.8459,-4.4967 -18.193,-20.125 -18.193,-20.125 0,0 -10.228,15.497 -17.989,19.978 -7.7605,4.4805 -26.296,5.5899 -26.296,5.5899 0,0 8.3592,16.775 8.3322,25.818 -0.027,8.8829 -8.3356,25.311 -8.3356,25.311 0,0 18.382,1.0184 26.088,5.4369 7.8459,4.4968 18.193,20.125 18.193,20.125 0,0 10.213,-15.518 17.976,-20 7.7628,-4.4819 26.309,-5.5676 26.309,-5.5676 0,0 -8.3592,-16.775 -8.3322,-25.818 0.027,-8.8828 8.3356,-25.312 8.3356,-25.312 z"
           sodipodi:nodetypes="cacacacacacac"
           style="fill:url(#radialGradient25081)"
           inkscape:connector-curvature="0" />
      </g>
      <circle
         id="path11828"
         style="fill:#aaeeff;filter:url(#filter11842)"
         transform="matrix(0.64421,0,0,0.64421,432.47,419.74)"
         cx="1215.5276"
         cy="2156.8379"
         r="132.31433" />
      <g
         id="g11677"
         transform="translate(-39.746,-13.84)">
        <g
           id="g11478"
           transform="translate(457,0.8821)">
          <g
             id="g11319"
             inkscape:transform-center-y="-127.86582"
             transform="translate(-76.719,-72.353)">
            <g
               id="g10788"
               inkscape:transform-center-x="130.35052"
               inkscape:transform-center-y="90.74065"
               transform="translate(-126.08,251.37)">
              <path
                 id="path10790"
                 d="m 1048.7,1365.1 c 74.59,69.717 -48.724,273.89 -48.724,273.89 0,0 -119.34,-204.68 -44.337,-273.89 20.46,-18.879 72.751,-18.984 93.062,0 z"
                 sodipodi:nodetypes="acaa"
                 style="fill:#ffffff"
                 inkscape:connector-curvature="0" />
              <path
                 id="path10792"
                 d="m 1002.2,1370 c -15.269,0.011 -30.528,4.1258 -39.125,12.313 -34.457,32.813 -20.122,100.72 -0.0312,155.56 11.762,3.8035 24.911,5.9376 38.781,5.9376 13.222,0 25.756,-1.9308 37.094,-5.4063 21.109,-54.835 36.69,-122.96 2.3437,-156.09 -8.5344,-8.2327 -23.793,-12.324 -39.062,-12.313 z m -0.375,31.625 c 19.507,0 35.344,9.226 35.344,20.594 0,9.4711 -11.021,17.443 -25.969,19.844 -0.031,26.216 -9.625,62.187 -9.625,62.187 0,0 -9.2163,-36.003 -9.0937,-62.187 -14.955,-2.395 -25.969,-10.366 -25.969,-19.844 0,-11.368 15.805,-20.594 35.312,-20.594 z"
                 style="fill:url(#linearGradient6426)"
                 inkscape:connector-curvature="0" />
              <path
                 id="path10794"
                 d="m 967.18,1546.4 c 2.035,5.2742 4.0874,10.39 6.1488,15.312 9.2179,2.1545 19.111,3.3125 29.394,3.3125 9.5128,0 18.674,-0.9883 27.294,-2.8437 2.1523,-4.9151 4.2861,-10.041 6.4188,-15.313 -10.431,2.855 -21.797,4.4376 -33.713,4.4376 -12.61,0 -24.626,-1.7278 -35.543,-4.9063 z"
                 style="fill:#37abc8"
                 inkscape:connector-curvature="0" />
              <path
                 id="path10796"
                 d="m 977.07,1570 c 12.805,29.382 24.355,49.875 24.355,49.875 0,0 11.846,-20.275 25.105,-49.406 -7.5314,1.3834 -15.437,2.0937 -23.605,2.0937 -8.9878,0 -17.656,-0.8985 -25.855,-2.5625 z"
                 style="fill:url(#linearGradient6428)"
                 inkscape:connector-curvature="0" />
              <path
                 id="path10798"
                 style="fill:#0f4774"
                 inkscape:connector-curvature="0"
                 d="m 1001.8,1408 c 10.55,0 19.109,6.2931 19.109,14.047 0,6.4603 -5.9477,11.898 -14.032,13.536 -0.017,17.882 -5.2071,42.419 -5.2071,42.419 0,0 -4.9977,-24.558 -4.9314,-42.419 -8.0882,-1.6336 -14.032,-7.071 -14.032,-13.536 0,-7.7541 8.5425,-14.047 19.093,-14.047 z" />
              <path
                 id="path10800"
                 style="fill:none;stroke:url(#linearGradient6430);stroke-width:1.2227;filter:url(#filter8889)"
                 inkscape:connector-curvature="0"
                 transform="translate(5.7542e-6,0)"
                 d="m 1002.2,1370 c -15.269,0.011 -30.528,4.1258 -39.125,12.313 -34.457,32.813 -20.122,100.72 -0.0312,155.56 11.762,3.8035 24.911,5.9376 38.781,5.9376 13.222,0 25.756,-1.9308 37.094,-5.4063 21.109,-54.835 36.69,-122.96 2.3436,-156.09 -8.5344,-8.2327 -23.793,-12.324 -39.062,-12.313 z m -0.375,31.625 c 19.507,0 35.344,9.226 35.344,20.594 0,9.4711 -11.021,17.443 -25.969,19.844 -0.031,26.216 -9.625,62.187 -9.625,62.187 0,0 -9.2163,-36.003 -9.0938,-62.187 -14.955,-2.395 -25.969,-10.366 -25.969,-19.844 0,-11.368 15.805,-20.594 35.312,-20.594 z" />
              <path
                 id="path10802"
                 style="fill:none;stroke:url(#linearGradient6432);stroke-width:1.2227"
                 inkscape:connector-curvature="0"
                 d="m 1001.8,1408 c 10.55,0 19.109,6.2931 19.109,14.047 0,6.4603 -5.9477,11.898 -14.032,13.536 -0.017,17.882 -5.2071,42.419 -5.2071,42.419 0,0 -4.9977,-24.558 -4.9314,-42.419 -8.0882,-1.6336 -14.032,-7.071 -14.032,-13.536 0,-7.7541 8.5425,-14.047 19.093,-14.047 z" />
              <path
                 id="path10804"
                 style="fill:url(#linearGradient6434)"
                 inkscape:connector-curvature="0"
                 d="m 1002.2,1370 c -15.269,0.011 -30.528,4.1258 -39.125,12.313 -34.457,32.813 -20.122,100.72 -0.0312,155.56 11.762,3.8035 24.911,5.9376 38.781,5.9376 13.222,0 25.756,-1.9308 37.094,-5.4063 21.109,-54.835 36.69,-122.96 2.3437,-156.09 -8.5344,-8.2327 -23.793,-12.324 -39.062,-12.313 z m -0.375,31.625 c 19.507,0 35.344,9.226 35.344,20.594 0,9.4711 -11.021,17.443 -25.969,19.844 -0.031,26.216 -9.625,62.187 -9.625,62.187 0,0 -9.2163,-36.003 -9.0937,-62.187 -14.955,-2.395 -25.969,-10.366 -25.969,-19.844 0,-11.368 15.805,-20.594 35.312,-20.594 z" />
            </g>
            <path
               id="path10806"
               d="m 876.09,1621.4 c -15.269,0.011 -30.528,4.1258 -39.125,12.313 -34.457,32.813 -20.122,100.72 -0.0312,155.56 11.762,3.8035 24.911,5.9375 38.781,5.9376 13.222,0 25.755,-1.9308 37.094,-5.4063 21.109,-54.835 36.69,-122.96 2.3437,-156.09 -8.5344,-8.2326 -23.793,-12.324 -39.062,-12.312 z m -0.37495,31.625 c 19.507,0 35.344,9.226 35.344,20.594 4e-5,9.4711 -11.021,17.443 -25.969,19.844 -0.0311,26.216 -9.625,62.188 -9.625,62.188 0,0 -9.2163,-36.003 -9.0937,-62.188 -14.955,-2.3949 -25.969,-10.366 -25.969,-19.844 0,-11.368 15.805,-20.594 35.312,-20.594 z"
               style="fill:url(#linearGradient6436)"
               inkscape:connector-curvature="0" />
            <path
               id="path10810"
               style="opacity:0.34615;fill:url(#linearGradient6438)"
               inkscape:connector-curvature="0"
               d="m 920.87,1640.1 c -1.7225,-2.25 -3.625,-4.3734 -5.703,-6.378 -3.7965,-3.6621 -8.9393,-6.493 -14.806,-8.5196 l 20.509,14.898 z m 9.24,17.254 -49.177,-35.802 c -1.6105,-0.091 -3.2191,-0.1308 -4.838,-0.1296 -1.2505,9e-4 -2.5012,0.015 -3.7478,0.071 l 60.112,43.742 c -0.65917,-2.6981 -1.4372,-5.3356 -2.3491,-7.8814 z m 4.4456,19.95 -74.563,-54.271 c -2.1581,0.4419 -4.275,0.957 -6.3033,1.5824 l 49.309,35.906 32.105,23.358 c -0.12094,-2.2275 -0.30618,-4.4111 -0.54859,-6.5754 z m 0.68117,17.18 -24.538,-17.876 c -0.40368,1.6181 -1.1455,3.1647 -2.1576,4.6377 l 26.439,19.232 c 0.12383,-2.0149 0.20953,-4.0119 0.25631,-5.9937 z m -1.1308,15.917 -31.856,-23.177 c -1.4559,0.9633 -3.0608,1.8348 -4.7985,2.6261 l 35.912,26.14 c 0.26989,-1.8726 0.52634,-3.7336 0.7425,-5.5888 z m -2.2897,15.034 -44.448,-32.362 c -0.74697,0.1524 -1.4894,0.2781 -2.258,0.4016 -0.002,1.3309 -0.0575,2.6913 -0.10593,4.0665 l 45.751,33.305 c 0.37617,-1.8061 0.72614,-3.6135 1.0612,-5.4119 z m -3.0946,14.452 -44.405,-32.35 c -0.18545,1.9104 -0.38464,3.8216 -0.62182,5.7356 l 43.702,31.818 c 0.45179,-1.7369 0.90532,-3.467 1.3257,-5.2038 z m -50.33,-86.9 -33.94,-24.7 c -1.6343,0.8776 -3.1176,1.8613 -4.5299,2.904 l 30.247,22.013 c 1.8072,-0.1663 3.6542,-0.2766 5.5415,-0.2765 0.90261,-10e-5 1.7932,0.038 2.6788,0.077 z m 46.605,100.72 -42.675,-31.04 c -0.29946,1.8689 -0.60951,3.7207 -0.92897,5.516 l 42.076,30.628 c 0.51655,-1.7003 1.0356,-3.397 1.5277,-5.1039 z m -66.227,-98.271 -25.195,-18.326 c -1.104,1.2458 -2.1276,2.5275 -3.1147,3.8551 l 22.838,16.62 c 1.7004,-0.8153 3.5267,-1.5276 5.4714,-2.1486 z m 62.02,111.92 -41.182,-29.954 c -0.38231,1.8688 -0.74665,3.6802 -1.1081,5.3308 l 40.598,29.568 c 0.56165,-1.6444 1.1475,-3.2887 1.6913,-4.9457 z m -54.42,-73.009 -1.8589,-1.3444 c -12.908,-2.5251 -22.496,-9.2545 -23.908,-17.41 l -20.101,-14.628 c -0.52501,1.6841 -1.0183,3.3813 -1.4423,5.1268 l 47.509,34.6 c -0.11046,-2.1491 -0.1901,-4.2856 -0.1988,-6.3443 z m 49.762,86.379 -39.735,-28.948 c -0.53888,2.1877 -0.93682,3.7524 -0.93682,3.7524 0,0 -0.52087,-2.0686 -1.2718,-5.3279 l -57.273,-41.7 c 0.20681,2.2188 0.46657,4.4301 0.75068,6.6752 l 96.697,70.359 c 0.59546,-1.5878 1.1857,-3.2038 1.7694,-4.8104 z m -70.412,-118.08 -19.868,-14.474 c -0.80638,1.4799 -1.5506,2.993 -2.2473,4.5451 l 18.888,13.777 c 0.84308,-1.3562 1.9385,-2.6412 3.2271,-3.8479 z m 21.786,49.234 -50.172,-36.526 c -0.26424,1.8703 -0.50854,3.7764 -0.68008,5.6971 l 51.666,37.612 c -0.30887,-2.2448 -0.56182,-4.5093 -0.81319,-6.7835 z m 40.025,79.263 -88.045,-64.06 c 0.42444,2.3756 0.8879,4.7549 1.3807,7.1415 l 80.228,58.397 c 2.1851,-0.4349 4.3208,-0.9362 6.4356,-1.4783 z m -37.337,-60.608 -54.022,-39.319 c -0.0224,2.0499 -0.0118,4.1243 0.0509,6.2132 l 55.325,40.263 c -0.44246,-2.2588 -0.91244,-4.65 -1.3536,-7.1571 z m 18.843,63.888 -65.296,-47.533 c 0.64188,2.5614 1.3406,5.109 2.042,7.6617 l 55.531,40.433 c 2.6107,-0.1086 5.1772,-0.3051 7.7226,-0.5616 z m -22.379,0.3633 -36.982,-26.93 c 0.85452,2.7311 1.7443,5.4494 2.6448,8.1436 l 24.332,17.706 c 3.2713,0.4788 6.6142,0.8491 10.005,1.0796 z" />
          </g>
          <g
             id="g11424"
             transform="translate(4.2711,0)">
            <g
               id="g11346"
               inkscape:transform-center-x="-117.02221"
               inkscape:transform-center-y="81.371844"
               transform="matrix(-0.5,0.86603,-0.86603,-0.5,2869.9,2012.9)">
              <g
                 id="g11348"
                 inkscape:transform-center-x="130.35052"
                 inkscape:transform-center-y="90.74065"
                 transform="translate(-126.08,251.37)">
                <path
                   id="path11350"
                   d="m 1048.7,1365.1 c 74.59,69.717 -48.724,273.89 -48.724,273.89 0,0 -119.34,-204.68 -44.337,-273.89 20.46,-18.879 72.751,-18.984 93.062,0 z"
                   sodipodi:nodetypes="acaa"
                   style="fill:#ffffff"
                   inkscape:connector-curvature="0" />
                <path
                   id="path11352"
                   d="m 1002.2,1370 c -15.269,0.011 -30.528,4.1258 -39.125,12.313 -34.457,32.813 -20.122,100.72 -0.0312,155.56 11.762,3.8035 24.911,5.9376 38.781,5.9376 13.222,0 25.756,-1.9308 37.094,-5.4063 21.109,-54.835 36.69,-122.96 2.3437,-156.09 -8.5344,-8.2327 -23.793,-12.324 -39.062,-12.313 z m -0.375,31.625 c 19.507,0 35.344,9.226 35.344,20.594 0,9.4711 -11.021,17.443 -25.969,19.844 -0.031,26.216 -9.625,62.187 -9.625,62.187 0,0 -9.2163,-36.003 -9.0937,-62.187 -14.955,-2.395 -25.969,-10.366 -25.969,-19.844 0,-11.368 15.805,-20.594 35.312,-20.594 z"
                   style="fill:url(#linearGradient6440)"
                   inkscape:connector-curvature="0" />
                <path
                   id="path11354"
                   d="m 967.18,1546.4 c 2.035,5.2742 4.0874,10.39 6.1488,15.312 9.2179,2.1545 19.111,3.3125 29.394,3.3125 9.5128,0 18.674,-0.9883 27.294,-2.8437 2.1523,-4.9151 4.2861,-10.041 6.4188,-15.313 -10.431,2.855 -21.797,4.4376 -33.713,4.4376 -12.61,0 -24.626,-1.7278 -35.543,-4.9063 z"
                   style="fill:#37abc8"
                   inkscape:connector-curvature="0" />
                <path
                   id="path11356"
                   d="m 977.07,1570 c 12.805,29.382 24.355,49.875 24.355,49.875 0,0 11.846,-20.275 25.105,-49.406 -7.5314,1.3834 -15.437,2.0937 -23.605,2.0937 -8.9878,0 -17.656,-0.8985 -25.855,-2.5625 z"
                   style="fill:url(#linearGradient6442)"
                   inkscape:connector-curvature="0" />
                <path
                   id="path11358"
                   style="fill:#0f4774"
                   inkscape:connector-curvature="0"
                   d="m 1001.8,1408 c 10.55,0 19.109,6.2931 19.109,14.047 0,6.4603 -5.9477,11.898 -14.032,13.536 -0.017,17.882 -5.2071,42.419 -5.2071,42.419 0,0 -4.9977,-24.558 -4.9314,-42.419 -8.0882,-1.6336 -14.032,-7.071 -14.032,-13.536 0,-7.7541 8.5425,-14.047 19.093,-14.047 z" />
                <path
                   id="path11360"
                   style="fill:none;stroke:url(#linearGradient6444);stroke-width:1.2227;filter:url(#filter8889)"
                   inkscape:connector-curvature="0"
                   transform="translate(5.7542e-6,0)"
                   d="m 1002.2,1370 c -15.269,0.011 -30.528,4.1258 -39.125,12.313 -34.457,32.813 -20.122,100.72 -0.0312,155.56 11.762,3.8035 24.911,5.9376 38.781,5.9376 13.222,0 25.756,-1.9308 37.094,-5.4063 21.109,-54.835 36.69,-122.96 2.3436,-156.09 -8.5344,-8.2327 -23.793,-12.324 -39.062,-12.313 z m -0.375,31.625 c 19.507,0 35.344,9.226 35.344,20.594 0,9.4711 -11.021,17.443 -25.969,19.844 -0.031,26.216 -9.625,62.187 -9.625,62.187 0,0 -9.2163,-36.003 -9.0938,-62.187 -14.955,-2.395 -25.969,-10.366 -25.969,-19.844 0,-11.368 15.805,-20.594 35.312,-20.594 z" />
                <path
                   id="path11362"
                   style="fill:none;stroke:url(#linearGradient6446);stroke-width:1.2227"
                   inkscape:connector-curvature="0"
                   d="m 1001.8,1408 c 10.55,0 19.109,6.2931 19.109,14.047 0,6.4603 -5.9477,11.898 -14.032,13.536 -0.017,17.882 -5.2071,42.419 -5.2071,42.419 0,0 -4.9977,-24.558 -4.9314,-42.419 -8.0882,-1.6336 -14.032,-7.071 -14.032,-13.536 0,-7.7541 8.5425,-14.047 19.093,-14.047 z" />
                <path
                   id="path11364"
                   style="fill:url(#linearGradient6448)"
                   inkscape:connector-curvature="0"
                   d="m 1002.2,1370 c -15.269,0.011 -30.528,4.1258 -39.125,12.313 -34.457,32.813 -20.122,100.72 -0.0312,155.56 11.762,3.8035 24.911,5.9376 38.781,5.9376 13.222,0 25.756,-1.9308 37.094,-5.4063 21.109,-54.835 36.69,-122.96 2.3437,-156.09 -8.5344,-8.2327 -23.793,-12.324 -39.062,-12.313 z m -0.375,31.625 c 19.507,0 35.344,9.226 35.344,20.594 0,9.4711 -11.021,17.443 -25.969,19.844 -0.031,26.216 -9.625,62.187 -9.625,62.187 0,0 -9.2163,-36.003 -9.0937,-62.187 -14.955,-2.395 -25.969,-10.366 -25.969,-19.844 0,-11.368 15.805,-20.594 35.312,-20.594 z" />
              </g>
              <path
                 id="path11366"
                 d="m 876.09,1621.4 c -15.269,0.011 -30.528,4.1258 -39.125,12.313 -34.457,32.813 -20.122,100.72 -0.0312,155.56 11.762,3.8035 24.911,5.9375 38.781,5.9376 13.222,0 25.755,-1.9308 37.094,-5.4063 21.109,-54.835 36.69,-122.96 2.3437,-156.09 -8.5344,-8.2326 -23.793,-12.324 -39.062,-12.312 z m -0.37495,31.625 c 19.507,0 35.344,9.226 35.344,20.594 4e-5,9.4711 -11.021,17.443 -25.969,19.844 -0.0311,26.216 -9.625,62.188 -9.625,62.188 0,0 -9.2163,-36.003 -9.0937,-62.188 -14.955,-2.3949 -25.969,-10.366 -25.969,-19.844 0,-11.368 15.805,-20.594 35.312,-20.594 z"
                 style="fill:url(#linearGradient6450)"
                 inkscape:connector-curvature="0" />
              <path
                 id="path11368"
                 style="opacity:0.34615;fill:url(#linearGradient6452)"
                 inkscape:connector-curvature="0"
                 d="m 920.87,1640.1 c -1.7225,-2.25 -3.625,-4.3734 -5.703,-6.378 -3.7965,-3.6621 -8.9393,-6.493 -14.806,-8.5196 l 20.509,14.898 z m 9.24,17.254 -49.177,-35.802 c -1.6105,-0.091 -3.2191,-0.1308 -4.838,-0.1296 -1.2505,9e-4 -2.5012,0.015 -3.7478,0.071 l 60.112,43.742 c -0.65917,-2.6981 -1.4372,-5.3356 -2.3491,-7.8814 z m 4.4456,19.95 -74.563,-54.271 c -2.1581,0.4419 -4.275,0.957 -6.3033,1.5824 l 49.309,35.906 32.105,23.358 c -0.12094,-2.2275 -0.30618,-4.4111 -0.54859,-6.5754 z m 0.68117,17.18 -24.538,-17.876 c -0.40368,1.6181 -1.1455,3.1647 -2.1576,4.6377 l 26.439,19.232 c 0.12383,-2.0149 0.20953,-4.0119 0.25631,-5.9937 z m -1.1308,15.917 -31.856,-23.177 c -1.4559,0.9633 -3.0608,1.8348 -4.7985,2.6261 l 35.912,26.14 c 0.26989,-1.8726 0.52634,-3.7336 0.7425,-5.5888 z m -2.2897,15.034 -44.448,-32.362 c -0.74697,0.1524 -1.4894,0.2781 -2.258,0.4016 -0.002,1.3309 -0.0575,2.6913 -0.10593,4.0665 l 45.751,33.305 c 0.37617,-1.8061 0.72614,-3.6135 1.0612,-5.4119 z m -3.0946,14.452 -44.405,-32.35 c -0.18545,1.9104 -0.38464,3.8216 -0.62182,5.7356 l 43.702,31.818 c 0.45179,-1.7369 0.90532,-3.467 1.3257,-5.2038 z m -50.33,-86.9 -33.94,-24.7 c -1.6343,0.8776 -3.1176,1.8613 -4.5299,2.904 l 30.247,22.013 c 1.8072,-0.1663 3.6542,-0.2766 5.5415,-0.2765 0.90261,-10e-5 1.7932,0.038 2.6788,0.077 z m 46.605,100.72 -42.675,-31.04 c -0.29946,1.8689 -0.60951,3.7207 -0.92897,5.516 l 42.076,30.628 c 0.51655,-1.7003 1.0356,-3.397 1.5277,-5.1039 z m -66.227,-98.271 -25.195,-18.326 c -1.104,1.2458 -2.1276,2.5275 -3.1147,3.8551 l 22.838,16.62 c 1.7004,-0.8153 3.5267,-1.5276 5.4714,-2.1486 z m 62.02,111.92 -41.182,-29.954 c -0.38231,1.8688 -0.74665,3.6802 -1.1081,5.3308 l 40.598,29.568 c 0.56165,-1.6444 1.1475,-3.2887 1.6913,-4.9457 z m -54.42,-73.009 -1.8589,-1.3444 c -12.908,-2.5251 -22.496,-9.2545 -23.908,-17.41 l -20.101,-14.628 c -0.52501,1.6841 -1.0183,3.3813 -1.4423,5.1268 l 47.509,34.6 c -0.11046,-2.1491 -0.1901,-4.2856 -0.1988,-6.3443 z m 49.762,86.379 -39.735,-28.948 c -0.53888,2.1877 -0.93682,3.7524 -0.93682,3.7524 0,0 -0.52087,-2.0686 -1.2718,-5.3279 l -57.273,-41.7 c 0.20681,2.2188 0.46657,4.4301 0.75068,6.6752 l 96.697,70.359 c 0.59546,-1.5878 1.1857,-3.2038 1.7694,-4.8104 z m -70.412,-118.08 -19.868,-14.474 c -0.80638,1.4799 -1.5506,2.993 -2.2473,4.5451 l 18.888,13.777 c 0.84308,-1.3562 1.9385,-2.6412 3.2271,-3.8479 z m 21.786,49.234 -50.172,-36.526 c -0.26424,1.8703 -0.50854,3.7764 -0.68008,5.6971 l 51.666,37.612 c -0.30887,-2.2448 -0.56182,-4.5093 -0.81319,-6.7835 z m 40.025,79.263 -88.045,-64.06 c 0.42444,2.3756 0.8879,4.7549 1.3807,7.1415 l 80.228,58.397 c 2.1851,-0.4349 4.3208,-0.9362 6.4356,-1.4783 z m -37.337,-60.608 -54.022,-39.319 c -0.0224,2.0499 -0.0118,4.1243 0.0509,6.2132 l 55.325,40.263 c -0.44246,-2.2588 -0.91244,-4.65 -1.3536,-7.1571 z m 18.843,63.888 -65.296,-47.533 c 0.64188,2.5614 1.3406,5.109 2.042,7.6617 l 55.531,40.433 c 2.6107,-0.1086 5.1772,-0.3051 7.7226,-0.5616 z m -22.379,0.3633 -36.982,-26.93 c 0.85452,2.7311 1.7443,5.4494 2.6448,8.1436 l 24.332,17.706 c 3.2713,0.4788 6.6142,0.8491 10.005,1.0796 z" />
            </g>
            <g
               id="g11384"
               inkscape:transform-center-x="116.3391"
               inkscape:transform-center-y="82.651181"
               transform="matrix(-0.5,-0.86603,0.86603,-0.5,-409.29,3526.6)">
              <g
                 id="g11386"
                 inkscape:transform-center-x="130.35052"
                 inkscape:transform-center-y="90.74065"
                 transform="translate(-126.08,251.37)">
                <path
                   id="path11388"
                   sodipodi:nodetypes="acaa"
                   style="fill:#ffffff"
                   inkscape:connector-curvature="0"
                   d="m 1048.7,1365.1 c 74.59,69.717 -48.724,273.89 -48.724,273.89 0,0 -119.34,-204.68 -44.337,-273.89 20.46,-18.879 72.751,-18.984 93.062,0 z" />
                <path
                   id="path11390"
                   style="fill:url(#linearGradient6454)"
                   inkscape:connector-curvature="0"
                   d="m 1002.2,1370 c -15.269,0.011 -30.528,4.1258 -39.125,12.313 -34.457,32.813 -20.122,100.72 -0.0312,155.56 11.762,3.8035 24.911,5.9376 38.781,5.9376 13.222,0 25.756,-1.9308 37.094,-5.4063 21.109,-54.835 36.69,-122.96 2.3437,-156.09 -8.5344,-8.2327 -23.793,-12.324 -39.062,-12.313 z m -0.375,31.625 c 19.507,0 35.344,9.226 35.344,20.594 0,9.4711 -11.021,17.443 -25.969,19.844 -0.031,26.216 -9.625,62.187 -9.625,62.187 0,0 -9.2163,-36.003 -9.0937,-62.187 -14.955,-2.395 -25.969,-10.366 -25.969,-19.844 0,-11.368 15.805,-20.594 35.312,-20.594 z" />
                <path
                   id="path11392"
                   style="fill:#37abc8"
                   inkscape:connector-curvature="0"
                   d="m 967.18,1546.4 c 2.035,5.2742 4.0874,10.39 6.1488,15.312 9.2179,2.1545 19.111,3.3125 29.394,3.3125 9.5128,0 18.674,-0.9883 27.294,-2.8437 2.1523,-4.9151 4.2861,-10.041 6.4188,-15.313 -10.431,2.855 -21.797,4.4376 -33.713,4.4376 -12.61,0 -24.626,-1.7278 -35.543,-4.9063 z" />
                <path
                   id="path11394"
                   style="fill:url(#linearGradient6456)"
                   inkscape:connector-curvature="0"
                   d="m 977.07,1570 c 12.805,29.382 24.355,49.875 24.355,49.875 0,0 11.846,-20.275 25.105,-49.406 -7.5314,1.3834 -15.437,2.0937 -23.605,2.0937 -8.9878,0 -17.656,-0.8985 -25.855,-2.5625 z" />
                <path
                   id="path11396"
                   style="fill:#0f4774"
                   inkscape:connector-curvature="0"
                   d="m 1001.8,1408 c 10.55,0 19.109,6.2931 19.109,14.047 0,6.4603 -5.9477,11.898 -14.032,13.536 -0.017,17.882 -5.2071,42.419 -5.2071,42.419 0,0 -4.9977,-24.558 -4.9314,-42.419 -8.0882,-1.6336 -14.032,-7.071 -14.032,-13.536 0,-7.7541 8.5425,-14.047 19.093,-14.047 z" />
                <path
                   id="path11398"
                   d="m 1002.2,1370 c -15.269,0.011 -30.528,4.1258 -39.125,12.313 -34.457,32.813 -20.122,100.72 -0.0312,155.56 11.762,3.8035 24.911,5.9376 38.781,5.9376 13.222,0 25.756,-1.9308 37.094,-5.4063 21.109,-54.835 36.69,-122.96 2.3436,-156.09 -8.5344,-8.2327 -23.793,-12.324 -39.062,-12.313 z m -0.375,31.625 c 19.507,0 35.344,9.226 35.344,20.594 0,9.4711 -11.021,17.443 -25.969,19.844 -0.031,26.216 -9.625,62.187 -9.625,62.187 0,0 -9.2163,-36.003 -9.0938,-62.187 -14.955,-2.395 -25.969,-10.366 -25.969,-19.844 0,-11.368 15.805,-20.594 35.312,-20.594 z"
                   style="fill:none;stroke:url(#linearGradient6458);stroke-width:1.2227;filter:url(#filter8889)"
                   transform="translate(5.7542e-6,0)"
                   inkscape:connector-curvature="0" />
                <path
                   id="path11400"
                   style="fill:none;stroke:url(#linearGradient6460);stroke-width:1.2227"
                   inkscape:connector-curvature="0"
                   d="m 1001.8,1408 c 10.55,0 19.109,6.2931 19.109,14.047 0,6.4603 -5.9477,11.898 -14.032,13.536 -0.017,17.882 -5.2071,42.419 -5.2071,42.419 0,0 -4.9977,-24.558 -4.9314,-42.419 -8.0882,-1.6336 -14.032,-7.071 -14.032,-13.536 0,-7.7541 8.5425,-14.047 19.093,-14.047 z" />
                <path
                   id="path11402"
                   d="m 1002.2,1370 c -15.269,0.011 -30.528,4.1258 -39.125,12.313 -34.457,32.813 -20.122,100.72 -0.0312,155.56 11.762,3.8035 24.911,5.9376 38.781,5.9376 13.222,0 25.756,-1.9308 37.094,-5.4063 21.109,-54.835 36.69,-122.96 2.3437,-156.09 -8.5344,-8.2327 -23.793,-12.324 -39.062,-12.313 z m -0.375,31.625 c 19.507,0 35.344,9.226 35.344,20.594 0,9.4711 -11.021,17.443 -25.969,19.844 -0.031,26.216 -9.625,62.187 -9.625,62.187 0,0 -9.2163,-36.003 -9.0937,-62.187 -14.955,-2.395 -25.969,-10.366 -25.969,-19.844 0,-11.368 15.805,-20.594 35.312,-20.594 z"
                   style="fill:url(#linearGradient6462)"
                   inkscape:connector-curvature="0" />
              </g>
              <path
                 id="path11404"
                 style="fill:url(#linearGradient6464)"
                 inkscape:connector-curvature="0"
                 d="m 876.09,1621.4 c -15.269,0.011 -30.528,4.1258 -39.125,12.313 -34.457,32.813 -20.122,100.72 -0.0312,155.56 11.762,3.8035 24.911,5.9375 38.781,5.9376 13.222,0 25.755,-1.9308 37.094,-5.4063 21.109,-54.835 36.69,-122.96 2.3437,-156.09 -8.5344,-8.2326 -23.793,-12.324 -39.062,-12.312 z m -0.37495,31.625 c 19.507,0 35.344,9.226 35.344,20.594 4e-5,9.4711 -11.021,17.443 -25.969,19.844 -0.0311,26.216 -9.625,62.188 -9.625,62.188 0,0 -9.2163,-36.003 -9.0937,-62.188 -14.955,-2.3949 -25.969,-10.366 -25.969,-19.844 0,-11.368 15.805,-20.594 35.312,-20.594 z" />
              <path
                 id="path11406"
                 style="opacity:0.34615;fill:url(#linearGradient6466)"
                 inkscape:connector-curvature="0"
                 d="m 920.87,1640.1 c -1.7225,-2.25 -3.625,-4.3734 -5.703,-6.378 -3.7965,-3.6621 -8.9393,-6.493 -14.806,-8.5196 l 20.509,14.898 z m 9.24,17.254 -49.177,-35.802 c -1.6105,-0.091 -3.2191,-0.1308 -4.838,-0.1296 -1.2505,9e-4 -2.5012,0.015 -3.7478,0.071 l 60.112,43.742 c -0.65917,-2.6981 -1.4372,-5.3356 -2.3491,-7.8814 z m 4.4456,19.95 -74.563,-54.271 c -2.1581,0.4419 -4.275,0.957 -6.3033,1.5824 l 49.309,35.906 32.105,23.358 c -0.12094,-2.2275 -0.30618,-4.4111 -0.54859,-6.5754 z m 0.68117,17.18 -24.538,-17.876 c -0.40368,1.6181 -1.1455,3.1647 -2.1576,4.6377 l 26.439,19.232 c 0.12383,-2.0149 0.20953,-4.0119 0.25631,-5.9937 z m -1.1308,15.917 -31.856,-23.177 c -1.4559,0.9633 -3.0608,1.8348 -4.7985,2.6261 l 35.912,26.14 c 0.26989,-1.8726 0.52634,-3.7336 0.7425,-5.5888 z m -2.2897,15.034 -44.448,-32.362 c -0.74697,0.1524 -1.4894,0.2781 -2.258,0.4016 -0.002,1.3309 -0.0575,2.6913 -0.10593,4.0665 l 45.751,33.305 c 0.37617,-1.8061 0.72614,-3.6135 1.0612,-5.4119 z m -3.0946,14.452 -44.405,-32.35 c -0.18545,1.9104 -0.38464,3.8216 -0.62182,5.7356 l 43.702,31.818 c 0.45179,-1.7369 0.90532,-3.467 1.3257,-5.2038 z m -50.33,-86.9 -33.94,-24.7 c -1.6343,0.8776 -3.1176,1.8613 -4.5299,2.904 l 30.247,22.013 c 1.8072,-0.1663 3.6542,-0.2766 5.5415,-0.2765 0.90261,-10e-5 1.7932,0.038 2.6788,0.077 z m 46.605,100.72 -42.675,-31.04 c -0.29946,1.8689 -0.60951,3.7207 -0.92897,5.516 l 42.076,30.628 c 0.51655,-1.7003 1.0356,-3.397 1.5277,-5.1039 z m -66.227,-98.271 -25.195,-18.326 c -1.104,1.2458 -2.1276,2.5275 -3.1147,3.8551 l 22.838,16.62 c 1.7004,-0.8153 3.5267,-1.5276 5.4714,-2.1486 z m 62.02,111.92 -41.182,-29.954 c -0.38231,1.8688 -0.74665,3.6802 -1.1081,5.3308 l 40.598,29.568 c 0.56165,-1.6444 1.1475,-3.2887 1.6913,-4.9457 z m -54.42,-73.009 -1.8589,-1.3444 c -12.908,-2.5251 -22.496,-9.2545 -23.908,-17.41 l -20.101,-14.628 c -0.52501,1.6841 -1.0183,3.3813 -1.4423,5.1268 l 47.509,34.6 c -0.11046,-2.1491 -0.1901,-4.2856 -0.1988,-6.3443 z m 49.762,86.379 -39.735,-28.948 c -0.53888,2.1877 -0.93682,3.7524 -0.93682,3.7524 0,0 -0.52087,-2.0686 -1.2718,-5.3279 l -57.273,-41.7 c 0.20681,2.2188 0.46657,4.4301 0.75068,6.6752 l 96.697,70.359 c 0.59546,-1.5878 1.1857,-3.2038 1.7694,-4.8104 z m -70.412,-118.08 -19.868,-14.474 c -0.80638,1.4799 -1.5506,2.993 -2.2473,4.5451 l 18.888,13.777 c 0.84308,-1.3562 1.9385,-2.6412 3.2271,-3.8479 z m 21.786,49.234 -50.172,-36.526 c -0.26424,1.8703 -0.50854,3.7764 -0.68008,5.6971 l 51.666,37.612 c -0.30887,-2.2448 -0.56182,-4.5093 -0.81319,-6.7835 z m 40.025,79.263 -88.045,-64.06 c 0.42444,2.3756 0.8879,4.7549 1.3807,7.1415 l 80.228,58.397 c 2.1851,-0.4349 4.3208,-0.9362 6.4356,-1.4783 z m -37.337,-60.608 -54.022,-39.319 c -0.0224,2.0499 -0.0118,4.1243 0.0509,6.2132 l 55.325,40.263 c -0.44246,-2.2588 -0.91244,-4.65 -1.3536,-7.1571 z m 18.843,63.888 -65.296,-47.533 c 0.64188,2.5614 1.3406,5.109 2.042,7.6617 l 55.531,40.433 c 2.6107,-0.1086 5.1772,-0.3051 7.7226,-0.5616 z m -22.379,0.3633 -36.982,-26.93 c 0.85452,2.7311 1.7443,5.4494 2.6448,8.1436 l 24.332,17.706 c 3.2713,0.4788 6.6142,0.8491 10.005,1.0796 z" />
            </g>
          </g>
        </g>
        <g
           id="g11517"
           transform="matrix(0.5,0.86603,-0.86603,0.5,2434.3,221.95)">
          <g
             id="g11519"
             inkscape:transform-center-y="-127.86582"
             transform="translate(-76.719,-72.353)">
            <g
               id="g11521"
               inkscape:transform-center-x="130.35052"
               inkscape:transform-center-y="90.74065"
               transform="translate(-126.08,251.37)">
              <path
                 id="path11523"
                 sodipodi:nodetypes="acaa"
                 style="fill:#ffffff"
                 inkscape:connector-curvature="0"
                 d="m 1048.7,1365.1 c 74.59,69.717 -48.724,273.89 -48.724,273.89 0,0 -119.34,-204.68 -44.337,-273.89 20.46,-18.879 72.751,-18.984 93.062,0 z" />
              <path
                 id="path11525"
                 style="fill:url(#linearGradient6468)"
                 inkscape:connector-curvature="0"
                 d="m 1002.2,1370 c -15.269,0.011 -30.528,4.1258 -39.125,12.313 -34.457,32.813 -20.122,100.72 -0.0312,155.56 11.762,3.8035 24.911,5.9376 38.781,5.9376 13.222,0 25.756,-1.9308 37.094,-5.4063 21.109,-54.835 36.69,-122.96 2.3437,-156.09 -8.5344,-8.2327 -23.793,-12.324 -39.062,-12.313 z m -0.375,31.625 c 19.507,0 35.344,9.226 35.344,20.594 0,9.4711 -11.021,17.443 -25.969,19.844 -0.031,26.216 -9.625,62.187 -9.625,62.187 0,0 -9.2163,-36.003 -9.0937,-62.187 -14.955,-2.395 -25.969,-10.366 -25.969,-19.844 0,-11.368 15.805,-20.594 35.312,-20.594 z" />
              <path
                 id="path11527"
                 style="fill:#37abc8"
                 inkscape:connector-curvature="0"
                 d="m 967.18,1546.4 c 2.035,5.2742 4.0874,10.39 6.1488,15.312 9.2179,2.1545 19.111,3.3125 29.394,3.3125 9.5128,0 18.674,-0.9883 27.294,-2.8437 2.1523,-4.9151 4.2861,-10.041 6.4188,-15.313 -10.431,2.855 -21.797,4.4376 -33.713,4.4376 -12.61,0 -24.626,-1.7278 -35.543,-4.9063 z" />
              <path
                 id="path11529"
                 style="fill:url(#linearGradient6470)"
                 inkscape:connector-curvature="0"
                 d="m 977.07,1570 c 12.805,29.382 24.355,49.875 24.355,49.875 0,0 11.846,-20.275 25.105,-49.406 -7.5314,1.3834 -15.437,2.0937 -23.605,2.0937 -8.9878,0 -17.656,-0.8985 -25.855,-2.5625 z" />
              <path
                 id="path11531"
                 style="fill:#0f4774"
                 inkscape:connector-curvature="0"
                 d="m 1001.8,1408 c 10.55,0 19.109,6.2931 19.109,14.047 0,6.4603 -5.9477,11.898 -14.032,13.536 -0.017,17.882 -5.2071,42.419 -5.2071,42.419 0,0 -4.9977,-24.558 -4.9314,-42.419 -8.0882,-1.6336 -14.032,-7.071 -14.032,-13.536 0,-7.7541 8.5425,-14.047 19.093,-14.047 z" />
              <path
                 id="path11533"
                 d="m 1002.2,1370 c -15.269,0.011 -30.528,4.1258 -39.125,12.313 -34.457,32.813 -20.122,100.72 -0.0312,155.56 11.762,3.8035 24.911,5.9376 38.781,5.9376 13.222,0 25.756,-1.9308 37.094,-5.4063 21.109,-54.835 36.69,-122.96 2.3436,-156.09 -8.5344,-8.2327 -23.793,-12.324 -39.062,-12.313 z m -0.375,31.625 c 19.507,0 35.344,9.226 35.344,20.594 0,9.4711 -11.021,17.443 -25.969,19.844 -0.031,26.216 -9.625,62.187 -9.625,62.187 0,0 -9.2163,-36.003 -9.0938,-62.187 -14.955,-2.395 -25.969,-10.366 -25.969,-19.844 0,-11.368 15.805,-20.594 35.312,-20.594 z"
                 style="fill:none;stroke:url(#linearGradient6472);stroke-width:1.2227;filter:url(#filter8889)"
                 transform="translate(5.7542e-6,0)"
                 inkscape:connector-curvature="0" />
              <path
                 id="path11535"
                 style="fill:none;stroke:url(#linearGradient6474);stroke-width:1.2227"
                 inkscape:connector-curvature="0"
                 d="m 1001.8,1408 c 10.55,0 19.109,6.2931 19.109,14.047 0,6.4603 -5.9477,11.898 -14.032,13.536 -0.017,17.882 -5.2071,42.419 -5.2071,42.419 0,0 -4.9977,-24.558 -4.9314,-42.419 -8.0882,-1.6336 -14.032,-7.071 -14.032,-13.536 0,-7.7541 8.5425,-14.047 19.093,-14.047 z" />
              <path
                 id="path11537"
                 d="m 1002.2,1370 c -15.269,0.011 -30.528,4.1258 -39.125,12.313 -34.457,32.813 -20.122,100.72 -0.0312,155.56 11.762,3.8035 24.911,5.9376 38.781,5.9376 13.222,0 25.756,-1.9308 37.094,-5.4063 21.109,-54.835 36.69,-122.96 2.3437,-156.09 -8.5344,-8.2327 -23.793,-12.324 -39.062,-12.313 z m -0.375,31.625 c 19.507,0 35.344,9.226 35.344,20.594 0,9.4711 -11.021,17.443 -25.969,19.844 -0.031,26.216 -9.625,62.187 -9.625,62.187 0,0 -9.2163,-36.003 -9.0937,-62.187 -14.955,-2.395 -25.969,-10.366 -25.969,-19.844 0,-11.368 15.805,-20.594 35.312,-20.594 z"
                 style="fill:url(#linearGradient6476)"
                 inkscape:connector-curvature="0" />
            </g>
            <path
               id="path11539"
               style="fill:url(#linearGradient6478)"
               inkscape:connector-curvature="0"
               d="m 876.09,1621.4 c -15.269,0.011 -30.528,4.1258 -39.125,12.313 -34.457,32.813 -20.122,100.72 -0.0312,155.56 11.762,3.8035 24.911,5.9375 38.781,5.9376 13.222,0 25.755,-1.9308 37.094,-5.4063 21.109,-54.835 36.69,-122.96 2.3437,-156.09 -8.5344,-8.2326 -23.793,-12.324 -39.062,-12.312 z m -0.37495,31.625 c 19.507,0 35.344,9.226 35.344,20.594 4e-5,9.4711 -11.021,17.443 -25.969,19.844 -0.0311,26.216 -9.625,62.188 -9.625,62.188 0,0 -9.2163,-36.003 -9.0937,-62.188 -14.955,-2.3949 -25.969,-10.366 -25.969,-19.844 0,-11.368 15.805,-20.594 35.312,-20.594 z" />
            <path
               id="path11541"
               style="opacity:0.34615;fill:url(#linearGradient6480)"
               inkscape:connector-curvature="0"
               d="m 920.87,1640.1 c -1.7225,-2.25 -3.625,-4.3734 -5.703,-6.378 -3.7965,-3.6621 -8.9393,-6.493 -14.806,-8.5196 l 20.509,14.898 z m 9.24,17.254 -49.177,-35.802 c -1.6105,-0.091 -3.2191,-0.1308 -4.838,-0.1296 -1.2505,9e-4 -2.5012,0.015 -3.7478,0.071 l 60.112,43.742 c -0.65917,-2.6981 -1.4372,-5.3356 -2.3491,-7.8814 z m 4.4456,19.95 -74.563,-54.271 c -2.1581,0.4419 -4.275,0.957 -6.3033,1.5824 l 49.309,35.906 32.105,23.358 c -0.12094,-2.2275 -0.30618,-4.4111 -0.54859,-6.5754 z m 0.68117,17.18 -24.538,-17.876 c -0.40368,1.6181 -1.1455,3.1647 -2.1576,4.6377 l 26.439,19.232 c 0.12383,-2.0149 0.20953,-4.0119 0.25631,-5.9937 z m -1.1308,15.917 -31.856,-23.177 c -1.4559,0.9633 -3.0608,1.8348 -4.7985,2.6261 l 35.912,26.14 c 0.26989,-1.8726 0.52634,-3.7336 0.7425,-5.5888 z m -2.2897,15.034 -44.448,-32.362 c -0.74697,0.1524 -1.4894,0.2781 -2.258,0.4016 -0.002,1.3309 -0.0575,2.6913 -0.10593,4.0665 l 45.751,33.305 c 0.37617,-1.8061 0.72614,-3.6135 1.0612,-5.4119 z m -3.0946,14.452 -44.405,-32.35 c -0.18545,1.9104 -0.38464,3.8216 -0.62182,5.7356 l 43.702,31.818 c 0.45179,-1.7369 0.90532,-3.467 1.3257,-5.2038 z m -50.33,-86.9 -33.94,-24.7 c -1.6343,0.8776 -3.1176,1.8613 -4.5299,2.904 l 30.247,22.013 c 1.8072,-0.1663 3.6542,-0.2766 5.5415,-0.2765 0.90261,-10e-5 1.7932,0.038 2.6788,0.077 z m 46.605,100.72 -42.675,-31.04 c -0.29946,1.8689 -0.60951,3.7207 -0.92897,5.516 l 42.076,30.628 c 0.51655,-1.7003 1.0356,-3.397 1.5277,-5.1039 z m -66.227,-98.271 -25.195,-18.326 c -1.104,1.2458 -2.1276,2.5275 -3.1147,3.8551 l 22.838,16.62 c 1.7004,-0.8153 3.5267,-1.5276 5.4714,-2.1486 z m 62.02,111.92 -41.182,-29.954 c -0.38231,1.8688 -0.74665,3.6802 -1.1081,5.3308 l 40.598,29.568 c 0.56165,-1.6444 1.1475,-3.2887 1.6913,-4.9457 z m -54.42,-73.009 -1.8589,-1.3444 c -12.908,-2.5251 -22.496,-9.2545 -23.908,-17.41 l -20.101,-14.628 c -0.52501,1.6841 -1.0183,3.3813 -1.4423,5.1268 l 47.509,34.6 c -0.11046,-2.1491 -0.1901,-4.2856 -0.1988,-6.3443 z m 49.762,86.379 -39.735,-28.948 c -0.53888,2.1877 -0.93682,3.7524 -0.93682,3.7524 0,0 -0.52087,-2.0686 -1.2718,-5.3279 l -57.273,-41.7 c 0.20681,2.2188 0.46657,4.4301 0.75068,6.6752 l 96.697,70.359 c 0.59546,-1.5878 1.1857,-3.2038 1.7694,-4.8104 z m -70.412,-118.08 -19.868,-14.474 c -0.80638,1.4799 -1.5506,2.993 -2.2473,4.5451 l 18.888,13.777 c 0.84308,-1.3562 1.9385,-2.6412 3.2271,-3.8479 z m 21.786,49.234 -50.172,-36.526 c -0.26424,1.8703 -0.50854,3.7764 -0.68008,5.6971 l 51.666,37.612 c -0.30887,-2.2448 -0.56182,-4.5093 -0.81319,-6.7835 z m 40.025,79.263 -88.045,-64.06 c 0.42444,2.3756 0.8879,4.7549 1.3807,7.1415 l 80.228,58.397 c 2.1851,-0.4349 4.3208,-0.9362 6.4356,-1.4783 z m -37.337,-60.608 -54.022,-39.319 c -0.0224,2.0499 -0.0118,4.1243 0.0509,6.2132 l 55.325,40.263 c -0.44246,-2.2588 -0.91244,-4.65 -1.3536,-7.1571 z m 18.843,63.888 -65.296,-47.533 c 0.64188,2.5614 1.3406,5.109 2.042,7.6617 l 55.531,40.433 c 2.6107,-0.1086 5.1772,-0.3051 7.7226,-0.5616 z m -22.379,0.3633 -36.982,-26.93 c 0.85452,2.7311 1.7443,5.4494 2.6448,8.1436 l 24.332,17.706 c 3.2713,0.4788 6.6142,0.8491 10.005,1.0796 z" />
          </g>
          <g
             id="g11543"
             transform="translate(4.2711,0)">
            <g
               id="g11545"
               inkscape:transform-center-x="-117.02221"
               inkscape:transform-center-y="81.371844"
               transform="matrix(-0.5,0.86603,-0.86603,-0.5,2869.9,2012.9)">
              <g
                 id="g11547"
                 inkscape:transform-center-x="130.35052"
                 inkscape:transform-center-y="90.74065"
                 transform="translate(-126.08,251.37)">
                <path
                   id="path11549"
                   sodipodi:nodetypes="acaa"
                   style="fill:#ffffff"
                   inkscape:connector-curvature="0"
                   d="m 1048.7,1365.1 c 74.59,69.717 -48.724,273.89 -48.724,273.89 0,0 -119.34,-204.68 -44.337,-273.89 20.46,-18.879 72.751,-18.984 93.062,0 z" />
                <path
                   id="path11551"
                   style="fill:url(#linearGradient6482)"
                   inkscape:connector-curvature="0"
                   d="m 1002.2,1370 c -15.269,0.011 -30.528,4.1258 -39.125,12.313 -34.457,32.813 -20.122,100.72 -0.0312,155.56 11.762,3.8035 24.911,5.9376 38.781,5.9376 13.222,0 25.756,-1.9308 37.094,-5.4063 21.109,-54.835 36.69,-122.96 2.3437,-156.09 -8.5344,-8.2327 -23.793,-12.324 -39.062,-12.313 z m -0.375,31.625 c 19.507,0 35.344,9.226 35.344,20.594 0,9.4711 -11.021,17.443 -25.969,19.844 -0.031,26.216 -9.625,62.187 -9.625,62.187 0,0 -9.2163,-36.003 -9.0937,-62.187 -14.955,-2.395 -25.969,-10.366 -25.969,-19.844 0,-11.368 15.805,-20.594 35.312,-20.594 z" />
                <path
                   id="path11553"
                   style="fill:#37abc8"
                   inkscape:connector-curvature="0"
                   d="m 967.18,1546.4 c 2.035,5.2742 4.0874,10.39 6.1488,15.312 9.2179,2.1545 19.111,3.3125 29.394,3.3125 9.5128,0 18.674,-0.9883 27.294,-2.8437 2.1523,-4.9151 4.2861,-10.041 6.4188,-15.313 -10.431,2.855 -21.797,4.4376 -33.713,4.4376 -12.61,0 -24.626,-1.7278 -35.543,-4.9063 z" />
                <path
                   id="path11555"
                   style="fill:url(#linearGradient6484)"
                   inkscape:connector-curvature="0"
                   d="m 977.07,1570 c 12.805,29.382 24.355,49.875 24.355,49.875 0,0 11.846,-20.275 25.105,-49.406 -7.5314,1.3834 -15.437,2.0937 -23.605,2.0937 -8.9878,0 -17.656,-0.8985 -25.855,-2.5625 z" />
                <path
                   id="path11557"
                   style="fill:#0f4774"
                   inkscape:connector-curvature="0"
                   d="m 1001.8,1408 c 10.55,0 19.109,6.2931 19.109,14.047 0,6.4603 -5.9477,11.898 -14.032,13.536 -0.017,17.882 -5.2071,42.419 -5.2071,42.419 0,0 -4.9977,-24.558 -4.9314,-42.419 -8.0882,-1.6336 -14.032,-7.071 -14.032,-13.536 0,-7.7541 8.5425,-14.047 19.093,-14.047 z" />
                <path
                   id="path11559"
                   d="m 1002.2,1370 c -15.269,0.011 -30.528,4.1258 -39.125,12.313 -34.457,32.813 -20.122,100.72 -0.0312,155.56 11.762,3.8035 24.911,5.9376 38.781,5.9376 13.222,0 25.756,-1.9308 37.094,-5.4063 21.109,-54.835 36.69,-122.96 2.3436,-156.09 -8.5344,-8.2327 -23.793,-12.324 -39.062,-12.313 z m -0.375,31.625 c 19.507,0 35.344,9.226 35.344,20.594 0,9.4711 -11.021,17.443 -25.969,19.844 -0.031,26.216 -9.625,62.187 -9.625,62.187 0,0 -9.2163,-36.003 -9.0938,-62.187 -14.955,-2.395 -25.969,-10.366 -25.969,-19.844 0,-11.368 15.805,-20.594 35.312,-20.594 z"
                   style="fill:none;stroke:url(#linearGradient6486);stroke-width:1.2227;filter:url(#filter8889)"
                   transform="translate(5.7542e-6,0)"
                   inkscape:connector-curvature="0" />
                <path
                   id="path11561"
                   style="fill:none;stroke:url(#linearGradient6488);stroke-width:1.2227"
                   inkscape:connector-curvature="0"
                   d="m 1001.8,1408 c 10.55,0 19.109,6.2931 19.109,14.047 0,6.4603 -5.9477,11.898 -14.032,13.536 -0.017,17.882 -5.2071,42.419 -5.2071,42.419 0,0 -4.9977,-24.558 -4.9314,-42.419 -8.0882,-1.6336 -14.032,-7.071 -14.032,-13.536 0,-7.7541 8.5425,-14.047 19.093,-14.047 z" />
                <path
                   id="path11563"
                   d="m 1002.2,1370 c -15.269,0.011 -30.528,4.1258 -39.125,12.313 -34.457,32.813 -20.122,100.72 -0.0312,155.56 11.762,3.8035 24.911,5.9376 38.781,5.9376 13.222,0 25.756,-1.9308 37.094,-5.4063 21.109,-54.835 36.69,-122.96 2.3437,-156.09 -8.5344,-8.2327 -23.793,-12.324 -39.062,-12.313 z m -0.375,31.625 c 19.507,0 35.344,9.226 35.344,20.594 0,9.4711 -11.021,17.443 -25.969,19.844 -0.031,26.216 -9.625,62.187 -9.625,62.187 0,0 -9.2163,-36.003 -9.0937,-62.187 -14.955,-2.395 -25.969,-10.366 -25.969,-19.844 0,-11.368 15.805,-20.594 35.312,-20.594 z"
                   style="fill:url(#linearGradient6490)"
                   inkscape:connector-curvature="0" />
              </g>
              <path
                 id="path11565"
                 style="fill:url(#linearGradient6492)"
                 inkscape:connector-curvature="0"
                 d="m 876.09,1621.4 c -15.269,0.011 -30.528,4.1258 -39.125,12.313 -34.457,32.813 -20.122,100.72 -0.0312,155.56 11.762,3.8035 24.911,5.9375 38.781,5.9376 13.222,0 25.755,-1.9308 37.094,-5.4063 21.109,-54.835 36.69,-122.96 2.3437,-156.09 -8.5344,-8.2326 -23.793,-12.324 -39.062,-12.312 z m -0.37495,31.625 c 19.507,0 35.344,9.226 35.344,20.594 4e-5,9.4711 -11.021,17.443 -25.969,19.844 -0.0311,26.216 -9.625,62.188 -9.625,62.188 0,0 -9.2163,-36.003 -9.0937,-62.188 -14.955,-2.3949 -25.969,-10.366 -25.969,-19.844 0,-11.368 15.805,-20.594 35.312,-20.594 z" />
              <path
                 id="path11567"
                 style="opacity:0.34615;fill:url(#linearGradient6494)"
                 inkscape:connector-curvature="0"
                 d="m 920.87,1640.1 c -1.7225,-2.25 -3.625,-4.3734 -5.703,-6.378 -3.7965,-3.6621 -8.9393,-6.493 -14.806,-8.5196 l 20.509,14.898 z m 9.24,17.254 -49.177,-35.802 c -1.6105,-0.091 -3.2191,-0.1308 -4.838,-0.1296 -1.2505,9e-4 -2.5012,0.015 -3.7478,0.071 l 60.112,43.742 c -0.65917,-2.6981 -1.4372,-5.3356 -2.3491,-7.8814 z m 4.4456,19.95 -74.563,-54.271 c -2.1581,0.4419 -4.275,0.957 -6.3033,1.5824 l 49.309,35.906 32.105,23.358 c -0.12094,-2.2275 -0.30618,-4.4111 -0.54859,-6.5754 z m 0.68117,17.18 -24.538,-17.876 c -0.40368,1.6181 -1.1455,3.1647 -2.1576,4.6377 l 26.439,19.232 c 0.12383,-2.0149 0.20953,-4.0119 0.25631,-5.9937 z m -1.1308,15.917 -31.856,-23.177 c -1.4559,0.9633 -3.0608,1.8348 -4.7985,2.6261 l 35.912,26.14 c 0.26989,-1.8726 0.52634,-3.7336 0.7425,-5.5888 z m -2.2897,15.034 -44.448,-32.362 c -0.74697,0.1524 -1.4894,0.2781 -2.258,0.4016 -0.002,1.3309 -0.0575,2.6913 -0.10593,4.0665 l 45.751,33.305 c 0.37617,-1.8061 0.72614,-3.6135 1.0612,-5.4119 z m -3.0946,14.452 -44.405,-32.35 c -0.18545,1.9104 -0.38464,3.8216 -0.62182,5.7356 l 43.702,31.818 c 0.45179,-1.7369 0.90532,-3.467 1.3257,-5.2038 z m -50.33,-86.9 -33.94,-24.7 c -1.6343,0.8776 -3.1176,1.8613 -4.5299,2.904 l 30.247,22.013 c 1.8072,-0.1663 3.6542,-0.2766 5.5415,-0.2765 0.90261,-10e-5 1.7932,0.038 2.6788,0.077 z m 46.605,100.72 -42.675,-31.04 c -0.29946,1.8689 -0.60951,3.7207 -0.92897,5.516 l 42.076,30.628 c 0.51655,-1.7003 1.0356,-3.397 1.5277,-5.1039 z m -66.227,-98.271 -25.195,-18.326 c -1.104,1.2458 -2.1276,2.5275 -3.1147,3.8551 l 22.838,16.62 c 1.7004,-0.8153 3.5267,-1.5276 5.4714,-2.1486 z m 62.02,111.92 -41.182,-29.954 c -0.38231,1.8688 -0.74665,3.6802 -1.1081,5.3308 l 40.598,29.568 c 0.56165,-1.6444 1.1475,-3.2887 1.6913,-4.9457 z m -54.42,-73.009 -1.8589,-1.3444 c -12.908,-2.5251 -22.496,-9.2545 -23.908,-17.41 l -20.101,-14.628 c -0.52501,1.6841 -1.0183,3.3813 -1.4423,5.1268 l 47.509,34.6 c -0.11046,-2.1491 -0.1901,-4.2856 -0.1988,-6.3443 z m 49.762,86.379 -39.735,-28.948 c -0.53888,2.1877 -0.93682,3.7524 -0.93682,3.7524 0,0 -0.52087,-2.0686 -1.2718,-5.3279 l -57.273,-41.7 c 0.20681,2.2188 0.46657,4.4301 0.75068,6.6752 l 96.697,70.359 c 0.59546,-1.5878 1.1857,-3.2038 1.7694,-4.8104 z m -70.412,-118.08 -19.868,-14.474 c -0.80638,1.4799 -1.5506,2.993 -2.2473,4.5451 l 18.888,13.777 c 0.84308,-1.3562 1.9385,-2.6412 3.2271,-3.8479 z m 21.786,49.234 -50.172,-36.526 c -0.26424,1.8703 -0.50854,3.7764 -0.68008,5.6971 l 51.666,37.612 c -0.30887,-2.2448 -0.56182,-4.5093 -0.81319,-6.7835 z m 40.025,79.263 -88.045,-64.06 c 0.42444,2.3756 0.8879,4.7549 1.3807,7.1415 l 80.228,58.397 c 2.1851,-0.4349 4.3208,-0.9362 6.4356,-1.4783 z m -37.337,-60.608 -54.022,-39.319 c -0.0224,2.0499 -0.0118,4.1243 0.0509,6.2132 l 55.325,40.263 c -0.44246,-2.2588 -0.91244,-4.65 -1.3536,-7.1571 z m 18.843,63.888 -65.296,-47.533 c 0.64188,2.5614 1.3406,5.109 2.042,7.6617 l 55.531,40.433 c 2.6107,-0.1086 5.1772,-0.3051 7.7226,-0.5616 z m -22.379,0.3633 -36.982,-26.93 c 0.85452,2.7311 1.7443,5.4494 2.6448,8.1436 l 24.332,17.706 c 3.2713,0.4788 6.6142,0.8491 10.005,1.0796 z" />
            </g>
            <g
               id="g11569"
               inkscape:transform-center-x="116.3391"
               inkscape:transform-center-y="82.651181"
               transform="matrix(-0.5,-0.86603,0.86603,-0.5,-409.29,3526.6)">
              <g
                 id="g11571"
                 inkscape:transform-center-x="130.35052"
                 inkscape:transform-center-y="90.74065"
                 transform="translate(-126.08,251.37)">
                <path
                   id="path11573"
                   d="m 1048.7,1365.1 c 74.59,69.717 -48.724,273.89 -48.724,273.89 0,0 -119.34,-204.68 -44.337,-273.89 20.46,-18.879 72.751,-18.984 93.062,0 z"
                   sodipodi:nodetypes="acaa"
                   style="fill:#ffffff"
                   inkscape:connector-curvature="0" />
                <path
                   id="path11575"
                   d="m 1002.2,1370 c -15.269,0.011 -30.528,4.1258 -39.125,12.313 -34.457,32.813 -20.122,100.72 -0.0312,155.56 11.762,3.8035 24.911,5.9376 38.781,5.9376 13.222,0 25.756,-1.9308 37.094,-5.4063 21.109,-54.835 36.69,-122.96 2.3437,-156.09 -8.5344,-8.2327 -23.793,-12.324 -39.062,-12.313 z m -0.375,31.625 c 19.507,0 35.344,9.226 35.344,20.594 0,9.4711 -11.021,17.443 -25.969,19.844 -0.031,26.216 -9.625,62.187 -9.625,62.187 0,0 -9.2163,-36.003 -9.0937,-62.187 -14.955,-2.395 -25.969,-10.366 -25.969,-19.844 0,-11.368 15.805,-20.594 35.312,-20.594 z"
                   style="fill:url(#linearGradient6496)"
                   inkscape:connector-curvature="0" />
                <path
                   id="path11577"
                   d="m 967.18,1546.4 c 2.035,5.2742 4.0874,10.39 6.1488,15.312 9.2179,2.1545 19.111,3.3125 29.394,3.3125 9.5128,0 18.674,-0.9883 27.294,-2.8437 2.1523,-4.9151 4.2861,-10.041 6.4188,-15.313 -10.431,2.855 -21.797,4.4376 -33.713,4.4376 -12.61,0 -24.626,-1.7278 -35.543,-4.9063 z"
                   style="fill:#37abc8"
                   inkscape:connector-curvature="0" />
                <path
                   id="path11579"
                   d="m 977.07,1570 c 12.805,29.382 24.355,49.875 24.355,49.875 0,0 11.846,-20.275 25.105,-49.406 -7.5314,1.3834 -15.437,2.0937 -23.605,2.0937 -8.9878,0 -17.656,-0.8985 -25.855,-2.5625 z"
                   style="fill:url(#linearGradient25085)"
                   inkscape:connector-curvature="0" />
                <path
                   id="path11581"
                   style="fill:#0f4774"
                   inkscape:connector-curvature="0"
                   d="m 1001.8,1408 c 10.55,0 19.109,6.2931 19.109,14.047 0,6.4603 -5.9477,11.898 -14.032,13.536 -0.017,17.882 -5.2071,42.419 -5.2071,42.419 0,0 -4.9977,-24.558 -4.9314,-42.419 -8.0882,-1.6336 -14.032,-7.071 -14.032,-13.536 0,-7.7541 8.5425,-14.047 19.093,-14.047 z" />
                <path
                   id="path11583"
                   style="fill:none;stroke:url(#linearGradient25087);stroke-width:1.2227;filter:url(#filter8889)"
                   inkscape:connector-curvature="0"
                   transform="translate(5.7542e-6,0)"
                   d="m 1002.2,1370 c -15.269,0.011 -30.528,4.1258 -39.125,12.313 -34.457,32.813 -20.122,100.72 -0.0312,155.56 11.762,3.8035 24.911,5.9376 38.781,5.9376 13.222,0 25.756,-1.9308 37.094,-5.4063 21.109,-54.835 36.69,-122.96 2.3436,-156.09 -8.5344,-8.2327 -23.793,-12.324 -39.062,-12.313 z m -0.375,31.625 c 19.507,0 35.344,9.226 35.344,20.594 0,9.4711 -11.021,17.443 -25.969,19.844 -0.031,26.216 -9.625,62.187 -9.625,62.187 0,0 -9.2163,-36.003 -9.0938,-62.187 -14.955,-2.395 -25.969,-10.366 -25.969,-19.844 0,-11.368 15.805,-20.594 35.312,-20.594 z" />
                <path
                   id="path11585"
                   style="fill:none;stroke:url(#linearGradient25089);stroke-width:1.2227"
                   inkscape:connector-curvature="0"
                   d="m 1001.8,1408 c 10.55,0 19.109,6.2931 19.109,14.047 0,6.4603 -5.9477,11.898 -14.032,13.536 -0.017,17.882 -5.2071,42.419 -5.2071,42.419 0,0 -4.9977,-24.558 -4.9314,-42.419 -8.0882,-1.6336 -14.032,-7.071 -14.032,-13.536 0,-7.7541 8.5425,-14.047 19.093,-14.047 z" />
                <path
                   id="path11587"
                   style="fill:url(#linearGradient25083)"
                   inkscape:connector-curvature="0"
                   d="m 1002.2,1370 c -15.269,0.011 -30.528,4.1258 -39.125,12.313 -34.457,32.813 -20.122,100.72 -0.0312,155.56 11.762,3.8035 24.911,5.9376 38.781,5.9376 13.222,0 25.756,-1.9308 37.094,-5.4063 21.109,-54.835 36.69,-122.96 2.3437,-156.09 -8.5344,-8.2327 -23.793,-12.324 -39.062,-12.313 z m -0.375,31.625 c 19.507,0 35.344,9.226 35.344,20.594 0,9.4711 -11.021,17.443 -25.969,19.844 -0.031,26.216 -9.625,62.187 -9.625,62.187 0,0 -9.2163,-36.003 -9.0937,-62.187 -14.955,-2.395 -25.969,-10.366 -25.969,-19.844 0,-11.368 15.805,-20.594 35.312,-20.594 z" />
              </g>
              <path
                 id="path11589"
                 d="m 876.09,1621.4 c -15.269,0.011 -30.528,4.1258 -39.125,12.313 -34.457,32.813 -20.122,100.72 -0.0312,155.56 11.762,3.8035 24.911,5.9375 38.781,5.9376 13.222,0 25.755,-1.9308 37.094,-5.4063 21.109,-54.835 36.69,-122.96 2.3437,-156.09 -8.5344,-8.2326 -23.793,-12.324 -39.062,-12.312 z m -0.37495,31.625 c 19.507,0 35.344,9.226 35.344,20.594 4e-5,9.4711 -11.021,17.443 -25.969,19.844 -0.0311,26.216 -9.625,62.188 -9.625,62.188 0,0 -9.2163,-36.003 -9.0937,-62.188 -14.955,-2.3949 -25.969,-10.366 -25.969,-19.844 0,-11.368 15.805,-20.594 35.312,-20.594 z"
                 style="fill:url(#linearGradient25093)"
                 inkscape:connector-curvature="0" />
              <path
                 id="path11591"
                 style="opacity:0.34615;fill:url(#linearGradient25095)"
                 inkscape:connector-curvature="0"
                 d="m 920.87,1640.1 c -1.7225,-2.25 -3.625,-4.3734 -5.703,-6.378 -3.7965,-3.6621 -8.9393,-6.493 -14.806,-8.5196 l 20.509,14.898 z m 9.24,17.254 -49.177,-35.802 c -1.6105,-0.091 -3.2191,-0.1308 -4.838,-0.1296 -1.2505,9e-4 -2.5012,0.015 -3.7478,0.071 l 60.112,43.742 c -0.65917,-2.6981 -1.4372,-5.3356 -2.3491,-7.8814 z m 4.4456,19.95 -74.563,-54.271 c -2.1581,0.4419 -4.275,0.957 -6.3033,1.5824 l 49.309,35.906 32.105,23.358 c -0.12094,-2.2275 -0.30618,-4.4111 -0.54859,-6.5754 z m 0.68117,17.18 -24.538,-17.876 c -0.40368,1.6181 -1.1455,3.1647 -2.1576,4.6377 l 26.439,19.232 c 0.12383,-2.0149 0.20953,-4.0119 0.25631,-5.9937 z m -1.1308,15.917 -31.856,-23.177 c -1.4559,0.9633 -3.0608,1.8348 -4.7985,2.6261 l 35.912,26.14 c 0.26989,-1.8726 0.52634,-3.7336 0.7425,-5.5888 z m -2.2897,15.034 -44.448,-32.362 c -0.74697,0.1524 -1.4894,0.2781 -2.258,0.4016 -0.002,1.3309 -0.0575,2.6913 -0.10593,4.0665 l 45.751,33.305 c 0.37617,-1.8061 0.72614,-3.6135 1.0612,-5.4119 z m -3.0946,14.452 -44.405,-32.35 c -0.18545,1.9104 -0.38464,3.8216 -0.62182,5.7356 l 43.702,31.818 c 0.45179,-1.7369 0.90532,-3.467 1.3257,-5.2038 z m -50.33,-86.9 -33.94,-24.7 c -1.6343,0.8776 -3.1176,1.8613 -4.5299,2.904 l 30.247,22.013 c 1.8072,-0.1663 3.6542,-0.2766 5.5415,-0.2765 0.90261,-10e-5 1.7932,0.038 2.6788,0.077 z m 46.605,100.72 -42.675,-31.04 c -0.29946,1.8689 -0.60951,3.7207 -0.92897,5.516 l 42.076,30.628 c 0.51655,-1.7003 1.0356,-3.397 1.5277,-5.1039 z m -66.227,-98.271 -25.195,-18.326 c -1.104,1.2458 -2.1276,2.5275 -3.1147,3.8551 l 22.838,16.62 c 1.7004,-0.8153 3.5267,-1.5276 5.4714,-2.1486 z m 62.02,111.92 -41.182,-29.954 c -0.38231,1.8688 -0.74665,3.6802 -1.1081,5.3308 l 40.598,29.568 c 0.56165,-1.6444 1.1475,-3.2887 1.6913,-4.9457 z m -54.42,-73.009 -1.8589,-1.3444 c -12.908,-2.5251 -22.496,-9.2545 -23.908,-17.41 l -20.101,-14.628 c -0.52501,1.6841 -1.0183,3.3813 -1.4423,5.1268 l 47.509,34.6 c -0.11046,-2.1491 -0.1901,-4.2856 -0.1988,-6.3443 z m 49.762,86.379 -39.735,-28.948 c -0.53888,2.1877 -0.93682,3.7524 -0.93682,3.7524 0,0 -0.52087,-2.0686 -1.2718,-5.3279 l -57.273,-41.7 c 0.20681,2.2188 0.46657,4.4301 0.75068,6.6752 l 96.697,70.359 c 0.59546,-1.5878 1.1857,-3.2038 1.7694,-4.8104 z m -70.412,-118.08 -19.868,-14.474 c -0.80638,1.4799 -1.5506,2.993 -2.2473,4.5451 l 18.888,13.777 c 0.84308,-1.3562 1.9385,-2.6412 3.2271,-3.8479 z m 21.786,49.234 -50.172,-36.526 c -0.26424,1.8703 -0.50854,3.7764 -0.68008,5.6971 l 51.666,37.612 c -0.30887,-2.2448 -0.56182,-4.5093 -0.81319,-6.7835 z m 40.025,79.263 -88.045,-64.06 c 0.42444,2.3756 0.8879,4.7549 1.3807,7.1415 l 80.228,58.397 c 2.1851,-0.4349 4.3208,-0.9362 6.4356,-1.4783 z m -37.337,-60.608 -54.022,-39.319 c -0.0224,2.0499 -0.0118,4.1243 0.0509,6.2132 l 55.325,40.263 c -0.44246,-2.2588 -0.91244,-4.65 -1.3536,-7.1571 z m 18.843,63.888 -65.296,-47.533 c 0.64188,2.5614 1.3406,5.109 2.042,7.6617 l 55.531,40.433 c 2.6107,-0.1086 5.1772,-0.3051 7.7226,-0.5616 z m -22.379,0.3633 -36.982,-26.93 c 0.85452,2.7311 1.7443,5.4494 2.6448,8.1436 l 24.332,17.706 c 3.2713,0.4788 6.6142,0.8491 10.005,1.0796 z" />
            </g>
          </g>
        </g>
      </g>
      <g
         id="g11846"
         transform="translate(-39.738,-13.84)">
        <path
           id="path11848"
           d="m 1305.3,1794.1 c 0,0 -20.783,-1.1514 -29.495,-6.1469 -8.87,-5.0849 -20.569,-22.753 -20.569,-22.753 0,0 -11.564,17.521 -20.338,22.587 -8.7741,5.0657 -29.73,6.3199 -29.73,6.3199 0,0 9.4508,18.966 9.4204,29.19 -0.03,10.043 -9.4243,28.617 -9.4243,28.617 0,0 20.783,1.1513 29.495,6.1468 8.8701,5.0849 20.569,22.753 20.569,22.753 0,0 11.547,-17.545 20.324,-22.612 8.7767,-5.0673 29.745,-6.2947 29.745,-6.2947 0,0 -9.4508,-18.966 -9.4202,-29.19 0.03,-10.043 9.4242,-28.617 9.4242,-28.617 z"
           sodipodi:nodetypes="cacacacacacac"
           style="fill:#ffffff;stroke:url(#linearGradient25079);stroke-width:1.2227"
           inkscape:connector-curvature="0" />
        <path
           id="path11850"
           sodipodi:nodetypes="cacacacacacac"
           style="fill:url(#radialGradient25169)"
           inkscape:connector-curvature="0"
           d="m 1291.6,1802 c 0,0 -15.092,-0.836 -21.419,-4.4638 -6.4418,-3.692 -14.937,-16.524 -14.937,-16.524 0,0 -8.3979,12.724 -14.77,16.403 -6.3717,3.6787 -21.59,4.5895 -21.59,4.5895 0,0 6.8632,13.773 6.8411,21.198 -0.022,7.2932 -6.8439,20.782 -6.8439,20.782 0,0 15.092,0.8361 21.419,4.4639 6.4418,3.692 14.937,16.523 14.937,16.523 0,0 8.3854,-12.741 14.759,-16.421 6.3736,-3.6798 21.6,-4.5712 21.6,-4.5712 0,0 -6.8632,-13.773 -6.8411,-21.198 0.022,-7.2932 6.8439,-20.782 6.8439,-20.782 z" />
        <path
           id="path11852"
           style="opacity:0.57212004;fill:url(#linearGradient25171)"
           d="m 1255.3,2128.7 c 0,0 -8.4094,12.727 -14.781,16.406 -6.3717,3.6786 -21.594,4.5937 -21.594,4.5937 0,0 3.3626,6.7063 5.375,13.281 7.9507,4.4991 17.306,7.3247 27.375,7.875 0.4752,14.065 3.5938,20.12 3.5938,20.12 0,0 3.1499,-6.0548 3.625,-20.12 10.049,-0.5452 19.368,-3.364 27.312,-7.8438 2.0038,-6.5444 5.4375,-13.312 5.4375,-13.312 0,0 -15.079,-0.8409 -21.406,-4.4687 -6.4419,-3.6921 -14.938,-16.531 -14.938,-16.531 z"
           sodipodi:nodetypes="ccccccccccc"
           transform="translate(0,-347.64)"
           inkscape:connector-curvature="0" />
      </g>
    </g>
  </g>
  <metadata
     id="metadata1933">
    <rdf:RDF>
      <cc:Work>
        <dc:format>image/svg+xml</dc:format>
        <dc:type
           rdf:resource="http://purl.org/dc/dcmitype/StillImage" />
        <cc:license
           rdf:resource="http://creativecommons.org/publicdomain/zero/1.0/" />
        <dc:publisher>
          <cc:Agent
             rdf:about="http://openclipart.org/">
            <dc:title>Openclipart</dc:title>
          </cc:Agent>
        </dc:publisher>
        <dc:title>50 Abstract Shapes With Patterns</dc:title>
        <dc:date>2012-02-02T05:22:12</dc:date>
        <dc:description />
        <dc:source>https://openclipart.org/detail/167612/50-abstract-shapes-with-patterns-by-viscious-speed</dc:source>
        <dc:creator>
          <cc:Agent>
            <dc:title>Viscious-Speed</dc:title>
          </cc:Agent>
        </dc:creator>
        <dc:subject>
          <rdf:Bag>
            <rdf:li>Abstract</rdf:li>
            <rdf:li>Colorful</rdf:li>
            <rdf:li>Patters</rdf:li>
            <rdf:li>Shapes</rdf:li>
          </rdf:Bag>
        </dc:subject>
      </cc:Work>
      <cc:License
         rdf:about="http://creativecommons.org/publicdomain/zero/1.0/">
        <cc:permits
           rdf:resource="http://creativecommons.org/ns#Reproduction" />
        <cc:permits
           rdf:resource="http://creativecommons.org/ns#Distribution" />
        <cc:permits
           rdf:resource="http://creativecommons.org/ns#DerivativeWorks" />
      </cc:License>
    </rdf:RDF>
  </metadata>
</svg>
