<?xml version="1.0" encoding="UTF-8" standalone="no"?>
<svg
   xmlns:dc="http://purl.org/dc/elements/1.1/"
   xmlns:cc="http://creativecommons.org/ns#"
   xmlns:rdf="http://www.w3.org/1999/02/22-rdf-syntax-ns#"
   xmlns:svg="http://www.w3.org/2000/svg"
   xmlns="http://www.w3.org/2000/svg"
   xmlns:sodipodi="http://sodipodi.sourceforge.net/DTD/sodipodi-0.dtd"
   xmlns:inkscape="http://www.inkscape.org/namespaces/inkscape"
   version="1.1"
   x="0px"
   y="0px"
   viewBox="0 0 150 150"
   enable-background="new 0 0 100 100"
   xml:space="preserve"
   id="svg2"
   inkscape:version="0.91 r13725"
   sodipodi:docname="trophy_200_variants.svg"
   width="150"
   height="150"
   inkscape:export-filename="C:\Users\Ryan\VariantTapVectorGraphics\icons\trophy_200_variants.png"
   inkscape:export-xdpi="307.20001"
   inkscape:export-ydpi="307.20001"><metadata
     id="metadata126"><rdf:RDF><cc:Work
         rdf:about=""><dc:format>image/svg+xml</dc:format><dc:type
           rdf:resource="http://purl.org/dc/dcmitype/StillImage" /><dc:title></dc:title></cc:Work></rdf:RDF></metadata><defs
     id="defs124" /><sodipodi:namedview
     pagecolor="#ffffff"
     bordercolor="#666666"
     borderopacity="1"
     objecttolerance="10"
     gridtolerance="10"
     guidetolerance="10"
     inkscape:pageopacity="1"
     inkscape:pageshadow="2"
     inkscape:window-width="1280"
     inkscape:window-height="660"
     id="namedview122"
     showgrid="false"
     inkscape:zoom="1.888"
     inkscape:cx="-3.5109955"
     inkscape:cy="58.940372"
     inkscape:window-x="1272"
     inkscape:window-y="-8"
     inkscape:window-maximized="1"
     inkscape:current-layer="svg2"
     fit-margin-top="0"
     fit-margin-left="0"
     fit-margin-right="0"
     fit-margin-bottom="0" /><path
     style="color:#000000;clip-rule:nonzero;display:inline;overflow:visible;visibility:visible;opacity:1;isolation:auto;mix-blend-mode:normal;color-interpolation:sRGB;color-interpolation-filters:linearRGB;solid-color:#000000;solid-opacity:1;fill:#ffff00;fill-opacity:1;fill-rule:evenodd;stroke:#000000;stroke-width:1;stroke-linecap:butt;stroke-linejoin:miter;stroke-miterlimit:4;stroke-dasharray:none;stroke-dashoffset:0;stroke-opacity:1;color-rendering:auto;image-rendering:auto;shape-rendering:auto;text-rendering:auto;enable-background:accumulate"
     d="M 4.9048864,60.682429 C 47.261831,56.404149 48.142589,33.48677 47.486926,15.872963 70.982168,33.107639 89.932891,27.614841 105.15011,3.4505357 109.02646,24.537058 108.23158,49.329129 145.07077,44.267079 104.7098,63.375193 105.13424,84.022708 127.32826,105.49189 103.25244,95.301401 70.748528,120.05225 68.777944,135.66063 77.961643,91.680531 24.031335,111.71178 27.174768,105.02791 34.231319,90.023561 36.669234,67.680576 4.9048864,60.682429 Z"
     id="path4167"
     inkscape:connector-curvature="0"
     sodipodi:nodetypes="ccccccsc" /><path
     sodipodi:nodetypes="ccccccsc"
     inkscape:connector-curvature="0"
     id="path4165"
     d="M 21.291887,62.58765 C 53.753459,59.309085 54.428456,41.746864 53.925968,28.248917 71.932283,41.456325 86.455764,37.247043 98.117965,18.729267 101.08872,34.888452 100.47954,53.887302 128.71241,50.008113 97.780514,64.651189 98.105792,80.473951 115.11487,96.926381 96.663614,89.117127 71.753225,108.08439 70.243008,120.04553 77.281222,86.342356 35.950041,101.69285 38.359108,96.570811 43.767118,85.07257 45.635491,67.950523 21.291887,62.58765 Z"
     style="color:#000000;clip-rule:nonzero;display:inline;overflow:visible;visibility:visible;opacity:1;isolation:auto;mix-blend-mode:normal;color-interpolation:sRGB;color-interpolation-filters:linearRGB;solid-color:#000000;solid-opacity:1;fill:#ffb806;fill-opacity:1;fill-rule:evenodd;stroke:#000000;stroke-width:1;stroke-linecap:butt;stroke-linejoin:miter;stroke-miterlimit:4;stroke-dasharray:none;stroke-dashoffset:0;stroke-opacity:1;color-rendering:auto;image-rendering:auto;shape-rendering:auto;text-rendering:auto;enable-background:accumulate" /><path
     style="color:#000000;clip-rule:nonzero;display:inline;overflow:visible;visibility:visible;opacity:1;isolation:auto;mix-blend-mode:normal;color-interpolation:sRGB;color-interpolation-filters:linearRGB;solid-color:#000000;solid-opacity:1;fill:#ff0000;fill-opacity:1;fill-rule:evenodd;stroke:#000000;stroke-width:1;stroke-linecap:butt;stroke-linejoin:miter;stroke-miterlimit:4;stroke-dasharray:none;stroke-dashoffset:0;stroke-opacity:1;color-rendering:auto;image-rendering:auto;shape-rendering:auto;text-rendering:auto;enable-background:accumulate"
     d="M 35.441588,64.166277 C 59.362174,61.750573 59.859573,48.810424 59.489294,38.864902 72.757956,48.59635 83.460153,45.494877 92.053904,31.850658 94.243021,43.757027 93.794118,57.75571 114.59862,54.897456 91.805242,65.686729 92.044937,77.345215 104.57875,89.467653 90.982203,83.713657 72.62601,97.689071 71.513147,106.50224 76.699532,81.669157 46.243026,92.979671 48.018241,89.205664 52.003346,80.733557 53.38013,68.117735 35.441588,64.166277 Z"
     id="path4163"
     inkscape:connector-curvature="0"
     sodipodi:nodetypes="ccccccsc" /><g
     transform="matrix(0.40078263,0,0,0.40197589,-0.61404695,-20.907674)"
     id="layer1"><g
       transform="matrix(-1.1095018,0,0,1.1093525,393.36744,-52.96518)"
       id="g4037"
       style="stroke:#000000;stroke-width:2.47024179;stroke-miterlimit:4;stroke-dasharray:none"><path
         d="m 662.21,840.16 c 0,0 -30.474,-68.576 -33.193,-81.627 -4.5273,-21.73 13.594,-63.074 6.5214,-142.02 -2.8277,-31.565 -15.234,-96.308 -39.176,-113.72 -23.942,-17.412 -44.6,-20.125 -53.306,-31.008 -8.7062,-10.883 -9.4792,-18.83 -25.58,-28.842 -16.1008,-10.012 -21.751,-3.2514 -41.342,-5.9768 -17.38,-2.4178 -23.418,-28.852 -45.183,-35.382 -21.765,-6.5296 -57.126,4.8916 -57.126,4.8916 -18,-29.565 -38.13,-61.073 -52.579,-90.367 -39.268,-34.04 -60.356,-45.381 -82.878,-66.862 -39.749,-20.688 -66.001,-37.889 -76.771,-32.126 -14.295,7.6492 -6.1619,34.968 10.895,50.601 19.593,17.957 23,25.344 44.618,54.411 15.776,21.213 39.718,33.739 39.718,33.739 0,0 14.159,50.042 24.489,85.43 6.9538,23.822 2.1766,13.059 8.7062,58.767 3.2648,22.854 5.1721,30.466 2.9953,39.991 -2.1768,9.5244 -8.4377,20.961 -8.4377,20.961 0,0 -7.7934,-13.312 -14.693,-28.848 -3.2576,-21.774 -12.523,-44.639 -22.857,-56.05 -21.572,-23.82 -35.918,-26.104 -55.503,-17.4 -24.033,10.681 -23.94,16.346 -15.226,52.258 8.7144,35.912 -0.0485,34.268 15.782,70.73 17.243,39.714 20.038,35.225 26.116,55.484 6.078,20.259 13.936,52.026 32.106,69.647 18.361,17.807 49.059,36.361 63.116,44.616 28.823,16.927 66.739,28.314 99.058,38.65 30.935,59.235 64.178,133.84 64.178,133.84"
         id="path3194"
         inkscape:connector-curvature="0"
         style="fill:#ffe7c0;stroke-width:2.47024179;stroke-miterlimit:4;stroke-dasharray:none" /><path
         d="m 177.26,507.13 c 9.7799,1.8337 7.3349,-8.5574 17.726,-15.281 10.391,-6.7237 22.616,-4.2787 24.45,-9.1687 1.8337,-4.89 -7.3349,-29.34 -7.3349,-29.34"
         id="path3964"
         inkscape:connector-curvature="0"
         style="fill:none;stroke-width:2.47024179;stroke-miterlimit:4;stroke-dasharray:none" /><path
         d="m 232.27,527.91 c -28.117,9.7799 -33.007,20.782 -37.286,31.785"
         id="path3968"
         inkscape:connector-curvature="0"
         style="fill:none;stroke-width:2.47024179;stroke-miterlimit:4;stroke-dasharray:none" /><path
         d="m 235.26,533.53 c -28.117,9.7799 -33.007,20.782 -37.286,31.785"
         id="path3968-1"
         inkscape:connector-curvature="0"
         style="fill:none;stroke-width:2.47024179;stroke-miterlimit:4;stroke-dasharray:none" /><path
         d="m 225.55,243.07 c -22.005,3.6675 -21.394,7.9462 -25.061,11.614"
         id="path3990"
         inkscape:connector-curvature="0"
         style="fill:none;stroke-width:2.47024179;stroke-miterlimit:4;stroke-dasharray:none" /><path
         d="m 231.97,246.44 c -22.005,3.6675 -21.394,7.9462 -25.061,11.614"
         id="path3990-1"
         inkscape:connector-curvature="0"
         style="fill:none;stroke-width:2.47024179;stroke-miterlimit:4;stroke-dasharray:none" /><path
         d="m 309.47,305.77 c -17.606,0.82377 -28.635,9.1434 -34.278,11.833"
         id="path3990-9"
         inkscape:connector-curvature="0"
         style="fill:none;stroke-width:2.47024179;stroke-miterlimit:4;stroke-dasharray:none" /><path
         d="m 314.49,310.01 c -19.042,2.3812 -32.001,7.1374 -32.962,10.955"
         id="path3990-9-7"
         inkscape:connector-curvature="0"
         style="fill:none;stroke-width:2.47024179;stroke-miterlimit:4;stroke-dasharray:none" /><path
         d="m 190.99,224.17 c -9.1063,0.23964 -13.191,7.3226 -19.65,6.7099 -5.0523,-0.47928 -11.742,-1.9171 -16.775,-6.7099"
         id="path4035"
         inkscape:connector-curvature="0"
         style="fill:none;stroke-width:2.47024179;stroke-miterlimit:4;stroke-dasharray:none" /></g></g></svg>