<?xml version="1.0" encoding="UTF-8" standalone="no"?>
<svg
   xmlns:dc="http://purl.org/dc/elements/1.1/"
   xmlns:cc="http://creativecommons.org/ns#"
   xmlns:rdf="http://www.w3.org/1999/02/22-rdf-syntax-ns#"
   xmlns:svg="http://www.w3.org/2000/svg"
   xmlns="http://www.w3.org/2000/svg"
   xmlns:sodipodi="http://sodipodi.sourceforge.net/DTD/sodipodi-0.dtd"
   xmlns:inkscape="http://www.inkscape.org/namespaces/inkscape"
   version="1.1"
   x="0px"
   y="0px"
   viewBox="0 0 46.200001 46.200001"
   xml:space="preserve"
   id="svg3336"
   inkscape:version="0.91 r13725"
   sodipodi:docname="information.svg"
   width="46.200001"
   height="46.200001"
   inkscape:export-xdpi="997.40259"
   inkscape:export-ydpi="997.40259"><metadata
     id="metadata3350"><rdf:RDF><cc:Work
         rdf:about=""><dc:format>image/svg+xml</dc:format><dc:type
           rdf:resource="http://purl.org/dc/dcmitype/StillImage" /><dc:title /></cc:Work></rdf:RDF></metadata><defs
     id="defs3348" /><sodipodi:namedview
     pagecolor="#ffffff"
     bordercolor="#666666"
     borderopacity="1"
     objecttolerance="10"
     gridtolerance="10"
     guidetolerance="10"
     inkscape:pageopacity="0"
     inkscape:pageshadow="2"
     inkscape:window-width="1280"
     inkscape:window-height="660"
     id="namedview3346"
     showgrid="false"
     fit-margin-top="0"
     fit-margin-left="0"
     fit-margin-right="0"
     fit-margin-bottom="0"
     inkscape:zoom="3.688"
     inkscape:cx="5.2"
     inkscape:cy="9.5189086"
     inkscape:window-x="1272"
     inkscape:window-y="-8"
     inkscape:window-maximized="1"
     inkscape:current-layer="svg3336" /><g
     id="g3338"
     transform="translate(-26.7,-26.3)"
     style="fill:#ffffff;fill-opacity:1"><path
       d="m 54.8,30.8 c 0,1.3 -0.5,2.4 -1.5,3.4 -1,0.9 -2.1,1.4 -3.5,1.4 -0.7,0 -1.3,-0.1 -1.9,-0.4 -0.6,-0.3 -1.1,-0.6 -1.6,-1 -0.5,-0.4 -0.8,-0.9 -1.1,-1.5 -0.3,-0.6 -0.4,-1.2 -0.4,-1.8 0,-0.6 0.1,-1.1 0.4,-1.7 0.3,-0.6 0.6,-1 1.1,-1.5 0.5,-0.4 1,-0.8 1.6,-1 0.6,-0.3 1.2,-0.4 1.9,-0.4 0.7,0 1.3,0.1 1.9,0.4 0.6,0.3 1.1,0.6 1.6,1 0.5,0.4 0.8,0.9 1.1,1.4 0.3,0.5 0.4,1.1 0.4,1.7 z m -0.5,37.1 c 0,1.4 -0.4,2.5 -1.2,3.3 -0.8,0.8 -1.9,1.3 -3.2,1.3 -1.3,0 -2.4,-0.4 -3.2,-1.3 -0.8,-0.8 -1.2,-2 -1.2,-3.3 l 0,-22.9 c 0,-1.4 0.4,-2.5 1.2,-3.4 0.8,-0.8 1.9,-1.3 3.2,-1.3 1.3,0 2.4,0.4 3.2,1.3 0.8,0.8 1.2,2 1.2,3.4 l 0,22.9 z"
       id="path3340"
       inkscape:connector-curvature="0"
       style="fill:#ffffff;fill-opacity:1" /></g></svg>