<?xml version="1.0" encoding="UTF-8" standalone="no"?>
<!-- Created with Inkscape (http://www.inkscape.org/) -->

<svg
   xmlns:dc="http://purl.org/dc/elements/1.1/"
   xmlns:cc="http://creativecommons.org/ns#"
   xmlns:rdf="http://www.w3.org/1999/02/22-rdf-syntax-ns#"
   xmlns:svg="http://www.w3.org/2000/svg"
   xmlns="http://www.w3.org/2000/svg"
   xmlns:sodipodi="http://sodipodi.sourceforge.net/DTD/sodipodi-0.dtd"
   xmlns:inkscape="http://www.inkscape.org/namespaces/inkscape"
   id="svg2"
   version="1.1"
   inkscape:version="0.91 r13725"
   width="453.70038"
   height="453.70038"
   viewBox="0 0 453.70038 453.70038"
   sodipodi:docname="leaderboard.svg"
   inkscape:export-xdpi="101.56483"
   inkscape:export-ydpi="101.56483">
  <metadata
     id="metadata8">
    <rdf:RDF>
      <cc:Work
         rdf:about="">
        <dc:format>image/svg+xml</dc:format>
        <dc:type
           rdf:resource="http://purl.org/dc/dcmitype/StillImage" />
        <dc:title></dc:title>
      </cc:Work>
    </rdf:RDF>
  </metadata>
  <defs
     id="defs6" />
  <sodipodi:namedview
     pagecolor="#ffffff"
     bordercolor="#666666"
     borderopacity="1"
     objecttolerance="10"
     gridtolerance="10"
     guidetolerance="10"
     inkscape:pageopacity="0"
     inkscape:pageshadow="2"
     inkscape:window-width="1280"
     inkscape:window-height="660"
     id="namedview4"
     showgrid="false"
     inkscape:zoom="0.70710678"
     inkscape:cx="278.59074"
     inkscape:cy="170.83478"
     inkscape:window-x="1272"
     inkscape:window-y="-8"
     inkscape:window-maximized="1"
     inkscape:current-layer="svg2"
     fit-margin-top="0"
     fit-margin-left="0"
     fit-margin-right="0"
     fit-margin-bottom="0" />
  <path
     style="fill:#ffffff;fill-opacity:1"
     d="m 78.385362,390.82365 0,-15.5 148.500008,0 148.5,0 0,15.5 0,15.5 -148.5,0 -148.500008,0 0,-15.5 z m -0.49881,-37.74672 c -0.34821,-0.99511 -36.08869,-124.40959 -42.11496,-145.42602 l -1.48323,-5.17274 -5.31475,0.54853 c -10.71997,1.1064 -21.1180199,-4.95473 -26.1522999,-15.24444 -8.90096,-18.19289 4.34172,-39.14755 24.5640499,-38.86913 7.75518,0.10677 12.30571,1.88784 18.04648,7.06334 8.85878,7.98651 11.55583,20.86801 6.47179,30.91026 -1.94955,3.85085 -2.2176,5.14779 -1.25,6.04808 2.59151,2.41121 78.757798,57.38884 79.506808,57.38884 0.43391,0 4.52646,-32.7375 9.09456,-72.75 4.5681,-40.01251 8.50359,-73.48097 8.74552,-74.37437 0.32923,-1.2158 -0.66197,-1.9018 -3.94084,-2.72743 -7.62457,-1.919886 -13.71258,-6.840366 -17.50528,-14.148206 -3.0709,-5.91708 -3.33237,-7.09185 -2.91551,-13.09958 0.7901,-11.38708 7.6654,-20.741087 18.06242,-24.574341 5.53673,-2.041322 14.60452,-1.577616 20.18406,1.032168 10.4957,4.909273 17.55811,16.905353 16.12182,27.384243 -1.16385,8.49116 -4.88438,14.52961 -12.48654,20.26571 l -3.32417,2.50819 31.95583,67.491816 c 17.5757,37.12049 32.3557,67.42219 32.84444,67.3371 0.48874,-0.0851 15.243,-30.42428 32.78725,-67.42044 l 31.89863,-67.265746 -2.39863,-1.87352 c -11.86642,-9.26865 -15.92592,-19.30016 -12.53314,-30.9709 3.33631,-11.4765 14.43928,-19.858102 26.13451,-19.728852 11.2392,0.12421 19.47941,5.182987 24.36361,14.957132 5.00506,10.016 3.97874,20.31785 -2.88788,28.98767 -3.08309,3.89271 -13.56877,9.969346 -17.20284,9.969346 -1.33032,0 -1.76453,0.52963 -1.43473,1.75 0.26012,0.9625 4.22601,34.71821 8.81311,75.01271 6.2003,54.46544 8.65246,73.14286 9.55734,72.79562 1.57536,-0.60452 79.11056,-57.45672 79.73286,-58.46361 0.25941,-0.41973 -0.5065,-2.74016 -1.70201,-5.15651 -10.09938,-20.41266 9.67687,-43.90113 31.59747,-37.52864 7.66203,2.22741 13.53899,6.99667 17.02768,13.81827 9.56157,18.69615 -5.44967,41.59133 -25.88644,39.48207 l -5.24832,-0.54167 -2.68731,9.16588 c -1.47802,5.04124 -11.34852,39.09089 -21.93445,75.66589 l -19.24714,66.5 -148.7106,0.25328 c -118.45842,0.20176 -148.799828,-0.002 -149.149168,-1 z"
     id="path3338"
     inkscape:connector-curvature="0" />
</svg>
