<?xml version="1.0" encoding="UTF-8" standalone="no"?>
<!-- Created with Inkscape (http://www.inkscape.org/) -->

<svg
   xmlns:dc="http://purl.org/dc/elements/1.1/"
   xmlns:cc="http://creativecommons.org/ns#"
   xmlns:rdf="http://www.w3.org/1999/02/22-rdf-syntax-ns#"
   xmlns:svg="http://www.w3.org/2000/svg"
   xmlns="http://www.w3.org/2000/svg"
   xmlns:sodipodi="http://sodipodi.sourceforge.net/DTD/sodipodi-0.dtd"
   xmlns:inkscape="http://www.inkscape.org/namespaces/inkscape"
   width="139.75981mm"
   height="139.75981mm"
   viewBox="0 0 495.21193 495.21193"
   id="svg2"
   version="1.1"
   inkscape:version="0.91 r13725"
   sodipodi:docname="apple.svg"
   inkscape:export-xdpi="93.051064"
   inkscape:export-ydpi="93.051064">
  <defs
     id="defs4" />
  <sodipodi:namedview
     id="base"
     pagecolor="#ffffff"
     bordercolor="#666666"
     borderopacity="1.0"
     inkscape:pageopacity="0.0"
     inkscape:pageshadow="2"
     inkscape:zoom="0.86613123"
     inkscape:cx="81.618302"
     inkscape:cy="254.67707"
     inkscape:document-units="px"
     inkscape:current-layer="layer1"
     showgrid="false"
     inkscape:window-width="1280"
     inkscape:window-height="660"
     inkscape:window-x="1272"
     inkscape:window-y="-8"
     inkscape:window-maximized="1"
     fit-margin-top="0"
     fit-margin-left="0"
     fit-margin-right="0"
     fit-margin-bottom="0" />
  <metadata
     id="metadata7">
    <rdf:RDF>
      <cc:Work
         rdf:about="">
        <dc:format>image/svg+xml</dc:format>
        <dc:type
           rdf:resource="http://purl.org/dc/dcmitype/StillImage" />
        <dc:title />
      </cc:Work>
    </rdf:RDF>
  </metadata>
  <g
     inkscape:label="Layer 1"
     inkscape:groupmode="layer"
     id="layer1"
     transform="translate(-183.48215,-235.33393)">
    <path
       style="fill:none;fill-rule:evenodd;stroke:#000000;stroke-width:1px;stroke-linecap:butt;stroke-linejoin:miter;stroke-opacity:1"
       d="m 424.0679,360.81177 c -79.64609,3.6699 -225.01782,-51.71519 -187.58903,177.54941 88.1849,298.69474 134.07519,155.96991 184.76061,159.03342 30.17672,-4.51909 107.7232,141.00025 218.87425,-151.04951 C 671.46578,369.27325 620.70225,339.13833 424.0679,360.81177 Z"
       id="path3350"
       inkscape:connector-curvature="0"
       sodipodi:nodetypes="ccccc" />
    <path
       style="fill:#ff0000;fill-opacity:1;stroke:#000000;stroke-width:3.99999976;stroke-miterlimit:4;stroke-dasharray:none;stroke-opacity:1"
       d="m 485.61988,727.03951 c -9.8976,-2.45859 -21.20739,-7.92896 -37.14335,-17.96569 -19.29664,-12.15334 -20.90065,-12.79499 -30.55126,-12.22145 -9.49864,0.56451 -15.65581,3.28358 -35.86588,15.83879 -19.45015,12.08312 -27.4998,15.1661 -38.15567,14.61346 -10.57519,-0.54845 -17.06451,-3.81198 -27.73558,-13.94845 -23.19995,-22.03769 -47.82958,-74.81502 -72.75537,-155.90306 -13.75461,-44.74621 -15.8882,-102.92019 -5.0702,-138.24293 6.73474,-21.99015 21.54625,-40.29759 39.846,-49.25076 20.98494,-10.2669 43.0233,-12.91007 86.56475,-10.38216 38.3585,2.22701 61.72361,2.06567 88.86613,-0.61362 31.8131,-3.14034 90.3116,-3.27416 108.2679,-0.24768 31.99413,5.39251 51.72667,15.0735 65.67063,32.21866 14.86564,18.27847 20.66621,43.53864 19.39978,84.48172 -1.08985,35.2345 -5.60777,65.17797 -12.4293,82.37762 -35.78276,90.22203 -71.19071,144.52089 -106.18121,162.83118 -14.35693,7.51289 -29.28386,9.75376 -42.72737,6.41437 z"
       id="path4168"
       inkscape:connector-curvature="0" />
    <ellipse
       style="fill:#ffffff;fill-opacity:0.71005919;fill-rule:nonzero;stroke:none;stroke-width:4;stroke-miterlimit:4;stroke-dasharray:none;stroke-opacity:1"
       id="path4214"
       cx="119.87725"
       cy="464.05029"
       rx="39.372776"
       ry="16.373711"
       transform="matrix(0.96303872,-0.26936298,0.41747578,0.90868805,0,0)" />
    <path
       style="fill:none;fill-rule:evenodd;stroke:#000000;stroke-width:4;stroke-linecap:butt;stroke-linejoin:miter;stroke-miterlimit:4;stroke-dasharray:none;stroke-opacity:1"
       d="m 360.83672,401.00726 c 35.7543,35.99693 123.42396,33.28706 160.8184,2.4244"
       id="path4220"
       inkscape:connector-curvature="0"
       sodipodi:nodetypes="cc" />
    <path
       style="fill:#c87137;fill-rule:evenodd;stroke:#000000;stroke-width:3.99999976;stroke-linecap:butt;stroke-linejoin:miter;stroke-miterlimit:4;stroke-dasharray:none;stroke-opacity:1"
       d="m 420.55639,425.72609 c -0.30502,-103.92554 26.03218,-169.73289 44.08544,-188.13159 21.78175,6.4847 23.71557,4.86607 34.82491,11.82778 -26.22675,34.79055 -48.07158,94.05631 -48.1759,176.9154 z"
       id="path4224"
       inkscape:connector-curvature="0"
       sodipodi:nodetypes="ccccc" />
  </g>
</svg>
