<?xml version="1.0" encoding="UTF-8" standalone="no"?>
<!-- Created with Inkscape (http://www.inkscape.org/) -->

<svg
   xmlns:dc="http://purl.org/dc/elements/1.1/"
   xmlns:cc="http://creativecommons.org/ns#"
   xmlns:rdf="http://www.w3.org/1999/02/22-rdf-syntax-ns#"
   xmlns:svg="http://www.w3.org/2000/svg"
   xmlns="http://www.w3.org/2000/svg"
   xmlns:sodipodi="http://sodipodi.sourceforge.net/DTD/sodipodi-0.dtd"
   xmlns:inkscape="http://www.inkscape.org/namespaces/inkscape"
   width="71.684448mm"
   height="71.684448mm"
   viewBox="0 0 254.00001 254.00001"
   id="svg2"
   version="1.1"
   inkscape:version="0.91 r13725"
   sodipodi:docname="beach-ball.svg"
   inkscape:export-xdpi="181.41731"
   inkscape:export-ydpi="181.41731">
  <defs
     id="defs4" />
  <sodipodi:namedview
     id="base"
     pagecolor="#ffffff"
     bordercolor="#666666"
     borderopacity="1.0"
     inkscape:pageopacity="0.0"
     inkscape:pageshadow="2"
     inkscape:zoom="1.8149606"
     inkscape:cx="44.629066"
     inkscape:cy="127.00001"
     inkscape:document-units="px"
     inkscape:current-layer="layer1"
     showgrid="false"
     inkscape:window-width="1280"
     inkscape:window-height="660"
     inkscape:window-x="1272"
     inkscape:window-y="-8"
     inkscape:window-maximized="1"
     inkscape:snap-intersection-paths="true"
     fit-margin-top="0"
     fit-margin-left="0"
     fit-margin-right="0"
     fit-margin-bottom="0" />
  <metadata
     id="metadata7">
    <rdf:RDF>
      <cc:Work
         rdf:about="">
        <dc:format>image/svg+xml</dc:format>
        <dc:type
           rdf:resource="http://purl.org/dc/dcmitype/StillImage" />
        <dc:title />
      </cc:Work>
    </rdf:RDF>
  </metadata>
  <g
     inkscape:label="Layer 1"
     inkscape:groupmode="layer"
     id="layer1"
     transform="translate(-179,-364.36218)">
    <path
       style="fill:#ffffff;fill-opacity:1;stroke:#ffffff;stroke-width:2;stroke-miterlimit:4;stroke-dasharray:none;stroke-opacity:1"
       d="m 11.864908,78.850019 c 0.298442,-0.784965 2.141344,-4.566039 4.095338,-8.402387 8.807718,-17.292524 20.862909,-31.641351 36.421465,-43.351059 4.620733,-3.477665 12.903674,-8.717623 13.24331,-8.377989 0.125617,0.125618 -0.15359,1.31105 -0.620457,2.634295 -1.151618,3.26403 -1.836386,10.799536 -1.506557,16.578835 0.254271,4.455355 0.198132,4.78634 -0.869279,5.125124 -2.706341,0.858958 -9.486155,5.946145 -13.122208,9.846156 -3.267089,3.504263 -6.255794,8.189074 -8.249933,12.931814 -0.03664,0.08715 -2.392065,0.775509 -5.234273,1.529688 -6.528686,1.732386 -16.256553,6.477409 -20.735501,10.114292 -1.895507,1.539141 -3.56296,2.798435 -3.705452,2.798435 -0.142492,0 -0.0149,-0.642239 0.283547,-1.427204 z"
       id="path4187"
       inkscape:connector-curvature="0"
       transform="translate(179,364.36218)" />
    <path
       style="fill:#ffffff;fill-opacity:1;stroke:#ffffff;stroke-width:2;stroke-miterlimit:4;stroke-dasharray:none;stroke-opacity:1"
       d="M 242.15401,148.5409 C 233.15926,141.73085 214.61275,128.857 202.62614,121.10305 175.54397,103.58404 151.41532,90.493335 128.78911,81.043686 120.27708,77.488711 99.842377,70.359653 98.164431,70.359653 c -1.338575,0 -1.402976,-0.567889 -0.531107,-4.683297 1.497265,-7.067412 0.164254,-13.713763 -3.725091,-18.573186 l -1.635882,-2.043902 6.757534,-4.485187 C 114.23472,30.482156 131.7762,24.004533 151.79393,21.089662 c 8.49498,-1.236993 24.63054,-2.043995 32.42313,-1.621607 l 6.80274,0.368736 5.19092,3.470598 c 14.47583,9.678388 27.72153,23.389812 36.97007,38.269926 8.13607,13.090255 14.15122,29.297191 17.06282,45.973225 1.42382,8.15488 1.39454,30.09248 -0.052,38.98156 -0.60769,3.73421 -1.3072,6.45597 -1.65293,6.43143 -0.32966,-0.0234 -3.20274,-2.01359 -6.38463,-4.42263 l -3e-5,0 z"
       id="path4185"
       inkscape:connector-curvature="0"
       transform="translate(179,364.36218)" />
    <path
       style="fill:#ffffff;fill-opacity:1;stroke:#ffffff;stroke-width:2;stroke-miterlimit:4;stroke-dasharray:none;stroke-opacity:1"
       d="M 115.98048,251.25584 C 88.187864,248.39345 62.412546,237.11617 43.584832,219.58114 l -3.745454,-3.4883 -0.496528,-4.13232 c -0.273091,-2.27278 -0.654276,-10.57874 -0.84708,-18.4577 -0.772128,-31.55319 3.156514,-60.42574 11.62042,-85.4013 1.335041,-3.93948 2.922531,-8.266098 3.527757,-9.614705 l 1.10041,-2.452015 5.961878,-0.07925 c 4.95107,-0.06581 6.662494,-0.330694 10.094199,-1.562297 2.272776,-0.815675 4.50423,-1.60823 4.958785,-1.761234 0.626062,-0.210733 1.276352,1.029868 2.681809,5.116263 10.749516,31.254448 31.456572,78.243708 56.522082,128.262128 6.3781,12.72755 11.59654,23.38894 11.59654,23.69198 0,1.28113 -22.24887,2.4114 -30.57917,1.55345 z"
       id="path4183"
       inkscape:connector-curvature="0"
       transform="translate(179,364.36218)" />
    <path
       style="fill:#ffff00;fill-opacity:1;stroke:#ffff00;stroke-width:2;stroke-miterlimit:4;stroke-dasharray:none;stroke-opacity:1"
       d="m 265.05336,406.34684 c -2.69768,-1.27219 -4.90576,-1.6346 -9.70163,-1.59232 -3.41497,0.0301 -7.1695,0.44281 -8.3434,0.91712 l -2.13436,0.86237 -0.16021,-3.66741 c -0.52058,-11.91634 1.10131,-18.97534 5.18326,-22.55934 2.99929,-2.63341 15.84058,-7.84299 24.85797,-10.08461 12.05032,-2.99559 17.60806,-3.60825 32.2094,-3.55063 11.7275,0.0463 15.85163,0.37305 22.50778,1.78339 10.18653,2.15837 21.69111,5.96929 30.26908,10.02669 l 6.5971,3.12044 -10.86582,0.0732 c -31.55499,0.21266 -57.30258,7.24648 -78.56477,21.46263 -4.10173,2.74246 -7.66111,4.95686 -7.90975,4.92089 -0.24864,-0.036 -2.02373,-0.80657 -3.94465,-1.71245 z"
       id="path4249"
       inkscape:connector-curvature="0" />
    <path
       style="fill:#ff0000;fill-opacity:1;stroke:#ff0000;stroke-width:2;stroke-miterlimit:4;stroke-dasharray:none;stroke-opacity:1"
       d="m 210.50573,572.0822 c -14.52221,-17.43804 -24.04366,-37.99407 -27.80611,-60.03108 -1.42013,-8.31785 -1.58721,-11.63143 -1.22899,-24.37308 0.4022,-14.30588 0.9751,-18.53268 4.15529,-30.65715 1.17043,-4.46225 1.91178,-5.62753 6.41964,-10.09054 5.47456,-5.42009 12.6154,-9.62983 20.94122,-12.34548 5.45803,-1.78026 7.39381,-2.03042 6.67182,-0.86221 -0.93379,1.5109 -0.4846,11.4963 0.63802,14.1831 1.5212,3.64075 6.17116,8.69684 9.12259,9.91936 1.63707,0.6781 2.24983,1.37232 1.96398,2.22505 -0.22852,0.68169 -1.84086,5.24754 -3.58298,10.14632 -9.16606,25.77467 -12.94538,52.99185 -12.24605,88.1912 0.21537,10.84024 0.29466,19.70952 0.17619,19.70952 -0.11846,0 -2.46954,-2.70676 -5.22462,-6.01501 z"
       id="path4241"
       inkscape:connector-curvature="0" />
    <path
       style="fill:#0000ff;fill-opacity:1;stroke:#0000ff;stroke-width:2;stroke-miterlimit:4;stroke-dasharray:none;stroke-opacity:1"
       d="m 323.64427,604.88936 c -10.06452,-18.97186 -30.86758,-62.54038 -42.06899,-88.10644 -8.97879,-20.49315 -24.90753,-61.20398 -24.11727,-61.63915 0.12216,-0.0673 2.14303,-1.57013 4.49083,-3.3397 4.31557,-3.2527 8.83403,-8.59492 11.17836,-13.21627 0.70377,-1.38733 1.47304,-2.52242 1.70949,-2.52242 0.23644,0 6.07755,1.88723 12.98025,4.19385 37.50537,12.53287 80.01225,36.34905 129.94004,72.8041 6.41508,4.684 9.5076,7.42398 9.5076,8.42372 0,0.81495 -1.25258,5.24147 -2.78349,9.83672 -12.95173,38.87619 -47.40882,71.12598 -86.47149,80.93219 -3.62841,0.91087 -7.18094,1.8202 -7.89452,2.02075 -0.99766,0.28038 -2.49271,-1.88852 -6.47081,-9.38735 z"
       id="path4251"
       inkscape:connector-curvature="0" />
    <path
       id="path4158"
       style="fill:none;fill-rule:evenodd;stroke:#000000;stroke-width:2;stroke-linecap:butt;stroke-linejoin:miter;stroke-miterlimit:4;stroke-dasharray:none;stroke-opacity:1"
       d="m 328.0974,615.36971 c 0,0 -117.8147,-221.39254 -75.23107,-238.31426 m -66.63202,75.0656 c 0,0 44.62917,-81.06797 242.27261,67.7896 m -210.8882,61.16587 c 0,0 -28.38586,-209.56284 152.574,-198.19671 M 432,491.36218 a 126,126 0 0 1 -126,126 126,126 0 0 1 -126,-126 126,126 0 0 1 126,-126 126,126 0 0 1 126,126 z"
       inkscape:connector-curvature="0" />
    <path
       transform="matrix(1,0,-0.27932954,0.9601953,0,0)"
       style="fill:#ffffff;fill-opacity:1;stroke:#000000;stroke-width:2.04103374;stroke-miterlimit:4;stroke-dasharray:none;stroke-opacity:1"
       d="m 400.63184,450.19635 a 27,28.11928 0 0 1 -27,28.11928 27,28.11928 0 0 1 -27,-28.11928 27,28.11928 0 0 1 27,-28.11928 27,28.11928 0 0 1 27,28.11928 z"
       id="path4163"
       inkscape:connector-curvature="0" />
  </g>
</svg>
