<?xml version="1.0" encoding="UTF-8" standalone="no"?>
<!-- Created with Inkscape (http://www.inkscape.org/) -->

<svg
   xmlns:dc="http://purl.org/dc/elements/1.1/"
   xmlns:cc="http://creativecommons.org/ns#"
   xmlns:rdf="http://www.w3.org/1999/02/22-rdf-syntax-ns#"
   xmlns:svg="http://www.w3.org/2000/svg"
   xmlns="http://www.w3.org/2000/svg"
   xmlns:sodipodi="http://sodipodi.sourceforge.net/DTD/sodipodi-0.dtd"
   xmlns:inkscape="http://www.inkscape.org/namespaces/inkscape"
   id="svg1307"
   sodipodi:docname="earthworm.svg"
   inkscape:export-filename="/Users/ryan/projects/variant-tap-graphics/normals/earthworm.png"
   viewBox="0 0 753.1 753.10001"
   sodipodi:version="0.32"
   inkscape:export-xdpi="65.266235"
   version="1.1"
   inkscape:output_extension="org.inkscape.output.svg.inkscape"
   inkscape:export-ydpi="65.266235"
   inkscape:version="0.92.2 5c3e80d, 2017-08-06"
   width="753.09998"
   height="753.09998">
  <defs
     id="defs14" />
  <sodipodi:namedview
     id="base"
     fit-margin-left="0"
     inkscape:showpageshadow="false"
     inkscape:zoom="0.4167209"
     borderopacity="0.09019608"
     inkscape:current-layer="layer1"
     inkscape:cx="843.01757"
     inkscape:cy="326.64918"
     fill="#729fcf"
     inkscape:grid-points="false"
     inkscape:grid-bbox="false"
     inkscape:window-maximized="1"
     showgrid="false"
     fit-margin-right="0"
     inkscape:guide-bbox="true"
     showguides="true"
     bordercolor="#666"
     inkscape:window-x="0"
     inkscape:window-y="1"
     fit-margin-bottom="0"
     inkscape:window-width="1440"
     inkscape:pageopacity="0.0"
     inkscape:pageshadow="2"
     pagecolor="#ffffff"
     inkscape:document-units="px"
     inkscape:window-height="800"
     showborder="true"
     fit-margin-top="0">
    <inkscape:grid
       id="GridFromPre046Settings"
       opacity=".2"
       visible="true"
       color="#0000ff"
       enabled="true"
       originy="0"
       originx="0"
       empspacing="2"
       spacingy="0.5"
       spacingx="0.5"
       snapvisiblegridlinesonly="true"
       empopacity="0.4"
       type="xygrid"
       empcolor="#0000ff" />
  </sodipodi:namedview>
  <g
     id="layer1"
     inkscape:label="Layer 1"
     inkscape:groupmode="layer"
     transform="translate(-1049.8,605.82999)">
    <g
       id="g3574"
       transform="matrix(15.319,0,0,15.319,-14743.329,-3081.4336)">
      <path
         id="path3355"
         d="m 1046.1,185.01 c 0,0 4.083,4.6133 7.7948,5.7268 3.7119,1.1136 6.3101,-4.6663 7.3176,-6.0449 0.9545,-1.3258 3.6058,-3.924 6.5222,-3.4468 2.9165,0.4773 6.8404,2.5983 8.4312,4.083 1.1135,1.2726 3.4467,2.7079 3.4467,7.5298 0,2.7043 -1.8029,4.03 -3.0755,2.9164 -1.2727,-1.1135 -1.909,-3.7649 -3.1816,-5.6208 -0.8234,-1.2008 -1.8029,-2.5982 -5.3556,-2.068 -3.5528,0.5303 -4.5603,4.4542 -4.5603,4.4542 -3.7648,3.3406 -2.068,3.3937 -6.3631,5.1966 -3.1286,0.3181 -5.9489,-0.187 -9.3326,-2.5453 -3.4997,-2.4392 -3.7118,-2.2271 -5.5147,-4.5072 -1.8559,-2.5453 -3.8179,-1.962 -5.4617,-1.7498 -2.1741,-0.8485 -2.643,0.02 -4.3482,-3.0226 -1.2485,-2.228 -1.1135,-3.4466 -0.5832,-6.6813 1.1135,-2.2801 1.4317,-2.8633 3.9769,-4.083 2.3332,-1.0605 3.4467,-0.6893 5.992,0.9015 3.0407,1.9005 3.1815,3.3406 3.0225,5.6207 -0.1591,2.2802 1.2726,3.3407 1.2726,3.3407 z"
         sodipodi:nodetypes="cccccscscccsccsccssc"
         style="fill:#e1abb3;stroke:#000000;stroke-width:1px"
         inkscape:connector-curvature="0" />
      <ellipse
         id="path4125"
         style="fill:#ffffff"
         transform="matrix(6.565,0.97035,-0.17709,1.1981,55.06,-1300.6)"
         cx="178.94547"
         cy="1090.4611"
         rx="0.20622316"
         ry="1.6872804" />
      <ellipse
         id="path4125-1"
         style="fill:#000000"
         transform="matrix(4.1687,0.54949,-0.11245,0.67845,413.28,-657.73)"
         cx="178.94547"
         cy="1090.4611"
         rx="0.20622316"
         ry="1.6872804" />
      <path
         id="path4147"
         d="m 1036.3,176.87 c 0,0 0.6231,-0.5833 0.9677,-0.7026 0.3447,-0.1193 0.5038,0.9412 0.5966,1.034 0.093,0.093 0.1988,0.1458 0.3049,0.093 0.106,-0.053 0.093,-0.3182 0.093,-0.4242 0,-0.1061 -0.2386,-0.7954 -0.4375,-1.1136 -0.1591,-0.2651 -0.1591,-0.3314 -0.4905,-0.2386 -0.3314,0.093 -1.0737,0.57 -1.1798,0.7689 -0.1061,0.1988 -0.2784,0.4507 -0.1458,0.5568 0.1325,0.106 0.2916,0.027 0.2916,0.027 z"
         sodipodi:nodetypes="csccscccccc"
         style="fill:#000000"
         inkscape:connector-curvature="0" />
      <path
         id="path4149"
         d="m 1032.3,185.02 c 0,0 0.6495,-1.1268 1.0075,-0.9412 0.3579,0.1856 0.5037,0.7291 0.9544,0.6231 0.4508,-0.1061 0.5833,-0.5435 0.9147,-0.57 0.3314,-0.027 0.4773,0.1855 0.7822,0.4772 0.3049,0.2916 0.5567,0.7954 0.3314,0.9412 -0.2254,0.1458 -0.6363,-0.1856 -0.6761,-0.2651 -0.04,-0.08 -0.1326,-0.517 -0.3712,-0.3977 -0.2386,0.1193 -0.3447,0.4905 -0.6496,0.517 -0.3049,0.026 -0.8484,0.053 -1.0737,-0.2254 -0.2254,-0.2784 -0.411,-0.4374 -0.5833,-0.1591 -0.1724,0.2784 -0.4773,0.5568 -0.5568,0.464 -0.08,-0.093 -0.08,-0.464 -0.08,-0.464 z"
         style="fill:#000000"
         inkscape:connector-curvature="0" />
    </g>
  </g>
  <metadata
     id="metadata11">
    <rdf:RDF>
      <cc:Work>
        <dc:format>image/svg+xml</dc:format>
        <dc:type
           rdf:resource="http://purl.org/dc/dcmitype/StillImage" />
        <cc:license
           rdf:resource="http://creativecommons.org/publicdomain/zero/1.0/" />
        <dc:publisher>
          <cc:Agent
             rdf:about="http://openclipart.org/">
            <dc:title>Openclipart</dc:title>
          </cc:Agent>
        </dc:publisher>
        <dc:title>Funny Earthworm Cartoon</dc:title>
        <dc:date>2011-04-04T20:39:33</dc:date>
        <dc:description>Funny Earthworm - Drôle de ver de terre - Lustig Regenwurm - Lombrico divertente</dc:description>
        <dc:source>https://openclipart.org/detail/131059/funny-earthworm-cartoon-by-palomaironique</dc:source>
        <dc:creator>
          <cc:Agent>
            <dc:title>palomaironique</dc:title>
          </cc:Agent>
        </dc:creator>
        <dc:subject>
          <rdf:Bag>
            <rdf:li>Bild</rdf:li>
            <rdf:li>Cartoon</rdf:li>
            <rdf:li>Comic</rdf:li>
            <rdf:li>Earth</rdf:li>
            <rdf:li>Earthworm</rdf:li>
            <rdf:li>Erde</rdf:li>
            <rdf:li>Figur</rdf:li>
            <rdf:li>Grafik</rdf:li>
            <rdf:li>Ikone</rdf:li>
            <rdf:li>Inkscape</rdf:li>
            <rdf:li>Linie</rdf:li>
            <rdf:li>Lombrico</rdf:li>
            <rdf:li>Maskottchen</rdf:li>
            <rdf:li>Medien</rdf:li>
            <rdf:li>Regen</rdf:li>
            <rdf:li>Regenwurm</rdf:li>
            <rdf:li>Symbol</rdf:li>
            <rdf:li>Text</rdf:li>
            <rdf:li>Vektor</rdf:li>
            <rdf:li>Zeichen</rdf:li>
            <rdf:li>amuesant</rdf:li>
            <rdf:li>amusant</rdf:li>
            <rdf:li>amusing</rdf:li>
            <rdf:li>amüsant</rdf:li>
            <rdf:li>art</rdf:li>
            <rdf:li>bande</rdf:li>
            <rdf:li>buffo</rdf:li>
            <rdf:li>cartoon</rdf:li>
            <rdf:li>clip</rdf:li>
            <rdf:li>comics</rdf:li>
            <rdf:li>dessinée</rdf:li>
            <rdf:li>divertente</rdf:li>
            <rdf:li>divertimento</rdf:li>
            <rdf:li>divertissant</rdf:li>
            <rdf:li>domain</rdf:li>
            <rdf:li>domaine</rdf:li>
            <rdf:li>drollig</rdf:li>
            <rdf:li>drôle</rdf:li>
            <rdf:li>entertaining</rdf:li>
            <rdf:li>figure</rdf:li>
            <rdf:li>fumetti</rdf:li>
            <rdf:li>fumetto</rdf:li>
            <rdf:li>fun</rdf:li>
            <rdf:li>funny</rdf:li>
            <rdf:li>grafica</rdf:li>
            <rdf:li>graphic</rdf:li>
            <rdf:li>graphique</rdf:li>
            <rdf:li>icon</rdf:li>
            <rdf:li>icona</rdf:li>
            <rdf:li>icône</rdf:li>
            <rdf:li>immagine</rdf:li>
            <rdf:li>komisch</rdf:li>
            <rdf:li>laecherlich</rdf:li>
            <rdf:li>ligne</rdf:li>
            <rdf:li>line</rdf:li>
            <rdf:li>linea</rdf:li>
            <rdf:li>lineart</rdf:li>
            <rdf:li>logo</rdf:li>
            <rdf:li>lombric</rdf:li>
            <rdf:li>lustig</rdf:li>
            <rdf:li>lächerlich</rdf:li>
            <rdf:li>mascot</rdf:li>
            <rdf:li>mascotte</rdf:li>
            <rdf:li>outline</rdf:li>
            <rdf:li>pioggia</rdf:li>
            <rdf:li>piove</rdf:li>
            <rdf:li>pluie</rdf:li>
            <rdf:li>portafortuna</rdf:li>
            <rdf:li>public</rdf:li>
            <rdf:li>rain</rdf:li>
            <rdf:li>ridicolo</rdf:li>
            <rdf:li>ridicule</rdf:li>
            <rdf:li>ridiculous</rdf:li>
            <rdf:li>segno</rdf:li>
            <rdf:li>sign</rdf:li>
            <rdf:li>signe</rdf:li>
            <rdf:li>simbolo</rdf:li>
            <rdf:li>spassig</rdf:li>
            <rdf:li>spaßig</rdf:li>
            <rdf:li>symbol</rdf:li>
            <rdf:li>symbole</rdf:li>
            <rdf:li>talismano</rdf:li>
            <rdf:li>terra</rdf:li>
            <rdf:li>terre</rdf:li>
            <rdf:li>testo</rdf:li>
            <rdf:li>text</rdf:li>
            <rdf:li>texte</rdf:li>
            <rdf:li>vecteur</rdf:li>
            <rdf:li>vector</rdf:li>
            <rdf:li>ver</rdf:li>
            <rdf:li>ver de terre</rdf:li>
            <rdf:li>vettore</rdf:li>
            <rdf:li>vettoriale</rdf:li>
            <rdf:li>witzig</rdf:li>
            <rdf:li>worm</rdf:li>
          </rdf:Bag>
        </dc:subject>
      </cc:Work>
      <cc:License
         rdf:about="http://creativecommons.org/publicdomain/zero/1.0/">
        <cc:permits
           rdf:resource="http://creativecommons.org/ns#Reproduction" />
        <cc:permits
           rdf:resource="http://creativecommons.org/ns#Distribution" />
        <cc:permits
           rdf:resource="http://creativecommons.org/ns#DerivativeWorks" />
      </cc:License>
    </rdf:RDF>
  </metadata>
</svg>
