<?xml version="1.0" encoding="UTF-8" standalone="no"?>
<!-- Created with Inkscape (http://www.inkscape.org/) -->

<svg
   xmlns:dc="http://purl.org/dc/elements/1.1/"
   xmlns:cc="http://creativecommons.org/ns#"
   xmlns:rdf="http://www.w3.org/1999/02/22-rdf-syntax-ns#"
   xmlns:svg="http://www.w3.org/2000/svg"
   xmlns="http://www.w3.org/2000/svg"
   xmlns:xlink="http://www.w3.org/1999/xlink"
   xmlns:sodipodi="http://sodipodi.sourceforge.net/DTD/sodipodi-0.dtd"
   xmlns:inkscape="http://www.inkscape.org/namespaces/inkscape"
   id="svg2618"
   sodipodi:docname="openclipart_362_movie_clapper_board.svg"
   inkscape:export-filename="/home/gnokii/Desktop/icons/movie.png"
   viewBox="0 0 173.04568 173.04568"
   sodipodi:version="0.32"
   inkscape:export-xdpi="90"
   version="1.1"
   inkscape:output_extension="org.inkscape.output.svg.inkscape"
   inkscape:export-ydpi="90"
   inkscape:version="0.91 r13725"
   width="173.04568"
   height="173.04568">
  <defs
     id="defs2620">
    <linearGradient
       id="linearGradient4331"
       y2="435.63"
       gradientUnits="userSpaceOnUse"
       x2="890.97998"
       gradientTransform="matrix(0.08691,0.016343,-0.016343,0.08691,713.28,119.41)"
       y1="621.65002"
       x1="929.46002"
       inkscape:collect="always">
      <stop
         id="stop7488"
         style="stop-color:#1F1F1F"
         offset="0" />
      <stop
         id="stop7490"
         style="stop-color:#090909"
         offset=".5959" />
      <stop
         id="stop7492"
         style="stop-color:#000000"
         offset="1" />
    </linearGradient>
    <linearGradient
       id="linearGradient4333"
       y2="761.72998"
       gradientUnits="userSpaceOnUse"
       x2="844.16998"
       y1="774.70001"
       x1="834.02002"
       inkscape:collect="always">
      <stop
         id="stop7865"
         style="stop-color:#ececec"
         offset="0" />
      <stop
         id="stop7867"
         style="stop-color:#ffffff"
         offset="1" />
    </linearGradient>
    <linearGradient
       id="linearGradient4335"
       y2="767.78003"
       gradientUnits="userSpaceOnUse"
       x2="836.94"
       y1="782.87"
       x1="829.04999"
       inkscape:collect="always">
      <stop
         id="stop7879"
         style="stop-color:#b3b3b3"
         offset="0" />
      <stop
         id="stop7881"
         style="stop-color:#ffffff"
         offset="1" />
    </linearGradient>
    <linearGradient
       id="linearGradient4337"
       y2="782.60999"
       gradientUnits="userSpaceOnUse"
       x2="880.90997"
       y1="792.90002"
       x1="868.13"
       inkscape:collect="always">
      <stop
         id="stop7885"
         style="stop-color:#b3b3b3"
         offset="0" />
      <stop
         id="stop7887"
         style="stop-color:#ffffff"
         offset="1" />
    </linearGradient>
    <linearGradient
       id="linearGradient4339"
       y2="797.75"
       gradientUnits="userSpaceOnUse"
       x2="918.77002"
       y1="809.51001"
       x1="906.10999"
       inkscape:collect="always">
      <stop
         id="stop7891"
         style="stop-color:#b3b3b3"
         offset="0" />
      <stop
         id="stop7893"
         style="stop-color:#ffffff"
         offset="1" />
    </linearGradient>
    <linearGradient
       id="linearGradient4341"
       y2="750.48999"
       gradientUnits="userSpaceOnUse"
       x2="879.87"
       y1="700.19"
       x1="875.87"
       inkscape:collect="always">
      <stop
         id="stop7897"
         style="stop-color:#cccccc"
         offset="0" />
      <stop
         id="stop7899"
         style="stop-color:#ffffff"
         offset="1" />
    </linearGradient>
    <linearGradient
       id="linearGradient4349"
       y2="446.56"
       gradientUnits="userSpaceOnUse"
       x2="849.78003"
       gradientTransform="matrix(0.9077,0.4197,-0.4197,0.9077,200.44,-57.09)"
       y1="490.42999"
       x1="888.39001"
       inkscape:collect="always">
      <stop
         id="stop7557"
         style="stop-color:#292929"
         offset="0" />
      <stop
         id="stop7559"
         style="stop-color:#212121"
         offset=".098" />
      <stop
         id="stop7561"
         style="stop-color:#090909"
         offset=".466" />
      <stop
         id="stop7563"
         style="stop-color:#000000"
         offset=".6923" />
    </linearGradient>
    <linearGradient
       inkscape:collect="always"
       xlink:href="#linearGradient4341"
       id="linearGradient3425"
       gradientUnits="userSpaceOnUse"
       x1="875.87"
       y1="700.19"
       x2="879.87"
       y2="750.48999" />
    <linearGradient
       inkscape:collect="always"
       xlink:href="#linearGradient4341"
       id="linearGradient3427"
       gradientUnits="userSpaceOnUse"
       x1="875.87"
       y1="700.19"
       x2="879.87"
       y2="750.48999" />
    <linearGradient
       inkscape:collect="always"
       xlink:href="#linearGradient4341"
       id="linearGradient3429"
       gradientUnits="userSpaceOnUse"
       x1="875.87"
       y1="700.19"
       x2="879.87"
       y2="750.48999" />
    <linearGradient
       inkscape:collect="always"
       xlink:href="#linearGradient4341"
       id="linearGradient3431"
       gradientUnits="userSpaceOnUse"
       x1="875.87"
       y1="700.19"
       x2="879.87"
       y2="750.48999" />
  </defs>
  <sodipodi:namedview
     id="base"
     bordercolor="#666666"
     inkscape:pageshadow="2"
     inkscape:window-y="-8"
     pagecolor="#ffffff"
     inkscape:window-height="660"
     inkscape:window-maximized="1"
     inkscape:zoom="3.959798"
     inkscape:window-x="1272"
     borderlayer="true"
     showgrid="false"
     borderopacity="1.0"
     inkscape:current-layer="g7518"
     inkscape:cx="44.011321"
     inkscape:cy="139.39609"
     inkscape:showpageshadow="false"
     inkscape:window-width="1280"
     inkscape:pageopacity="0.0"
     inkscape:document-units="px"
     fit-margin-top="0"
     fit-margin-left="0"
     fit-margin-right="0"
     fit-margin-bottom="0"
     inkscape:snap-center="true" />
  <g
     id="layer1"
     inkscape:label="Ebene 1"
     inkscape:groupmode="layer"
     transform="translate(-17.803647,-852.27552)">
    <g
       id="g2694"
       transform="matrix(2.1257,-0.39829,0.39829,2.1257,-1716.3,956.58)">
      <g
         id="g4278"
         transform="matrix(4.3168,0.72559,-0.72559,4.3168,-2431.8901,-1202.1867)">
        <path
           id="path7494"
           style="fill:url(#linearGradient4331)"
           inkscape:connector-curvature="0"
           d="m 793,178.02 -12.449,-2.3411 0.29039,-1.5442 -2.0749,-0.3902 -2.2777,12.111 c -0.10022,0.5331 0.25078,1.0464 0.78368,1.1465 l 13.559,2.5498 c 0.5331,0.1002 1.0463,-0.2506 1.1466,-0.7836 l 1.8057,-9.6021 c 0.10042,-0.533 -0.25029,-1.046 -0.78346,-1.1463 z" />
        <rect
           id="rect7498"
           style="fill:#ffffff"
           transform="matrix(0.98277445,0.18480905,-0.18480905,0.98277445,0,0)"
           height="0.12027"
           width="15.014"
           y="31.235001"
           x="798" />
        <rect
           id="rect7500"
           style="fill:#ffffff"
           transform="matrix(0.98277445,0.18480905,-0.18480905,0.98277445,0,0)"
           height="0.12027"
           width="15.014"
           y="38.182999"
           x="798" />
        <g
           id="g7516"
           transform="matrix(0.085741,-0.02164,0.02164,0.085741,697.33,128.64)">
          <g
             id="g7518">
            <g
               id="g7520">
              <polygon
                 id="polygon7522"
                 points="758.85,734.57 753.36,746.44 919.67,823.34 931.82,797.05 783.66,728.54 758.85,734.57 " />
              <g
                 id="g7524">
                <polygon
                   id="polygon7526"
                   points="919.55,822.25 754.26,745.82 759.1,735.34 783.38,729.44 930.92,797.67 919.55,822.25 " />
                <polygon
                   id="polygon7528"
                   style="fill:url(#linearGradient4333)"
                   points="814,743.6 796.08,765.16 796.08,765.16 777.44,756.54 795.36,734.98 " />
                <polygon
                   id="polygon7530"
                   style="fill:url(#linearGradient4335)"
                   points="852.31,761.31 834.38,782.87 834.38,782.87 815.74,774.25 833.66,752.69 " />
                <polygon
                   id="polygon7532"
                   style="fill:url(#linearGradient4337)"
                   points="890.61,779.02 872.69,800.58 872.69,800.58 854.04,791.96 871.96,770.4 " />
                <polygon
                   id="polygon7534"
                   style="fill:url(#linearGradient4339)"
                   points="928.91,796.73 910.99,818.29 910.99,818.29 892.34,809.67 910.26,788.11 " />
              </g>
            </g>
            <g
               id="g7536"
               transform="matrix(0.99337,0.11493,-0.11493,0.99337,86.22,-85.366)"
               inkscape:transform-center-x="-64.502713"
               inkscape:transform-center-y="5.2417162">
              <polygon
                 id="polygon7538"
                 points="953.55,733.6 947.4,761.89 787.89,727.22 771.73,707.45 771.73,707.45 774.51,694.67 " />
              <g
                 id="g7540">
                <polygon
                   id="polygon7542"
                   points="772.4,707 788.21,726.33 947.05,760.86 952.81,734.39 952.81,734.39 774.85,695.7 " />
                <polygon
                   id="polygon7544"
                   style="fill:url(#linearGradient3425)"
                   points="819.88,705.5 799.81,701.13 801.1,729.14 821.18,733.5 819.88,705.5 " />
                <polygon
                   id="polygon7546"
                   style="fill:url(#linearGradient3427)"
                   points="861.12,714.46 841.04,710.1 842.34,738.1 862.41,742.46 861.12,714.46 " />
                <polygon
                   id="polygon7548"
                   style="fill:url(#linearGradient3429)"
                   points="902.35,723.42 882.28,719.06 883.57,747.06 903.65,751.43 902.35,723.42 " />
                <polygon
                   id="polygon7550"
                   style="fill:url(#linearGradient3431)"
                   points="943.58,732.39 923.51,728.02 924.81,756.03 944.88,760.39 943.58,732.39 " />
              </g>
            </g>
          </g>
          <g
             id="g7552">
            <g
               id="g7554">
              <path
                 id="path7565"
                 style="fill:url(#linearGradient4349)"
                 inkscape:connector-curvature="0"
                 d="m 825.2,723.61 c 1.258,-2.721 -0.087,-6.044 -2.991,-7.388 l -37.077,-17.144 c -2.902,-1.342 -6.308,-0.215 -7.565,2.506 l -17.971,38.866 c -1.258,2.72 0.09,6.044 2.991,7.386 l 37.077,17.144 c 2.905,1.344 6.307,0.216 7.565,-2.505 L 825.2,723.61 Z" />
            </g>
            <g
               id="g7567"
               transform="translate(0.90416,2.7125)">
              <circle
                 id="circle7569"
                 style="fill:#1a1a1a"
                 cx="784.65002"
                 cy="708.15997"
                 r="2.428" />
              <polygon
                 id="polygon7571"
                 points="784,709.01 784,709.01 783.59,708.02 784.24,707.18 785.3,707.32 785.71,708.3 785.06,709.15 " />
              <path
                 id="path7573"
                 style="fill:#cccccc"
                 inkscape:connector-curvature="0"
                 d="m 784.64,710.32 c -1.214,-0.086 -1.785,-1.12 -1.607,-0.949 0.513,0.489 1.412,0.809 1.934,0.731 0.679,-0.106 0.957,-1.792 1.341,-1.662 0.987,0.34 -0.351,1.97 -1.668,1.88 z" />
              <path
                 id="path7575"
                 style="fill:#ffffff"
                 inkscape:connector-curvature="0"
                 d="m 785.28,706.05 c 0.144,0.019 0.43,0.64 0.081,0.804 -0.349,0.164 -1.704,-0.343 -1.935,-0.187 -0.231,0.156 0.25,-0.83 1.854,-0.617 z" />
            </g>
            <g
               id="g7577"
               transform="translate(4,2)">
              <circle
                 id="circle7579"
                 style="fill:#1a1a1a"
                 cx="768.75"
                 cy="742.53998"
                 r="2.428" />
              <polygon
                 id="polygon7581"
                 points="767.9,743.18 767.9,743.18 767.77,742.12 768.63,741.48 769.61,741.91 769.73,742.97 768.88,743.6 " />
              <path
                 id="path7583"
                 style="fill:#cccccc"
                 inkscape:connector-curvature="0"
                 d="m 768.16,744.61 c -1.146,-0.413 -1.411,-1.564 -1.287,-1.353 0.359,0.612 1.137,1.164 1.66,1.232 0.682,0.084 1.411,-1.463 1.745,-1.232 0.856,0.598 -0.877,1.801 -2.118,1.353 z" />
              <path
                 id="path7585"
                 style="fill:#ffffff"
                 inkscape:connector-curvature="0"
                 d="m 769.94,740.69 c 0.133,0.059 0.237,0.732 -0.145,0.795 -0.377,0.063 -1.544,-0.796 -1.81,-0.709 -0.262,0.088 0.468,-0.729 1.955,-0.086 z" />
            </g>
            <g
               id="g7587">
              <circle
                 id="circle7589"
                 style="fill:#1a1a1a"
                 cx="800.09003"
                 cy="757.03003"
                 r="2.428" />
              <polygon
                 id="polygon7591"
                 points="799.23,757.67 799.23,757.67 799.11,756.61 799.96,755.97 800.94,756.4 801.07,757.46 800.21,758.09 " />
              <path
                 id="path7593"
                 style="fill:#cccccc"
                 inkscape:connector-curvature="0"
                 d="m 799.49,759.1 c -1.144,-0.414 -1.411,-1.565 -1.286,-1.354 0.359,0.612 1.138,1.164 1.659,1.231 0.683,0.086 1.413,-1.461 1.747,-1.23 0.856,0.597 -0.877,1.8 -2.12,1.353 z" />
              <path
                 id="path7595"
                 style="fill:#ffffff"
                 inkscape:connector-curvature="0"
                 d="m 801.27,755.18 c 0.134,0.059 0.238,0.731 -0.145,0.795 -0.379,0.062 -1.545,-0.796 -1.81,-0.71 -0.264,0.088 0.468,-0.729 1.955,-0.085 z" />
            </g>
          </g>
        </g>
        <rect
           id="rect3986"
           style="fill:#ffffff"
           transform="matrix(0.98277445,0.18480905,-0.18480905,0.98277445,0,0)"
           height="0.12027"
           width="15.014"
           y="34.478001"
           x="798" />
        <g
           id="text4112"
           style="fill:#ffffff"
           transform="matrix(0.9828968,0.18415721,-0.18415721,0.9828968,0,0)">
          <path
             id="path4425"
             d="m 798.07,31.229 0,-0.49647 0.16086,0 c 0.061,0 0.1007,0.0025 0.11921,0.0075 0.0285,0.0075 0.0523,0.02371 0.0715,0.04877 0.0192,0.02483 0.0288,0.05701 0.0288,0.09652 0,0.03048 -0.006,0.0561 -0.0166,0.07687 -0.0111,0.02077 -0.0252,0.03714 -0.0423,0.0491 -0.0169,0.01174 -0.0342,0.01953 -0.0518,0.02337 -0.0239,0.0047 -0.0586,0.0071 -0.10396,0.0071 l -0.0654,0 0,0.18728 -0.10025,0 m 0.10025,-0.41248 0,0.14088 0.0549,0 c 0.0395,0 0.0659,-0.0026 0.0792,-0.0078 0.0133,-0.0052 0.0237,-0.01332 0.0312,-0.02438 0.008,-0.01106 0.0115,-0.02393 0.0115,-0.03861 0,-0.01806 -0.005,-0.03296 -0.0159,-0.0447 -0.0106,-0.01174 -0.024,-0.01908 -0.0403,-0.02201 -0.012,-0.0023 -0.036,-0.0034 -0.0721,-0.0034 l -0.0484,0"
             inkscape:connector-curvature="0" />
          <path
             id="path4427"
             d="m 798.53,31.229 0,-0.49647 0.21098,0 c 0.0531,0 0.0915,0.0045 0.11549,0.01355 0.0242,0.0088 0.0435,0.02461 0.0579,0.04741 0.0145,0.0228 0.0217,0.04888 0.0217,0.07823 0,0.03725 -0.011,0.06807 -0.0329,0.09245 -0.0219,0.02416 -0.0546,0.0394 -0.0982,0.04572 0.0217,0.01264 0.0395,0.02653 0.0535,0.04165 0.0142,0.01513 0.0333,0.04199 0.0572,0.0806 l 0.0606,0.09686 -0.11988,0 -0.0725,-0.10803 c -0.0257,-0.03861 -0.0433,-0.06288 -0.0528,-0.07281 -0.009,-0.01016 -0.0195,-0.01705 -0.0301,-0.02066 -0.0106,-0.0038 -0.0274,-0.0058 -0.0505,-0.0058 l -0.0203,0 0,0.20726 -0.10024,0 m 0.10024,-0.2865 0.0742,0 c 0.0481,1e-6 0.0781,-0.002 0.0901,-0.0061 0.012,-0.0041 0.0213,-0.01106 0.0281,-0.021 0.007,-0.0099 0.0102,-0.02235 0.0102,-0.03725 0,-0.01671 -0.005,-0.03014 -0.0136,-0.0403 -0.009,-0.01038 -0.0213,-0.01693 -0.0376,-0.01964 -0.008,-0.0011 -0.0325,-0.0017 -0.0731,-0.0017 l -0.0782,0 0,0.12598"
             inkscape:connector-curvature="0" />
          <path
             id="path4429"
             d="m 799.01,30.984 c 0,-0.05057 0.008,-0.09302 0.0227,-0.12733 0.0113,-0.02529 0.0267,-0.04798 0.0461,-0.06807 0.0196,-0.02009 0.0411,-0.03499 0.0643,-0.0447 0.0309,-0.01309 0.0666,-0.01964 0.10701,-0.01964 0.0732,10e-7 0.13163,0.02269 0.17543,0.06807 0.044,0.04538 0.066,0.10848 0.066,0.18931 0,0.08015 -0.0218,0.14291 -0.0654,0.18829 -0.0436,0.04515 -0.10182,0.06773 -0.17474,0.06773 -0.0738,0 -0.13253,-0.02246 -0.1761,-0.06739 -0.0436,-0.04515 -0.0654,-0.10724 -0.0654,-0.18626 m 0.10329,-0.0034 c 0,0.05622 0.013,0.09889 0.0389,0.12801 0.026,0.0289 0.0589,0.04335 0.0989,0.04335 0.04,1e-6 0.0727,-0.01434 0.0982,-0.04301 0.0257,-0.0289 0.0386,-0.07213 0.0386,-0.1297 0,-0.05689 -0.0125,-0.09934 -0.0376,-0.12733 -0.0248,-0.028 -0.0579,-0.04199 -0.0992,-0.04199 -0.0413,10e-7 -0.0746,0.01422 -0.0999,0.04267 -0.0253,0.02822 -0.0379,0.07089 -0.0379,0.12801"
             inkscape:connector-curvature="0" />
          <path
             id="path4431"
             d="m 799.57,30.733 0.18321,0 c 0.0413,0 0.0728,0.0032 0.0945,0.0095 0.0291,0.0086 0.0541,0.02382 0.0748,0.04572 0.0208,0.0219 0.0366,0.04877 0.0474,0.0806 0.0108,0.03161 0.0163,0.07067 0.0163,0.11718 0,0.04086 -0.005,0.07608 -0.0152,0.10566 -0.0124,0.03612 -0.0301,0.06536 -0.0532,0.08771 -0.0174,0.01693 -0.0409,0.03014 -0.0704,0.03962 -0.0221,0.007 -0.0517,0.0105 -0.0887,0.0105 l -0.18863,0 0,-0.49647 m 0.10024,0.08399 0,0.32884 0.0748,0 c 0.028,0 0.0482,-0.0016 0.0606,-0.0047 0.0163,-0.0041 0.0297,-0.01095 0.0403,-0.02066 0.0108,-0.0097 0.0196,-0.02563 0.0264,-0.04775 0.007,-0.02235 0.0102,-0.05272 0.0102,-0.0911 0,-0.03838 -0.003,-0.06784 -0.0102,-0.08839 -0.007,-0.02054 -0.0163,-0.03657 -0.0284,-0.04809 -0.0122,-0.01151 -0.0277,-0.0193 -0.0464,-0.02337 -0.014,-0.0032 -0.0414,-0.0047 -0.0823,-0.0047 l -0.045,0"
             inkscape:connector-curvature="0" />
          <path
             id="path4433"
             d="m 800.07,30.733 0.10024,0 0,0.26889 c 0,0.04267 10e-4,0.07033 0.004,0.08297 0.004,0.02032 0.0145,0.03669 0.0305,0.04911 0.0163,0.01219 0.0384,0.01829 0.0664,0.01829 0.0285,1e-6 0.0499,-0.0058 0.0643,-0.01727 0.0145,-0.01174 0.0231,-0.02608 0.0261,-0.04301 0.003,-0.01693 0.004,-0.04504 0.004,-0.08432 l 0,-0.27465 0.10025,0 0,0.26076 c -10e-6,0.0596 -0.003,0.10171 -0.008,0.12632 -0.005,0.02461 -0.0155,0.04538 -0.0301,0.06231 -0.0145,0.01693 -0.0339,0.03048 -0.0583,0.04064 -0.0244,0.0099 -0.0562,0.0149 -0.0955,0.0149 -0.0474,0 -0.0834,-0.0054 -0.10803,-0.01625 -0.0244,-0.01106 -0.0437,-0.02529 -0.0579,-0.04267 -0.0142,-0.01761 -0.0236,-0.03601 -0.0281,-0.0552 -0.007,-0.02845 -0.01,-0.07044 -0.01,-0.12598 l 0,-0.26483"
             inkscape:connector-curvature="0" />
          <path
             id="path4435"
             d="m 800.89,31.047 0.0972,0.03082 c -0.0149,0.05419 -0.0397,0.09448 -0.0745,0.1209 -0.0345,0.02619 -0.0784,0.03928 -0.13173,0.03928 -0.0659,0 -0.12011,-0.02246 -0.16256,-0.06739 -0.0424,-0.04515 -0.0637,-0.10679 -0.0637,-0.18491 0,-0.08263 0.0213,-0.14675 0.064,-0.19236 0.0427,-0.04583 0.0988,-0.06875 0.16831,-0.06875 0.0607,1e-6 0.11006,0.01795 0.14799,0.05385 0.0226,0.02122 0.0395,0.0517 0.0508,0.09144 l -0.0992,0.02371 c -0.006,-0.02574 -0.0182,-0.04606 -0.0369,-0.06096 -0.0185,-0.0149 -0.0411,-0.02235 -0.0677,-0.02235 -0.0368,1e-6 -0.0667,0.01321 -0.0897,0.03962 -0.0228,0.02642 -0.0342,0.0692 -0.0342,0.12835 0,0.06276 0.0113,0.10747 0.0339,0.13411 0.0226,0.02664 0.0519,0.03996 0.0881,0.03996 0.0266,1e-6 0.0496,-0.0085 0.0688,-0.0254 0.0192,-0.01693 0.033,-0.04357 0.0413,-0.07992"
             inkscape:connector-curvature="0" />
          <path
             id="path4437"
             d="m 801.19,31.229 0,-0.41248 -0.14731,0 0,-0.08399 0.39453,0 0,0.08399 -0.14698,0 0,0.41248 -0.10024,0"
             inkscape:connector-curvature="0" />
          <path
             id="path4439"
             d="m 801.5,31.229 0,-0.49647 0.10024,0 0,0.49647 -0.10024,0"
             inkscape:connector-curvature="0" />
          <path
             id="path4441"
             d="m 801.67,30.984 c 0,-0.05057 0.008,-0.09302 0.0227,-0.12733 0.0113,-0.02529 0.0266,-0.04798 0.0461,-0.06807 0.0196,-0.02009 0.0411,-0.03499 0.0643,-0.0447 0.0309,-0.01309 0.0666,-0.01964 0.10701,-0.01964 0.0732,10e-7 0.13162,0.02269 0.17542,0.06807 0.044,0.04538 0.066,0.10848 0.066,0.18931 0,0.08015 -0.0218,0.14291 -0.0654,0.18829 -0.0436,0.04515 -0.10182,0.06773 -0.17474,0.06773 -0.0738,0 -0.13253,-0.02246 -0.17611,-0.06739 -0.0436,-0.04515 -0.0654,-0.10724 -0.0654,-0.18626 m 0.10329,-0.0034 c 0,0.05622 0.013,0.09889 0.0389,0.12801 0.026,0.0289 0.0589,0.04335 0.0989,0.04335 0.04,1e-6 0.0727,-0.01434 0.0982,-0.04301 0.0257,-0.0289 0.0386,-0.07213 0.0386,-0.1297 0,-0.05689 -0.0125,-0.09934 -0.0376,-0.12733 -0.0248,-0.028 -0.0579,-0.04199 -0.0992,-0.04199 -0.0413,10e-7 -0.0746,0.01422 -0.0999,0.04267 -0.0253,0.02822 -0.0379,0.07089 -0.0379,0.12801"
             inkscape:connector-curvature="0" />
          <path
             id="path4443"
             d="m 802.23,31.229 0,-0.49647 0.0975,0 0.20319,0.33154 0,-0.33154 0.0931,0 0,0.49647 -0.10059,0 -0.20014,-0.32376 0,0.32376 -0.0931,0"
             inkscape:connector-curvature="0" />
        </g>
        <g
           id="text4116"
           style="fill:#ffffff"
           transform="matrix(0.9828968,0.18415721,-0.18415721,0.9828968,0,0)">
          <path
             id="path4446"
             d="m 798.04,34.305 0.0975,-0.0095 c 0.006,0.03274 0.0177,0.05678 0.0356,0.07213 0.0181,0.01535 0.0423,0.02303 0.0728,0.02303 0.0323,0 0.0566,-0.0068 0.0728,-0.02032 0.0165,-0.01377 0.0247,-0.0298 0.0247,-0.04809 0,-0.01174 -0.004,-0.02167 -0.0105,-0.0298 -0.007,-0.0084 -0.0187,-0.01558 -0.0359,-0.02167 -0.0117,-0.0041 -0.0385,-0.01129 -0.0803,-0.02167 -0.0537,-0.01332 -0.0914,-0.02969 -0.11311,-0.0491 -0.0305,-0.02732 -0.0457,-0.06062 -0.0457,-0.0999 0,-0.02529 0.007,-0.04888 0.0213,-0.07078 0.0145,-0.02213 0.0351,-0.03895 0.062,-0.05046 0.0271,-0.01151 0.0597,-0.01727 0.0979,-0.01727 0.0623,0 0.10916,0.01366 0.14055,0.04098 0.0316,0.02732 0.0482,0.06378 0.0498,0.10939 l -0.10024,0.0044 c -0.004,-0.02551 -0.0136,-0.0438 -0.0278,-0.05486 -0.014,-0.01129 -0.0351,-0.01693 -0.0633,-0.01693 -0.0291,10e-7 -0.0519,0.006 -0.0684,0.01795 -0.0106,0.0077 -0.0159,0.01795 -0.0159,0.03082 0,0.01174 0.005,0.02179 0.0149,0.03014 0.0127,0.01061 0.0434,0.02167 0.0921,0.03319 0.0488,0.01152 0.0848,0.02348 0.10803,0.0359 0.0235,0.01219 0.0418,0.02901 0.0549,0.05046 0.0133,0.02122 0.02,0.04752 0.02,0.07891 0,0.02845 -0.008,0.05509 -0.0237,0.07992 -0.0158,0.02483 -0.0382,0.04335 -0.0671,0.05554 -0.0289,0.01196 -0.0649,0.01795 -0.10803,0.01795 -0.0628,0 -0.11097,-0.01445 -0.14461,-0.04335 -0.0336,-0.02912 -0.0537,-0.07146 -0.0603,-0.127"
             inkscape:connector-curvature="0" />
          <path
             id="path4448"
             d="m 798.85,34.284 0.0972,0.03082 c -0.0149,0.05419 -0.0397,0.09448 -0.0745,0.1209 -0.0345,0.02619 -0.0784,0.03928 -0.13173,0.03928 -0.0659,0 -0.12011,-0.02246 -0.16256,-0.06739 -0.0424,-0.04515 -0.0637,-0.10679 -0.0637,-0.18491 0,-0.08263 0.0213,-0.14675 0.064,-0.19236 0.0427,-0.04583 0.0988,-0.06875 0.16831,-0.06875 0.0607,0 0.11006,0.01795 0.14799,0.05385 0.0226,0.02122 0.0395,0.0517 0.0508,0.09144 l -0.0992,0.02371 c -0.006,-0.02574 -0.0182,-0.04606 -0.0369,-0.06096 -0.0185,-0.0149 -0.0411,-0.02235 -0.0677,-0.02235 -0.0368,0 -0.0667,0.01321 -0.0897,0.03962 -0.0228,0.02642 -0.0342,0.0692 -0.0342,0.12835 0,0.06276 0.0113,0.10747 0.0339,0.13411 0.0226,0.02664 0.0519,0.03996 0.0881,0.03996 0.0266,0 0.0496,-0.0085 0.0688,-0.0254 0.0192,-0.01693 0.033,-0.04357 0.0413,-0.07992"
             inkscape:connector-curvature="0" />
          <path
             id="path4450"
             d="m 799.03,34.466 0,-0.49647 0.36812,0 0,0.08399 -0.26787,0 0,0.11006 0.24925,0 0,0.08365 -0.24925,0 0,0.13512 0.27736,0 0,0.08365 -0.37761,0"
             inkscape:connector-curvature="0" />
          <path
             id="path4452"
             d="m 799.5,34.466 0,-0.49647 0.0975,0 0.2032,0.33154 0,-0.33154 0.0931,0 0,0.49647 -0.10058,0 -0.20015,-0.32376 0,0.32376 -0.0931,0"
             inkscape:connector-curvature="0" />
          <path
             id="path4454"
             d="m 800,34.466 0,-0.49647 0.36811,0 0,0.08399 -0.26787,0 0,0.11006 0.24925,0 0,0.08365 -0.24925,0 0,0.13512 0.27736,0 0,0.08365 -0.3776,0"
             inkscape:connector-curvature="0" />
        </g>
        <g
           id="text4122"
           style="fill:#ffffff"
           transform="matrix(0.9828968,0.18415721,-0.18415721,0.9828968,0,0)">
          <path
             id="path4457"
             d="m 798.07,37.669 0.18322,0 c 0.0413,0 0.0728,0.0032 0.0945,0.0095 0.0291,0.0086 0.0541,0.02382 0.0748,0.04572 0.0208,0.0219 0.0366,0.04877 0.0474,0.0806 0.0108,0.03161 0.0163,0.07067 0.0163,0.11718 0,0.04086 -0.005,0.07608 -0.0152,0.10566 -0.0124,0.03612 -0.0301,0.06536 -0.0532,0.08771 -0.0174,0.01693 -0.0409,0.03014 -0.0704,0.03962 -0.0221,0.007 -0.0517,0.0105 -0.0887,0.0105 l -0.18864,0 0,-0.49647 m 0.10025,0.08399 0,0.32884 0.0748,0 c 0.028,0 0.0482,-0.0016 0.0606,-0.0047 0.0163,-0.0041 0.0297,-0.01095 0.0403,-0.02066 0.0108,-0.0097 0.0196,-0.02562 0.0264,-0.04775 0.007,-0.02235 0.0102,-0.05272 0.0102,-0.0911 0,-0.03838 -0.003,-0.06784 -0.0102,-0.08839 -0.007,-0.02054 -0.0163,-0.03657 -0.0284,-0.04809 -0.0122,-0.01151 -0.0277,-0.0193 -0.0464,-0.02337 -0.014,-0.0032 -0.0414,-0.0047 -0.0823,-0.0047 l -0.045,0"
             inkscape:connector-curvature="0" />
          <path
             id="path4459"
             d="m 799.02,38.165 -0.10905,0 -0.0434,-0.11277 -0.19845,0 -0.041,0.11277 -0.10634,0 0.19338,-0.49647 0.106,0 0.19879,0.49647 m -0.18457,-0.19642 -0.0684,-0.18423 -0.067,0.18423 0.13546,0"
             inkscape:connector-curvature="0" />
          <path
             id="path4461"
             d="m 799.13,38.165 0,-0.41248 -0.14732,0 0,-0.08399 0.39454,0 0,0.08399 -0.14698,0 0,0.41248 -0.10024,0"
             inkscape:connector-curvature="0" />
          <path
             id="path4463"
             d="m 799.45,38.165 0,-0.49647 0.36812,0 0,0.08399 -0.26787,0 0,0.11006 0.24925,0 0,0.08365 -0.24925,0 0,0.13512 0.27736,0 0,0.08365 -0.37761,0"
             inkscape:connector-curvature="0" />
        </g>
      </g>
    </g>
  </g>
  <metadata
     id="metadata97">
    <rdf:RDF>
      <cc:Work>
        <dc:format>image/svg+xml</dc:format>
        <dc:type
           rdf:resource="http://purl.org/dc/dcmitype/StillImage" />
        <cc:license
           rdf:resource="http://creativecommons.org/publicdomain/zero/1.0/" />
        <dc:publisher>
          <cc:Agent
             rdf:about="http://openclipart.org/">
            <dc:title>Openclipart</dc:title>
          </cc:Agent>
        </dc:publisher>
        <dc:title>Movie Clapper Board</dc:title>
        <dc:date>2011-04-01T14:25:47</dc:date>
        <dc:description />
        <dc:source>https://openclipart.org/detail/130297/movie-clapper-board-by-gnokii</dc:source>
        <dc:creator>
          <cc:Agent>
            <dc:title>gnokii</dc:title>
          </cc:Agent>
        </dc:creator>
        <dc:subject>
          <rdf:Bag>
            <rdf:li>cinema</rdf:li>
            <rdf:li>clapboard</rdf:li>
            <rdf:li>clapper-board</rdf:li>
            <rdf:li>director</rdf:li>
            <rdf:li>film</rdf:li>
            <rdf:li>film making</rdf:li>
            <rdf:li>kino</rdf:li>
            <rdf:li>movie</rdf:li>
            <rdf:li>scene</rdf:li>
            <rdf:li>video</rdf:li>
          </rdf:Bag>
        </dc:subject>
      </cc:Work>
      <cc:License
         rdf:about="http://creativecommons.org/publicdomain/zero/1.0/">
        <cc:permits
           rdf:resource="http://creativecommons.org/ns#Reproduction" />
        <cc:permits
           rdf:resource="http://creativecommons.org/ns#Distribution" />
        <cc:permits
           rdf:resource="http://creativecommons.org/ns#DerivativeWorks" />
      </cc:License>
    </rdf:RDF>
  </metadata>
</svg>
