<?xml version="1.0" encoding="UTF-8" standalone="no"?>
<!-- Created with Inkscape (http://www.inkscape.org/) -->

<svg
   xmlns:dc="http://purl.org/dc/elements/1.1/"
   xmlns:cc="http://creativecommons.org/ns#"
   xmlns:rdf="http://www.w3.org/1999/02/22-rdf-syntax-ns#"
   xmlns:svg="http://www.w3.org/2000/svg"
   xmlns="http://www.w3.org/2000/svg"
   xmlns:xlink="http://www.w3.org/1999/xlink"
   xmlns:sodipodi="http://sodipodi.sourceforge.net/DTD/sodipodi-0.dtd"
   xmlns:inkscape="http://www.inkscape.org/namespaces/inkscape"
   id="svg2"
   sodipodi:docname="openclipart_42_dove_normal_tmp.svg"
   inkscape:export-filename="D:\Cliparts\dove.png"
   viewBox="0 0 306 306"
   inkscape:export-xdpi="92.647057"
   version="1.1"
   inkscape:output_extension="org.inkscape.output.svg.inkscape"
   inkscape:export-ydpi="92.647057"
   inkscape:version="0.91 r13725"
   width="306"
   height="306">
  <title
     id="title5951">White Dove</title>
  <defs
     id="defs4">
    <linearGradient
       id="linearGradient4181"
       inkscape:collect="always">
      <stop
         id="stop4183"
         style="stop-color:#3465a4"
         offset="0" />
      <stop
         id="stop4185"
         style="stop-color:#729fcf"
         offset="1" />
    </linearGradient>
    <linearGradient
       id="linearGradient5350">
      <stop
         id="stop5352"
         style="stop-color:#f2f5f8"
         offset="0" />
      <stop
         id="stop5354"
         style="stop-color:#ffffff"
         offset="1" />
    </linearGradient>
    <linearGradient
       id="linearGradient5927"
       y2="96.281998"
       xlink:href="#linearGradient4181"
       gradientUnits="userSpaceOnUse"
       x2="165.23"
       y1="33.528999"
       x1="215.31"
       inkscape:collect="always" />
    <linearGradient
       id="linearGradient5933"
       y2="291.97"
       xlink:href="#linearGradient5350"
       gradientUnits="userSpaceOnUse"
       x2="231.07001"
       gradientTransform="translate(-27.913,734.96)"
       y1="202.82001"
       x1="109.6"
       inkscape:collect="always" />
    <linearGradient
       id="linearGradient5935"
       y2="257.20999"
       xlink:href="#linearGradient5350"
       gradientUnits="userSpaceOnUse"
       x2="204.49001"
       gradientTransform="translate(-27.913,734.96)"
       y1="287.70999"
       x1="225.35001"
       inkscape:collect="always" />
    <linearGradient
       id="linearGradient5937"
       y2="129.89"
       xlink:href="#linearGradient5350"
       gradientUnits="userSpaceOnUse"
       x2="207.08"
       gradientTransform="translate(-27.913,734.96)"
       y1="131.91"
       x1="234.36"
       inkscape:collect="always" />
    <linearGradient
       inkscape:collect="always"
       xlink:href="#linearGradient4181"
       id="linearGradient3415"
       gradientUnits="userSpaceOnUse"
       x1="215.31"
       y1="33.528999"
       x2="165.23"
       y2="96.281998" />
    <linearGradient
       inkscape:collect="always"
       xlink:href="#linearGradient4181"
       id="linearGradient3417"
       gradientUnits="userSpaceOnUse"
       x1="215.31"
       y1="33.528999"
       x2="165.23"
       y2="96.281998" />
  </defs>
  <sodipodi:namedview
     id="base"
     bordercolor="#666666"
     inkscape:pageshadow="2"
     inkscape:window-y="-8"
     pagecolor="#ffffff"
     inkscape:window-height="660"
     inkscape:window-maximized="1"
     inkscape:zoom="1.7146184"
     inkscape:window-x="1272"
     showgrid="false"
     borderopacity="1.0"
     inkscape:current-layer="g5874"
     inkscape:cx="30.32424"
     inkscape:cy="163.59458"
     inkscape:showpageshadow="false"
     inkscape:window-width="1280"
     inkscape:pageopacity="0.0"
     inkscape:document-units="px" />
  <g
     id="layer1"
     inkscape:label="Calque 1"
     inkscape:groupmode="layer"
     transform="translate(0,-746.36)">
    <g
       id="g5874"
       transform="translate(28.500541,-1.0125e-5)">
      <path
         id="path4692-6-5"
         sodipodi:nodetypes="csscccccccscsccssscccc"
         style="fill:#729fcf"
         d="m 80.097,879.24 c -3.5136,-0.19114 -7.8226,0.9403 -12.054,3.424 -8.4623,4.9673 -10.9,10.905 -11.213,16.89 -0.07244,1.3894 0.09125,3.413 1.9304,4.9654 18.778,13.531 9.8759,17.344 16.765,36.891 6.2308,14.133 18.363,22.218 31.435,29.485 10.155,4.9016 19.918,6.8867 29.057,7.7069 15.463,3.5263 22.712,11.571 29.797,24.281 6.7505,12.798 9.3301,19.172 15.13,46.772 5.129,13.462 57.465,-37.936 39.477,-41.351 -23.834,-6.5535 -27.098,-11.818 -38.012,-21.422 -12.121,-10.665 -17.936,-24.703 -28.871,-38.724 -0.25646,-0.34482 -0.53144,-0.6891 -0.80284,-1.0331 -0.0912,-0.11422 -0.19496,-0.23121 -0.29967,-0.3248 -3.8893,-4.8388 -9.2329,-9.5735 -15.679,-13.736 -0.0389,-0.0317 -0.0817,-0.0677 -0.12115,-0.0984 -3.3552,-2.6922 -8.2876,-5.6797 -15.152,-8.9607 -15.512,-7.4147 -15.039,-11.39 -21.382,-25.1 -4.0467,-8.746 -6.2879,-12.634 -9.3535,-14.701 -2.4215,-2.4722 -5.1536,-4.0487 -7.8275,-4.4436 -0.873,-0.27887 -1.7992,-0.46455 -2.8251,-0.52036 l 3e-5,-3.1e-4 z"
         inkscape:connector-curvature="0" />
      <path
         id="path3968"
         sodipodi:nodetypes="csscccccsccc"
         style="fill:#3465a4"
         d="m 79.899,877.1 c -3.5184,0.0468 -8.875,1.2316 -12.929,3.9955 -8.1072,5.528 -13.608,13.338 -9.1027,19.705 1.2564,1.7755 3.0454,3.477 5.2812,3.9866 16.981,12.403 8.3987,15.557 16.594,34.594 0.18117,0.31536 0.38633,0.61007 0.625,0.90625 4.1896,9.2043 15.179,18.853 29.844,25.312 l 0,-54.969 c -3.3332,-3.5985 -5.087,-8.0475 -9.0312,-15.25 -4.6286,-8.4524 -7.458,-11.927 -10.188,-14.156 -2.7393,-2.2716 -5.6492,-3.318 -8.25,-3.8125 -0.88985,-0.21922 -1.8164,-0.32617 -2.8438,-0.3125 z"
         inkscape:connector-curvature="0" />
      <path
         id="path4692-6"
         style="fill:#adc8e3"
         d="m 149.87,933.45 0,40.656 c 10.977,3.3925 17.342,10.46 23.906,20.562 7.6002,12.312 10.598,18.512 18.25,45.656 6.0272,13.084 54.771,-41.746 36.594,-43.937 -24.222,-4.9273 -27.836,-9.9683 -39.375,-18.812 -12.814,-9.8216 -19.548,-23.438 -31.406,-36.688 -0.27918,-0.32668 -0.58097,-0.64379 -0.875,-0.96875 -0.0987,-0.10774 -0.23295,-0.2262 -0.34375,-0.3125 -1.9508,-2.1164 -4.2166,-4.1709 -6.75,-6.1562 z"
         inkscape:connector-curvature="0" />
      <g
         id="g5240"
         style="fill:url(#linearGradient5927)"
         transform="translate(-27.913,734.96)">
        <path
           id="rect4773-0"
           sodipodi:nodetypes="cccccccc"
           style="fill:url(#linearGradient3415)"
           d="m 130.11,171.1 c 0,0 6.6536,-27.371 13.295,-38.865 5.7861,-11.894 17.545,-24.384 35.523,-43.386 14.072,-18.897 16.754,-25.289 31.574,-59.52 4.6651,-12.223 8.5254,13.636 8.0002,21.758 -0.6135,9.4874 -5.418,18.24 -9.6704,26.633 -17.423,34.387 -63.906,97.108 -63.906,97.108 l -14.816,-3.7272 z"
           inkscape:connector-curvature="0" />
        <path
           id="rect4773-9-2"
           sodipodi:nodetypes="cccccccc"
           style="fill:url(#linearGradient3417)"
           d="m 130.63,185.39 c 0,0 9.668,-26.573 17.265,-37.41 6.7781,-11.313 19.562,-22.678 39.099,-39.959 15.633,-17.531 18.85,-23.65 36.53,-56.375 5.6882,-11.742 7.3439,14.344 6.1314,22.379 -1.4164,9.3865 -6.9493,17.662 -11.901,25.629 -20.288,32.644 -71.956,90.852 -71.956,90.852 l -15.169,-5.1168 z"
           inkscape:connector-curvature="0" />
      </g>
      <path
         id="path4692"
         sodipodi:nodetypes="csscccsccccscsccscsccc"
         style="fill:#ffffff"
         d="m 78.618,878.42 c -3.5184,-0.0496 -7.7785,1.2544 -11.906,3.9062 -8.2556,5.3038 -12.92,14.014 -10.438,19.469 0.90082,1.9798 2.6227,2.3803 4.8438,3.8438 16.813,12.641 7.9858,15.777 15.656,35.031 0.17246,0.32017 0.36328,0.63485 0.59375,0.9375 4.1717,9.8738 15.965,20.449 31.781,27.312 10.344,4.4889 20.643,6.6295 29.344,6.5312 15.772,2.6412 23.159,10.648 30.75,23.062 7.26,12.516 10.094,18.781 17,46.125 5.6666,13.244 55.891,-40.218 37.781,-42.906 -24.078,-5.5891 -27.551,-10.718 -38.844,-19.875 -12.54,-10.169 -18.916,-23.962 -30.406,-37.531 -0.27012,-0.33422 -0.55873,-0.66706 -0.84375,-1 -0.0957,-0.11035 -0.2041,-0.22324 -0.3125,-0.3125 -1.4535,-1.6663 -3.1018,-3.3016 -4.9062,-4.9062 0.004,-6.4031 -7.5863,-16.163 -19.281,-23.969 -9.749,-6.5068 -19.798,-9.9663 -26.469,-9.625 -1.0258,-2.0996 -2.1187,-4.4329 -3.5625,-7.25 -4.3954,-8.576 -6.8806,-11.657 -9.9375,-14.312 -2.9655,-2.1942 -5.3123,-3.838 -8,-4.125 -0.88352,-0.24351 -1.8164,-0.39177 -2.8438,-0.40625 z"
         inkscape:connector-curvature="0" />
      <g
         id="g5488"
         transform="translate(-27.913,734.96)">
        <path
           id="path5175"
           style="fill:#2e3436"
           transform="translate(-0.26786,953.56)"
           d="m 102.77,-799.19 c 0,1.4054 -1.3991,2.5446 -3.125,2.5446 -1.7259,0 -3.125,-1.1393 -3.125,-2.5446 0,-1.4054 1.3991,-2.5446 3.125,-2.5446 1.7259,0 3.125,1.1393 3.125,2.5446 z"
           inkscape:connector-curvature="0" />
        <path
           id="path5175-4"
           style="fill:#888a85"
           transform="matrix(0.49208,-0.26128,0.25505,0.48034,253.24,563.62)"
           d="m 102.77,-799.19 c 0,1.4054 -1.3991,2.5446 -3.125,2.5446 -1.7259,0 -3.125,-1.1393 -3.125,-2.5446 0,-1.4054 1.3991,-2.5446 3.125,-2.5446 1.7259,0 3.125,1.1393 3.125,2.5446 z"
           inkscape:connector-curvature="0" />
      </g>
      <path
         id="path4692-3"
         sodipodi:nodetypes="ccscccccccszsc"
         style="fill:#f2f5f8"
         d="m 58.087,901.13 c -0.66366,0.0286 -1.3244,0.12039 -1.9375,0.3125 0.04451,0.1133 0.07464,0.23307 0.125,0.34375 0.90082,1.9798 2.5781,2.3803 4.8438,3.8438 5.1214,3.797 9.9974,8.5418 11.219,15.031 0.80352,4.7526 0.41363,10.417 4.2188,19.969 6.7945,13.871 19.021,21.515 32.375,28.25 10.344,4.4889 19.063,5.9956 29.531,6.7812 5.8805,1.2479 10.634,2.407 14.656,4.875 -5.5855,-11.683 -12.156,-19.548 -26.312,-23.844 -11.924,-2.282 -18.599,-4.4706 -28.281,-10.25 -12.399,-7.4008 -23.93,-19.942 -25.717,-26.375 -1.7871,-6.4338 -0.94141,-8.2719 -3.6888,-12.656 -2.7799,-4.4359 -7.3811,-6.4387 -11.031,-6.2812 z"
         inkscape:connector-curvature="0" />
      <path
         id="path5360"
         style="fill:url(#linearGradient5933)"
         d="m 182.83,979.98 c 0.47739,0.42704 0.96258,0.86301 1.4688,1.2812 -0.49815,-0.41628 -0.98934,-0.8536 -1.4688,-1.2812 z"
         inkscape:connector-curvature="0" />
      <path
         id="path4692-0"
         style="fill:url(#linearGradient5935)"
         d="m 181.49,978.6 c -3.9446,5.5506 -9.2373,11.427 -14.562,16.281 0.77472,1.1676 1.5426,2.3657 2.3125,3.625 7.26,12.516 10.094,18.781 17,46.125 5.6666,13.244 55.891,-40.218 37.781,-42.906 -24.078,-5.589 -27.551,-10.718 -38.844,-19.875 -1.2927,-1.0482 -2.5135,-2.129 -3.6875,-3.25 z"
         inkscape:connector-curvature="0" />
      <path
         id="path5489-5"
         style="fill:#3465a4"
         d="m 186.62,993 c 4.6043,0.73435 9.7057,2.2537 14.869,4.6342 15.385,7.093 25.502,18.846 22.621,26.242 -0.61973,1.5911 -1.7816,2.8561 -3.3922,3.7835 3.0548,-0.7958 5.258,-2.3625 6.1572,-4.7367 2.6491,-6.9946 -6.8528,-18.194 -21.225,-24.983 -6.859,-3.2402 -13.582,-4.8547 -19.03,-4.9401 z"
         inkscape:connector-curvature="0" />
      <path
         id="path5489-5-0"
         style="fill:#3465a4"
         d="m 182.3,996.16 c 4.4714,1.8278 9.2572,4.5905 13.9,8.2678 13.834,10.956 21.241,25.571 16.57,32.638 -1.0049,1.5205 -2.4791,2.5751 -4.3256,3.1737 3.2726,-0.1284 5.8697,-1.2587 7.3434,-3.5334 4.3415,-6.7012 -2.5765,-20.595 -15.461,-31.001 -6.1492,-4.9662 -12.549,-8.2019 -18.027,-9.5457 z"
         inkscape:connector-curvature="0" />
      <path
         id="path5489-5-0-0"
         style="fill:#3465a4"
         d="m 177.93,999.48 c 4.0881,2.9553 8.2496,6.9159 12.022,11.744 11.241,14.386 14.936,30.739 8.2807,36.528 -1.4316,1.2455 -3.2196,1.9099 -5.2672,2.0278 3.3814,0.7132 6.338,0.2622 8.4495,-1.6087 6.2203,-5.5118 2.8339,-21.027 -7.5815,-34.624 -4.9708,-6.4895 -10.658,-11.332 -15.904,-14.067 z"
         inkscape:connector-curvature="0" />
      <path
         id="rect4773-4"
         sodipodi:nodetypes="cccccc"
         style="fill:#adc8e3"
         d="m 101.55,907.1 c 14.103,-54.375 63.591,-78.169 101.53,-122.86 23.947,-28.474 29.357,-53.945 31.754,-14.407 4.5583,56.036 -5.4275,111.84 -45.909,155.89 -46.953,46.097 -54.247,-15.641 -87.374,-18.626 z"
         inkscape:connector-curvature="0" />
      <path
         id="path3116"
         style="fill:#3465a4"
         d="m 230.06,749.51 c -4.275,0.31196 -12.002,16.923 -26.969,34.719 -37.345,43.99 -85.883,67.746 -100.84,120.34 0.22924,-0.0217 0.44916,-0.0503 0.6875,-0.0625 0.17277,-0.009 0.35397,0.004 0.53125,0 15.601,-50.092 62.828,-70.19 100.19,-110.28 23.623,-25.586 29.783,-49.166 30.312,-12.094 0.58658,16.8 -0.21818,33.496 -2.875,49.75 4.2557,-20.238 5.4541,-41.114 3.75,-62.062 -0.89889,-14.827 -2.2162,-20.5 -4.7812,-20.312 z"
         inkscape:connector-curvature="0" />
      <path
         id="path4053"
         sodipodi:nodetypes="cscccsccc"
         style="fill:#f2f5f8"
         d="m 79.399,878.45 c 0.31647,0.0899 0.63765,0.20649 0.96875,0.34375 0.19957,0.0828 0.39016,0.1507 0.59375,0.25 12.216,9.0863 5.9074,23.699 21.188,26.094 l 0.8125,-0.625 c -1.0258,-2.0996 -2.1187,-4.4329 -3.5625,-7.25 -4.3954,-8.576 -6.8806,-11.657 -9.9375,-14.312 -2.9655,-2.1942 -5.3123,-3.838 -8,-4.125 -0.6532,-0.18003 -1.3371,-0.31466 -2.0625,-0.375 z"
         inkscape:connector-curvature="0" />
      <path
         id="path4771"
         sodipodi:nodetypes="csscscccscccccc"
         style="fill:#729fcf"
         d="m 104.21,904.48 c -0.44264,-0.008 -0.86433,0.01 -1.2812,0.0312 -3.0321,0.15515 -5.339,1.0794 -6.625,2.875 -3.3897,4.733 1.5412,13.926 11.312,22.312 -6.9589,-7.9411 -9.371,-13.812 -8.0408,-18.768 0.24162,-0.90022 1.1937,-3.6249 4.0408,-3.5446 22.304,2.3908 32.487,51.238 65.75,29.312 -8.3817,4.4067 -15.031,4.6174 -20.75,2.4688 0.94109,-6.3451 -6.82,-16.777 -19.188,-25.031 -9.1397,-6.1001 -18.579,-9.5336 -25.219,-9.6562 l 0,5e-5 z m 7.8125,3 c 5.7475,1.3283 12.756,4.7936 19.562,10.062 9.0183,6.981 15.295,15.27 17,21.625 -13.796,-5.2049 -22.197,-24.231 -36.562,-31.688 z"
         inkscape:connector-curvature="0" />
      <path
         id="rect4773"
         sodipodi:nodetypes="cccccccc"
         style="fill:url(#linearGradient5937)"
         d="m 103.4,904.49 c 15.541,-50.23 62.846,-70.129 100.25,-110.27 23.623,-25.586 29.784,-49.168 30.314,-12.096 1.8362,52.591 -9.9162,104.33 -49.674,143.77 -45.897,41.068 -50.093,-16.484 -80.893,-21.401 l 0.0158,-0.0301 -1.9e-4,-4e-5 -0.0156,0.0273 z"
         inkscape:connector-curvature="0" />
      <path
         id="path5489-5-7"
         style="fill:#3465a4"
         d="m 214.87,801.16 c 5.429,-3.4049 10.894,-7.8664 15.768,-13.205 14.524,-15.906 18.549,-33.286 9.0289,-38.824 -2.048,-1.1914 -4.5485,-1.748 -7.3707,-1.7131 4.602,-1.0066 8.695,-0.76339 11.718,1.0294 8.9051,5.2816 5.2499,21.762 -8.1905,36.78 -6.4146,7.1675 -13.919,12.669 -20.954,15.933 z"
         inkscape:connector-curvature="0" />
      <path
         id="path5489-5-7-2"
         style="fill:#3465a4"
         d="m 198.45,841.81 c 5.8932,-1.7182 12.287,-4.5134 18.596,-8.4072 18.798,-11.602 29.794,-28.185 24.594,-37.034 -1.1187,-1.9035 -2.8852,-3.3019 -5.1748,-4.1969 4.1571,0.48069 7.3466,2.0815 8.9825,4.9263 4.8193,8.3808 -5.4773,24.159 -23.006,35.203 -8.3658,5.2708 -16.867,8.4647 -23.991,9.5081 z"
         inkscape:connector-curvature="0" />
      <path
         id="path5489-5-7-2-1"
         style="fill:#3465a4"
         d="m 186.9,868.47 c 5.4994,0.22067 11.733,-0.36306 18.21,-1.9429 19.299,-4.7074 33.401,-16.122 31.524,-25.48 -0.40382,-2.0131 -1.5029,-3.7708 -3.1908,-5.238 3.3933,1.6521 5.643,4.0089 6.2159,7.0068 1.6876,8.8318 -11.589,19.742 -29.65,24.331 -8.6198,2.1901 -16.758,2.5042 -23.109,1.3236 z"
         inkscape:connector-curvature="0" />
      <path
         id="path5489-5-7-2-1-4"
         style="fill:#3465a4"
         d="m 175.32,888.87 c 4.6977,1.303 10.23,2.0725 16.22,2.0461 17.847,-0.0788 32.87,-6.9034 33.572,-15.225 0.15104,-1.7901 -0.36209,-3.5046 -1.4563,-5.092 2.522,2.0904 3.8808,4.5467 3.6311,7.2068 -0.73542,7.8366 -14.919,14.4 -31.667,14.63 -7.9931,0.10953 -15.104,-1.2752 -20.299,-3.5656 z"
         inkscape:connector-curvature="0" />
      <path
         id="path5489-5-7-2-1-4-9"
         style="fill:#3465a4"
         d="m 162.75,906.58 c 4.2137,1.9959 9.2811,3.6251 14.886,4.5788 16.701,2.8416 31.689,-1.138 33.492,-8.8682 0.38776,-1.6629 0.14397,-3.3631 -0.66071,-5.0384 2.0706,2.3827 3.0031,4.9204 2.4033,7.3873 -1.7668,7.2677 -15.935,11.138 -31.628,8.6184 -7.49,-1.2026 -13.949,-3.6698 -18.492,-6.6779 z"
         inkscape:connector-curvature="0" />
      <path
         id="path5489-5-7-2-1-4-9-9"
         style="fill:#3465a4"
         d="m 146.24,923.32 c 3.9255,2.5158 8.7445,4.7764 14.183,6.4355 16.204,4.9432 31.576,2.9027 34.348,-4.5353 0.59621,-1.6001 0.57068,-3.3175 -0.0144,-5.0814 1.7507,2.6268 2.3527,5.2624 1.444,7.633 -2.6771,6.9838 -17.222,9.0204 -32.468,4.5245 -7.2761,-2.1457 -13.369,-5.4146 -17.493,-8.9763 z"
         inkscape:connector-curvature="0" />
      <path
         id="rect4746-1"
         style="fill:#c17d11"
         d="m 60.118,902.04 -1.8438,0.75 c 0.1219,0.27279 0.11078,0.6037 -0.15625,0.78125 -1.8741,1.0974 -7.7726,3.1277 -10.281,3.6562 l -5.5625,2.3438 c 1.5655,-0.18206 3.9975,-0.83466 6.5625,-1.625 5.1301,-1.5807 7.4905,-2.3025 10.188,-3.25 0.49778,-0.38387 0.94107,-1.3865 1.0938,-2.6562 z"
         inkscape:connector-curvature="0" />
      <path
         id="rect4746"
         style="fill:#c17d11"
         d="m 56.493,893.85 c -0.10714,0.0264 -0.18859,0.0933 -0.25,0.21875 -3.877,4.4424 -9.8545,9.8044 -15.281,14.312 -0.9573,1.0872 -0.27318,1.3812 1.3125,1.1875 l 0.03125,0 5.5312,-2.3438 c 2.5087,-0.52859 8.4071,-2.5589 10.281,-3.6562 0.26702,-0.17755 0.27814,-0.50846 0.15625,-0.78125 l 1.8438,-0.75 c 0.11648,-0.97615 0.06538,-2.1041 -0.28125,-3.2812 -0.87017,-2.9551 -2.5938,-5.0909 -3.3438,-4.9062 z m 3.4688,9.125 c -0.06919,0.2665 -0.15754,0.49865 -0.25,0.71875 0.09284,-0.21642 0.18052,-0.45551 0.25,-0.71875 z"
         inkscape:connector-curvature="0" />
      <path
         id="rect5221-4"
         sodipodi:nodetypes="cccc"
         style="fill:#8f5902"
         d="m 57.572,902.41 c 0.61808,-0.22785 1.068,0.79527 0.53179,1.1518 -2.3847,1.3964 -11.353,4.3571 -11.445,3.7416 4.5729,-1.7544 8.3129,-3.3671 10.913,-4.8934 z"
         inkscape:connector-curvature="0" />
      <path
         id="rect5221"
         sodipodi:nodetypes="cccc"
         style="fill:#e9b96e"
         d="m 56.188,895.55 c 0.84979,-0.6784 2.0836,0.76036 1.4286,1.6072 -3.0111,3.4582 -15.521,12.74 -15.982,11.786 6.2517,-5.1307 11.273,-9.6161 14.554,-13.393 z"
         inkscape:connector-curvature="0" />
    </g>
  </g>
  <metadata
     id="metadata87">
    <rdf:RDF>
      <cc:Work>
        <dc:format>image/svg+xml</dc:format>
        <dc:type
           rdf:resource="http://purl.org/dc/dcmitype/StillImage" />
        <cc:license
           rdf:resource="http://creativecommons.org/publicdomain/zero/1.0/" />
        <dc:publisher>
          <cc:Agent
             rdf:about="http://openclipart.org/">
            <dc:title>Openclipart</dc:title>
          </cc:Agent>
        </dc:publisher>
        <dc:title>dove</dc:title>
        <dc:date>2009-11-13T13:22:09</dc:date>
        <dc:description />
        <dc:source>https://openclipart.org/detail/28345/dove-by-jean_victor_balin</dc:source>
        <dc:creator>
          <cc:Agent>
            <dc:title>jean_victor_balin</dc:title>
          </cc:Agent>
        </dc:creator>
        <dc:subject>
          <rdf:Bag>
            <rdf:li>animal</rdf:li>
            <rdf:li>bird</rdf:li>
            <rdf:li>dove</rdf:li>
            <rdf:li>illustration</rdf:li>
            <rdf:li>religion</rdf:li>
          </rdf:Bag>
        </dc:subject>
      </cc:Work>
      <cc:License
         rdf:about="http://creativecommons.org/publicdomain/zero/1.0/">
        <cc:permits
           rdf:resource="http://creativecommons.org/ns#Reproduction" />
        <cc:permits
           rdf:resource="http://creativecommons.org/ns#Distribution" />
        <cc:permits
           rdf:resource="http://creativecommons.org/ns#DerivativeWorks" />
      </cc:License>
    </rdf:RDF>
  </metadata>
</svg>
