<?xml version="1.0" encoding="UTF-8" standalone="no"?>
<!-- Created with Inkscape (http://www.inkscape.org/) -->

<svg
   xmlns:dc="http://purl.org/dc/elements/1.1/"
   xmlns:cc="http://creativecommons.org/ns#"
   xmlns:rdf="http://www.w3.org/1999/02/22-rdf-syntax-ns#"
   xmlns:svg="http://www.w3.org/2000/svg"
   xmlns="http://www.w3.org/2000/svg"
   xmlns:sodipodi="http://sodipodi.sourceforge.net/DTD/sodipodi-0.dtd"
   xmlns:inkscape="http://www.inkscape.org/namespaces/inkscape"
   id="svg2"
   sodipodi:docname="openclipart_644_wavy_checkered_flag.svg"
   viewBox="0 0 583.58886 583.58887"
   version="1.1"
   inkscape:version="0.92.2 5c3e80d, 2017-08-06"
   width="583.58887"
   height="583.58887"
   inkscape:export-filename="/Users/ryan/projects/variant-tap/app/src/main/assets/normals/openclipart_644_wavy_checkered_flag.png"
   inkscape:export-xdpi="84.223679"
   inkscape:export-ydpi="84.223679">
  <defs
     id="defs56" />
  <sodipodi:namedview
     id="base"
     bordercolor="#666666"
     inkscape:pageshadow="2"
     inkscape:window-y="1"
     pagecolor="#ffffff"
     inkscape:window-height="800"
     inkscape:window-maximized="1"
     inkscape:zoom="0.73953475"
     inkscape:window-x="0"
     showgrid="false"
     borderopacity="1.0"
     inkscape:current-layer="layer1"
     inkscape:cx="276.94215"
     inkscape:cy="291.62447"
     showguides="true"
     inkscape:guide-bbox="true"
     inkscape:window-width="1440"
     inkscape:pageopacity="0.0"
     inkscape:document-units="px"
     fit-margin-top="0"
     fit-margin-left="0"
     fit-margin-right="0"
     fit-margin-bottom="0"
     inkscape:pagecheckerboard="false" />
  <g
     id="layer1"
     inkscape:label="Layer 1"
     inkscape:groupmode="layer"
     transform="translate(-52.531612,-150.80957)">
    <g
       id="g4788"
       transform="translate(14.784392,0)">
      <path
         id="path4736"
         d="m 389.67,311.12 c -7.2174,-4.8294 -14.212,-9.2335 -14.226,-9.6222 -0.0469,-1.3536 11.521,-14.049 15.565,-17.135 2.5163,-1.9196 6.3899,-3.3771 8.1723,-3.3771 4.0286,0 8.3541,4.6015 10.49,9.4304 2.0025,4.5269 1.0228,7.4016 -2.6793,18.108 -1.0713,3.0984 -2.5808,6.5936 -2.6953,8.0967 -0.11453,1.5031 1.0434,4.7262 0.76085,4.6912 -0.28255,-0.035 -8.1713,-5.363 -15.389,-10.192 z"
         sodipodi:nodetypes="csssssssc"
         style="color:#000000;fill:#434343;stroke:#434343;stroke-linecap:round;stroke-linejoin:round"
         transform="translate(52.53,151.15)"
         inkscape:connector-curvature="0" />
      <path
         id="path4738"
         d="m 466.02,257.01 -7.7331,-8.0632 5.9967,-12.51 c 9.3958,-18.751 17.784,-21.843 26.793,-14.262 3.7503,3.1556 5.3551,9.3772 3.9281,14.776 -0.59073,2.235 -4.0044,8.0199 -7.5859,13.35 -3.5815,5.3297 -7.4792,10.891 -7.8376,12.523 -0.35849,1.6322 -0.21916,5.4917 -0.67892,5.7759 -0.45976,0.28415 -5.6571,-4.8238 -10.726,-9.7034 l -2.1568,-1.8872 z"
         sodipodi:nodetypes="cccssssscc"
         style="color:#000000;fill:#434343;stroke:#434343;stroke-linecap:round;stroke-linejoin:round"
         transform="translate(52.53,151.15)"
         inkscape:connector-curvature="0" />
      <rect
         id="rect2818"
         style="color:#000000;fill:#000000;stroke:#ffc7c7;stroke-width:0.2;stroke-linecap:round;stroke-linejoin:round"
         transform="matrix(0.78076858,0.62482031,-0.62482031,0.78076858,0,0)"
         ry="5.3836999"
         height="10.767"
         width="601.71002"
         y="239.19"
         x="264.64999" />
      <path
         id="path4600"
         d="m 11.793,345.53 c 24.506,-28.2 51.593,-145.4 106.14,-147.42 18.815,-3.5938 205.68,172.75 283.41,219.35 -22.073,-12.227 -79.899,121.52 -111.23,150.95"
         sodipodi:nodetypes="cccc"
         style="fill:none;stroke:#000000;stroke-width:1px"
         transform="translate(52.53,15.031)"
         inkscape:connector-curvature="0" />
      <path
         id="path4602"
         d="m 401.04,417.3 c 1.392,0.77334 6.8881,3.0236 9.5701,10.575 2.8828,10.513 -11.823,26.289 -2.5653,32.045 37.332,23.211 45.649,-125.24 81.373,-103.78 0,0 -259.1,-199.97 -284.22,-199.31 -28.699,1.4582 -52.575,62.785 -52.575,62.785"
         sodipodi:nodetypes="cccccc"
         style="fill:none;stroke:#000000;stroke-width:1px"
         transform="translate(52.53,15.031)"
         inkscape:connector-curvature="0" />
      <path
         id="path4604"
         d="m 489.08,355.89 c 1.9487,1.1014 11.377,7.215 4.4774,22.251 -2.2888,4.9874 -20.597,24.421 -11.846,30.375 28.537,19.415 71.677,-101.73 71.677,-101.73 -75.351,-29.679 -148.59,-98.942 -261.32,-170.17 -3.4029,24.688 -23.178,39.927 -32.834,50.024"
         sodipodi:nodetypes="cccccc"
         style="fill:none;stroke:#000000;stroke-width:1px"
         transform="translate(52.53,15.031)"
         inkscape:connector-curvature="0" />
      <path
         id="path4659"
         d="M 480.71,271.54 457.97,249.8"
         sodipodi:nodetypes="cc"
         style="fill:none;stroke:#000000;stroke-width:1px"
         transform="translate(52.53,151.15)"
         inkscape:connector-curvature="0" />
      <path
         id="path4661"
         d="M 408.14,323.87 374.729,301.614"
         sodipodi:nodetypes="cc"
         style="fill:none;stroke:#000000;stroke-width:1px"
         transform="translate(52.53,151.15)"
         inkscape:connector-curvature="0" />
      <path
         id="path4663"
         d="M 53.544,239.99 C 87.73,188.51 96.496,118.54 156.814,86.05"
         sodipodi:nodetypes="cc"
         style="fill:none;stroke:#000000;stroke-width:1px"
         transform="translate(52.53,151.15)"
         inkscape:connector-curvature="0" />
      <path
         id="path4663-6"
         sodipodi:nodetypes="cc"
         style="fill:none;stroke:#000000;stroke-width:1px"
         d="M 151.01,428.91 C 185.2,377.43 194.92,307.46 255.23,274.97"
         inkscape:connector-curvature="0" />
      <path
         id="path4663-0"
         sodipodi:nodetypes="cc"
         style="fill:none;stroke:#000000;stroke-width:1px"
         d="M 196.91,467.16 C 240.66,410.89 248.94,354.07 301.6,313.93"
         inkscape:connector-curvature="0" />
      <path
         id="path4663-7"
         sodipodi:nodetypes="cc"
         style="fill:none;stroke:#000000;stroke-width:1px"
         d="m 247.58,507.32 c 42.8,-47.66 48.93,-119.55 102.55,-152.99"
         inkscape:connector-curvature="0" />
      <path
         id="path4663-2"
         sodipodi:nodetypes="cc"
         style="fill:none;stroke:#000000;stroke-width:1px"
         d="m 293.48,546.52 c 42.79,-48.62 51.56,-109.98 109,-150.12"
         inkscape:connector-curvature="0" />
      <path
         id="path4714"
         d="m 69.799,97.527 c 116.36,84.173 197.22,175.87 284.93,234.25"
         sodipodi:nodetypes="cc"
         style="fill:none;stroke:#000000;stroke-width:1px"
         transform="translate(52.53,151.15)"
         inkscape:connector-curvature="0" />
      <path
         id="path4716"
         d="m 38.005,158.96 c 115.7,73.84 177.14,156.09 285.18,225.89"
         sodipodi:nodetypes="cc"
         style="fill:none;stroke:#000000;stroke-width:1px"
         transform="translate(52.53,151.15)"
         inkscape:connector-curvature="0" />
      <path
         id="path4718"
         d="M 92.097,112.97 C 81.987,105.24 73.217,98.417 72.606,97.806 71.765,96.964 73.003,94.779 77.741,88.746 88.08,75.582 97.402,68.24 107.9,64.999 c 8.5214,-2.632 11.929,-2.421 18.242,1.1297 7.6678,4.3125 27.845,18.767 27.845,19.948 0,0.28644 -1.3984,1.3195 -3.1075,2.2957 -10.914,6.2339 -25.856,19.87 -34.915,31.864 -2.8798,3.8126 -5.2914,6.8995 -5.3592,6.8597 -0.0678,-0.0399 -8.3946,-6.3966 -18.504,-14.126 z"
         style="color:#000000;fill:#000000;stroke:#000000;stroke-linecap:round;stroke-linejoin:round"
         transform="translate(52.53,151.15)"
         inkscape:connector-curvature="0" />
      <path
         id="path4720"
         d="m 199.88,202.51 c -2.8924,-2.6975 -13.219,-11.784 -22.948,-20.192 -9.7288,-8.4082 -17.832,-15.651 -18.008,-16.095 -0.38565,-0.9763 4.5999,-7.5472 12.782,-16.826 6.815,-7.7283 16.636,-16.367 25.434,-21.711 l 5.6104,-2.568 22.007,18.426 c 12.104,10.134 22.387,18.733 22.246,19.11 -0.14071,0.37622 -4.3869,4.0249 -8.8305,8.1083 -10.315,9.4787 -17.735,17.838 -25.173,28.359 -3.2528,4.6015 -5.76,9.4362 -6.2958,9.4161 -0.53581,-0.02 -3.9332,-3.3297 -6.8255,-6.0272 z"
         sodipodi:nodetypes="cssscccssssc"
         style="color:#000000;fill:#000000;stroke:#000000;stroke-linecap:round;stroke-linejoin:round"
         transform="translate(52.53,151.15)"
         inkscape:connector-curvature="0" />
      <path
         id="path4722"
         d="m 299.22,288.91 c -2.3152,-1.8808 -13.03,-10.931 -23.811,-20.112 -10.781,-9.1808 -19.766,-16.821 -19.968,-16.978 -0.20163,-0.15704 2.8874,-5.1718 6.8645,-11.144 8.4897,-12.748 17.941,-23.183 27.921,-30.827 l 7.1695,-5.4914 4.6615,3.7165 c 29.238,23.311 47.033,36.969 46.433,37.454 -0.40135,0.32453 -4.9104,3.2398 -8.6522,6.237 -9.3435,7.4841 -20.88,19.698 -29.33,31.052 l -7.0798,9.5129 -4.2095,-3.4197 z"
         sodipodi:nodetypes="cssscccssccc"
         style="color:#000000;fill:#000000;stroke:#000000;stroke-linecap:round;stroke-linejoin:round"
         transform="translate(52.53,151.15)"
         inkscape:connector-curvature="0" />
      <path
         id="path4724"
         d="m 219.04,303.32 c -20.2,-17.492 -41.597,-36.908 -41.408,-37.578 0.37209,-1.3224 21.715,-41.059 25.54,-47.55 1.9541,-3.3164 3.6058,-7.083 4.0326,-6.9219 1.4749,0.55676 45.296,40.574 45.04,41.104 -5.1733,10.71 -27.568,55.504 -27.741,55.488 -0.13457,-0.0128 -2.5928,-2.0566 -5.4628,-4.5417 z"
         sodipodi:nodetypes="csssssc"
         style="color:#000000;fill:#000000;stroke:#000000;stroke-linecap:round;stroke-linejoin:round"
         transform="translate(52.53,151.15)"
         inkscape:connector-curvature="0" />
      <path
         id="path4726"
         d="m 311.19,375.47 c -6.3567,-4.3054 -17.352,-12.096 -24.433,-17.312 l -12.876,-9.4843 8.7169,-15.854 c 12.2,-22.189 20.618,-36.411 21.551,-36.411 0.43645,0 6.9511,4.7446 14.477,10.543 7.5259,5.7989 18.459,13.866 24.296,17.928 l 10.613,7.3843 -3.5492,5.7369 c -1.9521,3.1553 -8.8166,14.665 -15.255,25.577 -6.438,10.912 -11.768,19.813 -11.844,19.78 -0.0765,-0.0332 -5.34,-3.5829 -11.697,-7.8882 z"
         style="color:#000000;fill:#000000;stroke:#000000;stroke-linecap:round;stroke-linejoin:round"
         transform="translate(52.53,151.15)"
         inkscape:connector-curvature="0" />
      <path
         id="path4728"
         d="m 123.9,220.92 c -0.72194,-1.1681 -20.285,-16.796 -32.302,-25.805 -5.1274,-3.8437 -9.3225,-7.3949 -9.3225,-7.8915 0,-2.0559 17.349,-37.6 22.904,-46.927 l 6.0057,-10.082 18.771,15.326 c 26.996,22.042 26.3,19.914 24.752,22.347 -6.1841,9.7208 -10.956,17.864 -19.16,34.575 -5.2286,10.649 -9.8628,19.362 -10.298,19.362 -0.4353,0 -1.0432,-0.40726 -1.3508,-0.90503 z"
         sodipodi:nodetypes="csscccsssc"
         style="color:#000000;fill:#000000;stroke:#000000;stroke-linecap:round;stroke-linejoin:round"
         transform="translate(52.53,151.15)"
         inkscape:connector-curvature="0" />
      <path
         id="path4730"
         d="m 33.904,223.54 c -10.473,-8.46 -18.939,-15.73 -18.815,-16.16 0.12436,-0.4265 1.6797,-3.0518 3.4563,-5.834 1.7766,-2.7822 6.9894,-13.019 11.584,-22.747 4.5946,-9.7288 8.4409,-17.784 8.5474,-17.9 0.26824,-0.29272 10.966,6.857 27.046,18.076 l 13.57,9.4675 -5.2536,11.194 c -6.142,13.087 -14.189,28.44 -18.24,34.798 l -2.8545,4.4814 -19.041,-15.38 z"
         style="color:#000000;fill:#000000;stroke:#000000;stroke-linecap:round;stroke-linejoin:round"
         transform="translate(52.53,151.15)"
         inkscape:connector-curvature="0" />
      <path
         id="path4732"
         d="m 122.91,294.91 c -12.095,-9.7257 -21.862,-18.164 -21.705,-18.752 0.15782,-0.58794 2.3783,-4.6097 4.9344,-8.9373 2.5561,-4.3276 8.2615,-15.389 12.679,-24.582 l 8.0311,-16.713 11.894,10.043 c 16.966,14.325 34.789,30.003 35.152,30.922 0.63945,1.6181 -26.929,45.856 -28.503,45.739 -0.27018,-0.0201 -10.387,-7.994 -22.483,-17.72 z"
         style="color:#000000;fill:#000000;stroke:#000000;stroke-linecap:round;stroke-linejoin:round"
         transform="translate(52.53,151.15)"
         inkscape:connector-curvature="0" />
      <path
         id="path4734"
         d="m 220.76,373.21 c -12.276,-9.8017 -22.464,-17.934 -22.639,-18.071 -0.17552,-0.13742 2.2368,-3.6201 5.3608,-7.7393 6.7546,-8.9065 11.939,-17.066 17.692,-27.848 l 4.2309,-7.9283 13.319,11.275 c 10.337,8.7509 24.626,20.34 31.877,25.855 1.1924,0.90687 -16.945,29.637 -24.135,38.23 l -3.3861,4.0471 -22.32,-17.821 z"
         style="color:#000000;fill:#000000;stroke:#000000;stroke-linecap:round;stroke-linejoin:round"
         transform="translate(52.53,151.15)"
         inkscape:connector-curvature="0" />
      <path
         id="path4740"
         d="M 195.05,116.65 C 213.99,93.291 226.71,40.29 249.14,44.394"
         sodipodi:nodetypes="cc"
         style="fill:none;stroke:#000000;stroke-width:1px"
         transform="translate(52.53,151.15)"
         inkscape:connector-curvature="0" />
      <path
         id="path4742"
         d="m 244.36,157.35 c 22.263,-22.639 33.968,-81.211 52.588,-80.088"
         sodipodi:nodetypes="cc"
         style="fill:none;stroke:#000000;stroke-width:1px"
         transform="translate(52.53,151.15)"
         inkscape:connector-curvature="0" />
      <path
         id="path4744"
         d="m 287.62,194.83 c 19.384,-15.275 41.711,-94.064 58.689,-82.182"
         sodipodi:nodetypes="cc"
         style="fill:none;stroke:#000000;stroke-width:1px"
         transform="translate(52.53,151.15)"
         inkscape:connector-curvature="0" />
      <path
         id="path4746"
         d="m 337.43,234.8 c 23.227,-24.331 37.613,-93.73 58.056,-85.684"
         sodipodi:nodetypes="cc"
         style="fill:none;stroke:#000000;stroke-width:1px"
         transform="translate(52.53,151.15)"
         inkscape:connector-curvature="0" />
      <path
         id="path4748"
         d="m 388.59,272.99 c 14.246,-15.301 25.681,-92.47 49.099,-92.276"
         sodipodi:nodetypes="cc"
         style="fill:none;stroke:#000000;stroke-width:1px"
         transform="translate(52.53,151.15)"
         inkscape:connector-curvature="0" />
      <path
         id="path4750"
         d="m 175.67,41.491 c 100.85,107.6 192.77,142.09 272.76,230.06"
         sodipodi:nodetypes="cc"
         style="fill:none;stroke:#000000;stroke-width:1px"
         transform="translate(52.53,151.15)"
         inkscape:connector-curvature="0" />
      <path
         id="path4752"
         d="M 177.33,101.48 C 167.8325,93.7836 158.667,86.411 156.962,85.096 l -3.1,-2.3904 5.8,-11.768 c 6.3527,-12.889 15.126,-27.198 16.406,-26.758 0.44616,0.15367 9.1964,8.627 19.445,18.83 l 18.634,18.55 -5.8744,11.09 c -3.2309,6.0997 -7.6294,13.73 -9.7744,16.957 l -3.9,5.8662 -17.268,-13.993 z"
         style="color:#000000;fill:#000000;stroke:#000000;stroke-linecap:round;stroke-linejoin:round"
         transform="translate(52.53,151.15)"
         inkscape:connector-curvature="0" />
      <path
         id="path4754"
         d="m 267.65,176.72 c -10.716,-8.9548 -21.299,-18.068 -22.003,-18.739 -1.0612,-1.0107 0.54562,-0.75093 3.3922,-4.4801 3.7623,-4.9289 9.375,-14.313 13.466,-22.513 1.4429,-2.8924 2.5169,-7.1495 2.6894,-7.3414 0.29401,-0.32714 36.369,27.809 41.94,32.458 l 2.5562,2.1332 -5.7325,11.463 c -7.0575,12.893 -13.86,22.068 -16.112,23.475 -1.4545,0.90835 -3.5516,-2.5478 -20.196,-16.456 z"
         sodipodi:nodetypes="csssscccsc"
         style="color:#000000;fill:#000000;stroke:#000000;stroke-linecap:round;stroke-linejoin:round"
         transform="translate(52.53,151.15)"
         inkscape:connector-curvature="0" />
      <path
         id="path4756"
         d="m 377.72,264.26 c -5.5218,-3.9216 -16.603,-12.144 -24.625,-18.272 l -14.585,-11.142 2.3302,-2.4469 c 3.0905,-3.2453 7.9712,-11.45 14.978,-25.18 l 5.7461,-11.259 10.229,7.8644 c 5.6261,4.3254 15.452,12.174 21.834,17.442 l 11.605,9.5774 -3.647,10.55 c -5.021,14.525 -10.271,26.799 -12.207,28.541 -1.4753,1.3271 -2.5114,0.82291 -11.659,-5.6736 z"
         style="color:#000000;fill:#000000;stroke:#000000;stroke-linecap:round;stroke-linejoin:round"
         transform="translate(52.53,151.15)"
         inkscape:connector-curvature="0" />
      <path
         id="path4758"
         d="m 436.52,257.73 c -6.8355,-6.9896 -16.167,-16.098 -20.736,-20.24 l -8.3075,-7.532 3.773,-10.04 c 5.6648,-15.074 11.772,-27.129 16.148,-31.876 4.3659,-4.7364 8.9146,-7.1318 10.798,-5.6866 0.65688,0.5039 11.032,8.4062 23.057,17.561 l 23.048,17.435 -4.8079,0.0668 c -7.9565,1.8817 -16.78,15.665 -25.778,40.268 -2.5003,6.8365 -4.5955,12.502 -4.656,12.591 -0.0605,0.0886 -5.7026,-5.5577 -12.538,-12.547 z"
         sodipodi:nodetypes="ccccsscccsscc"
         style="color:#000000;fill:#000000;stroke:#000000;stroke-linecap:round;stroke-linejoin:round"
         transform="translate(52.53,151.15)"
         inkscape:connector-curvature="0" />
      <path
         id="path4760"
         d="m 336.65,174.89 c -12.862,-9.4608 -23.507,-17.483 -23.8,-17.615 -1.8065,-0.81584 11.988,-27.837 15.59,-33.206 4.8902,-7.2902 11.135,-11.982 13.978,-11.982 1.7902,0 9.2862,5.7209 25.378,17.596 12.561,9.2691 23.997,17.747 24.204,17.931 0.20674,0.18441 -1.4293,-0.1188 -2.4249,0.23429 -6.8571,2.432 -13.097,12.412 -22.511,32.129 -3.5972,7.5343 -6.65,12.19 -6.7841,12.163 -0.1341,-0.0273 -10.768,-7.7902 -23.63,-17.251 z"
         sodipodi:nodetypes="cssssssssc"
         style="color:#000000;fill:#000000;stroke:#000000;stroke-linecap:round;stroke-linejoin:round"
         transform="translate(52.53,151.15)"
         inkscape:connector-curvature="0" />
      <path
         id="path4762"
         d="M 257.67,116.32 C 242.67,103.8 226.38,89.23 222,85.304 l -5.1308,-4.5942 3.5751,-7.0992 c 8.3484,-16.578 15.889,-25.572 23.301,-27.793 4.5523,-1.3639 1.9583,-2.8023 30.979,17.178 18.361,12.641 19.836,12.563 17.723,13.923 -5.5939,3.6004 -10.777,10.232 -18.765,26.509 -4.568,9.3084 -8.2404,18.175 -8.7663,18.191 -0.52589,0.0154 -4.8736,-3.3207 -7.2401,-5.2948 z"
         sodipodi:nodetypes="ccccsssssc"
         style="color:#000000;fill:#000000;stroke:#000000;stroke-linecap:round;stroke-linejoin:round"
         transform="translate(52.53,151.15)"
         inkscape:connector-curvature="0" />
      <path
         id="path4764"
         d="m 270.59,39.202 c 75.525,43.724 161.12,124.3 258.16,186.45"
         sodipodi:nodetypes="cc"
         style="fill:none;stroke:#000000;stroke-width:1px"
         transform="translate(52.53,151.15)"
         inkscape:connector-curvature="0" />
      <path
         id="path4766"
         d="m 335.35,28.173 c -5.0901,35.404 -19.271,34.502 -31.101,54.764"
         sodipodi:nodetypes="cc"
         style="fill:none;stroke:#000000;stroke-width:1px"
         transform="translate(52.53,151.15)"
         inkscape:connector-curvature="0" />
      <path
         id="path4768"
         d="m 382,63.331 c -6.59,29.468 -19.56,37.879 -27.72,54.759"
         sodipodi:nodetypes="cc"
         style="fill:none;stroke:#000000;stroke-width:1px"
         transform="translate(52.53,151.15)"
         inkscape:connector-curvature="0" />
      <path
         id="path4770"
         d="m 423.92,91.727 c -7.602,39.181 -17.598,33.283 -22.311,60.849"
         sodipodi:nodetypes="cc"
         style="fill:none;stroke:#000000;stroke-width:1px"
         transform="translate(52.53,151.15)"
         inkscape:connector-curvature="0" />
      <path
         id="path4772"
         d="m 465.16,121.48 c -5.3804,32.563 -11.4,39.619 -20.283,64.906"
         sodipodi:nodetypes="cc"
         style="fill:none;stroke:#000000;stroke-width:1px"
         transform="translate(52.53,151.15)"
         inkscape:connector-curvature="0" />
      <path
         id="path4774"
         d="m 508.43,149.87 c -4.3229,19.532 -11.256,41.438 -27.044,62.877"
         sodipodi:nodetypes="cc"
         style="fill:none;stroke:#000000;stroke-width:1px"
         transform="translate(52.53,151.15)"
         inkscape:connector-curvature="0" />
      <path
         id="path4776"
         d="m 305.46,60.335 c -5.3919,-3.7028 -14.976,-9.9535 -21.297,-13.89 -6.3216,-3.9369 -11.627,-7.2715 -11.79,-7.4102 -0.16274,-0.13869 0.93099,-1.5388 2.4305,-3.1114 8.0543,-8.4468 14.718,-20.171 17.094,-30.073 0.46829,-1.952 0.9523,-3.5492 1.0756,-3.5492 0.33032,0 24.172,15.422 33.419,21.617 l 7.9805,5.3466 -0.60462,3.2516 c -2.5076,13.486 -8.2186,24.888 -16.24,32.423 l -2.2648,2.1276 -9.8035,-6.7324 z"
         style="color:#000000;fill:#000000;stroke:#000000;stroke-linecap:round;stroke-linejoin:round"
         transform="translate(52.53,151.15)"
         inkscape:connector-curvature="0" />
      <path
         id="path4778"
         d="m 385.15,119.38 -20.646,-15.961 3.5335,-5.431 c 7.1131,-10.933 9.809,-16.784 13.108,-28.448 l 1.7294,-6.1149 20.017,14.444 20.017,14.444 -1.2726,5.5313 c -2.6284,11.424 -5.3425,18.404 -11.538,29.672 l -4.302,7.8246 -20.646,-15.961 z"
         style="color:#000000;fill:#000000;stroke:#000000;stroke-linecap:round;stroke-linejoin:round"
         transform="translate(52.53,151.15)"
         inkscape:connector-curvature="0" />
      <path
         id="path4780"
         d="m 470.94,184.61 c -10.314,-7.4927 -18.757,-13.962 -18.762,-14.375 -0.005,-0.41367 0.85365,-2.8476 1.9076,-5.4088 4.5597,-11.081 8.7682,-25.55 10.932,-37.584 l 0.81475,-4.5315 6.8596,4.597 c 8.096,5.4257 27.042,17.302 31.919,20.007 l 3.4238,1.8998 -0.85111,2.7731 c -0.46812,1.5252 -1.9118,6.6038 -3.2081,11.286 -2.7699,10.004 -6.3883,19.377 -10.977,28.436 l -3.305,6.524 -18.753,-13.623 z"
         style="color:#000000;fill:#000000;stroke:#000000;stroke-linecap:round;stroke-linejoin:round"
         transform="translate(52.53,151.15)"
         inkscape:connector-curvature="0" />
      <path
         id="path4782"
         d="m 423.38,168.79 -21.021,-15.902 1.2026,-5.1491 c 0.66142,-2.832 1.6155,-6.1269 2.1202,-7.322 l 0.91763,-2.1728 7.069,5.5139 c 3.888,3.0326 13.306,10.22 20.929,15.972 7.623,5.7522 14.133,10.697 14.466,10.99 0.34487,0.30236 -0.49228,3.4581 -1.9441,7.3287 -1.4024,3.7387 -2.5877,6.7631 -2.634,6.7208 -0.0463,-0.0423 -9.5436,-7.2328 -21.105,-15.979 z"
         style="color:#000000;fill:#000000;stroke:#000000;stroke-linecap:round;stroke-linejoin:round"
         transform="translate(52.53,151.15)"
         inkscape:connector-curvature="0" />
      <path
         id="path4784"
         d="m 330.81,100.24 c -12.271,-8.9349 -22.893,-16.663 -23.604,-17.173 -1.2579,-0.90282 -1.2464,-0.99662 0.43222,-3.5332 1.9592,-2.9605 7.2014,-9.178 8.0037,-9.4928 0.60483,-0.2373 5.5681,3.3105 29.028,20.749 9.1105,6.7723 16.661,12.59 16.78,12.927 0.11831,0.33766 -0.97863,2.3772 -2.4377,4.5323 -1.459,2.1551 -3.1609,4.9071 -3.782,6.1157 -0.62108,1.2085 -1.3496,2.1798 -1.6189,2.1585 -0.26935,-0.0214 -10.53,-7.3492 -22.801,-16.284 z"
         style="color:#000000;fill:#000000;stroke:#000000;stroke-linecap:round;stroke-linejoin:round"
         transform="translate(52.53,151.15)"
         inkscape:connector-curvature="0" />
      <path
         id="path4786"
         d="m 483.42,272.06 c -5.1803,-3.1584 -3.9792,-7.706 5.8016,-21.966 7.1529,-10.429 9.1247,-17.631 6.5283,-23.845 -1.3297,-3.1825 -2.9236,-4.8655 -8.588,-9.0683 -2.51,-1.8623 -5.3537,-3.6719 -5.3537,-4.0212 0,-0.54042 7.0469,-10.964 8.4505,-12.609 0.25953,-0.30422 3.3954,2.6191 7.21,5.2894 3.8146,2.6703 12.352,8.4322 18.973,12.804 l 12.037,7.9491 -4.412,8.032 c -16.581,30.185 -30.904,43.376 -40.647,37.436 z"
         sodipodi:nodetypes="csssssscccc"
         style="color:#000000;fill:#000000;stroke:#000000;stroke-linecap:round;stroke-linejoin:round"
         transform="translate(52.53,151.15)"
         inkscape:connector-curvature="0" />
    </g>
    <path
       style="fill:#ffffff;fill-opacity:1;stroke:none;stroke-width:1.35220146;stroke-opacity:1"
       d="m 92.366645,258.81426 c -11.155662,-8.95529 -20.781072,-16.76305 -21.3898,-17.35056 -0.608727,-0.58752 1.830204,-6.19035 5.419848,-12.45074 3.589643,-6.26039 9.259864,-17.28351 12.60049,-24.49582 3.340626,-7.21231 6.590968,-13.12302 7.222983,-13.13491 1.357396,-0.0255 39.101244,28.93078 41.538504,31.86751 1.36494,1.64464 0.75494,4.06071 -3.31286,13.12152 -5.4793,12.20486 -19.97645,38.85536 -21.09287,38.77559 -0.3868,-0.0276 -9.83063,-7.3773 -20.986295,-16.33259 z"
       id="path56"
       inkscape:connector-curvature="0"
       transform="translate(52.531612,150.80957)" />
    <path
       style="fill:#ffffff;fill-opacity:1;stroke:none;stroke-width:1.35220146;stroke-opacity:1"
       d="m 185.351,333.23098 -23.30497,-18.86773 6.53256,-9.15503 c 3.59291,-5.03527 10.14367,-15.26279 14.55726,-22.72783 l 8.02469,-13.57279 18.39508,16.38963 c 10.11729,9.01429 20.68636,18.4014 23.48682,20.86024 l 5.09176,4.47062 -3.04866,6.28608 c -3.66557,7.55807 -16.81674,28.06555 -20.7238,32.31596 -1.53817,1.67335 -3.45122,3.00333 -4.25122,2.95552 -0.8,-0.0478 -11.94178,-8.57741 -24.75952,-18.95467 z"
       id="path58"
       inkscape:connector-curvature="0"
       transform="translate(52.531612,150.80957)" />
    <path
       style="fill:#ffffff;fill-opacity:1;stroke:none;stroke-width:1.35220146;stroke-opacity:1"
       d="m 283.51603,411.63893 c -12.16831,-9.72522 -22.30407,-18.16914 -22.52391,-18.76428 -0.21984,-0.59514 2.56464,-4.99853 6.18774,-9.7853 3.62309,-4.78677 9.77953,-13.98787 13.68096,-20.4469 l 7.09352,-11.74368 5.64957,4.56198 c 5.5338,4.46851 37.4525,27.03602 41.22405,29.14668 1.505,0.84225 0.1296,3.89892 -6.46295,14.36321 -8.21105,13.03331 -19.24647,28.20077 -21.55712,29.62883 -0.64222,0.39691 -11.12356,-7.23533 -23.29186,-16.96054 z"
       id="path60"
       inkscape:connector-curvature="0"
       transform="translate(52.531612,150.80957)" />
    <path
       style="fill:#ffffff;fill-opacity:1;stroke:none;stroke-width:1.35220146;stroke-opacity:1"
       d="m 267.47674,331.90477 c -10.0401,-8.20554 -19.95415,-16.6011 -22.03122,-18.6568 l -3.7765,-3.73763 12.7332,-26.43676 c 7.00326,-14.54021 13.38899,-26.84205 14.1905,-27.33741 0.80151,-0.49536 10.15779,6.5935 20.79173,15.75302 10.63394,9.15952 21.2572,18.07421 23.60725,19.81042 l 4.27281,3.15673 -4.42967,6.93485 c -2.43632,3.81416 -9.14046,15.60584 -14.89809,26.20372 -5.75762,10.59788 -10.8592,19.2599 -11.33685,19.24894 -0.47764,-0.011 -9.08306,-6.73355 -19.12316,-14.93908 z"
       id="path62"
       inkscape:connector-curvature="0"
       transform="translate(52.531612,150.80957)" />
    <path
       style="fill:#ffffff;fill-opacity:1;stroke:none;stroke-width:1.35220146;stroke-opacity:1"
       d="m 166.71408,244.61015 c -12.63008,-10.936 -23.14051,-20.31505 -23.35653,-20.84232 -0.57338,-1.39959 14.7423,-32.67578 22.06396,-45.05689 l 6.28102,-10.62137 3.6025,3.27845 c 1.98138,1.80315 12.90642,11.3681 24.27786,21.25544 19.79839,17.21448 20.59386,18.10135 18.75421,20.90901 -2.89103,4.41228 -14.79887,26.01785 -20.22295,36.69252 -8.35278,16.43839 -5.30023,16.98423 -31.40007,-5.61484 z"
       id="path64"
       inkscape:connector-curvature="0"
       transform="translate(52.531612,150.80957)" />
    <path
       style="fill:#ffffff;fill-opacity:1;stroke:none;stroke-width:1.35220146;stroke-opacity:1"
       d="M 74.468653,172.68511 C 56.897171,160.72636 55.284356,159.28907 55.974111,156.20337 c 0.9224,-4.12648 20.24741,-43.06431 25.350191,-51.07793 l 3.679969,-5.779183 11.118296,8.382253 c 6.115063,4.61024 14.944793,11.38922 19.621633,15.06441 l 8.50333,6.68215 -2.34629,3.56069 c -4.9381,7.49396 -13.82353,24.41815 -20.14996,38.37987 -3.622702,7.99489 -6.912012,14.49894 -7.30958,14.45344 -0.397569,-0.0455 -9.38544,-5.97828 -19.973047,-13.18396 z"
       id="path66"
       inkscape:connector-curvature="0"
       transform="translate(52.531612,150.80957)" />
    <path
       style="fill:#ffffff;fill-opacity:1;stroke:none;stroke-width:1.35220146;stroke-opacity:1"
       d="m 153.17532,149.78041 c -9.66342,-7.99489 -19.33277,-15.91676 -21.48742,-17.60416 -3.69113,-2.89066 -3.80745,-3.27817 -2.01249,-6.70421 3.04137,-5.80505 24.16022,-26.57507 32.76347,-32.222306 7.29401,-4.78784 8.10156,-5.023965 11.01668,-3.22125 4.32175,2.672583 41.28946,32.878776 41.26812,33.720056 -0.009,0.37295 -3.45229,2.80781 -7.65073,5.4108 -8.57148,5.31422 -28.38644,24.24339 -32.28315,30.83999 -1.40264,2.37448 -2.88649,4.31725 -3.29744,4.31725 -0.41095,0 -8.65362,-6.54128 -18.31704,-14.53617 z"
       id="path68"
       inkscape:connector-curvature="0"
       transform="translate(52.531612,150.80957)" />
    <path
       style="fill:#ffffff;fill-opacity:1;stroke:none;stroke-width:1.35220146;stroke-opacity:1"
       d="m 245.95196,230.29627 c -11.96012,-10.56495 -21.74567,-19.90467 -21.74567,-20.75494 0,-3.14305 16.26882,-23.25931 27.63493,-34.17035 l 11.72641,-11.25691 7.02531,5.93714 c 3.86392,3.26543 14.17508,11.90805 22.91368,19.20582 8.7386,7.29777 15.88421,13.64685 15.87913,14.10908 -0.005,0.46223 -2.12664,2.28235 -4.71456,4.04473 -7.31785,4.98345 -23.22471,22.38716 -29.91663,32.73182 -3.33116,5.14943 -6.28171,9.36261 -6.55679,9.36261 -0.27509,0 -10.2857,-8.64405 -22.24581,-19.209 z"
       id="path70"
       inkscape:connector-curvature="0"
       transform="translate(52.531612,150.80957)" />
    <path
       style="fill:#ffffff;fill-opacity:1;stroke:none;stroke-width:1.35220146;stroke-opacity:1"
       d="m 353.83151,319.56966 c -8.45031,-6.04802 -19.48371,-14.28226 -24.51867,-18.2983 l -9.15448,-7.3019 4.42177,-6.17841 c 8.99516,-12.56864 21.43598,-26.04889 30.80803,-33.38201 l 9.63977,-7.5426 13.08762,9.91374 c 7.1982,5.45255 17.51108,12.83687 22.91752,16.40959 l 9.82988,6.49586 -5.23165,3.11978 c -5.86692,3.49861 -18.47984,19.16044 -29.26498,36.33918 l -7.17062,11.42146 z"
       id="path72"
       inkscape:connector-curvature="0"
       transform="translate(52.531612,150.80957)" />
    <path
       style="fill:#ffffff;fill-opacity:1;stroke:none;stroke-width:1.35220146;stroke-opacity:1"
       d="m 423.22472,322.46201 c -3.25431,-3.03186 -3.16149,-4.25638 1.31822,-17.39012 1.37147,-4.02091 2.4913,-8.58459 2.48852,-10.14151 -0.009,-5.11702 -5.01782,-11.18983 -13.45759,-16.31671 -4.56814,-2.775 -8.09184,-5.43957 -7.83045,-5.92127 3.40828,-6.28061 9.3963,-20.43436 11.81206,-27.91984 1.6801,-5.20597 3.49152,-9.94708 4.02537,-10.53579 1.1931,-1.3157 38.80529,34.69083 39.92585,38.22142 0.94591,2.98028 -6.62738,23.26584 -13.73697,36.79543 -7.70747,14.66733 -17.38762,19.87651 -24.54501,13.20839 z"
       id="path74"
       inkscape:connector-curvature="0"
       transform="translate(52.531612,150.80957)" />
    <path
       style="fill:#ffffff;fill-opacity:1;stroke:none;stroke-width:1.35220146;stroke-opacity:1"
       d="m 347.16951,230.19367 c -1.90719,-1.64985 -12.09941,-9.99647 -22.64937,-18.54805 -10.54997,-8.55158 -19.18176,-16.00033 -19.18176,-16.55277 0,-0.55244 2.17848,-3.8584 4.84107,-7.34658 2.66258,-3.48818 7.23306,-11.09958 10.1566,-16.91422 2.92354,-5.81464 5.6731,-10.57208 6.11011,-10.57208 0.73172,0 44.37467,31.42486 46.97135,33.82145 2.14952,1.98389 -18.597,39.28972 -21.77471,39.1547 -0.55312,-0.0235 -2.5661,-1.39261 -4.47329,-3.04245 z"
       id="path76"
       inkscape:connector-curvature="0"
       transform="translate(52.531612,150.80957)" />
    <path
       style="fill:#ffffff;fill-opacity:1;stroke:none;stroke-width:1.35220146;stroke-opacity:1"
       d="m 235.7,137.80125 c -11.89937,-10.04551 -22.18204,-18.80643 -22.85038,-19.46871 -0.71707,-0.71058 -0.18945,-2.75684 1.28721,-4.99214 1.3763,-2.08339 5.66512,-9.81298 9.53071,-17.176855 l 7.02833,-13.388868 7.23477,6.727152 c 6.87845,6.395832 28.59805,24.807711 36.71862,31.126661 l 3.79202,2.95073 -4.89027,9.88912 c -5.08364,10.28014 -13.47794,22.78558 -15.21477,22.66625 -0.55056,-0.0378 -10.73686,-8.28783 -22.63624,-18.33334 z"
       id="path78"
       inkscape:connector-curvature="0"
       transform="translate(52.531612,150.80957)" />
    <path
       style="fill:#ffffff;fill-opacity:1;stroke:none;stroke-width:1.35220146;stroke-opacity:1"
       d="m 209.5237,59.712984 -18.02551,-18.062696 6.96399,-6.96399 c 7.66039,-7.660393 15.6365,-12.35088 21.00249,-12.35088 4.02387,0 12.90118,4.258535 28.9058,13.866414 l 11.31827,6.79457 -3.94554,1.658978 c -5.41442,2.276594 -13.61567,11.92928 -19.94356,23.473131 -2.90852,5.305943 -5.9547,9.647168 -6.76931,9.647168 -0.81461,0 -9.59259,-8.128213 -19.50663,-18.062695 z"
       id="path80"
       inkscape:connector-curvature="0"
       transform="translate(52.531612,150.80957)" />
    <path
       style="fill:#ffffff;fill-opacity:1;stroke:none;stroke-width:1.35220146;stroke-opacity:1"
       d="m 304.6996,140.61406 c -11.13383,-8.34921 -20.79001,-16.04707 -21.45818,-17.10634 -1.67418,-2.65414 12.49823,-31.910143 18.88016,-38.974177 2.68603,-2.973114 6.12049,-5.405662 7.63213,-5.405662 2.36877,0 24.2572,14.80017 40.635,27.475929 l 5.16039,3.99393 -3.50278,2.2978 c -5.03232,3.30115 -10.23085,10.85413 -19.21623,27.91939 l -7.88717,14.97953 z"
       id="path82"
       inkscape:connector-curvature="0"
       transform="translate(52.531612,150.80957)" />
    <path
       style="fill:#ffffff;fill-opacity:1;stroke:none;stroke-width:1.35220146;stroke-opacity:1"
       d="m 398.43261,210.69479 -21.1668,-17.00074 5.86183,-12.62967 c 11.14366,-24.00969 19.78586,-33.77228 26.64625,-30.10071 1.64778,0.88187 11.08578,7.67731 20.97332,15.10098 l 17.97736,13.49759 -5.60516,4.79782 c -5.86657,5.02156 -13.0581,18.17667 -19.01168,34.77716 -1.72256,4.80305 -3.44162,8.69356 -3.82013,8.64557 -0.3785,-0.048 -10.21325,-7.73759 -21.85499,-17.088 z"
       id="path84"
       inkscape:connector-curvature="0"
       transform="translate(52.531612,150.80957)" />
    <path
       style="fill:#ffffff;fill-opacity:1;stroke:none;stroke-width:1.35220146;stroke-opacity:1"
       d="m 477.55699,198.71837 -16.41349,-12.67423 2.20472,-6.13108 c 1.2126,-3.37209 2.51377,-6.11945 2.89148,-6.10525 0.37772,0.0142 7.38016,4.90659 15.56098,10.87196 8.18082,5.96537 16.38921,11.94754 18.24087,13.29373 l 3.36666,2.4476 -3.88861,5.61126 c -2.13873,3.0862 -4.26222,5.55479 -4.71886,5.48575 -0.45664,-0.069 -8.21632,-5.82892 -17.24375,-12.79974 z"
       id="path86"
       inkscape:connector-curvature="0"
       transform="translate(52.531612,150.80957)" />
    <path
       style="fill:#ffffff;fill-opacity:1;stroke:none;stroke-width:1.35220146;stroke-opacity:1"
       d="m 392.28724,134.45518 -21.90336,-16.23473 3.6388,-6.02427 c 2.00133,-3.31335 3.94747,-6.01702 4.32474,-6.00816 0.37727,0.009 8.59632,6.14454 18.26456,13.63485 9.66824,7.49031 18.71176,14.4337 20.09671,15.42975 2.3114,1.66235 2.37366,2.37452 0.75852,8.67647 -0.96777,3.77601 -2.1009,6.84192 -2.51809,6.81315 -0.41718,-0.0288 -10.61503,-7.35796 -22.66188,-16.28706 z"
       id="path88"
       inkscape:connector-curvature="0"
       transform="translate(52.531612,150.80957)" />
    <path
       style="fill:#ffffff;fill-opacity:1;stroke:none;stroke-width:1.35220146;stroke-opacity:1"
       d="m 311.41897,75.630111 c -3.71618,-2.667484 -12.99372,-9.115639 -20.61675,-14.329233 -7.62304,-5.213594 -13.86007,-9.909385 -13.86007,-10.435089 0,-0.525705 2.04876,-2.941569 4.55281,-5.368586 l 4.55281,-4.412758 18.09657,11.560504 c 9.95311,6.358278 19.44825,12.63621 21.10031,13.950962 l 3.00375,2.390458 -4.35595,5.696266 c -2.39578,3.132946 -4.66214,5.719032 -5.03638,5.746856 -0.37423,0.02783 -3.72093,-2.131896 -7.4371,-4.79938 z"
       id="path90"
       inkscape:connector-curvature="0"
       transform="translate(52.531612,150.80957)" />
    <path
       style="fill:#ffffff;fill-opacity:1;stroke:none;stroke-width:1.35220146;stroke-opacity:1"
       d="m 355.18439,85.336241 -22.49678,-16.64844 4.75536,-5.935623 c 5.98679,-7.472686 10.84084,-17.719167 11.9741,-25.27631 0.54945,-3.663948 1.46815,-5.609738 2.46755,-5.226229 2.37004,0.909468 42.49482,29.227408 43.33138,30.580982 1.27289,2.059579 -5.65302,20.219374 -11.4022,29.896684 -3.06752,5.163401 -5.70226,9.358605 -5.85497,9.322685 -0.15272,-0.0359 -10.40122,-7.557107 -22.77444,-16.713749 z"
       id="path92"
       inkscape:connector-curvature="0"
       transform="translate(52.531612,150.80957)" />
    <path
       style="fill:#ffffff;fill-opacity:1;stroke:none;stroke-width:1.35220146;stroke-opacity:1"
       d="m 444.15429,153.43344 c -10.85896,-8.21686 -20.07483,-15.47574 -20.4797,-16.13084 -0.40488,-0.65511 1.94444,-6.40055 5.22071,-12.76764 3.27627,-6.36709 6.98737,-15.78162 8.24688,-20.92117 l 2.29002,-9.344632 16.49431,11.698232 c 9.07187,6.43403 17.94532,12.65134 19.71877,13.81626 3.16241,2.07727 3.19214,2.28545 1.54501,10.81761 -2.04748,10.60594 -10.87968,37.77192 -12.2804,37.77192 -0.55662,0 -9.89664,-6.72288 -20.7556,-14.93974 z"
       id="path94"
       inkscape:connector-curvature="0"
       transform="translate(52.531612,150.80957)" />
    <path
       style="fill:#ffffff;fill-opacity:1;stroke:none;stroke-width:1.35220146;stroke-opacity:1"
       d="m 525.70442,212.70885 c -10.01655,-6.72555 -18.372,-12.36136 -18.56767,-12.524 -0.19566,-0.16264 1.79426,-5.0136 4.42205,-10.77991 3.47737,-7.63058 12.83622,-35.1869 12.83622,-37.79511 0,-0.10188 8.82345,4.18608 19.60766,9.52882 10.78421,5.34273 20.34351,9.95934 21.24289,10.25913 1.68709,0.56237 -6.37821,21.73161 -16.41411,43.0826 l -4.91513,10.45676 z"
       id="path96"
       inkscape:connector-curvature="0"
       transform="translate(52.531612,150.80957)" />
  </g>
  <metadata
     id="metadata54">
    <rdf:RDF>
      <cc:Work>
        <dc:format>image/svg+xml</dc:format>
        <dc:type
           rdf:resource="http://purl.org/dc/dcmitype/StillImage" />
        <cc:license
           rdf:resource="http://creativecommons.org/publicdomain/zero/1.0/" />
        <dc:publisher>
          <cc:Agent
             rdf:about="http://openclipart.org/">
            <dc:title>Openclipart</dc:title>
          </cc:Agent>
        </dc:publisher>
        <dc:title>Wavy checkered flag</dc:title>
        <dc:date>2010-05-25T14:01:00</dc:date>
        <dc:description>A checkered flag, used to mark the end of a car race, wavy version. Drawn in Inkscape.</dc:description>
        <dc:source>https://openclipart.org/detail/62779/wavy-checkered-flag-by-j_alves</dc:source>
        <dc:creator>
          <cc:Agent>
            <dc:title>J_Alves</dc:title>
          </cc:Agent>
        </dc:creator>
        <dc:subject>
          <rdf:Bag>
            <rdf:li>automotive</rdf:li>
            <rdf:li>car</rdf:li>
            <rdf:li>checkered</rdf:li>
            <rdf:li>finish</rdf:li>
            <rdf:li>flag</rdf:li>
            <rdf:li>race</rdf:li>
            <rdf:li>racing</rdf:li>
            <rdf:li>sports</rdf:li>
            <rdf:li>sports2010</rdf:li>
            <rdf:li>victory</rdf:li>
          </rdf:Bag>
        </dc:subject>
      </cc:Work>
      <cc:License
         rdf:about="http://creativecommons.org/publicdomain/zero/1.0/">
        <cc:permits
           rdf:resource="http://creativecommons.org/ns#Reproduction" />
        <cc:permits
           rdf:resource="http://creativecommons.org/ns#Distribution" />
        <cc:permits
           rdf:resource="http://creativecommons.org/ns#DerivativeWorks" />
      </cc:License>
    </rdf:RDF>
  </metadata>
</svg>
