<?xml version="1.0" encoding="UTF-8" standalone="no"?>
<!-- made by Andy, It's public domain,  yeah why not-->

<svg
   xmlns:dc="http://purl.org/dc/elements/1.1/"
   xmlns:cc="http://creativecommons.org/ns#"
   xmlns:rdf="http://www.w3.org/1999/02/22-rdf-syntax-ns#"
   xmlns:svg="http://www.w3.org/2000/svg"
   xmlns="http://www.w3.org/2000/svg"
   xmlns:xlink="http://www.w3.org/1999/xlink"
   xmlns:sodipodi="http://sodipodi.sourceforge.net/DTD/sodipodi-0.dtd"
   xmlns:inkscape="http://www.inkscape.org/namespaces/inkscape"
   id="svg4895"
   sodipodi:docname="openclipart_245_hammer.svg"
   sodipodi:modified="true"
   viewBox="0 0 123.16054 123.16054"
   sodipodi:version="0.32"
   version="1.0"
   inkscape:output_extension="org.inkscape.output.svg.inkscape"
   inkscape:version="0.91 r13725"
   width="123.16054"
   height="123.16054">
  <sodipodi:namedview
     id="base"
     bordercolor="#666666"
     inkscape:pageshadow="2"
     guidetolerance="10.0"
     pagecolor="#ffffff"
     gridtolerance="10.0"
     inkscape:zoom="2.9609375"
     objecttolerance="10.0"
     borderopacity="1.0"
     inkscape:current-layer="svg4895"
     inkscape:cx="61.243394"
     inkscape:cy="57.896325"
     inkscape:window-y="48"
     inkscape:window-x="-8"
     inkscape:window-height="945"
     inkscape:pageopacity="0.0"
     inkscape:window-width="1280"
     showgrid="false"
     fit-margin-top="0"
     fit-margin-left="0"
     fit-margin-right="0"
     fit-margin-bottom="0"
     inkscape:window-maximized="1" />
  <defs
     id="defs3">
    <linearGradient
       id="WhiteTransparent">
      <stop
         id="stop6"
         style="stop-color:white"
         offset="0" />
      <stop
         id="stop8"
         style="stop-color:white;stop-opacity:0"
         offset="1" />
    </linearGradient>
    <linearGradient
       id="BlackTransparent">
      <stop
         id="stop11"
         style="stop-color:black"
         offset="0" />
      <stop
         id="stop13"
         style="stop-color:black;stop-opacity:0"
         offset="1" />
    </linearGradient>
    <clipPath
       id="clipoutline2"
       clipPathUnits="userSpaceOnUse">
      <path
         id="outline2"
         d="m 55.8,12 0.76,0.16 c 8.84,-2.94 28.68,8.64 24.26,18.96 -1.12,1.62 -0.93,4.5 0.42,6.31 L 56.43,62.25 c -1.39,-1.39 -4.48,-1.36 -5.9,0 L 9.5,101.63 c -3.74,3.59 -0.8,6.64 0.78,8.25 l 7.36,7.36 c 1.61,1.6 5.86,3.76 8.88,0.56 L 65.24,76.99 c 1.35,-1.42 1.36,-4.47 0,-5.87 0,0 0.01,-0.02 0,-0.02 L 90.15,46.2 c 2.63,2.37 5.114,2.575 7.47,1.93 4.55,-1.245 7.09,3.207 9.81,6.46 l -1.23,1.21 c -1.82,1.84 -1.65,4.94 0.39,6.98 2.04,2.04 5.15,2.21 6.97,0.39 l 8.14,-8.13 c 1.82,-1.84 1.65,-4.94 -0.4,-6.97 -1.84,-1.85 -4.51,-2.09 -6.37,-0.77 -5.58,-6.26 -2.65,-7.2 -10.01,-15.35 L 91.13,17.86 C 81.2,8.12 68.3,8.13 55.8,12 Z"
         inkscape:connector-curvature="0" />
    </clipPath>
    <!-- -->
    <linearGradient
       id="linearGradient2646"
       y2="6037.5"
       xlink:href="#BlackTransparent"
       gradientUnits="userSpaceOnUse"
       x2="2375.5"
       y1="6145.2998"
       x1="2483"
       inkscape:collect="always" />
    <linearGradient
       id="linearGradient2648"
       y2="124"
       xlink:href="#WhiteTransparent"
       gradientUnits="userSpaceOnUse"
       x2="626.09998"
       gradientTransform="matrix(0.0775,0.0775,-0.36,0.36,78.84,-44.8)"
       y1="124"
       x1="577.03003"
       inkscape:collect="always" />
    <linearGradient
       id="linearGradient2650"
       y2="368.26999"
       xlink:href="#WhiteTransparent"
       gradientUnits="userSpaceOnUse"
       x2="146.14999"
       gradientTransform="matrix(0.3,0.3,-0.09,0.09,78.84,-44.8)"
       y1="288.57001"
       x1="146.14999"
       inkscape:collect="always" />
    <linearGradient
       id="linearGradient2652"
       y2="-1.72"
       xlink:href="#WhiteTransparent"
       gradientUnits="userSpaceOnUse"
       x2="258.95999"
       gradientTransform="matrix(0.33,0.33,-0.0944,0.0944,9.03,-48.1)"
       y1="62.740002"
       x1="258.95999"
       inkscape:collect="always" />
    <linearGradient
       id="linearGradient2654"
       y2="286.56"
       xlink:href="#BlackTransparent"
       gradientUnits="userSpaceOnUse"
       x2="419.88"
       gradientTransform="matrix(0.0998,0.0998,-0.28,0.28,78.84,-44.8)"
       y1="286.56"
       x1="543.09998"
       inkscape:collect="always" />
    <linearGradient
       id="linearGradient2656"
       y2="254.83"
       xlink:href="#WhiteTransparent"
       gradientUnits="userSpaceOnUse"
       x2="615.59003"
       gradientTransform="matrix(0.0807,0.0775,-0.35,0.36,77.14,-45.89)"
       y1="254.36"
       x1="512.70001"
       inkscape:collect="always" />
    <linearGradient
       id="linearGradient2658"
       y2="118.3"
       xlink:href="#WhiteTransparent"
       gradientUnits="userSpaceOnUse"
       x2="638.29999"
       gradientTransform="matrix(0.1,0.1,-0.22,0.2,75.6,-33.53)"
       y1="69.989998"
       x1="637.03003"
       inkscape:collect="always" />
  </defs>
  <style
     id="style31"
     type="text/css">/* Specular Highlighting */
		.low-specularity	{opacity:0.25;}
		.specularity		{opacity:0.5;}
		.high-specularity	{opacity:0.75;}
		.full-specularity	{opacity:1;}
	/* Shading */
		.low-shade	{opacity:0.25;}
		.shade		{opacity:0.5;}
		.high-shade	{opacity:0.75;}
		.full-shade	{opacity:1;}
	/* Tango palette fill/stroke */
		.black		{fill:#000;}
		.aluminium1	{fill:#eeeeec;}
		.aluminium2	{fill:#d3d7cf;}
		.aluminium6	{fill:#2e3436;}
		.chocolate3	{fill:#8f5902;}
		.chocolate2	{fill:#c17d11;}
		.aluminium4	{fill:#888a85;}
	/* Shadows: Back-Shadows &amp; Base Shadows */
		.base-shadow	{opacity:0.4;}
		.outline-big	{stroke:black;stroke-width:8;opacity:0.25;stroke-linejoin:round;}
		.outline-small	{stroke:black;stroke-width:4;opacity:0.5;stroke-linejoin:round;}
		.stroke-highlight	{fill:none;stroke:white;stroke-opacity:0.2;stroke-width:4;stroke-linejoin:round;}</style>
  <g
     id="hammer"
     transform="translate(-3.7698059,-2.9519193)">
    <use
       id="use50"
       style="opacity:0.25;stroke:#000000;stroke-width:8;stroke-linejoin:round"
       class="outline-big"
       xlink:href="#outline2"
       height="128"
       width="128"
       y="0"
       x="0" />
    <use
       id="use52"
       style="opacity:0.5;stroke:#000000;stroke-width:4;stroke-linejoin:round"
       class="outline-small stroke-aluminium5"
       xlink:href="#outline2"
       height="128"
       width="128"
       y="0"
       x="0" />
    <path
       id="path54"
       class="aluminium2"
       style="fill:#d3d7cf"
       d="M 82.92,35.75 53.47,65.2 62.3,74.03 91.75,44.59 82.92,35.75 Z"
       inkscape:connector-curvature="0" />
    <path
       id="path56"
       class="specularity"
       style="opacity:0.5;fill:url(#linearGradient2646)"
       d="M 88.93,41.76 59.48,71.2 62.3,74.03 91.75,44.59 88.93,41.76 Z"
       inkscape:connector-curvature="0" />
    <path
       id="path58"
       style="fill:url(#linearGradient2648)"
       d="M 86.46,37.04 57.13,66.37 60.92,70.16 89.5,40.08 86.46,37.04 Z"
       inkscape:connector-curvature="0" />
    <path
       id="path60"
       class="aluminium6"
       style="fill:#2e3436"
       d="m 55.8,12 0.76,0.16 c 8.84,-2.94 28.68,8.64 24.26,18.96 -1.12,1.62 -0.93,4.5 0.42,6.31 l 8.91,8.77 c 2.63,2.37 5.11,2.57 7.47,1.93 4.55,-1.23 7.08,3.2 9.81,6.46 l -1.23,1.21 c -1.82,1.84 -1.65,4.94 0.39,6.98 2.04,2.04 5.15,2.21 6.97,0.39 l 8.14,-8.13 c 1.82,-1.84 1.65,-4.94 -0.4,-6.97 -1.84,-1.85 -4.51,-2.09 -6.37,-0.77 -5.58,-6.26 -2.65,-7.2 -10.01,-15.35 L 91.13,17.86 C 81.2,8.12 68.3,8.13 55.8,12 Z"
       inkscape:connector-curvature="0" />
    <path
       id="path62"
       class="specularity"
       style="opacity:0.5;fill:url(#linearGradient2650)"
       d="m 114.93,47.3 c -5.58,-6.26 -2.65,-7.2 -10.01,-15.35 L 91.13,17.86 C 85.44,12.28 78.77,9.9 71.77,9.6 l 41.13,41.53 2.98,-2.73 -0.95,-1.1 z"
       inkscape:connector-curvature="0" />
    <path
       id="path64"
       class="low-specularity"
       style="opacity:0.5;fill:url(#linearGradient2652)"
       d="m 81.45,28 c 0.05,1 -0.179,2 -0.65,3.12 -1.1,1.62 -0.91,4.5 0.44,6.31 l 8.91,8.77 c 2.63,2.37 5.11,2.57 7.47,1.93 1.08,-0.33 2.06,-0.27 2.98,0 C 103.4,48.9 81.44,27.58 81.45,27.9 l 0,0.1 z"
       inkscape:connector-curvature="0" />
    <path
       id="path66"
       style="fill:#3465a4"
       d="m 56.43,62.25 c -1.39,-1.39 -4.48,-1.36 -5.9,0 L 9.5,101.63 c -3.74,3.59 -0.82,6.64 0.78,8.25 l 7.36,7.36 c 1.61,1.6 5.86,3.76 8.88,0.56 L 65.24,76.99 c 1.35,-1.42 1.36,-4.47 0,-5.87 0,0 0.01,-0.02 0,-0.02 l -8.81,-8.85 z"
       inkscape:connector-curvature="0" />
    <path
       id="path68"
       class="low-shade"
       style="opacity:0.5;fill:url(#linearGradient2654)"
       d="m 10.27,109.87 7.36,7.37 c 1.61,1.6 5.73,3.89 8.75,0.71 L 65.25,76.98 c 1.35,-1.43 1.39,-4.5 0,-5.88 l -8.83,-8.84 -46.15,47.61 z"
       inkscape:connector-curvature="0" />
    <path
       id="path70"
       class="specularity"
       style="opacity:0.5;fill:url(#linearGradient2656)"
       d="m 51.2,65.7 -38.88,38.04 c -1.62,1.56 -1.07,3.75 0.1,4.89 L 16.55,112.6 58.92,69 55,65.32 c -0.84,-0.8 -2.8,-0.57 -3.8,0.38 z"
       inkscape:connector-curvature="0" />
    <use
       id="use72"
       style="fill:none;stroke:#ffffff;stroke-width:4;stroke-linejoin:round;stroke-opacity:0.2"
       clip-path="url(#clipoutline2)"
       class="stroke-highlight"
       xlink:href="#outline2"
       height="128"
       width="128"
       y="0"
       x="0" />
    <path
       id="path74"
       style="fill:url(#linearGradient2658)"
       d="m 120.45,49.26 c 1.51,1.44 1.8,3.44 -0.28,5.36 l -3.87,3.63 c -2.08,1.95 -7.52,-3.25 -5.45,-5.19 l 3.88,-3.63 c 2.07,-1.95 4.21,-1.61 5.72,-0.17 z"
       inkscape:connector-curvature="0" />
  </g>
  <metadata
     id="metadata35">
    <rdf:RDF>
      <cc:Work>
        <dc:format>image/svg+xml</dc:format>
        <dc:type
           rdf:resource="http://purl.org/dc/dcmitype/StillImage" />
        <cc:license
           rdf:resource="http://creativecommons.org/publicdomain/zero/1.0/" />
        <dc:publisher>
          <cc:Agent
             rdf:about="http://openclipart.org/">
            <dc:title>Openclipart</dc:title>
          </cc:Agent>
        </dc:publisher>
        <dc:title>Hammer</dc:title>
        <dc:date>2006-08-30T00:03:02</dc:date>
        <dc:description>I removed the wrench and uploaded just the hammer from this. Its a cheap remix, but explains the concept visually :)</dc:description>
        <dc:source>https://openclipart.org/detail/73/hammer-by-rejon</dc:source>
        <dc:creator>
          <cc:Agent>
            <dc:title>rejon</dc:title>
          </cc:Agent>
        </dc:creator>
        <dc:subject>
          <rdf:Bag>
            <rdf:li>blue</rdf:li>
            <rdf:li>colour</rdf:li>
            <rdf:li>construction</rdf:li>
            <rdf:li>contour</rdf:li>
            <rdf:li>glossy</rdf:li>
            <rdf:li>hammer</rdf:li>
            <rdf:li>icon</rdf:li>
            <rdf:li>metallic</rdf:li>
            <rdf:li>remix</rdf:li>
            <rdf:li>stylized</rdf:li>
            <rdf:li>tool</rdf:li>
            <rdf:li>work</rdf:li>
          </rdf:Bag>
        </dc:subject>
      </cc:Work>
      <cc:License
         rdf:about="http://creativecommons.org/publicdomain/zero/1.0/">
        <cc:permits
           rdf:resource="http://creativecommons.org/ns#Reproduction" />
        <cc:permits
           rdf:resource="http://creativecommons.org/ns#Distribution" />
        <cc:permits
           rdf:resource="http://creativecommons.org/ns#DerivativeWorks" />
      </cc:License>
    </rdf:RDF>
  </metadata>
</svg>
