<?xml version="1.0" encoding="UTF-8" standalone="no"?>
<!-- Created with Inkscape (http://www.inkscape.org/) -->

<svg
   xmlns:dc="http://purl.org/dc/elements/1.1/"
   xmlns:cc="http://creativecommons.org/ns#"
   xmlns:rdf="http://www.w3.org/1999/02/22-rdf-syntax-ns#"
   xmlns:svg="http://www.w3.org/2000/svg"
   xmlns="http://www.w3.org/2000/svg"
   xmlns:xlink="http://www.w3.org/1999/xlink"
   xmlns:sodipodi="http://sodipodi.sourceforge.net/DTD/sodipodi-0.dtd"
   xmlns:inkscape="http://www.inkscape.org/namespaces/inkscape"
   id="svg2"
   sodipodi:docname="openclipart_636_taco.svg"
   viewBox="0 0 438.69196 438.69196"
   version="1.1"
   inkscape:version="0.91 r13725"
   width="438.69196"
   height="438.69196">
  <defs
     id="defs6">
    <linearGradient
       id="linearGradient4019"
       inkscape:collect="always">
      <stop
         id="stop4021"
         style="stop-color:#d7f4e3"
         offset="0" />
      <stop
         id="stop4023"
         style="stop-color:#d7f4e3;stop-opacity:0"
         offset="1" />
    </linearGradient>
    <linearGradient
       id="linearGradient4279"
       y2="545.53998"
       gradientUnits="userSpaceOnUse"
       x2="9.3491001"
       y1="43.296001"
       x1="106.51"
       inkscape:collect="always">
      <stop
         id="stop3029"
         style="stop-color:#e3b200"
         offset="0" />
      <stop
         id="stop3031"
         style="stop-color:#aa8800"
         offset="1" />
    </linearGradient>
    <linearGradient
       id="linearGradient4281"
       y2="163.92"
       xlink:href="#linearGradient4019"
       gradientUnits="userSpaceOnUse"
       x2="107.92"
       y1="175.41"
       x1="44.946999"
       inkscape:collect="always" />
    <linearGradient
       id="linearGradient4285"
       y2="479.07999"
       gradientUnits="userSpaceOnUse"
       x2="-168.67"
       y1="-40.048"
       x1="435.34"
       inkscape:collect="always">
      <stop
         id="stop3908"
         style="stop-color:#aa8800"
         offset="0" />
      <stop
         id="stop3910"
         style="stop-color:#eeb534;stop-opacity:0"
         offset="1" />
    </linearGradient>
    <linearGradient
       id="linearGradient4287"
       y2="285.07999"
       gradientUnits="userSpaceOnUse"
       x2="103.97"
       y1="30.417999"
       x1="272.67001"
       inkscape:collect="always">
      <stop
         id="stop3021"
         style="stop-color:#eeb534"
         offset="0" />
      <stop
         id="stop3023"
         style="stop-color:#eeb534;stop-opacity:0"
         offset="1" />
    </linearGradient>
    <linearGradient
       inkscape:collect="always"
       xlink:href="#linearGradient4019"
       id="linearGradient3398"
       gradientUnits="userSpaceOnUse"
       x1="44.946999"
       y1="175.41"
       x2="107.92"
       y2="163.92" />
    <linearGradient
       inkscape:collect="always"
       xlink:href="#linearGradient4019"
       id="linearGradient3400"
       gradientUnits="userSpaceOnUse"
       x1="44.946999"
       y1="175.41"
       x2="107.92"
       y2="163.92" />
  </defs>
  <sodipodi:namedview
     id="namedview4"
     bordercolor="#666666"
     inkscape:pageshadow="2"
     guidetolerance="10"
     pagecolor="#ffffff"
     gridtolerance="10"
     inkscape:window-maximized="1"
     inkscape:zoom="1.1309169"
     objecttolerance="10"
     borderopacity="1"
     inkscape:current-layer="g4224"
     inkscape:cx="239.01739"
     inkscape:cy="190.30236"
     inkscape:window-y="-8"
     inkscape:window-x="1272"
     inkscape:window-width="1280"
     showgrid="false"
     inkscape:pageopacity="0"
     inkscape:window-height="660"
     fit-margin-top="0"
     fit-margin-left="0"
     fit-margin-right="0"
     fit-margin-bottom="0" />
  <g
     id="g4224"
     transform="matrix(1.2075,0,0,1.2075,-9.3165177,46.006447)">
    <g
       id="g3402"
       transform="translate(0,-23.408064)">
      <path
         inkscape:connector-curvature="0"
         style="fill:#f1ca00"
         sodipodi:nodetypes="ssssccsssssssssssss"
         d="M 58.343,324.32 C 43.853,320.9061 30.747,304.025 21.145,276.408 16.0408,261.727 11.033,241.827 9.05,228.343 6.7607,212.778 7.5095,184.316 10.5874,169.908 c 6.4277,-30.089 20.492,-58.002 40.813,-81 36.872,-38.766 95.04,-59.688 130.33,-69.916 16.472,-7.0578 34.62,-6.6356 54.173,-6.6508 16.561,-0.01285 29.316,1.9412 43.704,6.6958 11.691,3.863 29.673,12.121 34.634,15.905 1.7778,1.356 3.5143,2.4654 3.859,2.4654 1.411,0 10.52,7.5829 18.35,15.275 13.472,13.235 22.988,29.272 28.87,48.653 2.1129,6.9618 2.6188,10.731 2.6939,20.071 0.0851,10.586 -0.1282,11.971 -2.6847,17.43 -3.7275,7.9594 -8.3152,13.347 -16.446,19.314 -7.4864,5.4938 -58.209,35.434 -125.78,74.241 -59.241,34.025 -86.535,50.491 -114.5,69.073 -28.961,19.245 -31.047,20.459 -38.46,22.389 -6.5991,1.7184 -6.4978,1.7144 -11.805,0.46395 z"
         id="path2998" />
      <path
         inkscape:radius="-4.9911098"
         inkscape:original="M 235.90625 12.34375 C 216.3541 12.358917 198.19037 11.942155 181.71875 19 C 146.42729 29.228018 88.27844 50.140329 51.40625 88.90625 C 31.0849 111.90472 17.02147 139.81738 10.59375 169.90625 C 7.51587 184.31414 6.77318 212.77924 9.0625 228.34375 C 11.04588 241.82819 16.05201 261.72493 21.15625 276.40625 C 30.75786 304.02339 43.85343 320.89862 58.34375 324.3125 C 63.65137 325.56296 63.55717 325.59339 70.15625 323.875 C 77.56952 321.9446 79.632835 320.71328 108.59375 301.46875 C 136.55865 282.88607 163.8525 266.43172 223.09375 232.40625 C 290.66166 193.59833 341.38861 163.65005 348.875 158.15625 C 357.00563 152.18969 361.61627 146.80316 365.34375 138.84375 C 367.90021 133.38484 368.11635 131.99245 368.03125 121.40625 C 367.95614 112.06583 367.42539 108.30557 365.3125 101.34375 C 359.43039 81.962565 349.90933 65.922623 336.4375 52.6875 C 328.60763 44.995203 319.50475 37.40625 318.09375 37.40625 C 317.74906 37.40625 316.02776 36.293461 314.25 34.9375 C 309.28882 31.153422 291.28426 22.894265 279.59375 19.03125 C 265.20529 14.276725 252.46743 12.3309 235.90625 12.34375 z "
         d="m 235.91016,17.333984 c -19.62548,0.01522 -37.04129,-0.252758 -52.22657,6.253907 a 4.991609,4.991609 0 0 1 -0.57617,0.205078 C 148.17495,33.916947 90.77434,54.806627 55.085938,92.283203 35.368508,114.62278 21.716757,141.72903 15.474609,170.94922 12.643037,184.20412 11.860787,213.07322 14,227.61719 c 1.910286,12.98749 6.893768,32.83411 11.871094,47.15039 9.346451,26.88322 22.046979,41.96159 33.617187,44.6875 5.338043,1.25763 2.813773,1.30753 9.410157,-0.41016 3.565475,-0.92844 5.069039,-1.38307 9.880859,-4.1914 4.811819,-2.80834 12.576915,-7.92184 27.052733,-17.54102 28.08056,-18.65953 55.50565,-35.19254 114.77539,-69.23438 33.7709,-19.39646 63.3335,-36.57841 85.3711,-49.58789 22.03759,-13.00947 37.0476,-22.2324 39.94336,-24.35742 7.70106,-5.65133 11.47848,-10.09517 14.90234,-17.40625 1.23202,-2.63078 1.6492,-3.67121 1.92187,-5.43945 0.27267,-1.76824 0.33719,-4.58247 0.29493,-9.83984 -0.0737,-9.16214 -0.46861,-11.94814 -2.50391,-18.6543 -5.66968,-18.681248 -14.72528,-33.898723 -27.59766,-46.544923 -3.8105,-3.743551 -7.97339,-7.500529 -11.27539,-10.251953 -1.651,-1.375712 -3.10026,-2.505867 -4.0957,-3.210938 -0.39211,-0.277733 -0.62419,-0.41736 -0.81445,-0.533203 0.20786,0.06917 0.47898,0.144531 1.33984,0.144531 -1.38585,0 -1.68348,-0.263447 -2.0293,-0.40039 -0.34582,-0.136943 -0.57442,-0.253594 -0.79687,-0.371094 -0.44491,-0.234999 -0.83486,-0.474587 -1.25977,-0.748047 -0.84981,-0.54692 -1.80214,-1.220922 -2.78515,-1.970703 -1.55792,-1.188279 -7.41952,-4.400297 -13.85938,-7.355469 -6.43985,-2.955172 -13.77206,-5.942722 -19.33594,-7.78125 -13.94041,-4.606473 -25.94894,-6.448092 -42.11718,-6.435547 z"
         sodipodi:type="inkscape:offset"
         style="fill:url(#linearGradient4279)"
         id="path3002" />
      <path
         d="m 39.362,101.66 14.268,1.9063 8.7698,-2.8836 2.1583,9.2757 7.3867,1.3157 c 0,0 -1.2657,21.368 1.5678,16.157 2.8335,-5.2111 12.834,-7.8754 12.834,-7.8754 l 1.3658,6.5942 -15.229,10.624 c 0,0 -17.692,10.186 -17.101,3.3048 0.59053,-6.8808 3.3567,-15.279 3.3567,-15.279 l -4.1993,-1.3831 -3.1702,-10.726 -9.0565,0.92722 z"
         inkscape:connector-curvature="0"
         style="fill:#73cb2b"
         id="path3997" />
      <path
         inkscape:connector-curvature="0"
         style="fill:#549c1c"
         sodipodi:nodetypes="zzzzzzzzczzzzzzzzzzzz"
         d="m 25.01,250.46 c 9.596,7.1709 31.104,-3.2068 33.764,-11.255 2.6594,-8.0477 -9.2582,-6.7408 -8.7535,-12.505 0.50471,-5.7642 11.398,-8.0644 13.756,-13.756 2.3573,-5.6911 -3.4656,-12.589 0,-17.507 3.4656,-4.9177 11.253,-3.9633 17.507,-6.2525 6.254,-2.2892 9.5494,3.4742 20.008,-7.503 10.4586,-10.9772 5.9331,-42.853 21.259,-66.277 15.325,-23.423 73.78,-65.026 73.78,-65.026 0,0 -53.192,15.546 -65.026,8.7535 -11.834,-6.7928 -0.97348,-11.271 -6.2525,-15.006 -5.27902,-3.735 -17.811,-5.6945 -22.509,-1.2505 -4.6978,4.444 1.8576,9.0246 0,16.257 -1.8576,7.2319 -6.1822,16.397 -13.756,25.01 -7.5733,8.6126 -22.33,18.068 -32.513,23.76 -10.183,5.6918 -26.503,7.6385 -27.511,11.255 -1.008,3.616 11.345,8.9671 10.004,18.758 -1.3407,9.7905 -30.192,23.794 -26.261,27.511 3.9314,3.7172 25.486,-3.9527 31.263,7.503 5.7761,11.456 -14.585,28.067 -17.507,41.267 -2.9218,13.199 -10.846,29.094 -1.2505,36.265 z"
         id="path3977" />
      <path
         d="m 67.654,228.06 -4.033,-13.818 1.5301,-9.104 -9.495,-0.73699 -2.413,-7.1044 c 0,0 -20.933,4.4688 -16.208,0.88294 4.725,-3.58586 5.853,-13.874 5.853,-13.874 l -6.7247,-0.35726 -8.2099,16.656 c 0,0 -7.4055,19.024 -0.69207,17.404 6.7134,-1.6199 14.6,-5.6192 14.6,-5.6192 l 1.9996,3.9432 11.081,1.5189 0.44708,9.0928 z"
         inkscape:connector-curvature="0"
         style="fill:#73cb2b"
         id="path3989" />
      <path
         d="m 69.365,221.22 6.8002,-12.687 7.4689,-5.4259 -6.2605,-7.1766 3.254,-6.7607 c 0,0 -18.071,-11.473 -12.187,-10.723 5.884,0.75031 13.895,-5.8024 13.895,-5.8024 l -4.5493,-4.9652 -17.526,6.1368 c 0,0 -18.61,8.3903 -12.684,11.937 5.9261,3.5462 14.356,6.2157 14.356,6.2157 l -1.3348,4.2149 6.8449,8.8457 -6.0499,6.8028 z"
         inkscape:connector-curvature="0"
         style="fill:#456f00"
         id="path3991" />
      <path
         inkscape:connector-curvature="0"
         style="fill:#456f00"
         d="m 60.892,216.88 -12.844,6.4987 -9.2302,0.1655 1.0169,9.4691 -6.5413,3.675 c 0,0 8.2321,19.759 3.8405,15.772 -4.3916,-3.9873 -14.712,-3.2093 -14.712,-3.2093 l 0.88208,6.6762 17.879,5.0161 c 0,0 20.059,3.791 17.235,-2.5114 -2.8237,-6.3025 -8.2014,-13.322 -8.2014,-13.322 l 3.5095,-2.6889 -0.53915,-11.172 8.8566,-2.1071 z"
         id="path3993" />
      <path
         inkscape:connector-curvature="0"
         style="fill:#5a3c08"
         sodipodi:nodetypes="aaaaaaaaaaaaaaaaaaaaaaaa"
         d="m 42.257,298.64 c -0.74047,7.478 5.2878,16.664 12.505,18.758 3.9428,1.1435 7.7837,-2.8094 11.255,-5.002 3.249,-2.0525 5.1492,-6.1697 8.7535,-7.503 2.7366,-1.0123 6.3702,1.6833 8.7535,0 11.2,-7.9098 6.7931,-26.954 13.756,-38.766 14.695,-24.931 42.951,-40.023 57.523,-65.026 7.1021,-12.186 21.042,-27.939 13.756,-40.016 -12.639,-20.948 -52.762,-25.671 -72.529,-11.255 -6.4781,4.7246 -2.4672,15.845 -3.7515,23.76 -0.40614,2.5028 0.68414,5.8641 -1.2505,7.503 -5.0888,4.3109 -14.128,-3.147 -20.008,0 -2.6502,1.4183 -4.131,4.6262 -5.002,7.503 -1.0871,3.5905 1.4356,7.7886 0,11.255 -2.2559,5.4462 -10.592,6.9292 -12.505,12.505 -1.0906,3.1787 2.3412,6.8253 1.2505,10.004 -1.1479,3.3455 -6.9364,4.0117 -7.503,7.503 -0.59721,3.6801 5.2936,6.2872 5.002,10.004 -0.28048,3.5748 -3.4838,6.475 -6.2525,8.7535 -3.889,3.2005 -12.749,1.3174 -13.756,6.2525 -1.3555,6.6488 11.296,8.682 13.756,15.006 1.0578,2.7194 -1.4145,6.2014 0,8.7535 1.9063,3.4394 9.559,2.3454 10.004,6.2525 0.73376,6.4428 -13.117,7.3027 -13.756,13.756 z"
         id="path3914" />
      <path
         inkscape:connector-curvature="0"
         style="fill:#2b1100"
         sodipodi:nodetypes="aaaaaaaaaaa"
         d="m 60.128,271.52 c -0.7674,1.9377 -0.76894,4.9205 0.88424,6.1897 2.9434,2.2597 8.2921,1.153 11.053,-1.3264 1.4629,-1.3137 0.3231,-4.0566 1.3264,-5.7476 0.90549,-1.5262 3.544,-1.8165 3.9791,-3.537 0.4229,-1.6723 -0.22899,-4.0852 -1.7685,-4.8633 -2.3307,-1.178 -4.9302,2.5759 -7.516,2.2106 -1.9026,-0.26878 -2.9429,-3.0301 -4.8633,-3.0948 -1.8455,-0.0622 -4.7969,0.80734 -4.8633,2.6527 -0.08827,2.4512 6.0629,1.5296 6.1897,3.9791 0.09753,1.8848 -3.7263,1.7822 -4.4212,3.537 z"
         id="path3943" />
      <path
         inkscape:connector-curvature="0"
         style="fill:#2b1100"
         sodipodi:nodetypes="aaaaaaaaaaa"
         d="m 49.894,311.99 c -0.46144,5.0543 9.3361,4.4452 14.381,5.002 5.4219,0.59844 11.722,1.1558 16.257,-1.8758 1.7839,-1.1926 1.704,-4.0205 3.1263,-5.6272 1.8789,-2.1227 6.5282,-2.1889 6.8778,-5.002 0.40146,-3.2307 -3.0819,-6.7642 -6.2525,-7.503 -3.9982,-0.93159 -7.2919,3.929 -11.255,5.002 -3.6434,0.98656 -8.8804,-1.684 -11.255,1.2505 -1.3174,1.6284 1.8017,4.5196 0.62525,6.2525 -0.85224,1.2553 -2.8945,0.92609 -4.3768,1.2505 -2.6779,0.58612 -7.879,-1.4794 -8.1283,1.2505 z"
         id="path3945" />
      <path
         inkscape:connector-curvature="0"
         style="fill:#2b1100"
         sodipodi:nodetypes="aaaaaaaaaaaaaa"
         d="m 70.739,237.04 c -4.2876,0.65187 -9.3401,0.37568 -12.821,-2.2106 -1.0581,-0.78607 -2.1853,-2.2864 -1.7685,-3.537 0.41683,-1.2505 2.4077,-1.0886 3.537,-1.7685 1.0861,-0.65391 1.8456,-1.9949 3.0948,-2.2106 2.1145,-0.36509 4.4766,3.0607 6.1897,1.7685 1.4119,-1.065 0.83447,-3.7462 0,-5.3054 -0.75218,-1.4055 -3.6664,-1.0896 -3.9791,-2.6527 -0.20842,-1.0421 0.88032,-2.0691 1.7685,-2.6527 1.377,-0.90479 3.8569,0.42035 4.8633,-0.88424 1.1737,-1.5214 -1.6481,-4.2516 -0.44212,-5.7476 2.7077,-3.3588 9.0966,-3.9453 12.821,-1.7685 5.1981,3.0379 8.7593,11.168 6.6318,16.801 -2.6318,6.9673 -12.532,9.0493 -19.895,10.169 z"
         id="path3947" />
      <path
         inkscape:connector-curvature="0"
         style="fill:#a05e00"
         sodipodi:nodetypes="aaaaaaaaaaaaaaaaaaaaaaaaaaaaaaaaaaaaaaaaaaaaaaaaaaa"
         d="m 80.707,185.75 c -5.2392,3.0901 -2.9334,12.375 -7.0938,16.812 -1.8003,1.9201 -5.8037,1.2198 -7.0625,3.5312 -1.2731,2.3377 -1.2018,6.2724 0.875,7.9375 2.0848,1.6716 5.3116,-1.1582 7.9688,-0.875 3.7013,0.39453 7.0697,4.7297 10.594,3.5312 2.0104,-0.68368 2.381,-3.5168 3.5625,-5.2812 2.3662,-3.5336 3.9283,-7.7506 7.0625,-10.625 2.7209,-2.4954 7.8356,-2.1369 9.7188,-5.3125 1.052,-1.774 1.3092,-4.5938 0,-6.1875 -1.9076,-2.322 -5.8727,-1.2993 -8.8438,-1.75 -5.5615,-0.84369 -11.936,-4.639 -16.781,-1.7812 z M 86.8945,222 c -3.6964,1.0739 -6.549,4.0497 -9.75,6.1875 -2.9848,1.9934 -5.2619,5.6619 -8.8125,6.1875 -1.8443,0.27303 -3.6308,-2.555 -5.3125,-1.75 -2.2687,1.0859 -1.2936,4.9485 -2.6562,7.0625 -2.0352,3.1574 -8.2417,4.2222 -7.9688,7.9688 0.21417,2.9401 4.1496,5.1315 7.0938,5.2812 3.4291,0.1744 5.6743,-6.6018 8.8438,-5.2812 1.1194,0.4664 0.92366,2.3196 0.875,3.5312 -0.18689,4.654 -7.3112,9.5844 -4.4375,13.25 2.1925,2.7966 7.478,0.77574 10.625,-0.875 3.7099,-1.946 5.885,-6.0844 7.9688,-9.7188 1.2541,-2.1873 1.3203,-4.9363 2.625,-7.0938 2.0534,-3.3955 5.1084,-6.0935 7.9688,-8.8438 3.3216,-3.1938 9.6882,-4.332 10.625,-8.8438 0.53605,-2.5816 -1.3171,-5.6803 -3.5625,-7.0625 -4.0095,-2.4682 -9.6036,-1.3136 -14.125,0 z m 12.375,36.25 c -8.2911,-2.1749 -5.0221,17.387 -11.5,23 -2.8205,2.4441 -7.0494,2.4617 -10.625,3.5312 -4.3791,1.3099 -8.8941,4.9165 -13.25,3.5312 -6.5761,-2.0913 -11.764,-9.1675 -13.25,-15.906 -0.9843,-4.4636 6.6276,-9.8877 3.5312,-13.25 -2.2298,-2.4214 -8.1772,-1.1584 -9.7188,1.75 -2.7168,5.1257 6.7838,10.112 7.0625,15.906 0.1345,2.7967 -3.2995,5.2437 -2.6562,7.9688 0.76492,3.2402 4.9525,4.4872 7.0625,7.0625 3.3709,4.1141 4.4696,10.255 8.8438,13.281 3.2356,2.2382 7.8517,4.1289 11.5,2.6562 6.5212,-2.6323 7.4703,-11.924 11.5,-17.688 3.3808,-4.8353 8.6205,-8.6072 10.625,-14.156 2.0055,-5.5519 6.5849,-16.19 0.875,-17.688 z m -12.375,0.90625 c -4.5531,-1.519 -7.0612,6.5036 -10.625,9.7188 -2.6296,2.3723 -8.1805,3.5293 -7.9375,7.0625 0.21841,3.1762 4.9966,6.5322 7.9375,5.3125 1.3926,-0.57757 -0.14613,-3.3283 0.875,-4.4375 2.9122,-3.1633 10.145,0.12575 12.406,-3.5312 2.5196,-4.0748 1.8884,-12.609 -2.6562,-14.125 z"
         id="path3934" />
      <path
         d="m 79.139,201.23 c -1.9058,-0.24499 -4.6536,1.1848 -4.8633,3.0948 -0.20468,1.8646 4.1913,2.1154 3.9791,3.9791 -0.15732,1.3814 -3.7012,0.83001 -3.537,2.2106 0.2753,2.3138 4.4277,2.9668 6.6318,2.2106 2.0104,-0.68978 3.7072,-3.1868 3.537,-5.3054 -0.22553,-2.8065 -2.955,-5.8307 -5.7475,-6.1897 z"
         inkscape:connector-curvature="0"
         style="fill:#deaa87"
         sodipodi:nodetypes="aaaaaaa"
         id="path3975" />
      <path
         inkscape:connector-curvature="0"
         style="fill:#deaa87"
         sodipodi:nodetypes="aaaaaaaa"
         d="m 79.16,289.65 c 0.04088,-2.5352 1.9605,-5.5785 4.4212,-6.1897 2.2387,-0.55605 5.2747,0.97728 6.1897,3.0948 0.61027,1.4124 -0.60416,3.0626 -1.3264,4.4212 -0.98316,1.8495 -2.4834,3.3969 -3.9791,4.8633 -1.8736,1.837 -4.1564,6.5218 -6.1897,4.8633 -2.0429,-1.6664 3.7008,-4.4427 3.537,-7.0739 -0.09905,-1.591 -2.6784,-2.3852 -2.6527,-3.9791 z"
         id="path3971" />
      <g
         transform="matrix(0.49227,0.87044,-0.87044,0.49227,214.5,-56.932)"
         id="g4031">
        <path
           inkscape:connector-curvature="0"
           style="fill:#f8010a"
           sodipodi:nodetypes="ccaccccc"
           d="m 90.71,180.68 -30.948,2.9962 c 0,0 -8.1403,-8.2673 -7.9581,-13.483 0.12699,-3.6356 6.1897,-8.9886 6.1897,-8.9886 l 16.801,-3.7452 21.222,0 -7.9581,27.715 z"
           id="path4027" />
        <path
           inkscape:connector-curvature="0"
           style="opacity:0.32480002;fill:url(#linearGradient3398)"
           d="m 82.062,160.41 c -8.437,0.74291 -18.227,0.30389 -25.125,5.8125 -2.9935,3.1656 -2.0035,7.7802 0.84375,10.594 1.4528,3.1864 4.9623,4.9632 8.1515,3.2463 7.013,-0.69 14.025,-1.37 21.037,-2.06 1.677,-5.85 3.354,-11.71 5.031,-17.56 -3.3123,-0.0624 -6.6249,-0.0897 -9.9375,-0.0312 z"
           id="path4029" />
      </g>
      <g
         transform="matrix(0.89374,-0.44858,0.44858,0.89374,-50.922,8.78)"
         id="g4039">
        <path
           d="m 90.71,180.68 -30.948,2.9962 c 0,0 -8.1403,-8.2673 -7.9581,-13.483 0.12699,-3.6356 6.1897,-8.9886 6.1897,-8.9886 l 16.801,-3.7452 21.222,0 -7.9581,27.715 z"
           inkscape:connector-curvature="0"
           style="fill:#f8010a"
           sodipodi:nodetypes="ccaccccc"
           id="path4041" />
        <path
           d="m 82.062,160.41 c -8.437,0.74291 -18.227,0.30389 -25.125,5.8125 -2.9935,3.1656 -2.0035,7.7802 0.84375,10.594 1.4528,3.1864 4.9623,4.9632 8.1515,3.2463 7.013,-0.69 14.025,-1.37 21.037,-2.06 1.677,-5.85 3.354,-11.71 5.031,-17.56 -3.3123,-0.0624 -6.6249,-0.0897 -9.9375,-0.0312 z"
           inkscape:connector-curvature="0"
           style="opacity:0.32480002;fill:url(#linearGradient3400)"
           id="path4043" />
      </g>
      <g
         transform="matrix(0.18618,0.74563,-0.74563,0.18618,168.73,167.63)"
         id="g4078">
        <path
           d="m -83.37,152.71 8.2065,-4.5003 c 0,0 -6.7213,-5.2433 -6.0887,-8.7359 0.55401,-3.0588 7.35,-2.2032 7.677,-5.2945 0.67631,-6.3939 -14.479,-7.7222 -13.236,-14.03 1.1986,-6.0832 13.967,-2.2372 16.942,-7.677 2.3532,-4.3029 0.0811,-10.176 -2.1178,-14.56 -1.5666,-3.1233 -7.3837,-3.9182 -7.4123,-7.4123 -0.0312,-3.8066 7.9418,-8.2065 7.9418,-8.2065 l -14.825,-1.3236 c 0,0 -5.615,5.0942 -5.5592,8.4712 0.0175,5.7369 15.704,13.567 15.089,16.413 -1.7424,6.2509 -18.14,1.6923 -20.384,8.7359 -2.1037,6.6044 12.967,11.135 10.854,17.737 -1.1696,3.6525 -10.576,0.66514 -10.589,4.5003 -0.0102,2.8851 6.0522,1.2611 7.9418,3.4414 2.7404,6.4658 1.1111,7.2526 5.5592,12.442 z"
           inkscape:connector-curvature="0"
           style="fill:#ffe680"
           sodipodi:nodetypes="ccaaaaaaccccaaacc"
           id="path4080" />
        <path
           inkscape:connector-curvature="0"
           style="fill:#febe14"
           sodipodi:nodetypes="ccaaaaaaccccaaacc"
           d="m -85.465,151.71 8.2065,-4.5003 c 0,0 -6.7213,-5.2433 -6.0887,-8.7359 0.55401,-3.0588 7.35,-2.2032 7.677,-5.2945 0.67631,-6.3939 -14.479,-7.7222 -13.236,-14.03 1.1986,-6.0832 13.967,-2.2372 16.942,-7.677 2.3532,-4.3029 0.0811,-10.176 -2.1178,-14.56 -1.5666,-3.1233 -7.3837,-3.9182 -7.4123,-7.4123 -0.0312,-3.8066 7.9418,-8.2065 7.9418,-8.2065 l -14.825,-1.3236 c 0,0 -5.615,5.0942 -5.5592,8.4712 0.0175,5.7369 15.704,13.567 15.089,16.413 -1.7424,6.2509 -18.14,1.6923 -20.384,8.7359 -2.1037,6.6044 12.967,11.135 10.854,17.737 -1.1696,3.6525 -10.576,0.66514 -10.589,4.5003 -0.0102,2.8851 6.0522,1.2611 7.9418,3.4414 2.7404,6.4658 1.1111,7.2526 5.5592,12.442 z"
           id="path4082" />
        <path
           inkscape:connector-curvature="0"
           style="fill:#ffd42a"
           d="m -87.219,82.281 c -3.6542,1.1692 -6.6435,7.3583 -2.4062,9.9062 3.8541,4.6188 11.564,6.5731 12.719,13 -3.1444,8.2381 -14.166,3.5359 -19.75,7.9688 -2.773,4.797 4.8587,6.6146 6.75,9.9375 3.5487,2.7659 5.5948,9.5274 0.40625,11.625 -1.7645,1.2574 -5.595,0.37614 -6.3438,1 4.3031,-0.18819 8.0116,2.6017 8.1875,7 0.27034,3.2117 2.26,8.82 6.1562,4.875 1.9967,-2.2551 -3.3506,-3.6452 -3.375,-6.0938 -1.8074,-3.7922 1.6275,-7.8223 5.5625,-7.5312 3.3131,-1.0426 0.28142,-4.0991 -1.8682,-4.5586 -4.2845,-2.2831 -12.374,-6.6437 -8.7568,-12.566 3.4929,-6.385 14.392,-0.79702 16.75,-8.0312 1.0301,-6.6678 -2.9044,-12.927 -8.8438,-15.656 -3.0645,-3.3501 -0.39463,-8.2324 2.6875,-10.5 -2.6134,-0.25987 -5.2465,-0.4863 -7.875,-0.375 z"
           id="path4084" />
      </g>
      <path
         inkscape:connector-curvature="0"
         style="fill:#456f00"
         d="m 84.556,138.98 -6.8002,-12.687 -7.4689,-5.4259 6.2605,-7.1766 -3.254,-6.7607 c 0,0 18.071,-11.473 12.187,-10.723 -5.884,0.75031 -13.895,-5.8024 -13.895,-5.8024 l 4.5493,-4.9652 17.526,6.1368 c 0,0 18.61,8.3903 12.684,11.937 -5.9261,3.5462 -14.356,6.2157 -14.356,6.2157 l 1.3348,4.2149 -6.8449,8.8457 6.0499,6.8028 z"
         id="path3987" />
      <path
         d="m 60.128,96.869 12.687,-6.8002 5.4259,-7.4689 7.1766,6.2605 6.7607,-3.254 c 0,0 11.473,18.071 10.723,12.187 -0.75031,-5.884 5.8024,-13.895 5.8024,-13.895 l 4.9652,4.5493 -6.1368,17.526 c 0,0 -8.3903,18.61 -11.937,12.684 -3.5462,-5.9261 -6.2157,-14.356 -6.2157,-14.356 l -4.2149,1.3348 -8.8457,-6.8449 -6.8028,6.0499 z"
         inkscape:connector-curvature="0"
         style="fill:#73cb2b"
         id="path3985" />
      <path
         d="m 114.69,102.84 -6.8002,-12.687 -7.4689,-5.4259 6.2605,-7.1766 -3.254,-6.7607 c 0,0 18.071,-11.473 12.187,-10.723 -5.884,0.75031 -13.895,-5.8024 -13.895,-5.8024 l 4.5493,-4.9652 17.526,6.1368 c 0,0 18.61,8.3903 12.684,11.937 -5.9261,3.5462 -14.356,6.2157 -14.356,6.2157 l 1.3348,4.2149 -6.8449,8.8457 6.0499,6.8028 z"
         inkscape:connector-curvature="0"
         style="fill:#456f00"
         id="path3995" />
      <path
         inkscape:connector-curvature="0"
         style="fill:#f8010a"
         sodipodi:nodetypes="ccaccccc"
         d="m 90.71,180.68 -30.948,2.9962 c 0,0 -8.1403,-8.2673 -7.9581,-13.483 0.12699,-3.6356 6.1897,-8.9886 6.1897,-8.9886 l 16.801,-3.7452 21.222,0 -7.9581,27.715 z"
         id="path4009" />
      <path
         inkscape:connector-curvature="0"
         style="fill:#4e8a11"
         d="m 153.54,30.839 12.687,-6.8002 5.4259,-7.4689 7.1766,6.2605 6.7607,-3.254 c 0,0 11.473,18.071 10.723,12.187 -0.75031,-5.884 5.8024,-13.895 5.8024,-13.895 l 4.9652,4.5493 -6.1368,17.526 c 0,0 -8.3903,18.61 -11.937,12.684 -3.5462,-5.9261 -6.2157,-14.356 -6.2157,-14.356 l -4.2149,1.3348 -8.8457,-6.8449 -6.8028,6.0499 z"
         id="path4037" />
      <g
         transform="matrix(0.54713,0.5397,-0.5397,0.54713,208.94,84.321)"
         id="g4057">
        <path
           inkscape:connector-curvature="0"
           style="fill:#ffe680"
           sodipodi:nodetypes="ccaaaaaaccccaaacc"
           d="m -83.37,152.71 8.2065,-4.5003 c 0,0 -6.7213,-5.2433 -6.0887,-8.7359 0.55401,-3.0588 7.35,-2.2032 7.677,-5.2945 0.67631,-6.3939 -14.479,-7.7222 -13.236,-14.03 1.1986,-6.0832 13.967,-2.2372 16.942,-7.677 2.3532,-4.3029 0.0811,-10.176 -2.1178,-14.56 -1.5666,-3.1233 -7.3837,-3.9182 -7.4123,-7.4123 -0.0312,-3.8066 7.9418,-8.2065 7.9418,-8.2065 l -14.825,-1.3236 c 0,0 -5.615,5.0942 -5.5592,8.4712 0.0175,5.7369 15.704,13.567 15.089,16.413 -1.7424,6.2509 -18.14,1.6923 -20.384,8.7359 -2.1037,6.6044 12.967,11.135 10.854,17.737 -1.1696,3.6525 -10.576,0.66514 -10.589,4.5003 -0.0102,2.8851 6.0522,1.2611 7.9418,3.4414 2.7404,6.4658 1.1111,7.2526 5.5592,12.442 z"
           id="path4049" />
        <path
           d="m -85.465,151.71 8.2065,-4.5003 c 0,0 -6.7213,-5.2433 -6.0887,-8.7359 0.55401,-3.0588 7.35,-2.2032 7.677,-5.2945 0.67631,-6.3939 -14.479,-7.7222 -13.236,-14.03 1.1986,-6.0832 13.967,-2.2372 16.942,-7.677 2.3532,-4.3029 0.0811,-10.176 -2.1178,-14.56 -1.5666,-3.1233 -7.3837,-3.9182 -7.4123,-7.4123 -0.0312,-3.8066 7.9418,-8.2065 7.9418,-8.2065 l -14.825,-1.3236 c 0,0 -5.615,5.0942 -5.5592,8.4712 0.0175,5.7369 15.704,13.567 15.089,16.413 -1.7424,6.2509 -18.14,1.6923 -20.384,8.7359 -2.1037,6.6044 12.967,11.135 10.854,17.737 -1.1696,3.6525 -10.576,0.66514 -10.589,4.5003 -0.0102,2.8851 6.0522,1.2611 7.9418,3.4414 2.7404,6.4658 1.1111,7.2526 5.5592,12.442 z"
           inkscape:connector-curvature="0"
           style="fill:#febe14"
           sodipodi:nodetypes="ccaaaaaaccccaaacc"
           id="path4047" />
        <path
           d="m -87.219,82.281 c -3.6542,1.1692 -6.6435,7.3583 -2.4062,9.9062 3.8541,4.6188 11.564,6.5731 12.719,13 -3.1444,8.2381 -14.166,3.5359 -19.75,7.9688 -2.773,4.797 4.8587,6.6146 6.75,9.9375 3.5487,2.7659 5.5948,9.5274 0.40625,11.625 -1.7645,1.2574 -5.595,0.37614 -6.3438,1 4.3031,-0.18819 8.0116,2.6017 8.1875,7 0.27034,3.2117 2.26,8.82 6.1562,4.875 1.9967,-2.2551 -3.3506,-3.6452 -3.375,-6.0938 -1.8074,-3.7922 1.6275,-7.8223 5.5625,-7.5312 3.3131,-1.0426 0.28142,-4.0991 -1.8682,-4.5586 -4.2845,-2.2831 -12.374,-6.6437 -8.7568,-12.566 3.4929,-6.385 14.392,-0.79702 16.75,-8.0312 1.0301,-6.6678 -2.9044,-12.927 -8.8438,-15.656 -3.0645,-3.3501 -0.39463,-8.2324 2.6875,-10.5 -2.6134,-0.25987 -5.2465,-0.4863 -7.875,-0.375 z"
           inkscape:connector-curvature="0"
           style="fill:#ffd42a"
           id="path4051" />
      </g>
      <g
         transform="matrix(0.27412,0.71797,-0.71797,0.27412,225.22,93.785)"
         id="g4070">
        <path
           d="m -83.37,152.71 8.2065,-4.5003 c 0,0 -6.7213,-5.2433 -6.0887,-8.7359 0.55401,-3.0588 7.35,-2.2032 7.677,-5.2945 0.67631,-6.3939 -14.479,-7.7222 -13.236,-14.03 1.1986,-6.0832 13.967,-2.2372 16.942,-7.677 2.3532,-4.3029 0.0811,-10.176 -2.1178,-14.56 -1.5666,-3.1233 -7.3837,-3.9182 -7.4123,-7.4123 -0.0312,-3.8066 7.9418,-8.2065 7.9418,-8.2065 l -14.825,-1.3236 c 0,0 -5.615,5.0942 -5.5592,8.4712 0.0175,5.7369 15.704,13.567 15.089,16.413 -1.7424,6.2509 -18.14,1.6923 -20.384,8.7359 -2.1037,6.6044 12.967,11.135 10.854,17.737 -1.1696,3.6525 -10.576,0.66514 -10.589,4.5003 -0.0102,2.8851 6.0522,1.2611 7.9418,3.4414 2.7404,6.4658 1.1111,7.2526 5.5592,12.442 z"
           inkscape:connector-curvature="0"
           style="fill:#ffe680"
           sodipodi:nodetypes="ccaaaaaaccccaaacc"
           id="path4072" />
        <path
           inkscape:connector-curvature="0"
           style="fill:#febe14"
           sodipodi:nodetypes="ccaaaaaaccccaaacc"
           d="m -85.465,151.71 8.2065,-4.5003 c 0,0 -6.7213,-5.2433 -6.0887,-8.7359 0.55401,-3.0588 7.35,-2.2032 7.677,-5.2945 0.67631,-6.3939 -14.479,-7.7222 -13.236,-14.03 1.1986,-6.0832 13.967,-2.2372 16.942,-7.677 2.3532,-4.3029 0.0811,-10.176 -2.1178,-14.56 -1.5666,-3.1233 -7.3837,-3.9182 -7.4123,-7.4123 -0.0312,-3.8066 7.9418,-8.2065 7.9418,-8.2065 l -14.825,-1.3236 c 0,0 -5.615,5.0942 -5.5592,8.4712 0.0175,5.7369 15.704,13.567 15.089,16.413 -1.7424,6.2509 -18.14,1.6923 -20.384,8.7359 -2.1037,6.6044 12.967,11.135 10.854,17.737 -1.1696,3.6525 -10.576,0.66514 -10.589,4.5003 -0.0102,2.8851 6.0522,1.2611 7.9418,3.4414 2.7404,6.4658 1.1111,7.2526 5.5592,12.442 z"
           id="path4074" />
        <path
           inkscape:connector-curvature="0"
           style="fill:#ffd42a"
           d="m -87.219,82.281 c -3.6542,1.1692 -6.6435,7.3583 -2.4062,9.9062 3.8541,4.6188 11.564,6.5731 12.719,13 -3.1444,8.2381 -14.166,3.5359 -19.75,7.9688 -2.773,4.797 4.8587,6.6146 6.75,9.9375 3.5487,2.7659 5.5948,9.5274 0.40625,11.625 -1.7645,1.2574 -5.595,0.37614 -6.3438,1 4.3031,-0.18819 8.0116,2.6017 8.1875,7 0.27034,3.2117 2.26,8.82 6.1562,4.875 1.9967,-2.2551 -3.3506,-3.6452 -3.375,-6.0938 -1.8074,-3.7922 1.6275,-7.8223 5.5625,-7.5312 3.3131,-1.0426 0.28142,-4.0991 -1.8682,-4.5586 -4.2845,-2.2831 -12.374,-6.6437 -8.7568,-12.566 3.4929,-6.385 14.392,-0.79702 16.75,-8.0312 1.0301,-6.6678 -2.9044,-12.927 -8.8438,-15.656 -3.0645,-3.3501 -0.39463,-8.2324 2.6875,-10.5 -2.6134,-0.25987 -5.2465,-0.4863 -7.875,-0.375 z"
           id="path4076" />
      </g>
      <path
         inkscape:connector-curvature="0"
         style="fill:#f1ca00"
         sodipodi:nodetypes="caaaaaaaasssc"
         d="m 33.03,297.95 c 0,0 14.649,17.408 25.01,19.383 6.6087,1.2599 15.23,-0.33424 19.383,-5.6273 24.337,-31.018 -1.2618,-79.247 5.002,-118.17 6.0584,-37.649 10.138,-78.297 31.263,-110.04 20.884,-31.386 52.273,-59.794 88.411,-70.529 29.223,-8.6809 63.002,-3.2243 91.036,8.7535 24.297,10.381 45.709,29.563 60.024,51.772 8.0037,12.417 11.973,27.754 12.505,42.517 0.35308,9.8048 2.0541,23.541 -6.2525,28.762 -93.11,58.522 -180.57,106.93 -268.23,164.44 -10.151,6.6593 -27.236,16.634 -39.703,10.629 -8.1984,-3.9486 -18.445,-21.884 -18.445,-21.884 z"
         id="path3004" />
      <path
         inkscape:connector-curvature="0"
         style="fill:url(#linearGradient4285)"
         d="m 308.28,48.294 c -0.23009,-0.01262 -0.46583,0.0101 -0.71875,0.0625 -4.6845,0.0746 -5.8083,5.3571 -4.5938,8.9062 -0.6657,2.3469 -5.4994,3.9722 -2.0312,6.3125 0.80271,-0.25701 -0.0528,-4.8721 2.875,-4.0938 2.0804,0.34504 5.1413,4.9939 5.3438,0.59375 -0.21161,-2.9114 -6.0151,-0.23256 -5.7188,-4.125 -0.56778,-3.2214 3.8609,-7.1968 6.1562,-3.5938 1.2035,3.3204 2.9303,1.189 1.8125,-0.96875 -0.45916,-1.4338 -1.5144,-3.0054 -3.125,-3.0938 z m -97.625,2.9062 c -0.20243,0.01407 -0.40043,0.03594 -0.59375,0.0625 -4.361,0.35997 -5.4317,5.3274 -4.125,8.7188 -0.97798,2.1456 -5.6854,4.9061 -1.6562,6.5625 -1.2051,-2.9672 2.1222,-5.7482 4.375,-3.25 1.4283,2.7966 4.1819,1.4637 3.2812,-1.1562 -1.7336,-1.2032 -6.0545,-0.22552 -5.625,-3.7812 -0.26429,-3.7431 5.0179,-6.6736 6.7812,-2.375 2.5219,3.2643 1.4815,-4.1846 -0.6875,-4.4375 -0.514,-0.34042 -1.1427,-0.38597 -1.75,-0.34375 z m -67.188,10.625 c -0.20243,0.01407 -0.43168,0.03594 -0.625,0.0625 -4.361,0.35997 -5.4317,5.3274 -4.125,8.7188 -0.97798,2.1456 -5.6854,4.9061 -1.6562,6.5625 -1.2051,-2.9672 2.1222,-5.7482 4.375,-3.25 1.4283,2.7966 4.1819,1.4637 3.2812,-1.1562 -1.7336,-1.2032 -6.0545,-0.22552 -5.625,-3.7812 -0.26429,-3.7431 5.0179,-6.6736 6.7812,-2.375 2.5219,3.2643 1.4815,-4.1846 -0.6875,-4.4375 -0.514,-0.34042 -1.1114,-0.38597 -1.7188,-0.34375 z m 189.22,21.219 c -0.20243,0.01407 -0.40043,0.03594 -0.59375,0.0625 -4.361,0.35997 -5.4317,5.3274 -4.125,8.7188 -0.97798,2.1456 -5.6854,4.9061 -1.6562,6.5625 -1.2051,-2.9672 2.1222,-5.7482 4.375,-3.25 1.4283,2.7966 4.1819,1.4637 3.2812,-1.1562 -1.7336,-1.2032 -6.0545,-0.22552 -5.625,-3.7812 -0.26429,-3.7431 5.0179,-6.6736 6.7812,-2.375 2.5219,3.2643 1.4815,-4.1846 -0.6875,-4.4375 -0.514,-0.34042 -1.1427,-0.38597 -1.75,-0.34375 z m -91.094,4.4062 c -0.20243,0.01407 -0.40043,0.06719 -0.59375,0.09375 -4.361,0.35997 -5.4317,5.3274 -4.125,8.7188 -0.97798,2.1456 -5.6854,4.9061 -1.6562,6.5625 -1.2051,-2.9672 2.1222,-5.7482 4.375,-3.25 1.4283,2.7965 4.1819,1.4637 3.2812,-1.1562 -1.7336,-1.2032 -6.0545,-0.22552 -5.625,-3.7812 -0.26429,-3.7431 5.0179,-6.6736 6.7812,-2.375 2.5219,3.2643 1.4815,-4.1846 -0.6875,-4.4375 -0.514,-0.34042 -1.1427,-0.41722 -1.75,-0.375 z m 26.125,9.875 c -1.4552,0.02341 -3.0171,0.61099 -4.125,1.4062 -1.5308,1.0988 -2.2151,3.2539 -2.4375,5.125 -0.12484,1.0502 0.88165,2.0604 0.65625,3.0938 -0.40562,1.8596 -3.5083,2.6952 -3.375,4.5938 0.10333,1.4713 1.6621,3.5422 3.0938,3.1875 1.3906,-0.34456 -0.0744,-3.5084 1.2188,-4.125 1.8851,-0.89877 3.9181,3.3184 5.7812,2.375 1.3436,-0.68027 1.7916,-3.0405 1.0938,-4.375 -0.86562,-1.6552 -4.565,-0.26223 -5.25,-2 -0.63914,-1.6214 0.63031,-4.2629 2.3125,-4.7188 1.8807,-0.50963 3.227,4.3376 4.8438,3.25 2.0208,-1.3594 0.5348,-5.7275 -1.4375,-7.1562 -0.66267,-0.48006 -1.5019,-0.67029 -2.375,-0.65625 z m -67.156,15.562 c -5.8256,-0.005 -6.7534,8.4292 -3.125,11.219 0.49619,3.195 6.9095,2.681 3.875,-0.5625 -3.6843,0.0679 -7.1315,-3.5223 -3.9062,-6.6875 2.1963,-2.785 5.7882,0.14236 6.8438,1.6562 1.0766,-2.334 -1.0633,-5.8277 -3.6875,-5.625 z m -42.969,1.0938 c -0.20243,0.0141 -0.40043,0.0359 -0.59375,0.0625 -4.361,0.35997 -5.4317,5.3274 -4.125,8.7188 -0.97798,2.1456 -5.6854,4.9061 -1.6562,6.5625 -1.2051,-2.9672 2.1222,-5.7482 4.375,-3.25 1.4283,2.7966 4.1819,1.4637 3.2812,-1.1562 -1.7336,-1.2032 -6.0545,-0.22552 -5.625,-3.7812 -0.26429,-3.7431 5.0179,-6.6736 6.7812,-2.375 2.5219,3.2643 1.4815,-4.1846 -0.6875,-4.4375 -0.514,-0.34042 -1.1427,-0.38597 -1.75,-0.34375 z m 160.72,2.5938 c -1.4552,0.0234 -3.0171,0.64224 -4.125,1.4375 -1.5308,1.0988 -2.2151,3.2226 -2.4375,5.0938 -0.12484,1.0502 0.88165,2.0917 0.65625,3.125 -0.40562,1.8596 -3.5083,2.6952 -3.375,4.5938 0.10333,1.4714 1.6621,3.511 3.0938,3.1562 1.3906,-0.34456 -0.0744,-3.5084 1.2188,-4.125 1.8851,-0.89877 3.9181,3.3496 5.7812,2.4062 1.3436,-0.68027 1.7916,-3.0718 1.0938,-4.4062 -0.86562,-1.6552 -4.565,-0.26223 -5.25,-2 -0.63914,-1.6214 0.63032,-4.2317 2.3125,-4.6875 1.8807,-0.50963 3.227,4.3376 4.8438,3.25 2.0208,-1.3594 0.5348,-5.7275 -1.4375,-7.1562 -0.66267,-0.48006 -1.5019,-0.70155 -2.375,-0.6875 z m -124.06,6.7812 c -2.13,0.616 -1.954,6.0357 0.125,4.375 0.20853,-1.3398 -0.058,-3.4542 -0.125,-4.375 z m 68.25,10.438 c -1.4552,0.0234 -3.0171,0.61099 -4.125,1.4062 -1.5308,1.0988 -2.1838,3.2539 -2.4062,5.125 -0.12484,1.0502 0.8504,2.0604 0.625,3.0938 -0.40562,1.8596 -3.5083,2.6952 -3.375,4.5938 0.10333,1.4714 1.6621,3.5422 3.0938,3.1875 1.3906,-0.34456 -0.0744,-3.5084 1.2188,-4.125 1.8851,-0.89877 3.9181,3.3184 5.7812,2.375 1.3436,-0.68027 1.7916,-3.0405 1.0938,-4.375 -0.86562,-1.6552 -4.565,-0.26223 -5.25,-2 -0.63914,-1.6214 0.63031,-4.2629 2.3125,-4.7188 1.8807,-0.50962 3.2582,4.3376 4.875,3.25 2.0208,-1.3594 0.50355,-5.7275 -1.4688,-7.1562 -0.66267,-0.48006 -1.5019,-0.6703 -2.375,-0.65625 z m -147.34,5.8438 c -0.20243,0.0141 -0.40043,0.0359 -0.59375,0.0625 -4.361,0.35997 -5.4317,5.3274 -4.125,8.7188 -0.97798,2.1456 -5.6854,4.9061 -1.6562,6.5625 -1.2051,-2.9672 2.1222,-5.7482 4.375,-3.25 1.4283,2.7966 4.1819,1.4637 3.2812,-1.1562 -1.7336,-1.2032 -6.0545,-0.22552 -5.625,-3.7812 -0.26429,-3.7431 5.0179,-6.6736 6.7812,-2.375 2.5219,3.2643 1.4815,-4.1846 -0.6875,-4.4375 -0.514,-0.34042 -1.1427,-0.38597 -1.75,-0.34375 z m 226.38,0 c -0.20243,0.0141 -0.40043,0.0359 -0.59375,0.0625 -4.361,0.35997 -5.4317,5.3274 -4.125,8.7188 -0.97798,2.1456 -5.6854,4.9061 -1.6562,6.5625 -1.2051,-2.9672 2.1222,-5.7482 4.375,-3.25 1.4283,2.7966 4.1819,1.4637 3.2812,-1.1562 -1.7336,-1.2032 -6.0545,-0.22552 -5.625,-3.7812 -0.26429,-3.7431 5.0179,-6.6736 6.7812,-2.375 2.5219,3.2643 1.4815,-4.1846 -0.6875,-4.4375 -0.514,-0.34042 -1.1427,-0.38597 -1.75,-0.34375 z m -138.91,10.375 c -0.2095,-0.006 -0.41909,0.009 -0.625,0.0312 -4.5061,0.088 -5.9989,5.1874 -4.5312,8.75 -0.51595,2.4601 -5.5145,3.9122 -2.2188,6.4062 1.3675,0.41385 -0.28793,-4.224 2.3438,-4.0312 2.4833,-0.39803 5.8756,5.4167 5.9688,0.375 -0.74505,-2.4277 -6.8883,-0.37702 -5.6562,-4.8125 0.008,-3.6412 5.0759,-5.9598 6.7188,-1.9375 2.3958,3.3055 1.5724,-3.714 -0.28125,-4.1562 -0.46879,-0.43848 -1.0902,-0.60779 -1.7188,-0.625 z m 90.25,5.5312 c -0.20243,0.0141 -0.40043,0.0359 -0.59375,0.0625 -4.361,0.35997 -5.4317,5.3274 -4.125,8.7188 -0.97798,2.1456 -5.6854,4.9061 -1.6562,6.5625 -1.2051,-2.9672 2.1222,-5.7482 4.375,-3.25 1.4283,2.7966 4.1819,1.4637 3.2812,-1.1562 -1.7336,-1.2032 -6.0545,-0.22552 -5.625,-3.7812 -0.26429,-3.7431 5.0179,-6.6736 6.7812,-2.375 2.5219,3.2643 1.4815,-4.1846 -0.6875,-4.4375 -0.514,-0.34042 -1.1427,-0.38597 -1.75,-0.34375 z m -188.16,23.688 c -4.2813,2.1251 1.1684,4.3352 1.6875,6.8438 -1.5663,3.5392 0.15915,8.5044 4.5938,8.5625 0.97716,0.11825 1.9777,-0.13487 2.5938,-0.9375 1.584,-0.78806 2.2382,-6.9921 -0.0312,-3.8438 -1.4027,3.536 -6.0385,2.2744 -6.5625,-1.125 -1.4772,-3.6232 2.6186,-4.7652 5.25,-4.75 1.3102,-2.6024 -1.5843,-4.4757 -3.125,-1.4375 -2.3411,2.49 -5.5604,-0.3275 -4.4062,-3.3125 z m 105.56,2.4062 c -1.4552,0.0234 -3.0483,0.61099 -4.1562,1.4062 -1.5308,1.0988 -2.1838,3.2539 -2.4062,5.125 -0.12484,1.0502 0.88165,2.0604 0.65625,3.0938 -0.40562,1.8596 -3.5396,2.6952 -3.4062,4.5938 0.10333,1.4713 1.6621,3.511 3.0938,3.1562 1.3906,-0.34456 -0.0744,-3.5084 1.2188,-4.125 1.8851,-0.89877 3.9493,3.3496 5.8125,2.4062 1.3436,-0.68027 1.7604,-3.0405 1.0625,-4.375 -0.86561,-1.6552 -4.5338,-0.26223 -5.2188,-2 -0.63914,-1.6214 0.59907,-4.2629 2.2812,-4.7188 1.8807,-0.50963 3.2582,4.3376 4.875,3.25 2.0208,-1.3594 0.50355,-5.7275 -1.4688,-7.1562 -0.66267,-0.48006 -1.4707,-0.6703 -2.3438,-0.65625 z m -64.25,1.9375 c -0.87309,-0.014 -1.7123,0.20744 -2.375,0.6875 -1.9723,1.4288 -3.4583,5.7969 -1.4375,7.1562 1.6168,1.0876 2.963,-3.7596 4.8438,-3.25 1.6822,0.45582 2.9516,3.0661 2.3125,4.6875 -0.685,1.7378 -4.3844,0.34478 -5.25,2 -0.69788,1.3345 -0.2498,3.726 1.0938,4.4062 1.8632,0.94336 3.8962,-3.305 5.7812,-2.4062 1.2932,0.61655 -0.1718,3.7804 1.2188,4.125 1.4317,0.35475 2.9904,-1.6849 3.0938,-3.1562 0.13334,-1.8986 -2.9694,-2.7342 -3.375,-4.5938 -0.2254,-1.0333 0.78109,-2.0748 0.65625,-3.125 -0.22242,-1.8711 -0.90671,-3.995 -2.4375,-5.0938 -1.1079,-0.79526 -2.6698,-1.4141 -4.125,-1.4375 z m 124.62,3.3438 c -1.4552,0.0234 -3.0171,0.61099 -4.125,1.4062 -1.5308,1.0988 -2.2151,3.2539 -2.4375,5.125 -0.12484,1.0502 0.88165,2.0604 0.65625,3.0938 -0.40562,1.8596 -3.5083,2.6952 -3.375,4.5938 0.10333,1.4713 1.6621,3.511 3.0938,3.1562 1.3906,-0.34456 -0.0744,-3.5084 1.2188,-4.125 1.8851,-0.89877 3.9181,3.3496 5.7812,2.4062 1.3436,-0.68027 1.7916,-3.0405 1.0938,-4.375 -0.86562,-1.6552 -4.565,-0.26223 -5.25,-2 -0.63914,-1.6214 0.63031,-4.2629 2.3125,-4.7188 1.8807,-0.50962 3.227,4.3376 4.8438,3.25 2.0208,-1.3594 0.5348,-5.7275 -1.4375,-7.1562 -0.66267,-0.48006 -1.5019,-0.6703 -2.375,-0.65625 z m -60,28.75 c -0.20243,0.0141 -0.40043,0.0359 -0.59375,0.0625 -4.361,0.35997 -5.4317,5.3274 -4.125,8.7188 -0.97798,2.1456 -5.6854,4.9061 -1.6562,6.5625 -1.2051,-2.9672 2.1222,-5.7482 4.375,-3.25 1.4283,2.7966 4.1819,1.4637 3.2812,-1.1562 -1.7336,-1.2032 -6.0545,-0.22552 -5.625,-3.7812 -0.26429,-3.7431 5.0179,-6.6736 6.7812,-2.375 2.5219,3.2643 1.4815,-4.1846 -0.6875,-4.4375 -0.514,-0.34042 -1.1427,-0.38597 -1.75,-0.34375 z m -109.66,2.6562 c -0.20243,0.0141 -0.40043,0.0359 -0.59375,0.0625 -4.361,0.35997 -5.4317,5.3274 -4.125,8.7188 -0.97798,2.1456 -5.6854,4.9061 -1.6562,6.5625 -1.2051,-2.9672 2.1222,-5.7482 4.375,-3.25 1.4283,2.7966 4.1819,1.4637 3.2813,-1.1562 -1.7336,-1.2032 -6.0545,-0.22552 -5.625,-3.7812 -0.26429,-3.7431 5.0179,-6.6736 6.7813,-2.375 2.5219,3.2643 1.4815,-4.1846 -0.6875,-4.4375 -0.514,-0.34042 -1.1427,-0.38597 -1.75,-0.34375 z m 56.469,20.125 c -1.4552,0.0234 -3.0171,0.61099 -4.125,1.4062 -1.5308,1.0988 -2.2151,3.2539 -2.4375,5.125 -0.12484,1.0502 0.88165,2.0604 0.65625,3.0938 -0.40562,1.8595 -3.5083,2.6952 -3.375,4.5938 0.10333,1.4713 1.6621,3.5422 3.0938,3.1875 1.3906,-0.34456 -0.0744,-3.5084 1.2188,-4.125 1.8851,-0.89877 3.9181,3.3184 5.7812,2.375 1.3435,-0.68027 1.7916,-3.0405 1.0938,-4.375 -0.86561,-1.6552 -4.565,-0.26224 -5.25,-2 -0.63913,-1.6214 0.63032,-4.2317 2.3125,-4.6875 1.8807,-0.50963 3.227,4.3064 4.8438,3.2188 2.0208,-1.3594 0.5348,-5.7275 -1.4375,-7.1562 -0.66267,-0.48006 -1.5019,-0.6703 -2.375,-0.65625 z m -49.375,23.219 c -0.20243,0.0141 -0.40043,0.0359 -0.59375,0.0625 -4.361,0.35997 -5.4317,5.3274 -4.125,8.7188 -0.97798,2.1456 -5.6854,4.9061 -1.6562,6.5625 -1.2051,-2.9672 2.1222,-5.7482 4.375,-3.25 1.4283,2.7966 4.1819,1.4637 3.2812,-1.1562 -1.7336,-1.2032 -6.0545,-0.22552 -5.625,-3.7812 -0.26429,-3.7431 5.0179,-6.6736 6.7812,-2.375 2.5219,3.2643 1.4815,-4.1846 -0.6875,-4.4375 -0.514,-0.34042 -1.1427,-0.38597 -1.75,-0.34375 z"
         id="path3039" />
      <path
         inkscape:connector-curvature="0"
         style="fill:#a05e00"
         sodipodi:nodetypes="aaaaaaaa"
         d="m 41.892,248.34 c -1.4276,1.2211 -0.77243,4.0936 0.31262,5.6273 0.78244,1.1059 2.3968,1.5631 3.7515,1.5631 1.3547,0 2.9603,-0.46344 3.7515,-1.5631 0.85419,-1.1873 0.76644,-2.9863 0.31263,-4.3768 -0.5506,-1.687 -1.7486,-4.6047 -3.4389,-4.0641 -1.1952,0.38227 0.69516,3.0038 -0.31262,3.7515 -1.1983,0.88898 -3.2429,-1.9077 -4.3768,-0.93787 z"
         id="path3949" />
      <path
         d="m 53.459,213.33 c -1.4276,1.2211 -0.77243,4.0936 0.31262,5.6273 0.78244,1.1059 2.4299,1.8609 3.7515,1.5631 1.3677,-0.30814 1.6552,-2.3365 2.8136,-3.1262 1.4713,-1.0031 4.6573,-0.12872 5.002,-1.8758 0.38539,-1.9532 -2.3859,-4.0486 -4.3768,-4.0641 -1.4019,-0.0109 -2.397,0.57628 -3.1263,2.8136 -0.46241,1.4186 -3.2429,-1.9077 -4.3768,-0.93787 z"
         inkscape:connector-curvature="0"
         style="fill:#a05e00"
         sodipodi:nodetypes="aaaaaasa"
         id="path3951" />
      <path
         inkscape:connector-curvature="0"
         style="fill:#a05e00"
         sodipodi:nodetypes="aaaaaasa"
         d="m 55.96,273.98 c -1.4276,1.2211 -0.77243,4.0936 0.31262,5.6273 0.78244,1.1059 2.4299,1.8609 3.7515,1.5631 1.3677,-0.30814 1.6552,-2.3365 2.8136,-3.1262 1.4713,-1.0031 4.6573,-0.12872 5.002,-1.8758 0.38539,-1.9532 -2.3859,-4.0486 -4.3768,-4.0641 -1.4019,-0.0109 -2.397,0.57628 -3.1263,2.8136 -0.46241,1.4186 -3.2429,-1.9077 -4.3768,-0.93787 z"
         id="path3953" />
      <path
         d="m 50.02,305.24 c -1.4276,1.2211 -0.77243,4.0936 0.31262,5.6273 0.78244,1.1059 2.4299,1.8609 3.7515,1.5631 1.3677,-0.30814 1.6552,-2.3365 2.8136,-3.1262 1.4713,-1.0031 4.6573,-0.12872 5.002,-1.8758 0.38539,-1.9532 -2.3859,-4.0486 -4.3768,-4.0641 -1.4019,-0.0109 -2.397,0.57628 -3.1263,2.8136 -0.46241,1.4186 -3.2429,-1.9077 -4.3768,-0.93787 z"
         inkscape:connector-curvature="0"
         style="fill:#a05e00"
         sodipodi:nodetypes="aaaaaasa"
         id="path3955" />
      <path
         inkscape:connector-curvature="0"
         style="fill:#a05e00"
         sodipodi:nodetypes="aaaaaasa"
         d="m 66.589,181.75 c -1.4276,1.2211 -0.77243,4.0936 0.31262,5.6273 0.78244,1.1059 2.4299,1.8609 3.7515,1.5631 1.3677,-0.30814 1.6552,-2.3365 2.8136,-3.1262 1.4713,-1.0031 4.6573,-0.12872 5.002,-1.8758 0.38539,-1.9532 -2.3859,-4.0486 -4.3768,-4.0641 -1.4019,-0.0109 -2.397,0.57628 -3.1263,2.8136 -0.46241,1.4186 -3.2429,-1.9077 -4.3768,-0.93787 z"
         id="path3957" />
      <path
         inkscape:connector-curvature="0"
         style="fill:url(#linearGradient4287)"
         sodipodi:nodetypes="ssssccssssss"
         d="m 235.47,11.719 c -9.7077,0.18398 -19.274,1.5372 -28.406,4.25 -36.14,10.735 -67.52,39.145 -88.4,70.531 -21.128,31.75 -25.227,72.38 -31.285,110.03 -6.2638,38.925 19.337,87.169 -5,118.19 -4.9268,4.8674 -10.445,6.6787 -16.618,10.302 8.426,-1.42 24.998,-9.28 30.368,-12.8 87.665,-57.51 175.14,-105.95 268.26,-164.47 8.3066,-5.2209 6.6031,-18.945 6.25,-28.75 -0.53163,-14.763 -4.4963,-30.115 -12.5,-42.531 -14.315,-22.208 -35.734,-41.369 -60.031,-51.75 -19.273,-8.2347 -41.268,-13.405 -62.625,-13 z"
         id="path3006" />
      <path
         inkscape:connector-curvature="0"
         style="fill:#d38d5f"
         d="m 63.281,274.12 c -1.0798,2.0764 -3.7717,4.7396 -5.9062,2.0312 -1.0868,1.2492 2.1122,4.7897 3.0938,1.75 0.84654,-2.1282 3.5745,-2.7866 5.1875,-2.5312 -0.61255,-0.62988 -1.4653,-1.3342 -2.375,-1.25 z"
         id="path3959" />
      <path
         inkscape:connector-curvature="0"
         style="fill:#d38d5f"
         d="m 48.062,250.19 c -1.0756,1.9385 -4.3048,0.74022 -4.9688,1.0312 0.38185,3.4918 6.8042,3.214 4.9688,-1.0312 z m -1.9688,3.4375 c -0.04293,0.0577 0.10364,0.0325 0,0 z"
         id="path3965" />
      <path
         inkscape:connector-curvature="0"
         style="fill:#deaa87"
         sodipodi:nodetypes="aaaaaaa"
         d="m 75.602,242.34 c -1.9058,-0.24499 -4.6536,1.1848 -4.8633,3.0948 -0.20468,1.8646 4.1913,2.1154 3.9791,3.9791 -0.15732,1.3814 -3.7012,0.83001 -3.537,2.2106 0.2753,2.3138 4.4277,2.9668 6.6318,2.2106 2.0104,-0.68978 3.7072,-3.1868 3.537,-5.3054 -0.22553,-2.8065 -2.955,-5.8307 -5.7475,-6.1897 z"
         id="path3973" />
      <path
         inkscape:connector-curvature="0"
         style="fill:#4c6e00"
         sodipodi:nodetypes="ccccaacc"
         d="m 13.13,165.81 15.631,0 11.88,3.2505 4.3768,5.503 c 0,0 3.0168,-0.15611 3.7515,-1.2505 1.7464,-2.6013 1.4613,-7.0414 -0.62525,-9.3788 -3.1035,-3.4766 -13.756,-2.501 -13.756,-2.501 z"
         id="path3979" />
      <path
         inkscape:connector-curvature="0"
         style="fill:#73cb2b"
         d="m 35.37,152.15 9.7266,-10.611 2.6527,-8.8424 8.8424,3.537 5.3054,-5.3054 c 0,0 16.801,13.264 14.148,7.9581 -2.6527,-5.3054 0.88424,-15.032 0.88424,-15.032 l 6.1897,2.6527 0,18.569 c 0,0 -1.7685,20.337 -7.0739,15.916 -5.3054,-4.4212 -10.611,-11.495 -10.611,-11.495 l -3.537,2.6527 -10.611,-3.537 -4.4212,7.9582 z"
         id="path3983" />
      <path
         inkscape:connector-curvature="0"
         style="opacity:0.36400003;fill:#d5ffd5"
         d="m 62.031,136.28 c -2.2434,1.686 -4.8865,5.7786 -8.0312,2.875 -1.7998,-1.6251 -5.5578,-1.7572 -4.6562,1.5312 -0.40868,4.4381 -4.5269,7.1297 -7.4062,10.031 1.5135,1.341 3.3943,1.8689 3.4375,-0.65625 1.8367,-4.5715 8.256,-6.7323 11.844,-3.0312 4.8029,0.14142 11.52,-2.3972 14.159,3.3151 1.7561,1.4915 3.7317,5.8253 5.529,5.3412 1.6005,-4.0718 2.5698,-10.186 2.1875,-13.438 -4.4615,4.3002 -10.561,-1.0756 -13.969,-4.4062 -0.94275,-0.55418 -1.8592,-1.7915 -3.0938,-1.5625 z"
         id="path3999" />
      <path
         inkscape:connector-curvature="0"
         style="opacity:0.32480002;fill:url(#linearGradient4281)"
         d="m 82.062,160.41 c -8.437,0.74291 -18.227,0.30389 -25.125,5.8125 -2.9935,3.1656 -2.0035,7.7802 0.84375,10.594 1.4528,3.1864 4.9623,4.9632 8.1515,3.2463 7.013,-0.69 14.025,-1.37 21.037,-2.06 1.677,-5.85 3.354,-11.71 5.031,-17.56 -3.3123,-0.0624 -6.6249,-0.0897 -9.9375,-0.0312 z"
         id="path4011" />
    </g>
  </g>
  <metadata
     id="metadata74">
    <rdf:RDF>
      <cc:Work>
        <dc:format>image/svg+xml</dc:format>
        <dc:type
           rdf:resource="http://purl.org/dc/dcmitype/StillImage" />
        <cc:license
           rdf:resource="http://creativecommons.org/publicdomain/zero/1.0/" />
        <dc:publisher>
          <cc:Agent
             rdf:about="http://openclipart.org/">
            <dc:title>Openclipart</dc:title>
          </cc:Agent>
        </dc:publisher>
        <dc:title>Taco</dc:title>
        <dc:date>2011-07-22T20:29:10</dc:date>
        <dc:description />
        <dc:source>https://openclipart.org/detail/151201/taco-by-gnokii</dc:source>
        <dc:creator>
          <cc:Agent>
            <dc:title>gnokii</dc:title>
          </cc:Agent>
        </dc:creator>
        <dc:subject>
          <rdf:Bag>
            <rdf:li>fast food</rdf:li>
            <rdf:li>food</rdf:li>
            <rdf:li>mexican food</rdf:li>
            <rdf:li>taco</rdf:li>
          </rdf:Bag>
        </dc:subject>
      </cc:Work>
      <cc:License
         rdf:about="http://creativecommons.org/publicdomain/zero/1.0/">
        <cc:permits
           rdf:resource="http://creativecommons.org/ns#Reproduction" />
        <cc:permits
           rdf:resource="http://creativecommons.org/ns#Distribution" />
        <cc:permits
           rdf:resource="http://creativecommons.org/ns#DerivativeWorks" />
      </cc:License>
    </rdf:RDF>
  </metadata>
</svg>
