<?xml version="1.0" encoding="UTF-8" standalone="no"?>
<!-- Generator: Adobe Illustrator 13.0.0, SVG Export Plug-In . SVG Version: 6.00 Build 14948)  -->

<svg
   xmlns:dc="http://purl.org/dc/elements/1.1/"
   xmlns:cc="http://creativecommons.org/ns#"
   xmlns:rdf="http://www.w3.org/1999/02/22-rdf-syntax-ns#"
   xmlns:svg="http://www.w3.org/2000/svg"
   xmlns="http://www.w3.org/2000/svg"
   xmlns:sodipodi="http://sodipodi.sourceforge.net/DTD/sodipodi-0.dtd"
   xmlns:inkscape="http://www.inkscape.org/namespaces/inkscape"
   height="1110.5309"
   width="1110.5309"
   sodipodi:docname="openclipart_59_vector_laptop_or_notebook.svg"
   inkscape:version="0.91 r13725"
   x="0px"
   y="0px"
   version="1.1"
   viewBox="0 0 1110.5308 1110.5309"
   xml:space="preserve"
   enable-background="new 0 0 1300 1000"
   id="Layer_1"><sodipodi:namedview
     fit-margin-right="0"
     fit-margin-left="0"
     fit-margin-top="0"
     inkscape:current-layer="Layer_1"
     inkscape:window-maximized="1"
     inkscape:window-y="-8"
     inkscape:window-x="1272"
     inkscape:cy="596.95071"
     inkscape:cx="530.62699"
     inkscape:zoom="0.3337544"
     showgrid="false"
     id="namedview224"
     inkscape:window-height="660"
     inkscape:window-width="1280"
     inkscape:pageshadow="2"
     inkscape:pageopacity="0"
     guidetolerance="10"
     gridtolerance="10"
     objecttolerance="10"
     borderopacity="1"
     bordercolor="#666666"
     pagecolor="#ffffff"
     inkscape:object-nodes="true" /><defs
     id="defs226"><linearGradient
       id="SVGID_13_-2"
       y2="115.08"
       gradientUnits="userSpaceOnUse"
       x2="661.25"
       y1="612.15002"
       x1="661.25"><stop
         style="stop-color:#E0E0E0"
         offset="0"
         id="stop170-7" /><stop
         style="stop-color:#C3C3C3"
         offset=".1379"
         id="stop172-9" /><stop
         style="stop-color:#6E6E6E"
         offset=".5532"
         id="stop174-6" /><stop
         style="stop-color:#383838"
         offset=".8465"
         id="stop176-3" /><stop
         style="stop-color:#242424"
         offset=".9888"
         id="stop178-1" /></linearGradient></defs><linearGradient
     id="SVGID_1_"
     y2="1003.9"
     gradientUnits="userSpaceOnUse"
     x2="-205.03999"
     y1="1004.1"
     x1="-208.34"
     gradientTransform="translate(209.028,-84.593)"><stop
       style="stop-color:#FFFFFF"
       offset=".0056"
       id="stop4" /><stop
       style="stop-color:#D2D2D2"
       offset=".4008"
       id="stop6" /><stop
       style="stop-color:#ABABAB"
       offset=".7948"
       id="stop8" /><stop
       style="stop-color:#9C9C9C"
       offset="1"
       id="stop10" /></linearGradient><linearGradient
     id="SVGID_2_"
     y2="641.12"
     gradientUnits="userSpaceOnUse"
     x2="1144.1"
     y1="641.12"
     x1="1134.8"
     gradientTransform="translate(-105.93915,43.41145)"><stop
       style="stop-color:#3D3D3D"
       offset="0"
       id="stop15" /><stop
       style="stop-color:#373737"
       offset=".2665"
       id="stop17" /><stop
       style="stop-color:#272727"
       offset=".6178"
       id="stop19" /><stop
       style="stop-color:#0D0D0D"
       offset="1"
       id="stop21" /></linearGradient><linearGradient
     id="SVGID_3_"
     y2="641.15997"
     gradientUnits="userSpaceOnUse"
     x2="181.56"
     y1="641.15997"
     x1="188.48"
     gradientTransform="translate(209.028,-84.593)"><stop
       style="stop-color:#606163"
       offset="0"
       id="stop30" /><stop
       style="stop-color:#666769"
       offset=".1268"
       id="stop32" /><stop
       style="stop-color:#767779"
       offset=".2942"
       id="stop34" /><stop
       style="stop-color:#929394"
       offset=".4841"
       id="stop36" /><stop
       style="stop-color:#B8B8B9"
       offset=".6908"
       id="stop38" /><stop
       style="stop-color:#E8E9E9"
       offset=".9085"
       id="stop40" /><stop
       style="stop-color:#FFFFFF"
       offset="1"
       id="stop42" /></linearGradient><linearGradient
     id="SVGID_4_"
     y2="623.17999"
     gradientUnits="userSpaceOnUse"
     x2="1149.9"
     y1="116.82"
     x1="185.66"
     gradientTransform="translate(-105.93915,43.41145)"><stop
       style="stop-color:#000000"
       offset="0"
       id="stop47" /><stop
       style="stop-color:#0D0D0D"
       offset=".1335"
       id="stop49" /><stop
       style="stop-color:#424242"
       offset=".7083"
       id="stop51" /><stop
       style="stop-color:#575757"
       offset=".9888"
       id="stop53" /></linearGradient><linearGradient
     id="SVGID_5_"
     y2="639.65002"
     gradientUnits="userSpaceOnUse"
     x2="661.20001"
     y1="922.96002"
     x1="661.20001"
     gradientTransform="translate(-105.93915,43.41145)"><stop
       style="stop-color:#F4F4F6"
       offset="0"
       id="stop58" /><stop
       style="stop-color:#E0E0E1"
       offset=".1142"
       id="stop60" /><stop
       style="stop-color:#AAAAAC"
       offset=".3497"
       id="stop62" /><stop
       style="stop-color:#565657"
       offset=".6824"
       id="stop64" /><stop
       style="stop-color:#000000"
       offset="1"
       id="stop66" /></linearGradient><linearGradient
     id="SVGID_7_"
     y2="925.96997"
     gradientUnits="userSpaceOnUse"
     x2="1215.6"
     y1="925.96997"
     x1="1206.3"
     gradientTransform="translate(-105.93915,43.41145)"><stop
       style="stop-color:#0D0D0D"
       offset="0"
       id="stop86" /><stop
       style="stop-color:#070707"
       offset=".6136"
       id="stop88" /><stop
       style="stop-color:#000000"
       offset="1"
       id="stop90" /></linearGradient><linearGradient
     id="SVGID_8_"
     y2="926.57001"
     gradientUnits="userSpaceOnUse"
     x2="106.66"
     y1="925.53003"
     x1="117.01"
     gradientTransform="translate(-105.93915,43.41145)"><stop
       style="stop-color:#0D0D0D"
       offset="0"
       id="stop97" /><stop
       style="stop-color:#131313"
       offset=".0975"
       id="stop99" /><stop
       style="stop-color:#232323"
       offset=".2262"
       id="stop101" /><stop
       style="stop-color:#3F3F3F"
       offset=".3724"
       id="stop103" /><stop
       style="stop-color:#656565"
       offset=".5314"
       id="stop105" /><stop
       style="stop-color:#969696"
       offset=".7009"
       id="stop107" /><stop
       style="stop-color:#D1D1D1"
       offset=".8763"
       id="stop109" /><stop
       style="stop-color:#FFFFFF"
       offset="1"
       id="stop111" /></linearGradient><linearGradient
     id="SVGID_9_"
     y2="858.22998"
     gradientUnits="userSpaceOnUse"
     x2="787.66998"
     y1="858.22998"
     x1="513.03003"
     gradientTransform="translate(-105.93915,43.41145)"><stop
       style="stop-color:#F4F4F4"
       offset="0"
       id="stop116" /><stop
       style="stop-color:#E0E0E0"
       offset=".1633"
       id="stop118" /><stop
       style="stop-color:#AAAAAA"
       offset=".4998"
       id="stop120" /><stop
       style="stop-color:#555555"
       offset=".9769"
       id="stop122" /><stop
       style="stop-color:#545454"
       offset=".9831"
       id="stop124" /></linearGradient><linearGradient
     id="SVGID_10_"
     y2="872.53998"
     gradientUnits="userSpaceOnUse"
     x2="515.85999"
     y1="887.88"
     x1="783.15997"
     gradientTransform="translate(-105.93915,43.41145)"><stop
       style="stop-color:#383838"
       offset="0"
       id="stop129" /><stop
       style="stop-color:#7D7D7D"
       offset=".4335"
       id="stop131" /><stop
       style="stop-color:#B2B2B2"
       offset=".8073"
       id="stop133" /><stop
       style="stop-color:#C7C7C7"
       offset=".9888"
       id="stop135" /></linearGradient><linearGradient
     id="SVGID_13_"
     y2="115.08"
     gradientUnits="userSpaceOnUse"
     x2="661.25"
     y1="612.15002"
     x1="661.25"><stop
       style="stop-color:#E0E0E0"
       offset="0"
       id="stop170" /><stop
       style="stop-color:#C3C3C3"
       offset=".1379"
       id="stop172" /><stop
       style="stop-color:#6E6E6E"
       offset=".5532"
       id="stop174" /><stop
       style="stop-color:#383838"
       offset=".8465"
       id="stop176" /><stop
       style="stop-color:#242424"
       offset=".9888"
       id="stop178" /></linearGradient><path
     d="m 1039.0608,678.42145 c -0.849,2.101 -1.694,4.203 -2.539,6.304 -0.349,0.87 -0.819,1.677 -1.387,2.392 -0.575,0.718 -1.244,1.347 -1.995,1.867 -0.75,0.522 -1.581,0.934 -2.474,1.214 -0.89,0.281 -1.84,0.435 -2.832,0.435 l 2.495,-6.276 c 0.998,0 1.951,-0.152 2.846,-0.436 0.9,-0.283 1.734,-0.698 2.489,-1.219 0.749,-0.522 1.425,-1.158 2.003,-1.877 0.6,-0.7 1.1,-1.52 1.4,-2.39 z"
     id="path23"
     inkscape:connector-curvature="0"
     style="fill:url(#SVGID_2_)" /><g
     id="g25"
     transform="translate(-105.93915,43.41145)"><polygon
       points="187.35,641.01 1136.3,640.94 1133.8,647.22 189.8,647.29 "
       id="polygon27"
       style="fill:#606163" /></g><path
     d="m 1014.9608,128.06945 c 1.292,0 2.538,0.259 3.683,0.725 1.143,0.465 2.188,1.139 3.073,1.969 0.886,0.834 1.611,1.825 2.139,2.927 0.521,1.097 0.835,2.31 0.889,3.58 l 15.048,536.94 c 0.063,1.398 -0.159,2.73 -0.606,3.943 -0.447,1.214 -1.124,2.306 -1.979,3.225 -0.854,0.918 -1.886,1.661 -3.046,2.177 -1.162,0.512 -2.446,0.797 -3.808,0.797 l -948.93995,0.067 c -1.363,0 -2.652,-0.282 -3.81,-0.798 -1.162,-0.513 -2.195,-1.257 -3.052,-2.175 -0.854,-0.919 -1.532,-2.013 -1.981,-3.225 -0.45,-1.214 -0.669,-2.548 -0.611,-3.946 l 14.703,-537.07 c 0.056,-1.269 0.368,-2.48 0.892,-3.582 0.521,-1.101 1.253,-2.092 2.137,-2.926 0.887,-0.832 1.927,-1.506 3.071,-1.97 1.143,-0.466 2.389,-0.723 3.687,-0.723 l 918.49995,0.059 z"
     id="path55"
     inkscape:connector-curvature="0"
     style="fill:url(#SVGID_4_)" /><path
     d="m 1027.7608,687.13145 c 1.359,0 2.686,0.116 3.919,0.324 1.234,0.207 2.377,0.509 3.368,0.883 0.993,0.375 1.833,0.819 2.465,1.315 0.635,0.493 1.054,1.039 1.212,1.61 l 71.62,264.15999 c 0.206,0.755 0.085,1.473 -0.315,2.125 -0.394,0.655 -1.063,1.242 -1.955,1.738 -0.892,0.494 -2.007,0.894 -3.29,1.17 -1.283,0.279 -2.733,0.432 -4.301,0.432 l -1090.4999501,0.037 c -1.569,0 -3.022,-0.153 -4.307,-0.429 -1.284,-0.28 -2.4,-0.678 -3.294,-1.175 -0.895,-0.491 -1.56699999,-1.083 -1.96499999,-1.737 -0.399,-0.653 -0.524,-1.37 -0.324,-2.123 L 70.71985,691.23145 c 0.153,-0.572 0.576,-1.117 1.208,-1.612 0.631,-0.494 1.47,-0.94 2.46,-1.314 0.989,-0.372 2.133,-0.673 3.366,-0.883 1.232,-0.21 2.559,-0.324 3.919,-0.324 l 946.08995,0.01 z"
     id="path68"
     inkscape:connector-curvature="0"
     style="fill:url(#SVGID_5_)" /><g
     id="g70"
     transform="translate(-105.93915,43.41145)"><linearGradient
       id="SVGID_6_"
       y2="645.28003"
       gradientUnits="userSpaceOnUse"
       x2="661.16998"
       y1="921.97998"
       x1="661.16998"><stop
         style="stop-color:#FFFFFF"
         offset="0"
         id="stop73" /><stop
         style="stop-color:#A0A0A0"
         offset=".3304"
         id="stop75" /><stop
         style="stop-color:#4A4A4A"
         offset=".6536"
         id="stop77" /><stop
         style="stop-color:#151515"
         offset=".8793"
         id="stop79" /><stop
         style="stop-color:#000000"
         offset=".9888"
         id="stop81" /></linearGradient><path
       d="m 1143.5,646.24 c -0.632,-0.496 -1.472,-0.94 -2.465,-1.315 -0.991,-0.374 -2.134,-0.676 -3.368,-0.883 -1.233,-0.208 -2.56,-0.324 -3.919,-0.324 l -946.06,-0.032 c -1.361,0 -2.688,0.114 -3.919,0.324 -1.233,0.21 -2.376,0.511 -3.366,0.883 -0.723,0.272 -1.328,0.595 -1.868,0.935 -0.238,0.425 -0.474,0.851 -0.648,1.314 -0.447,1.199 -0.668,2.52 -0.61,3.9 l 7.376,266.47 26.779,0 -6.312,-252.87 911.02,0 -5.523,252.84 26.94,-0.002 7.549,-266.37 c 0.054,-1.21 -0.12,-2.368 -0.462,-3.444 -0.1,-0.5 -0.5,-0.98 -1,-1.42 z"
       id="path83"
       inkscape:connector-curvature="0"
       style="fill:url(#SVGID_6_)" /></g><path
     d="m 1110.4608,956.31144 c -0.457,7.174 -0.916,14.346 -1.374,21.521 -0.043,0.652 -0.333,1.27 -0.83,1.827 -0.498,0.556 -1.207,1.051 -2.082,1.467 -0.884,0.412 -1.934,0.745 -3.117,0.975 -1.184,0.23 -4.048,0.354 -5.458,0.354 l 2.908,-21.557 c 1.412,0 2.73,-0.125 3.916,-0.352 1.188,-0.224 2.238,-0.554 3.116,-0.968 0.885,-0.411 1.592,-0.904 2.091,-1.456 0.6,-0.55 0.9,-1.17 0.9,-1.81 z"
     id="path92"
     inkscape:connector-curvature="0"
     style="fill:url(#SVGID_7_)" /><polygon
     points="115.98,917.52 1206.5,917.48 1205.1,939.04 117.31,939.08 "
     id="polygon94"
     style="fill:#333333"
     transform="translate(-105.93915,43.41145)" /><path
     d="m 1.4108499,977.85144 c -0.45299999,-7.175 -0.90499999,-14.351 -1.35699999,-21.526 0.043,0.65 0.333,1.263 0.832,1.817 0.50099999,0.553 1.21199999,1.047 2.09699999,1.458 0.88,0.411 1.938,0.743 3.126,0.972 1.188,0.228 2.509,0.352 3.9250001,0.352 l 2.343,21.602 c -1.412,0 -3.7370001,-0.163 -4.9220001,-0.395 -1.186,-0.229 -2.24,-0.562 -3.123,-0.979 -0.879,-0.413 -1.589,-0.91 -2.09,-1.469 -0.51,-0.55 -0.79,-1.17 -0.84,-1.83 z"
     id="path113"
     inkscape:connector-curvature="0"
     style="fill:url(#SVGID_8_)" /><path
     d="m 660.27085,866.20145 -230.02,0.004 c -2.354,0 -4.615,0.219 -6.688,0.613 -2.076,0.395 -3.966,0.968 -5.577,1.673 -1.613,0.707 -2.944,1.552 -3.899,2.488 -0.956,0.938 -1.536,1.97099 -1.643,3.05999 l -5.34,54.577 c -0.114,1.162 0.273,2.273 1.075,3.285 0.8,1.014 2.014,1.926 3.549,2.694 1.537,0.767 3.396,1.392 5.487,1.821 2.09,0.431 4.41,0.669 6.87,0.669 l 240.42,-0.01 c 2.465,0 4.791,-0.237 6.894,-0.668 2.104,-0.43 3.98,-1.053 5.539,-1.821 1.557,-0.768 2.795,-1.683 3.623,-2.694 0.828,-1.011 1.244,-2.122 1.163,-3.287 0.081,1.165 -0.335,2.275 -1.163,3.287 -0.828,1.012 -2.066,1.927 -3.623,2.694 -1.559,0.769 -3.435,1.392 -5.539,1.821 -2.103,0.431 -4.429,0.668 -6.894,0.668 l -240.42,0.01 c -2.46,0 -4.78,-0.238 -6.87,-0.669 -2.092,-0.43 -3.951,-1.055 -5.487,-1.821 -1.536,-0.769 -2.749,-1.681 -3.549,-2.694 -0.802,-1.012 -1.189,-2.123 -1.075,-3.285 l 1.711,-17.511 271.66,0 -2.618,-37.065 c -0.075,-1.087 -0.628,-2.11899 -1.558,-3.05699 -0.931,-0.938 -2.239,-1.781 -3.831,-2.489 -1.593,-0.708 -3.468,-1.278 -5.533,-1.671 -2.05,-0.39 -4.3,-0.61 -6.66,-0.61 z"
     id="path126"
     inkscape:connector-curvature="0"
     style="fill:url(#SVGID_9_)" /><path
     d="m 680.48085,911.10144 -271.66,0 -1.711,17.511 c -0.114,1.162 0.273,2.273 1.075,3.285 0.8,1.014 2.014,1.926 3.549,2.694 1.537,0.767 3.396,1.392 5.487,1.821 2.09,0.431 4.41,0.669 6.87,0.669 l 240.42,-0.01 c 2.465,0 4.791,-0.237 6.894,-0.668 2.104,-0.43 3.98,-1.053 5.539,-1.821 1.557,-0.768 2.795,-1.683 3.623,-2.694 0.828,-1.011 1.244,-2.122 1.163,-3.287 l -1.24,-17.51 z"
     id="path137"
     inkscape:connector-curvature="0"
     style="fill:url(#SVGID_10_)" /><g
     id="g139"
     transform="translate(-105.93915,43.41145)"><linearGradient
       id="SVGID_11_"
       y2="866.69"
       gradientUnits="userSpaceOnUse"
       x2="786.83002"
       y1="850.12"
       x1="515.09998"><stop
         style="stop-color:#474747"
         offset="0"
         id="stop142" /><stop
         style="stop-color:#5C5C5C"
         offset=".1449"
         id="stop144" /><stop
         style="stop-color:#919191"
         offset=".4435"
         id="stop146" /><stop
         style="stop-color:#E6E6E6"
         offset=".8666"
         id="stop148" /><stop
         style="stop-color:#FFFFFF"
         offset=".9831"
         id="stop150" /></linearGradient><path
       d="m 522.92,894.31 c -2.174,-0.446 -4.127,-1.096 -5.777,-1.918 -1.651,-0.83 -3.01,-1.829 -3.973,-3.044 -0.762,-0.951 -1.272,-2.075 -1.371,-3.29 0,0 -0.002,0 -0.002,-0.004 -0.003,-0.036 -0.004,-0.071 -0.008,-0.104 0,-0.012 0,-0.025 -0.003,-0.033 0,-0.033 -0.002,-0.067 -0.003,-0.1 l 0,-0.027 c -0.001,-0.035 -0.001,-0.071 -0.001,-0.108 -0.003,-0.025 -0.003,-0.052 -0.003,-0.079 0,-0.168 0.007,-0.36 0.028,-0.538 l 1.829,-18.7 10e-4,0 3.51,-35.877 c 0.15,-1.509 0.936,-2.821 2.039,-3.898 1.105,-1.086 2.557,-1.987 4.266,-2.74 1.712,-0.752 3.682,-1.344 5.833,-1.752 2.151,-0.411 4.482,-0.636 6.907,-0.636 l 230,0 0,2.662 -230.02,0.003 c -2.283,0 -4.471,0.213 -6.473,0.591 -1.996,0.383 -3.808,0.932 -5.321,1.595 -1.511,0.663 -2.724,1.443 -3.527,2.237 -0.812,0.798 -1.184,1.556 -1.248,2.216 l -3.483,35.6 268.94,-0.007 -2.517,-35.632 c -0.045,-0.661 -0.386,-1.397 -1.171,-2.193 -0.775,-0.783 -1.961,-1.564 -3.453,-2.225 -1.494,-0.662 -3.285,-1.213 -5.274,-1.591 -1.986,-0.382 -4.17,-0.594 -6.453,-0.594 l 0,-2.662 c 2.426,0 4.756,0.225 6.894,0.633 2.145,0.411 4.101,1.003 5.793,1.755 1.691,0.753 3.123,1.66 4.208,2.75 1.077,1.082 1.838,2.411 1.947,3.929 l 2.716,38.493 -271.88,0.005 -1.595,16.318 c -0.011,0.102 -0.016,0.188 -0.015,0.259 0.003,0.652 0.232,1.304 0.803,2.031 0.635,0.808 1.705,1.639 3.125,2.348 1.418,0.709 3.188,1.305 5.195,1.717 2.003,0.412 4.247,0.646 6.631,0.646 l 240.42,-0.007 c 2.39,0 4.639,-0.23 6.657,-0.647 2.02,-0.412 3.806,-1.009 5.252,-1.722 0.093,-0.045 0.179,-0.09 0.266,-0.134 1.138,-0.589 2.043,-1.254 2.668,-1.919 0.098,-0.101 0.187,-0.205 0.27,-0.306 0.613,-0.759 0.865,-1.453 0.866,-2.129 l 0,-0.036 c -10e-4,-0.027 -10e-4,-0.054 -10e-4,-0.084 -0.001,-0.024 -0.004,-0.052 -0.004,-0.076 l 0,-0.014 2.488,-0.164 0,0.015 0.001,0 c 0.005,0.107 0.009,0.229 0.011,0.359 0.003,1.443 -0.573,2.777 -1.48,3.875 -0.993,1.207 -2.371,2.203 -4.039,3.029 -1.671,0.824 -3.642,1.475 -5.826,1.919 -2.188,0.449 -4.589,0.693 -7.128,0.693 l -240.42,0.007 c -2.55,-0.01 -4.94,-0.25 -7.12,-0.7 z"
       id="path152"
       inkscape:connector-curvature="0"
       style="fill:url(#SVGID_11_)" /></g><g
     id="g154"
     transform="translate(-105.93915,43.41145)"><linearGradient
       id="SVGID_12_"
       y2="888.44"
       gradientUnits="userSpaceOnUse"
       x2="785.48999"
       y1="871.87"
       x1="513.77002"><stop
         style="stop-color:#474747"
         offset="0"
         id="stop157" /><stop
         style="stop-color:#5C5C5C"
         offset=".1449"
         id="stop159" /><stop
         style="stop-color:#919191"
         offset=".4435"
         id="stop161" /><stop
         style="stop-color:#E6E6E6"
         offset=".8666"
         id="stop163" /><stop
         style="stop-color:#FFFFFF"
         offset=".9831"
         id="stop165" /></linearGradient><path
       d="m 522.92,894.31 c -2.174,-0.446 -4.127,-1.096 -5.777,-1.918 -1.651,-0.83 -3.01,-1.829 -3.973,-3.044 -0.855,-1.068 -1.393,-2.36 -1.392,-3.746 0,-0.194 0.014,-0.373 0.028,-0.538 l 1.829,-18.7 272.79,-0.007 1.155,0 1.329,18.765 c 0.005,0.107 0.009,0.229 0.011,0.359 0.003,1.443 -0.573,2.777 -1.48,3.875 -0.993,1.207 -2.371,2.203 -4.039,3.029 -1.671,0.824 -3.642,1.475 -5.826,1.919 -2.188,0.449 -4.589,0.693 -7.128,0.693 l -240.42,0.007 c -2.53,-0.01 -4.92,-0.25 -7.1,-0.7 z m -7.04,-25.29 -1.595,16.318 c -0.011,0.102 -0.016,0.188 -0.015,0.259 0.003,0.652 0.232,1.304 0.803,2.031 0.635,0.808 1.705,1.639 3.125,2.348 1.418,0.709 3.188,1.305 5.195,1.717 2.003,0.412 4.247,0.646 6.631,0.646 l 240.42,-0.007 c 2.39,0 4.639,-0.23 6.657,-0.647 2.02,-0.412 3.806,-1.009 5.252,-1.722 1.444,-0.711 2.541,-1.54 3.204,-2.361 0.613,-0.755 0.864,-1.445 0.865,-2.126 0,-0.059 -10e-4,-0.131 -0.005,-0.185 l -1.153,-16.276 -269.37,0 z m 269.3,-1.23 1.245,-0.099 -1.24,0.1 z"
       id="path167"
       inkscape:connector-curvature="0"
       style="fill:url(#SVGID_12_)" /></g><polygon
     points="1105.9,114.06 1116.8,617.12 205.74,617.12 218.16,114.06 "
     id="polygon180"
     style="fill:url(#SVGID_13_);opacity:0.4"
     transform="translate(-105.93915,43.41145)" /><path
     transform="translate(-105.93915,43.411454)"
     style="opacity:1;fill:#ffffff"
     d="m 1116.8,617.12 -911.06,0 12.42,-503.06 887.74,0 z"
     id="polygon180-4" /><path
     d="m 1057.1608,834.13145 c 0,4.472 -3.709,8.095 -8.285,8.095 l -980.86995,0 c -4.576,0 -8.284,-3.623 -8.284,-8.095 l 33.139,-125.2 c 0,-4.471 3.708,-8.094 8.285,-8.094 l 914.58995,0 c 4.575,0 8.284,3.623 8.284,8.094 l 33.1,125.2 z"
     id="path195"
     inkscape:connector-curvature="0"
     style="fill:#333333" /><g
     id="g197"
     transform="translate(-105.93915,43.41145)"><path
       d="m 200.47,697.24 c 0.352,0.169 0.789,0.311 1.287,0.405 0.501,0.096 1.06,0.149 1.665,0.149 l 43.656,0 c 0.604,0 1.187,-0.053 1.733,-0.148 0.542,-0.095 1.045,-0.234 1.475,-0.406 0.435,-0.168 0.798,-0.373 1.068,-0.601 0.27,-0.225 0.447,-0.473 0.506,-0.734 l 3.387,-15.425 c 0.055,-0.257 -0.011,-0.501 -0.181,-0.724 -0.171,-0.222 -0.444,-0.422 -0.796,-0.589 -0.354,-0.167 -0.79,-0.304 -1.285,-0.398 -0.497,-0.092 -1.054,-0.146 -1.653,-0.146 l -43.199,0 c -0.597,0 -1.181,0.053 -1.719,0.146 -0.541,0.095 -1.041,0.23 -1.472,0.396 -0.434,0.17 -0.797,0.37 -1.072,0.59 -0.274,0.225 -0.456,0.467 -0.52,0.724 l -3.824,15.426 c -0.062,0.262 -0.004,0.511 0.163,0.735 0.16,0.23 0.43,0.44 0.78,0.6 z m 58.21,0.01 c 0.358,0.17 0.799,0.31 1.299,0.404 0.501,0.096 1.064,0.148 1.665,0.148 l 43.664,10e-4 c 0.599,0 1.184,-0.054 1.722,-0.147 0.541,-0.097 1.04,-0.235 1.466,-0.405 0.428,-0.171 0.784,-0.375 1.047,-0.601 0.268,-0.226 0.435,-0.476 0.484,-0.736 l 2.903,-15.425 c 0.048,-0.258 -0.028,-0.501 -0.204,-0.724 -0.178,-0.22 -0.458,-0.422 -0.819,-0.589 -0.36,-0.167 -0.798,-0.302 -1.297,-0.396 -0.5,-0.094 -1.056,-0.146 -1.653,-0.146 l -43.206,-0.003 c -0.597,0 -1.175,0.055 -1.711,0.149 -0.536,0.092 -1.033,0.229 -1.461,0.396 -0.427,0.167 -0.789,0.369 -1.055,0.59 -0.266,0.222 -0.439,0.466 -0.498,0.723 l -3.339,15.425 c -0.057,0.262 0.013,0.51 0.186,0.734 0.18,0.24 0.45,0.45 0.81,0.62 z m 62.99,-18.47 c -0.533,0.095 -1.023,0.229 -1.446,0.396 -0.421,0.167 -0.777,0.369 -1.032,0.589 -0.262,0.223 -0.428,0.466 -0.474,0.724 l -2.855,15.425 c -0.047,0.261 0.028,0.511 0.206,0.736 0.181,0.226 0.462,0.43 0.826,0.601 0.363,0.17 0.807,0.309 1.313,0.405 0.503,0.094 1.069,0.147 1.672,0.147 l 43.652,0.002 c 0.604,0 1.185,-0.054 1.723,-0.147 0.538,-0.095 1.029,-0.236 1.449,-0.407 0.423,-0.17 0.776,-0.375 1.033,-0.6 0.255,-0.226 0.416,-0.475 0.457,-0.735 l 2.416,-15.424 c 0.039,-0.259 -0.043,-0.503 -0.228,-0.726 -0.183,-0.221 -0.467,-0.42 -0.833,-0.589 -0.364,-0.168 -0.807,-0.302 -1.312,-0.396 -0.5,-0.093 -1.061,-0.147 -1.658,-0.147 l -43.197,0 c -0.59,0 -1.17,0.05 -1.71,0.15 z m 54.76,18.88 c 0.507,0.094 1.071,0.147 1.676,0.147 l 43.66,0 c 0.603,0 1.181,-0.053 1.712,-0.147 0.534,-0.095 1.021,-0.233 1.437,-0.404 0.417,-0.171 0.763,-0.374 1.012,-0.601 0.249,-0.228 0.398,-0.475 0.433,-0.734 l 1.928,-15.427 c 0.033,-0.257 -0.058,-0.501 -0.249,-0.723 -0.189,-0.222 -0.482,-0.423 -0.85,-0.589 -0.368,-0.167 -0.817,-0.305 -1.32,-0.398 -0.504,-0.093 -1.064,-0.147 -1.66,-0.147 l -43.21,0 c -0.597,0 -1.173,0.054 -1.704,0.146 -0.531,0.095 -1.019,0.229 -1.433,0.396 -0.417,0.169 -0.767,0.368 -1.018,0.589 -0.25,0.223 -0.41,0.467 -0.449,0.726 l -2.368,15.424 c -0.04,0.263 0.044,0.51 0.23,0.735 0.186,0.225 0.475,0.43 0.846,0.6 0.36,0.16 0.81,0.3 1.32,0.4 z m 108.4,-18.48 c -0.374,-0.169 -0.828,-0.307 -1.336,-0.398 -0.509,-0.095 -1.072,-0.146 -1.668,-0.146 l -43.198,0 c -0.597,0 -1.168,0.051 -1.7,0.144 -0.528,0.094 -1.01,0.231 -1.419,0.398 -0.412,0.166 -0.751,0.368 -0.997,0.589 -0.244,0.222 -0.397,0.466 -0.426,0.723 l -1.881,15.427 c -0.035,0.26 0.059,0.507 0.25,0.734 0.195,0.227 0.49,0.43 0.863,0.601 0.375,0.171 0.829,0.31 1.34,0.406 0.509,0.093 1.079,0.146 1.679,0.146 l 43.65,0.002 c 0.604,0 1.182,-0.055 1.715,-0.147 0.531,-0.097 1.015,-0.235 1.425,-0.406 0.412,-0.17 0.752,-0.374 0.992,-0.601 0.241,-0.226 0.387,-0.474 0.412,-0.733 l 1.442,-15.428 c 0.026,-0.257 -0.072,-0.498 -0.271,-0.722 -0.17,-0.21 -0.47,-0.42 -0.84,-0.58 z m 57.63,0 c -0.379,-0.166 -0.839,-0.305 -1.35,-0.395 -0.508,-0.096 -1.075,-0.148 -1.67,-0.148 l -43.196,-10e-4 c -0.596,0 -1.169,0.051 -1.694,0.146 -0.527,0.094 -1.003,0.229 -1.409,0.398 -0.406,0.165 -0.74,0.366 -0.98,0.588 -0.24,0.224 -0.384,0.465 -0.406,0.722 l -1.393,15.428 c -0.024,0.26 0.076,0.509 0.274,0.733 0.202,0.227 0.504,0.431 0.882,0.601 0.379,0.171 0.836,0.31 1.352,0.406 0.513,0.093 1.083,0.147 1.685,0.147 l 43.649,0 c 0.604,0 1.182,-0.053 1.709,-0.146 0.529,-0.097 1.007,-0.235 1.414,-0.407 0.406,-0.167 0.737,-0.374 0.974,-0.599 0.233,-0.227 0.371,-0.474 0.388,-0.734 l 0.955,-15.428 c 0.018,-0.254 -0.087,-0.498 -0.294,-0.721 -0.18,-0.22 -0.49,-0.42 -0.87,-0.59 z m 57.64,0 c -0.386,-0.166 -0.847,-0.305 -1.361,-0.396 -0.513,-0.096 -1.08,-0.146 -1.678,-0.146 l -43.194,0 c -0.595,0 -1.168,0.051 -1.688,0.146 -0.525,0.09 -0.997,0.229 -1.4,0.395 -0.399,0.167 -0.727,0.369 -0.959,0.59 -0.231,0.223 -0.366,0.467 -0.379,0.721 l -0.912,15.428 c -0.014,0.261 0.093,0.508 0.301,0.734 0.206,0.225 0.513,0.432 0.899,0.599 0.384,0.172 0.847,0.311 1.363,0.407 0.519,0.095 1.09,0.146 1.691,0.146 l 43.649,0.002 c 0.602,0 1.177,-0.051 1.703,-0.148 0.527,-0.097 1.001,-0.233 1.401,-0.405 0.402,-0.169 0.726,-0.373 0.954,-0.599 0.224,-0.229 0.354,-0.475 0.365,-0.736 l 0.47,-15.428 c 0.01,-0.254 -0.106,-0.497 -0.317,-0.72 -0.2,-0.22 -0.51,-0.42 -0.89,-0.59 z m 58.55,0.59 c -0.22,-0.221 -0.534,-0.421 -0.927,-0.588 -0.39,-0.167 -0.858,-0.303 -1.373,-0.396 -0.517,-0.094 -1.087,-0.145 -1.684,-0.145 l -43.19,-0.003 c -0.598,0 -1.168,0.051 -1.688,0.146 -0.52,0.092 -0.986,0.23 -1.385,0.396 -0.394,0.168 -0.717,0.368 -0.941,0.589 -0.225,0.223 -0.351,0.466 -0.358,0.722 l -0.424,15.426 c -0.004,0.262 0.11,0.508 0.326,0.736 0.212,0.226 0.527,0.43 0.916,0.601 0.391,0.17 0.856,0.309 1.375,0.403 0.523,0.098 1.094,0.148 1.698,0.148 l 43.643,0.001 c 0.605,0 1.18,-0.052 1.701,-0.149 0.523,-0.095 0.994,-0.233 1.388,-0.403 0.395,-0.171 0.712,-0.375 0.935,-0.6 0.221,-0.226 0.342,-0.476 0.342,-0.734 l -0.014,-15.427 c 0,-0.27 -0.12,-0.52 -0.34,-0.74 z m 57.66,0 c -0.226,-0.223 -0.549,-0.423 -0.946,-0.59 -0.396,-0.166 -0.865,-0.303 -1.385,-0.396 -0.523,-0.096 -1.091,-0.145 -1.687,-0.145 l -43.198,-0.002 c -0.598,0 -1.163,0.051 -1.678,0.146 -0.516,0.092 -0.977,0.228 -1.369,0.395 -0.39,0.167 -0.705,0.367 -0.921,0.588 -0.22,0.225 -0.341,0.468 -0.337,0.724 l 0.061,15.427 c 0.004,0.259 0.127,0.509 0.346,0.734 0.221,0.225 0.543,0.429 0.938,0.6 0.393,0.171 0.863,0.31 1.39,0.407 0.521,0.094 1.093,0.146 1.693,0.146 l 43.653,0 c 0.604,0 1.177,-0.051 1.695,-0.146 0.519,-0.098 0.985,-0.236 1.374,-0.406 0.389,-0.17 0.701,-0.374 0.916,-0.6 0.212,-0.227 0.327,-0.474 0.319,-0.735 l -0.502,-15.427 c -0.01,-0.25 -0.14,-0.49 -0.36,-0.72 z m 57.64,0 c -0.229,-0.222 -0.56,-0.422 -0.963,-0.588 -0.399,-0.168 -0.874,-0.305 -1.396,-0.397 -0.523,-0.094 -1.096,-0.146 -1.693,-0.146 l -43.188,0 c -0.597,0 -1.164,0.049 -1.676,0.145 -0.516,0.094 -0.974,0.23 -1.358,0.396 -0.386,0.167 -0.696,0.367 -0.906,0.59 -0.212,0.222 -0.323,0.465 -0.313,0.72 l 0.55,15.427 c 0.007,0.262 0.138,0.511 0.367,0.735 0.229,0.226 0.556,0.43 0.957,0.6 0.402,0.172 0.877,0.309 1.402,0.406 0.525,0.095 1.101,0.146 1.707,0.146 l 43.643,0.004 c 0.603,0 1.174,-0.053 1.69,-0.149 0.516,-0.095 0.976,-0.232 1.358,-0.404 0.388,-0.172 0.693,-0.376 0.898,-0.599 0.206,-0.228 0.313,-0.476 0.295,-0.738 l -0.984,-15.425 c -0.02,-0.26 -0.16,-0.5 -0.39,-0.73 z m 57.65,0 c -0.241,-0.219 -0.576,-0.42 -0.983,-0.588 -0.404,-0.167 -0.885,-0.303 -1.408,-0.395 -0.524,-0.096 -1.101,-0.146 -1.695,-0.146 l -43.199,-0.002 c -0.596,0 -1.156,0.052 -1.669,0.145 -0.511,0.093 -0.966,0.229 -1.345,0.397 -0.384,0.166 -0.686,0.366 -0.893,0.588 -0.201,0.222 -0.309,0.468 -0.291,0.723 l 1.038,15.424 c 0.016,0.263 0.155,0.511 0.391,0.738 0.236,0.223 0.57,0.427 0.979,0.599 0.405,0.172 0.886,0.31 1.412,0.404 0.53,0.097 1.105,0.149 1.709,0.149 l 43.651,0 c 0.601,0 1.171,-0.052 1.684,-0.149 0.513,-0.094 0.971,-0.232 1.353,-0.402 0.375,-0.174 0.675,-0.376 0.873,-0.601 0.2,-0.228 0.298,-0.476 0.273,-0.735 l -1.475,-15.427 c -0.02,-0.25 -0.16,-0.49 -0.4,-0.72 z m 57.64,0.01 c -0.245,-0.221 -0.589,-0.421 -0.998,-0.588 -0.41,-0.17 -0.897,-0.303 -1.425,-0.397 -0.529,-0.094 -1.104,-0.146 -1.702,-0.146 l -43.185,0 c -0.598,0 -1.159,0.05 -1.668,0.146 -0.509,0.095 -0.963,0.228 -1.334,0.396 -0.373,0.166 -0.672,0.367 -0.868,0.586 -0.196,0.225 -0.294,0.468 -0.267,0.723 l 1.52,15.427 c 0.027,0.26 0.172,0.508 0.415,0.735 0.242,0.225 0.583,0.427 0.993,0.601 0.413,0.17 0.897,0.309 1.429,0.402 0.532,0.098 1.111,0.149 1.715,0.149 l 43.64,0 c 0.604,0 1.171,-0.052 1.681,-0.147 0.512,-0.095 0.964,-0.232 1.337,-0.402 0.374,-0.173 0.667,-0.378 0.859,-0.602 0.189,-0.226 0.281,-0.474 0.248,-0.736 l -1.961,-15.425 c -0.05,-0.26 -0.21,-0.5 -0.45,-0.72 z m 57.64,0 c -0.254,-0.223 -0.603,-0.422 -1.021,-0.592 -0.419,-0.165 -0.904,-0.302 -1.434,-0.396 -0.533,-0.094 -1.108,-0.143 -1.705,-0.143 l -43.194,-0.004 c -0.594,0 -1.158,0.052 -1.663,0.146 -0.506,0.095 -0.949,0.228 -1.321,0.397 -0.367,0.167 -0.657,0.367 -0.848,0.588 -0.188,0.222 -0.279,0.465 -0.246,0.724 l 2.007,15.423 c 0.039,0.263 0.187,0.511 0.44,0.736 0.247,0.225 0.595,0.429 1.011,0.602 0.418,0.17 0.907,0.308 1.442,0.402 0.534,0.096 1.115,0.149 1.72,0.149 l 43.646,10e-4 c 0.6,0 1.167,-0.055 1.672,-0.15 0.509,-0.093 0.956,-0.23 1.326,-0.402 0.368,-0.173 0.655,-0.375 0.84,-0.602 0.187,-0.226 0.269,-0.474 0.229,-0.734 l -2.445,-15.422 c -0.05,-0.28 -0.2,-0.52 -0.46,-0.74 z m 116.22,0 c -0.268,-0.222 -0.627,-0.42 -1.057,-0.589 -0.426,-0.168 -0.921,-0.303 -1.463,-0.397 -0.537,-0.091 -1.114,-0.145 -1.709,-0.146 l -101.26,0 c -0.598,0 -1.159,0.049 -1.66,0.143 -0.502,0.095 -0.945,0.231 -1.309,0.396 -0.36,0.17 -0.646,0.369 -0.827,0.592 -0.186,0.221 -0.263,0.463 -0.226,0.723 l 2.499,15.422 c 0.041,0.261 0.202,0.509 0.464,0.734 0.254,0.227 0.605,0.431 1.029,0.602 0.419,0.172 0.916,0.31 1.451,0.402 0.541,0.096 1.122,0.15 1.726,0.15 l 102.32,10e-4 c 0.603,0 1.167,-0.052 1.667,-0.147 0.503,-0.096 0.941,-0.233 1.298,-0.405 0.354,-0.171 0.631,-0.374 0.802,-0.6 0.169,-0.226 0.236,-0.476 0.178,-0.735 l -3.425,-15.423 c -0.1,-0.23 -0.2,-0.48 -0.5,-0.7 z m 10.7,16.88 c 0.273,0.226 0.639,0.429 1.072,0.6 0.432,0.172 0.934,0.31 1.479,0.405 0.536,0.096 1.123,0.15 1.726,0.15 l 43.644,0 c 0.604,0 1.164,-0.055 1.661,-0.15 0.499,-0.094 0.935,-0.233 1.287,-0.402 0.35,-0.172 0.618,-0.374 0.778,-0.6 0.163,-0.229 0.225,-0.476 0.159,-0.735 l -3.918,-15.424 c -0.063,-0.259 -0.247,-0.501 -0.52,-0.725 -0.273,-0.222 -0.641,-0.418 -1.073,-0.586 -0.435,-0.171 -0.935,-0.303 -1.476,-0.4 -0.539,-0.091 -1.119,-0.145 -1.717,-0.145 l -43.193,0 c -0.593,0 -1.149,0.054 -1.644,0.145 -0.494,0.095 -0.927,0.229 -1.278,0.397 -0.357,0.169 -0.627,0.367 -0.796,0.589 -0.166,0.22 -0.233,0.466 -0.177,0.725 l 3.479,15.422 c 0,0.27 0.2,0.52 0.4,0.74 z M 330,720.36 c 0.546,-0.1 1.05,-0.241 1.479,-0.415 0.43,-0.176 0.793,-0.382 1.058,-0.615 0.263,-0.233 0.432,-0.486 0.477,-0.753 l 2.744,-15.81 c 0.045,-0.261 -0.033,-0.511 -0.214,-0.739 -0.184,-0.229 -0.47,-0.433 -0.839,-0.604 -0.364,-0.171 -0.814,-0.312 -1.321,-0.408 -0.507,-0.096 -1.072,-0.147 -1.678,-0.147 l -43.726,-0.002 c -0.601,0 -1.188,0.052 -1.732,0.149 -0.541,0.097 -1.041,0.235 -1.472,0.408 -0.429,0.171 -0.789,0.374 -1.058,0.604 -0.268,0.227 -0.44,0.476 -0.494,0.738 l -3.19,15.811 c -0.055,0.264 0.018,0.52 0.193,0.753 0.178,0.229 0.458,0.438 0.821,0.614 0.366,0.175 0.816,0.315 1.323,0.414 0.511,0.098 1.079,0.154 1.69,0.154 l 44.19,0 c 0.62,0.02 1.21,-0.03 1.75,-0.13 z m -135.14,-0.42 c 0.355,0.172 0.797,0.315 1.302,0.412 0.501,0.1 1.074,0.154 1.683,0.154 l 69.821,0.002 c 0.612,0 1.204,-0.057 1.753,-0.154 0.551,-0.099 1.057,-0.239 1.492,-0.414 0.433,-0.177 0.801,-0.385 1.074,-0.614 0.271,-0.233 0.446,-0.489 0.499,-0.753 l 3.256,-15.812 c 0.056,-0.262 -0.016,-0.511 -0.189,-0.737 -0.175,-0.229 -0.454,-0.433 -0.814,-0.604 -0.359,-0.173 -0.8,-0.312 -1.305,-0.408 -0.502,-0.098 -1.069,-0.149 -1.672,-0.149 l -69.089,0 c -0.605,0 -1.192,0.051 -1.74,0.147 -0.548,0.096 -1.055,0.235 -1.49,0.408 -0.441,0.17 -0.811,0.375 -1.088,0.602 -0.278,0.229 -0.462,0.479 -0.525,0.741 l -3.923,15.809 c -0.066,0.267 -0.005,0.521 0.163,0.756 0.17,0.21 0.44,0.42 0.8,0.6 z m 194.09,0.42 c 0.542,-0.097 1.038,-0.238 1.461,-0.415 0.422,-0.176 0.778,-0.382 1.035,-0.614 0.255,-0.232 0.414,-0.487 0.452,-0.754 l 2.245,-15.81 c 0.039,-0.261 -0.049,-0.511 -0.235,-0.738 -0.192,-0.227 -0.483,-0.433 -0.854,-0.604 -0.368,-0.171 -0.822,-0.31 -1.33,-0.408 -0.51,-0.097 -1.079,-0.147 -1.684,-0.147 l -43.723,-10e-4 c -0.605,0 -1.188,0.052 -1.728,0.147 -0.542,0.097 -1.035,0.237 -1.459,0.408 -0.426,0.171 -0.783,0.375 -1.041,0.604 -0.262,0.229 -0.425,0.479 -0.469,0.739 l -2.694,15.81 c -0.043,0.267 0.036,0.52 0.218,0.753 0.184,0.233 0.474,0.439 0.841,0.615 0.371,0.174 0.824,0.315 1.334,0.415 0.512,0.099 1.085,0.152 1.698,0.153 l 44.188,0 c 0.6,0 1.19,-0.05 1.74,-0.15 z m 58.93,0 c 0.538,-0.099 1.031,-0.24 1.45,-0.417 0.42,-0.175 0.766,-0.382 1.015,-0.614 0.249,-0.23 0.402,-0.484 0.431,-0.754 l 1.746,-15.809 c 0.028,-0.261 -0.066,-0.511 -0.261,-0.737 -0.197,-0.229 -0.493,-0.432 -0.869,-0.605 -0.376,-0.168 -0.834,-0.309 -1.346,-0.405 -0.512,-0.097 -1.083,-0.15 -1.688,-0.15 l -43.722,0 c -0.604,0 -1.185,0.053 -1.723,0.147 -0.535,0.1 -1.028,0.237 -1.446,0.408 -0.419,0.174 -0.767,0.377 -1.022,0.604 -0.251,0.228 -0.41,0.478 -0.446,0.738 l -2.193,15.81 c -0.037,0.267 0.05,0.521 0.241,0.754 0.191,0.233 0.486,0.438 0.86,0.614 0.377,0.177 0.833,0.318 1.349,0.415 0.515,0.099 1.09,0.153 1.698,0.153 l 44.188,0 c 0.61,0 1.2,-0.05 1.74,-0.15 z m 13.36,-19.34 c -0.534,0.097 -1.018,0.237 -1.432,0.405 -0.414,0.174 -0.754,0.378 -1,0.605 -0.246,0.227 -0.393,0.478 -0.423,0.737 l -1.696,15.809 c -0.03,0.27 0.067,0.523 0.266,0.754 0.197,0.232 0.498,0.439 0.88,0.614 0.379,0.177 0.84,0.318 1.356,0.417 0.517,0.097 1.092,0.153 1.701,0.153 l 44.192,10e-4 c 0.614,0 1.199,-0.056 1.736,-0.154 0.534,-0.098 1.023,-0.239 1.436,-0.415 0.413,-0.174 0.753,-0.384 0.996,-0.613 0.242,-0.233 0.386,-0.487 0.405,-0.755 l 1.252,-15.81 c 0.019,-0.261 -0.084,-0.509 -0.286,-0.738 -0.204,-0.228 -0.509,-0.431 -0.891,-0.603 -0.381,-0.171 -0.843,-0.312 -1.356,-0.408 -0.519,-0.097 -1.089,-0.148 -1.695,-0.148 l -43.728,-0.002 c -0.62,0 -1.2,0.05 -1.73,0.15 z m 58.32,0 c -0.531,0.097 -1.014,0.237 -1.42,0.408 -0.409,0.172 -0.747,0.375 -0.985,0.603 -0.237,0.229 -0.379,0.478 -0.399,0.738 l -1.198,15.81 c -0.021,0.268 0.083,0.521 0.291,0.755 0.205,0.23 0.511,0.439 0.898,0.613 0.386,0.176 0.851,0.317 1.374,0.415 0.519,0.099 1.099,0.154 1.708,0.154 l 44.185,0 c 0.61,0 1.192,-0.056 1.727,-0.153 0.533,-0.097 1.017,-0.238 1.424,-0.416 0.407,-0.174 0.74,-0.381 0.978,-0.613 0.232,-0.233 0.367,-0.486 0.381,-0.755 l 0.751,-15.81 c 0.014,-0.261 -0.099,-0.508 -0.309,-0.737 -0.209,-0.227 -0.52,-0.43 -0.907,-0.603 -0.387,-0.171 -0.854,-0.311 -1.373,-0.406 -0.518,-0.098 -1.089,-0.151 -1.694,-0.151 l -43.719,0 c -0.61,0 -1.19,0.05 -1.72,0.15 z m 58.32,0 c -0.527,0.096 -1.005,0.235 -1.406,0.406 -0.404,0.173 -0.735,0.377 -0.967,0.603 -0.232,0.229 -0.366,0.477 -0.378,0.737 l -0.701,15.81 c -0.011,0.269 0.101,0.522 0.316,0.755 0.212,0.232 0.527,0.439 0.92,0.613 0.392,0.178 0.862,0.319 1.388,0.416 0.521,0.098 1.101,0.153 1.71,0.153 l 44.19,0 c 0.61,0 1.192,-0.054 1.723,-0.151 0.53,-0.099 1.01,-0.24 1.413,-0.417 0.4,-0.174 0.728,-0.382 0.956,-0.614 0.225,-0.23 0.353,-0.486 0.358,-0.752 l 0.25,-15.81 c 0.007,-0.261 -0.112,-0.511 -0.328,-0.737 -0.218,-0.229 -0.533,-0.433 -0.927,-0.605 -0.395,-0.17 -0.862,-0.311 -1.384,-0.406 -0.523,-0.097 -1.095,-0.151 -1.702,-0.151 l -43.72,0 c -0.61,-0.01 -1.18,0.04 -1.71,0.14 z m 58.32,0 c -0.523,0.096 -0.996,0.236 -1.392,0.406 -0.4,0.173 -0.723,0.377 -0.948,0.605 -0.225,0.227 -0.349,0.477 -0.351,0.737 l -0.206,15.81 c -0.002,0.266 0.119,0.521 0.338,0.752 0.221,0.232 0.541,0.44 0.939,0.614 0.398,0.177 0.873,0.318 1.398,0.417 0.528,0.098 1.108,0.151 1.721,0.151 l 44.181,0.002 c 0.611,0 1.19,-0.056 1.72,-0.153 0.527,-0.097 1.001,-0.239 1.396,-0.417 0.398,-0.172 0.717,-0.382 0.936,-0.614 0.224,-0.23 0.341,-0.485 0.336,-0.751 l -0.246,-15.811 c -0.004,-0.261 -0.129,-0.509 -0.354,-0.736 -0.225,-0.229 -0.548,-0.43 -0.942,-0.604 -0.4,-0.172 -0.874,-0.313 -1.399,-0.408 -0.523,-0.097 -1.1,-0.148 -1.705,-0.148 l -43.716,0 c -0.62,-0.01 -1.19,0.04 -1.72,0.14 z m 58.32,0 c -0.523,0.096 -0.988,0.236 -1.386,0.408 -0.39,0.175 -0.707,0.375 -0.925,0.604 -0.219,0.228 -0.339,0.476 -0.332,0.736 l 0.297,15.811 c 0.002,0.266 0.132,0.521 0.361,0.751 0.227,0.233 0.554,0.442 0.96,0.617 0.403,0.175 0.884,0.317 1.411,0.414 0.53,0.098 1.114,0.153 1.722,0.153 l 44.188,0 c 0.61,0 1.188,-0.054 1.712,-0.153 0.527,-0.097 0.996,-0.239 1.389,-0.414 0.39,-0.175 0.704,-0.384 0.915,-0.616 0.213,-0.231 0.324,-0.486 0.313,-0.752 L 744.4,702.768 c -0.012,-0.26 -0.145,-0.509 -0.376,-0.734 -0.234,-0.228 -0.561,-0.432 -0.968,-0.605 -0.401,-0.173 -0.881,-0.31 -1.408,-0.406 -0.526,-0.097 -1.107,-0.151 -1.708,-0.151 l -43.727,0 c -0.56,-0.01 -1.14,0.05 -1.66,0.14 z m 58.32,0 c -0.516,0.097 -0.98,0.233 -1.367,0.406 -0.39,0.174 -0.697,0.378 -0.908,0.605 -0.21,0.226 -0.318,0.475 -0.308,0.734 l 0.795,15.811 c 0.015,0.266 0.152,0.521 0.384,0.752 0.235,0.232 0.572,0.441 0.977,0.616 0.41,0.175 0.894,0.317 1.43,0.414 0.533,0.1 1.113,0.153 1.728,0.153 l 44.176,0 c 0.612,0 1.188,-0.053 1.711,-0.151 0.521,-0.098 0.984,-0.239 1.37,-0.415 0.387,-0.176 0.694,-0.382 0.9,-0.614 0.204,-0.232 0.307,-0.487 0.286,-0.755 l -1.241,-15.808 c -0.021,-0.261 -0.164,-0.511 -0.403,-0.737 -0.237,-0.228 -0.573,-0.431 -0.983,-0.605 -0.408,-0.17 -0.89,-0.31 -1.421,-0.406 -0.531,-0.095 -1.11,-0.151 -1.713,-0.151 l -43.716,0 c -0.61,0.01 -1.18,0.07 -1.7,0.16 z m 58.31,0 c -0.514,0.098 -0.973,0.236 -1.355,0.409 -0.383,0.172 -0.687,0.375 -0.888,0.603 -0.204,0.227 -0.309,0.477 -0.284,0.737 l 1.291,15.808 c 0.02,0.268 0.167,0.522 0.408,0.755 0.242,0.232 0.58,0.438 0.996,0.614 0.417,0.176 0.905,0.317 1.442,0.415 0.537,0.099 1.119,0.151 1.728,0.151 l 44.187,0.001 c 0.61,0 1.186,-0.054 1.704,-0.151 0.517,-0.099 0.975,-0.238 1.357,-0.416 0.377,-0.175 0.676,-0.382 0.872,-0.614 0.195,-0.231 0.294,-0.487 0.264,-0.752 l -1.739,-15.811 c -0.029,-0.261 -0.179,-0.511 -0.422,-0.736 -0.247,-0.227 -0.589,-0.43 -1.001,-0.604 -0.413,-0.173 -0.897,-0.312 -1.431,-0.409 -0.536,-0.095 -1.115,-0.149 -1.721,-0.149 l -43.718,0 c -0.61,0 -1.18,0.06 -1.7,0.15 z m 58.32,0 c -0.509,0.096 -0.967,0.234 -1.341,0.407 -0.376,0.174 -0.673,0.377 -0.871,0.604 -0.192,0.226 -0.286,0.476 -0.261,0.736 l 1.795,15.811 c 0.025,0.265 0.18,0.521 0.429,0.752 0.249,0.232 0.597,0.439 1.016,0.614 0.421,0.178 0.913,0.32 1.452,0.418 0.54,0.096 1.13,0.149 1.738,0.149 l 44.178,0 c 0.607,0 1.183,-0.052 1.697,-0.149 0.518,-0.098 0.97,-0.24 1.346,-0.417 0.377,-0.175 0.668,-0.382 0.858,-0.615 0.192,-0.231 0.278,-0.486 0.238,-0.752 l -2.235,-15.809 c -0.036,-0.262 -0.195,-0.51 -0.446,-0.738 -0.255,-0.227 -0.604,-0.43 -1.022,-0.604 -0.422,-0.173 -0.913,-0.311 -1.449,-0.406 -0.535,-0.095 -1.119,-0.15 -1.721,-0.15 l -43.713,0 c -0.64,0.02 -1.21,0.07 -1.72,0.16 z m 58.31,0 c -0.511,0.096 -0.962,0.233 -1.332,0.406 -0.369,0.174 -0.662,0.377 -0.849,0.604 -0.19,0.229 -0.275,0.477 -0.236,0.738 l 2.287,15.809 c 0.039,0.266 0.196,0.521 0.453,0.752 0.26,0.233 0.608,0.44 1.039,0.615 0.425,0.177 0.921,0.319 1.464,0.417 0.541,0.098 1.131,0.151 1.74,0.151 l 44.183,0 c 0.611,0 1.181,-0.054 1.69,-0.151 0.514,-0.098 0.96,-0.24 1.331,-0.415 0.368,-0.177 0.655,-0.382 0.84,-0.614 0.182,-0.234 0.262,-0.486 0.216,-0.755 l -2.736,-15.809 c -0.045,-0.26 -0.213,-0.509 -0.474,-0.735 -0.256,-0.226 -0.611,-0.433 -1.037,-0.604 -0.426,-0.173 -0.918,-0.313 -1.457,-0.408 -0.538,-0.095 -1.123,-0.149 -1.724,-0.149 l -43.719,-10e-4 c -0.59,0 -1.16,0.05 -1.67,0.14 z m 137.02,0.01 c -0.542,-0.096 -1.129,-0.149 -1.734,-0.149 l -74.826,-0.004 c -0.602,0 -1.168,0.055 -1.676,0.151 -0.507,0.096 -0.952,0.234 -1.315,0.406 -0.367,0.172 -0.652,0.379 -0.83,0.604 -0.185,0.227 -0.264,0.476 -0.217,0.737 l 2.792,15.807 c 0.046,0.269 0.213,0.521 0.476,0.755 0.269,0.232 0.627,0.438 1.056,0.614 0.431,0.175 0.932,0.317 1.48,0.415 0.545,0.098 1.138,0.151 1.746,0.151 l 75.622,0 c 0.607,0 1.179,-0.052 1.684,-0.15 0.51,-0.099 0.955,-0.24 1.315,-0.416 0.36,-0.174 0.639,-0.382 0.808,-0.614 0.174,-0.232 0.242,-0.486 0.181,-0.751 l -3.504,-15.811 c -0.056,-0.26 -0.232,-0.51 -0.504,-0.736 -0.272,-0.227 -0.637,-0.433 -1.07,-0.604 -0.5,-0.17 -0.9,-0.31 -1.5,-0.4 z M 292.89,743.2 c 0.37,0.18 0.825,0.328 1.342,0.429 0.516,0.099 1.093,0.153 1.714,0.153 l 44.738,0.003 c 0.618,0 1.216,-0.058 1.769,-0.156 0.55,-0.101 1.057,-0.248 1.491,-0.427 0.436,-0.179 0.797,-0.395 1.063,-0.632 0.266,-0.236 0.436,-0.495 0.479,-0.769 l 2.671,-16.204 c 0.044,-0.269 -0.039,-0.523 -0.225,-0.758 -0.185,-0.233 -0.475,-0.44 -0.847,-0.618 -0.37,-0.176 -0.824,-0.318 -1.336,-0.418 -0.517,-0.098 -1.088,-0.152 -1.7,-0.152 l -44.263,-10e-4 c -0.612,0 -1.204,0.056 -1.755,0.153 -0.547,0.1 -1.051,0.242 -1.484,0.417 -0.436,0.178 -0.802,0.386 -1.068,0.619 -0.269,0.234 -0.44,0.489 -0.495,0.758 l -3.129,16.202 c -0.054,0.272 0.022,0.534 0.2,0.771 0.18,0.24 0.47,0.46 0.84,0.64 z m -103.78,0 c 0.361,0.18 0.808,0.328 1.318,0.426 0.511,0.101 1.083,0.156 1.703,0.156 l 86.035,0 c 0.614,0 1.214,-0.055 1.77,-0.153 0.555,-0.101 1.065,-0.249 1.507,-0.429 0.439,-0.177 0.811,-0.394 1.084,-0.63 0.274,-0.236 0.45,-0.498 0.504,-0.771 l 3.207,-16.202 c 0.053,-0.269 -0.023,-0.523 -0.201,-0.758 -0.178,-0.233 -0.462,-0.441 -0.828,-0.619 -0.365,-0.177 -0.814,-0.317 -1.325,-0.417 -0.508,-0.098 -1.079,-0.153 -1.687,-0.153 l -85.121,-0.002 c -0.614,0 -1.207,0.057 -1.76,0.153 -0.556,0.1 -1.067,0.242 -1.511,0.416 -0.444,0.178 -0.821,0.389 -1.101,0.62 -0.282,0.234 -0.47,0.488 -0.538,0.757 l -4.018,16.205 c -0.066,0.271 -0.005,0.534 0.16,0.771 0.17,0.21 0.45,0.43 0.81,0.61 z m 163.43,0 c 0.377,0.179 0.835,0.326 1.354,0.427 0.518,0.099 1.098,0.156 1.719,0.156 l 44.745,10e-4 c 0.615,0 1.21,-0.059 1.76,-0.157 0.546,-0.101 1.051,-0.248 1.479,-0.426 0.429,-0.18 0.786,-0.393 1.046,-0.63 0.255,-0.239 0.418,-0.498 0.454,-0.771 l 2.158,-16.203 c 0.036,-0.269 -0.054,-0.523 -0.249,-0.757 -0.192,-0.231 -0.49,-0.442 -0.868,-0.62 -0.378,-0.175 -0.836,-0.318 -1.351,-0.416 -0.515,-0.097 -1.09,-0.154 -1.7,-0.154 l -44.27,0 c -0.611,0 -1.204,0.058 -1.75,0.152 -0.544,0.1 -1.043,0.242 -1.472,0.418 -0.428,0.178 -0.788,0.385 -1.05,0.618 -0.262,0.234 -0.424,0.489 -0.468,0.758 l -2.619,16.204 c -0.046,0.273 0.037,0.532 0.223,0.769 0.19,0.23 0.49,0.45 0.86,0.63 z m 59.66,0 c 0.383,0.181 0.843,0.325 1.367,0.426 0.522,0.099 1.105,0.157 1.721,0.157 l 44.736,0 c 0.619,0 1.214,-0.059 1.76,-0.156 0.545,-0.102 1.041,-0.246 1.465,-0.427 0.423,-0.179 0.772,-0.393 1.021,-0.63 0.249,-0.238 0.403,-0.498 0.43,-0.771 l 1.649,-16.202 c 0.026,-0.27 -0.071,-0.524 -0.273,-0.758 -0.199,-0.231 -0.501,-0.442 -0.885,-0.618 -0.382,-0.177 -0.843,-0.319 -1.363,-0.417 -0.519,-0.097 -1.096,-0.152 -1.708,-0.152 l -44.26,-0.003 c -0.613,0 -1.199,0.058 -1.744,0.154 -0.542,0.098 -1.04,0.241 -1.46,0.416 -0.427,0.178 -0.775,0.389 -1.029,0.62 -0.255,0.233 -0.412,0.488 -0.447,0.757 l -2.109,16.203 c -0.033,0.273 0.055,0.532 0.251,0.771 0.19,0.24 0.49,0.45 0.87,0.63 z m 109.25,0.42 c 0.542,-0.1 1.034,-0.246 1.453,-0.427 0.417,-0.179 0.76,-0.393 1.002,-0.629 0.244,-0.238 0.386,-0.497 0.404,-0.772 l 1.14,-16.202 c 0.019,-0.267 -0.089,-0.523 -0.293,-0.757 -0.21,-0.232 -0.517,-0.441 -0.908,-0.619 -0.387,-0.177 -0.854,-0.317 -1.377,-0.417 -0.521,-0.097 -1.099,-0.152 -1.712,-0.152 l -44.257,0 c -0.612,0 -1.199,0.056 -1.738,0.152 -0.542,0.098 -1.032,0.24 -1.449,0.417 -0.418,0.176 -0.761,0.387 -1.011,0.618 -0.247,0.233 -0.393,0.488 -0.421,0.758 l -1.6,16.202 c -0.026,0.273 0.076,0.533 0.278,0.771 0.204,0.237 0.509,0.451 0.896,0.63 0.386,0.181 0.854,0.325 1.38,0.427 0.527,0.098 1.107,0.156 1.727,0.156 l 44.736,0 c 0.61,0 1.2,-0.05 1.75,-0.16 z m 59.67,0 c 0.539,-0.099 1.027,-0.246 1.439,-0.427 0.409,-0.178 0.746,-0.393 0.982,-0.629 0.234,-0.238 0.368,-0.497 0.381,-0.772 l 0.625,-16.202 c 0.014,-0.267 -0.102,-0.523 -0.316,-0.757 -0.216,-0.23 -0.533,-0.439 -0.926,-0.618 -0.393,-0.175 -0.865,-0.316 -1.388,-0.418 -0.526,-0.097 -1.106,-0.151 -1.72,-0.151 l -44.255,-10e-4 c -0.613,0 -1.198,0.056 -1.735,0.152 -0.538,0.102 -1.022,0.243 -1.436,0.417 -0.411,0.178 -0.75,0.387 -0.989,0.619 -0.24,0.233 -0.382,0.49 -0.399,0.757 l -1.087,16.202 c -0.017,0.275 0.09,0.534 0.297,0.772 0.212,0.236 0.527,0.45 0.917,0.629 0.393,0.181 0.864,0.327 1.395,0.427 0.529,0.101 1.115,0.156 1.733,0.156 l 44.73,0 c 0.65,0 1.24,-0.05 1.78,-0.16 z m 59.66,0.01 c 0.534,-0.101 1.02,-0.248 1.426,-0.429 0.406,-0.178 0.733,-0.393 0.964,-0.629 0.229,-0.236 0.352,-0.497 0.354,-0.771 l 0.119,-16.202 c 10e-4,-0.268 -0.122,-0.525 -0.343,-0.757 -0.221,-0.232 -0.543,-0.441 -0.944,-0.62 -0.399,-0.174 -0.873,-0.316 -1.402,-0.416 -0.528,-0.097 -1.11,-0.151 -1.723,-0.151 l -44.256,0 c -0.612,0 -1.196,0.053 -1.728,0.149 -0.535,0.102 -1.017,0.243 -1.422,0.418 -0.406,0.179 -0.738,0.388 -0.972,0.618 -0.23,0.233 -0.361,0.49 -0.373,0.757 l -0.58,16.202 c -0.007,0.275 0.107,0.534 0.326,0.772 0.218,0.236 0.536,0.451 0.935,0.629 0.398,0.181 0.875,0.328 1.406,0.429 0.533,0.099 1.12,0.154 1.737,0.154 l 44.733,0 c 0.59,0 1.18,-0.05 1.72,-0.15 z m 59.66,0 c 0.535,-0.101 1.012,-0.247 1.411,-0.426 0.399,-0.181 0.724,-0.395 0.941,-0.632 0.222,-0.236 0.339,-0.496 0.334,-0.77 l -0.391,-16.201 c -0.01,-0.27 -0.143,-0.527 -0.368,-0.759 -0.229,-0.231 -0.56,-0.441 -0.964,-0.617 -0.404,-0.177 -0.886,-0.319 -1.415,-0.417 -0.533,-0.099 -1.118,-0.153 -1.73,-0.153 l -44.262,0 c -0.608,0 -1.19,0.055 -1.722,0.153 -0.529,0.098 -1.006,0.24 -1.408,0.414 -0.401,0.179 -0.728,0.388 -0.953,0.62 -0.228,0.231 -0.351,0.489 -0.353,0.757 l -0.066,16.202 c -10e-4,0.273 0.123,0.534 0.35,0.771 0.225,0.236 0.554,0.451 0.958,0.629 0.404,0.182 0.887,0.328 1.419,0.429 0.534,0.101 1.124,0.154 1.737,0.154 l 44.74,0.002 c 0.62,0.01 1.21,-0.04 1.74,-0.14 z m 59.66,0 c 0.531,-0.101 1.004,-0.247 1.397,-0.425 0.392,-0.182 0.711,-0.394 0.923,-0.632 0.215,-0.237 0.324,-0.497 0.308,-0.771 l -0.903,-16.201 c -0.015,-0.269 -0.15,-0.524 -0.39,-0.756 -0.233,-0.234 -0.572,-0.444 -0.981,-0.619 -0.412,-0.176 -0.896,-0.319 -1.431,-0.418 -0.535,-0.099 -1.121,-0.152 -1.731,-0.152 l -44.252,0 c -0.613,0 -1.197,0.054 -1.721,0.152 -0.527,0.098 -1,0.24 -1.397,0.417 -0.396,0.176 -0.712,0.386 -0.931,0.617 -0.215,0.231 -0.333,0.489 -0.325,0.759 l 0.443,16.201 c 0.007,0.273 0.138,0.533 0.372,0.77 0.231,0.237 0.565,0.451 0.976,0.632 0.409,0.179 0.895,0.325 1.432,0.426 0.541,0.101 1.134,0.156 1.748,0.156 l 44.729,0.001 c 0.6,-0.01 1.19,-0.06 1.72,-0.16 z m 59.66,0 c 0.526,-0.101 0.995,-0.246 1.385,-0.425 0.39,-0.182 0.701,-0.394 0.905,-0.632 0.207,-0.237 0.308,-0.497 0.284,-0.771 l -1.415,-16.201 c -0.021,-0.269 -0.168,-0.524 -0.411,-0.754 -0.247,-0.234 -0.591,-0.445 -1.005,-0.621 -0.418,-0.176 -0.906,-0.317 -1.445,-0.418 -0.537,-0.099 -1.123,-0.152 -1.733,-0.152 l -44.262,0 c -0.608,0 -1.186,0.054 -1.708,0.152 -0.522,0.101 -0.99,0.242 -1.378,0.418 -0.393,0.175 -0.703,0.385 -0.914,0.619 -0.208,0.231 -0.316,0.487 -0.302,0.756 l 0.954,16.201 c 0.017,0.273 0.157,0.533 0.397,0.771 0.24,0.238 0.579,0.45 0.996,0.632 0.412,0.179 0.902,0.324 1.442,0.425 0.539,0.102 1.13,0.157 1.746,0.157 l 44.737,0 c 0.62,-0.02 1.2,-0.07 1.73,-0.17 z m 59.65,0 c 0.526,-0.098 0.992,-0.246 1.374,-0.423 0.382,-0.181 0.686,-0.395 0.885,-0.634 0.197,-0.236 0.291,-0.496 0.258,-0.771 l -1.924,-16.199 c -0.033,-0.268 -0.187,-0.524 -0.436,-0.756 -0.252,-0.234 -0.602,-0.443 -1.022,-0.619 -0.422,-0.177 -0.919,-0.319 -1.458,-0.42 -0.543,-0.098 -1.13,-0.149 -1.74,-0.149 l -44.251,0 c -0.61,0 -1.189,0.051 -1.711,0.149 -0.521,0.101 -0.983,0.242 -1.367,0.418 -0.385,0.176 -0.69,0.387 -0.891,0.621 -0.204,0.231 -0.305,0.485 -0.279,0.754 l 1.463,16.201 c 0.026,0.273 0.175,0.533 0.417,0.771 0.252,0.239 0.596,0.45 1.02,0.632 0.42,0.179 0.914,0.324 1.461,0.425 0.544,0.102 1.138,0.157 1.756,0.157 l 44.723,0 c 0.63,0 1.21,-0.05 1.73,-0.15 z m 59.66,0 c 0.519,-0.097 0.981,-0.244 1.357,-0.423 0.379,-0.181 0.674,-0.395 0.863,-0.634 0.19,-0.236 0.277,-0.496 0.235,-0.771 l -2.435,-16.198 c -0.039,-0.267 -0.203,-0.525 -0.461,-0.757 -0.257,-0.232 -0.615,-0.443 -1.04,-0.619 -0.426,-0.177 -0.925,-0.319 -1.473,-0.418 -0.542,-0.1 -1.133,-0.15 -1.745,-0.15 l -44.254,-10e-4 c -0.616,0 -1.191,0.052 -1.709,0.151 -0.52,0.099 -0.977,0.241 -1.354,0.418 -0.38,0.176 -0.677,0.385 -0.874,0.619 -0.195,0.231 -0.288,0.488 -0.256,0.756 l 1.977,16.199 c 0.033,0.274 0.188,0.534 0.443,0.771 0.256,0.239 0.61,0.453 1.034,0.634 0.428,0.177 0.93,0.326 1.474,0.423 0.549,0.102 1.146,0.157 1.766,0.157 l 44.734,0 c 0.63,-0.01 1.21,-0.06 1.73,-0.16 z m 135.63,0 c 0.514,-0.101 0.966,-0.248 1.329,-0.427 0.364,-0.181 0.645,-0.394 0.818,-0.632 0.174,-0.235 0.239,-0.496 0.179,-0.769 L 1073.43,725.6 c -0.058,-0.266 -0.238,-0.523 -0.513,-0.754 -0.276,-0.234 -0.644,-0.445 -1.086,-0.618 -0.44,-0.177 -0.949,-0.321 -1.498,-0.421 -0.552,-0.098 -1.145,-0.149 -1.758,-0.149 l -118.92,-0.002 c -0.614,0 -1.186,0.051 -1.7,0.15 -0.516,0.099 -0.969,0.241 -1.342,0.418 -0.372,0.176 -0.666,0.387 -0.854,0.619 -0.188,0.231 -0.273,0.49 -0.23,0.757 l 2.487,16.198 c 0.043,0.274 0.209,0.537 0.471,0.771 0.263,0.239 0.622,0.453 1.054,0.634 0.435,0.179 0.937,0.326 1.485,0.426 0.553,0.1 1.15,0.154 1.77,0.154 l 120.19,0.002 c 0.7,0 1.3,-0.06 1.8,-0.16 z m -695.08,4.06 c -0.19,-0.239 -0.487,-0.454 -0.867,-0.635 -0.38,-0.18 -0.84,-0.325 -1.362,-0.427 -0.521,-0.101 -1.105,-0.154 -1.723,-0.154 l -44.8,0 c -0.621,0 -1.219,0.054 -1.773,0.154 -0.553,0.102 -1.061,0.247 -1.497,0.427 -0.437,0.181 -0.804,0.395 -1.07,0.635 -0.27,0.238 -0.44,0.499 -0.488,0.775 l -2.898,16.597 c -0.047,0.283 0.031,0.55 0.221,0.793 0.186,0.246 0.476,0.462 0.857,0.648 0.375,0.184 0.838,0.333 1.361,0.435 0.525,0.104 1.112,0.159 1.737,0.159 l 45.289,0.002 c 0.625,0 1.232,-0.058 1.788,-0.161 0.557,-0.102 1.068,-0.251 1.506,-0.435 0.435,-0.187 0.796,-0.402 1.062,-0.646 0.266,-0.245 0.432,-0.512 0.471,-0.795 l 2.426,-16.597 c 0.03,-0.29 -0.06,-0.55 -0.25,-0.79 z m -64.22,17.37 2.963,-16.597 c 0.048,-0.276 -0.028,-0.537 -0.215,-0.775 -0.184,-0.24 -0.471,-0.454 -0.843,-0.635 -0.377,-0.18 -0.833,-0.325 -1.352,-0.429 -0.517,-0.099 -1.097,-0.153 -1.715,-0.153 l -122.78,-0.003 c -0.619,0 -1.224,0.058 -1.785,0.156 -0.56,0.102 -1.076,0.246 -1.529,0.427 -0.45,0.18 -0.832,0.396 -1.117,0.634 -0.286,0.24 -0.476,0.502 -0.544,0.777 l -4.117,16.598 c -0.069,0.283 -0.009,0.549 0.161,0.793 0.167,0.242 0.446,0.462 0.809,0.647 0.365,0.185 0.813,0.331 1.332,0.436 0.516,0.104 1.098,0.159 1.725,0.159 l 124.11,0 c 0.626,0 1.231,-0.056 1.792,-0.159 0.561,-0.102 1.076,-0.251 1.519,-0.435 0.443,-0.187 0.813,-0.405 1.084,-0.648 0.28,-0.24 0.46,-0.5 0.5,-0.79 z m 123.13,-18 c -0.384,-0.18 -0.851,-0.325 -1.376,-0.425 -0.525,-0.103 -1.107,-0.156 -1.725,-0.156 l -44.799,0 c -0.62,0 -1.218,0.054 -1.77,0.156 -0.549,0.1 -1.055,0.245 -1.484,0.425 -0.431,0.181 -0.789,0.396 -1.049,0.635 -0.262,0.238 -0.425,0.502 -0.464,0.775 l -2.372,16.597 c -0.041,0.283 0.047,0.55 0.241,0.795 0.195,0.244 0.496,0.46 0.878,0.646 0.381,0.184 0.848,0.334 1.376,0.435 0.529,0.104 1.117,0.161 1.741,0.161 l 45.287,0 c 0.627,0 1.231,-0.058 1.784,-0.16 0.555,-0.102 1.06,-0.252 1.49,-0.436 0.431,-0.187 0.785,-0.402 1.044,-0.646 0.257,-0.245 0.414,-0.512 0.446,-0.792 l 1.901,-16.6 c 0.033,-0.272 -0.064,-0.537 -0.262,-0.775 -0.2,-0.25 -0.51,-0.46 -0.89,-0.64 z m -68.08,23.93 c -0.383,-0.184 -0.851,-0.334 -1.377,-0.438 -0.525,-0.102 -1.114,-0.159 -1.739,-0.163 l -45.375,0 c -0.625,0 -1.232,0.062 -1.792,0.163 -0.56,0.104 -1.075,0.254 -1.519,0.438 -0.445,0.186 -0.815,0.406 -1.088,0.651 -0.276,0.242 -0.45,0.512 -0.5,0.794 l -3.014,17.026 c -0.05,0.288 0.029,0.563 0.218,0.812 0.189,0.251 0.486,0.477 0.868,0.664 0.383,0.188 0.852,0.341 1.378,0.447 0.532,0.105 1.126,0.164 1.756,0.164 l 45.875,0 c 0.632,0 1.242,-0.059 1.808,-0.164 0.565,-0.106 1.081,-0.26 1.525,-0.447 0.443,-0.188 0.813,-0.413 1.082,-0.664 0.272,-0.248 0.437,-0.523 0.484,-0.812 l 2.529,-17.026 c 0.041,-0.282 -0.045,-0.552 -0.243,-0.794 -0.21,-0.24 -0.52,-0.46 -0.9,-0.65 z m -63.42,0 c -0.375,-0.184 -0.836,-0.334 -1.361,-0.438 -0.522,-0.104 -1.112,-0.163 -1.738,-0.163 l -45.368,0 c -0.626,0 -1.235,0.06 -1.8,0.163 -0.564,0.104 -1.085,0.254 -1.532,0.438 -0.451,0.186 -0.829,0.406 -1.11,0.651 -0.282,0.242 -0.464,0.512 -0.526,0.794 l -3.573,17.028 c -0.062,0.286 0.01,0.562 0.189,0.812 0.18,0.249 0.468,0.475 0.844,0.662 0.375,0.188 0.838,0.341 1.363,0.447 0.529,0.105 1.119,0.164 1.754,0.164 l 45.867,0 c 0.633,0 1.248,-0.059 1.815,-0.164 0.569,-0.106 1.093,-0.26 1.54,-0.447 0.45,-0.188 0.825,-0.413 1.103,-0.664 0.278,-0.248 0.457,-0.523 0.508,-0.812 l 3.094,-17.026 c 0.048,-0.282 -0.026,-0.552 -0.212,-0.794 -0.17,-0.24 -0.46,-0.46 -0.84,-0.65 z M 433.38,771 c -0.388,-0.187 -0.863,-0.337 -1.391,-0.44 -0.531,-0.102 -1.122,-0.159 -1.748,-0.159 l -45.374,0 c -0.625,0 -1.23,0.058 -1.787,0.159 -0.558,0.104 -1.069,0.254 -1.506,0.438 -0.439,0.188 -0.803,0.406 -1.069,0.651 -0.264,0.242 -0.431,0.512 -0.472,0.794 l -2.455,17.026 c -0.04,0.288 0.045,0.563 0.244,0.812 0.196,0.251 0.5,0.477 0.887,0.664 0.387,0.188 0.861,0.341 1.396,0.447 0.535,0.105 1.128,0.164 1.759,0.164 l 45.875,0 c 0.636,0 1.244,-0.059 1.806,-0.164 0.561,-0.106 1.073,-0.26 1.51,-0.447 0.436,-0.188 0.799,-0.415 1.058,-0.664 0.262,-0.248 0.421,-0.523 0.455,-0.812 l 1.973,-17.026 c 0.031,-0.281 -0.063,-0.552 -0.265,-0.794 -0.2,-0.25 -0.51,-0.47 -0.9,-0.65 z M 445,766.5 c 0.388,0.184 0.858,0.334 1.388,0.436 0.53,0.103 1.117,0.16 1.74,0.16 l 45.296,10e-4 c 0.624,0 1.227,-0.059 1.775,-0.161 0.552,-0.102 1.053,-0.252 1.479,-0.436 0.423,-0.187 0.772,-0.402 1.022,-0.646 0.248,-0.245 0.399,-0.512 0.419,-0.792 l 1.38,-16.598 c 0.025,-0.274 -0.081,-0.537 -0.287,-0.777 -0.207,-0.238 -0.516,-0.454 -0.907,-0.635 -0.391,-0.179 -0.86,-0.324 -1.39,-0.425 -0.525,-0.1 -1.11,-0.156 -1.73,-0.156 l -44.807,0 c -0.617,0 -1.211,0.054 -1.758,0.156 -0.545,0.1 -1.042,0.245 -1.468,0.425 -0.423,0.181 -0.774,0.396 -1.029,0.635 -0.251,0.238 -0.408,0.503 -0.437,0.775 l -1.85,16.6 c -0.032,0.28 0.064,0.547 0.266,0.792 0.21,0.25 0.52,0.47 0.91,0.65 z m 60.38,0 c 0.393,0.184 0.872,0.334 1.404,0.436 0.534,0.103 1.125,0.161 1.751,0.161 l 45.282,0 c 0.627,0 1.228,-0.059 1.773,-0.161 0.549,-0.102 1.044,-0.252 1.465,-0.436 0.418,-0.187 0.761,-0.402 1.003,-0.646 0.24,-0.243 0.382,-0.511 0.393,-0.791 l 0.858,-16.599 c 0.013,-0.274 -0.098,-0.537 -0.309,-0.777 -0.219,-0.238 -0.534,-0.453 -0.931,-0.633 -0.397,-0.181 -0.868,-0.326 -1.399,-0.427 -0.532,-0.1 -1.12,-0.156 -1.738,-0.156 l -44.77,0 c -0.622,0 -1.213,0.057 -1.756,0.156 -0.544,0.101 -1.037,0.246 -1.458,0.425 -0.42,0.181 -0.765,0.396 -1.009,0.635 -0.247,0.24 -0.394,0.503 -0.415,0.777 l -1.327,16.598 c -0.021,0.28 0.081,0.547 0.291,0.792 0.22,0.25 0.53,0.47 0.92,0.65 z m 60.39,0 c 0.402,0.184 0.883,0.334 1.418,0.436 0.538,0.103 1.127,0.161 1.755,0.161 l 45.289,0 c 0.625,0 1.222,-0.059 1.764,-0.161 0.542,-0.102 1.035,-0.252 1.449,-0.436 0.416,-0.184 0.748,-0.402 0.986,-0.646 0.233,-0.243 0.367,-0.511 0.372,-0.791 l 0.333,-16.599 c 0.006,-0.274 -0.114,-0.537 -0.337,-0.776 -0.222,-0.239 -0.548,-0.452 -0.951,-0.634 -0.398,-0.181 -0.881,-0.325 -1.415,-0.425 -0.534,-0.102 -1.12,-0.158 -1.737,-0.158 l -44.803,0 c -0.617,0 -1.209,0.057 -1.748,0.156 -0.543,0.101 -1.032,0.246 -1.447,0.427 -0.415,0.18 -0.753,0.395 -0.992,0.633 -0.239,0.24 -0.381,0.503 -0.392,0.777 l -0.804,16.599 c -0.014,0.28 0.101,0.548 0.32,0.791 0.23,0.25 0.55,0.47 0.95,0.65 z m 60.39,0 c 0.407,0.184 0.892,0.334 1.434,0.436 0.538,0.103 1.135,0.161 1.762,0.161 l 45.281,0 c 0.623,0 1.22,-0.059 1.759,-0.161 0.542,-0.102 1.027,-0.251 1.434,-0.436 0.41,-0.184 0.736,-0.402 0.965,-0.646 0.226,-0.243 0.349,-0.511 0.346,-0.791 l -0.188,-16.598 c -0.004,-0.275 -0.135,-0.538 -0.359,-0.776 -0.232,-0.24 -0.563,-0.453 -0.971,-0.635 -0.408,-0.179 -0.891,-0.325 -1.428,-0.425 -0.535,-0.102 -1.128,-0.158 -1.748,-0.158 l -44.792,0 c -0.621,0 -1.21,0.057 -1.749,0.158 -0.537,0.1 -1.022,0.244 -1.432,0.425 -0.408,0.182 -0.738,0.395 -0.968,0.634 -0.232,0.239 -0.36,0.502 -0.366,0.776 l -0.28,16.599 c -0.004,0.28 0.12,0.548 0.345,0.791 0.24,0.26 0.57,0.48 0.98,0.66 z m 59.39,-0.64 c 0.235,0.244 0.571,0.463 0.981,0.646 0.414,0.185 0.905,0.334 1.45,0.436 0.542,0.103 1.136,0.161 1.761,0.161 l 45.29,0 c 0.624,0 1.218,-0.059 1.756,-0.161 0.538,-0.102 1.019,-0.251 1.421,-0.436 0.401,-0.184 0.723,-0.402 0.941,-0.646 0.219,-0.243 0.334,-0.511 0.319,-0.791 l -0.712,-16.595 c -0.011,-0.276 -0.147,-0.541 -0.385,-0.779 -0.236,-0.24 -0.573,-0.453 -0.985,-0.633 -0.41,-0.18 -0.9,-0.327 -1.443,-0.427 -0.54,-0.102 -1.133,-0.155 -1.748,-0.155 l -44.805,-0.003 c -0.618,0 -1.205,0.057 -1.74,0.158 -0.533,0.1 -1.013,0.246 -1.415,0.427 -0.405,0.18 -0.729,0.393 -0.955,0.633 -0.224,0.238 -0.345,0.501 -0.34,0.776 l 0.242,16.598 c 0.01,0.27 0.14,0.53 0.37,0.78 z m 60.37,0 c 0.24,0.244 0.582,0.463 1,0.646 0.418,0.185 0.912,0.334 1.459,0.436 0.547,0.103 1.145,0.161 1.772,0.161 l 45.277,0 c 0.626,0 1.22,-0.059 1.753,-0.161 0.534,-0.102 1.011,-0.251 1.407,-0.436 0.395,-0.184 0.712,-0.402 0.923,-0.646 0.208,-0.243 0.316,-0.511 0.295,-0.791 l -1.236,-16.595 c -0.019,-0.276 -0.163,-0.54 -0.411,-0.779 -0.243,-0.237 -0.587,-0.453 -1.005,-0.633 -0.419,-0.18 -0.912,-0.327 -1.457,-0.426 -0.543,-0.102 -1.135,-0.156 -1.754,-0.156 l -44.791,0 c -0.62,0 -1.208,0.054 -1.738,0.155 -0.533,0.1 -1.008,0.247 -1.403,0.427 -0.396,0.18 -0.716,0.393 -0.934,0.633 -0.213,0.238 -0.326,0.503 -0.315,0.779 l 0.767,16.595 c 0.01,0.27 0.15,0.53 0.39,0.78 z m 60.35,0 c 0.248,0.244 0.596,0.463 1.02,0.646 0.422,0.185 0.921,0.334 1.476,0.436 0.549,0.103 1.149,0.161 1.774,0.161 l 45.286,0 c 0.624,0 1.211,-0.059 1.745,-0.161 0.527,-0.102 0.999,-0.251 1.39,-0.436 0.392,-0.184 0.701,-0.402 0.907,-0.646 0.202,-0.243 0.302,-0.511 0.272,-0.791 l -1.759,-16.595 c -0.03,-0.276 -0.183,-0.54 -0.436,-0.779 -0.252,-0.236 -0.604,-0.453 -1.029,-0.633 -0.425,-0.18 -0.925,-0.325 -1.473,-0.426 -0.545,-0.099 -1.138,-0.156 -1.753,-0.156 l -44.8,0 c -0.62,0 -1.207,0.055 -1.734,0.156 -0.528,0.099 -1,0.246 -1.39,0.426 -0.39,0.18 -0.702,0.396 -0.911,0.633 -0.206,0.239 -0.314,0.503 -0.293,0.779 l 1.288,16.595 c 0.01,0.27 0.15,0.53 0.4,0.78 z m 60.36,0 c 0.258,0.244 0.611,0.463 1.04,0.646 0.429,0.185 0.938,0.334 1.488,0.436 0.554,0.103 1.156,0.161 1.783,0.161 l 45.276,0 c 0.626,0 1.211,-0.059 1.739,-0.161 0.53,-0.102 0.994,-0.251 1.381,-0.436 0.384,-0.183 0.684,-0.402 0.879,-0.646 0.197,-0.243 0.288,-0.51 0.251,-0.791 l -2.283,-16.595 c -0.04,-0.276 -0.199,-0.538 -0.46,-0.776 -0.259,-0.239 -0.615,-0.455 -1.047,-0.636 -0.43,-0.18 -0.932,-0.325 -1.48,-0.426 -0.552,-0.099 -1.148,-0.156 -1.766,-0.156 l -44.789,0 c -0.62,0 -1.203,0.058 -1.729,0.156 -0.523,0.101 -0.99,0.246 -1.375,0.426 -0.387,0.18 -0.69,0.396 -0.894,0.633 -0.198,0.239 -0.295,0.503 -0.266,0.779 l 1.812,16.595 c 0.03,0.29 0.19,0.55 0.44,0.8 z m 60.85,0 c 0.263,0.244 0.626,0.464 1.063,0.646 0.435,0.185 0.941,0.334 1.5,0.436 0.557,0.103 1.159,0.161 1.781,0.161 l 83.482,0 c 0.622,0 1.208,-0.057 1.729,-0.161 0.526,-0.102 0.985,-0.249 1.359,-0.434 0.374,-0.185 0.664,-0.404 0.846,-0.648 0.185,-0.243 0.261,-0.51 0.206,-0.791 l -3.137,-16.595 c -0.053,-0.276 -0.228,-0.538 -0.5,-0.776 -0.271,-0.239 -0.64,-0.452 -1.076,-0.634 -0.442,-0.182 -0.954,-0.326 -1.508,-0.425 -0.553,-0.101 -1.152,-0.159 -1.771,-0.159 l -82.584,0 c -0.614,0 -1.195,0.058 -1.717,0.156 -0.521,0.101 -0.984,0.246 -1.363,0.426 -0.383,0.181 -0.68,0.396 -0.875,0.636 -0.193,0.238 -0.28,0.5 -0.244,0.776 l 2.342,16.595 c 0.08,0.27 0.25,0.53 0.52,0.78 z m 195.32,-64.98 -43.704,0 c -0.604,0 -1.169,0.054 -1.669,0.149 -0.5,0.095 -0.945,0.232 -1.298,0.406 -0.358,0.174 -0.631,0.377 -0.8,0.604 -0.172,0.227 -0.236,0.477 -0.178,0.737 l 3.563,15.81 c 0.062,0.265 0.244,0.519 0.52,0.751 0.271,0.232 0.642,0.44 1.082,0.614 0.441,0.176 0.947,0.317 1.499,0.416 0.552,0.099 1.146,0.152 1.757,0.152 l 44.169,0 c 0.61,0 1.181,-0.053 1.685,-0.149 0.504,-0.099 0.94,-0.243 1.296,-0.417 0.359,-0.176 0.628,-0.383 0.791,-0.616 0.165,-0.231 0.226,-0.483 0.156,-0.751 l -4.013,-15.808 c -0.067,-0.261 -0.25,-0.511 -0.533,-0.737 -0.276,-0.228 -0.647,-0.432 -1.09,-0.605 -0.438,-0.172 -0.943,-0.31 -1.491,-0.406 -0.7,-0.08 -1.3,-0.13 -1.9,-0.13 z m 7,22.93 c -0.552,-0.098 -1.148,-0.15 -1.761,-0.15 l -44.244,-10e-4 c -0.613,0 -1.183,0.054 -1.688,0.149 -0.508,0.1 -0.954,0.244 -1.314,0.421 -0.357,0.173 -0.638,0.384 -0.809,0.618 -0.17,0.23 -0.238,0.488 -0.177,0.754 l 3.649,16.202 c 0.062,0.272 0.244,0.533 0.523,0.769 0.281,0.238 0.655,0.451 1.101,0.632 0.445,0.179 0.96,0.326 1.52,0.427 0.557,0.102 1.159,0.155 1.778,0.155 l 44.719,0.002 c 0.618,0 1.191,-0.056 1.7,-0.157 0.513,-0.101 0.956,-0.246 1.318,-0.426 0.355,-0.181 0.631,-0.395 0.795,-0.633 0.169,-0.234 0.226,-0.494 0.154,-0.769 l -4.107,-16.2 c -0.066,-0.267 -0.254,-0.522 -0.54,-0.756 -0.284,-0.232 -0.657,-0.443 -1.104,-0.618 -0.4,-0.16 -0.9,-0.3 -1.5,-0.4 z m -35.6,43.29 45.281,0 c 0.621,0 1.199,-0.057 1.716,-0.159 0.516,-0.104 0.963,-0.251 1.324,-0.436 0.366,-0.185 0.642,-0.404 0.807,-0.648 0.167,-0.241 0.223,-0.51 0.155,-0.791 l -4.216,-16.593 c -0.068,-0.277 -0.259,-0.54 -0.548,-0.777 -0.284,-0.238 -0.669,-0.453 -1.12,-0.634 -0.448,-0.179 -0.964,-0.327 -1.527,-0.425 -0.56,-0.102 -1.161,-0.157 -1.78,-0.157 l -44.792,-0.003 c -0.618,0 -1.195,0.059 -1.713,0.16 -0.512,0.098 -0.959,0.244 -1.323,0.425 -0.364,0.181 -0.643,0.396 -0.816,0.634 -0.174,0.237 -0.237,0.499 -0.178,0.776 l 3.741,16.594 c 0.067,0.281 0.252,0.55 0.536,0.791 0.283,0.244 0.665,0.464 1.112,0.648 0.454,0.185 0.975,0.332 1.542,0.436 0.5,0.1 1.1,0.16 1.8,0.16 z m 55.4,22.36 -4.32,-17.021 c -0.072,-0.284 -0.268,-0.552 -0.558,-0.797 -0.292,-0.245 -0.681,-0.464 -1.139,-0.648 -0.455,-0.186 -0.98,-0.336 -1.551,-0.439 -0.564,-0.103 -1.175,-0.161 -1.801,-0.161 l -45.356,0 c -0.628,0 -1.212,0.059 -1.731,0.161 -0.518,0.104 -0.973,0.254 -1.34,0.438 -0.37,0.186 -0.65,0.404 -0.827,0.649 -0.174,0.245 -0.24,0.513 -0.178,0.794 l 3.841,17.024 c 0.063,0.289 0.255,0.563 0.541,0.813 0.29,0.248 0.675,0.473 1.132,0.664 0.458,0.187 0.987,0.34 1.56,0.445 0.572,0.104 1.189,0.162 1.821,0.162 l 45.862,0 c 0.629,0 1.215,-0.058 1.738,-0.164 0.519,-0.104 0.976,-0.257 1.338,-0.446 0.366,-0.188 0.647,-0.413 0.813,-0.661 0.4,-0.22 0.4,-0.5 0.3,-0.79 z m -119.3,-22.52 c 0.559,0.103 1.168,0.159 1.794,0.159 l 45.28,0 c 0.624,0 1.206,-0.057 1.725,-0.159 0.516,-0.104 0.97,-0.251 1.338,-0.436 0.366,-0.185 0.651,-0.404 0.825,-0.648 0.177,-0.243 0.243,-0.51 0.182,-0.791 l -3.676,-16.594 c -0.064,-0.277 -0.244,-0.539 -0.523,-0.776 -0.28,-0.238 -0.655,-0.453 -1.103,-0.634 -0.441,-0.181 -0.957,-0.327 -1.513,-0.426 -0.558,-0.101 -1.157,-0.159 -1.773,-0.159 l -44.794,0 c -0.62,0 -1.199,0.059 -1.715,0.159 -0.518,0.099 -0.971,0.243 -1.341,0.425 -0.369,0.182 -0.656,0.396 -0.836,0.634 -0.183,0.238 -0.259,0.5 -0.204,0.776 l 3.206,16.595 c 0.055,0.281 0.232,0.548 0.509,0.791 0.275,0.244 0.649,0.464 1.094,0.648 0.4,0.19 0.9,0.34 1.5,0.44 z m 52.3,4.71 c -0.29,-0.245 -0.667,-0.464 -1.117,-0.649 -0.449,-0.185 -0.973,-0.335 -1.534,-0.438 -0.565,-0.103 -1.176,-0.161 -1.799,-0.161 l -45.361,0 c -0.624,0 -1.209,0.059 -1.735,0.161 -0.521,0.104 -0.981,0.254 -1.354,0.438 -0.377,0.186 -0.665,0.404 -0.847,0.649 -0.183,0.245 -0.256,0.513 -0.203,0.794 l 3.286,17.025 c 0.058,0.288 0.237,0.562 0.52,0.812 0.278,0.249 0.66,0.473 1.11,0.664 0.453,0.188 0.973,0.34 1.543,0.445 0.566,0.104 1.182,0.165 1.816,0.165 l 45.861,-0.003 c 0.631,0 1.217,-0.058 1.743,-0.162 0.525,-0.105 0.985,-0.259 1.355,-0.445 0.372,-0.191 0.656,-0.415 0.834,-0.664 0.178,-0.25 0.245,-0.523 0.182,-0.813 l -3.772,-17.024 c -0.1,-0.29 -0.3,-0.56 -0.5,-0.8 z m -62.3,0 c -0.275,-0.245 -0.647,-0.464 -1.095,-0.649 -0.445,-0.185 -0.963,-0.337 -1.524,-0.438 -0.563,-0.103 -1.17,-0.161 -1.794,-0.161 l -45.355,0 c -0.622,0 -1.211,0.059 -1.741,0.161 -0.524,0.102 -0.987,0.254 -1.369,0.438 -0.379,0.186 -0.677,0.404 -0.866,0.649 -0.189,0.245 -0.274,0.513 -0.229,0.794 l 2.739,17.025 c 0.046,0.288 0.217,0.562 0.486,0.812 0.275,0.249 0.649,0.473 1.09,0.664 0.445,0.188 0.965,0.34 1.531,0.445 0.565,0.104 1.181,0.165 1.811,0.165 l 45.852,0 c 0.634,0 1.228,-0.061 1.756,-0.165 0.53,-0.105 0.995,-0.258 1.373,-0.445 0.38,-0.191 0.675,-0.415 0.858,-0.664 0.184,-0.25 0.261,-0.523 0.204,-0.812 l -3.218,-17.025 c -0.1,-0.28 -0.3,-0.55 -0.6,-0.79 z m -137.58,0 c -0.255,-0.245 -0.614,-0.464 -1.047,-0.649 -0.431,-0.187 -0.937,-0.337 -1.489,-0.438 -0.552,-0.104 -1.157,-0.161 -1.78,-0.161 l -45.364,0 c -0.626,0 -1.22,0.058 -1.752,0.161 -0.536,0.102 -1.009,0.252 -1.403,0.438 -0.395,0.186 -0.706,0.404 -0.913,0.648 -0.209,0.246 -0.311,0.513 -0.284,0.795 l 1.514,17.025 c 0.028,0.288 0.182,0.562 0.435,0.812 0.257,0.249 0.611,0.476 1.04,0.664 0.436,0.188 0.941,0.34 1.499,0.445 0.558,0.104 1.167,0.165 1.802,0.165 l 45.862,0 c 0.631,0 1.228,-0.061 1.763,-0.165 0.536,-0.105 1.01,-0.258 1.404,-0.445 0.39,-0.188 0.699,-0.415 0.902,-0.664 0.203,-0.25 0.299,-0.523 0.263,-0.812 l -2.001,-17.025 c -0.02,-0.28 -0.18,-0.55 -0.44,-0.79 z m -62.23,-0.01 c -0.25,-0.244 -0.599,-0.463 -1.026,-0.648 -0.428,-0.187 -0.929,-0.337 -1.481,-0.438 -0.553,-0.104 -1.152,-0.161 -1.778,-0.161 l -45.354,0 c -0.628,0 -1.222,0.058 -1.759,0.161 -0.536,0.102 -1.018,0.252 -1.416,0.438 -0.401,0.186 -0.72,0.404 -0.936,0.648 -0.217,0.246 -0.329,0.513 -0.31,0.795 l 0.966,17.025 c 0.016,0.288 0.156,0.562 0.404,0.812 0.248,0.249 0.594,0.476 1.021,0.664 0.426,0.188 0.929,0.34 1.481,0.445 0.556,0.104 1.162,0.166 1.796,0.166 l 45.857,-10e-4 c 0.634,0 1.23,-0.061 1.772,-0.165 0.539,-0.105 1.021,-0.258 1.42,-0.445 0.4,-0.188 0.713,-0.415 0.925,-0.664 0.213,-0.25 0.316,-0.523 0.29,-0.812 l -1.447,-17.025 c 0,-0.28 -0.16,-0.55 -0.41,-0.8 z m -63.42,0 c -0.244,-0.244 -0.587,-0.463 -1.008,-0.648 -0.421,-0.187 -0.916,-0.337 -1.464,-0.438 -0.547,-0.104 -1.147,-0.161 -1.775,-0.161 l -304.9,0 c -0.627,0 -1.229,0.058 -1.784,0.159 -0.552,0.104 -1.059,0.254 -1.491,0.44 -0.433,0.186 -0.788,0.403 -1.046,0.648 -0.256,0.242 -0.415,0.513 -0.447,0.794 l -1.894,17.026 c -0.033,0.288 0.066,0.563 0.27,0.812 0.206,0.249 0.516,0.477 0.913,0.664 0.394,0.188 0.871,0.341 1.406,0.447 0.538,0.105 1.134,0.164 1.766,0.164 l 308.26,0 c 0.634,0 1.234,-0.062 1.778,-0.166 0.543,-0.105 1.029,-0.258 1.434,-0.445 0.406,-0.188 0.731,-0.415 0.947,-0.664 0.222,-0.25 0.334,-0.523 0.318,-0.812 l -0.887,-17.025 c -0.01,-0.26 -0.16,-0.53 -0.4,-0.78 z m -513.1,-0.65 c -0.373,-0.184 -0.826,-0.334 -1.347,-0.438 -0.521,-0.104 -1.106,-0.163 -1.734,-0.163 l -56.134,0 c -0.627,0 -1.238,0.06 -1.809,0.163 -0.566,0.104 -1.094,0.254 -1.549,0.438 -0.456,0.186 -0.846,0.405 -1.133,0.651 -0.292,0.242 -0.486,0.512 -0.556,0.794 l -4.23,17.028 c -0.069,0.286 -0.011,0.562 0.163,0.812 0.168,0.249 0.447,0.475 0.814,0.662 0.37,0.188 0.825,0.341 1.348,0.447 0.521,0.105 1.113,0.164 1.746,0.164 l 56.754,0 c 0.635,0 1.252,-0.059 1.824,-0.164 0.571,-0.106 1.097,-0.26 1.554,-0.447 0.456,-0.188 0.838,-0.413 1.123,-0.662 0.286,-0.25 0.474,-0.525 0.534,-0.812 l 3.653,-17.028 c 0.062,-0.282 -0.008,-0.552 -0.186,-0.794 -0.15,-0.24 -0.44,-0.46 -0.81,-0.65 z m 712.95,0.66 c -0.267,-0.245 -0.636,-0.464 -1.075,-0.649 -0.438,-0.185 -0.951,-0.337 -1.51,-0.438 -0.557,-0.104 -1.165,-0.161 -1.792,-0.161 l -56.117,0 c -0.623,0 -1.216,0.058 -1.747,0.161 -0.53,0.102 -1,0.252 -1.385,0.438 -0.389,0.186 -0.694,0.404 -0.894,0.649 -0.201,0.245 -0.295,0.513 -0.258,0.794 l 2.08,17.025 c 0.032,0.288 0.195,0.562 0.456,0.812 0.262,0.249 0.626,0.476 1.064,0.664 0.438,0.188 0.951,0.34 1.511,0.445 0.563,0.104 1.175,0.165 1.81,0.165 l 56.733,0 c 0.635,0 1.228,-0.061 1.763,-0.165 0.529,-0.105 1,-0.258 1.385,-0.445 0.385,-0.191 0.686,-0.415 0.88,-0.664 0.192,-0.25 0.278,-0.523 0.233,-0.812 L 957.4,772.444 c -0.02,-0.28 -0.19,-0.55 -0.45,-0.79 z M 205.68,675.86 c 0.326,0.154 0.73,0.281 1.189,0.369 0.463,0.088 0.984,0.137 1.543,0.137 l 40.368,0 c 0.557,0 1.098,-0.049 1.604,-0.135 0.5,-0.09 0.964,-0.215 1.363,-0.371 0.4,-0.158 0.737,-0.342 0.987,-0.548 0.25,-0.207 0.415,-0.434 0.466,-0.673 l 2.063,-9.316 c 0.051,-0.234 -0.01,-0.458 -0.168,-0.662 -0.156,-0.205 -0.412,-0.389 -0.74,-0.544 -0.329,-0.153 -0.73,-0.279 -1.191,-0.365 -0.461,-0.088 -0.979,-0.136 -1.534,-0.136 l -40.087,0 c -0.555,0 -1.095,0.048 -1.594,0.133 -0.504,0.088 -0.966,0.213 -1.366,0.366 -0.399,0.155 -0.738,0.34 -0.993,0.544 -0.253,0.203 -0.421,0.429 -0.479,0.662 l -2.311,9.317 c -0.059,0.238 -0.001,0.465 0.15,0.672 0.15,0.21 0.4,0.39 0.73,0.55 z m 54.24,0 c 0.331,0.156 0.74,0.284 1.205,0.371 0.463,0.086 0.984,0.135 1.543,0.135 l 40.367,10e-4 c 0.559,0 1.098,-0.05 1.602,-0.136 0.498,-0.087 0.957,-0.214 1.354,-0.369 0.394,-0.157 0.725,-0.342 0.97,-0.549 0.243,-0.204 0.399,-0.434 0.444,-0.674 l 1.787,-9.315 c 0.046,-0.233 -0.024,-0.458 -0.188,-0.662 -0.16,-0.206 -0.42,-0.389 -0.754,-0.542 -0.333,-0.155 -0.743,-0.279 -1.204,-0.366 -0.463,-0.088 -0.982,-0.135 -1.538,-0.135 l -40.085,-10e-4 c -0.556,0 -1.091,0.046 -1.593,0.134 -0.497,0.086 -0.958,0.212 -1.354,0.366 -0.396,0.155 -0.729,0.338 -0.976,0.543 -0.25,0.204 -0.41,0.428 -0.462,0.662 l -2.031,9.316 c -0.053,0.239 0.011,0.466 0.168,0.673 0.16,0.21 0.41,0.4 0.74,0.55 z m 54.26,0 c 0.338,0.155 0.748,0.28 1.216,0.367 0.466,0.088 0.986,0.136 1.542,0.136 l 40.375,0.003 c 0.559,0 1.095,-0.051 1.593,-0.137 0.497,-0.088 0.956,-0.214 1.345,-0.369 0.39,-0.156 0.715,-0.344 0.958,-0.551 0.233,-0.204 0.386,-0.433 0.425,-0.673 l 1.508,-9.313 c 0.038,-0.235 -0.037,-0.461 -0.211,-0.662 -0.168,-0.207 -0.433,-0.392 -0.771,-0.545 -0.337,-0.153 -0.75,-0.278 -1.216,-0.365 -0.467,-0.088 -0.983,-0.136 -1.535,-0.136 l -40.095,0 c -0.553,0 -1.087,0.048 -1.584,0.136 -0.493,0.086 -0.952,0.212 -1.344,0.365 -0.39,0.153 -0.721,0.336 -0.964,0.542 -0.243,0.204 -0.396,0.43 -0.439,0.662 l -1.756,9.315 c -0.046,0.24 0.025,0.47 0.19,0.674 0.15,0.21 0.41,0.4 0.75,0.55 z m 54.24,0 c 0.341,0.155 0.755,0.281 1.224,0.371 0.466,0.084 0.99,0.135 1.545,0.135 l 40.375,10e-4 c 0.559,0 1.097,-0.049 1.592,-0.136 0.494,-0.088 0.946,-0.214 1.332,-0.369 0.384,-0.157 0.705,-0.344 0.936,-0.551 0.233,-0.205 0.375,-0.432 0.405,-0.673 l 1.234,-9.315 c 0.03,-0.232 -0.053,-0.457 -0.227,-0.662 -0.172,-0.203 -0.444,-0.388 -0.786,-0.542 -0.343,-0.154 -0.757,-0.279 -1.226,-0.365 -0.471,-0.088 -0.992,-0.135 -1.546,-0.135 l -40.092,-0.004 c -0.553,0 -1.087,0.048 -1.578,0.136 -0.49,0.087 -0.941,0.212 -1.33,0.365 -0.387,0.153 -0.709,0.338 -0.942,0.545 -0.233,0.204 -0.385,0.427 -0.421,0.662 l -1.479,9.313 c -0.039,0.24 0.037,0.469 0.21,0.673 0.2,0.22 0.46,0.41 0.8,0.56 z m 54.25,0.01 c 0.345,0.155 0.763,0.28 1.234,0.368 0.471,0.087 0.998,0.136 1.555,0.136 l 40.366,0.002 c 0.558,0 1.094,-0.05 1.587,-0.138 0.494,-0.087 0.939,-0.213 1.321,-0.368 0.382,-0.157 0.694,-0.345 0.919,-0.551 0.226,-0.206 0.364,-0.432 0.388,-0.672 l 0.954,-9.314 c 0.025,-0.235 -0.063,-0.46 -0.246,-0.664 -0.181,-0.204 -0.456,-0.389 -0.802,-0.543 -0.346,-0.154 -0.765,-0.278 -1.239,-0.364 -0.469,-0.088 -0.993,-0.136 -1.545,-0.136 l -40.084,0 c -0.556,0 -1.088,0.047 -1.58,0.135 -0.491,0.086 -0.94,0.211 -1.322,0.365 -0.381,0.154 -0.7,0.339 -0.927,0.543 -0.231,0.204 -0.37,0.429 -0.402,0.662 l -1.204,9.314 c -0.029,0.241 0.054,0.468 0.232,0.673 0.17,0.2 0.44,0.39 0.79,0.55 z m 54.24,0 c 0.35,0.155 0.772,0.281 1.248,0.368 0.472,0.088 1,0.138 1.559,0.138 l 40.372,0 c 0.559,0 1.091,-0.048 1.58,-0.137 0.488,-0.085 0.932,-0.214 1.307,-0.369 0.377,-0.155 0.686,-0.343 0.904,-0.548 0.217,-0.209 0.349,-0.433 0.364,-0.673 l 0.679,-9.314 c 0.018,-0.237 -0.076,-0.461 -0.265,-0.666 -0.188,-0.203 -0.468,-0.387 -0.818,-0.539 -0.352,-0.156 -0.771,-0.279 -1.247,-0.366 -0.472,-0.088 -0.993,-0.136 -1.545,-0.136 l -40.089,-0.002 c -0.556,0 -1.09,0.048 -1.577,0.136 -0.488,0.086 -0.932,0.21 -1.311,0.364 -0.377,0.154 -0.689,0.339 -0.914,0.543 -0.222,0.204 -0.357,0.429 -0.38,0.664 l -0.925,9.314 c -0.025,0.24 0.065,0.466 0.25,0.672 0.19,0.22 0.47,0.41 0.82,0.57 z m 54.24,0 c 0.353,0.155 0.781,0.282 1.257,0.367 0.476,0.089 1.003,0.138 1.563,0.138 l 40.368,0.003 c 0.559,0 1.09,-0.051 1.578,-0.139 0.484,-0.086 0.927,-0.213 1.302,-0.369 0.37,-0.157 0.676,-0.343 0.886,-0.548 0.217,-0.208 0.337,-0.435 0.349,-0.675 l 0.401,-9.313 c 0.012,-0.237 -0.091,-0.462 -0.285,-0.665 -0.196,-0.204 -0.48,-0.389 -0.839,-0.542 -0.356,-0.155 -0.783,-0.279 -1.258,-0.365 -0.477,-0.089 -1,-0.136 -1.552,-0.136 l -40.09,-10e-4 c -0.554,0 -1.082,0.048 -1.567,0.136 -0.486,0.087 -0.927,0.21 -1.3,0.366 -0.375,0.153 -0.681,0.338 -0.902,0.539 -0.215,0.205 -0.345,0.429 -0.36,0.666 l -0.647,9.314 c -0.019,0.24 0.077,0.464 0.269,0.673 0.19,0.21 0.47,0.39 0.82,0.55 z m 54.25,0 c 0.356,0.156 0.786,0.283 1.264,0.371 0.478,0.086 1.004,0.137 1.562,0.137 l 40.373,0 c 0.557,0 1.091,-0.051 1.572,-0.137 0.486,-0.088 0.921,-0.215 1.29,-0.37 0.367,-0.154 0.668,-0.344 0.873,-0.547 0.208,-0.21 0.32,-0.437 0.326,-0.674 l 0.125,-9.314 c 0.003,-0.237 -0.105,-0.46 -0.305,-0.665 -0.202,-0.203 -0.492,-0.387 -0.855,-0.54 -0.36,-0.156 -0.787,-0.281 -1.267,-0.365 -0.478,-0.088 -1.005,-0.137 -1.561,-0.137 l -40.088,-0.002 c -0.552,0 -1.079,0.047 -1.562,0.136 -0.481,0.086 -0.917,0.21 -1.286,0.365 -0.366,0.153 -0.667,0.338 -0.88,0.542 -0.212,0.203 -0.33,0.429 -0.34,0.665 l -0.371,9.313 c -0.013,0.239 0.093,0.466 0.288,0.674 0.2,0.21 0.49,0.39 0.85,0.55 z m 54.24,0 c 0.367,0.155 0.799,0.282 1.28,0.372 0.485,0.084 1.014,0.135 1.573,0.135 l 40.359,0.003 c 0.56,0 1.088,-0.05 1.569,-0.138 0.481,-0.09 0.918,-0.213 1.28,-0.368 0.361,-0.158 0.651,-0.345 0.855,-0.55 0.2,-0.207 0.309,-0.437 0.305,-0.675 l -0.15,-9.313 c -0.006,-0.235 -0.123,-0.46 -0.327,-0.664 -0.204,-0.204 -0.501,-0.389 -0.866,-0.542 -0.364,-0.156 -0.8,-0.28 -1.281,-0.366 -0.484,-0.088 -1.01,-0.135 -1.565,-0.135 l -40.077,-0.002 c -0.554,0 -1.08,0.049 -1.563,0.137 -0.48,0.084 -0.913,0.209 -1.276,0.365 -0.364,0.153 -0.661,0.339 -0.865,0.54 -0.207,0.205 -0.317,0.428 -0.32,0.665 l -0.098,9.314 c -0.002,0.238 0.109,0.464 0.311,0.674 0.21,0.23 0.5,0.42 0.87,0.57 z M 693,675.32 c 0.21,0.205 0.505,0.392 0.875,0.55 0.367,0.155 0.805,0.278 1.292,0.368 0.483,0.088 1.018,0.138 1.575,0.138 l 40.368,0 c 0.553,0 1.081,-0.05 1.561,-0.136 0.478,-0.09 0.907,-0.215 1.265,-0.37 0.357,-0.157 0.644,-0.343 0.837,-0.55 0.195,-0.207 0.298,-0.434 0.286,-0.671 l -0.43,-9.315 c -0.007,-0.236 -0.133,-0.461 -0.344,-0.664 -0.212,-0.204 -0.513,-0.388 -0.881,-0.541 -0.367,-0.156 -0.805,-0.282 -1.291,-0.367 -0.482,-0.086 -1.009,-0.135 -1.559,-0.135 l -40.088,-10e-4 c -0.556,0 -1.084,0.047 -1.56,0.135 -0.479,0.086 -0.911,0.21 -1.268,0.366 -0.359,0.153 -0.647,0.338 -0.851,0.542 -0.196,0.204 -0.306,0.429 -0.3,0.664 l 0.179,9.313 c -0.01,0.23 0.11,0.46 0.32,0.66 z m 54.22,0 c 0.214,0.207 0.518,0.393 0.891,0.55 0.374,0.155 0.816,0.281 1.304,0.37 0.484,0.087 1.02,0.136 1.575,0.136 l 40.366,0 c 0.558,0 1.084,-0.047 1.56,-0.136 0.473,-0.086 0.898,-0.213 1.254,-0.368 0.351,-0.157 0.63,-0.343 0.821,-0.549 0.188,-0.208 0.281,-0.436 0.263,-0.674 l -0.704,-9.313 c -0.018,-0.235 -0.144,-0.461 -0.365,-0.664 -0.217,-0.204 -0.523,-0.389 -0.898,-0.543 -0.372,-0.154 -0.813,-0.279 -1.297,-0.365 -0.485,-0.088 -1.017,-0.135 -1.567,-0.135 l -40.083,-0.002 c -0.556,0 -1.078,0.049 -1.554,0.135 -0.476,0.085 -0.902,0.211 -1.255,0.367 -0.357,0.153 -0.645,0.337 -0.834,0.541 -0.194,0.203 -0.297,0.428 -0.287,0.666 l 0.459,9.313 c 0.02,0.22 0.14,0.45 0.36,0.65 z m 54.22,0.01 c 0.222,0.206 0.528,0.392 0.906,0.549 0.377,0.155 0.821,0.282 1.311,0.368 0.489,0.089 1.021,0.137 1.575,0.137 l 40.37,0 c 0.558,0 1.083,-0.048 1.556,-0.134 0.478,-0.089 0.896,-0.215 1.246,-0.371 0.349,-0.156 0.623,-0.342 0.806,-0.548 0.184,-0.208 0.271,-0.435 0.246,-0.674 l -0.98,-9.314 c -0.027,-0.234 -0.163,-0.457 -0.386,-0.662 -0.225,-0.205 -0.538,-0.389 -0.913,-0.543 -0.379,-0.155 -0.826,-0.28 -1.314,-0.365 -0.489,-0.089 -1.021,-0.133 -1.579,-0.133 l -40.081,-0.004 c -0.552,0 -1.074,0.048 -1.546,0.135 -0.472,0.086 -0.894,0.211 -1.243,0.365 -0.348,0.154 -0.627,0.339 -0.815,0.543 -0.186,0.204 -0.28,0.429 -0.261,0.664 l 0.733,9.313 c 0,0.23 0.13,0.45 0.35,0.66 z m 54.22,0 c 0.229,0.204 0.545,0.39 0.924,0.546 0.381,0.156 0.832,0.283 1.322,0.372 0.494,0.085 1.032,0.133 1.59,0.133 l 40.357,0.002 c 0.558,0 1.08,-0.048 1.556,-0.135 0.47,-0.088 0.888,-0.216 1.231,-0.369 0.344,-0.156 0.614,-0.344 0.791,-0.549 0.175,-0.21 0.257,-0.436 0.222,-0.674 l -1.251,-9.314 c -0.037,-0.236 -0.178,-0.459 -0.407,-0.662 -0.231,-0.206 -0.55,-0.389 -0.934,-0.544 -0.383,-0.153 -0.829,-0.28 -1.32,-0.364 -0.497,-0.088 -1.029,-0.135 -1.581,-0.135 l -40.08,0 c -0.553,0 -1.078,0.044 -1.547,0.133 -0.472,0.085 -0.889,0.213 -1.234,0.365 -0.347,0.154 -0.619,0.338 -0.799,0.543 -0.182,0.205 -0.271,0.428 -0.245,0.662 l 1.012,9.316 c 0.02,0.24 0.16,0.46 0.39,0.67 z m 54.21,0 c 0.235,0.205 0.554,0.393 0.941,0.549 0.384,0.153 0.839,0.281 1.337,0.369 0.494,0.087 1.031,0.135 1.589,0.135 l 40.356,0.002 c 0.56,0 1.08,-0.048 1.548,-0.135 0.468,-0.09 0.883,-0.214 1.223,-0.37 0.34,-0.157 0.605,-0.342 0.776,-0.549 0.167,-0.207 0.244,-0.434 0.205,-0.672 l -1.534,-9.316 c -0.041,-0.234 -0.189,-0.457 -0.427,-0.662 -0.235,-0.204 -0.56,-0.389 -0.948,-0.543 -0.385,-0.152 -0.84,-0.28 -1.333,-0.366 -0.493,-0.087 -1.029,-0.134 -1.586,-0.134 l -40.07,-0.001 c -0.553,0 -1.076,0.047 -1.541,0.135 -0.469,0.084 -0.886,0.211 -1.228,0.364 -0.338,0.156 -0.604,0.338 -0.781,0.544 -0.176,0.203 -0.255,0.429 -0.225,0.662 l 1.288,9.314 c 0.03,0.27 0.17,0.49 0.4,0.7 z m 54.21,0 c 0.24,0.207 0.566,0.392 0.96,0.549 0.39,0.156 0.851,0.28 1.345,0.37 0.496,0.087 1.034,0.135 1.593,0.135 l 40.362,10e-4 c 0.557,0 1.074,-0.049 1.543,-0.135 0.466,-0.089 0.875,-0.215 1.21,-0.371 0.334,-0.154 0.595,-0.342 0.761,-0.548 0.165,-0.206 0.23,-0.433 0.185,-0.672 l -1.807,-9.314 c -0.048,-0.236 -0.204,-0.46 -0.448,-0.663 -0.244,-0.205 -0.572,-0.389 -0.966,-0.543 -0.392,-0.154 -0.848,-0.28 -1.345,-0.365 -0.496,-0.088 -1.03,-0.135 -1.582,-0.135 l -40.09,0 c -0.548,0 -1.07,0.045 -1.531,0.133 -0.467,0.085 -0.878,0.213 -1.216,0.365 -0.335,0.154 -0.6,0.339 -0.771,0.543 -0.167,0.205 -0.242,0.429 -0.203,0.662 l 1.563,9.316 c 0.04,0.24 0.19,0.46 0.43,0.67 z m 54.22,0 c 0.241,0.206 0.575,0.394 0.973,0.548 0.396,0.158 0.859,0.284 1.358,0.371 0.504,0.086 1.047,0.135 1.606,0.135 l 40.353,0.002 c 0.555,0 1.075,-0.05 1.538,-0.134 0.466,-0.087 0.872,-0.216 1.2,-0.371 0.333,-0.157 0.582,-0.342 0.741,-0.548 0.159,-0.209 0.222,-0.436 0.167,-0.675 l -2.088,-9.313 c -0.051,-0.234 -0.214,-0.458 -0.461,-0.663 -0.25,-0.203 -0.582,-0.39 -0.98,-0.542 -0.397,-0.156 -0.858,-0.28 -1.359,-0.367 -0.496,-0.088 -1.036,-0.133 -1.592,-0.133 l -40.068,-0.002 c -0.555,0 -1.073,0.047 -1.537,0.135 -0.467,0.085 -0.87,0.211 -1.204,0.365 -0.334,0.154 -0.591,0.338 -0.757,0.543 -0.163,0.203 -0.229,0.427 -0.184,0.663 l 1.841,9.314 c 0.2,0.25 0.3,0.48 0.6,0.68 z m 54.2,0.01 c 0.254,0.206 0.589,0.391 0.99,0.548 0.399,0.156 0.865,0.284 1.366,0.371 0.505,0.084 1.048,0.134 1.604,0.134 l 40.354,10e-4 c 0.559,0 1.079,-0.049 1.539,-0.134 0.462,-0.088 0.863,-0.216 1.187,-0.372 0.326,-0.156 0.575,-0.342 0.727,-0.548 0.151,-0.207 0.207,-0.434 0.146,-0.672 l -2.367,-9.314 c -0.056,-0.236 -0.228,-0.46 -0.483,-0.663 -0.253,-0.204 -0.593,-0.388 -0.992,-0.543 -0.405,-0.155 -0.865,-0.28 -1.37,-0.364 -0.498,-0.088 -1.041,-0.135 -1.593,-0.135 l -40.069,0 c -0.557,0 -1.072,0.045 -1.533,0.132 -0.457,0.086 -0.859,0.212 -1.189,0.367 -0.326,0.151 -0.579,0.338 -0.731,0.541 -0.162,0.205 -0.22,0.429 -0.168,0.663 l 2.12,9.313 c 0.2,0.23 0.4,0.46 0.6,0.67 z"
       id="path199"
       inkscape:connector-curvature="0"
       style="fill:#696969" /></g><polygon
     points="1105.9,114.06 1116.8,617.12 205.74,617.12 218.16,114.06 "
     id="polygon220"
     style="fill:none;stroke:#474747"
     transform="translate(-105.93915,43.41145)" /><metadata
     id="metadata222"><rdf:RDF><cc:Work><dc:format>image/svg+xml</dc:format><dc:type
           rdf:resource="http://purl.org/dc/dcmitype/StillImage" /><cc:license
           rdf:resource="http://creativecommons.org/publicdomain/zero/1.0/" /><dc:publisher><cc:Agent
             rdf:about="http://openclipart.org/"><dc:title>Openclipart</dc:title></cc:Agent></dc:publisher><dc:title></dc:title><dc:date>2011-03-30T09:46:00</dc:date><dc:description>Modern vector laptop</dc:description><dc:source>https://openclipart.org/detail/129931/vector-laptop-or-notebook-by-vectorace</dc:source><dc:creator><cc:Agent><dc:title>vectorace</dc:title></cc:Agent></dc:creator><dc:subject><rdf:Bag><rdf:li>black</rdf:li><rdf:li>business</rdf:li><rdf:li>communication</rdf:li><rdf:li>computer</rdf:li><rdf:li>cpu</rdf:li><rdf:li>data</rdf:li><rdf:li>design</rdf:li><rdf:li>desktop</rdf:li><rdf:li>detailed</rdf:li><rdf:li>digital</rdf:li><rdf:li>display</rdf:li><rdf:li>electrical</rdf:li><rdf:li>equipment</rdf:li><rdf:li>flat</rdf:li><rdf:li>grey</rdf:li><rdf:li>illustration</rdf:li><rdf:li>internet</rdf:li><rdf:li>isolated</rdf:li><rdf:li>job</rdf:li><rdf:li>keyboard</rdf:li><rdf:li>keypad</rdf:li><rdf:li>laptop</rdf:li><rdf:li>metal</rdf:li><rdf:li>mobile</rdf:li><rdf:li>mobility</rdf:li><rdf:li>modern</rdf:li><rdf:li>notebook</rdf:li><rdf:li>object</rdf:li><rdf:li>office</rdf:li><rdf:li>pc</rdf:li><rdf:li>screen</rdf:li><rdf:li>silver</rdf:li><rdf:li>symbol</rdf:li><rdf:li>technology</rdf:li><rdf:li>white</rdf:li><rdf:li>work</rdf:li><rdf:li>www</rdf:li></rdf:Bag></dc:subject></cc:Work><cc:License
         rdf:about="http://creativecommons.org/publicdomain/zero/1.0/"><cc:permits
           rdf:resource="http://creativecommons.org/ns#Reproduction" /><cc:permits
           rdf:resource="http://creativecommons.org/ns#Distribution" /><cc:permits
           rdf:resource="http://creativecommons.org/ns#DerivativeWorks" /></cc:License></rdf:RDF></metadata><g
     transform="translate(72.957906,-20.594517)"
     id="g4400"><g
       transform="matrix(0.88091836,0,0,0.88110663,71.186024,1.1607337)"
       id="layer1"
       inkscape:label="Layer 1"><path
         sodipodi:nodetypes="ccccc"
         inkscape:connector-curvature="0"
         id="path3350"
         d="m 324.63859,293.9163 c -36.41555,1.68551 -102.51012,-23.72021 -86.77205,81.8877 38.99198,139.35783 60.84419,72.51682 84.183,73.94667 13.91943,-2.10914 49.2525,66.0404 101.05888,-70.2479 14.58249,-81.69983 -8.57225,-95.53461 -98.46983,-85.58647 0,0 0,0 0,0"
         style="fill:none;fill-rule:evenodd;stroke:#000000;stroke-width:2.27011538;stroke-linecap:butt;stroke-linejoin:miter;stroke-miterlimit:4;stroke-dasharray:none;stroke-opacity:1" /><path
         inkscape:connector-curvature="0"
         id="path4168"
         d="m 351.61784,463.59795 c -4.55536,-1.14917 -9.75097,-3.7056 -17.0611,-8.39424 -8.847,-5.67435 -9.58356,-5.97384 -14.03204,-5.70613 -4.37855,0.26349 -7.2265,1.53276 -16.59283,7.3957 -9.01955,5.64587 -12.74503,7.08694 -17.65555,6.8286 -4.8732,-0.25637 -7.84904,-1.78174 -12.71735,-6.51796 -10.57592,-10.28898 -21.62727,-34.88507 -32.6213,-72.55267 -6.04831,-20.72268 -6.67874,-47.59712 -1.51699,-63.87829 3.20903,-10.12184 10.0864,-18.54041 18.5014,-22.65476 9.64528,-4.71589 19.72959,-5.9296 39.6151,-4.76882 17.52045,1.02273 28.19921,0.94863 40.61294,-0.28178 14.54779,-1.44193 41.27885,-1.50337 49.47703,-0.11373 14.61028,2.47653 23.61229,6.92418 29.96006,14.8061 6.77312,8.4101 9.39351,20.04474 8.75865,38.93293 -0.54735,16.28456 -2.6618,30.14551 -5.81841,38.11637 -16.60128,41.92055 -33.01987,67.23829 -49.19229,75.79081 -6.63985,3.51138 -13.52908,4.55897 -19.71732,2.99787 0,0 0,0 0,0"
         style="fill:#ff0000;fill-opacity:1;stroke:#000000;stroke-width:2.27011538;stroke-miterlimit:4;stroke-dasharray:none;stroke-opacity:1" /><ellipse
         transform="matrix(0.96298001,-0.26957282,0.41718638,0.90882095,0,0)"
         ry="7.6691265"
         rx="18.429781"
         cy="373.90363"
         cx="115.59644"
         id="path4214"
         style="fill:#ffffff;fill-opacity:0.71005919;fill-rule:nonzero;stroke:none;stroke-width:2.01256299;stroke-miterlimit:4;stroke-dasharray:none;stroke-opacity:1" /><path
         sodipodi:nodetypes="cc"
         inkscape:connector-curvature="0"
         id="path4220"
         d="m 295.56136,312.39358 c 16.20791,16.57765 56.35521,15.32867 73.5589,1.1156"
         style="fill:none;fill-rule:evenodd;stroke:#000000;stroke-width:2.27011538;stroke-linecap:butt;stroke-linejoin:miter;stroke-miterlimit:4;stroke-dasharray:none;stroke-opacity:1" /><path
         sodipodi:nodetypes="ccccc"
         inkscape:connector-curvature="0"
         id="path4224"
         d="m 322.78493,323.77423 c 0.25884,-47.75667 12.51598,-77.87381 20.80679,-86.27708 9.90487,2.96092 10.79113,2.22176 15.83321,5.40127 -12.06617,15.90523 -22.23727,43.06109 -22.57446,81.15756 0,0 -14.06554,-0.28175 -14.06554,-0.28175"
         style="fill:#c87137;fill-rule:evenodd;stroke:#000000;stroke-width:2.27011538;stroke-linecap:butt;stroke-linejoin:miter;stroke-miterlimit:4;stroke-dasharray:none;stroke-opacity:1" /></g><g
       transform="matrix(0.41258787,0,0,0.41275517,423.19029,347.64401)"
       id="layer1-6"
       inkscape:label="Layer 1"><path
         sodipodi:nodetypes="ccccc"
         inkscape:connector-curvature="0"
         id="path3350-1"
         d="m 421.04759,354.49909 c -78.8314,3.69882 -222.7858,-52.0524 -185.44841,179.71078 88.76238,305.8841 134.04478,159.16339 184.6511,162.30185 30.0905,-4.62949 108.74716,144.96356 216.75838,-154.18401 29.05341,-179.29947 -21.53357,-209.65936 -215.96107,-187.82862 0,0 0,0 0,0"
         style="fill:none;fill-rule:evenodd;stroke:#000000;stroke-width:4.84646988;stroke-linecap:butt;stroke-linejoin:miter;stroke-miterlimit:4;stroke-dasharray:none;stroke-opacity:1" /><path
         inkscape:connector-curvature="0"
         id="path4168-1"
         d="m 484.73658,726.90638 c -9.90458,-2.52246 -21.23969,-8.13384 -37.22168,-18.42535 -19.34182,-12.45506 -20.94679,-13.11243 -30.57591,-12.52484 -9.47775,0.57836 -15.6085,3.36435 -35.71931,16.23342 -19.36636,12.39268 -27.39308,15.55583 -38.0395,14.98878 -10.56553,-0.56273 -17.05957,-3.91092 -27.75247,-14.30692 -23.22901,-22.58407 -47.9278,-76.57051 -72.90344,-159.24412 -13.73965,-45.48062 -15.93129,-104.46062 -5.25004,-140.19098 6.6403,-22.21279 21.27934,-40.6874 39.3814,-49.71632 20.7485,-10.3489 42.55573,-13.01235 85.66744,-10.46505 37.98431,2.24434 61.11436,2.08174 87.96695,-0.61836 31.4688,-3.16427 89.3716,-3.2991 107.17349,-0.24958 31.72552,5.43467 51.36361,15.19495 65.3587,32.49185 14.93305,18.4562 20.97053,43.98911 20.18147,85.44128 -0.6803,35.73913 -4.83069,66.15995 -11.42162,83.65399 -34.66435,92.00838 -69.4494,147.57916 -104.22136,166.35184 -14.27634,7.70751 -29.1692,10.00699 -42.62412,6.58036 0,0 0,0 0,0"
         style="fill:#ff0000;fill-opacity:1;stroke:#000000;stroke-width:4.84646988;stroke-miterlimit:4;stroke-dasharray:none;stroke-opacity:1" /><ellipse
         transform="matrix(0.96303872,-0.26936298,0.41747578,0.90868805,0,0)"
         ry="16.373711"
         rx="39.372776"
         cy="464.05029"
         cx="119.87725"
         id="path4214-0"
         style="fill:#ffffff;fill-opacity:0.71005919;fill-rule:nonzero;stroke:none;stroke-width:2.01256299;stroke-miterlimit:4;stroke-dasharray:none;stroke-opacity:1" /><path
         sodipodi:nodetypes="cc"
         inkscape:connector-curvature="0"
         id="path4220-5"
         d="m 358.63015,395.04745 c 35.62153,36.38056 122.55218,33.63958 159.37987,2.44823"
         style="fill:none;fill-rule:evenodd;stroke:#000000;stroke-width:4.84646988;stroke-linecap:butt;stroke-linejoin:miter;stroke-miterlimit:4;stroke-dasharray:none;stroke-opacity:1" /><path
         sodipodi:nodetypes="ccccc"
         inkscape:connector-curvature="0"
         id="path4224-0"
         d="m 417.95395,420.02283 c -0.91363,-104.80149 24.70716,-170.88946 42.4064,-189.32879 21.54659,6.49714 23.44344,4.87521 34.46349,11.852 -25.64516,34.90136 -46.83829,94.49222 -46.39177,178.09511 0,0 -30.47812,-0.61832 -30.47812,-0.61832"
         style="fill:#c87137;fill-rule:evenodd;stroke:#000000;stroke-width:4.84646988;stroke-linecap:butt;stroke-linejoin:miter;stroke-miterlimit:4;stroke-dasharray:none;stroke-opacity:1" /><path
         inkscape:connector-curvature="0"
         id="path4250"
         d="m 344.92581,343.79854 c -44.69067,-2.8099 -84.11887,-11.24327 -108.16254,-23.1313 -11.32592,-5.59992 -24.41333,-15.76053 -22.57126,-17.52218 3.29494,-3.15108 63.77345,-4.71787 87.8331,-2.27563 37.65104,3.82188 72.12728,12.98975 96.43118,25.6467 9.81302,5.11042 21.58438,13.31459 21.7363,15.14999 0.16683,2.01541 -53.11681,3.52509 -75.26678,2.13242 0,0 0,0 0,0"
         style="fill:#00e800;fill-opacity:1;fill-rule:nonzero;stroke:#000000;stroke-width:4.84646988;stroke-miterlimit:4;stroke-dasharray:none;stroke-opacity:1" /></g><g
       inkscape:label="Layer 1"
       id="g4297"
       transform="matrix(0.88091836,0,0,0.88110663,312.12923,1.1607337)"><path
         style="fill:none;fill-rule:evenodd;stroke:#000000;stroke-width:2.27011538;stroke-linecap:butt;stroke-linejoin:miter;stroke-miterlimit:4;stroke-dasharray:none;stroke-opacity:1"
         d="m 318.17927,293.9163 c -36.39197,1.68551 -102.84194,-23.72021 -85.62649,81.8877 40.94151,139.35783 61.85866,72.51682 85.21747,73.94667 13.88993,-2.10914 50.17636,66.0404 100.07616,-70.2479 13.43955,-81.69983 -9.90872,-95.53461 -99.66714,-85.58647 0,0 0,0 0,0"
         id="path4299"
         inkscape:connector-curvature="0"
         sodipodi:nodetypes="ccccc" /><path
         style="fill:#ff0000;fill-opacity:1;stroke:#000000;stroke-width:2.27011538;stroke-miterlimit:4;stroke-dasharray:none;stroke-opacity:1"
         d="m 347.53227,463.59795 c -4.57145,-1.14917 -9.80282,-3.7056 -17.17854,-8.39424 -8.92637,-5.67435 -9.66713,-5.97384 -14.11186,-5.70613 -4.37486,0.26349 -7.20506,1.53276 -16.48937,7.3957 -8.94057,5.64587 -12.64589,7.08694 -17.56003,6.8286 -4.87678,-0.25637 -7.87396,-1.78174 -12.80853,-6.51796 -10.71985,-10.28898 -22.11529,-34.88507 -33.63626,-72.55267 -6.33821,-20.72268 -7.34459,-47.59712 -2.4106,-63.87829 3.06742,-10.12184 9.82703,-18.54041 18.18446,-22.65476 9.57932,-4.71589 19.64665,-5.9296 39.5484,-4.76882 17.53475,1.02273 28.21247,0.94863 40.60899,-0.28178 14.52762,-1.44193 41.25782,-1.50337 49.47544,-0.11373 14.64493,2.47653 23.70916,6.92418 30.16718,14.8061 6.89078,8.4101 9.67393,20.04474 9.3033,38.93293 -0.31954,16.28456 -2.24008,30.14551 -5.28518,38.11637 -16.01484,41.92055 -32.07925,67.23829 -48.13203,75.79081 -6.59072,3.51138 -13.46529,4.55897 -19.67537,2.99787 0,0 0,0 0,0"
         id="path4301"
         inkscape:connector-curvature="0" /><ellipse
         style="fill:#ffffff;fill-opacity:0.71005919;fill-rule:nonzero;stroke:none;stroke-width:2.01256299;stroke-miterlimit:4;stroke-dasharray:none;stroke-opacity:1"
         id="ellipse4303"
         cx="115.59644"
         cy="373.90363"
         rx="18.429781"
         ry="7.6691265"
         transform="matrix(0.96298001,-0.26957282,0.41718638,0.90882095,0,0)" /><path
         style="fill:none;fill-rule:evenodd;stroke:#000000;stroke-width:2.27011538;stroke-linecap:butt;stroke-linejoin:miter;stroke-miterlimit:4;stroke-dasharray:none;stroke-opacity:1"
         d="m 289.36053,312.39358 c 16.43982,16.57765 56.56965,15.32867 73.57451,1.1156"
         id="path4305"
         inkscape:connector-curvature="0"
         sodipodi:nodetypes="cc" /><path
         style="fill:#c87137;fill-rule:evenodd;stroke:#000000;stroke-width:2.27011538;stroke-linecap:butt;stroke-linejoin:miter;stroke-miterlimit:4;stroke-dasharray:none;stroke-opacity:1"
         d="m 316.74331,323.77423 c -0.40925,-47.75667 11.42657,-77.87381 19.59983,-86.27708 9.94629,2.96092 10.8222,2.22176 15.90876,5.40127 -11.84367,15.90523 -21.63486,43.06109 -21.43911,81.15756 0,0 -14.06948,-0.28175 -14.06948,-0.28175"
         id="path4307"
         inkscape:connector-curvature="0"
         sodipodi:nodetypes="ccccc" /></g><g
       transform="matrix(0.88091836,0,0,0.88110663,71.186024,236.41217)"
       id="g4309"
       inkscape:label="Layer 1"><path
         sodipodi:nodetypes="ccccc"
         inkscape:connector-curvature="0"
         id="path4311"
         d="m 322.44869,292.30681 c -36.92204,1.73271 -103.93066,-24.38389 -87.99312,84.18535 39.51527,143.29109 61.6839,74.55992 85.34966,76.03013 14.11476,-2.16868 49.93746,67.90803 102.47849,-72.22734 14.78881,-83.99267 -8.6872,-98.21473 -99.83503,-87.98814 0,0 0,0 0,0"
         style="fill:none;fill-rule:evenodd;stroke:#000000;stroke-width:2.27011538;stroke-linecap:butt;stroke-linejoin:miter;stroke-miterlimit:4;stroke-dasharray:none;stroke-opacity:1" /><path
         inkscape:connector-curvature="0"
         id="path4313"
         d="m 349.78665,466.76064 c -4.61915,-1.18164 -9.88737,-3.81029 -17.29951,-8.63134 -8.97038,-5.83456 -9.71724,-6.14251 -14.2281,-5.86724 -4.43995,0.27092 -7.32798,1.57603 -16.82639,7.60452 -9.1468,5.80535 -12.92474,7.28712 -17.90411,7.02148 -4.94151,-0.26361 -7.95887,-1.83207 -12.89473,-6.70207 -10.72256,-10.57947 -21.92461,-35.86937 -33.06581,-74.59774 -6.12902,-21.30535 -6.76332,-48.93447 -1.52673,-65.67232 3.25549,-10.40556 10.23001,-19.05998 18.76272,-23.28956 9.78015,-4.84794 20.00483,-6.09563 40.16661,-4.90235 17.76388,1.05136 28.59111,0.97519 41.17755,-0.28966 14.75016,-1.48231 41.8528,-1.54547 50.16483,-0.11693 14.81324,2.54588 23.94017,7.11807 30.37584,15.22078 6.86699,8.64579 9.52338,20.60665 8.87889,40.02488 -0.55565,16.74197 -2.7002,30.99257 -5.90126,39.18763 -16.8356,43.10123 -33.48582,69.13331 -49.88566,77.92736 -6.73328,3.61057 -13.71924,4.68776 -19.99414,3.08256 0,0 0,0 0,0"
         style="fill:#ff0000;fill-opacity:1;stroke:#000000;stroke-width:2.27011538;stroke-miterlimit:4;stroke-dasharray:none;stroke-opacity:1" /><ellipse
         transform="matrix(0.96298001,-0.26957282,0.41718638,0.90882095,0,0)"
         ry="7.6691265"
         rx="18.429781"
         cy="373.90363"
         cx="115.59644"
         id="ellipse4315"
         style="fill:#ffffff;fill-opacity:0.71005919;fill-rule:nonzero;stroke:none;stroke-width:2.01256299;stroke-miterlimit:4;stroke-dasharray:none;stroke-opacity:1" /><path
         sodipodi:nodetypes="cc"
         inkscape:connector-curvature="0"
         id="path4317"
         d="m 292.96469,311.30166 c 16.43136,17.04244 57.13795,15.75842 74.58242,1.14687"
         style="fill:none;fill-rule:evenodd;stroke:#000000;stroke-width:2.27011538;stroke-linecap:butt;stroke-linejoin:miter;stroke-miterlimit:4;stroke-dasharray:none;stroke-opacity:1" /><path
         sodipodi:nodetypes="ccccc"
         inkscape:connector-curvature="0"
         id="path4319"
         d="m 320.56575,323.00135 c 0.26805,-49.09415 12.6987,-80.053 21.10533,-88.69088 10.04188,3.04357 10.94048,2.28378 16.05217,5.55205 -12.23504,16.34951 -22.55018,44.26479 -22.89614,83.42848 0,0 -14.26136,-0.28965 -14.26136,-0.28965"
         style="fill:#c87137;fill-rule:evenodd;stroke:#000000;stroke-width:2.27011538;stroke-linecap:butt;stroke-linejoin:miter;stroke-miterlimit:4;stroke-dasharray:none;stroke-opacity:1" /></g></g></svg>