<?xml version="1.0" encoding="UTF-8" standalone="no"?>
<!-- Created with Inkscape (http://www.inkscape.org/) -->

<svg
   xmlns:dc="http://purl.org/dc/elements/1.1/"
   xmlns:cc="http://creativecommons.org/ns#"
   xmlns:rdf="http://www.w3.org/1999/02/22-rdf-syntax-ns#"
   xmlns:svg="http://www.w3.org/2000/svg"
   xmlns="http://www.w3.org/2000/svg"
   xmlns:xlink="http://www.w3.org/1999/xlink"
   xmlns:sodipodi="http://sodipodi.sourceforge.net/DTD/sodipodi-0.dtd"
   xmlns:inkscape="http://www.inkscape.org/namespaces/inkscape"
   id="svg2"
   sodipodi:docname="openclipart_248_compass_rose.svg"
   viewBox="0 0 140 140"
   sodipodi:version="0.32"
   version="1.0"
   inkscape:output_extension="org.inkscape.output.svg.inkscape"
   inkscape:version="0.91 r13725"
   width="140"
   height="140">
  <defs
     id="defs62" />
  <sodipodi:namedview
     id="base"
     bordercolor="#666666"
     inkscape:pageshadow="2"
     inkscape:window-y="48"
     pagecolor="#ffffff"
     inkscape:window-height="945"
     inkscape:zoom="7.6236412"
     inkscape:window-x="-8"
     borderopacity="1.0"
     inkscape:current-layer="g4870"
     inkscape:cx="16.201568"
     inkscape:cy="64.639664"
     inkscape:window-width="1280"
     inkscape:pageopacity="0.0"
     inkscape:document-units="px"
     showgrid="false"
     fit-margin-top="0"
     fit-margin-left="0"
     fit-margin-right="0"
     fit-margin-bottom="0"
     inkscape:window-maximized="1"
     inkscape:snap-center="true" />
  <g
     id="layer1"
     inkscape:label="Trace"
     inkscape:groupmode="layer"
     transform="translate(-127.83,-604.24)">
    <g
       id="layer4"
       inkscape:label="Arrows"
       inkscape:groupmode="layer" />
    <g
       id="layer5"
       inkscape:label="Scale"
       inkscape:groupmode="layer" />
    <g
       id="layer3"
       inkscape:label="Arms"
       inkscape:groupmode="layer" />
    <g
       id="layer6"
       inkscape:label="Seal"
       inkscape:groupmode="layer" />
    <g
       id="layer7"
       style="display:none"
       inkscape:label="Letters"
       inkscape:groupmode="layer">
      <text
         id="text12798"
         style="font-weight:bold;font-size:28px;line-height:100%;font-family:'URW Chancery L';text-align:center;text-anchor:middle;display:inline;fill:#000000"
         xml:space="preserve"
         y="632.25415"
         x="192.52922"
         sodipodi:linespacing="100%"><tspan
           id="tspan12800"
           sodipodi:role="line"
           x="192.52922"
           y="632.25415">N</tspan></text>
      <text
         id="text12805"
         style="font-weight:bold;font-size:28px;line-height:100%;font-family:'URW Chancery L';text-align:center;text-anchor:middle;display:inline;fill:#000000"
         sodipodi:linespacing="100%"
         y="742.25415"
         x="192.52922"
         xml:space="preserve"><tspan
           id="tspan12807"
           y="742.25415"
           x="192.52922"
           sodipodi:role="line">S</tspan></text>
      <text
         id="text12809"
         style="font-weight:bold;font-size:28px;line-height:100%;font-family:'URW Chancery L';text-align:center;text-anchor:middle;display:inline;fill:#000000"
         xml:space="preserve"
         y="687.5965"
         x="137.24911"
         sodipodi:linespacing="100%"><tspan
           id="tspan12811"
           sodipodi:role="line"
           x="137.24911"
           y="687.5965">W</tspan></text>
      <text
         id="text12813"
         style="font-weight:bold;font-size:28px;line-height:100%;font-family:'URW Chancery L';text-align:center;text-anchor:middle;display:inline;fill:#000000"
         sodipodi:linespacing="100%"
         y="687.5965"
         x="247.24911"
         xml:space="preserve"><tspan
           id="tspan12815"
           y="687.5965"
           x="247.24911"
           sodipodi:role="line">E</tspan></text>
    </g>
    <g
       id="g4881"
       style="display:none"
       inkscape:label="Letter-Path-PT"
       inkscape:groupmode="layer">
      <path
         id="text4883"
         style="display:inline;fill:#000000"
         d="m 183.86,632.25 c 0.76,0.06 1.15,0.09 1.54,0.09 1.2,0 1.96,-0.17 2.69,-0.62 1.37,-0.81 2.77,-2.83 3.67,-5.18 0.44,-1.2 0.61,-1.82 1.82,-6.66 0.7,2.99 0.72,3.05 1.03,4.34 0.81,3.47 1.49,5.51 2.44,7.42 1.71,3.47 4.17,5.18 7.47,5.18 1.43,0 2.44,-0.25 3.7,-0.98 l -0.67,-2.49 c -0.39,0.92 -0.59,1.31 -0.95,1.73 -0.51,0.62 -1.21,0.98 -1.91,0.98 -1.76,0 -3.39,-1.37 -4.81,-4.09 0.47,-2.4 0.72,-3.5 1.42,-6.44 1.21,-4.87 1.82,-6.88 2.72,-8.73 0.59,-1.18 1.26,-1.63 2.55,-1.63 0.19,0 0.36,0 0.75,0.06 l 1.04,-1.88 c -0.34,-0.02 -0.64,-0.05 -0.87,-0.05 -1.17,0 -2.43,0.81 -3.89,2.52 -1.34,1.57 -1.85,2.99 -3.22,9.04 -0.28,1.32 -0.59,2.63 -0.9,3.98 -0.02,0.14 -0.16,0.73 -0.42,1.59 -1.34,-2.68 -1.7,-3.78 -4.67,-14.86 l -0.95,0.86 c -0.68,-0.05 -1.04,-0.08 -1.54,-0.08 -1.68,0 -2.69,0.31 -3.7,1.09 -1.79,1.4 -3.02,3.42 -3.02,4.96 0,0.7 0.19,1.43 0.7,2.46 l 1.93,-1.31 c -0.7,-1.49 -0.9,-2.13 -0.9,-2.83 0,-0.84 0.48,-1.6 1.26,-2.02 0.67,-0.36 1.35,-0.47 2.61,-0.47 0.58,0 1.09,0 2.15,0.05 -1.31,5.63 -2.38,9.16 -3.3,10.81 -0.59,1.04 -1.21,1.34 -2.69,1.34 -0.53,0 -0.95,-0.02 -1.74,-0.11 l -1.34,1.93"
         inkscape:connector-curvature="0" />
      <path
         id="text4887"
         style="display:inline;fill:#000000"
         d="m 187.31,739.4 -1.23,2.91 c 0.98,1.32 2.29,1.93 4.11,1.93 4.29,0 8.49,-3.5 8.49,-7.05 0,-1.15 -0.45,-1.74 -2.52,-3.36 -2.05,-1.6 -2.38,-2.08 -2.38,-3.28 0,-1.82 1.37,-3.39 3.02,-3.39 1.18,0 1.6,0.51 1.9,2.3 l 1.85,-1.32 c -0.17,-1.54 -1.01,-2.29 -2.49,-2.29 -2.88,0 -6.16,3.19 -6.16,5.96 0,1.26 0.59,2.18 2.21,3.44 1.91,1.52 2.41,2.27 2.41,3.56 0,2.18 -2.1,4.12 -4.54,4.12 -1.2,0 -2.43,-0.54 -3.19,-1.38 -0.59,-0.64 -0.81,-1.23 -1.03,-2.46 l -0.45,0.31"
         inkscape:connector-curvature="0" />
      <path
         id="text4891"
         style="display:inline;fill:#000000"
         d="m 142.49,671.05 c -2.32,0 -5.29,1.17 -7.22,2.83 -2.24,1.96 -3.5,5.06 -3.5,8.59 0,3.59 1.65,5.49 4.76,5.49 2.54,0 5.34,-1.2 7.44,-3.22 2.02,-1.96 3.14,-4.87 3.14,-8.23 0,-3.53 -1.62,-5.46 -4.62,-5.46 m -1.62,1.09 c 2.49,0 3.94,1.96 3.94,5.21 0,2.13 -0.58,4.53 -1.48,6.13 -1.2,2.13 -3.11,3.36 -5.18,3.36 -2.58,0 -4.09,-2.02 -4.09,-5.46 0,-5.18 3,-9.24 6.81,-9.24"
         inkscape:connector-curvature="0" />
      <path
         id="text4895"
         style="display:inline;fill:#000000"
         d="m 254.02,671.52 c -0.56,-0.05 -0.84,-0.08 -1.23,-0.08 -0.53,0 -1.01,0.06 -1.48,0.17 -0.76,0.19 -2.1,1.15 -3.22,2.27 -1.37,1.4 -1.85,2.68 -2.94,7.89 -0.76,3.59 -1.49,4.62 -3.25,4.62 -0.22,0 -0.56,0 -0.87,-0.03 -0.39,0.4 -0.56,0.59 -0.98,1.12 1.35,-0.05 2.05,-0.08 2.75,-0.08 0.72,0 2.15,0.06 4.28,0.14 4.59,0.22 4.79,0.22 5.52,0.22 1.45,0 2.07,-0.3 2.57,-1.34 0.34,-0.64 1.21,-2.58 1.63,-3.64 l -0.31,-0.53 c -1.82,3.83 -2.13,4 -6.95,3.97 l -5.29,0 0.76,-0.72 c 1.48,-1.38 1.68,-1.74 2.38,-4.65 0.81,-3.47 1.2,-5.01 1.57,-6.11 0.42,-1.17 1.14,-1.7 2.32,-1.7 0.36,0 0.62,0 1.65,0.05 l 1.09,-1.57"
         inkscape:connector-curvature="0" />
    </g>
    <g
       id="g4870"
       inkscape:label="Letter-Path"
       inkscape:groupmode="layer">
      <g
         id="g3528"
         inkscape:transform-center-x="3.799565"
         inkscape:transform-center-y="-1.1410015"
         transform="matrix(1.035,0,0,1.035,-6.7953447,-23.559876)">
        <g
           transform="translate(-0.3100409,-0.2698921)"
           id="g3494">
          <g
             id="g6894"
             transform="translate(1.8550409,-5.5651079)">
            <g
               id="g6782">
              <path
                 id="path5809"
                 sodipodi:nodetypes="cccc"
                 style="fill:#fb0000;fill-rule:evenodd;stroke:#000000;stroke-width:0.9661836"
                 d="m 153.97,679.31 22.55,5.38 0,-10.76 -22.55,5.38 z"
                 inkscape:connector-curvature="0" />
            </g>
            <use
               id="use6786"
               xlink:href="#g6782"
               transform="matrix(0,1,-1,0,876.36,483.79)"
               height="1052.3622"
               width="744.09448"
               y="0"
               x="0" />
            <use
               id="use6788"
               xlink:href="#g6782"
               transform="matrix(-1,0,0,-1,392.57,1360.2)"
               height="1052.3622"
               width="744.09448"
               y="0"
               x="0" />
            <use
               id="use6794"
               xlink:href="#g6782"
               transform="matrix(0,-1,1,0,-483.79,876.36)"
               height="1052.3622"
               width="744.09448"
               y="0"
               x="0" />
          </g>
          <circle
             id="path10831"
             style="color:#000000;fill:#ffffff;fill-rule:evenodd"
             cx="198.14076"
             cy="674.51135"
             r="23.558968" />
          <g
             id="g8877"
             transform="translate(1.8550409,-5.5651079)">
            <path
               id="path7898"
               style="fill:none;stroke:#5ab206;stroke-width:0.9661836px"
               d="m 174.35,689.16 43.87,-18.17"
               inkscape:connector-curvature="0" />
            <use
               id="use8871"
               xlink:href="#path7898"
               transform="matrix(0.70711,-0.70711,0.70711,0.70711,-423.4,337.98)"
               height="1052.3622"
               width="744.09448"
               y="0"
               x="0" />
            <use
               id="use8873"
               xlink:href="#use8871"
               transform="matrix(0.70711,-0.70711,0.70711,0.70711,-423.4,337.98)"
               height="1052.3622"
               width="744.09448"
               y="0"
               x="0" />
            <use
               id="use8875"
               xlink:href="#use8873"
               transform="matrix(0.70711,-0.70711,0.70711,0.70711,-423.4,337.98)"
               height="1052.3622"
               width="744.09448"
               y="0"
               x="0" />
          </g>
          <g
             id="g8883"
             transform="matrix(0.83147,-0.55557,0.55557,0.83147,-342.89495,218.0949)">
            <path
               id="path8885"
               style="fill:none;stroke:#fce94f;stroke-width:0.9661836px"
               d="m 174.35,689.16 43.87,-18.17"
               inkscape:connector-curvature="0" />
            <use
               id="use8887"
               xlink:href="#path8885"
               transform="matrix(0.70711,-0.70711,0.70711,0.70711,-423.4,337.98)"
               height="1052.3622"
               width="744.09448"
               y="0"
               x="0" />
            <use
               id="use8889"
               xlink:href="#use8887"
               transform="matrix(0.70711,-0.70711,0.70711,0.70711,-423.4,337.98)"
               height="1052.3622"
               width="744.09448"
               y="0"
               x="0" />
            <use
               id="use8891"
               xlink:href="#use8889"
               transform="matrix(0.70711,-0.70711,0.70711,0.70711,-423.4,337.98)"
               height="1052.3622"
               width="744.09448"
               y="0"
               x="0" />
          </g>
          <use
             id="use11802"
             xlink:href="#g8883"
             transform="matrix(0.92388,-0.38268,0.38268,0.92388,-243.03912,127.16628)"
             height="1052.3622"
             width="744.09448"
             y="0"
             x="0" />
          <circle
             id="path6921"
             style="color:#000000;fill:none;stroke:#000000;stroke-width:0.9661836;stroke-linecap:round"
             cx="198.14076"
             cy="674.51135"
             r="23.558968" />
          <circle
             id="path7896"
             style="color:#000000;fill:none;stroke:#000000;stroke-width:0.9661836;stroke-linecap:round"
             cx="198.14076"
             cy="674.51135"
             r="14.654791" />
          <g
             id="g6844"
             transform="translate(1.8550409,-5.5651079)">
            <g
               id="g6799"
               transform="translate(7.2015e-6,-9.744e-6)">
              <path
                 id="path6803"
                 sodipodi:nodetypes="cccc"
                 style="fill:#fb0000;fill-rule:evenodd;stroke:#000000;stroke-width:0.9661836px"
                 d="m 180.28,662.99 16.79,11.55 -5.25,5.24 -11.54,-16.79 z"
                 inkscape:connector-curvature="0" />
              <path
                 id="path6807"
                 style="fill:none;stroke:#000000;stroke-width:0.9661836px"
                 d="m 180.54,663.26 17.58,17.57"
                 inkscape:connector-curvature="0" />
              <path
                 id="path6797"
                 sodipodi:nodetypes="ccccc"
                 style="fill:#0000a9;fill-rule:evenodd;stroke:#000000;stroke-width:0.9661836px"
                 d="m 171.48,654.19 8.16,12.25 3.53,-0.56 0.56,-3.52 -12.25,-8.17 z"
                 inkscape:connector-curvature="0" />
              <path
                 id="path6811"
                 sodipodi:nodetypes="cccc"
                 style="fill:#0000a9;fill-rule:evenodd;stroke:#000000;stroke-width:0.9661836px"
                 d="m 193.29,675.27 c 5.2,-2.96 5.2,11.05 0,8.08 -5.19,-2.96 -37.47,-4.08 -37.47,-4.04 0,0.04 32.28,-1.07 37.47,-4.04 z"
                 inkscape:connector-curvature="0" />
            </g>
            <use
               id="use6837"
               xlink:href="#g6799"
               transform="matrix(0,1,-1,0,876.36,483.79)"
               height="1052.3622"
               width="744.09448"
               y="0"
               x="0" />
            <use
               id="use6839"
               xlink:href="#g6799"
               transform="matrix(-1,0,0,-1,392.57,1360.2)"
               height="1052.3622"
               width="744.09448"
               y="0"
               x="0" />
            <use
               id="use6841"
               xlink:href="#g6799"
               transform="matrix(0,-1,1,0,-483.79,876.36)"
               height="1052.3622"
               width="744.09448"
               y="0"
               x="0" />
          </g>
          <path
             id="path11807"
             style="color:#000000;fill:#edd400;fill-rule:evenodd;stroke:#2e3436;stroke-width:0.4830918;stroke-linecap:round"
             sodipodi:type="star"
             sodipodi:sides="20"
             sodipodi:r1="7.2552156"
             sodipodi:r2="5.622745"
             sodipodi:arg1="1.0471976"
             sodipodi:arg2="1.2042772"
             inkscape:randomized="0"
             sodipodi:cy="674.51135"
             sodipodi:cx="198.14078"
             inkscape:rounded="0"
             inkscape:flatsided="false"
             d="m 201.76839,680.79455 -1.6126,-1.03391 -0.50657,1.84738 -1.21417,-1.48163 -1.05265,1.60043 -0.6969,-1.78431 -1.49568,1.19681 -0.11141,-1.91234 -1.79232,0.67605 0.48499,-1.85317 -1.9135,0.0891 1.03391,-1.6126 -1.84738,-0.50656 1.48163,-1.21418 -1.60043,-1.05264 1.78431,-0.6969 -1.19681,-1.49569 1.91234,-0.1114 -0.67605,-1.79232 1.85317,0.48499 -0.0891,-1.91351 1.6126,1.03392 0.50656,-1.84739 1.21418,1.48163 1.05264,-1.60043 0.6969,1.78432 1.49569,-1.19682 0.1114,1.91234 1.79232,-0.67604 -0.48499,1.85316 1.91351,-0.0891 -1.03392,1.61259 1.84739,0.50657 -1.48163,1.21417 1.60043,1.05265 -1.78432,0.6969 1.19682,1.49568 -1.91234,0.11141 0.67604,1.79232 -1.85316,-0.48499 z" />
          <path
             id="path12778"
             style="color:#000000;fill:#edd400;fill-rule:evenodd;stroke:#2e3436;stroke-width:0.48309749;stroke-linecap:round"
             sodipodi:type="star"
             d="m 199.90609,677.56197 -0.78343,-0.5023 -0.24611,0.8975 -0.58986,-0.71981 -0.5114,0.77752 -0.33857,-0.86686 -0.72663,0.58144 -0.0541,-0.92905 -0.87074,0.32843 0.23562,-0.9003 -0.92962,0.0433 0.5023,-0.78343 -0.8975,-0.2461 0.7198,-0.58987 -0.77752,-0.51139 0.86686,-0.33857 -0.58144,-0.72664 0.92905,-0.0541 -0.32843,-0.87074 0.9003,0.23562 -0.0433,-0.92962 0.78343,0.50229 0.2461,-0.89749 0.58987,0.7198 0.5114,-0.77752 0.33856,0.86686 0.72664,-0.58144 0.0541,0.92905 0.87075,-0.32843 -0.23562,0.9003 0.92962,-0.0433 -0.5023,0.78343 0.8975,0.2461 -0.71981,0.58987 0.77752,0.5114 -0.86685,0.33856 0.58143,0.72664 -0.92905,0.0541 0.32844,0.87074 -0.90031,-0.23561 z"
             sodipodi:r1="3.524729"
             inkscape:flatsided="false"
             sodipodi:arg2="1.2042772"
             sodipodi:arg1="1.0471976"
             inkscape:randomized="0"
             sodipodi:cy="674.50946"
             sodipodi:cx="198.14372"
             inkscape:rounded="0"
             sodipodi:r2="2.731642"
             sodipodi:sides="20" />
          <rect
             id="rect12780"
             style="color:#000000;fill:#edd400;fill-rule:evenodd;stroke:#2e3436;stroke-width:0.4830918;stroke-linecap:round"
             height="2.2260001"
             width="2.2260001"
             y="673.3949"
             x="197.02502" />
        </g>
        <path
           inkscape:connector-curvature="0"
           d="m 186.10856,627.20958 c 0.76,0.06 1.15,0.09 1.54,0.09 1.2,0 1.96,-0.17 2.69,-0.62 1.37,-0.81 2.77,-2.83 3.67,-5.18 0.44,-1.2 0.61,-1.82 1.82,-6.66 0.7,2.99 0.72,3.05 1.03,4.34 0.81,3.47 1.49,5.51 2.44,7.42 1.71,3.47 4.17,5.18 7.47,5.18 1.43,0 2.44,-0.25 3.7,-0.98 l -0.67,-2.49 c -0.39,0.92 -0.59,1.31 -0.95,1.73 -0.51,0.62 -1.21,0.98 -1.91,0.98 -1.76,0 -3.39,-1.37 -4.81,-4.09 0.47,-2.4 0.72,-3.5 1.42,-6.44 1.21,-4.87 1.82,-6.88 2.72,-8.73 0.59,-1.18 1.26,-1.63 2.55,-1.63 0.19,0 0.36,0 0.75,0.06 l 1.04,-1.88 c -0.34,-0.02 -0.64,-0.05 -0.87,-0.05 -1.17,0 -2.43,0.81 -3.89,2.52 -1.34,1.57 -1.85,2.99 -3.22,9.04 -0.28,1.32 -0.59,2.63 -0.9,3.98 -0.02,0.14 -0.16,0.73 -0.42,1.59 -1.34,-2.68 -1.7,-3.78 -4.67,-14.86 l -0.95,0.86 c -0.68,-0.05 -1.04,-0.08 -1.54,-0.08 -1.68,0 -2.69,0.31 -3.7,1.09 -1.79,1.4 -3.02,3.42 -3.02,4.96 0,0.7 0.19,1.43 0.7,2.46 l 1.93,-1.31 c -0.7,-1.49 -0.9,-2.13 -0.9,-2.83 0,-0.84 0.48,-1.6 1.26,-2.02 0.67,-0.36 1.35,-0.47 2.61,-0.47 0.58,0 1.09,0 2.15,0.05 -1.31,5.63 -2.38,9.16 -3.3,10.81 -0.59,1.04 -1.21,1.34 -2.69,1.34 -0.53,0 -0.95,-0.02 -1.74,-0.11 l -1.34,1.93"
           style="fill:#000000"
           id="text4872" />
        <path
           inkscape:connector-curvature="0"
           d="m 188.5092,733.17905 -1.23,2.91 c 0.98,1.32 2.29,1.93 4.11,1.93 4.29,0 8.49,-3.5 8.49,-7.05 0,-1.15 -0.45,-1.74 -2.52,-3.36 -2.05,-1.6 -2.38,-2.08 -2.38,-3.28 0,-1.82 1.37,-3.39 3.02,-3.39 1.18,0 1.6,0.51 1.9,2.3 l 1.85,-1.32 c -0.17,-1.54 -1.01,-2.29 -2.49,-2.29 -2.88,0 -6.16,3.19 -6.16,5.96 0,1.26 0.59,2.18 2.21,3.44 1.91,1.52 2.41,2.27 2.41,3.56 0,2.18 -2.1,4.12 -4.54,4.12 -1.2,0 -2.43,-0.54 -3.19,-1.38 -0.59,-0.64 -0.81,-1.23 -1.03,-2.46 l -0.45,0.31"
           style="fill:#000000"
           id="text4876" />
        <path
           inkscape:connector-curvature="0"
           d="m 136.6109,681.0267 c 4.12,-5.93 5.24,-7.56 8.4,-12.35 -0.05,3.36 -0.36,10.36 -0.61,12.91 l 1.79,-0.59 c 0.95,-1.45 1.29,-1.93 3.08,-4.14 5.29,-6.5 7.14,-9.69 7.14,-12.43 0,-0.76 -0.11,-1.21 -0.42,-1.82 -0.39,-0.23 -0.48,-0.25 -1.12,-0.45 -0.79,0.36 -1.12,0.56 -1.79,1.15 0.75,0.78 1.03,1.51 1.03,2.66 0,1.23 -0.47,2.77 -1.34,4.48 -1.09,2.1 -2.63,4.2 -6.02,8.15 0.08,-1.29 0.14,-2.16 0.14,-2.47 l 0.17,-3.95 c 0.05,-1.34 0.14,-2.99 0.25,-4.92 0.05,-0.73 0.11,-1.46 0.14,-2.19 l -1.63,0.65 c -1.28,2.18 -6.16,9.4 -8.26,12.26 0.31,-2.27 1.4,-8.43 2.08,-11.79 0.58,-0.19 0.92,-0.39 1.45,-0.89 -5.43,0.05 -5.77,0.05 -6.77,0.39 -2.41,0.78 -3.98,2.71 -3.98,4.93 0,0.92 0.22,1.7 0.7,2.52 l 2.1,-1.32 c -0.64,-0.98 -0.92,-1.79 -0.92,-2.74 0,-1.15 0.56,-2.02 1.59,-2.38 0.67,-0.26 1.35,-0.31 3.45,-0.34 -0.31,2.38 -0.96,6.36 -2.47,15.23 l 1.82,-0.56"
           style="fill:#000000"
           id="text4880" />
        <path
           inkscape:connector-curvature="0"
           d="m 249.39451,675.00895 1.59,-6.36 0.87,0 c 1.18,-0.05 2.05,-0.08 2.21,-0.08 1.1,0 1.29,0.2 2.05,2.04 l 1.85,-1.84 c -0.09,-0.62 -0.31,-0.93 -0.79,-1.1 l -5.99,0.12 0.17,-0.59 -1.96,0.59 c -2.69,0.02 -4.4,0.56 -5.99,1.82 -1.4,1.12 -2.02,2.24 -2.02,3.69 0,0.73 0.11,1.29 0.5,2.27 l 2.02,-1.34 c -0.25,-0.9 -0.36,-1.63 -0.36,-2.33 0,-2.18 1.56,-3.08 5.37,-3.19 l -1.57,6.3 c -0.47,0.48 -0.61,0.64 -1.09,1.2 l 0.79,0 c -0.12,0.42 -0.2,0.79 -0.31,1.12 -1.07,4.32 -1.37,4.79 -3.67,5.35 l -1.06,0.93 c 0.78,0.02 1.37,0.02 1.56,0.02 l 2.52,0.03 c 0.84,0 1.6,0.03 2.24,0.06 3.39,0.11 3.42,0.11 4.62,0.11 1.46,0 1.85,-0.17 3.11,-1.32 1.29,-1.14 1.77,-1.82 1.77,-2.46 0,-0.14 -0.03,-0.36 -0.12,-0.64 l -2.12,0.78 c 0.08,0.59 0.11,0.81 0.11,1.06 0,1.07 -0.37,1.21 -3.05,1.21 l -7.28,0 c 2.71,-2.49 2.74,-2.55 3.75,-6.39 1.43,-0.08 1.59,-0.08 2.27,-0.14 0.61,-0.02 1.03,-0.05 1.2,-0.05 0.11,-0.03 0.42,-0.03 0.76,-0.06 0.5,-0.36 0.56,-0.42 1.06,-0.81 l -5.01,0"
           style="fill:#000000"
           id="text4884" />
      </g>
    </g>
  </g>
  <metadata
     id="metadata60">
    <rdf:RDF>
      <cc:Work>
        <dc:format>image/svg+xml</dc:format>
        <dc:type
           rdf:resource="http://purl.org/dc/dcmitype/StillImage" />
        <cc:license
           rdf:resource="http://creativecommons.org/publicdomain/zero/1.0/" />
        <dc:publisher>
          <cc:Agent
             rdf:about="http://openclipart.org/">
            <dc:title>Openclipart</dc:title>
          </cc:Agent>
        </dc:publisher>
        <dc:title>Compass rose</dc:title>
        <dc:date>2007-10-29T14:40:47</dc:date>
        <dc:description>A traditional compass rose.</dc:description>
        <dc:source>https://openclipart.org/detail/7449/compass-rose-by-freedo</dc:source>
        <dc:creator>
          <cc:Agent>
            <dc:title>freedo</dc:title>
          </cc:Agent>
        </dc:creator>
        <dc:subject>
          <rdf:Bag>
            <rdf:li>compass</rdf:li>
            <rdf:li>direction</rdf:li>
            <rdf:li>east</rdf:li>
            <rdf:li>map</rdf:li>
            <rdf:li>north</rdf:li>
            <rdf:li>orientation</rdf:li>
            <rdf:li>rose</rdf:li>
            <rdf:li>south</rdf:li>
            <rdf:li>west</rdf:li>
          </rdf:Bag>
        </dc:subject>
      </cc:Work>
      <cc:License
         rdf:about="http://creativecommons.org/publicdomain/zero/1.0/">
        <cc:permits
           rdf:resource="http://creativecommons.org/ns#Reproduction" />
        <cc:permits
           rdf:resource="http://creativecommons.org/ns#Distribution" />
        <cc:permits
           rdf:resource="http://creativecommons.org/ns#DerivativeWorks" />
      </cc:License>
    </rdf:RDF>
  </metadata>
</svg>
