<?xml version="1.0" encoding="UTF-8" standalone="no"?>
<!-- Created with Inkscape (http://www.inkscape.org/) -->

<svg
   xmlns:dc="http://purl.org/dc/elements/1.1/"
   xmlns:cc="http://creativecommons.org/ns#"
   xmlns:rdf="http://www.w3.org/1999/02/22-rdf-syntax-ns#"
   xmlns:svg="http://www.w3.org/2000/svg"
   xmlns="http://www.w3.org/2000/svg"
   xmlns:sodipodi="http://sodipodi.sourceforge.net/DTD/sodipodi-0.dtd"
   xmlns:inkscape="http://www.inkscape.org/namespaces/inkscape"
   id="svg2"
   viewBox="0 0 22.028 22.028"
   version="1.1"
   inkscape:version="0.91 r13725"
   sodipodi:docname="openclipart_134_mouse_pointer.svg"
   width="22.028"
   height="22.028">
  <defs
     id="defs11" />
  <sodipodi:namedview
     pagecolor="#ffffff"
     bordercolor="#666666"
     borderopacity="1"
     objecttolerance="10"
     gridtolerance="10"
     guidetolerance="10"
     inkscape:pageopacity="0"
     inkscape:pageshadow="2"
     inkscape:window-width="1280"
     inkscape:window-height="945"
     id="namedview9"
     showgrid="false"
     inkscape:zoom="10.713637"
     inkscape:cx="8.5"
     inkscape:cy="11.014"
     inkscape:window-x="-8"
     inkscape:window-y="48"
     inkscape:window-maximized="1"
     inkscape:current-layer="svg2" />
  <g
     id="layer1"
     transform="translate(2.5138455,-722.07)">
    <g
       id="g1563"
       transform="matrix(0.23944,0,0,0.23944,94.337,797.27)">
      <path
         id="path1565"
         style="fill:#fefefe"
         d="m -368.99,-226.1 0,-9 -4,0 0,-8 -4,0 0,-8 -4,0 0,-9 -5,0 0,-4 -4,0 0,-8 9,0 0,4 4,0 0,12 4,0 0,-54 8,0 0,38 4,0 0,-17 9,0 0,17 4,0 0,-13 8,0 0,17 4,0 0,-13 5,0 0,5 4,0 0,29 -4,0 0,12 -5,0 0,9 -33,0 z"
         inkscape:connector-curvature="0" />
      <path
         id="path1567"
         style="fill:#000000"
         d="m -372.99,-222.1 0,-13 -4,0 0,-8 -4,0 0,-8 -5,0 0,-9 -4,0 0,-4 -4,0 0,-12 13,0 0,4 4,0 0,-38 4,0 0,-4 8,0 0,4 4,0 0,17 9,0 0,4 12,0 0,4 9,0 0,4 4,0 0,5 4,0 0,29 -4,0 0,12 -4,0 0,13 -42,0 z m 37,-4 0,-9 5,0 0,-12 4,0 0,-29 -4,0 0,-5 -5,0 0,13 -4,0 0,-17 -8,0 0,13 -4,0 0,-17 -9,0 0,17 -4,0 0,-38 -8,0 0,54 -4,0 0,-12 -4,0 0,-4 -9,0 0,8 4,0 0,4 5,0 0,9 4,0 0,8 4,0 0,8 4,0 0,9 33,0 z"
         inkscape:connector-curvature="0" />
    </g>
  </g>
  <metadata
     id="metadata7">
    <rdf:RDF>
      <cc:Work>
        <dc:format>image/svg+xml</dc:format>
        <dc:type
           rdf:resource="http://purl.org/dc/dcmitype/StillImage" />
        <cc:license
           rdf:resource="http://creativecommons.org/publicdomain/zero/1.0/" />
        <dc:publisher>
          <cc:Agent
             rdf:about="http://openclipart.org/">
            <dc:title>Openclipart</dc:title>
          </cc:Agent>
        </dc:publisher>
        <dc:title>Mouse pointer</dc:title>
        <dc:date>2011-04-06T19:30:10</dc:date>
        <dc:description>Simple mouse pointer for web designers :)</dc:description>
        <dc:source>https://openclipart.org/detail/131491/mouse-pointer-by-user9-131491</dc:source>
        <dc:creator>
          <cc:Agent>
            <dc:title>user9</dc:title>
          </cc:Agent>
        </dc:creator>
        <dc:subject>
          <rdf:Bag>
            <rdf:li>cursor</rdf:li>
            <rdf:li>finger</rdf:li>
            <rdf:li>hand</rdf:li>
            <rdf:li>hyperlink</rdf:li>
            <rdf:li>link</rdf:li>
            <rdf:li>mouse</rdf:li>
            <rdf:li>pointer</rdf:li>
            <rdf:li>pointing</rdf:li>
            <rdf:li>web pointer</rdf:li>
          </rdf:Bag>
        </dc:subject>
      </cc:Work>
      <cc:License
         rdf:about="http://creativecommons.org/publicdomain/zero/1.0/">
        <cc:permits
           rdf:resource="http://creativecommons.org/ns#Reproduction" />
        <cc:permits
           rdf:resource="http://creativecommons.org/ns#Distribution" />
        <cc:permits
           rdf:resource="http://creativecommons.org/ns#DerivativeWorks" />
      </cc:License>
    </rdf:RDF>
  </metadata>
</svg>
