<?xml version="1.0" encoding="UTF-8" standalone="no"?>
<!-- Created with Inkscape (http://www.inkscape.org/) -->

<svg
   xmlns:dc="http://purl.org/dc/elements/1.1/"
   xmlns:cc="http://creativecommons.org/ns#"
   xmlns:rdf="http://www.w3.org/1999/02/22-rdf-syntax-ns#"
   xmlns:svg="http://www.w3.org/2000/svg"
   xmlns="http://www.w3.org/2000/svg"
   xmlns:sodipodi="http://sodipodi.sourceforge.net/DTD/sodipodi-0.dtd"
   xmlns:inkscape="http://www.inkscape.org/namespaces/inkscape"
   id="svg1"
   sodipodi:docname="openclipart_107_chocolate_birthday_cake.svg"
   viewBox="0 0 132.26 132.25999"
   sodipodi:version="0.32"
   version="1.1"
   inkscape:version="0.91 r13725"
   width="132.25999"
   height="132.25999">
  <defs
     id="defs73" />
  <sodipodi:namedview
     id="base"
     bordercolor="#666666"
     inkscape:pageshadow="2"
     inkscape:window-y="48"
     pagecolor="#ffffff"
     inkscape:window-height="945"
     inkscape:window-maximized="1"
     inkscape:zoom="2.8284271"
     inkscape:window-x="-8"
     showgrid="false"
     borderopacity="1.0"
     inkscape:current-layer="svg1"
     inkscape:cx="90.426482"
     inkscape:cy="74.806454"
     inkscape:window-width="1280"
     inkscape:pageopacity="0.0" />
  <path
     id="path850"
     style="fill:#e6b100;fill-rule:evenodd;stroke:#000000;stroke-width:1.41590004pt"
     inkscape:connector-curvature="0"
     d="m 131.38,107.096 c 0,12.47 -29.23,22.59 -65.246,22.59 -36.015,0 -65.245,-10.12 -65.245,-22.59 0,-12.473995 29.23,-22.594995 65.245,-22.594995 36.016,0 65.246,10.121 65.246,22.594995 z" />
  <path
     id="path829"
     inkscape:connector-curvature="0"
     sodipodi:nodetypes="cccccccc"
     style="fill:#441b13;fill-rule:evenodd;stroke:#000000;stroke-width:1.1625pt"
     d="m 66.13,41.411005 c -31.241,0 -56.596,9.066 -56.596,20.235 0,0.519 0.215,39.440995 0.215,39.700995 0,11.17 25.355,20.23 56.596,20.23 31.241,0 56.591,-9.06 56.591,-20.23 l -0.21,-38.927995 0,-0.773 c 0,-11.169 -25.36,-20.235 -56.596,-20.235 z" />
  <path
     id="path833"
     inkscape:connector-curvature="0"
     sodipodi:nodetypes="ccccccccccccccccccc"
     style="fill:#954a3d;fill-rule:evenodd;stroke:#000000;stroke-width:1.31490002pt"
     d="m 7.8119,57.270005 c -0.462,4.154 -4.421,15.395 3.565,13.638 7.971,0.627 -0.124,13.693 8.246,14.206 6.801,0.516 1.069,-10.292 7.242,-7.015 6.294,1.263 5.484,7.472 6.339,11.671 4.158,3.327 5.508,-2.502 4.234,-5.193 3.122,-4.528 11.814,-2.601 16.329,-0.912 2.516,4.586 4.297,14.048 12.239,11.482 5.294,-1.607 7.611,-11.265 13,-12.126 4.851,0.048 5.205,11.751 10.58,6.451 1.46,-4.321 9.3,-12.107 14.1,-6.91 4.83,4.445 12.22,1.106 10.42,-6.527 2.6,-4.517 10.15,1.838 10.17,-10.589 1.16,-5.865 0.21,-11.301 -7.86,-16.027 -4.88,-2.337 -12.13,-3.453 -19.23,-6.361 -7.69,-2.705 -14.92,-4.161 -23.038,-5.298 -14.164,-0.242 -25.948,1.43 -39.862,4.077 -6.57,0.784 -11.245,4.882 -17.236,6.899 -3.774,1.735 -7.654,5.226 -9.238,8.534 z" />
  <path
     id="path835"
     style="fill:#ffffff;fill-opacity:0.8;fill-rule:evenodd"
     inkscape:connector-curvature="0"
     d="m 11.255,63.155005 c 0,5.148 5.118,4.273 8.178,7.061 2.989,1.363 5.006,2.354 8.607,2.354 5.107,0 -0.65,-1.669 -2.151,-2.354 -3.544,0 -9.039,-1.87 -9.039,-5.1 -2.123,-1.935 -2.475,-1.961 -5.595,-1.961 z" />
  <path
     id="path836"
     style="fill:#ffffff;fill-opacity:0.8;fill-rule:evenodd"
     inkscape:connector-curvature="0"
     d="m 40.952,74.140005 c 1.345,2.451 7.798,3.53 13.342,3.53 2.937,1.339 15.494,2.446 15.494,-1.569 0,-3.018 -7.943,-0.785 -9.468,-0.785 -2.708,0 -13.79,-3.515 -15.494,-1.961 -1.658,0 -2.048,0.119 -3.874,0.785 z" />
  <path
     id="path837"
     style="fill:#ffffff;fill-opacity:0.8;fill-rule:evenodd"
     inkscape:connector-curvature="0"
     d="m 78.826,75.316005 c 3.13,2.853 13.67,1.028 18.51,-1.176 1.91,-1.161 9.03,-1.899 9.03,-4.316 1.69,-1.531 -6.2,-0.625 -7.31,0.392 -5.42,0 -13.114,1.177 -19.369,1.177 -2.614,0 -1.311,2.898 -0.861,3.923 z" />
  <path
     id="path838"
     style="fill:#ffffff;fill-opacity:0.8;fill-rule:evenodd"
     inkscape:connector-curvature="0"
     d="m 114.81,70.002005 c 1.44,-1.566 4.78,-5.211 6.26,-8.445 0,-1.358 2.09,-6.032 -0.37,-6.032 -2.07,0 -4.41,3.022 -4.41,5.228 -0.97,1.058 -0.03,6.032 -2.21,6.032 0,3.175 -2.44,3.217 0.73,3.217 z" />
  <path
     id="path839"
     style="fill:#ffffff;fill-opacity:0.8;fill-rule:evenodd"
     inkscape:connector-curvature="0"
     d="m 105.94,48.247005 c -3.47,0 -6.81,-1.732 -10.76,-3.531 -4.74,-1.081 -9.454,-3.138 -14.198,-3.138 0,5.638 8.888,9.092 14.198,6.669 3.98,0 6.41,1.987 10.76,0 z" />
  <path
     id="path840"
     style="fill:#ffffff;fill-opacity:0.8;fill-rule:evenodd"
     inkscape:connector-curvature="0"
     d="m 69.17,41.528005 c -1.264,-0.373 -8.1,-0.864 -12.237,-0.293 -2.653,0.367 -5.26,1.124 -8.021,1.506 -4.19,0.579 -4.512,3.004 -0.038,2.386 4.429,-0.612 8.774,-0.022 13.385,-0.66 2.283,1.533 5.99,-1.487 6.911,-2.939 z" />
  <path
     id="path841"
     style="fill:#ffffff;fill-opacity:0.8;fill-rule:evenodd"
     inkscape:connector-curvature="0"
     d="m 33.635,47.070005 c -1.911,0 -6.761,2.354 -9.898,2.354 -2.158,0 -9.469,1.641 -9.469,3.531 -2.769,2.524 7.705,-1.57 11.621,-1.57 2.268,0 6.455,0.106 6.455,-1.961 1.599,0 1.291,-1.081 1.291,-2.354 z" />
  <path
     id="path842"
     style="fill:#ffffff;fill-opacity:0.8;fill-rule:evenodd"
     inkscape:connector-curvature="0"
     d="m 19.863,60.409005 c 2.589,0 8.043,0.784 12.051,0.784 2.039,-1.858 7.317,0.727 7.317,-3.138 0,-0.814 -9.12,-1.57 -10.33,-1.57 -1.663,0 -6.094,0.847 -9.038,3.924 z" />
  <path
     id="path843"
     style="fill:#ffffff;fill-opacity:0.8;fill-rule:evenodd"
     inkscape:connector-curvature="0"
     d="m 36.218,69.039005 c 3.279,-2.989 5.896,-5.374 9.038,-8.238 1.677,-1.528 6.254,0.288 1.722,2.354 0,2.404 -2.212,4.315 -4.735,4.315 -2.112,1.926 -2.818,1.569 -6.025,1.569 z" />
  <path
     id="path844"
     style="fill:#ffffff;fill-opacity:0.8;fill-rule:evenodd"
     inkscape:connector-curvature="0"
     d="m 40.952,48.639005 c 0,2.256 10.329,2.925 10.329,5.1 3.185,0 1.669,-4.315 -1.291,-4.315 -3.764,0 -5.354,-1.456 -9.038,-0.785 z" />
  <path
     id="path845"
     style="fill:#ffffff;fill-opacity:0.8;fill-rule:evenodd"
     inkscape:connector-curvature="0"
     d="m 74.092,44.716005 c -2.252,2.053 -2.41,7.062 -5.595,7.062 0,4.579 5.595,2.231 5.595,-0.785 1.164,-1.061 2.152,-5.058 0,-6.277 z" />
  <path
     id="path846"
     style="fill:#ffffff;fill-opacity:0.8;fill-rule:evenodd"
     inkscape:connector-curvature="0"
     d="m 67.636,63.155005 c 0,0.864 1.722,5.997 1.722,6.669 3.483,1.588 4.734,-1.319 4.734,-3.923 -3.243,-2.956 0.179,-7.93 -6.456,-2.746 z" />
  <path
     id="path847"
     style="fill:#ffffff;fill-opacity:0.8;fill-rule:evenodd"
     inkscape:connector-curvature="0"
     d="m 108.53,51.385005 c -1.84,0 -14.33,1.799 -15.5,3.923 0,6.228 8.75,0.785 12.91,0.785 2.44,0 2.98,-2.557 2.59,-4.708 z" />
  <path
     id="path848"
     style="fill:#ffffff;fill-opacity:0.8;fill-rule:evenodd"
     inkscape:connector-curvature="0"
     d="m 108.53,64.332005 c -2.79,-2.539 -7.68,-1.962 -11.62,-1.962 -2.94,0 -5.29,2.746 -1.29,2.746 3.41,0 6.1,0.785 9.89,0.785 1.78,0 0.64,0.163 3.02,-1.569 z" />
  <g
     id="g862"
     transform="matrix(1.3772,0,0,1.2554,-103.59,-15.213995)">
    <path
       id="path857"
       inkscape:connector-curvature="0"
       sodipodi:nodetypes="ccccccccc"
       style="fill:#0075ff;fill-rule:evenodd;stroke:#000000;stroke-width:0.71047997pt;stroke-linejoin:round"
       d="m 116.37,29.657 c 1.06,1.838 2.83,0.863 4.76,1.007 1.96,0.165 2.82,-1.11 4.01,-1.503 3.47,2.1 0.4,4.957 1.08,8.575 0.05,2.639 0.47,6.873 0.88,9.674 0.16,2.295 -5.93,2.471 -7.09,1.45 -0.96,-0.584 -1.7,-2.451 -1.1,-4.614 0.16,-2.665 -0.68,-4.053 -1.17,-6.678 0.13,-3.224 -3.39,-4.168 -1.37,-7.911 z" />
    <path
       id="path858"
       inkscape:connector-curvature="0"
       sodipodi:nodetypes="ccccccccc"
       style="fill:#00ffff;fill-rule:evenodd;stroke:#000000;stroke-width:0.71047997pt;stroke-linejoin:round"
       d="m 116.37,29.314 c 0.78,0.214 2.41,0.411 3.19,0.088 0.87,0 2.12,0.265 2.76,-0.264 0.5,0 1.92,-0.176 2.55,-0.176 0.81,0 -0.42,-0.274 -0.42,0.44 -0.59,0 -1.07,0.446 -1.49,0.791 -0.36,0.6 -1.41,0.615 -2.13,0.615 -0.83,0 -1.81,-0.088 -2.65,-0.088 -0.79,0 -1.49,-0.136 -1.81,-1.406 z" />
    <path
       id="path860"
       inkscape:connector-curvature="0"
       sodipodi:nodetypes="ccc"
       style="fill:#ffa800;fill-rule:evenodd;stroke:#000000;stroke-width:0.71047997pt"
       d="m 118.28,13.76 c 1.49,1.669 9.67,12.83 1.49,13.445 -11.05,1.318 -0.53,-9.579 -1.49,-13.445 z" />
    <path
       id="path861"
       inkscape:connector-curvature="0"
       sodipodi:nodetypes="ccc"
       style="fill:#ffff00;fill-rule:evenodd"
       d="m 119.33,18.318 c 0.78,1.042 4.53,8.182 0.25,8.566 -5.77,0.822 0.25,-6.153 -0.25,-8.566 z" />
    <path
       id="path859"
       inkscape:connector-curvature="0"
       sodipodi:nodetypes="ccc"
       style="fill:none;stroke:#000000;stroke-width:0.71047997pt"
       d="m 120.94,30.28 c -1.62,-0.972 -2.27,-2.666 -1.73,-3.582 0.41,-0.998 0.59,-3.252 0.59,-4.657" />
  </g>
  <g
     id="g868"
     transform="matrix(1.3772,0,0,1.2554,-61.495,-1.3226953)">
    <path
       id="path869"
       inkscape:connector-curvature="0"
       sodipodi:nodetypes="ccccccccc"
       style="fill:#0075ff;fill-rule:evenodd;stroke:#000000;stroke-width:0.71047997pt;stroke-linejoin:round"
       d="m 116.37,29.657 c 1.06,1.838 2.83,0.863 4.76,1.007 1.96,0.165 2.82,-1.11 4.01,-1.503 3.47,2.1 0.4,4.957 1.08,8.575 0.05,2.639 0.47,6.873 0.88,9.674 0.16,2.295 -5.93,2.471 -7.09,1.45 -0.96,-0.584 -1.7,-2.451 -1.1,-4.614 0.16,-2.665 -0.68,-4.053 -1.17,-6.678 0.13,-3.224 -3.39,-4.168 -1.37,-7.911 z" />
    <path
       id="path870"
       inkscape:connector-curvature="0"
       sodipodi:nodetypes="ccccccccc"
       style="fill:#00ffff;fill-rule:evenodd;stroke:#000000;stroke-width:0.71047997pt;stroke-linejoin:round"
       d="m 116.37,29.314 c 0.78,0.214 2.41,0.411 3.19,0.088 0.87,0 2.12,0.265 2.76,-0.264 0.5,0 1.92,-0.176 2.55,-0.176 0.81,0 -0.42,-0.274 -0.42,0.44 -0.59,0 -1.07,0.446 -1.49,0.791 -0.36,0.6 -1.41,0.615 -2.13,0.615 -0.83,0 -1.81,-0.088 -2.65,-0.088 -0.79,0 -1.49,-0.136 -1.81,-1.406 z" />
    <path
       id="path871"
       inkscape:connector-curvature="0"
       sodipodi:nodetypes="ccc"
       style="fill:#ffa800;fill-rule:evenodd;stroke:#000000;stroke-width:0.71047997pt"
       d="m 118.28,13.76 c 1.49,1.669 9.67,12.83 1.49,13.445 -11.05,1.318 -0.53,-9.579 -1.49,-13.445 z" />
    <path
       id="path872"
       inkscape:connector-curvature="0"
       sodipodi:nodetypes="ccc"
       style="fill:#ffff00;fill-rule:evenodd"
       d="m 119.33,18.318 c 0.78,1.042 4.53,8.182 0.25,8.566 -5.77,0.822 0.25,-6.153 -0.25,-8.566 z" />
    <path
       id="path873"
       inkscape:connector-curvature="0"
       sodipodi:nodetypes="ccc"
       style="fill:none;stroke:#000000;stroke-width:0.71047997pt"
       d="m 120.94,30.28 c -1.62,-0.972 -2.27,-2.666 -1.73,-3.582 0.41,-0.998 0.59,-3.252 0.59,-4.657" />
  </g>
  <g
     id="g874"
     transform="matrix(-1.3429,0.27842,0.30544,1.2241,171.67,-33.990995)">
    <path
       id="path875"
       inkscape:connector-curvature="0"
       sodipodi:nodetypes="ccccccccc"
       style="fill:#0075ff;fill-rule:evenodd;stroke:#000000;stroke-width:0.71047997pt;stroke-linejoin:round"
       d="m 116.37,29.657 c 1.06,1.838 2.83,0.863 4.76,1.007 1.96,0.165 2.82,-1.11 4.01,-1.503 3.47,2.1 0.4,4.957 1.08,8.575 0.05,2.639 0.47,6.873 0.88,9.674 0.16,2.295 -5.93,2.471 -7.09,1.45 -0.96,-0.584 -1.7,-2.451 -1.1,-4.614 0.16,-2.665 -0.68,-4.053 -1.17,-6.678 0.13,-3.224 -3.39,-4.168 -1.37,-7.911 z" />
    <path
       id="path876"
       inkscape:connector-curvature="0"
       sodipodi:nodetypes="ccccccccc"
       style="fill:#00ffff;fill-rule:evenodd;stroke:#000000;stroke-width:0.71047997pt;stroke-linejoin:round"
       d="m 116.37,29.314 c 0.78,0.214 2.41,0.411 3.19,0.088 0.87,0 2.12,0.265 2.76,-0.264 0.5,0 1.92,-0.176 2.55,-0.176 0.81,0 -0.42,-0.274 -0.42,0.44 -0.59,0 -1.07,0.446 -1.49,0.791 -0.36,0.6 -1.41,0.615 -2.13,0.615 -0.83,0 -1.81,-0.088 -2.65,-0.088 -0.79,0 -1.49,-0.136 -1.81,-1.406 z" />
    <path
       id="path877"
       inkscape:connector-curvature="0"
       sodipodi:nodetypes="ccc"
       style="fill:#ffa800;fill-rule:evenodd;stroke:#000000;stroke-width:0.71047997pt"
       d="m 118.28,13.76 c 1.49,1.669 9.67,12.83 1.49,13.445 -11.05,1.318 -0.53,-9.579 -1.49,-13.445 z" />
    <path
       id="path878"
       inkscape:connector-curvature="0"
       sodipodi:nodetypes="ccc"
       style="fill:#ffff00;fill-rule:evenodd"
       d="m 119.33,18.318 c 0.78,1.042 4.53,8.182 0.25,8.566 -5.77,0.822 0.25,-6.153 -0.25,-8.566 z" />
    <path
       id="path879"
       inkscape:connector-curvature="0"
       sodipodi:nodetypes="ccc"
       style="fill:none;stroke:#000000;stroke-width:0.71047997pt"
       d="m 120.94,30.28 c -1.62,-0.972 -2.27,-2.666 -1.73,-3.582 0.41,-0.998 0.59,-3.252 0.59,-4.657" />
  </g>
  <g
     id="g880"
     transform="matrix(-1.3444,0.27245,0.29889,1.2255,199.5,-21.959995)">
    <path
       id="path881"
       inkscape:connector-curvature="0"
       sodipodi:nodetypes="ccccccccc"
       style="fill:#0075ff;fill-rule:evenodd;stroke:#000000;stroke-width:0.71047997pt;stroke-linejoin:round"
       d="m 116.37,29.657 c 1.06,1.838 2.83,0.863 4.76,1.007 1.96,0.165 2.82,-1.11 4.01,-1.503 3.47,2.1 0.4,4.957 1.08,8.575 0.05,2.639 0.47,6.873 0.88,9.674 0.16,2.295 -5.93,2.471 -7.09,1.45 -0.96,-0.584 -1.7,-2.451 -1.1,-4.614 0.16,-2.665 -0.68,-4.053 -1.17,-6.678 0.13,-3.224 -3.39,-4.168 -1.37,-7.911 z" />
    <path
       id="path882"
       inkscape:connector-curvature="0"
       sodipodi:nodetypes="ccccccccc"
       style="fill:#00ffff;fill-rule:evenodd;stroke:#000000;stroke-width:0.71047997pt;stroke-linejoin:round"
       d="m 116.37,29.314 c 0.78,0.214 2.41,0.411 3.19,0.088 0.87,0 2.12,0.265 2.76,-0.264 0.5,0 1.92,-0.176 2.55,-0.176 0.81,0 -0.42,-0.274 -0.42,0.44 -0.59,0 -1.07,0.446 -1.49,0.791 -0.36,0.6 -1.41,0.615 -2.13,0.615 -0.83,0 -1.81,-0.088 -2.65,-0.088 -0.79,0 -1.49,-0.136 -1.81,-1.406 z" />
    <path
       id="path883"
       inkscape:connector-curvature="0"
       sodipodi:nodetypes="ccc"
       style="fill:#ffa800;fill-rule:evenodd;stroke:#000000;stroke-width:0.71047997pt"
       d="m 118.28,13.76 c 1.49,1.669 9.67,12.83 1.49,13.445 -11.05,1.318 -0.53,-9.579 -1.49,-13.445 z" />
    <path
       id="path884"
       inkscape:connector-curvature="0"
       sodipodi:nodetypes="ccc"
       style="fill:#ffff00;fill-rule:evenodd"
       d="m 119.33,18.318 c 0.78,1.042 4.53,8.182 0.25,8.566 -5.77,0.822 0.25,-6.153 -0.25,-8.566 z" />
    <path
       id="path885"
       inkscape:connector-curvature="0"
       sodipodi:nodetypes="ccc"
       style="fill:none;stroke:#000000;stroke-width:0.71047997pt"
       d="m 120.94,30.28 c -1.62,-0.972 -2.27,-2.666 -1.73,-3.582 0.41,-0.998 0.59,-3.252 0.59,-4.657" />
  </g>
  <g
     id="g886"
     transform="matrix(-1.3357,0.30594,0.33563,1.2176,234.19,-27.018995)">
    <path
       id="path887"
       inkscape:connector-curvature="0"
       sodipodi:nodetypes="ccccccccc"
       style="fill:#0075ff;fill-rule:evenodd;stroke:#000000;stroke-width:0.71047997pt;stroke-linejoin:round"
       d="m 116.37,29.657 c 1.06,1.838 2.83,0.863 4.76,1.007 1.96,0.165 2.82,-1.11 4.01,-1.503 3.47,2.1 0.4,4.957 1.08,8.575 0.05,2.639 0.47,6.873 0.88,9.674 0.16,2.295 -5.93,2.471 -7.09,1.45 -0.96,-0.584 -1.7,-2.451 -1.1,-4.614 0.16,-2.665 -0.68,-4.053 -1.17,-6.678 0.13,-3.224 -3.39,-4.168 -1.37,-7.911 z" />
    <path
       id="path888"
       inkscape:connector-curvature="0"
       sodipodi:nodetypes="ccccccccc"
       style="fill:#00ffff;fill-rule:evenodd;stroke:#000000;stroke-width:0.71047997pt;stroke-linejoin:round"
       d="m 116.37,29.314 c 0.78,0.214 2.41,0.411 3.19,0.088 0.87,0 2.12,0.265 2.76,-0.264 0.5,0 1.92,-0.176 2.55,-0.176 0.81,0 -0.42,-0.274 -0.42,0.44 -0.59,0 -1.07,0.446 -1.49,0.791 -0.36,0.6 -1.41,0.615 -2.13,0.615 -0.83,0 -1.81,-0.088 -2.65,-0.088 -0.79,0 -1.49,-0.136 -1.81,-1.406 z" />
    <path
       id="path889"
       inkscape:connector-curvature="0"
       sodipodi:nodetypes="ccc"
       style="fill:#ffa800;fill-rule:evenodd;stroke:#000000;stroke-width:0.71047997pt"
       d="m 118.28,13.76 c 1.49,1.669 9.67,12.83 1.49,13.445 -11.05,1.318 -0.53,-9.579 -1.49,-13.445 z" />
    <path
       id="path890"
       inkscape:connector-curvature="0"
       sodipodi:nodetypes="ccc"
       style="fill:#ffff00;fill-rule:evenodd"
       d="m 119.33,18.318 c 0.78,1.042 4.53,8.182 0.25,8.566 -5.77,0.822 0.25,-6.153 -0.25,-8.566 z" />
    <path
       id="path891"
       inkscape:connector-curvature="0"
       sodipodi:nodetypes="ccc"
       style="fill:none;stroke:#000000;stroke-width:0.71047997pt"
       d="m 120.94,30.28 c -1.62,-0.972 -2.27,-2.666 -1.73,-3.582 0.41,-0.998 0.59,-3.252 0.59,-4.657" />
  </g>
  <path
     id="path901"
     inkscape:connector-curvature="0"
     sodipodi:nodetypes="cccccc"
     style="fill:#ffffff;fill-opacity:0.3;fill-rule:evenodd"
     d="m 57.256,24.062005 c -1.795,2.579 1.96,4.208 2.413,6.553 1.002,2.946 1.401,7.127 1.588,10.195 -0.937,2.098 1.559,7.113 2.533,3.469 0.235,-4.462 -0.964,-10.879 -1.748,-15.244 -0.686,-2.335 -2.112,-4.581 -4.786,-4.973 z" />
  <path
     id="path902"
     inkscape:connector-curvature="0"
     sodipodi:nodetypes="cccccc"
     style="fill:#ffffff;fill-opacity:0.3;fill-rule:evenodd"
     d="m 98.956,37.485005 c -1.79,2.579 1.96,4.208 2.42,6.553 1,2.946 1.4,7.127 1.58,10.195 -0.93,2.098 1.56,7.113 2.54,3.47 0.23,-4.463 -0.97,-10.879 -1.75,-15.245 -0.69,-2.335 -2.11,-4.581 -4.79,-4.973 z" />
  <path
     id="path903"
     inkscape:connector-curvature="0"
     sodipodi:nodetypes="cccccc"
     style="fill:#ffffff;fill-opacity:0.3;fill-rule:evenodd"
     d="m 76.817,48.628005 c -1.794,2.579 1.961,4.207 2.413,6.552 1.003,2.947 1.401,7.128 1.588,10.195 -0.936,2.098 1.56,7.114 2.534,3.47 0.234,-4.463 -0.964,-10.879 -1.749,-15.245 -0.685,-2.335 -2.112,-4.58 -4.786,-4.972 z" />
  <path
     id="path904"
     inkscape:connector-curvature="0"
     sodipodi:nodetypes="cccccc"
     style="fill:#ffffff;fill-opacity:0.3;fill-rule:evenodd"
     d="m 11.777,37.906005 c -1.795,2.579 1.96,4.207 2.413,6.552 1.003,2.947 1.401,7.128 1.588,10.195 -0.937,2.098 1.56,7.114 2.534,3.47 0.234,-4.463 -0.964,-10.879 -1.749,-15.245 -0.685,-2.335 -2.112,-4.58 -4.786,-4.972 z" />
  <path
     id="path905"
     inkscape:connector-curvature="0"
     sodipodi:nodetypes="cccccc"
     style="fill:#ffffff;fill-opacity:0.3;fill-rule:evenodd"
     d="m 39.684,49.679005 c -1.794,2.579 1.961,4.207 2.414,6.553 1.002,2.946 1.401,7.127 1.587,10.195 -0.936,2.097 1.56,7.113 2.534,3.469 0.234,-4.462 -0.964,-10.879 -1.749,-15.244 -0.685,-2.335 -2.112,-4.581 -4.786,-4.973 z" />
  <path
     id="path906"
     inkscape:connector-curvature="0"
     sodipodi:nodetypes="ccccc"
     style="fill:#ffffff;fill-opacity:0.8;fill-rule:evenodd"
     d="m 62.56,94.281005 c 2.05,1.67 7.611,-2.607 7.611,-3.574 0,-1.384 0.923,-1.977 0.923,-3.364 -1.524,-1.389 -3.326,2.733 -5.074,2.733 -1.071,0.976 -4.018,1.661 -3.46,4.205 z" />
  <path
     id="path907"
     inkscape:connector-curvature="0"
     sodipodi:nodetypes="ccccc"
     style="fill:#ffffff;fill-opacity:0.8;fill-rule:evenodd"
     d="m 87.239,90.286005 c 2.257,-1.164 3.497,-4.055 4.617,-6.097 1.41,-1.291 -0.21,-1.051 -1.62,-1.051 -1.5,1.368 -2.986,1.251 -4.381,2.523 0,1.735 -0.481,3.945 1.384,4.625 z" />
  <path
     id="path909"
     inkscape:connector-curvature="0"
     sodipodi:nodetypes="ccccc"
     style="fill:#ffffff;fill-opacity:0.8;fill-rule:evenodd"
     d="m 108,83.769005 c 1.32,-0.402 4.15,-0.643 4.15,-2.313 1.07,-0.975 1.15,-2.439 1.15,-3.784 -1.17,-2.149 -3.43,-0.439 -4.84,0.841 -0.85,1.559 -1.37,4.841 -0.46,5.256 z" />
  <path
     id="path929"
     inkscape:connector-curvature="0"
     sodipodi:nodetypes="ccccc"
     style="fill:#ffffff;fill-opacity:0.8;fill-rule:evenodd"
     d="m 119.53,73.047005 c 1.86,-0.76 2.45,-1.961 2.88,-3.976 0.52,-1.66 0.79,-2.245 -0.86,-1.138 -1.64,0.939 -3.57,2.033 -3.45,3.948 0.04,0.838 0.37,1.527 1.43,1.166 z" />
  <path
     id="path911"
     inkscape:connector-curvature="0"
     sodipodi:nodetypes="ccc"
     style="fill:#ffffff;fill-opacity:0.8;fill-rule:evenodd"
     d="m 33.961,90.076005 c 1.483,0.398 3.882,-0.876 3.229,-3.784 -2.523,0 -3.229,1.673 -3.229,3.784 z" />
  <path
     id="path912"
     inkscape:connector-curvature="0"
     sodipodi:nodetypes="ccccc"
     style="fill:#ffffff;fill-opacity:0.8;fill-rule:evenodd"
     d="m 17.816,83.348005 c 1.616,1.578 3.083,2.026 4.613,-0.841 0,-1.568 0.283,-2.522 -1.614,-2.522 -1.545,0 -2.883,0.839 -3.46,1.892 0,0.654 0.074,0.589 0.461,1.471 z" />
  <path
     id="path913"
     inkscape:connector-curvature="0"
     sodipodi:nodetypes="ccc"
     style="fill:#ffffff;fill-opacity:0.8;fill-rule:evenodd"
     d="m 7.2069,68.211005 c 1.679,1.893 2.768,3.757 2.768,-0.21 -0.16,-2.037 -2.768,-1.961 -2.768,0.21 z" />
  <path
     id="path937"
     inkscape:connector-curvature="0"
     sodipodi:nodetypes="cccccccccccccccccc"
     style="fill:#954a3d;fill-rule:evenodd;stroke:#000000;stroke-width:1.31490002pt"
     d="m 9.2829,86.081005 c 7.169,-0.318 8.955,4.834 15.558,6.786 6.994,0.845 14.444,3.724 20.757,5.002 6.853,1.297996 15.421,2.137995 22.986,1.767996 9.009,-1.059 24.542,-3.392996 30.642,-5.700996 7.02,-2.321 18.02,-7.788 22.93,-11.553 4,-0.087 1.66,5.904 0.24,8.757 0.16,3.749 -1.45,6.903 -6.35,5.641 -5.64,-1.38 -4.15,8.515995 -10.23,5.055995 -5.33,-3.163999 -7.69,2.29 -7.77,6.19 -5.26,2.15 -12.294,6.46 -17.729,2.41 -2.821,-4.75 -12.893,-7.35 -14.119,-0.27 -3.623,5.09 -11.444,3.63 -13.566,-1.54 -4.553,-2.36 -10.087,-1.28 -14.876,-2.95 -2.654,2.75 -9.789,5.19 -9.908,-0.49 -1.778,-5.669999 -13.431,-11.221995 -15.819,-4.47 -6.934,0.74 -5.578,-5.259995 -4.937,-10.983995 -0.282,-1.752 0.078,-3.212 2.191,-3.652 z" />
  <path
     id="path938"
     inkscape:connector-curvature="0"
     sodipodi:nodetypes="ccc"
     style="fill:#ffffff;fill-opacity:0.8;fill-rule:evenodd"
     d="m 7.8229,97.717005 c 1.269,2.909995 2.747,2.939995 6.346,0 0,-2.42 -4.481,1.969996 -6.346,0 z" />
  <path
     id="path939"
     inkscape:connector-curvature="0"
     sodipodi:nodetypes="ccc"
     style="fill:#ffffff;fill-opacity:0.8;fill-rule:evenodd"
     d="m 28.637,105.076 c 1.992,5.8 6.613,1.27 7.869,0.26 0.507,-4.12 -5.363,2.03 -7.869,-0.26 z" />
  <path
     id="path940"
     inkscape:connector-curvature="0"
     sodipodi:nodetypes="cccc"
     style="fill:#ffffff;fill-opacity:0.8;fill-rule:evenodd"
     d="m 55.543,110.156 c 3.554,4.44 9.392,0.97 9.392,-0.76 0,-1.9 0.342,-2.29 -2.031,-2.29 -0.504,4.82 -6.75,2.74 -7.361,3.05 z" />
  <path
     id="path941"
     inkscape:connector-curvature="0"
     sodipodi:nodetypes="ccc"
     style="fill:#ffffff;fill-opacity:0.8;fill-rule:evenodd"
     d="m 82.957,110.406 c 3.05,1.78 12.399,-0.51 9.389,-1.52 -1,-0.51 -9.464,0.27 -9.389,1.52 z" />
  <path
     id="path942"
     inkscape:connector-curvature="0"
     sodipodi:nodetypes="ccc"
     style="fill:#ffffff;fill-opacity:0.8;fill-rule:evenodd"
     d="m 96.156,106.596 c 1.76,1.54 3.92,-5.58 2.54,-5.58 -2.95,0.41 -4.9,5.11 -2.54,5.58 z" />
  <path
     id="path943"
     inkscape:connector-curvature="0"
     sodipodi:nodetypes="ccc"
     style="fill:#ffffff;fill-opacity:0.8;fill-rule:evenodd"
     d="m 108.6,101.267 c 1.94,-0.33 3.86,-4.818995 2.54,-4.818995 -1.53,0 -2.84,4.068995 -2.54,4.818995 z" />
  <path
     id="path944"
     inkscape:connector-curvature="0"
     sodipodi:nodetypes="ccccc"
     style="fill:#ffffff;fill-opacity:0.8;fill-rule:evenodd"
     d="m 119.77,95.179005 c 2.51,0.022 1.18,-3.3 2.28,-3.3 0,-1.201 0.51,-3.174 0.51,-5.076 -1.13,-1.128 -3.3,1.154 -3.3,2.284 0,1.73 -1.88,6.084 0.51,6.092 z" />
  <metadata
     id="metadata71">
    <rdf:RDF>
      <cc:Work>
        <dc:format>image/svg+xml</dc:format>
        <dc:type
           rdf:resource="http://purl.org/dc/dcmitype/StillImage" />
        <cc:license
           rdf:resource="http://creativecommons.org/publicdomain/zero/1.0/" />
        <dc:publisher>
          <cc:Agent
             rdf:about="http://openclipart.org/">
            <dc:title>Openclipart</dc:title>
          </cc:Agent>
        </dc:publisher>
        <dc:title></dc:title>
      </cc:Work>
      <cc:License
         rdf:about="http://creativecommons.org/publicdomain/zero/1.0/">
        <cc:permits
           rdf:resource="http://creativecommons.org/ns#Reproduction" />
        <cc:permits
           rdf:resource="http://creativecommons.org/ns#Distribution" />
        <cc:permits
           rdf:resource="http://creativecommons.org/ns#DerivativeWorks" />
      </cc:License>
    </rdf:RDF>
  </metadata>
  <metadata
     id="metadata75">
    <rdf:RDF>
      <cc:Work
         rdf:about="">
        <dc:title>Clipart by Nicu Buculei - birthday_cake</dc:title>
        <dc:rights>
          <cc:Agent>
            <dc:title>Nicu Buculei</dc:title>
          </cc:Agent>
        </dc:rights>
        <dc:type
           rdf:resource="http://purl.org/dc/dcmitype/StillImage" />
        <cc:license
           rdf:resource="http://web.resource.org/cc/PublicDomain" />
      </cc:Work>
      <cc:License
         rdf:about="http://web.resource.org/cc/PublicDomain">
        <cc:permits
           rdf:resource="http://web.resource.org/cc/Reproduction" />
        <cc:permits
           rdf:resource="http://web.resource.org/cc/Distribution" />
        <cc:permits
           rdf:resource="http://web.resource.org/cc/DerivativeWorks" />
      </cc:License>
    </rdf:RDF>
  </metadata>
</svg>
