<?xml version="1.0" encoding="UTF-8" standalone="no"?>
<!-- Creator: CorelDRAW -->

<svg
   xmlns:dc="http://purl.org/dc/elements/1.1/"
   xmlns:cc="http://creativecommons.org/ns#"
   xmlns:rdf="http://www.w3.org/1999/02/22-rdf-syntax-ns#"
   xmlns:svg="http://www.w3.org/2000/svg"
   xmlns="http://www.w3.org/2000/svg"
   xmlns:sodipodi="http://sodipodi.sourceforge.net/DTD/sodipodi-0.dtd"
   xmlns:inkscape="http://www.inkscape.org/namespaces/inkscape"
   style="fill-rule:evenodd;image-rendering:optimizeQuality;shape-rendering:geometricPrecision;text-rendering:geometricPrecision"
   xml:space="preserve"
   viewBox="0 0 11084 11084"
   id="svg2"
   version="1.1"
   inkscape:version="0.92.2 5c3e80d, 2017-08-06"
   sodipodi:docname="openclipart_417_loose_leaf_paper.svg"
   width="11084"
   height="11084"
   inkscape:export-filename="/Users/ryan/projects/variant-tap/app/src/main/assets/normals/openclipart_417_loose_leaf_paper.png"
   inkscape:export-xdpi="4.4345002"
   inkscape:export-ydpi="4.4345002"><sodipodi:namedview
     pagecolor="#ffffff"
     bordercolor="#666666"
     borderopacity="1"
     objecttolerance="10"
     gridtolerance="10"
     guidetolerance="10"
     inkscape:pageopacity="0"
     inkscape:pageshadow="2"
     inkscape:window-width="1440"
     inkscape:window-height="800"
     id="namedview111"
     showgrid="false"
     fit-margin-top="0"
     fit-margin-left="0"
     fit-margin-right="0"
     fit-margin-bottom="0"
     inkscape:zoom="0.08"
     inkscape:cx="5690.5704"
     inkscape:cy="3285.3817"
     inkscape:window-x="0"
     inkscape:window-y="1"
     inkscape:window-maximized="1"
     inkscape:current-layer="svg2" /><defs
     id="defs4"><style
       type="text/css"
       id="style6">
    .fil0 {fill:#0093DD}
    .fil3 {fill:#0A0B0C}
    .fil2 {fill:#1F1A17}
    .fil1 {fill:#DA251D}
  </style></defs><path
     style="fill:#ffffff"
     d="m 1400,-1.02e-4 c -42,0 -80,19 -107,49 -26,29 -43,68.000002 -43,112.000002 V 10922.999 c 0,44 17,83 43,112 27,30 65,49 107,49 h 8284 c 42,0 80,-19 107,-49 26,-29 43,-68 43,-112 V 160.9999 c 0,-44 -17,-83.000002 -43,-112.000002 -27,-30 -65,-49 -107,-49 z"
     id="path331"
     inkscape:connector-curvature="0" /><g
     id="g11"
     transform="translate(792,-271)"><path
       class="fil0"
       d="m 500,1271 h 8500 v 84 H 500 Z"
       id="path13"
       inkscape:connector-curvature="0"
       style="fill:#0093dd" /></g><g
     id="g15"
     transform="translate(792,-271)"><path
       class="fil0"
       d="m 500,1744 h 8500 v 83 H 500 Z"
       id="path17"
       inkscape:connector-curvature="0"
       style="fill:#0093dd" /></g><g
     id="g19"
     transform="translate(792,-271)"><path
       class="fil0"
       d="m 500,2217 h 8500 v 83 H 500 Z"
       id="path21"
       inkscape:connector-curvature="0"
       style="fill:#0093dd" /></g><g
     id="g23"
     transform="translate(792,-271)"><path
       class="fil0"
       d="m 500,2690 h 8500 v 83 H 500 Z"
       id="path25"
       inkscape:connector-curvature="0"
       style="fill:#0093dd" /></g><g
     id="g27"
     transform="translate(792,-271)"><path
       class="fil0"
       d="m 500,3162 h 8500 v 84 H 500 Z"
       id="path29"
       inkscape:connector-curvature="0"
       style="fill:#0093dd" /></g><g
     id="g31"
     transform="translate(792,-271)"><path
       class="fil0"
       d="m 500,3635 h 8500 v 83 H 500 Z"
       id="path33"
       inkscape:connector-curvature="0"
       style="fill:#0093dd" /></g><g
     id="g35"
     transform="translate(792,-271)"><path
       class="fil0"
       d="m 500,4108 h 8500 v 83 H 500 Z"
       id="path37"
       inkscape:connector-curvature="0"
       style="fill:#0093dd" /></g><g
     id="g39"
     transform="translate(792,-271)"><path
       class="fil0"
       d="m 500,4580 h 8500 v 84 H 500 Z"
       id="path41"
       inkscape:connector-curvature="0"
       style="fill:#0093dd" /></g><g
     id="g43"
     transform="translate(792,-271)"><path
       class="fil0"
       d="m 500,5053 h 8500 v 84 H 500 Z"
       id="path45"
       inkscape:connector-curvature="0"
       style="fill:#0093dd" /></g><g
     id="g47"
     transform="translate(792,-271)"><path
       class="fil0"
       d="m 500,5526 h 8500 v 83 H 500 Z"
       id="path49"
       inkscape:connector-curvature="0"
       style="fill:#0093dd" /></g><g
     id="g51"
     transform="translate(792,-271)"><path
       class="fil0"
       d="m 500,5999 h 8500 v 83 H 500 Z"
       id="path53"
       inkscape:connector-curvature="0"
       style="fill:#0093dd" /></g><g
     id="g55"
     transform="translate(792,-271)"><path
       class="fil0"
       d="m 500,6471 h 8500 v 84 H 500 Z"
       id="path57"
       inkscape:connector-curvature="0"
       style="fill:#0093dd" /></g><g
     id="g59"
     transform="translate(792,-271)"><path
       class="fil0"
       d="m 500,6944 h 8500 v 83 H 500 Z"
       id="path61"
       inkscape:connector-curvature="0"
       style="fill:#0093dd" /></g><g
     id="g63"
     transform="translate(792,-271)"><path
       class="fil0"
       d="m 500,7417 h 8500 v 83 H 500 Z"
       id="path65"
       inkscape:connector-curvature="0"
       style="fill:#0093dd" /></g><g
     id="g67"
     transform="translate(792,-271)"><path
       class="fil0"
       d="m 500,7890 h 8500 v 83 H 500 Z"
       id="path69"
       inkscape:connector-curvature="0"
       style="fill:#0093dd" /></g><g
     id="g71"
     transform="translate(792,-271)"><path
       class="fil0"
       d="m 500,8362 h 8500 v 84 H 500 Z"
       id="path73"
       inkscape:connector-curvature="0"
       style="fill:#0093dd" /></g><g
     id="g75"
     transform="translate(792,-271)"><path
       class="fil0"
       d="m 500,8835 h 8500 v 83 H 500 Z"
       id="path77"
       inkscape:connector-curvature="0"
       style="fill:#0093dd" /></g><g
     id="g79"
     transform="translate(792,-271)"><path
       class="fil0"
       d="m 500,9308 h 8500 v 83 H 500 Z"
       id="path81"
       inkscape:connector-curvature="0"
       style="fill:#0093dd" /></g><g
     id="g83"
     transform="translate(792,-271)"><path
       class="fil0"
       d="m 500,9781 h 8500 v 83 H 500 Z"
       id="path85"
       inkscape:connector-curvature="0"
       style="fill:#0093dd" /></g><g
     id="g87"
     transform="translate(792,-271)"><path
       class="fil0"
       d="m 500,10253 h 8500 v 84 H 500 Z"
       id="path89"
       inkscape:connector-curvature="0"
       style="fill:#0093dd" /></g><g
     id="g91"
     transform="translate(792,-271)"><path
       class="fil0"
       d="m 500,10726 h 8500 v 83 H 500 Z"
       id="path93"
       inkscape:connector-curvature="0"
       style="fill:#0093dd" /></g><g
     id="g95"
     transform="translate(792,-271)"><path
       class="fil1"
       d="m 1542,313 v 11000 h -84 V 313 Z"
       id="path97"
       inkscape:connector-curvature="0"
       style="fill:#da251d" /></g><circle
     cy="5542"
     cx="1792"
     r="125"
     class="fil3"
     id="circle103"
     style="fill:#0a0b0c" /><circle
     cy="815"
     cx="1792"
     r="125"
     class="fil3"
     id="circle105"
     style="fill:#0a0b0c" /><circle
     cy="10269"
     cx="1792"
     r="125"
     class="fil3"
     id="circle107"
     style="fill:#0a0b0c" /><metadata
     id="metadata109"><rdf:RDF><cc:Work><dc:format>image/svg+xml</dc:format><dc:type
           rdf:resource="http://purl.org/dc/dcmitype/StillImage" /><cc:license
           rdf:resource="http://creativecommons.org/publicdomain/zero/1.0/" /><dc:publisher><cc:Agent
             rdf:about="http://openclipart.org/"><dc:title>Openclipart</dc:title></cc:Agent></dc:publisher><dc:title>Loose Leaf Paper</dc:title><dc:date>2008-03-25T18:33:19</dc:date><dc:description>Simple piece of loose leaf paper</dc:description><dc:source>https://openclipart.org/detail/16004/loose-leaf-paper-by-nexxuz</dc:source><dc:creator><cc:Agent><dc:title>nexxuz</dc:title></cc:Agent></dc:creator><dc:subject><rdf:Bag><rdf:li>how i did it</rdf:li><rdf:li>office</rdf:li><rdf:li>paper</rdf:li><rdf:li>school</rdf:li><rdf:li>supplies</rdf:li></rdf:Bag></dc:subject></cc:Work><cc:License
         rdf:about="http://creativecommons.org/publicdomain/zero/1.0/"><cc:permits
           rdf:resource="http://creativecommons.org/ns#Reproduction" /><cc:permits
           rdf:resource="http://creativecommons.org/ns#Distribution" /><cc:permits
           rdf:resource="http://creativecommons.org/ns#DerivativeWorks" /></cc:License></rdf:RDF></metadata><path
     class="fil2"
     d="m 1400,-1.02e-4 h 8284 v 84 H 1400 Z m 8284,0 v 84 z m 0,0 c 42,0 80,19 107,49 l -62,56.000002 c -11,-13.000002 -28,-21.000002 -45,-21.000002 z m 107,49 c 26,29 43,68.000002 43,112.000002 h -84 c 0,-22 -8,-42 -21,-56 z m 43,112.000002 h -84 z m 0,0 V 10923 h -84 V 160.9999 Z M 9834,10923 h -84 z m 0,0 c 0,44 -17,83 -43,112 l -62,-56 c 13,-14 21,-34 21,-56 z m -43,112 c -27,30 -65,49 -107,49 v -84 c 17,0 33,-8 45,-21 z m -107,49 v -84 z m 0,0 H 1400 v -84 h 8284 z m -8284,0 v -84 z m 0,0 c -42,0 -80,-19 -107,-49 l 62,-56 c 11,13 28,21 45,21 z m -107,-49 c -26,-29 -43,-68 -43,-112 h 84 c 0,22 8,42 21,56 z m -43,-112 h 84 z m 0,0 V 160.9999 h 84 V 10923 Z m 0,-10762.0001 h 84 z m 0,0 c 0,-44 17,-83.000002 43,-112.000002 l 62,56.000002 c -13,14 -21,34 -21,56 z m 43,-112.000002 c 27,-30 65,-49 107,-49 v 84 c -17,0 -33,8 -45,21.000002 z m 107,-49 v 84 z"
     id="path300"
     inkscape:connector-curvature="0"
     style="fill:#1f1a17" /></svg>