<?xml version="1.0" encoding="UTF-8" standalone="no"?>
<!-- Created with Inkscape (http://www.inkscape.org/) -->

<svg
   xmlns:dc="http://purl.org/dc/elements/1.1/"
   xmlns:cc="http://creativecommons.org/ns#"
   xmlns:rdf="http://www.w3.org/1999/02/22-rdf-syntax-ns#"
   xmlns:svg="http://www.w3.org/2000/svg"
   xmlns="http://www.w3.org/2000/svg"
   xmlns:sodipodi="http://sodipodi.sourceforge.net/DTD/sodipodi-0.dtd"
   xmlns:inkscape="http://www.inkscape.org/namespaces/inkscape"
   id="svg2"
   sodipodi:docname="openclipart_267_pencil.svg"
   inkscape:export-filename="/home/sarah/questchest/media/img/pencil.png"
   viewBox="0 0 75.36 75.36"
   inkscape:export-xdpi="90.044647"
   version="1.1"
   inkscape:export-ydpi="90.044647"
   inkscape:version="0.91 r13725"
   width="75.360001"
   height="75.360001">
  <defs
     id="defs4">
    <linearGradient
       id="linearGradient3696"
       y2="508.32001"
       gradientUnits="userSpaceOnUse"
       x2="298.98999"
       y1="487.98999"
       x1="279.92001"
       inkscape:collect="always">
      <stop
         id="stop3692"
         style="stop-color:#f09092"
         offset="0" />
      <stop
         id="stop3714"
         style="stop-color:#f2acac"
         offset=".25" />
      <stop
         id="stop3712"
         style="stop-color:#f5c8c7"
         offset=".5" />
      <stop
         id="stop3716"
         style="stop-color:#cf8885"
         offset=".75" />
      <stop
         id="stop3694"
         style="stop-color:#aa4944"
         offset="1" />
    </linearGradient>
    <linearGradient
       id="linearGradient3724"
       y2="549.69"
       gradientUnits="userSpaceOnUse"
       x2="247.02"
       y1="538.62"
       x1="235.89"
       inkscape:collect="always">
      <stop
         id="stop3720"
         style="stop-color:#ddb090"
         offset="0" />
      <stop
         id="stop3726"
         style="stop-color:#ebd1bf"
         offset=".5" />
      <stop
         id="stop3722"
         style="stop-color:#ce8d60"
         offset="1" />
    </linearGradient>
  </defs>
  <sodipodi:namedview
     id="base"
     bordercolor="#666666"
     inkscape:pageshadow="2"
     inkscape:window-y="48"
     pagecolor="#ffffff"
     inkscape:window-height="945"
     inkscape:window-maximized="1"
     inkscape:zoom="5.6"
     inkscape:window-x="-8"
     showgrid="false"
     borderopacity="1.0"
     inkscape:current-layer="layer1"
     inkscape:cx="-1.1158828"
     inkscape:cy="63.5307"
     inkscape:object-nodes="true"
     inkscape:window-width="1280"
     inkscape:pageopacity="0.0"
     inkscape:document-units="px"
     inkscape:snap-nodes="false" />
  <g
     id="layer1"
     inkscape:label="Layer 1"
     inkscape:groupmode="layer"
     transform="translate(-229.26,-480.537)">
    <g
       id="g3355"
       transform="translate(0,-1.0964668)">
      <path
         inkscape:connector-curvature="0"
         d="m 229.76,555.4 3.2561,-9.2703 6.923,-19.71 c 0,0 42.261,-41.677 44.49,-42.78 2.2293,-1.1029 4.573,0.56973 4.573,0.56973 0,0 4.6354,2.0837 8.8807,6.9637 4.2452,4.88 6.3782,7.5724 6.23,10.106 -0.1483,2.5336 -44.48,43.032 -44.48,43.032 l -19.735,7.3258 -10.138,3.7632 z"
         style="fill:url(#linearGradient3696);stroke:#000000;stroke-width:1px"
         sodipodi:nodetypes="cccscssccc"
         id="path2830" />
      <path
         inkscape:connector-curvature="0"
         d="m 238.94,529.62 0.38756,3.2698 7.1132,-2.1889 1.3838,9.042 7.9794,0.42929 0.7179,5.1518 3.1176,-1.0132 18.5,-17.192 c 0,0 -3.9188,-6.1573 -9.3203,-11.495 -5.3588,-5.2956 -9.8054,-7.9366 -9.8054,-7.9366 l -19.069,18.732 -1.0054,3.2009 z"
         style="fill:#fba635;stroke:#000000;stroke-width:1px"
         sodipodi:nodetypes="ccccccccsccc"
         id="path2834" />
      <path
         inkscape:connector-curvature="0"
         d="m 246.44,530.7 19.09,-18.227 c 0,0 1.1615,0.58399 4.7343,4.4807 3.5728,3.89671 4.7759,5.49 4.7759,5.49 l -19.237,17.728 -7.9794,-0.42929 -1.3838,-9.042 z"
         style="fill:#f5b25f"
         sodipodi:nodetypes="ccscccc"
         id="path2836" />
      <path
         inkscape:connector-curvature="0"
         d="m 256.52,545.32 3.1176,-1.0132 18.5,-17.192 -3.0994,-4.6745 -19.237,17.728 0.7179,5.1518 z"
         style="fill:#b54d0e"
         id="path2838" />
      <path
         inkscape:connector-curvature="0"
         d="m 233.35,545.72 6.2295,5.8246 -9.8159,3.8538 3.5863,-9.6784 z"
         style="fill:#000000"
         sodipodi:nodetypes="cccc"
         id="path2832" />
      <path
         inkscape:connector-curvature="0"
         d="m 238.94,529.62 0.38756,3.2698 7.1132,-2.1889 1.3838,9.042 7.9794,0.42929 0.7179,5.1518 3.1176,-1.0132 18.5,-17.192 c 0,0 -3.9188,-6.1573 -9.3203,-11.495 -5.3588,-5.2956 -9.8054,-7.9366 -9.8054,-7.9366 l -19.069,18.732 -1.0054,3.2009 z"
         style="fill:none;stroke:#000000;stroke-width:1px"
         sodipodi:nodetypes="ccccccccsccc"
         id="path2840" />
      <path
         inkscape:connector-curvature="0"
         d="m 233.35,545.72 6.2295,5.8246 16.94,-6.2219 -0.7179,-5.1518 -7.9794,-0.42929 -1.3838,-9.042 -7.1132,2.1889 -0.38756,-3.2698 -5.5873,16.101 z"
         style="fill:url(#linearGradient3724);stroke:#000000;stroke-width:1px"
         id="path2842" />
      <path
         inkscape:connector-curvature="0"
         d="m 273.13,494.59 c 0,0 6.4173,2.3893 10.652,7.017 4.2348,4.6277 8.9574,11.889 8.9574,11.889 l -14.604,13.619 c 0,0 -6.3353,-9.5962 -9.4724,-12.121 -3.1371,-2.5246 -9.6533,-7.311 -9.6533,-7.311 l 14.12,-13.093 z"
         style="fill:#7e5f56"
         id="path2844" />
      <path
         inkscape:connector-curvature="0"
         d="m 259.01,507.69 6.5161,4.7864 14.588,-13.997 -6.9844,-3.8825 -14.12,13.093"
         style="fill:#d6c8c6"
         id="path2846" />
      <path
         inkscape:connector-curvature="0"
         d="m 265.53,512.47 3.8736,3.2765 5.6365,6.6943 14.372,-13.104 c 0,0 -1.6856,-4.1009 -3.6664,-6.1677 -1.9808,-2.0667 -5.6278,-4.6966 -5.6278,-4.6966"
         style="fill:#ece4e2"
         sodipodi:nodetypes="ccccsc"
         id="path2848" />
      <path
         inkscape:connector-curvature="0"
         d="m 273.13,494.59 c 0,0 6.4173,2.3893 10.652,7.017 4.2348,4.6277 8.9574,11.889 8.9574,11.889 l -14.604,13.619 c 0,0 -5.7015,-8.2713 -8.7359,-11.369 -2.8179,-2.8765 -10.39,-8.0629 -10.39,-8.0629 l 14.12,-13.093 z"
         style="fill:none;stroke:#000000;stroke-width:1px"
         sodipodi:nodetypes="csccscc"
         id="path2850" />
    </g>
  </g>
  <metadata
     id="metadata27">
    <rdf:RDF>
      <cc:Work>
        <dc:format>image/svg+xml</dc:format>
        <dc:type
           rdf:resource="http://purl.org/dc/dcmitype/StillImage" />
        <cc:license
           rdf:resource="http://creativecommons.org/publicdomain/zero/1.0/" />
        <dc:publisher>
          <cc:Agent
             rdf:about="http://openclipart.org/">
            <dc:title>Openclipart</dc:title>
          </cc:Agent>
        </dc:publisher>
        <dc:title>Pencil</dc:title>
        <dc:date>2011-02-24T01:58:58</dc:date>
        <dc:description>A stubby pencil</dc:description>
        <dc:source>https://openclipart.org/detail/122155/pencil-by-dear_theophilus</dc:source>
        <dc:creator>
          <cc:Agent>
            <dc:title>dear_theophilus</dc:title>
          </cc:Agent>
        </dc:creator>
        <dc:subject>
          <rdf:Bag>
            <rdf:li>edit</rdf:li>
            <rdf:li>icon</rdf:li>
            <rdf:li>pencil</rdf:li>
            <rdf:li>school</rdf:li>
            <rdf:li>write</rdf:li>
          </rdf:Bag>
        </dc:subject>
      </cc:Work>
      <cc:License
         rdf:about="http://creativecommons.org/publicdomain/zero/1.0/">
        <cc:permits
           rdf:resource="http://creativecommons.org/ns#Reproduction" />
        <cc:permits
           rdf:resource="http://creativecommons.org/ns#Distribution" />
        <cc:permits
           rdf:resource="http://creativecommons.org/ns#DerivativeWorks" />
      </cc:License>
    </rdf:RDF>
  </metadata>
</svg>
