<?xml version="1.0" encoding="UTF-8" standalone="no"?>
<!-- Created with Inkscape (http://www.inkscape.org/) -->

<svg
   xmlns:dc="http://purl.org/dc/elements/1.1/"
   xmlns:cc="http://creativecommons.org/ns#"
   xmlns:rdf="http://www.w3.org/1999/02/22-rdf-syntax-ns#"
   xmlns:svg="http://www.w3.org/2000/svg"
   xmlns="http://www.w3.org/2000/svg"
   xmlns:xlink="http://www.w3.org/1999/xlink"
   xmlns:sodipodi="http://sodipodi.sourceforge.net/DTD/sodipodi-0.dtd"
   xmlns:inkscape="http://www.inkscape.org/namespaces/inkscape"
   id="svg1323"
   sodipodi:docname="openclipart_312_bat.svg"
   viewBox="0 0 612.52 612.52004"
   sodipodi:version="0.32"
   version="1.0"
   inkscape:version="0.91 r13725"
   width="612.52002"
   height="612.52002">
  <defs
     id="defs1326">
    <linearGradient
       id="linearGradient5487"
       inkscape:collect="always">
      <stop
         id="stop5489"
         style="stop-color:#ececec"
         offset="0" />
      <stop
         id="stop5491"
         style="stop-color:#ececec;stop-opacity:0"
         offset="1" />
    </linearGradient>
    <linearGradient
       id="linearGradient4582"
       y2="412.42999"
       gradientUnits="userSpaceOnUse"
       x2="604.73999"
       gradientTransform="matrix(1.6905,0,0,2.1245,-401.15,-415.2)"
       y1="378.89999"
       x1="293.32999"
       inkscape:collect="always">
      <stop
         id="stop2792"
         style="stop-color:#f9f9f9"
         offset="0" />
      <stop
         id="stop2794"
         style="stop-color:#f9f9f9;stop-opacity:0"
         offset="1" />
    </linearGradient>
    <radialGradient
       id="radialGradient6394"
       xlink:href="#linearGradient5487"
       gradientUnits="userSpaceOnUse"
       cy="585.53003"
       cx="382.60001"
       gradientTransform="matrix(1,0,0,0.93076,0,40.542)"
       r="11.182"
       inkscape:collect="always" />
    <radialGradient
       id="radialGradient6396"
       xlink:href="#linearGradient5487"
       gradientUnits="userSpaceOnUse"
       cy="581.84003"
       cx="413.76001"
       gradientTransform="matrix(1,0,0,1.2126,0,-123.73)"
       r="11.214"
       inkscape:collect="always" />
  </defs>
  <sodipodi:namedview
     id="base"
     bordercolor="#666666"
     inkscape:pageshadow="2"
     inkscape:window-y="-8"
     pagecolor="#ffffff"
     inkscape:zoom="0.34335286"
     inkscape:window-x="1272"
     borderopacity="1.0"
     inkscape:current-layer="svg1323"
     inkscape:cx="1279.6351"
     inkscape:cy="382.60695"
     inkscape:window-height="660"
     inkscape:pageopacity="0.0"
     inkscape:window-width="1280"
     showgrid="false"
     inkscape:window-maximized="1" />
  <g
     id="g6398"
     inkscape:export-ydpi="90"
     inkscape:export-xdpi="90"
     inkscape:export-filename="/home/lamatin/Projekt_Kliparty/hotove/KLIPARTY/SVG/06.Zvirata/netopyr.png"
     transform="translate(-64.498,-216.28999)">
    <path
       id="path1352"
       style="fill:#7c6969;fill-rule:evenodd"
       d="m 66.47,635.12 c 31.273,-2.24 64.65,-0.91 92.03,21.71 15.5,36.76 39.6,-5.25 61.69,-4.89 27.24,-5.14 55.79,5.83 70.49,39.29 12.12,35.16 34.24,-20.26 54.31,-17.49 36.96,-13.33 77.6,2.29 107.33,33.05 -0.98,-44.7 29.7,-73.64 54.84,-95.15 11.52,-18.19 47.35,0.27 33.71,-33.89 -1.58,-34.38 3.79,-75.17 28.43,-93.4 16.5,-22.91 50.53,0.17 49.25,-40.95 13.06,-40.76 36.12,-73.83 58.47,-105.97 -23.56,7.7 -44.18,27.05 -68.69,30.77 -31.55,11.33 -65.97,16.94 -97.12,0.37 3.19,30.34 0.02,62.34 -13.74,87.58 -15.81,32.57 -33.14,65.86 -56.91,88.69 -17.21,-0.61 -25.88,-29.18 -37.15,-44.16 4.95,24.16 -5.38,29.81 -21.59,29.16 -13.32,16.19 -23.77,4.47 -34.39,-9.78 -1.89,21.05 17.87,63.9 -1.42,69.2 -32.15,3.15 -64.44,-6.47 -95.11,-18.73 -26.39,-12.06 -50.33,-31.93 -73.51,-52.31 -14.42,38.97 -42.9,63.9 -68.8,87.9 -13.547,10.74 -27.438,20.74 -41.799,29.41"
       inkscape:connector-curvature="0" />
    <path
       id="path1898"
       style="fill:#000000;fill-rule:evenodd"
       d="m 64.498,636 c 31.274,-2.24 64.642,-0.91 92.032,21.71 15.5,36.76 39.6,-5.25 61.69,-4.89 27.24,-5.14 55.79,5.83 70.49,39.29 12.12,35.16 34.24,-20.26 54.31,-17.49 36.95,-13.33 77.59,2.29 107.33,33.05 -0.98,-44.7 29.7,-73.64 54.84,-95.15 11.52,-18.19 47.34,0.27 33.71,-33.89 -1.58,-34.38 3.79,-75.17 28.43,-93.4 16.49,-22.91 50.52,0.17 49.25,-40.95 13.06,-40.77 36.12,-73.83 58.47,-105.97 -23.57,7.7 -44.18,27.05 -68.69,30.77 -31.55,11.33 -65.98,16.94 -97.12,0.37 3.19,30.34 0.02,62.34 -13.75,87.58 -15.8,32.57 -33.13,65.86 -56.91,88.69 -17.2,-0.61 -25.87,-29.18 -37.14,-44.16 4.95,24.16 -5.38,29.81 -21.6,29.16 -13.31,16.19 -23.77,4.47 -34.38,-9.78 -1.89,21.05 17.87,63.9 -1.42,69.2 -32.15,3.15 -64.44,-6.47 -95.11,-18.73 C 222.54,559.35 198.6,539.48 175.42,519.1 161,558.07 132.52,583 106.62,607 93.072,617.74 79.18,627.74 64.819,636.41"
       inkscape:connector-curvature="0" />
    <path
       id="path1901"
       style="opacity:0.09345799;fill:url(#linearGradient4582);fill-rule:evenodd"
       d="m 66.47,623.36 c 31.004,-2.09 64.09,-0.85 91.23,20.21 15.38,34.22 39.27,-4.89 61.17,-4.56 27,-4.78 55.31,5.43 69.88,36.58 12.02,32.74 33.95,-18.85 53.84,-16.28 36.64,-12.4 76.93,2.13 106.41,30.77 -0.98,-41.61 29.44,-68.56 54.37,-88.58 11.42,-16.93 46.93,0.25 33.42,-31.54 -1.57,-32.02 3.76,-69.99 28.18,-86.96 16.35,-21.33 50.09,0.16 48.83,-38.12 12.94,-37.95 35.81,-68.73 57.96,-98.66 -23.36,7.17 -43.8,25.19 -68.1,28.65 -31.27,10.55 -65.4,15.77 -96.28,0.35 3.16,28.24 0.02,58.03 -13.63,81.53 -15.67,30.32 -32.85,61.31 -56.42,82.57 -17.05,-0.57 -25.64,-27.17 -36.82,-41.12 4.91,22.49 -5.33,27.75 -21.41,27.15 -13.2,15.07 -23.56,4.16 -34.09,-9.1 -1.88,19.59 17.72,59.48 -1.4,64.41 -31.88,2.94 -63.89,-6.02 -94.29,-17.43 -26.17,-11.23 -49.91,-29.73 -72.89,-48.7 -14.29,36.28 -42.53,59.49 -68.2,81.83 -13.433,10 -27.205,19.31 -41.442,27.38"
       inkscape:connector-curvature="0" />
    <g
       id="g6386"
       transform="translate(-4,-18)">
      <path
         id="path1338"
         sodipodi:nodetypes="ccccc"
         style="fill:#ffff00;fill-rule:evenodd;stroke:#000000;stroke-width:2.97959995px"
         d="m 402.54,595.44 10,-5.17 12.43,-13.88 -14.84,-8.15 -7.59,27.2 z"
         inkscape:connector-curvature="0" />
      <path
         id="path4588"
         sodipodi:nodetypes="ccccc"
         style="opacity:0.48131002;fill:url(#radialGradient6396);fill-rule:evenodd"
         d="m 402.54,595.44 10,-5.17 12.43,-13.88 -14.84,-8.15 -7.59,27.2 z"
         inkscape:connector-curvature="0" />
    </g>
    <g
       id="g6390"
       transform="translate(-4,-14)">
      <path
         id="path2795"
         sodipodi:nodetypes="ccccc"
         style="fill:#ffff00;fill-rule:evenodd;stroke:#000000;stroke-width:2.97959995px"
         d="m 393.78,595.94 -7.15,-10.41 -14.32,-10.4 -0.89,20.81 22.36,0 z"
         inkscape:connector-curvature="0" />
      <path
         id="path4590"
         sodipodi:nodetypes="ccccc"
         style="opacity:0.48131002;fill:url(#radialGradient6394);fill-rule:evenodd"
         d="m 393.78,595.94 -7.15,-10.41 -14.32,-10.4 -0.89,20.81 22.36,0 z"
         inkscape:connector-curvature="0" />
    </g>
  </g>
  <metadata
     id="metadata23">
    <rdf:RDF>
      <cc:Work>
        <dc:format>image/svg+xml</dc:format>
        <dc:type
           rdf:resource="http://purl.org/dc/dcmitype/StillImage" />
        <cc:license
           rdf:resource="http://creativecommons.org/publicdomain/zero/1.0/" />
        <dc:publisher>
          <cc:Agent
             rdf:about="http://openclipart.org/">
            <dc:title>Openclipart</dc:title>
          </cc:Agent>
        </dc:publisher>
        <dc:title>bat</dc:title>
        <dc:date>2007-01-01T04:41:07</dc:date>
        <dc:description />
        <dc:source>https://openclipart.org/detail/2699/bat-by-machovka-2699</dc:source>
        <dc:creator>
          <cc:Agent>
            <dc:title>Machovka</dc:title>
          </cc:Agent>
        </dc:creator>
        <dc:subject>
          <rdf:Bag>
            <rdf:li>animal</rdf:li>
            <rdf:li>bat</rdf:li>
            <rdf:li>cartoon</rdf:li>
            <rdf:li>halloween</rdf:li>
            <rdf:li>spooky</rdf:li>
          </rdf:Bag>
        </dc:subject>
      </cc:Work>
      <cc:License
         rdf:about="http://creativecommons.org/publicdomain/zero/1.0/">
        <cc:permits
           rdf:resource="http://creativecommons.org/ns#Reproduction" />
        <cc:permits
           rdf:resource="http://creativecommons.org/ns#Distribution" />
        <cc:permits
           rdf:resource="http://creativecommons.org/ns#DerivativeWorks" />
      </cc:License>
    </rdf:RDF>
  </metadata>
</svg>
