<?xml version="1.0" encoding="UTF-8" standalone="no"?>
<svg
   xmlns:dc="http://purl.org/dc/elements/1.1/"
   xmlns:cc="http://creativecommons.org/ns#"
   xmlns:rdf="http://www.w3.org/1999/02/22-rdf-syntax-ns#"
   xmlns:svg="http://www.w3.org/2000/svg"
   xmlns="http://www.w3.org/2000/svg"
   xmlns:sodipodi="http://sodipodi.sourceforge.net/DTD/sodipodi-0.dtd"
   xmlns:inkscape="http://www.inkscape.org/namespaces/inkscape"
   id="0"
   sodipodi:docname="openclipart_170_light_bulb_on.svg"
   viewBox="0 0 172.71965 172.71967"
   version="1.0"
   inkscape:version="0.91 r13725"
   width="172.71967"
   height="172.71967">
  <defs
     id="defs21" />
  <sodipodi:namedview
     id="namedview19"
     bordercolor="#666666"
     inkscape:pageshadow="2"
     guidetolerance="10"
     pagecolor="#ffffff"
     gridtolerance="10"
     inkscape:window-maximized="1"
     inkscape:window-width="1280"
     inkscape:zoom="0.70710678"
     objecttolerance="10"
     showgrid="false"
     borderopacity="1"
     inkscape:current-layer="0"
     inkscape:cx="-267.71559"
     inkscape:cy="375.44489"
     inkscape:window-y="48"
     inkscape:window-x="-8"
     inkscape:window-height="945"
     inkscape:pageopacity="0"
     fit-margin-top="0"
     fit-margin-left="0"
     fit-margin-right="0"
     fit-margin-bottom="0" />
  <path
     d="m 69.980825,164.73642 -1.9,-0.42 -0.929,-0.63 -0.507,-1.48 -0.211,-1.44 0.085,-1.18 0.844,-2.62 -0.211,-1.98 -0.887,-3.04 -1.097,-2.28 -0.887,-2.03 -0.549,-2.32 -0.042,-1.9 0.591,-2.28 1.056,-1.99 1.097,-1.6 0.929,-2.2 0.422,-1.81 -0.042,-2.15 -0.507,-2.41 -0.844,-1.27 -1.858,-2.24 -0.168,-0.76 0.084,-1.39 0.253,-1.01 1.014,-1.65 42.131005,0 0.04,1.18 0.98,1.86 0.71,2.58 0.05,1.85 -0.6,3.34 -2.107,5.87 -0.464,2.19 0,1.27 1.051,4.35 0.47,1.65 1.1,2.11 0.55,2.32 -0.05,1.69 -0.67,2.83 -1.565,4.09 -0.802,4.35 -0.591,0.43 -1.055,0.08 -34.914005,0.04 z"
     inkscape:connector-curvature="0"
     style="fill:#c0c0c0;fill-rule:evenodd;stroke:#000000;stroke-width:1.2665px;stroke-linecap:round;stroke-linejoin:round"
     id="2" />
  <path
     d="m 71.077825,164.73642 7.304,7.35 17.309,0 7.304005,-7.35 -31.917005,0 z"
     inkscape:connector-curvature="0"
     style="fill:#000000;fill-rule:evenodd;stroke:#000000;stroke-width:1.2665px;stroke-linecap:round;stroke-linejoin:round"
     id="3" />
  <path
     d="m 107.67783,120.65641 -41.961005,0 -0.38,-3 -0.718,-3.38 -1.689,-4.77 -2.364,-4.56 -4.433,-7.599993 -5.404,-10.343 -1.435,-3.547 -1.013,-4.18 -0.423,-3.336 -0.084,-3.842 0.422,-4.054 0.676,-3.589 1.182,-3.927 1.942,-4.349 2.448,-4.138 2.702,-3.673 3.335,-3.674 3.125,-2.575 3.377,-2.154 4.728,-2.238 4.518,-1.604 3.884,-0.929 3.673,-0.423 3.968,0 5.151,0.507 5.15,1.014 4.307005,1.477 3.504,1.816 4.392,3.04 4.08999,3.547 2.66,2.871 2.45,3.209 2.07,3.547 1.86,4.138 1.1,3.336 0.8,3.758 0.34,3.716 -0.09,4.264 -0.59,4.476 -1.1,4.603 -1.18,3.673 -5.74,9.463 -4.98,8.899993 -1.77999,4.06 -1.56,5.07 -0.84,4.56 -0.09,0.84 z"
     inkscape:connector-curvature="0"
     style="fill:#ffff00;fill-rule:evenodd;stroke:#000000;stroke-width:1.2665px;stroke-linecap:round;stroke-linejoin:round"
     id="4" />
  <path
     d="m 65.716825,126.90642 42.171005,7.73"
     inkscape:connector-curvature="0"
     style="fill:none;stroke:#000000;stroke-width:1.2665px;stroke-linecap:round;stroke-linejoin:round"
     id="5" />
  <path
     d="m 65.842825,138.72642 42.175005,7.73"
     inkscape:connector-curvature="0"
     style="fill:none;stroke:#000000;stroke-width:1.2665px;stroke-linecap:round;stroke-linejoin:round"
     id="6" />
  <path
     d="m 65.842825,150.55642 42.175005,7.76"
     inkscape:connector-curvature="0"
     style="fill:none;stroke:#000000;stroke-width:1.2665px;stroke-linecap:round;stroke-linejoin:round"
     id="7" />
  <path
     d="m 75.848825,120.52641 -6.291,-42.304993 0.085,-4.265 0.38,-2.66 0.675,-1.9 0.76,-1.014 1.056,-0.549 0.548,-0.126 1.478,0.084 1.351,0.633 0.844,0.929 0.676,1.647 0.76,4.265 0.338,4.645 -0.085,2.702 -0.506,1.182 -0.76,0.549 -0.38,0.127 -0.887,-0.085 -0.887,-0.549 -0.633,-1.182 -0.844,-3.505 -0.338,-2.575 0.042,-2.365 0.549,-1.858 1.224,-2.069 2.449,-2.618 1.858,-1.266 1.097,-0.211 1.267,0.464 1.266,1.14 1.351,2.111 0.845,2.618 0.802,4.729 0.127,2.365 -0.254,1.984 -0.464,1.014 -0.929,0.549 -1.224,0.126 -1.056,-0.422 -0.591,-0.844 -0.464,-2.154 -0.676,-7.009 0.127,-2.069 0.549,-1.351 1.14,-1.182 2.111,-1.267 2.786,-1.014 0.802,-0.126 1.351,0.084 1.14,0.591 1.393,1.774 1.393,2.955 0.634,2.745 0.126,2.534 -0.337,3.378 -0.549,1.815 -0.507,0.76 -1.013,0.507 -0.887,0.042 -0.76,-0.211 -0.675,-0.718 -0.591,-1.773 -0.38,-3.505 0,-4.602 0.295,-2.28 0.634,-1.394 1.097,-0.929 1.605,-0.549 1.266,-0.042 1.351,0.38 1.182,0.887 0.887,1.604 0.38,1.816 0.042,1.604 -4.771,47.413993"
     inkscape:connector-curvature="0"
     style="fill:none;stroke:#000000;stroke-width:1.2665px;stroke-linecap:round;stroke-linejoin:round"
     id="9" />
  <path
     d="m 11.761826,72.225417 22.754999,0 0,3.462 -22.754999,0 0,-3.462 z"
     inkscape:connector-curvature="0"
     style="fill:#ffff00;fill-rule:evenodd;stroke:#000000;stroke-width:0.042218px;stroke-linecap:round;stroke-linejoin:round"
     id="10" />
  <path
     d="m 138.15782,72.014417 22.8,0 0,3.462 -22.8,0 0,-3.462 z"
     inkscape:connector-curvature="0"
     style="fill:#ffff00;fill-rule:evenodd;stroke:#000000;stroke-width:0.042218px;stroke-linecap:round;stroke-linejoin:round"
     id="11" />
  <path
     d="m 87.922825,0.02111794 -3.462,0 0,22.75899906 3.462,0 0,-22.75899906 z"
     inkscape:connector-curvature="0"
     style="fill:#ffff00;fill-rule:evenodd;stroke:#000000;stroke-width:0.042218px;stroke-linecap:round;stroke-linejoin:round"
     id="12" />
  <path
     d="m 33.799825,20.204417 -2.491,2.449 16.127,16.172 2.449,-2.491 -16.085,-16.13 z"
     inkscape:connector-curvature="0"
     style="fill:#ffff00;fill-rule:evenodd;stroke:#000000;stroke-width:0.042218px;stroke-linecap:round;stroke-linejoin:round"
     id="13" />
  <path
     d="m 138.66782,22.653417 -2.45,-2.449 -16.12,16.13 2.44,2.491 16.13,-16.172 z"
     inkscape:connector-curvature="0"
     style="fill:#ffff00;fill-rule:evenodd;stroke:#000000;stroke-width:0.042218px;stroke-linecap:round;stroke-linejoin:round"
     id="14" />
  <path
     d="m 132.08782,100.64642 -2.45,2.49 16.08,16.13 2.49,-2.49 -16.12,-16.13 z"
     inkscape:connector-curvature="0"
     style="fill:#ffff00;fill-rule:evenodd;stroke:#000000;stroke-width:0.042218px;stroke-linecap:round;stroke-linejoin:round"
     id="15" />
  <path
     d="m 44.902825,104.86642 -2.449,-2.45 -16.127,16.09 2.491,2.49 16.085,-16.13 z"
     inkscape:connector-curvature="0"
     style="fill:#ffff00;fill-rule:evenodd;stroke:#000000;stroke-width:0.042218px;stroke-linecap:round;stroke-linejoin:round"
     id="16" />
  <metadata
     id="metadata20">
    <rdf:RDF>
      <cc:Work>
        <dc:format>image/svg+xml</dc:format>
        <dc:type
           rdf:resource="http://purl.org/dc/dcmitype/StillImage" />
        <cc:license
           rdf:resource="http://creativecommons.org/publicdomain/zero/1.0/" />
        <dc:publisher>
          <cc:Agent
             rdf:about="http://openclipart.org/">
            <dc:title>Openclipart</dc:title>
          </cc:Agent>
        </dc:publisher>
        <dc:title></dc:title>
      </cc:Work>
      <cc:License
         rdf:about="http://creativecommons.org/publicdomain/zero/1.0/">
        <cc:permits
           rdf:resource="http://creativecommons.org/ns#Reproduction" />
        <cc:permits
           rdf:resource="http://creativecommons.org/ns#Distribution" />
        <cc:permits
           rdf:resource="http://creativecommons.org/ns#DerivativeWorks" />
      </cc:License>
    </rdf:RDF>
  </metadata>
</svg>
