<?xml version="1.0" encoding="UTF-8" standalone="no"?>
<!-- Created with Inkscape (http://www.inkscape.org/) -->

<svg
   xmlns:dc="http://purl.org/dc/elements/1.1/"
   xmlns:cc="http://creativecommons.org/ns#"
   xmlns:rdf="http://www.w3.org/1999/02/22-rdf-syntax-ns#"
   xmlns:svg="http://www.w3.org/2000/svg"
   xmlns="http://www.w3.org/2000/svg"
   xmlns:xlink="http://www.w3.org/1999/xlink"
   xmlns:sodipodi="http://sodipodi.sourceforge.net/DTD/sodipodi-0.dtd"
   xmlns:inkscape="http://www.inkscape.org/namespaces/inkscape"
   id="svg11772"
   sodipodi:docname="openclipart_162_black_bomb.svg"
   viewBox="0 0 400 400"
   version="1.1"
   inkscape:version="0.91 r13725">
  <defs
     id="defs11774">
    <filter
       id="filter6469"
       width="1.248"
       y="-.12398"
       x="-.12398"
       height="1.248"
       color-interpolation-filters="sRGB"
       inkscape:collect="always">
      <feGaussianBlur
         id="feGaussianBlur6471"
         stdDeviation="4.6214502"
         inkscape:collect="always" />
    </filter>
    <clipPath
       id="clipPath6307"
       clipPathUnits="userSpaceOnUse">
      <path
         id="path6309"
         sodipodi:rx="44.729313"
         sodipodi:ry="44.729313"
         style="fill:#1a1a1a"
         sodipodi:type="arc"
         d="m546.02 289.18a44.729 44.729 0 1 1 -89.459 0 44.729 44.729 0 1 1 89.459 0z"
         transform="matrix(2.0737 .66917 -.66917 2.0737 -443.13 -223.64)"
         sodipodi:cy="289.18274"
         sodipodi:cx="501.29279" />
    </clipPath>
    <filter
       id="filter6273"
       color-interpolation-filters="sRGB"
       inkscape:collect="always">
      <feGaussianBlur
         id="feGaussianBlur6275"
         stdDeviation="0.6942192"
         inkscape:collect="always" />
    </filter>
    <radialGradient
       id="radialGradient6303"
       xlink:href="#linearGradient3955"
       gradientUnits="userSpaceOnUse"
       cy="690.38"
       cx="483.42"
       gradientTransform="matrix(0.80128,0.46262,-0.47046,0.81486,419.61,-94.548)"
       r="15.668"
       inkscape:collect="always" />
    <linearGradient
       id="linearGradient3955">
      <stop
         id="stop3957"
         style="stop-color:#ddb100"
         offset="0" />
      <stop
         id="stop3965"
         style="stop-color:#ffa000"
         offset=".5" />
      <stop
         id="stop3967"
         style="stop-color:#a26001"
         offset=".75" />
      <stop
         id="stop3959"
         style="stop-color:#c7b00f"
         offset="1" />
    </linearGradient>
    <filter
       id="filter3989"
       color-interpolation-filters="sRGB"
       inkscape:collect="always">
      <feGaussianBlur
         id="feGaussianBlur3991"
         stdDeviation="0.31390347"
         inkscape:collect="always" />
    </filter>
    <filter
       id="filter3973"
       color-interpolation-filters="sRGB"
       inkscape:collect="always">
      <feGaussianBlur
         id="feGaussianBlur3975"
         stdDeviation="1.0246751"
         inkscape:collect="always" />
    </filter>
    <filter
       id="filter4339"
       color-interpolation-filters="sRGB"
       width="1.553"
       y="-.27652"
       x="-.27652"
       height="1.553"
       inkscape:collect="always">
      <feGaussianBlur
         id="feGaussianBlur4341"
         stdDeviation="10.30719"
         inkscape:collect="always" />
    </filter>
    <filter
       id="filter6333"
       width="1.1048"
       y="-.11506"
       x="-.052393"
       height="1.2301"
       color-interpolation-filters="sRGB"
       inkscape:collect="always">
      <feGaussianBlur
         id="feGaussianBlur6335"
         stdDeviation="0.2549428"
         inkscape:collect="always" />
    </filter>
    <filter
       id="filter6197"
       color-interpolation-filters="sRGB"
       inkscape:collect="always">
      <feGaussianBlur
         id="feGaussianBlur6199"
         stdDeviation="0.33393088"
         inkscape:collect="always" />
    </filter>
    <linearGradient
       id="linearGradient3942"
       y2="344.96"
       gradientUnits="userSpaceOnUse"
       y1="229.97"
       x2="482.8"
       x1="518.12"
       inkscape:collect="always">
      <stop
         id="stop4281"
         style="stop-color:#ffffff"
         offset="0" />
      <stop
         id="stop4283"
         style="stop-color:#ffffff;stop-opacity:0"
         offset="1" />
    </linearGradient>
    <linearGradient
       id="linearGradient3944"
       y2="241.86"
       gradientUnits="userSpaceOnUse"
       y1="283.86"
       gradientTransform="translate(-13.479,520.04)"
       x2="446.5"
       x1="431.5"
       inkscape:collect="always">
      <stop
         id="stop4289"
         style="stop-color:#666666"
         offset="0" />
      <stop
         id="stop4291"
         style="stop-color:#666666;stop-opacity:0"
         offset="1" />
    </linearGradient>
    <linearGradient
       id="linearGradient3946"
       y2="640.62"
       gradientUnits="userSpaceOnUse"
       y1="590.65"
       gradientTransform="matrix(0.76422,0,0,0.76422,184.89,282.36)"
       x2="278.06"
       x1="288.45"
       inkscape:collect="always">
      <stop
         id="stop3851"
         style="stop-color:#cccccc"
         offset="0" />
      <stop
         id="stop3853"
         style="stop-color:#cccccc;stop-opacity:0"
         offset="1" />
    </linearGradient>
    <linearGradient
       id="linearGradient4555"
       y2="724.49"
       gradientUnits="userSpaceOnUse"
       x2="457.94"
       y1="722.67"
       x1="454.19"
       inkscape:collect="always">
      <stop
         id="stop4551"
         style="stop-color:#000000"
         offset="0" />
      <stop
         id="stop4553"
         style="stop-color:#3c3c3c"
         offset="1" />
    </linearGradient>
    <linearGradient
       id="linearGradient4540"
       y2="560.15"
       xlink:href="#linearGradient4534"
       gradientUnits="userSpaceOnUse"
       x2="460.7"
       y1="559.35"
       x1="429.49"
       inkscape:collect="always" />
    <linearGradient
       id="linearGradient4534">
      <stop
         id="stop4536"
         style="stop-color:#000000"
         offset="0" />
      <stop
         id="stop4538"
         style="stop-color:#464646"
         offset="1" />
    </linearGradient>
    <linearGradient
       id="linearGradient4583"
       y2="719.11"
       xlink:href="#linearGradient4534"
       gradientUnits="userSpaceOnUse"
       x2="461.66"
       y1="711.89"
       x1="449.59"
       inkscape:collect="always" />
    <radialGradient
       inkscape:collect="always"
       xlink:href="#linearGradient3955"
       id="radialGradient3394"
       gradientUnits="userSpaceOnUse"
       gradientTransform="matrix(0.80128,0.46262,-0.47046,0.81486,419.61,-94.548)"
       cx="483.42"
       cy="690.38"
       r="15.668" />
    <radialGradient
       inkscape:collect="always"
       xlink:href="#linearGradient3955"
       id="radialGradient3396"
       gradientUnits="userSpaceOnUse"
       gradientTransform="matrix(0.80128,0.46262,-0.47046,0.81486,419.61,-94.548)"
       cx="483.42"
       cy="690.38"
       r="15.668" />
  </defs>
  <sodipodi:namedview
     id="base"
     bordercolor="#666666"
     inkscape:pageshadow="2"
     inkscape:window-y="56"
     pagecolor="#ffffff"
     inkscape:window-height="929"
     inkscape:window-maximized="0"
     inkscape:zoom="1.0787109"
     inkscape:window-x="0"
     showgrid="false"
     borderopacity="1.0"
     inkscape:current-layer="layer1"
     inkscape:cx="153.84864"
     inkscape:cy="149.85791"
     inkscape:window-width="624"
     inkscape:pageopacity="0.0"
     inkscape:document-units="px" />
  <g
     id="layer1"
     inkscape:label="Layer 1"
     inkscape:groupmode="layer"
     transform="translate(0 -652.36)">
    <g
       id="g6473"
       transform="matrix(3.046,0,0,3.046,-1151.3837,-1420.0809)">
      <circle
         id="path6407"
         style="fill:#666666;filter:url(#filter6469)"
         transform="matrix(1.0687,0,0,0.41665,-86.355,668.8)"
         cx="501.29279"
         cy="289.18274"
         r="44.729313" />
      <circle
         id="path3918"
         style="fill:#1a1a1a"
         transform="matrix(0.97764,0,0,0.97764,-57.681,475.99)"
         cx="501.29279"
         cy="289.18274"
         r="44.729313" />
      <circle
         id="path3920"
         style="fill:#000000"
         transform="matrix(0.95855,0,0,0.95855,-48.11,481.51)"
         cx="501.29279"
         cy="289.18274"
         r="44.729313" />
      <g
         id="g6149"
         style="opacity:0.18584002;filter:url(#filter6273)"
         transform="matrix(0.43675,-0.14094,0.14094,0.43675,154.36,505.18)"
         clip-path="url(#clipPath6307)">
        <path
           id="path6151"
           sodipodi:r2="4.877346"
           style="fill:url(#radialGradient3394);filter:url(#filter3989)"
           sodipodi:type="star"
           d="m 490.71741,704.88106 -8.30185,-8.68716 -5.64395,10.60817 1.61577,-11.907 -11.81275,2.20146 10.31669,-6.16063 -9.0863,-7.86299 11.24892,4.22482 0.48232,-12.00645 3.7105,11.4289 9.68773,-7.10881 -6.62201,10.02678 11.5981,3.14191 -11.96802,1.07429 z"
           sodipodi:r1="16.222656"
           inkscape:transform-center-x="0.13589183"
           inkscape:transform-center-y="0.15864112"
           transform="matrix(0.32731,0.1967,-0.1967,0.32731,476.51,378.32)"
           sodipodi:arg2="1.4339095"
           sodipodi:arg1="0.98511054"
           inkscape:randomized="0"
           sodipodi:cy="691.36218"
           sodipodi:cx="481.75"
           inkscape:rounded="0"
           inkscape:flatsided="false"
           sodipodi:sides="7" />
        <path
           id="path6153"
           style="fill:url(#radialGradient3396);filter:url(#filter3973)"
           sodipodi:type="star"
           sodipodi:sides="7"
           inkscape:transform-center-x="-0.265432"
           sodipodi:r1="16.222656"
           sodipodi:r2="4.877346"
           inkscape:transform-center-y="-0.27662885"
           sodipodi:arg1="0.98511054"
           sodipodi:arg2="1.4339095"
           transform="matrix(0.35708,0.42375,-0.42375,0.35708,619.16,248.29)"
           inkscape:randomized="0"
           sodipodi:cy="691.36218"
           sodipodi:cx="481.75"
           inkscape:rounded="0"
           inkscape:flatsided="false"
           d="m 490.71741,704.88106 -8.30185,-8.68716 -5.64395,10.60817 1.61577,-11.907 -11.81275,2.20146 10.31669,-6.16063 -9.0863,-7.86299 11.24892,4.22482 0.48232,-12.00645 3.7105,11.4289 9.68773,-7.10881 -6.62201,10.02678 11.5981,3.14191 -11.96802,1.07429 z" />
      </g>
      <circle
         id="path3922"
         style="fill:#ffffff;filter:url(#filter4339)"
         transform="matrix(0.13447,0,0,0.13447,388.87,697.44)"
         cx="501.29279"
         cy="289.18274"
         r="44.729313" />
      <path
         id="path4320"
         sodipodi:nodetypes="cccscssczcsccc"
         style="color:#000000;text-indent:0;text-transform:none;block-progression:tb;fill:#2b1100"
         inkscape:connector-curvature="0"
         d="m 466.45,712.38 c -5.5294,-0.47024 -9.4247,-1.9441 -11.937,2.2528 -1.3207,1.9967 -1.8619,4.086 1.8699,4.4849 0.22462,0.0195 0.60387,0.66165 0.57364,0.88214 -0.19722,1.4387 1.5542,-1.9351 1.5912,-2.7938 -0.043,0.47216 -0.0289,0.15492 0.0625,-0.0625 0.0914,-0.21742 0.22278,-0.50259 0.375,-0.78125 0.13962,-0.2556 0.29532,-0.50133 0.40625,-0.65625 8.7925,-4.0045 8.0019,3.7128 12.959,4.958 4.957,1.2452 9.4035,2.2054 12.447,-1.1768 0.66287,-0.80992 0.52897,-2.15 -0.28105,-2.8127 -0.81002,-0.66275 -2.1501,-0.52864 -2.8127,0.28149 -5.3808,3.5307 -6.6552,1.495 -8.9865,0.64471 -2.0613,-1.328 -4.8245,-4.1117 -6.2676,-5.2207 z" />
      <path
         id="path6311"
         sodipodi:nodetypes="cccccccc"
         d="m 464.54,738.94 c -1.539,-0.56843 -4.9694,-2.4797 -4.5102,-3.9025 0.67388,-0.46663 3.3962,3.7489 7.9377,2.4543 1.5686,0.29211 2.9396,0.59554 2.9516,1.8698 0.9857,0.48437 0.83126,0.88393 0.46958,0.95745 -1.3751,-0.98492 -1.9628,-2.3324 -4.0288,-1.9725 -0.83811,0.0925 -2.1918,0.48135 -2.8196,0.59341 z"
         inkscape:transform-center-x="1.9455736"
         inkscape:transform-center-y="-0.82976616"
         inkscape:connector-curvature="0"
         style="color:#000000;text-indent:0;text-transform:none;block-progression:tb;opacity:0.85283;fill:#28170b;filter:url(#filter6333)" />
      <path
         id="path6163"
         d="m 456.35,726.04 6.75,8.8384 c -0.25331,0.93439 -0.81987,1.8061 -3.4001,2.2751 l -12.2,-10.92 z"
         sodipodi:nodetypes="ccccc"
         style="fill:#1a1a1a;filter:url(#filter6197)"
         inkscape:connector-curvature="0" />
      <circle
         id="path3924"
         style="fill:url(#linearGradient3942)"
         transform="matrix(0.69027,0,0,0.47788,86.377,601.51)"
         cx="501.29279"
         cy="289.18274"
         r="44.729313" />
      <path
         id="path3926"
         style="fill:url(#linearGradient3944)"
         inkscape:connector-curvature="0"
         d="m 462.42,784.73 c -8.3281,6.7553 -18.946,10.799 -30.505,10.799 -10.279,0 -19.8,-3.2112 -27.641,-8.6707 6.6022,8.3527 16.798,13.715 28.272,13.715 12.423,0 23.392,-6.2816 29.875,-15.844 z" />
      <path
         id="path3928"
         d="m 397.46,741.39 c -2.2838,4.4803 -3.5607,8.5157 -4.0838,12.204 1.0278,0.13595 2.0904,0.31245 3.1763,0.54928 0.79872,-4.7023 2.4526,-8.4574 4.4898,-11.32 -1.2294,-0.26808 -2.4289,-0.70877 -3.5823,-1.4329 z m 13.135,1.5762 c -2.7554,0.064 -5.5492,0.42397 -8.2392,0.0955 -2.1265,2.7459 -4.0303,6.487 -5.0152,11.272 1.2597,0.30039 2.5623,0.65613 3.8927,1.0986 1.439,-3.9546 4.1358,-8.0302 9.3617,-12.466 z m -17.314,11.392 c -0.66073,5.7469 0.48252,10.679 2.4121,15.261 l 1.2657,0.42987 c -1.0869,-5.8368 -1.1509,-10.915 -0.50152,-15.237 -1.087,-0.20488 -2.1496,-0.35418 -3.1763,-0.45375 z m 3.9405,0.62093 c -0.79531,4.2897 -0.84322,9.3858 0.2627,15.26 l 1.7195,0.59705 c 0.40515,-5.1208 0.1959,-9.8963 1.8628,-14.855 -1.3143,-0.40706 -2.6031,-0.7424 -3.845,-1.003 z"
         style="fill:url(#linearGradient3946)"
         inkscape:connector-curvature="0" />
      <ellipse
         id="path3932"
         style="fill:#000000"
         transform="matrix(0.47713,0.26843,-0.26843,0.47713,393,343.39)"
         cx="435.7019"
         cy="557.4054"
         rx="11.38944"
         ry="3.7964799" />
      <path
         id="rect3934"
         d="m 452.25,713.94 -5.25,9.375 0.0625,0.0312 c -0.0862,0.0588 -0.17077,0.13346 -0.21875,0.21875 -0.47459,0.84358 1.188,2.67 3.7188,4.0938 2.5308,1.4238 4.9942,1.9061 5.4688,1.0625 0.0445,-0.0791 0.0546,-0.18584 0.0625,-0.28125 l 0.0625,0.0312 5.2812,-9.375 c -3.0722,1.0692 -9.6658,-3.3406 -9.1875,-5.1562 z"
         style="fill:url(#linearGradient4555)"
         inkscape:connector-curvature="0" />
      <ellipse
         id="path3940"
         style="fill:url(#linearGradient4540)"
         transform="matrix(0.36502,0.20536,-0.17371,0.30877,394.64,454.87)"
         cx="435.7019"
         cy="557.4054"
         rx="11.38944"
         ry="3.7964799" />
      <path
         id="path4503"
         d="m 454.87,714.08 c -0.12305,0.17157 -0.22672,0.367 -0.34375,0.5625 -0.28675,0.43351 -0.54125,0.85725 -0.71875,1.2812 0.61512,0.54526 1.4246,1.1528 2.375,1.6875 0.67647,0.38058 1.3275,0.66948 1.9375,0.90625 0.18901,-0.43144 0.34733,-0.80683 0.40625,-1.0938 0.01,-0.0475 0.0481,-0.17254 0.0937,-0.28125 0.0914,-0.21742 0.22278,-0.50259 0.375,-0.78125 0.0204,-0.0373 0.0416,-0.0571 0.0625,-0.0937 -0.46401,-0.33915 -0.98848,-0.67706 -1.5625,-1 -0.94051,-0.52913 -1.8449,-0.94408 -2.625,-1.1875 z"
         style="color:#000000;text-indent:0;text-transform:none;block-progression:tb;fill:#2b1100"
         inkscape:connector-curvature="0" />
      <path
         id="path3938"
         d="m 453.56,713.47 c -0.63124,-0.0342 -1.1033,0.0899 -1.2812,0.40625 -0.47459,0.84358 1.188,2.7012 3.7188,4.125 2.5308,1.4238 4.9942,1.8748 5.4688,1.0312 0.47459,-0.84358 -1.2192,-2.67 -3.75,-4.0938 -1.5817,-0.88987 -3.1042,-1.4118 -4.1562,-1.4688 z m -0.1875,0.4375 c 0.84851,-0.0642 2.4725,0.459 4.1562,1.4062 2.245,1.263 3.7624,2.8045 3.4062,3.4375 -0.35612,0.633 -2.4738,0.138 -4.7188,-1.125 -2.245,-1.263 -3.7624,-2.8045 -3.4062,-3.4375 0.089,-0.15825 0.27966,-0.25985 0.5625,-0.28125 z"
         style="fill:url(#linearGradient4583)"
         inkscape:connector-curvature="0" />
      <path
         id="path3948"
         style="fill:url(#radialGradient6303);filter:url(#filter3973)"
         sodipodi:type="star"
         sodipodi:sides="7"
         inkscape:transform-center-x="-0.20769473"
         sodipodi:r1="16.222656"
         sodipodi:r2="4.877346"
         inkscape:transform-center-y="-0.21645186"
         sodipodi:arg1="0.98511054"
         sodipodi:arg2="1.4339095"
         transform="matrix(0.50275,0.31409,-0.31409,0.50275,459.47,218.91)"
         inkscape:randomized="0"
         sodipodi:cy="691.36218"
         sodipodi:cx="481.75"
         inkscape:rounded="0.01"
         inkscape:flatsided="false"
         d="m 490.71741,704.88106 c -0.10013,0.0664 -8.18281,-8.70355 -8.30185,-8.68716 -0.11904,0.0164 -5.52959,10.64505 -5.64395,10.60817 -0.11437,-0.0369 1.70281,-11.82416 1.61577,-11.907 -0.087,-0.0829 -11.77027,2.31387 -11.81275,2.20146 -0.0425,-0.1124 10.30619,-6.04093 10.31669,-6.16063 0.0105,-0.1197 -9.1477,-7.7597 -9.0863,-7.86299 0.0614,-0.10329 11.14879,4.29124 11.24892,4.22482 0.10014,-0.0664 0.36328,-11.99005 0.48232,-12.00645 0.11904,-0.0164 3.59613,11.39202 3.7105,11.4289 0.11436,0.0369 9.6007,-7.19166 9.68773,-7.10881 0.087,0.0828 -6.66449,9.91438 -6.62201,10.02678 0.0425,0.1124 11.6086,3.02221 11.5981,3.14191 -0.0105,0.1197 -11.90662,0.971 -11.96802,1.07429 -0.0614,0.1033 4.87499,10.96029 4.77485,11.02671 z" />
      <path
         id="path4516"
         d="m 455.09,713.76 c -0.0788,0.10087 -0.14235,0.23383 -0.21875,0.34375 0.77017,0.23736 1.6689,0.63596 2.5938,1.1562 0.59204,0.33308 1.1005,0.68901 1.5703,1.0391 0.0737,-0.13492 0.13332,-0.27338 0.20703,-0.3909 -0.48615,-0.36226 -0.99322,-0.6875 -1.5898,-1.0232 -0.90273,-0.50788 -1.7748,-0.87487 -2.5625,-1.125 z"
         sodipodi:nodetypes="ccsccsc"
         style="color:#000000;text-indent:0;text-transform:none;block-progression:tb;fill:#2b1100"
         inkscape:connector-curvature="0" />
    </g>
  </g>
  <metadata
     id="metadata66">
    <rdf:RDF>
      <cc:Work>
        <dc:format>image/svg+xml</dc:format>
        <dc:type
           rdf:resource="http://purl.org/dc/dcmitype/StillImage" />
        <cc:license
           rdf:resource="http://creativecommons.org/publicdomain/zero/1.0/" />
        <dc:publisher>
          <cc:Agent
             rdf:about="http://openclipart.org/">
            <dc:title>Openclipart</dc:title>
          </cc:Agent>
        </dc:publisher>
        <dc:title>Black Bomb</dc:title>
        <dc:date>2011-04-05T22:11:11</dc:date>
        <dc:description />
        <dc:source>https://openclipart.org/detail/131257/black-bomb-by-ricardomaia</dc:source>
        <dc:creator>
          <cc:Agent>
            <dc:title>ricardomaia</dc:title>
          </cc:Agent>
        </dc:creator>
        <dc:subject>
          <rdf:Bag>
            <rdf:li>black</rdf:li>
            <rdf:li>bomb</rdf:li>
          </rdf:Bag>
        </dc:subject>
      </cc:Work>
      <cc:License
         rdf:about="http://creativecommons.org/publicdomain/zero/1.0/">
        <cc:permits
           rdf:resource="http://creativecommons.org/ns#Reproduction" />
        <cc:permits
           rdf:resource="http://creativecommons.org/ns#Distribution" />
        <cc:permits
           rdf:resource="http://creativecommons.org/ns#DerivativeWorks" />
      </cc:License>
    </rdf:RDF>
  </metadata>
</svg>
